<svg width="45" height="45" viewBox="0 0 45 45" fill="none" xmlns="http://www.w3.org/2000/svg">
<path d="M22.1 42.7001C33.0352 42.7001 41.9 33.8353 41.9 22.9001C41.9 11.9649 33.0352 3.1001 22.1 3.1001C11.1648 3.1001 2.29999 11.9649 2.29999 22.9001C2.29999 33.8353 11.1648 42.7001 22.1 42.7001Z" fill="url(#paint0_linear)"/>
<path d="M14.2 15.6C15.4703 15.6 16.5 14.5703 16.5 13.3C16.5 12.0297 15.4703 11 14.2 11C12.9298 11 11.9 12.0297 11.9 13.3C11.9 14.5703 12.9298 15.6 14.2 15.6Z" fill="white"/>
<path d="M35.1 24.0999C19.9 31.7999 12.7 19.8999 2.70001 26.4999C2.80001 26.7999 2.80001 27.0999 2.90001 27.3999C5.30001 37.9999 15.9 44.5999 26.6 42.1999C36.6 39.8999 43.1 30.2999 41.7 20.3999C39.4 21.6999 37.2 22.9999 35.1 24.0999Z" fill="url(#paint1_linear)"/>
<defs>
<linearGradient id="paint0_linear" x1="38.8735" y1="33.3732" x2="5.36443" y2="12.4555" gradientUnits="userSpaceOnUse">
<stop stop-color="#6D2B6C"/>
<stop offset="0.1202" stop-color="#7B3070"/>
<stop offset="0.4612" stop-color="#9F427E"/>
<stop offset="0.6685" stop-color="#B14B82"/>
<stop offset="1" stop-color="#D45B8D"/>
</linearGradient>
<linearGradient id="paint1_linear" x1="23.1712" y1="18.0584" x2="20.1837" y2="42.5809" gradientUnits="userSpaceOnUse">
<stop stop-color="#A0246A"/>
<stop offset="0.1848" stop-color="#AD4A7E"/>
<stop offset="0.7509" stop-color="#DCB9C9"/>
<stop offset="1" stop-color="#F2E4E4"/>
</linearGradient>
</defs>
</svg>
