<svg id="Ebene_1" data-name="Ebene 1" xmlns="http://www.w3.org/2000/svg" viewBox="0 0 78 78.5"><defs><style>.cls-1,.cls-3{fill:none;stroke:#ff7bac;stroke-linecap:round;stroke-linejoin:round;}.cls-1{stroke-width:2px;}.cls-2{fill:#ff7bac;}.cls-3{stroke-width:2.47px;}</style></defs><path class="cls-1" d="M100,148v8c0,7,5,11,9,11h9.8" transform="translate(-98.3 -96.8)"/><polygon class="cls-2" points="13.9 78.4 12.6 77 19.8 70.2 12.6 63.5 13.9 62.1 22.7 70.2 13.9 78.4"/><path class="cls-1" d="M173,124v-8c0-7-5-11-9-11h-9.8" transform="translate(-98.3 -96.8)"/><polygon class="cls-2" points="62.5 0.1 63.9 1.5 56.7 8.2 63.9 14.9 62.5 16.4 53.7 8.2 62.5 0.1"/><circle class="cls-3" cx="53.2" cy="53.7" r="23.5"/><path class="cls-2" d="M129.3,142.9a25.9,25.9,0,0,1-6.3.9,22.3,22.3,0,1,1,22.3-22.3,20.8,20.8,0,0,1-1.1,6.6l2.8-.7a23.2,23.2,0,0,0,.7-5.9A24.7,24.7,0,1,0,123,146.2a25.1,25.1,0,0,0,5.5-.6A27.6,27.6,0,0,1,129.3,142.9Z" transform="translate(-98.3 -96.8)"/><path class="cls-2" d="M123.6,118.2c2.9.6,4.9,1.5,6,2.6a6.8,6.8,0,0,1,1.5,4.7,7.5,7.5,0,0,1-2,5.3,7.3,7.3,0,0,1-5.5,2.5V136h-1.8v-2.7c-4.8-.5-7.4-3.1-7.7-7.7h3.4c.3,2.9,1.7,4.6,4.3,5v-9.8c-4.8-.9-7.1-3.2-7.1-6.9a6.6,6.6,0,0,1,1.9-5,8,8,0,0,1,5.2-2.2V104h1.8v2.7c4.2.3,6.5,2.4,6.9,6.4h-3.4a3.7,3.7,0,0,0-3.5-3.7Zm-1.8-.4v-8.5c-2.5.5-3.7,1.9-3.7,4.3a3.7,3.7,0,0,0,1,2.9A6.8,6.8,0,0,0,121.8,117.8Zm1.8,12.8c2.7-.3,4.1-1.9,4.1-4.9a4.4,4.4,0,0,0-.8-2.8,6.3,6.3,0,0,0-3.3-1.6Z" transform="translate(-98.3 -96.8)"/><rect class="cls-2" x="22.7" y="6.2" width="3" height="35" rx="1.2"/><path class="cls-2" d="M163,156.3a6.8,6.8,0,0,1-2.5,5.7c-1.7,1.3-5.1,1.9-8.2,1.9h-9.8V137.8h9.3a10.5,10.5,0,0,1,6.5,1.8,5.8,5.8,0,0,1,2.4,4.9,5.9,5.9,0,0,1-3.7,5.6c1.6.4,3.9,1.2,4.7,2.3A6.3,6.3,0,0,1,163,156.3Zm-17.1-7.6h5.8a7.9,7.9,0,0,0,4.3-.9,3.3,3.3,0,0,0,1.3-3,3.2,3.2,0,0,0-1.3-2.9c-.9-.7-2.4-1-4.6-1h-5.5Zm0,12.1h6.3c4.2,0,7.2-1.5,7.2-4.5a4.2,4.2,0,0,0-1.4-3.4c-1-.7-3.7-1.1-6.2-1.1h-5.9Z" transform="translate(-98.3 -96.8)"/><path class="cls-2" d="M148,162.8v2.1a1.1,1.1,0,0,0,1.1,1.1h.8a1.1,1.1,0,0,0,1.1-1.1v-2.5Z" transform="translate(-98.3 -96.8)"/><path class="cls-2" d="M151,139v-1.9a1.1,1.1,0,0,0-1.1-1.1h-.8a1.1,1.1,0,0,0-1.1,1.1V139Z" transform="translate(-98.3 -96.8)"/></svg>