<svg id="Ebene_1" data-name="Ebene 1" xmlns="http://www.w3.org/2000/svg" viewBox="0 0 71.8 67.5"><defs><style>.cls-1{fill:none;stroke:#ff7bac;stroke-miterlimit:10;stroke-width:2px;}.cls-2{fill:#ff7bac;}</style></defs><line class="cls-1" x1="1" y1="10.9" x2="66" y2="10.9"/><circle class="cls-2" cx="5.5" cy="6" r="1.5"/><circle class="cls-2" cx="10.8" cy="6" r="1.5"/><circle class="cls-2" cx="16" cy="6" r="1.5"/><circle class="cls-1" cx="56.8" cy="52.5" r="14"/><path class="cls-2" d="M144.1,162.5H112a3.5,3.5,0,0,1-3.5-3.5V113a3.5,3.5,0,0,1,3.5-3.5h56a3.5,3.5,0,0,1,3.5,3.5v28.8l2,1V113a5.5,5.5,0,0,0-5.5-5.5H112a5.5,5.5,0,0,0-5.5,5.5v46a5.5,5.5,0,0,0,5.5,5.5h32.4A13.8,13.8,0,0,1,144.1,162.5Z" transform="translate(-106.5 -107.5)"/><circle class="cls-2" cx="51" cy="53" r="1.5"/><circle class="cls-2" cx="57.5" cy="53" r="1.5"/><circle class="cls-2" cx="64" cy="53" r="1.5"/></svg>