<svg id="Ebene_1" data-name="Ebene 1" xmlns="http://www.w3.org/2000/svg" viewBox="0 0 77.2 51.4"><defs><style>.cls-1{fill:none;stroke:#ff7bac;stroke-linecap:round;stroke-linejoin:round;stroke-width:2px;}</style></defs><path class="cls-1" d="M91,156s1.3-14.1,2-17,15-18,19-21,6,2,4,5-5,7-5,7" transform="translate(-90 -116.1)"/><path class="cls-1" d="M97,166s5,1,8,0,10-6,14-9,6-6,1-8" transform="translate(-90 -116.1)"/><circle class="cls-1" cx="22.5" cy="25.2" r="10.8"/><path class="cls-1" d="M166.2,156s-1.2-14.1-1.9-17-15-18-19-21-6,2-4,5,5,7,5,7" transform="translate(-90 -116.1)"/><path class="cls-1" d="M160.2,166s-5,1-8,0-10-6-14-9-6-6-1-8" transform="translate(-90 -116.1)"/><circle class="cls-1" cx="54.8" cy="25.2" r="10.8"/><line class="cls-1" x1="30.1" y1="17.5" x2="46.7" y2="17.5"/><path class="cls-1" d="M123.1,143.3A4.9,4.9,0,0,1,128,140a7.4,7.4,0,0,1,6,3.3" transform="translate(-90 -116.1)"/></svg>