<svg width="455" height="339" viewBox="0 0 455 339" fill="none" xmlns="http://www.w3.org/2000/svg">
<path d="M455 297.928H0.360657V298.155H455V297.928Z" fill="#EBEBEB"/>
<path d="M303.905 305.811H273.79V306.038H303.905V305.811Z" fill="#EBEBEB"/>
<path d="M367.609 313.158H359.708V313.385H367.609V313.158Z" fill="#EBEBEB"/>
<path d="M322.955 309.748H305.505V309.975H322.955V309.748Z" fill="#EBEBEB"/>
<path d="M87.3331 305.647H48.0614V305.875H87.3331V305.647Z" fill="#EBEBEB"/>
<path d="M228.59 305.647H222.834V305.875H228.59V305.647Z" fill="#EBEBEB"/>
<path d="M170.396 309.603H129.196V309.83H170.396V309.603Z" fill="#EBEBEB"/>
<path d="M215.86 257.374H40.2871C38.9117 257.371 37.5934 256.823 36.6217 255.85C35.6499 254.876 35.1042 253.557 35.1042 252.182V5.37619C35.1162 4.00866 35.6672 2.70108 36.6376 1.73746C37.6081 0.773841 38.9195 0.232018 40.2871 0.229675H215.86C217.237 0.229675 218.557 0.776686 219.531 1.75037C220.505 2.72406 221.052 4.04466 221.052 5.42166V252.182C221.052 253.559 220.505 254.879 219.531 255.853C218.557 256.827 217.237 257.374 215.86 257.374ZM40.2871 0.411532C38.9719 0.41394 37.7115 0.938063 36.7824 1.86886C35.8533 2.79965 35.3315 4.06106 35.3315 5.37619V252.182C35.3315 253.497 35.8533 254.758 36.7824 255.689C37.7115 256.62 38.9719 257.144 40.2871 257.146H215.86C217.176 257.144 218.437 256.62 219.368 255.69C220.298 254.759 220.822 253.498 220.824 252.182V5.37619C220.822 4.06022 220.298 2.79884 219.368 1.8683C218.437 0.937767 217.176 0.413935 215.86 0.411532H40.2871Z" fill="#EBEBEB"/>
<path d="M412.546 257.374H236.964C235.588 257.371 234.269 256.824 233.295 255.85C232.322 254.877 231.774 253.558 231.772 252.182V5.37619C231.786 4.00783 232.34 2.70026 233.311 1.73689C234.283 0.773523 235.596 0.231992 236.964 0.229675H412.546C413.912 0.234408 415.221 0.777288 416.189 1.74065C417.158 2.70401 417.708 4.01023 417.72 5.37619V252.182C417.72 253.556 417.175 254.873 416.205 255.847C415.236 256.82 413.92 257.369 412.546 257.374ZM236.964 0.411532C235.648 0.413935 234.387 0.937767 233.456 1.8683C232.526 2.79884 232.002 4.06022 231.999 5.37619V252.182C232.002 253.498 232.526 254.759 233.456 255.69C234.387 256.62 235.648 257.144 236.964 257.146H412.546C413.862 257.144 415.123 256.62 416.054 255.69C416.984 254.759 417.508 253.498 417.51 252.182V5.37619C417.508 4.06022 416.984 2.79884 416.054 1.8683C415.123 0.937767 413.862 0.413935 412.546 0.411532H236.964Z" fill="#EBEBEB"/>
<path d="M195.692 28.9265H66.8835V174.038H195.692V28.9265Z" fill="#EBEBEB"/>
<path d="M188.881 36.6008H73.7031V166.364H188.881V36.6008Z" fill="#FAFAFA"/>
<path d="M113.611 166.364H94.1437L112.475 36.6008H131.942L113.611 166.364Z" fill="white"/>
<path d="M153.429 166.364H143.69L162.021 36.6008H171.76L153.429 166.364Z" fill="white"/>
<path d="M135.879 36.6008H126.705V166.364H135.879V36.6008Z" fill="#EBEBEB"/>
<path d="M135.88 166.364H137.925L137.925 36.6008H135.88L135.88 166.364Z" fill="#E0E0E0"/>
<path d="M195.692 174.038H197.156L197.156 28.9265H195.692L195.692 174.038Z" fill="#E0E0E0"/>
<path d="M72.9847 188.85H67.138C61.1119 188.85 56.2267 193.736 56.2267 199.762V274.723C56.2267 280.749 61.1119 285.634 67.138 285.634H72.9847C79.0109 285.634 83.896 280.749 83.896 274.723V199.762C83.896 193.736 79.0109 188.85 72.9847 188.85Z" fill="#F5F5F5"/>
<path d="M78.895 192.087H77.0856C72.4203 192.087 68.6384 195.869 68.6384 200.535V273.959C68.6384 278.624 72.4203 282.406 77.0856 282.406H78.895C83.5603 282.406 87.3422 278.624 87.3422 273.959V200.535C87.3422 195.869 83.5603 192.087 78.895 192.087Z" fill="#EBEBEB"/>
<path d="M93.0889 188.85H87.2423C81.2161 188.85 76.3309 193.736 76.3309 199.762V274.723C76.3309 280.749 81.2161 285.634 87.2423 285.634H93.0889C99.1151 285.634 104 280.749 104 274.723V199.762C104 193.736 99.1151 188.85 93.0889 188.85Z" fill="#F5F5F5"/>
<path d="M98.981 192.087H97.1806C92.5153 192.087 88.7334 195.869 88.7334 200.535V273.959C88.7334 278.624 92.5153 282.406 97.1806 282.406H98.981C103.646 282.406 107.428 278.624 107.428 273.959V200.535C107.428 195.869 103.646 192.087 98.981 192.087Z" fill="#EBEBEB"/>
<path d="M113.184 188.85H107.337C101.311 188.85 96.426 193.736 96.426 199.762V274.723C96.426 280.749 101.311 285.634 107.337 285.634H113.184C119.21 285.634 124.095 280.749 124.095 274.723V199.762C124.095 193.736 119.21 188.85 113.184 188.85Z" fill="#F5F5F5"/>
<path d="M119.076 192.087H117.276C112.61 192.087 108.828 195.869 108.828 200.535V273.959C108.828 278.624 112.61 282.406 117.276 282.406H119.076C123.741 282.406 127.523 278.624 127.523 273.959V200.535C127.523 195.869 123.741 192.087 119.076 192.087Z" fill="#EBEBEB"/>
<path d="M133.279 188.85H127.432C121.406 188.85 116.521 193.736 116.521 199.762V274.723C116.521 280.749 121.406 285.634 127.432 285.634H133.279C139.305 285.634 144.19 280.749 144.19 274.723V199.762C144.19 193.736 139.305 188.85 133.279 188.85Z" fill="#F5F5F5"/>
<path d="M139.171 192.087H137.371C132.706 192.087 128.924 195.869 128.924 200.535V273.959C128.924 278.624 132.706 282.406 137.371 282.406H139.171C143.836 282.406 147.618 278.624 147.618 273.959V200.535C147.618 195.869 143.836 192.087 139.171 192.087Z" fill="#EBEBEB"/>
<path d="M153.374 188.85H147.527C141.501 188.85 136.616 193.736 136.616 199.762V274.723C136.616 280.749 141.501 285.634 147.527 285.634H153.374C159.4 285.634 164.285 280.749 164.285 274.723V199.762C164.285 193.736 159.4 188.85 153.374 188.85Z" fill="#F5F5F5"/>
<path d="M159.284 192.087H157.475C152.81 192.087 149.028 195.869 149.028 200.535V273.959C149.028 278.624 152.81 282.406 157.475 282.406H159.284C163.95 282.406 167.732 278.624 167.732 273.959V200.535C167.732 195.869 163.95 192.087 159.284 192.087Z" fill="#EBEBEB"/>
<path d="M173.478 188.85H167.632C161.605 188.85 156.72 193.736 156.72 199.762V274.723C156.72 280.749 161.605 285.634 167.632 285.634H173.478C179.504 285.634 184.39 280.749 184.39 274.723V199.762C184.39 193.736 179.504 188.85 173.478 188.85Z" fill="#F5F5F5"/>
<path d="M179.379 192.087H177.57C172.905 192.087 169.123 195.869 169.123 200.535V273.959C169.123 278.624 172.905 282.406 177.57 282.406H179.379C184.045 282.406 187.827 278.624 187.827 273.959V200.535C187.827 195.869 184.045 192.087 179.379 192.087Z" fill="#EBEBEB"/>
<path d="M193.573 188.85H187.727C181.7 188.85 176.815 193.736 176.815 199.762V274.723C176.815 280.749 181.7 285.634 187.727 285.634H193.573C199.599 285.634 204.485 280.749 204.485 274.723V199.762C204.485 193.736 199.599 188.85 193.573 188.85Z" fill="#F5F5F5"/>
<path d="M206.34 274.886H182.262C181.78 274.886 181.317 274.695 180.976 274.354C180.635 274.013 180.443 273.55 180.443 273.068C180.443 272.586 180.635 272.123 180.976 271.782C181.317 271.441 181.78 271.249 182.262 271.249H206.34C206.822 271.249 207.284 271.441 207.626 271.782C207.967 272.123 208.158 272.586 208.158 273.068C208.158 273.55 207.967 274.013 207.626 274.354C207.284 274.695 206.822 274.886 206.34 274.886Z" fill="#F5F5F5"/>
<path d="M206.34 205.627H182.262C181.78 205.627 181.317 205.435 180.976 205.094C180.635 204.753 180.443 204.29 180.443 203.808C180.443 203.326 180.635 202.863 180.976 202.522C181.317 202.181 181.78 201.99 182.262 201.99H206.34C206.822 201.99 207.284 202.181 207.626 202.522C207.967 202.863 208.158 203.326 208.158 203.808C208.158 204.29 207.967 204.753 207.626 205.094C207.284 205.435 206.822 205.627 206.34 205.627Z" fill="#F5F5F5"/>
<path d="M402.616 136.421H329.874L336.321 76.609H396.17L402.616 136.421Z" fill="#EBEBEB"/>
<path d="M386.65 136.421H374.147L371.501 76.609H383.04L386.65 136.421Z" fill="#F5F5F5"/>
<path d="M369.882 136.421H362.608V297.928H369.882V136.421Z" fill="#F0F0F0"/>
<path d="M369.819 197.016H362.672C360.894 197.016 359.453 198.457 359.453 200.235V207.382C359.453 209.159 360.894 210.6 362.672 210.6H369.819C371.596 210.6 373.038 209.159 373.038 207.382V200.235C373.038 198.457 371.596 197.016 369.819 197.016Z" fill="#F0F0F0"/>
<path d="M377.757 297.928H354.725C354.725 296.625 355.242 295.376 356.163 294.456C357.084 293.535 358.333 293.017 359.635 293.017H372.856C373.5 293.017 374.138 293.145 374.733 293.391C375.329 293.638 375.869 294 376.325 294.456C376.78 294.912 377.141 295.454 377.386 296.049C377.632 296.645 377.758 297.283 377.757 297.928Z" fill="#F0F0F0"/>
<path d="M369.882 136.421H362.608V140.868H369.882V136.421Z" fill="#E0E0E0"/>
<path d="M308.524 39.0287H253.568V161.881H308.524V39.0287Z" fill="#F0F0F0"/>
<path d="M308.524 161.872H310.343V39.0195H308.524V161.872Z" fill="#E0E0E0"/>
<path d="M299.241 45.6936H262.869V155.207H299.241V45.6936Z" fill="#FAFAFA"/>
<path d="M287.474 99.3411C287.692 100.612 287.527 101.92 287.002 103.097C286.476 104.275 285.613 105.27 284.521 105.957C283.43 106.644 282.159 106.992 280.87 106.957C279.581 106.922 278.331 106.505 277.279 105.759C276.227 105.014 275.419 103.973 274.959 102.768C274.498 101.564 274.405 100.249 274.692 98.9919C274.978 97.7345 275.631 96.5902 276.568 95.7039C277.505 94.8176 278.683 94.2291 279.955 94.0128C281.658 93.7254 283.406 94.1248 284.815 95.1235C286.225 96.1223 287.181 97.6388 287.474 99.3411Z" fill="#F0F0F0"/>
<path d="M283.146 73.954C283.362 75.2252 283.196 76.5317 282.669 77.7085C282.142 78.8852 281.278 79.8793 280.186 80.565C279.094 81.2507 277.823 81.5973 276.534 81.5608C275.245 81.5244 273.996 81.1066 272.945 80.3603C271.894 79.6141 271.087 78.5728 270.627 77.3681C270.168 76.1635 270.076 74.8496 270.363 73.5926C270.65 72.3356 271.303 71.1919 272.24 70.3062C273.177 69.4205 274.355 68.8325 275.627 68.6165C276.471 68.4718 277.336 68.4952 278.171 68.6853C279.006 68.8755 279.796 69.2286 280.494 69.7244C281.193 70.2203 281.787 70.8491 282.242 71.5749C282.697 72.3007 283.004 73.1091 283.146 73.954Z" fill="#F0F0F0"/>
<path d="M291.794 124.801C292.009 126.072 291.843 127.379 291.316 128.557C290.789 129.734 289.925 130.728 288.832 131.414C287.74 132.1 286.469 132.446 285.179 132.409C283.89 132.372 282.641 131.954 281.589 131.207C280.538 130.459 279.732 129.417 279.273 128.212C278.814 127.006 278.723 125.692 279.012 124.435C279.3 123.178 279.955 122.034 280.893 121.149C281.831 120.264 283.011 119.678 284.283 119.463C285.127 119.319 285.991 119.342 286.826 119.532C287.66 119.723 288.449 120.076 289.147 120.572C289.845 121.068 290.438 121.697 290.892 122.422C291.346 123.148 291.653 123.956 291.794 124.801Z" fill="#F0F0F0"/>
<path d="M227.68 338.99C325.048 338.99 403.98 334.382 403.98 328.697C403.98 323.013 325.048 318.404 227.68 318.404C130.313 318.404 51.3803 323.013 51.3803 328.697C51.3803 334.382 130.313 338.99 227.68 338.99Z" fill="#F5F5F5"/>
<path d="M276.881 93.5944C277.127 92.9136 277.57 92.3216 278.154 91.8941C277.95 91.507 277.828 91.0815 277.796 90.6448C277.765 90.208 277.825 89.7695 277.972 89.3572C278.115 88.96 278.334 88.5948 278.618 88.2827C278.902 87.9706 279.245 87.7177 279.627 87.5386C279.275 87.1192 279.055 86.6049 278.995 86.0607C278.935 85.5164 279.037 84.9666 279.289 84.4803C279.541 83.9941 279.931 83.5934 280.411 83.3286C280.89 83.0637 281.437 82.9467 281.982 82.9923C281.959 82.6862 281.99 82.3783 282.073 82.083C282.276 81.4304 282.723 80.8818 283.322 80.5528C283.921 80.2238 284.624 80.1399 285.283 80.319C285.064 79.7841 285.035 79.1904 285.201 78.6368C285.403 77.9747 285.859 77.4193 286.469 77.0922C287.079 76.7651 287.793 76.6927 288.456 76.891H288.557C288.558 76.6482 288.591 76.4066 288.657 76.1727C288.858 75.5103 289.314 74.9543 289.923 74.6257C290.533 74.2971 291.247 74.2223 291.912 74.4178C292.101 74.4809 292.284 74.5631 292.457 74.6633C292.41 74.174 292.524 73.6827 292.782 73.2641C293.039 72.8455 293.427 72.5226 293.885 72.3445C294.343 72.1664 294.847 72.1428 295.319 72.2774C295.792 72.4121 296.208 72.6975 296.504 73.0902C296.665 72.6867 296.939 72.3384 297.294 72.0872C297.649 71.8361 298.068 71.6928 298.503 71.6745C298.937 71.6563 299.367 71.7639 299.742 71.9844C300.116 72.2049 300.419 72.5289 300.614 72.9175C300.794 72.7777 301.007 72.6841 301.232 72.6447C301.433 72.6052 301.639 72.6059 301.84 72.6469C302.04 72.6878 302.23 72.7681 302.399 72.8831C302.569 72.9982 302.713 73.1456 302.825 73.317C302.937 73.4883 303.013 73.6801 303.05 73.8813C303.069 74.0049 303.069 74.1305 303.05 74.2541C303.374 73.944 303.776 73.7298 304.214 73.6352C304.652 73.5405 305.107 73.5693 305.53 73.7183C305.952 73.8672 306.325 74.1305 306.606 74.4787C306.888 74.827 307.067 75.2466 307.124 75.6908L307.306 75.6453C308.039 75.5548 308.779 75.757 309.364 76.208C309.95 76.659 310.334 77.3226 310.434 78.0549C310.47 78.3112 310.47 78.5714 310.434 78.8278C310.473 78.8226 310.513 78.8226 310.552 78.8278C311.286 78.7348 312.027 78.9361 312.613 79.3876C313.199 79.839 313.582 80.504 313.68 81.2373C313.757 81.8476 313.626 82.4661 313.307 82.9923C314.033 82.9145 314.761 83.1226 315.337 83.5724C315.912 84.0222 316.29 84.6783 316.39 85.4018C316.472 86.0583 316.317 86.7226 315.953 87.2749C316.532 87.3428 317.076 87.591 317.506 87.9846C317.937 88.3781 318.233 88.897 318.353 89.4679C318.472 90.0388 318.409 90.6329 318.173 91.1662C317.937 91.6995 317.539 92.145 317.035 92.4397C317.421 92.691 317.736 93.0357 317.952 93.4418C318.169 93.8479 318.279 94.3021 318.273 94.7622C318.266 95.2223 318.144 95.6733 317.916 96.0732C317.689 96.4732 317.364 96.8091 316.971 97.0497C317.498 97.4907 317.839 98.1141 317.926 98.7955C318.019 99.528 317.819 100.268 317.37 100.853C316.92 101.439 316.257 101.824 315.526 101.923C314.892 101.999 314.251 101.858 313.707 101.523C313.601 102.025 313.358 102.487 313.006 102.859C312.653 103.231 312.205 103.498 311.711 103.632C311.216 103.765 310.694 103.76 310.202 103.615C309.711 103.471 309.269 103.194 308.924 102.815C308.777 103.333 308.482 103.797 308.076 104.15C307.67 104.504 307.17 104.732 306.636 104.807C306.103 104.883 305.559 104.801 305.071 104.573C304.583 104.346 304.172 103.981 303.887 103.524C303.438 104.087 302.784 104.45 302.068 104.533C301.67 104.587 301.264 104.552 300.881 104.431C300.497 104.31 300.145 104.106 299.85 103.833C299.628 104.504 299.159 105.066 298.538 105.404C297.917 105.742 297.19 105.83 296.506 105.652C295.822 105.474 295.232 105.042 294.854 104.444C294.477 103.846 294.342 103.127 294.476 102.433C294.149 102.661 293.777 102.817 293.384 102.889C292.992 102.961 292.588 102.947 292.201 102.848C291.815 102.75 291.454 102.569 291.143 102.319C290.833 102.068 290.58 101.753 290.402 101.396C290.032 101.779 289.558 102.047 289.039 102.168C288.52 102.289 287.976 102.258 287.474 102.078C286.968 101.888 286.527 101.557 286.205 101.123C285.882 100.689 285.692 100.171 285.656 99.632C285.304 99.8987 284.892 100.076 284.456 100.148C284.02 100.22 283.573 100.186 283.154 100.047C282.734 99.9084 282.354 99.6699 282.048 99.3521C281.741 99.0343 281.515 98.6467 281.391 98.2227C280.745 98.4216 280.057 98.4366 279.403 98.266C278.749 98.0954 278.155 97.7459 277.689 97.2568C277.222 96.7677 276.901 96.1582 276.762 95.4969C276.623 94.8355 276.67 94.1484 276.9 93.5126L276.881 93.5944Z" fill="#263238"/>
<path d="M284.056 122.819C284.056 124.037 284.056 125.101 283.956 126.229C283.856 127.356 283.81 128.438 283.71 129.547C283.51 131.748 283.183 133.939 282.801 136.121C282.074 140.53 280.929 144.86 279.382 149.051L279.091 149.842C278.982 150.124 278.936 150.288 278.691 150.834C278.238 151.826 277.54 152.686 276.663 153.334C275.854 153.93 274.922 154.337 273.935 154.525C273.155 154.687 272.357 154.745 271.562 154.698C269.083 154.482 266.661 153.833 264.406 152.779C260.358 150.932 256.535 148.625 253.013 145.905L254.995 142.777C256.814 143.687 258.769 144.55 260.669 145.342C262.537 146.146 264.45 146.845 266.397 147.433C268.087 148.012 269.858 148.319 271.644 148.342C272.344 148.342 272.735 148.069 272.617 148.078C272.499 148.088 272.526 148.151 272.526 148.078L272.899 146.842C274.044 142.941 274.907 138.964 275.481 134.939C275.772 132.912 275.981 130.875 276.172 128.838C276.363 126.801 276.481 124.692 276.545 122.801L284.056 122.819Z" fill="#FFB573"/>
<path d="M278.345 114.262C275.399 115.244 274.19 127.765 274.19 127.765L282.883 132.793C282.883 132.793 289.911 119.745 287.365 116.608C284.819 113.471 282.646 112.826 278.345 114.262Z" fill="#BB2C75"/>
<path opacity="0.7" d="M278.345 114.262C275.399 115.244 274.19 127.765 274.19 127.765L282.883 132.793C282.883 132.793 289.911 119.745 287.365 116.608C284.819 113.471 282.646 112.826 278.345 114.262Z" fill="black"/>
<path opacity="0.2" d="M278.818 117.008L277.418 129.638L282.301 132.457L278.818 117.008Z" fill="black"/>
<path d="M256.304 143.187L251.322 136.531L249.312 143.687C249.312 143.687 252.667 146.978 255.568 146.069L256.304 143.187Z" fill="#FFB573"/>
<path d="M246.402 134.257L243.829 139.94L249.33 143.687L251.34 136.531L246.402 134.257Z" fill="#FFB573"/>
<path d="M305.678 321.232H298.368L296.667 304.302H303.978L305.678 321.232Z" fill="#FFB573"/>
<path d="M364.172 290.608L358.035 294.581L346.86 281.661L352.988 277.678L364.172 290.608Z" fill="#FFB573"/>
<path d="M356.598 293.827L362.754 288.371C362.859 288.277 362.995 288.225 363.136 288.225C363.277 288.225 363.412 288.277 363.518 288.371L368.519 292.626C368.642 292.736 368.742 292.87 368.81 293.02C368.877 293.171 368.913 293.334 368.913 293.499C368.913 293.664 368.877 293.828 368.81 293.978C368.742 294.129 368.642 294.263 368.519 294.372C366.345 296.236 365.2 297.018 362.49 299.41C360.826 300.883 358.544 303.201 356.252 305.238C353.961 307.275 351.815 305.102 352.615 304.056C356.089 299.337 355.643 297.464 356.016 294.963C356.072 294.528 356.277 294.126 356.598 293.827Z" fill="#263238"/>
<path d="M297.513 320.387H305.697C305.838 320.385 305.975 320.435 306.082 320.527C306.189 320.619 306.259 320.747 306.279 320.887L307.188 327.379C307.206 327.543 307.189 327.71 307.138 327.867C307.087 328.024 307.003 328.169 306.893 328.292C306.782 328.415 306.646 328.513 306.495 328.58C306.344 328.646 306.18 328.68 306.015 328.679C303.151 328.634 301.768 328.461 298.159 328.461C295.94 328.461 289.557 328.697 286.493 328.697C283.428 328.697 283.256 325.66 284.538 325.388C290.266 324.151 294.303 322.46 296.231 320.841C296.59 320.54 297.045 320.379 297.513 320.387Z" fill="#263238"/>
<g opacity="0.2">
<path opacity="0.2" d="M296.667 304.311L297.54 313.031H304.86L303.978 304.311H296.667Z" fill="black"/>
<path opacity="0.2" d="M352.997 277.687L346.859 281.661L352.624 288.326L358.762 284.343L352.997 277.687Z" fill="black"/>
</g>
<path d="M278.345 114.262C278.345 114.262 274.963 115.708 285.029 158.008L314.635 155.862C313.262 143.841 312.707 136.412 316.671 111.307C312.452 110.75 308.197 110.504 303.942 110.571C299.441 110.572 294.947 110.898 290.493 111.544C284.792 112.444 278.345 114.262 278.345 114.262Z" fill="#BB2C75"/>
<path opacity="0.7" d="M278.345 114.262C278.345 114.262 274.963 115.708 285.029 158.008L314.635 155.862C313.262 143.841 312.707 136.412 316.671 111.307C312.452 110.75 308.197 110.504 303.942 110.571C299.441 110.572 294.947 110.898 290.493 111.544C284.792 112.444 278.345 114.262 278.345 114.262Z" fill="black"/>
<path d="M301.541 95.4765C301.014 99.8683 300.741 107.852 303.978 110.525C303.978 110.525 303.069 114.999 295.076 115.581C286.238 116.226 290.53 111.498 290.53 111.498C295.276 109.998 294.885 106.424 293.803 103.124L301.541 95.4765Z" fill="#FFB573"/>
<path opacity="0.2" d="M298.386 98.5955L293.84 103.142C294.109 103.907 294.307 104.695 294.431 105.497C296.249 105.097 298.641 102.887 298.695 100.951C298.737 100.153 298.632 99.355 298.386 98.5955Z" fill="black"/>
<path d="M306.488 88.1751C304.833 95.2402 304.287 98.2681 300.05 101.314C293.685 105.861 285.374 102.314 284.892 94.9492C284.456 88.2751 287.238 77.8456 294.703 76.1999C296.344 75.8314 298.051 75.8872 299.665 76.362C301.278 76.8368 302.743 77.7149 303.923 78.9134C305.102 80.112 305.956 81.5913 306.405 83.2119C306.854 84.8324 306.882 86.5405 306.488 88.1751Z" fill="#FFB573"/>
<path d="M285.029 158.008C285.029 158.008 283.365 214.592 285.456 236.788C287.629 259.874 295.976 311.349 295.976 311.349H305.878C305.878 311.349 304.523 260.002 303.742 237.233C302.887 212.401 306.724 156.435 306.724 156.435L285.029 158.008Z" fill="#BB2C75"/>
<path d="M306.715 311.703H295.112L294.267 308.002L307.251 307.548L306.715 311.703Z" fill="#263238"/>
<path opacity="0.2" d="M298.813 171.056C292.603 186.214 300.359 212.483 303.651 222.221C303.887 207.209 304.787 188.823 305.542 175.311C303.896 167.819 301.678 164.064 298.813 171.056Z" fill="black"/>
<path d="M292.848 157.444C292.848 157.444 303.76 215.338 310.225 233.714C317.854 255.537 350.233 287.862 350.233 287.862L358.598 282.406C358.598 282.406 335.066 245.18 329.62 233.787C317.99 209.482 323.673 171.583 314.644 155.825L292.848 157.444Z" fill="#BB2C75"/>
<path d="M359.835 282.261L349.46 288.98L346.241 286.434L358.089 277.969L359.835 282.261Z" fill="#263238"/>
<path d="M294.312 88.1296C294.212 88.7115 293.83 89.1298 293.448 89.0389C293.067 88.948 292.839 88.4479 292.939 87.8659C293.039 87.284 293.43 86.8657 293.849 86.9566C294.267 87.0476 294.412 87.5204 294.312 88.1296Z" fill="#263238"/>
<path d="M287.747 87.0114C287.647 87.5933 287.256 88.0116 286.884 87.9206C286.511 87.8297 286.274 87.3387 286.374 86.7568C286.474 86.1748 286.856 85.7566 287.238 85.8475C287.62 85.9384 287.847 86.4294 287.747 87.0114Z" fill="#263238"/>
<path d="M287.401 85.9015L286.074 85.2564C286.074 85.2564 286.601 86.4739 287.401 85.9015Z" fill="#263238"/>
<path d="M290.066 88.4297C289.313 89.6664 288.395 90.7952 287.338 91.7849C287.599 92.0473 287.914 92.2499 288.261 92.3786C288.608 92.5074 288.979 92.5592 289.348 92.5305L290.066 88.4297Z" fill="#ED893E"/>
<path d="M292.139 95.3131C291.849 95.3116 291.56 95.2842 291.275 95.2312C291.237 95.2182 291.204 95.1917 291.183 95.1567C291.162 95.1217 291.154 95.0803 291.16 95.0399C291.167 94.9996 291.187 94.9628 291.218 94.9362C291.249 94.9097 291.289 94.895 291.33 94.8948C292.051 95.0361 292.796 95.0043 293.502 94.8019C294.209 94.5996 294.857 94.2325 295.394 93.7309C295.428 93.7002 295.472 93.6832 295.517 93.6832C295.563 93.6832 295.606 93.7002 295.64 93.7309C295.656 93.747 295.669 93.7661 295.678 93.7872C295.687 93.8082 295.691 93.8308 295.691 93.8537C295.691 93.8765 295.687 93.8991 295.678 93.9202C295.669 93.9412 295.656 93.9604 295.64 93.9764C295.175 94.4209 294.625 94.768 294.024 94.9975C293.423 95.227 292.782 95.3343 292.139 95.3131Z" fill="#263238"/>
<path d="M285.874 79.1914L298.049 74.736C298.274 74.9812 298.442 75.2731 298.54 75.5907C298.768 75.3104 299.055 75.0837 299.38 74.9266C299.706 74.7695 300.061 74.6858 300.423 74.6814C300.734 74.6747 301.043 74.7303 301.332 74.8451C301.84 74.9061 302.31 75.1444 302.659 75.518C302.966 75.8486 303.165 76.2636 303.232 76.7091C303.682 76.8984 304.065 77.2158 304.335 77.6216C304.605 78.0275 304.75 78.5039 304.751 78.9914C304.755 79.061 304.755 79.1309 304.751 79.2005C305 79.2116 305.246 79.2638 305.478 79.3551C306.06 79.5858 306.532 80.0284 306.801 80.5936C307.069 81.1588 307.113 81.8047 306.924 82.4012C307.395 82.7184 307.742 83.188 307.908 83.7311C308.073 84.2741 308.047 84.8577 307.833 85.3836L307.788 85.4746C308.142 85.8221 308.384 86.267 308.485 86.7527C308.585 87.2384 308.539 87.7431 308.352 88.2024C308.139 88.7185 307.762 89.1499 307.279 89.4299C307.279 89.539 307.333 89.6572 307.351 89.7754C307.678 89.7664 308.003 89.8252 308.306 89.9482C308.879 90.2169 309.329 90.6939 309.563 91.2822C309.798 91.8705 309.799 92.5259 309.568 93.1153C309.336 93.7047 308.889 94.1838 308.317 94.4552C307.744 94.7266 307.09 94.7699 306.488 94.5764C306.076 94.4155 305.716 94.1463 305.446 93.7973C305.175 93.4483 305.004 93.0326 304.951 92.5942C304.621 92.5957 304.294 92.534 303.987 92.4124C303.438 92.1931 302.985 91.7851 302.71 91.2616C302.435 90.7382 302.356 90.1338 302.487 89.5572C302.084 89.6919 301.654 89.7206 301.237 89.6407C300.82 89.5607 300.43 89.3748 300.106 89.1007C299.782 88.8267 299.533 88.4738 299.385 88.076C299.237 87.6781 299.193 87.2489 299.259 86.8294L299.004 86.7566C298.39 86.51 297.898 86.0297 297.637 85.4212C297.377 84.8127 297.368 84.1255 297.613 83.5105C297.726 83.2362 297.886 82.9839 298.086 82.7649C297.722 82.6429 297.391 82.4381 297.12 82.1667C296.849 81.8954 296.644 81.5648 296.522 81.2009C296.457 81.2892 296.384 81.3714 296.304 81.4465C295.933 81.7951 295.454 82.0067 294.946 82.0464C294.439 82.086 293.933 81.9514 293.512 81.6647L293.358 81.8374C293.097 82.0902 292.777 82.2748 292.428 82.3748C292.079 82.4748 291.71 82.4871 291.355 82.4107C291 82.3342 290.669 82.1714 290.392 81.9366C290.115 81.7018 289.9 81.4023 289.766 81.0645C289.442 81.4028 289.019 81.6302 288.559 81.7146C288.098 81.799 287.622 81.7361 287.2 81.5347C286.777 81.3333 286.428 81.0038 286.203 80.5929C285.978 80.182 285.889 79.7107 285.947 79.246L285.874 79.1914Z" fill="#263238"/>
<path d="M307.306 95.0494C306.955 95.656 306.488 96.1869 305.931 96.6115C305.374 97.0361 304.738 97.3457 304.06 97.5226C302.241 97.9864 301.396 96.3678 301.932 94.6857C302.414 93.1763 303.932 91.1122 305.724 91.3941C306.113 91.4619 306.479 91.6254 306.789 91.8699C307.1 92.1144 307.344 92.4322 307.501 92.7948C307.658 93.1573 307.723 93.5532 307.688 93.9467C307.654 94.3403 307.523 94.7192 307.306 95.0494Z" fill="#FFB573"/>
<path d="M297.177 87.2385C297.104 87.2388 297.033 87.2149 296.975 87.1704C296.918 87.1259 296.876 87.0635 296.858 86.993C296.385 85.4654 294.431 84.8107 294.412 84.8017C294.325 84.7725 294.253 84.7107 294.211 84.6293C294.168 84.5479 294.159 84.4532 294.185 84.3652C294.214 84.2785 294.276 84.2068 294.358 84.1659C294.44 84.125 294.535 84.1182 294.621 84.147C294.721 84.147 296.94 84.9199 297.522 86.793C297.545 86.8822 297.534 86.9768 297.49 87.0578C297.446 87.1388 297.373 87.2002 297.286 87.2294L297.177 87.2385Z" fill="#263238"/>
<path d="M286.293 83.6377C286.216 83.638 286.142 83.6131 286.081 83.5667C286.021 83.5204 285.977 83.4553 285.957 83.3815C285.938 83.3078 285.943 83.2296 285.972 83.1592C286.002 83.0887 286.053 83.03 286.12 82.9922C286.59 82.7051 287.122 82.5361 287.672 82.4997C288.221 82.4633 288.771 82.5605 289.275 82.783C289.316 82.8033 289.352 82.8314 289.382 82.8657C289.411 82.9 289.434 82.9398 289.448 82.9829C289.463 83.0259 289.468 83.0714 289.465 83.1167C289.462 83.162 289.45 83.2062 289.43 83.2468C289.409 83.2873 289.381 83.3236 289.347 83.3533C289.313 83.383 289.273 83.4057 289.23 83.4201C289.187 83.4344 289.141 83.4402 289.096 83.4369C289.051 83.4337 289.006 83.4216 288.966 83.4013C288.564 83.2308 288.127 83.1592 287.692 83.1924C287.257 83.2256 286.836 83.3628 286.465 83.5923C286.412 83.62 286.353 83.6355 286.293 83.6377Z" fill="#263238"/>
<path d="M320.7 119.509C321.918 123.855 322.873 128.156 323.709 132.557C324.146 134.748 324.5 136.967 324.81 139.195C324.973 140.304 325.101 141.432 325.228 142.55L325.392 144.25V144.678V144.941C325.392 145.151 325.392 145.369 325.392 145.578C325.341 146.573 324.978 147.528 324.355 148.306C323.855 148.891 323.235 149.363 322.536 149.688C322.081 149.897 321.606 150.058 321.118 150.17C320.38 150.331 319.628 150.422 318.872 150.443C317.626 150.469 316.38 150.405 315.144 150.252C312.864 149.969 310.602 149.556 308.37 149.015C306.175 148.475 304.011 147.894 301.878 147.269C299.741 146.596 297.64 145.933 295.513 145.141L296.495 141.568C298.622 141.923 300.777 142.314 302.923 142.632C305.069 142.95 307.206 143.296 309.334 143.541C311.461 143.787 313.571 144.014 315.599 144.078C316.548 144.114 317.499 144.09 318.445 144.005C318.788 143.974 319.127 143.903 319.454 143.796C319.581 143.796 319.609 143.723 319.581 143.732C319.39 143.823 319.222 143.957 319.09 144.123C318.807 144.476 318.638 144.908 318.608 145.36C318.604 145.435 318.604 145.511 318.608 145.587C318.605 145.539 318.605 145.49 318.608 145.441L318.545 145.051L318.29 143.477L317.708 140.331C317.299 138.231 316.844 136.13 316.39 134.021C315.935 131.911 315.417 129.82 314.908 127.72C314.398 125.619 313.871 123.501 313.371 121.446L320.7 119.509Z" fill="#FFB573"/>
<path d="M316.671 111.262C319.699 111.953 324.009 121.909 324.009 121.909L313.098 131.002C313.098 131.002 308.279 122.819 309.252 118.854C310.261 114.735 313.207 110.48 316.671 111.262Z" fill="#BB2C75"/>
<path opacity="0.7" d="M316.671 111.262C319.699 111.953 324.009 121.909 324.009 121.909L313.098 131.002C313.098 131.002 308.279 122.819 309.252 118.854C310.261 114.735 313.207 110.48 316.671 111.262Z" fill="black"/>
<path d="M354.361 297.073H354.27C354.101 297.068 353.936 297.019 353.791 296.932C353.646 296.844 353.526 296.72 353.443 296.573C353.383 296.487 353.346 296.389 353.335 296.285C353.324 296.182 353.339 296.078 353.379 295.982C353.761 295.136 356.38 294.736 356.671 294.691C356.704 294.688 356.737 294.694 356.767 294.709C356.797 294.724 356.822 294.746 356.84 294.774C356.858 294.803 356.868 294.835 356.868 294.868C356.869 294.902 356.86 294.935 356.843 294.963C356.298 295.745 355.27 297.009 354.361 297.073ZM356.307 295.1C355.27 295.291 353.897 295.673 353.697 296.127C353.672 296.165 353.658 296.209 353.658 296.254C353.658 296.3 353.672 296.344 353.697 296.382C353.751 296.482 353.829 296.566 353.925 296.626C354.02 296.687 354.13 296.722 354.243 296.727C354.77 296.736 355.525 296.136 356.307 295.1Z" fill="#BB2C75"/>
<path d="M356.471 295.072C355.561 295.136 353.87 294.827 353.488 294.163C353.419 294.044 353.394 293.905 353.415 293.769C353.437 293.634 353.504 293.509 353.606 293.417C353.693 293.316 353.8 293.236 353.921 293.181C354.042 293.126 354.174 293.098 354.306 293.099C355.37 293.099 356.771 294.672 356.825 294.736C356.84 294.762 356.847 294.792 356.847 294.822C356.847 294.852 356.84 294.882 356.825 294.909C356.816 294.937 356.799 294.963 356.777 294.984C356.754 295.005 356.727 295.019 356.698 295.027L356.471 295.072ZM354.252 293.463C354.177 293.467 354.104 293.486 354.037 293.518C353.97 293.551 353.91 293.597 353.861 293.654C353.715 293.818 353.743 293.927 353.788 293.999C354.043 294.436 355.452 294.781 356.334 294.736C355.843 294.236 354.943 293.454 354.306 293.454L354.252 293.463Z" fill="#BB2C75"/>
<path d="M294.767 321.66C294.142 321.72 293.516 321.562 292.994 321.214C292.877 321.11 292.787 320.978 292.733 320.83C292.679 320.683 292.663 320.524 292.685 320.369C292.69 320.274 292.719 320.182 292.77 320.103C292.821 320.023 292.892 319.958 292.976 319.914C293.885 319.423 296.786 320.905 297.113 321.078C297.144 321.096 297.17 321.122 297.186 321.155C297.202 321.187 297.208 321.224 297.204 321.26C297.199 321.295 297.183 321.328 297.159 321.354C297.134 321.38 297.102 321.398 297.067 321.405C296.31 321.559 295.54 321.644 294.767 321.66ZM293.467 320.15C293.354 320.144 293.241 320.166 293.139 320.214C293.104 320.231 293.074 320.258 293.055 320.292C293.035 320.326 293.027 320.366 293.03 320.405C293.014 320.506 293.022 320.61 293.056 320.706C293.089 320.803 293.146 320.89 293.221 320.96C293.667 321.351 294.867 321.423 296.495 321.16C295.55 320.655 294.526 320.313 293.467 320.15Z" fill="#BB2C75"/>
<path d="M297.031 321.405H296.958C296.094 321.014 294.367 319.441 294.503 318.614C294.503 318.414 294.676 318.168 295.149 318.123C295.321 318.103 295.496 318.12 295.662 318.172C295.828 318.223 295.981 318.309 296.113 318.423C297.022 319.187 297.195 321.151 297.204 321.232C297.209 321.264 297.205 321.296 297.192 321.325C297.179 321.354 297.158 321.379 297.131 321.396C297.099 321.408 297.064 321.412 297.031 321.405ZM295.294 318.477H295.185C294.876 318.477 294.849 318.632 294.849 318.677C294.767 319.168 295.931 320.414 296.822 320.951C296.764 320.122 296.445 319.333 295.913 318.696C295.741 318.548 295.52 318.471 295.294 318.477Z" fill="#BB2C75"/>
<path d="M293.966 87.0198L292.639 86.3838C292.639 86.3838 293.148 87.5923 293.966 87.0198Z" fill="#263238"/>
<path d="M314.971 154.089L315.88 156.68C315.999 156.88 315.762 157.108 315.426 157.135L284.965 159.353C284.701 159.353 284.474 159.253 284.447 159.09L283.983 156.453C283.983 156.271 284.174 156.098 284.465 156.08L314.471 153.898C314.564 153.884 314.659 153.894 314.746 153.928C314.834 153.961 314.911 154.017 314.971 154.089Z" fill="white"/>
<path d="M311.17 157.735L311.971 157.671C312.134 157.671 312.252 157.571 312.234 157.471L311.607 154.052C311.607 153.952 311.443 153.889 311.279 153.898L310.479 153.952C310.316 153.952 310.197 154.062 310.216 154.162L310.843 157.571C310.861 157.671 311.007 157.744 311.17 157.735Z" fill="#BB2C75"/>
<path d="M287.256 159.472L288.056 159.417C288.22 159.417 288.338 159.308 288.32 159.208L287.693 155.798C287.693 155.698 287.529 155.625 287.365 155.635L286.565 155.689C286.402 155.689 286.283 155.798 286.302 155.898L286.929 159.308C286.947 159.408 287.093 159.481 287.256 159.472Z" fill="#BB2C75"/>
<path d="M299.213 158.599L300.013 158.544C300.177 158.544 300.295 158.444 300.277 158.344L299.65 154.925C299.65 154.825 299.486 154.753 299.322 154.762L298.522 154.825C298.359 154.825 298.24 154.925 298.258 155.025L298.886 158.444C298.904 158.544 299.05 158.617 299.213 158.599Z" fill="#BB2C75"/>
<path d="M254.886 114.471L294.985 125.574L278.245 180.158L238.137 169.055L254.886 114.471Z" fill="#BB2C75"/>
<g opacity="0.3">
<path opacity="0.3" d="M254.886 114.471L294.985 125.574L278.245 180.158L238.137 169.055L254.886 114.471Z" fill="black"/>
</g>
<path d="M254.595 114.39L294.703 125.492L277.963 180.076L237.855 168.974L254.595 114.39Z" fill="#BB2C75"/>
<path d="M292.303 126.819L277.645 174.62L241.21 164.536L255.868 116.736L292.303 126.819Z" fill="white"/>
<path d="M262.769 118.845C263.446 118.076 264.33 117.518 265.314 117.236C266.299 116.954 267.344 116.96 268.325 117.254L269.916 117.69C270.201 117.787 270.507 117.803 270.801 117.738C271.094 117.672 271.364 117.527 271.58 117.317C272.113 116.813 272.772 116.463 273.487 116.303C274.203 116.143 274.948 116.179 275.645 116.408C276.351 116.562 276.999 116.913 277.513 117.42C278.028 117.927 278.389 118.569 278.555 119.272C278.623 119.558 278.771 119.819 278.982 120.023C279.193 120.228 279.458 120.368 279.746 120.427L281.337 120.873C282.314 121.111 283.197 121.637 283.871 122.383C284.546 123.128 284.981 124.06 285.12 125.055C285.137 125.121 285.137 125.19 285.12 125.255C285.079 125.387 284.99 125.499 284.87 125.567C284.749 125.634 284.608 125.653 284.474 125.619L263.051 119.691C262.963 119.672 262.882 119.63 262.815 119.57C262.748 119.51 262.698 119.433 262.67 119.348C262.641 119.263 262.635 119.172 262.653 119.083C262.67 118.995 262.711 118.913 262.769 118.845Z" fill="#BB2C75"/>
<path opacity="0.4" d="M262.769 118.845C263.446 118.076 264.33 117.518 265.314 117.236C266.299 116.954 267.344 116.96 268.325 117.254L269.916 117.69C270.201 117.787 270.507 117.803 270.801 117.738C271.094 117.672 271.364 117.527 271.58 117.317C272.113 116.813 272.772 116.463 273.487 116.303C274.203 116.143 274.948 116.179 275.645 116.408C276.351 116.562 276.999 116.913 277.513 117.42C278.028 117.927 278.389 118.569 278.555 119.272C278.623 119.558 278.771 119.819 278.982 120.023C279.193 120.228 279.458 120.368 279.746 120.427L281.337 120.873C282.314 121.111 283.197 121.637 283.871 122.383C284.546 123.128 284.981 124.06 285.12 125.055C285.137 125.121 285.137 125.19 285.12 125.255C285.079 125.387 284.99 125.499 284.87 125.567C284.749 125.634 284.608 125.653 284.474 125.619L263.051 119.691C262.963 119.672 262.882 119.63 262.815 119.57C262.748 119.51 262.698 119.433 262.67 119.348C262.641 119.263 262.635 119.172 262.653 119.083C262.67 118.995 262.711 118.913 262.769 118.845Z" fill="#FAFAFA"/>
<path d="M288.257 130.848L287.729 132.557L256.486 123.91L257.014 122.2L288.257 130.848Z" fill="#E0E0E0"/>
<path d="M286.983 134.985L286.465 136.694L256.959 128.529L257.477 126.81L286.983 134.985Z" fill="#E0E0E0"/>
<path d="M285.72 139.122L285.192 140.832L269.571 136.503L270.098 134.794L285.72 139.122Z" fill="#E0E0E0"/>
<path d="M267.58 134.094L267.052 135.812L258.796 133.521L259.314 131.811L267.58 134.094Z" fill="#E0E0E0"/>
<path d="M284.447 143.25L283.928 144.969L252.676 136.321L253.204 134.603L284.447 143.25Z" fill="#E0E0E0"/>
<path d="M283.183 147.387L282.655 149.106L255.45 141.568L255.977 139.859L283.183 147.387Z" fill="#E0E0E0"/>
<path d="M280.646 155.662L280.118 157.371L248.876 148.724L249.403 147.014L280.646 155.662Z" fill="#E0E0E0"/>
<path d="M279.373 159.799L278.855 161.508L252.449 154.207L252.976 152.488L279.373 159.799Z" fill="#E0E0E0"/>
<path d="M257.978 167.001C253.031 167.001 251.022 164.273 250.24 162.454C248.521 158.499 249.885 152.588 253.104 150.042C255.141 148.442 257.487 148.479 259.714 150.152C259.775 150.192 259.827 150.245 259.867 150.306C259.906 150.367 259.933 150.436 259.945 150.508C259.958 150.58 259.955 150.654 259.937 150.725C259.92 150.796 259.888 150.863 259.844 150.921C259.8 150.979 259.745 151.028 259.681 151.064C259.618 151.1 259.548 151.123 259.475 151.131C259.402 151.139 259.329 151.132 259.259 151.111C259.189 151.089 259.124 151.054 259.069 151.006C256.759 149.27 254.913 149.979 253.768 150.888C251.176 152.934 249.53 158.162 251.222 162.027C252.131 164.2 254.495 166.573 260.223 165.737C261.752 165.583 263.207 165.005 264.425 164.068C265.643 163.132 266.575 161.873 267.116 160.436C267.682 158.776 267.812 156.999 267.494 155.274C267.175 153.55 266.419 151.936 265.297 150.588C264.414 149.556 263.259 148.791 261.964 148.382C260.669 147.972 259.285 147.933 257.968 148.269C257.831 148.299 257.687 148.274 257.568 148.199C257.449 148.125 257.364 148.006 257.332 147.869C257.302 147.73 257.328 147.584 257.405 147.463C257.481 147.342 257.602 147.256 257.741 147.224C259.243 146.841 260.822 146.887 262.299 147.357C263.776 147.826 265.092 148.7 266.097 149.879C267.338 151.374 268.174 153.162 268.527 155.072C268.881 156.982 268.739 158.95 268.116 160.79C267.514 162.412 266.47 163.834 265.103 164.894C263.735 165.954 262.099 166.612 260.378 166.791C259.584 166.919 258.782 166.988 257.978 167.001Z" fill="#BB2C75"/>
<path d="M258.596 164.918C258.521 164.916 258.447 164.901 258.378 164.873C258.313 164.844 258.255 164.803 258.206 164.752C258.157 164.701 258.119 164.641 258.094 164.575C258.069 164.509 258.057 164.439 258.058 164.368C258.06 164.298 258.076 164.228 258.105 164.164C259.783 160.584 261.081 156.839 261.978 152.989C262.033 152.698 262.097 152.37 262.142 152.079C259.924 155.87 256.743 159.006 252.922 161.172C252.797 161.242 252.651 161.26 252.513 161.222C252.375 161.185 252.258 161.095 252.185 160.972C252.15 160.911 252.128 160.843 252.119 160.773C252.111 160.703 252.117 160.632 252.136 160.564C252.156 160.496 252.189 160.433 252.233 160.378C252.277 160.323 252.332 160.278 252.395 160.245C256.251 158.048 259.417 154.817 261.533 150.915C261.629 150.724 261.789 150.573 261.985 150.488C262.181 150.404 262.401 150.391 262.606 150.452C262.804 150.505 262.979 150.624 263.101 150.789C263.223 150.954 263.286 151.156 263.279 151.361C263.24 151.973 263.155 152.581 263.024 153.18C262.109 157.098 260.786 160.911 259.078 164.555C259.042 164.656 258.977 164.745 258.892 164.809C258.806 164.874 258.703 164.912 258.596 164.918Z" fill="#BB2C75"/>
<path d="M261.806 160.89C261.675 160.889 261.549 160.84 261.451 160.754C259.203 158.805 256.824 157.013 254.331 155.389C254.213 155.309 254.131 155.187 254.102 155.048C254.074 154.908 254.1 154.763 254.177 154.643C254.256 154.526 254.379 154.443 254.518 154.415C254.657 154.386 254.802 154.412 254.922 154.489C257.469 156.138 259.9 157.961 262.197 159.945C262.301 160.039 262.366 160.17 262.376 160.311C262.386 160.452 262.341 160.591 262.251 160.699C262.198 160.764 262.129 160.816 262.052 160.849C261.974 160.882 261.89 160.896 261.806 160.89Z" fill="#BB2C75"/>
<path d="M297.486 141.704L291.566 136.485L291.403 143.914C291.403 143.914 295.458 146.269 298.049 144.669L297.486 141.704Z" fill="#FFB573"/>
<path d="M285.429 136.121L285.629 142.35L291.403 143.914L291.566 136.485L285.429 136.121Z" fill="#FFB573"/>
<path d="M165.686 48.0668C168.05 50.5128 170.414 57.3869 168.414 60.6513C164.504 56.7414 163.931 47.2212 165.686 48.0668Z" fill="#263238"/>
<path d="M190.054 315.285L197.356 313.603L195.583 296.281L188.272 297.955L190.054 315.285Z" fill="#FFB573"/>
<path d="M137.598 321.059H145.081L147.2 303.738H139.717L137.598 321.059Z" fill="#FFB573"/>
<path d="M146.054 320.196H136.962C136.814 320.196 136.67 320.247 136.554 320.339C136.439 320.432 136.358 320.561 136.325 320.705L134.779 327.352C134.742 327.513 134.742 327.68 134.779 327.842C134.816 328.003 134.89 328.153 134.994 328.281C135.099 328.41 135.231 328.512 135.382 328.581C135.532 328.65 135.696 328.684 135.861 328.679C138.798 328.634 140.935 328.461 144.636 328.461C146.909 328.461 153.729 328.698 156.902 328.698C160.075 328.698 160.485 325.588 159.202 325.306C153.447 324.051 149.128 322.314 147.291 320.65C146.95 320.35 146.509 320.187 146.054 320.196Z" fill="#263238"/>
<path d="M197.119 312.776L189.145 314.595C188.999 314.629 188.869 314.711 188.775 314.828C188.681 314.945 188.629 315.09 188.627 315.24V322.051C188.625 322.215 188.66 322.378 188.731 322.527C188.802 322.675 188.906 322.806 189.035 322.908C189.164 323.01 189.315 323.081 189.476 323.115C189.637 323.149 189.804 323.146 189.963 323.105C192.828 322.396 196.947 321.287 200.566 320.441C204.794 319.468 208.858 318.623 213.814 317.459C216.814 316.777 216.978 313.558 215.632 313.567C209.64 313.64 204.585 314.831 198.974 312.931C198.382 312.709 197.74 312.655 197.119 312.776Z" fill="#263238"/>
<path d="M182.216 90.3483C183.226 92.1668 184.171 94.0945 185.126 95.9767C186.081 97.8589 187.026 99.7502 187.945 101.651C189.763 105.451 191.582 109.279 193.31 113.171C194.219 115.117 195.001 117.072 195.837 119.109C196.031 119.651 196.256 120.183 196.51 120.7C196.701 121.073 196.801 121.2 196.892 121.355C196.983 121.509 197.229 121.673 197.747 121.7C198.415 121.735 199.083 121.649 199.72 121.446C200.54 121.208 201.34 120.904 202.111 120.536C202.521 120.345 202.939 120.136 203.348 119.918L204.521 119.281L208.522 123.219C208.094 123.792 207.767 124.228 207.358 124.692C206.969 125.158 206.553 125.601 206.112 126.019C205.205 126.91 204.208 127.705 203.139 128.392C201.911 129.188 200.563 129.78 199.147 130.147C198.313 130.346 197.459 130.453 196.601 130.466C195.65 130.454 194.705 130.313 193.791 130.047C191.994 129.488 190.374 128.469 189.091 127.092C188.048 125.965 187.172 124.694 186.49 123.319C185.581 121.5 184.599 119.682 183.644 117.863L177.815 106.77C175.9 103.03 174.003 99.2834 172.123 95.5311L182.216 90.3483Z" fill="#FFB573"/>
<path d="M168.914 90.6301C166.85 97.4952 180.916 116.163 180.916 116.163L195.301 106.906C192.647 100.97 189.357 95.3392 185.49 90.1118C179.68 82.6557 171.178 83.0922 168.914 90.6301Z" fill="#BB2C75"/>
<path opacity="0.2" d="M178.134 100.023C181.771 101.687 185.672 107.852 186.245 112.753L180.916 116.181C177.56 111.659 174.545 106.893 171.896 101.923C172.996 100.159 173.969 98.1226 178.134 100.023Z" fill="black"/>
<path opacity="0.2" d="M195.583 296.281L196.501 305.211L189.191 306.893L188.272 297.964L195.583 296.281Z" fill="black"/>
<path opacity="0.2" d="M139.717 303.738H147.2L146.1 312.667H138.617L139.717 303.738Z" fill="black"/>
<path d="M135.589 87.7023C137.766 95.7569 139.338 103.963 140.29 112.253C140.981 118.045 141.39 123.573 141.644 128.62C142.244 140.377 141.963 149.342 142.308 152.37L182.225 149.288C187.754 106.697 177.424 84.8562 177.424 84.8562C174.268 84.2918 171.079 83.9213 167.877 83.7469C167.195 83.7469 166.513 83.6923 165.813 83.6832C160.134 83.7927 154.466 84.2299 148.837 84.9926C147.773 85.129 146.691 85.2927 145.645 85.4745C140.299 86.3656 135.589 87.7023 135.589 87.7023Z" fill="#BB2C75"/>
<path d="M161.694 91.012C164.049 96.7131 162.149 97.2769 164.104 104.942C165.258 106.452 166.35 107.979 167.386 109.488C167.913 107.809 168.368 106.142 168.75 104.487C167.031 96.8132 164.513 94.5945 164.022 90.521" fill="#263238"/>
<path d="M163.704 93.9762L165.186 90.1209L162.403 89.1479L160.466 90.5392L163.704 93.9762Z" fill="#263238"/>
<path opacity="0.5" d="M145.645 85.4562C154.492 93.2851 161.839 101.296 167.386 109.507C170.205 100.632 170.85 92.0303 168.795 83.7832C171.689 83.9756 174.57 84.3277 177.424 84.8379C177.424 84.8379 187.754 106.661 182.225 149.269L142.308 152.352C141.963 149.324 142.244 140.358 141.644 128.602C141.39 123.591 140.981 118.063 140.29 112.234C139.338 103.945 137.766 95.7386 135.589 87.684C135.589 87.684 140.299 86.3655 145.645 85.4562Z" fill="black"/>
<path d="M149.237 65.7523C150.674 71.1261 152.419 81.0373 148.846 84.9745C150.65 86.5992 152.785 87.8149 155.103 88.5383C157.421 89.2618 159.868 89.476 162.276 89.1662C166.968 88.6934 166.986 85.4018 165.813 83.6651C159.621 82.6831 159.448 78.1549 160.248 73.8358L149.237 65.7523Z" fill="#FFB573"/>
<path d="M162.403 89.148C162.403 89.148 157.793 92.9397 156.366 96.6768C153.138 95.3038 147.155 88.5842 147.091 84.5015C147.819 83.7073 148.696 83.0645 149.673 82.6102C153.545 85.4478 157.841 87.6544 162.403 89.148Z" fill="#BB2C75"/>
<path opacity="0.2" d="M162.403 89.148C162.403 89.148 157.793 92.9397 156.366 96.6768C153.138 95.3038 147.155 88.5842 147.091 84.5015C147.819 83.7073 148.696 83.0645 149.673 82.6102C153.545 85.4478 157.841 87.6544 162.403 89.148Z" fill="#FAFAFA"/>
<path d="M162.403 89.1479C162.403 89.1479 167.941 91.612 170.414 95.9311C173.66 94.5581 168.595 84.0377 166.222 83.0648C165.243 82.4845 164.089 82.2717 162.967 82.4647C162.967 82.4647 165.849 87.9658 162.403 89.1479Z" fill="#BB2C75"/>
<path opacity="0.2" d="M162.403 89.1479C162.403 89.1479 167.941 91.612 170.414 95.9311C173.66 94.5581 168.595 84.0377 166.222 83.0648C165.243 82.4845 164.089 82.2717 162.967 82.4647C162.967 82.4647 165.849 87.9658 162.403 89.1479Z" fill="#FAFAFA"/>
<path opacity="0.2" d="M153.729 69.0529L160.248 73.8267C160.049 74.8332 159.943 75.8559 159.93 76.8818C157.575 76.7273 154.211 74.4177 153.801 72.0081C153.594 71.0361 153.569 70.034 153.729 69.0529Z" fill="black"/>
<path d="M148.027 57.596C148.937 64.943 149.164 69.2984 153.156 72.8083C159.157 78.073 168.059 73.9812 169.323 66.4433C170.459 59.6783 168.714 48.7942 161.276 46.4392C159.628 45.9119 157.873 45.8113 156.175 46.1468C154.478 46.4824 152.893 47.243 151.569 48.3577C150.246 49.4723 149.227 50.9044 148.607 52.5201C147.988 54.1358 147.788 55.8822 148.027 57.596Z" fill="#FFB573"/>
<path d="M165.777 49.1397C163.822 50.6036 158.221 50.1308 154.774 49.1397C151.328 48.1486 148.828 54.7954 151.537 58.7326C154.247 62.6697 155.356 62.9425 151.983 65.0975C148.609 67.2525 139.135 57.8869 143.799 50.9673C143.554 45.1297 155.665 41.2289 162.139 43.9568C168.614 46.6846 165.777 49.1397 165.777 49.1397Z" fill="#263238"/>
<path d="M145.6 63.9427C145.938 64.7991 146.443 65.5796 147.087 66.2384C147.73 66.8973 148.498 67.4213 149.346 67.7799C151.619 68.6891 153.074 66.7524 152.71 64.4337C152.383 62.3515 150.801 59.36 148.382 59.3963C147.854 59.414 147.339 59.5624 146.882 59.8284C146.426 60.0943 146.042 60.4695 145.766 60.9201C145.491 61.3708 145.331 61.8828 145.302 62.4104C145.273 62.938 145.375 63.4645 145.6 63.9427Z" fill="#FFB573"/>
<path d="M198.865 302.901L186.49 305.747C186.49 305.747 178.188 260.747 176.052 237.551C175.397 230.495 173.551 220.684 171.232 210.182C168.295 196.943 164.613 182.64 161.594 171.447C158.412 159.626 155.984 151.297 155.984 151.297L182.216 149.27C182.216 149.27 197.983 211.164 198.702 233.978C199.493 257.692 198.865 302.901 198.865 302.901Z" fill="#263238"/>
<path opacity="0.2" d="M171.232 210.182C168.295 196.943 164.613 182.64 161.594 171.447L164.322 165.555C170.823 173.238 172.514 197.161 171.232 210.182Z" fill="black"/>
<path d="M168.068 150.361C168.068 150.361 165.095 214.419 161.885 236.133C158.375 259.911 149.573 310.939 149.573 310.939H135.843C135.843 310.939 135.616 262.748 139.962 239.743C144.909 213.501 142.272 152.361 142.272 152.361L168.068 150.361Z" fill="#263238"/>
<path d="M151.219 311.239H135.079L135.134 306.42L153.165 306.102L151.219 311.239Z" fill="#BB2C75"/>
<path d="M200.484 302.829L185.744 306.22L184.69 301.465L201.111 297.427L200.484 302.829Z" fill="#BB2C75"/>
<path d="M159.384 58.7872C159.384 59.3874 159.775 59.8511 160.166 59.8238C160.557 59.7965 160.848 59.2782 160.803 58.6781C160.757 58.078 160.412 57.6143 160.021 57.6415C159.63 57.6688 159.339 58.1871 159.384 58.7872Z" fill="#263238"/>
<path d="M166.186 58.2597C166.186 58.8599 166.577 59.3236 166.977 59.2963C167.377 59.269 167.65 58.7507 167.613 58.1506C167.577 57.5505 167.222 57.0868 166.822 57.114C166.422 57.1413 166.149 57.6596 166.186 58.2597Z" fill="#263238"/>
<path d="M164.476 64.1701C163.55 63.9767 162.589 64.0275 161.689 64.3177C160.788 64.6078 159.978 65.1272 159.339 65.8249C161.921 66.3887 168.614 65.734 168.614 65.734C168.228 65.0188 167.597 64.4667 166.837 64.1794C166.077 63.8921 165.239 63.8887 164.476 64.1701Z" fill="#263238"/>
<path d="M164.031 58.7326C164.896 60.4514 165.995 62.0425 167.295 63.4609C166.901 63.7722 166.445 63.9964 165.957 64.1187C165.47 64.2409 164.962 64.2585 164.467 64.1701L164.031 58.7326Z" fill="#ED893E"/>
<path d="M160.903 68.3254C161.163 68.3479 161.425 68.3479 161.685 68.3254C161.731 68.3254 161.775 68.3072 161.807 68.2748C161.839 68.2424 161.858 68.1985 161.858 68.1527C161.858 68.1068 161.839 68.0629 161.807 68.0305C161.775 67.9981 161.731 67.9799 161.685 67.9799C160.939 68.0543 160.186 67.9515 159.488 67.6797C158.789 67.4079 158.165 66.9749 157.666 66.416C157.65 66.3997 157.631 66.3869 157.61 66.3781C157.589 66.3693 157.566 66.3648 157.543 66.3648C157.52 66.3648 157.498 66.3693 157.477 66.3781C157.456 66.3869 157.436 66.3997 157.42 66.416C157.387 66.45 157.368 66.4957 157.368 66.5433C157.368 66.5909 157.387 66.6366 157.42 66.6706C157.86 67.1655 158.396 67.567 158.994 67.8513C159.592 68.1356 160.241 68.2968 160.903 68.3254Z" fill="#263238"/>
<path d="M157.138 56.7595C157.201 56.7603 157.262 56.7458 157.318 56.7173C157.373 56.6888 157.421 56.6471 157.457 56.5959C157.69 56.2158 158.009 55.8953 158.387 55.6601C158.766 55.4249 159.195 55.2814 159.639 55.2411C159.733 55.2411 159.823 55.2037 159.89 55.1372C159.956 55.0707 159.994 54.9805 159.994 54.8864C159.995 54.8395 159.987 54.7928 159.969 54.7493C159.952 54.7057 159.926 54.6661 159.893 54.6329C159.859 54.5997 159.82 54.5736 159.776 54.5563C159.733 54.5389 159.686 54.5306 159.639 54.5318C159.084 54.5777 158.548 54.7539 158.074 55.0462C157.6 55.3385 157.201 55.7386 156.911 56.214C156.859 56.2924 156.841 56.3881 156.86 56.4802C156.878 56.5722 156.933 56.6531 157.011 56.705C157.051 56.7285 157.094 56.7468 157.138 56.7595Z" fill="#263238"/>
<path d="M168.959 55.6956C169.025 55.7134 169.094 55.7134 169.159 55.6956C169.242 55.648 169.302 55.5698 169.328 55.478C169.353 55.3862 169.342 55.288 169.296 55.2046C169.026 54.7097 168.641 54.2864 168.175 53.9701C167.708 53.6537 167.173 53.4535 166.613 53.3861C166.52 53.3835 166.429 53.417 166.359 53.4796C166.29 53.5423 166.247 53.6292 166.24 53.7225C166.237 53.7693 166.242 53.8165 166.258 53.861C166.273 53.9055 166.297 53.9464 166.328 53.9813C166.36 54.0162 166.398 54.0443 166.441 54.0639C166.484 54.0835 166.53 54.0942 166.577 54.0953C167.018 54.1469 167.44 54.3057 167.806 54.5576C168.172 54.8096 168.471 55.1472 168.677 55.5411C168.709 55.5872 168.751 55.6253 168.8 55.6521C168.849 55.679 168.903 55.6939 168.959 55.6956Z" fill="#263238"/>
<path d="M148.519 321.496C149.03 321.537 149.54 321.403 149.964 321.114C150.095 321.004 150.197 320.863 150.262 320.705C150.327 320.547 150.353 320.375 150.337 320.205C150.336 320.102 150.308 320.002 150.256 319.914C150.203 319.826 150.127 319.753 150.037 319.705C149.219 319.277 146.791 320.768 146.518 320.932C146.487 320.95 146.463 320.977 146.448 321.01C146.434 321.043 146.429 321.079 146.436 321.114C146.439 321.149 146.453 321.181 146.476 321.207C146.499 321.234 146.53 321.252 146.564 321.259C147.204 321.412 147.86 321.491 148.519 321.496ZM149.646 319.95C149.724 319.948 149.802 319.964 149.873 319.996C149.909 320.017 149.938 320.048 149.957 320.085C149.976 320.122 149.985 320.163 149.983 320.205C149.998 320.324 149.984 320.446 149.941 320.558C149.898 320.671 149.828 320.771 149.737 320.85C149.328 321.187 148.346 321.232 147.082 320.978C147.863 320.474 148.734 320.126 149.646 319.95Z" fill="#BB2C75"/>
<path d="M146.609 321.205C146.636 321.213 146.664 321.213 146.691 321.205C147.473 320.787 148.982 319.141 148.828 318.313C148.806 318.183 148.738 318.064 148.636 317.979C148.535 317.894 148.406 317.848 148.273 317.85C148.138 317.829 148 317.838 147.87 317.877C147.739 317.917 147.619 317.985 147.518 318.077C146.609 318.786 146.436 320.941 146.427 321.032C146.426 321.064 146.433 321.096 146.447 321.125C146.462 321.153 146.483 321.178 146.509 321.196C146.541 321.208 146.576 321.211 146.609 321.205ZM148.146 318.177H148.228C148.455 318.177 148.473 318.313 148.482 318.359C148.573 318.85 147.573 320.087 146.827 320.678C146.891 319.823 147.208 319.006 147.737 318.332C147.853 318.241 147.998 318.196 148.146 318.204V318.177Z" fill="#BB2C75"/>
<path d="M198.065 313.612C199.293 313.612 201.457 313.385 202.102 312.494C202.195 312.364 202.255 312.214 202.279 312.056C202.303 311.898 202.289 311.736 202.239 311.585C202.213 311.491 202.163 311.407 202.094 311.338C202.026 311.27 201.941 311.22 201.848 311.194C200.848 310.894 198.211 313.067 197.947 313.312C197.927 313.342 197.917 313.377 197.917 313.412C197.917 313.448 197.927 313.483 197.947 313.512C197.956 313.538 197.972 313.561 197.993 313.578C198.013 313.596 198.038 313.608 198.065 313.612ZM201.702 311.512H201.775C201.813 311.523 201.848 311.544 201.875 311.572C201.902 311.601 201.921 311.637 201.93 311.676C201.963 311.776 201.973 311.882 201.957 311.987C201.941 312.091 201.9 312.19 201.839 312.276C201.475 312.776 200.293 313.121 198.62 313.231C199.647 312.421 201.102 311.448 201.693 311.512H201.702Z" fill="#BB2C75"/>
<path d="M198.065 313.613C198.106 313.628 198.151 313.628 198.192 313.613C198.984 313.022 200.384 311.039 200.066 310.248C199.993 310.057 199.802 309.857 199.32 309.912C199.141 309.932 198.968 309.988 198.812 310.077C198.655 310.166 198.519 310.286 198.411 310.43C197.647 311.403 197.883 313.413 197.902 313.494C197.904 313.525 197.914 313.555 197.932 313.581C197.949 313.606 197.973 313.627 198.002 313.64L198.065 313.613ZM199.538 310.221C199.693 310.221 199.729 310.312 199.738 310.348C199.929 310.821 199.011 312.331 198.229 313.076C198.132 312.226 198.297 311.366 198.702 310.612C198.777 310.505 198.874 310.415 198.987 310.35C199.1 310.284 199.226 310.243 199.356 310.23L199.538 310.221Z" fill="#BB2C75"/>
<path d="M141.299 99.0136C140.108 100.969 138.835 103.087 137.662 105.151C136.489 107.215 135.298 109.325 134.197 111.425C133.097 113.526 132.024 115.617 131.088 117.717C130.159 119.716 129.378 121.779 128.751 123.891C128.509 124.731 128.336 125.588 128.233 126.456C128.233 126.783 128.233 127.047 128.233 127.147C128.233 127.247 128.233 127.147 128.233 127.147H128.169C128.123 127.147 128.123 127.21 128.169 127.338C128.33 127.524 128.521 127.684 128.733 127.81C129.465 128.226 130.247 128.547 131.06 128.765C133.178 129.311 135.343 129.655 137.525 129.793C138.68 129.884 139.853 129.938 141.035 129.993C142.217 130.047 143.445 130.038 144.563 130.065L145.591 135.585C144.263 136.039 143.045 136.358 141.744 136.667C140.458 136.988 139.156 137.243 137.844 137.431C135.078 137.876 132.267 137.97 129.478 137.713C127.838 137.559 126.227 137.173 124.695 136.567C123.767 136.194 122.886 135.715 122.068 135.139C120.577 134.077 119.41 132.623 118.694 130.938C118.456 130.369 118.27 129.778 118.14 129.174C117.926 128.186 117.822 127.176 117.83 126.165C117.857 124.555 118.049 122.952 118.403 121.382C119.032 118.681 119.871 116.033 120.913 113.462C121.913 110.998 122.986 108.625 124.132 106.306C125.277 103.987 126.487 101.76 127.769 99.5137C129.051 97.2678 130.324 95.131 131.797 92.9124L141.299 99.0136Z" fill="#FFB573"/>
<path d="M135.589 87.7022C128.742 89.83 120.367 109.525 120.367 109.525L137.025 117.208C140.217 111.764 142.91 106.043 145.072 100.114C148.373 90.5665 143.881 85.1199 135.589 87.7022Z" fill="#BB2C75"/>
<path d="M142.836 130.748L148.782 126.047L150.983 135.385C150.983 135.385 145.036 138.249 143.181 135.239L142.836 130.748Z" fill="#FFB573"/>
<path d="M155.002 126.01L156.457 133.821L150.983 135.385L148.782 126.047L155.002 126.01Z" fill="#FFB573"/>
<path d="M204.221 119.254L210.349 114.708L211.959 123.01C211.959 123.01 206.249 126.719 204.457 123.701L204.221 119.254Z" fill="#FFB573"/>
<path d="M217.869 114.044L216.833 121.655L211.959 123.028L210.349 114.726L217.869 114.044Z" fill="#FFB573"/>
</svg>
