<svg width="276" height="206" viewBox="0 0 276 206" fill="none" xmlns="http://www.w3.org/2000/svg">
<path d="M130.934 156.259H24.7252C23.8932 156.258 23.0957 155.926 22.5079 155.337C21.9201 154.748 21.5899 153.95 21.5899 153.118V3.81848C21.5971 2.99122 21.9305 2.20022 22.5175 1.6173C23.1046 1.03438 23.8979 0.706617 24.7252 0.7052H130.934C131.767 0.7052 132.566 1.0361 133.155 1.62511C133.744 2.21412 134.075 3.01299 134.075 3.84598V153.118C134.075 153.951 133.744 154.75 133.155 155.339C132.566 155.928 131.767 156.259 130.934 156.259ZM24.7252 0.81521C23.9296 0.816668 23.1671 1.13372 22.6051 1.69679C22.0431 2.25985 21.7274 3.02291 21.7274 3.81848V153.118C21.7274 153.914 22.0431 154.677 22.6051 155.24C23.1671 155.803 23.9296 156.12 24.7252 156.122H130.934C131.73 156.12 132.493 155.803 133.056 155.24C133.619 154.677 133.936 153.914 133.937 153.118V3.81848C133.936 3.02241 133.619 2.25936 133.056 1.69645C132.493 1.13355 131.73 0.816664 130.934 0.81521H24.7252Z" fill="#EBEBEB"/>
<path d="M249.915 156.259H143.701C142.868 156.258 142.07 155.926 141.481 155.338C140.893 154.749 140.561 153.951 140.56 153.118V3.81848C140.568 2.99072 140.903 2.19973 141.491 1.61696C142.079 1.03419 142.873 0.706602 143.701 0.7052H249.915C250.741 0.708063 251.533 1.03647 252.119 1.61923C252.705 2.202 253.038 2.99217 253.045 3.81848V153.118C253.045 153.949 252.715 154.747 252.129 155.335C251.542 155.924 250.746 156.256 249.915 156.259ZM143.701 0.81521C142.904 0.816664 142.141 1.13355 141.579 1.69645C141.016 2.25936 140.699 3.02241 140.697 3.81848V153.118C140.699 153.914 141.016 154.677 141.579 155.24C142.141 155.803 142.904 156.12 143.701 156.122H249.915C250.711 156.12 251.474 155.803 252.037 155.24C252.6 154.677 252.917 153.914 252.918 153.118V3.81848C252.917 3.02241 252.6 2.25936 252.037 1.69645C251.474 1.13355 250.711 0.816664 249.915 0.81521H143.701Z" fill="#EBEBEB"/>
<path d="M275.597 180.791H0.572266V180.928H275.597V180.791Z" fill="#EBEBEB"/>
<path d="M130.934 156.259H24.7252C23.8932 156.258 23.0957 155.926 22.5079 155.337C21.9201 154.748 21.5899 153.95 21.5899 153.118V3.81848C21.5971 2.99122 21.9305 2.20022 22.5175 1.6173C23.1046 1.03438 23.8979 0.706617 24.7252 0.7052H130.934C131.767 0.7052 132.566 1.0361 133.155 1.62511C133.744 2.21412 134.075 3.01299 134.075 3.84598V153.118C134.075 153.951 133.744 154.75 133.155 155.339C132.566 155.928 131.767 156.259 130.934 156.259ZM24.7252 0.81521C23.9296 0.816668 23.1671 1.13372 22.6051 1.69679C22.0431 2.25985 21.7274 3.02291 21.7274 3.81848V153.118C21.7274 153.914 22.0431 154.677 22.6051 155.24C23.1671 155.803 23.9296 156.12 24.7252 156.122H130.934C131.73 156.12 132.493 155.803 133.056 155.24C133.619 154.677 133.936 153.914 133.937 153.118V3.81848C133.936 3.02241 133.619 2.25936 133.056 1.69645C132.493 1.13355 131.73 0.816664 130.934 0.81521H24.7252Z" fill="#EBEBEB"/>
<path d="M249.915 156.259H143.701C142.868 156.258 142.07 155.926 141.481 155.338C140.893 154.749 140.561 153.951 140.56 153.118V3.81848C140.568 2.99072 140.903 2.19973 141.491 1.61696C142.079 1.03419 142.873 0.706602 143.701 0.7052H249.915C250.741 0.708063 251.533 1.03647 252.119 1.61923C252.705 2.202 253.038 2.99217 253.045 3.81848V153.118C253.045 153.949 252.715 154.747 252.129 155.335C251.542 155.924 250.746 156.256 249.915 156.259ZM143.701 0.81521C142.904 0.816664 142.141 1.13355 141.579 1.69645C141.016 2.25936 140.699 3.02241 140.697 3.81848V153.118C140.699 153.914 141.016 154.677 141.579 155.24C142.141 155.803 142.904 156.12 143.701 156.122H249.915C250.711 156.12 251.474 155.803 252.037 155.24C252.6 154.677 252.917 153.914 252.918 153.118V3.81848C252.917 3.02241 252.6 2.25936 252.037 1.69645C251.474 1.13355 250.711 0.816664 249.915 0.81521H143.701Z" fill="#EBEBEB"/>
<path d="M275.597 180.791H0.572266V180.928H275.597V180.791Z" fill="#EBEBEB"/>
<path d="M248.039 189.641H229.822V189.778H248.039V189.641Z" fill="#EBEBEB"/>
<path d="M182.76 191.136H177.98V191.274H182.76V191.136Z" fill="#EBEBEB"/>
<path d="M229.271 184.537H218.716V184.674H229.271V184.537Z" fill="#EBEBEB"/>
<path d="M53.1846 185.461H29.428V185.598H53.1846V185.461Z" fill="#EBEBEB"/>
<path d="M124.416 187.782H72.8873V187.919H124.416V187.782Z" fill="#EBEBEB"/>
<path d="M239.211 139.4H160.356C154.381 139.4 149.536 144.244 149.536 150.219V173.69C149.536 179.665 154.381 184.509 160.356 184.509H239.211C245.186 184.509 250.03 179.665 250.03 173.69V150.219C250.03 144.244 245.186 139.4 239.211 139.4Z" fill="#E0E0E0"/>
<path d="M233.914 139.735H155.059C149.084 139.735 144.24 144.579 144.24 150.554V174.025C144.24 180 149.084 184.845 155.059 184.845H233.914C239.89 184.845 244.734 180 244.734 174.025V150.554C244.734 144.579 239.89 139.735 233.914 139.735Z" fill="#F5F5F5"/>
<path d="M156.995 143.987H232.572C233.564 143.987 234.547 144.182 235.464 144.562C236.381 144.942 237.214 145.498 237.916 146.2C238.618 146.902 239.174 147.735 239.554 148.652C239.934 149.569 240.129 150.552 240.129 151.544V160.818H149.437V151.544C149.437 150.552 149.633 149.569 150.013 148.652C150.392 147.735 150.949 146.902 151.651 146.2C152.353 145.498 153.186 144.942 154.103 144.562C155.02 144.182 156.003 143.987 156.995 143.987Z" fill="#E0E0E0"/>
<path d="M149.437 163.09H240.124V172.364C240.124 174.368 239.328 176.29 237.91 177.708C236.493 179.125 234.571 179.921 232.566 179.921H156.995C154.991 179.921 153.068 179.125 151.651 177.708C150.234 176.29 149.437 174.368 149.437 172.364V163.09Z" fill="#E0E0E0"/>
<path d="M216.043 147.243H203.188V160.923H216.043V147.243Z" fill="#E6E6E6"/>
<path d="M203.188 147.243H199.894V160.923H203.188V147.243Z" fill="#F5F5F5"/>
<path d="M219.409 145.136H209.756V160.928H219.409V145.136Z" fill="#E6E6E6"/>
<path d="M209.761 145.136H206.967V160.928H209.761V145.136Z" fill="#F5F5F5"/>
<path d="M220.74 147.243H212.6V160.923H220.74V147.243Z" fill="#EBEBEB"/>
<path d="M212.6 147.243H210.741V160.923H212.6V147.243Z" fill="#F5F5F5"/>
<path d="M229.937 149.558H219.261V160.928H229.937V149.558Z" fill="#E6E6E6"/>
<path d="M219.261 149.558H216.527V160.928H219.261V149.558Z" fill="#F5F5F5"/>
<path d="M232.737 147.804H224.717V160.923H232.737V147.804Z" fill="#E6E6E6"/>
<path d="M224.723 147.804H222.402V160.923H224.723V147.804Z" fill="#F5F5F5"/>
<path d="M234.877 149.558H227.083V160.928H234.877V149.558Z" fill="#E6E6E6"/>
<path d="M227.083 149.558H225.537V160.928H227.083V149.558Z" fill="#F0F0F0"/>
<path d="M176.044 165.719H163.189V179.399H176.044V165.719Z" fill="#E6E6E6"/>
<path d="M163.189 165.719H159.894V179.399H163.189V165.719Z" fill="#F5F5F5"/>
<path d="M179.41 163.613H169.756V179.405H179.41V163.613Z" fill="#E6E6E6"/>
<path d="M169.756 163.613H166.968V179.405H169.756V163.613Z" fill="#F5F5F5"/>
<path d="M219.894 165.719H207.039V179.399H219.894V165.719Z" fill="#E6E6E6"/>
<path d="M207.039 165.719H203.744V179.399H207.039V165.719Z" fill="#F5F5F5"/>
<path d="M223.26 163.613H213.606V179.405H223.26V163.613Z" fill="#E6E6E6"/>
<path d="M213.606 163.613H210.818V179.405H213.606V163.613Z" fill="#F5F5F5"/>
<path d="M180.741 165.719H172.6V179.399H180.741V165.719Z" fill="#EBEBEB"/>
<path d="M172.6 165.719H170.741V179.399H172.6V165.719Z" fill="#F5F5F5"/>
<path d="M189.943 168.035H179.267V179.405H189.943V168.035Z" fill="#E6E6E6"/>
<path d="M179.267 168.035H176.533V179.405H179.267V168.035Z" fill="#F5F5F5"/>
<path d="M192.738 166.286H184.718V179.404H192.738V166.286Z" fill="#E6E6E6"/>
<path d="M184.729 166.286H182.408V179.404H184.729V166.286Z" fill="#F5F5F5"/>
<path d="M194.877 168.035H187.083V179.405H194.877V168.035Z" fill="#E6E6E6"/>
<path d="M187.083 168.035H185.537V179.405H187.083V168.035Z" fill="#F0F0F0"/>
<path d="M100.995 183.431H124.938V177.48H100.995V183.431Z" fill="#EBEBEB"/>
<path opacity="0.1" d="M101.066 183.453H125.01V177.501H101.066V183.453Z" fill="white"/>
<path opacity="0.6" d="M100.995 183.453H119.372V177.501H100.995V183.453Z" fill="white"/>
<path d="M101.11 182.677L124.938 183.414L124.911 182.809L101.094 182.501L101.11 182.677Z" fill="#E0E0E0"/>
<path d="M124.939 179.922L101.143 178.585V178.783L124.939 180.373V179.922Z" fill="#E0E0E0"/>
<path d="M124.939 178.123L101.143 178.667V178.865L124.939 178.574V178.123Z" fill="#E0E0E0"/>
<path d="M125.005 181.093L101.209 182.248V182.078L125.005 180.697V181.093Z" fill="#E0E0E0"/>
<path d="M101.05 177.556L124.845 177.578V177.77H101.05V177.556Z" fill="#E0E0E0"/>
<path d="M102.706 165.703H126.649V159.751H102.706V165.703Z" fill="#E0E0E0"/>
<path opacity="0.5" d="M102.854 165.94H126.798V159.988H102.854V165.94Z" fill="white"/>
<path opacity="0.6" d="M102.711 165.725H121.088V159.773H102.711V165.725Z" fill="white"/>
<path d="M102.826 164.943L126.655 165.681L126.627 165.081L102.81 164.767L102.826 164.943Z" fill="#E0E0E0"/>
<path d="M126.655 162.188L102.865 160.851V161.049L126.655 162.644V162.188Z" fill="#E0E0E0"/>
<path d="M126.655 160.389L102.865 160.933V161.131L126.655 160.845V160.389Z" fill="#E0E0E0"/>
<path d="M126.721 163.359L102.926 164.52V164.344L126.721 162.963V163.359Z" fill="#E0E0E0"/>
<path d="M102.414 177.391H126.358V171.439H102.414V177.391Z" fill="#E0E0E0"/>
<path opacity="0.5" d="M102.485 177.424H126.429V171.472H102.485V177.424Z" fill="white"/>
<path opacity="0.6" d="M120.841 171.467H102.463V177.419H120.841V171.467Z" fill="white"/>
<path d="M126.253 176.467L102.436 176.775L102.414 177.38L126.242 176.638L126.253 176.467Z" fill="#E0E0E0"/>
<path d="M102.562 171.523L126.358 171.539V171.737H102.562V171.523Z" fill="#E0E0E0"/>
<path d="M102.414 174.338L126.203 172.749V172.545L102.414 173.887V174.338Z" fill="#E0E0E0"/>
<path d="M126.358 172.089L102.562 172.633V172.826L126.358 172.54V172.089Z" fill="#E0E0E0"/>
<path d="M126.424 175.053L102.629 176.214V176.038L126.424 174.657V175.053Z" fill="#E0E0E0"/>
<path d="M125.527 165.829L101.594 165.95L101.556 171.78H125.527V165.829Z" fill="#E0E0E0"/>
<path opacity="0.5" d="M101.583 171.786H125.527V165.835H101.583V171.786Z" fill="white"/>
<path opacity="0.6" d="M119.933 165.829H101.556V171.78H119.933V165.829Z" fill="white"/>
<path d="M120.654 165.95H101.594V166.555H120.247L120.654 165.95Z" fill="#E0E0E0"/>
<path d="M125.389 168.387L101.594 168.613V168.783H125.389V168.387Z" fill="#E0E0E0"/>
<path d="M101.594 171.143L125.389 169.982V170.158L101.594 171.539V171.143Z" fill="#E0E0E0"/>
<path d="M101.594 168.904L125.389 169.383V169.548L101.594 169.3V168.904Z" fill="#E0E0E0"/>
<path d="M131.638 152.881H107.848V155.879H131.638V152.881Z" fill="#E0E0E0"/>
<path opacity="0.5" d="M131.638 152.881H107.848V155.879H131.638V152.881Z" fill="white"/>
<path opacity="0.6" d="M126.808 152.881H107.848V155.879H126.808V152.881Z" fill="white"/>
<path d="M131.654 155.004L107.859 155.125V155.207H131.654V155.004Z" fill="#E0E0E0"/>
<path d="M107.859 153.883L131.654 153.278V153.371L107.859 154.092V153.883Z" fill="#E0E0E0"/>
<path d="M107.782 153.723L131.578 153.965V154.058L107.782 153.926V153.723Z" fill="#E0E0E0"/>
<path d="M128.31 151.561H104.521V153.008H128.31V151.561Z" fill="#E0E0E0"/>
<path opacity="0.5" d="M128.31 151.572H104.521V153.002H128.31V151.572Z" fill="white"/>
<path opacity="0.6" d="M123.481 151.479H104.521V153.002H123.481V151.479Z" fill="white"/>
<path d="M104.532 152.661L128.321 152.05V152.144L104.532 152.864V152.661Z" fill="#E0E0E0"/>
<path d="M104.532 151.935L128.321 152.177V152.271L104.532 152.139V151.935Z" fill="#E0E0E0"/>
<path d="M130.527 150.081H106.737V151.528H130.527V150.081Z" fill="#E0E0E0"/>
<path opacity="0.5" d="M130.527 150.097H106.737V151.528H130.527V150.097Z" fill="white"/>
<path opacity="0.6" d="M125.697 150.004H106.737V151.528H125.697V150.004Z" fill="white"/>
<path d="M106.748 150.736L130.549 151.027L130.544 151.115L106.743 150.939L106.748 150.736Z" fill="#E0E0E0"/>
<path d="M106.748 150.455L130.538 150.703V150.796L106.748 150.664V150.455Z" fill="#E0E0E0"/>
<path d="M130.026 155.879H106.237V159.74H130.026V155.879Z" fill="#E0E0E0"/>
<path opacity="0.5" d="M130.026 155.879H106.237V159.74H130.026V155.879Z" fill="white"/>
<path opacity="0.6" d="M124.597 155.879H106.237V159.74H124.597V155.879Z" fill="white"/>
<path d="M129.878 157.077L106.088 156.94V156.835H129.878V157.077Z" fill="#E0E0E0"/>
<path d="M106.253 157.638L130.043 158.331V158.227L106.253 157.402V157.638Z" fill="#E0E0E0"/>
<path d="M130.043 155.879H107.601L108.102 156.357H130.043V155.879Z" fill="#E0E0E0"/>
<path d="M106.336 159.14L130.125 158.854V158.75L106.336 158.898V159.14Z" fill="#E0E0E0"/>
<path d="M175.939 147.661C175.804 147.398 175.589 147.185 175.325 147.054C175.061 146.922 174.761 146.878 174.47 146.93C174.179 147.002 173.917 147.162 173.72 147.388C173.523 147.615 173.401 147.896 173.37 148.195C173.169 148.049 172.928 147.968 172.679 147.962C172.431 147.956 172.186 148.026 171.979 148.162C171.77 148.313 171.609 148.519 171.511 148.757C171.414 148.995 171.386 149.256 171.428 149.509C171.313 149.424 171.181 149.364 171.041 149.333C170.901 149.301 170.756 149.3 170.616 149.329C170.475 149.357 170.342 149.415 170.225 149.498C170.109 149.581 170.011 149.688 169.938 149.812C169.801 150.075 169.773 150.382 169.858 150.666C169.943 150.95 170.136 151.19 170.394 151.336C170.211 151.355 170.041 151.443 169.919 151.582C169.797 151.721 169.731 151.9 169.735 152.085C169.74 152.27 169.813 152.446 169.941 152.58C170.069 152.713 170.243 152.793 170.427 152.804C170.244 152.819 170.071 152.897 169.938 153.024C169.805 153.151 169.719 153.32 169.696 153.503C169.678 153.688 169.722 153.874 169.821 154.032C169.921 154.189 170.07 154.309 170.246 154.372C170.158 154.421 170.083 154.49 170.025 154.573C169.968 154.656 169.93 154.751 169.915 154.85C169.9 154.95 169.907 155.051 169.937 155.148C169.966 155.244 170.018 155.332 170.086 155.406C170.163 155.467 170.254 155.507 170.351 155.525C170.447 155.542 170.546 155.536 170.64 155.506C170.733 155.476 170.818 155.424 170.886 155.353C170.955 155.283 171.005 155.197 171.032 155.103C171.047 155.131 171.067 155.154 171.092 155.172C171.117 155.19 171.146 155.202 171.177 155.207C171.207 155.212 171.238 155.209 171.268 155.2C171.297 155.19 171.324 155.174 171.346 155.153C171.366 155.128 171.381 155.099 171.389 155.068C171.397 155.038 171.398 155.005 171.392 154.974C171.386 154.942 171.374 154.913 171.355 154.887C171.337 154.861 171.313 154.839 171.285 154.823C171.33 154.873 171.388 154.91 171.452 154.929C171.516 154.949 171.585 154.951 171.65 154.934C171.715 154.918 171.774 154.884 171.822 154.836C171.869 154.788 171.902 154.729 171.918 154.663C171.896 154.819 171.915 154.979 171.973 155.125C172.031 155.271 172.127 155.4 172.251 155.498C172.374 155.596 172.521 155.66 172.677 155.683C172.833 155.707 172.992 155.689 173.139 155.631C173.109 155.704 173.095 155.781 173.097 155.86C173.099 155.938 173.118 156.015 173.153 156.085C173.187 156.155 173.236 156.217 173.296 156.267C173.356 156.317 173.427 156.353 173.502 156.374C173.81 156.429 174.127 156.369 174.393 156.203C174.656 156.039 174.954 155.939 175.262 155.912C175.53 155.943 175.792 156.016 176.038 156.126C176.452 156.252 176.893 156.259 177.312 156.149C177.731 156.038 178.11 155.813 178.409 155.499C178.52 155.629 178.662 155.728 178.823 155.788C178.983 155.847 179.156 155.865 179.325 155.839C179.494 155.813 179.653 155.744 179.788 155.64C179.923 155.535 180.03 155.398 180.097 155.241C180.13 155.399 180.212 155.543 180.332 155.652C180.451 155.76 180.602 155.828 180.763 155.846C180.923 155.847 181.08 155.798 181.209 155.703C181.339 155.609 181.435 155.476 181.483 155.323C181.483 155.472 181.483 155.615 181.483 155.758C181.954 154.988 182.561 154.311 183.277 153.761C183.301 153.543 183.249 153.323 183.13 153.138C183.011 152.954 182.831 152.816 182.622 152.749C182.977 152.636 183.288 152.413 183.51 152.113C183.732 151.813 183.853 151.45 183.858 151.077C183.862 150.704 183.748 150.339 183.534 150.034C183.319 149.729 183.013 149.499 182.66 149.377C182.527 149.326 182.383 149.309 182.242 149.328C182.101 149.347 181.966 149.402 181.852 149.487C181.797 149.535 181.753 149.595 181.723 149.661C181.693 149.727 181.677 149.799 181.677 149.872C181.677 149.945 181.693 150.017 181.723 150.084C181.753 150.15 181.797 150.209 181.852 150.257C181.948 149.917 181.932 149.554 181.806 149.223C181.68 148.893 181.451 148.611 181.153 148.42C180.851 148.258 180.5 148.209 180.165 148.282C179.829 148.354 179.53 148.544 179.322 148.816C179.421 148.665 179.474 148.488 179.474 148.307C179.474 148.127 179.421 147.95 179.322 147.799C179.223 147.656 179.08 147.549 178.916 147.494C178.752 147.438 178.574 147.437 178.409 147.491C178.367 147.264 178.241 147.061 178.057 146.922C177.872 146.784 177.643 146.719 177.413 146.743C177.186 146.793 176.986 146.924 176.849 147.111C176.712 147.298 176.649 147.529 176.67 147.76C176.65 147.672 176.604 147.591 176.539 147.528C176.473 147.465 176.391 147.422 176.302 147.405C176.212 147.388 176.12 147.398 176.036 147.433C175.952 147.467 175.88 147.526 175.829 147.601C175.614 147.535 175.939 147.661 175.939 147.661Z" fill="#EBEBEB"/>
<path d="M176.104 152.05C176.014 151.985 175.911 151.938 175.803 151.912C175.694 151.887 175.582 151.883 175.472 151.902C175.362 151.922 175.261 151.973 175.18 152.049C175.099 152.125 175.042 152.223 175.015 152.331C174.994 152.439 175.012 152.551 175.068 152.647C175.124 152.742 175.213 152.814 175.318 152.848C175.582 152.908 175.868 152.694 176.11 152.732C176.203 152.753 176.295 152.781 176.385 152.815C176.585 152.837 176.788 152.814 176.979 152.747C177.169 152.681 177.342 152.572 177.485 152.43C177.601 152.352 177.703 152.255 177.787 152.144C177.827 152.087 177.851 152.02 177.857 151.95C177.863 151.881 177.85 151.811 177.82 151.748C177.759 151.673 177.677 151.617 177.584 151.586C177.491 151.556 177.392 151.553 177.298 151.577C176.907 151.62 176.536 151.775 176.231 152.023L176.258 151.836L176.104 152.05Z" fill="#FAFAFA"/>
<path d="M181.676 151.721C181.574 151.644 181.461 151.584 181.34 151.545C181.279 151.528 181.214 151.528 181.153 151.545C181.092 151.563 181.037 151.597 180.994 151.644C180.949 151.719 180.934 151.807 180.952 151.893C180.969 151.978 181.017 152.054 181.087 152.106C181.233 152.202 181.402 152.259 181.577 152.271C181.753 152.298 181.978 152.304 182.066 152.15C182.091 152.089 182.096 152.022 182.082 151.958C182.067 151.894 182.033 151.836 181.984 151.792C181.88 151.714 181.763 151.656 181.637 151.622L181.676 151.721Z" fill="#FAFAFA"/>
<path d="M172.87 148.822C172.693 148.898 172.536 149.015 172.413 149.163C172.289 149.311 172.203 149.486 172.16 149.675C172.139 149.729 172.136 149.789 172.149 149.846C172.163 149.903 172.194 149.954 172.237 149.994C172.313 150.024 172.398 150.024 172.474 149.994L173.497 149.752C173.329 149.803 173.173 149.885 173.035 149.994C172.968 150.05 172.916 150.122 172.886 150.204C172.856 150.286 172.849 150.375 172.864 150.461C172.898 150.559 172.962 150.642 173.047 150.7C173.133 150.758 173.234 150.786 173.337 150.78C173.539 150.761 173.73 150.683 173.887 150.555C173.983 150.501 174.064 150.426 174.125 150.335C174.186 150.244 174.225 150.141 174.239 150.032C174.239 149.812 173.97 149.614 173.799 149.752C174.192 149.648 174.564 149.479 174.899 149.251C175.027 149.178 175.136 149.076 175.218 148.954C175.26 148.894 175.285 148.825 175.29 148.752C175.296 148.68 175.283 148.607 175.251 148.541C174.899 147.909 174.459 148.838 174.245 148.921C173.838 149.08 173.387 148.607 172.87 148.822Z" fill="#FAFAFA"/>
<path d="M171.285 151.528C171.264 151.589 171.261 151.655 171.276 151.717C171.292 151.78 171.326 151.836 171.373 151.88C171.398 151.9 171.427 151.914 171.457 151.922C171.488 151.929 171.52 151.93 171.551 151.924C171.582 151.917 171.611 151.904 171.637 151.885C171.662 151.866 171.683 151.842 171.698 151.814C171.463 151.863 171.25 151.985 171.087 152.161C170.944 152.353 170.977 152.711 171.208 152.76C171.281 152.774 171.357 152.773 171.43 152.757C171.502 152.741 171.571 152.71 171.632 152.667C172 152.462 172.351 152.229 172.682 151.968C172.583 152.199 172.825 152.463 173.078 152.485C173.335 152.479 173.583 152.392 173.788 152.238C174.057 152.078 174.338 151.831 174.288 151.528C174.241 151.4 174.146 151.296 174.022 151.238C173.898 151.18 173.757 151.174 173.628 151.22C173.376 151.324 173.156 151.493 172.99 151.71C173.133 151.501 172.93 151.193 172.682 151.16C172.56 151.153 172.438 151.176 172.327 151.227C172.216 151.277 172.119 151.354 172.044 151.451C172.325 151.297 172.391 150.901 172.011 150.846C171.764 150.818 171.346 151.325 171.285 151.528Z" fill="#FAFAFA"/>
<path d="M179.069 150.62C179.015 150.601 178.957 150.593 178.899 150.596C178.841 150.6 178.785 150.615 178.733 150.642C178.682 150.668 178.636 150.705 178.599 150.749C178.562 150.794 178.535 150.845 178.519 150.901C178.508 150.956 178.507 151.013 178.518 151.069C178.529 151.124 178.551 151.177 178.582 151.224C178.613 151.271 178.653 151.311 178.7 151.342C178.747 151.374 178.799 151.396 178.854 151.407C178.686 151.425 178.531 151.505 178.42 151.633C178.389 151.667 178.365 151.707 178.35 151.75C178.335 151.794 178.329 151.84 178.332 151.886C178.348 151.953 178.387 152.014 178.442 152.057C178.497 152.1 178.565 152.123 178.634 152.122C178.773 152.113 178.909 152.074 179.03 152.007C178.893 152.011 178.758 152.051 178.64 152.122C178.613 152.142 178.589 152.167 178.572 152.195C178.554 152.224 178.542 152.256 178.537 152.289C178.532 152.323 178.534 152.357 178.542 152.389C178.55 152.422 178.565 152.453 178.585 152.48C178.631 152.514 178.685 152.536 178.742 152.543C178.799 152.549 178.857 152.541 178.909 152.518C179.159 152.447 179.389 152.319 179.581 152.144C179.646 152.224 179.731 152.288 179.827 152.328C179.923 152.368 180.027 152.384 180.131 152.375C180.182 152.367 180.231 152.349 180.276 152.321C180.32 152.294 180.358 152.258 180.388 152.215C180.418 152.172 180.438 152.124 180.449 152.073C180.46 152.022 180.46 151.97 180.45 151.919C180.42 151.849 180.372 151.79 180.311 151.746C180.25 151.702 180.178 151.676 180.103 151.671C179.952 151.66 179.799 151.683 179.658 151.737C179.816 151.649 179.941 151.512 180.015 151.346C180.07 151.176 179.955 150.945 179.773 150.956C179.592 150.967 179.471 151.247 179.311 151.346C179.135 151.165 179.504 150.78 179.069 150.62Z" fill="#FAFAFA"/>
<path d="M175.433 149.768C175.326 149.856 175.244 149.97 175.193 150.099C175.142 150.228 175.124 150.367 175.141 150.505C175.139 150.658 175.179 150.81 175.257 150.943C175.334 151.075 175.446 151.184 175.581 151.258C175.676 151.289 175.777 151.299 175.876 151.287C175.975 151.275 176.071 151.242 176.156 151.189C176.241 151.137 176.314 151.067 176.369 150.984C176.425 150.901 176.462 150.807 176.478 150.708C176.498 150.508 176.456 150.305 176.358 150.129C176.259 149.953 176.109 149.812 175.928 149.724C175.848 149.692 175.761 149.679 175.675 149.687C175.589 149.694 175.506 149.722 175.433 149.768Z" fill="#FAFAFA"/>
<path d="M178.013 149.449L178.107 149.531C178.068 149.479 178.019 149.436 177.963 149.404C177.906 149.372 177.844 149.352 177.779 149.346C177.714 149.339 177.649 149.347 177.588 149.367C177.526 149.388 177.47 149.421 177.422 149.465C177.374 149.509 177.336 149.563 177.311 149.622C177.285 149.682 177.272 149.746 177.273 149.811C177.273 149.876 177.288 149.94 177.315 149.999C177.342 150.058 177.381 150.11 177.43 150.153C177.527 150.235 177.652 150.276 177.778 150.266C177.905 150.257 178.023 150.199 178.107 150.103C178.238 150.169 178.388 150.189 178.533 150.163C178.677 150.136 178.81 150.063 178.91 149.955C178.986 149.839 179.016 149.699 178.993 149.563C178.971 149.426 178.898 149.303 178.789 149.218C178.725 149.185 178.654 149.169 178.583 149.172C178.512 149.174 178.442 149.194 178.381 149.23C178.319 149.266 178.268 149.317 178.232 149.379C178.195 149.44 178.175 149.51 178.173 149.581L178.062 149.46L178.013 149.449Z" fill="#FAFAFA"/>
<path d="M180.851 149.905C180.655 150.071 180.505 150.285 180.417 150.527C180.377 150.648 180.385 150.78 180.439 150.895C180.493 151.011 180.589 151.101 180.708 151.148C180.95 151.214 181.187 151.011 181.324 150.796C181.396 150.707 181.447 150.603 181.474 150.492C181.5 150.381 181.502 150.265 181.478 150.153C181.407 149.933 181.093 149.806 180.928 149.971L180.851 149.905Z" fill="#FAFAFA"/>
<path d="M176.758 148.415C176.731 148.365 176.694 148.322 176.65 148.288C176.605 148.253 176.555 148.227 176.5 148.213C176.446 148.198 176.389 148.194 176.334 148.201C176.278 148.208 176.224 148.227 176.175 148.255C176.082 148.32 176.014 148.415 175.982 148.524C175.95 148.633 175.956 148.75 175.999 148.855C176.044 148.959 176.116 149.05 176.208 149.117C176.3 149.184 176.409 149.224 176.522 149.234C176.802 149.267 177.133 149.042 177.072 148.767C177.139 148.844 177.225 148.904 177.321 148.94C177.417 148.975 177.521 148.986 177.622 148.97C177.818 148.939 178.005 148.868 178.172 148.761C178.409 148.624 178.656 148.415 178.634 148.145C178.616 148.038 178.561 147.941 178.481 147.869C178.4 147.797 178.297 147.755 178.189 147.749C178.081 147.744 177.973 147.761 177.872 147.799C177.771 147.836 177.678 147.894 177.6 147.969C177.474 148.079 177.364 148.211 177.226 148.31C177.159 148.363 177.08 148.396 176.996 148.408C176.912 148.42 176.826 148.409 176.747 148.376L176.758 148.415Z" fill="#FAFAFA"/>
<path d="M180.257 160.922H173.211L172.523 153.827H180.945L180.257 160.922Z" fill="#F0F0F0"/>
<path d="M181.489 154.191H171.907L171.737 153.245H181.665L181.489 154.191Z" fill="#FAFAFA"/>
<path d="M236.835 139.229H228.749L231.285 131.066L231.654 129.872H233.485L236.835 139.229Z" fill="#E0E0E0"/>
<path d="M231.653 129.872L231.285 131.066L228.749 139.229L221.274 139.119L218.87 131.066L218.502 129.872H231.653Z" fill="#E0E0E0"/>
<path d="M231.653 129.872L231.285 131.066L228.749 139.229L213.397 139.003L216.67 129.872H231.653Z" fill="#FAFAFA"/>
<path d="M231.654 129.872L231.285 131.066H216.247L216.67 129.872H231.654Z" fill="#EBEBEB"/>
<path d="M218.557 134.944H215.185L216.362 131.643L219.586 131.682L218.557 134.944ZM215.576 134.669H218.353L219.212 131.918L216.555 131.891L215.576 134.669Z" fill="#EBEBEB"/>
<path d="M222.325 134.944H218.942L220.114 131.643L223.342 131.682L222.325 134.944ZM219.343 134.669H222.127L222.985 131.918L220.328 131.891L219.343 134.669Z" fill="#EBEBEB"/>
<path d="M226.092 134.944H222.721L223.898 131.643L227.121 131.682L226.092 134.944ZM223.111 134.669H225.889L226.747 131.918L224.09 131.891L223.111 134.669Z" fill="#EBEBEB"/>
<path d="M229.871 134.944H226.5L227.677 131.643L230.9 131.682L229.871 134.944ZM226.89 134.669H229.668L230.526 131.918L227.869 131.891L226.89 134.669Z" fill="#EBEBEB"/>
<path d="M217.38 138.47H213.991L215.168 135.17L218.392 135.208L217.38 138.47ZM214.398 138.195H217.176L218.034 135.445L215.377 135.412L214.398 138.195Z" fill="#EBEBEB"/>
<path d="M221.142 138.47H217.77L218.947 135.17L222.171 135.208L221.142 138.47ZM218.155 138.195H220.938L221.797 135.445L219.14 135.412L218.155 138.195Z" fill="#EBEBEB"/>
<path d="M224.921 138.47H221.549L222.726 135.17L225.95 135.208L224.921 138.47ZM221.94 138.195H224.723L225.576 135.445L222.919 135.412L221.94 138.195Z" fill="#EBEBEB"/>
<path d="M228.694 138.47H225.323L226.5 135.17L229.723 135.208L228.694 138.47ZM225.713 138.195H228.491L229.349 135.445L226.692 135.412L225.713 138.195Z" fill="#EBEBEB"/>
<path d="M198.557 139.399H189.124V133.987C189.124 132.736 189.621 131.537 190.505 130.653C191.389 129.769 192.588 129.273 193.838 129.273C195.089 129.273 196.288 129.769 197.173 130.653C198.058 131.537 198.556 132.736 198.557 133.987V139.399Z" fill="#F0F0F0"/>
<path d="M193.782 138.217C195.979 138.217 197.759 136.436 197.759 134.24C197.759 132.043 195.979 130.263 193.782 130.263C191.586 130.263 189.805 132.043 189.805 134.24C189.805 136.436 191.586 138.217 193.782 138.217Z" fill="white"/>
<path d="M196.94 134.24C196.939 134.871 196.751 135.487 196.4 136.011C196.049 136.535 195.55 136.943 194.967 137.184C194.384 137.424 193.743 137.487 193.124 137.363C192.506 137.239 191.938 136.935 191.492 136.489C191.046 136.042 190.743 135.474 190.62 134.855C190.498 134.236 190.561 133.595 190.803 133.013C191.045 132.43 191.453 131.932 191.978 131.582C192.502 131.231 193.119 131.044 193.75 131.044C194.169 131.044 194.585 131.127 194.972 131.288C195.359 131.448 195.711 131.684 196.008 131.981C196.304 132.278 196.539 132.63 196.699 133.018C196.859 133.405 196.941 133.821 196.94 134.24Z" fill="#EBEBEB"/>
<path d="M194.102 134.312C194.102 134.38 194.081 134.447 194.043 134.504C194.005 134.561 193.951 134.606 193.888 134.632C193.824 134.658 193.755 134.665 193.687 134.652C193.62 134.638 193.558 134.605 193.51 134.557C193.461 134.508 193.428 134.447 193.415 134.379C193.402 134.312 193.409 134.242 193.435 134.179C193.461 134.116 193.505 134.062 193.562 134.024C193.619 133.986 193.686 133.965 193.755 133.965C193.847 133.965 193.935 134.002 194 134.067C194.065 134.132 194.102 134.22 194.102 134.312Z" fill="#FAFAFA"/>
<path d="M193.717 134.437L192.259 133.062L192.402 132.914L193.722 134.157L196.093 132.061L196.23 132.215L193.717 134.437Z" fill="#FAFAFA"/>
<path d="M61.567 185.461H58.0852V185.598H61.567V185.461Z" fill="#EBEBEB"/>
<path d="M138.084 205.329C196.985 205.329 244.733 202.541 244.733 199.102C244.733 195.664 196.985 192.876 138.084 192.876C79.1838 192.876 31.4354 195.664 31.4354 199.102C31.4354 202.541 79.1838 205.329 138.084 205.329Z" fill="#F5F5F5"/>
<path d="M247.263 116.502H28.8719L28.2559 5.51843H246.647L247.263 116.502Z" fill="#BB2C75"/>
<path opacity="0.7" d="M247.263 116.502H28.8719L28.2559 5.51843H246.647L247.263 116.502Z" fill="black"/>
<path d="M242.731 8.91235H31.4245V92.7124H242.731V8.91235Z" fill="white"/>
<path opacity="0.5" d="M31.4245 92.712H242.726L130.796 115.539L31.4245 92.712Z" fill="white"/>
<path d="M118.899 83.3499L83.9155 38.0863L49.5814 54.4888L49.1083 53.4932L84.2455 36.7112L119.201 81.9417L153.447 63.7406L188.359 68.7955L188.205 69.8847L153.645 64.8847L118.899 83.3499Z" fill="#263238"/>
<path d="M49.3452 56.9038C50.9552 56.9038 52.2605 55.5986 52.2605 53.9885C52.2605 52.3784 50.9552 51.0732 49.3452 51.0732C47.7351 51.0732 46.4299 52.3784 46.4299 53.9885C46.4299 55.5986 47.7351 56.9038 49.3452 56.9038Z" fill="#BB2C75"/>
<path d="M86.9958 37.701C86.9958 38.2776 86.8248 38.8412 86.5045 39.3207C86.1842 39.8001 85.7289 40.1737 85.1962 40.3944C84.6635 40.615 84.0773 40.6728 83.5118 40.5603C82.9463 40.4478 82.4268 40.1701 82.0191 39.7624C81.6114 39.3547 81.3338 38.8353 81.2213 38.2698C81.1088 37.7043 81.1665 37.1181 81.3872 36.5854C81.6078 36.0527 81.9815 35.5974 82.4609 35.2771C82.9403 34.9567 83.504 34.7858 84.0805 34.7858C84.4634 34.7858 84.8425 34.8612 85.1962 35.0077C85.5499 35.1542 85.8712 35.3689 86.1419 35.6396C86.4127 35.9103 86.6274 36.2317 86.7739 36.5854C86.9204 36.9391 86.9958 37.3182 86.9958 37.701Z" fill="#BB2C75"/>
<path d="M121.726 82.316C121.726 82.8928 121.555 83.4566 121.234 83.9362C120.914 84.4157 120.458 84.7893 119.925 85.0098C119.392 85.2303 118.806 85.2877 118.24 85.1748C117.674 85.0619 117.155 84.7837 116.748 84.3754C116.34 83.9672 116.063 83.4472 115.951 82.8813C115.839 82.3155 115.898 81.7291 116.119 81.1965C116.341 80.6639 116.715 80.209 117.195 79.8893C117.675 79.5697 118.24 79.3996 118.816 79.4007C119.199 79.4007 119.578 79.4761 119.931 79.6227C120.285 79.7693 120.606 79.9841 120.876 80.2549C121.146 80.5257 121.36 80.8471 121.506 81.2007C121.652 81.5544 121.727 81.9334 121.726 82.316Z" fill="#BB2C75"/>
<path d="M156.462 64.9018C156.462 65.4784 156.291 66.0421 155.97 66.5215C155.65 67.0009 155.195 67.3745 154.662 67.5952C154.129 67.8158 153.543 67.8736 152.978 67.7611C152.412 67.6486 151.893 67.3709 151.485 66.9632C151.077 66.5555 150.799 66.0361 150.687 65.4706C150.575 64.9051 150.632 64.3189 150.853 63.7862C151.074 63.2535 151.447 62.7982 151.927 62.4779C152.406 62.1576 152.97 61.9866 153.546 61.9866C153.929 61.9859 154.309 62.0608 154.663 62.207C155.017 62.3533 155.338 62.568 155.609 62.8388C155.88 63.1097 156.095 63.4313 156.241 63.7854C156.387 64.1394 156.462 64.5188 156.462 64.9018Z" fill="#BB2C75"/>
<path d="M191.197 69.6316C191.197 70.2082 191.026 70.7718 190.706 71.2512C190.386 71.7306 189.93 72.1043 189.398 72.3249C188.865 72.5456 188.279 72.6033 187.713 72.4908C187.148 72.3783 186.628 72.1007 186.221 71.693C185.813 71.2853 185.535 70.7658 185.423 70.2003C185.31 69.6348 185.368 69.0486 185.589 68.516C185.809 67.9833 186.183 67.528 186.662 67.2076C187.142 66.8873 187.705 66.7163 188.282 66.7163C188.665 66.7163 189.044 66.7917 189.398 66.9382C189.751 67.0847 190.073 67.2995 190.343 67.5702C190.614 67.8409 190.829 68.1623 190.975 68.516C191.122 68.8696 191.197 69.2487 191.197 69.6316Z" fill="#BB2C75"/>
<path d="M225.927 32.327C225.927 32.9038 225.756 33.4677 225.436 33.9472C225.115 34.4267 224.659 34.8004 224.126 35.0209C223.593 35.2414 223.007 35.2988 222.441 35.1858C221.876 35.0729 221.356 34.7947 220.949 34.3865C220.541 33.9782 220.264 33.4582 220.152 32.8924C220.04 32.3265 220.099 31.7402 220.32 31.2076C220.542 30.675 220.916 30.2201 221.396 29.9004C221.876 29.5807 222.441 29.4107 223.017 29.4117C223.4 29.4117 223.779 29.4872 224.132 29.6338C224.486 29.7803 224.807 29.9952 225.077 30.2659C225.347 30.5367 225.561 30.8581 225.707 31.2118C225.853 31.5655 225.928 31.9444 225.927 32.327Z" fill="#BB2C75"/>
<path d="M215.603 49.7914L212.984 47.0411L188.282 69.6262L208.144 41.9697L205.526 39.2194L219.723 35.7761L215.603 49.7914Z" fill="#263238"/>
<path d="M45.2965 13.2903C46.0226 13.2903 46.3306 13.7193 46.3306 14.4179V14.9679C46.3306 15.705 45.9896 16.068 45.2305 16.068H44.7795V17.8887H44.2625V13.2903H45.2965ZM45.2525 15.6225C45.6376 15.6225 45.8026 15.4465 45.8026 15.0009V14.3904C45.8026 13.9668 45.6486 13.7578 45.2525 13.7578H44.7575V15.6225H45.2525Z" fill="#BB2C75"/>
<path d="M47.189 16.9756L47.013 17.9052H46.5344L47.42 13.2903H48.1681L49.0481 17.9052H48.5366L48.3551 16.9756H47.189ZM47.255 16.5356H48.2836L47.761 13.8678L47.255 16.5356Z" fill="#BB2C75"/>
<path d="M51.4518 14.3958V14.5223H50.9622V14.3683C50.9622 13.9558 50.8082 13.7083 50.4122 13.7083C50.0162 13.7083 49.8621 13.9558 49.8621 14.3628C49.8621 15.3969 51.4133 15.4959 51.4133 16.7995C51.4133 17.4981 51.0778 17.9491 50.3737 17.9491C49.6696 17.9491 49.3396 17.4981 49.3396 16.7995V16.5355H49.8181V16.8215C49.8181 17.2396 49.9887 17.4816 50.3682 17.4816C50.7477 17.4816 50.9182 17.2396 50.9182 16.8215C50.9182 15.793 49.3726 15.7214 49.3726 14.3958C49.3726 13.6863 49.7026 13.2407 50.3957 13.2407C51.0888 13.2407 51.4518 13.6973 51.4518 14.3958Z" fill="#BB2C75"/>
<path d="M52.5739 17.9052V13.7578H51.7268V13.2903H53.927V13.7578H53.0854V17.9052H52.5739Z" fill="#BB2C75"/>
<path d="M132.419 17.9052H131.957V13.2903H132.611L133.684 16.6236V13.2903H134.14V17.9052H133.59L132.408 14.1704L132.419 17.9052Z" fill="#BB2C75"/>
<path d="M134.624 14.4013C134.624 13.6973 134.971 13.2407 135.68 13.2407C136.39 13.2407 136.742 13.6973 136.742 14.4013V16.7885C136.742 17.4926 136.39 17.9491 135.68 17.9491C134.971 17.9491 134.624 17.4926 134.624 16.7885V14.4013ZM135.13 16.816C135.13 17.2396 135.312 17.4816 135.68 17.4816C136.049 17.4816 136.231 17.2396 136.231 16.816V14.3738C136.231 13.9613 136.06 13.7083 135.68 13.7083C135.301 13.7083 135.13 13.9613 135.13 14.3738V16.816Z" fill="#BB2C75"/>
<path d="M138.459 17.9052H137.755L137.117 13.2903H137.623L138.173 17.2176L138.69 13.2958H139.185L139.691 17.2286L140.241 13.2903H140.692L140.065 17.9052H139.383L138.943 14.7699L138.459 17.9052Z" fill="#BB2C75"/>
<path d="M218.177 15.232V15.6995H217.116V17.7017H216.599V13.0813H218.436V13.5488H217.116V15.232H218.177Z" fill="#BB2C75"/>
<path d="M219.332 16.6126C219.332 17.0252 219.497 17.2782 219.882 17.2782C220.267 17.2782 220.432 17.0252 220.432 16.6126V13.0813H220.911V16.5851C220.911 17.2837 220.586 17.7512 219.877 17.7512C219.167 17.7512 218.848 17.2837 218.848 16.5851V13.0813H219.354L219.332 16.6126Z" fill="#BB2C75"/>
<path d="M222.066 17.7017V13.5488H221.214V13.0813H223.414V13.5488H222.572V17.7017H222.066Z" fill="#BB2C75"/>
<path d="M224.266 16.6126C224.266 17.0252 224.431 17.2782 224.816 17.2782C225.201 17.2782 225.366 17.0252 225.366 16.6126V13.0813H225.85V16.5851C225.85 17.2837 225.526 17.7512 224.811 17.7512C224.096 17.7512 223.782 17.2837 223.782 16.5851V13.0813H224.294L224.266 16.6126Z" fill="#BB2C75"/>
<path d="M227.357 13.0813C228.084 13.0813 228.386 13.4498 228.386 14.1374V14.5114C228.386 15.023 228.21 15.3365 227.836 15.463C228.26 15.5895 228.419 15.9306 228.419 16.4256V17.1462C228.405 17.3339 228.435 17.5222 228.507 17.6962H227.99C227.918 17.5224 227.888 17.3339 227.902 17.1462V16.4146C227.902 15.8645 227.66 15.727 227.231 15.727H226.868V17.7017H226.351V13.0813H227.357ZM227.225 15.2815C227.638 15.2815 227.88 15.1495 227.88 14.6489V14.1814C227.88 13.7689 227.726 13.5488 227.33 13.5488H226.829V15.2595L227.225 15.2815Z" fill="#BB2C75"/>
<path d="M230.575 15.1275V15.5895H229.475V17.2397H230.856V17.7072H228.958V13.0813H230.856V13.5488H229.448V15.1275H230.575Z" fill="#BB2C75"/>
<path d="M70.1922 126.93L37.7778 127.078L39.4829 106.518L71.9028 106.375L70.1922 126.93Z" fill="#BB2C75"/>
<path d="M69.7518 128.542L37.8104 128.685C37.5986 128.691 37.3881 128.65 37.1932 128.567C36.9982 128.484 36.8234 128.36 36.6805 128.204C36.5376 128.048 36.43 127.862 36.3649 127.661C36.2998 127.459 36.2788 127.246 36.3033 127.035L38.003 106.606C38.0459 106.162 38.2505 105.748 38.5779 105.444C38.9053 105.14 39.3329 104.966 39.7796 104.956L71.721 104.813C71.9328 104.808 72.1433 104.848 72.3383 104.931C72.5332 105.014 72.708 105.138 72.8509 105.294C72.9938 105.451 73.1014 105.636 73.1665 105.838C73.2316 106.04 73.2526 106.253 73.2281 106.463L71.5285 126.892C71.4844 127.336 71.2794 127.749 70.9523 128.053C70.6251 128.357 70.1982 128.531 69.7518 128.542Z" fill="#BB2C75"/>
<g opacity="0.7">
<path opacity="0.7" d="M70.1922 126.93L37.7778 127.078L39.4829 106.517L71.9028 106.374L70.1922 126.93Z" fill="#BB2C75"/>
<path opacity="0.9" d="M68.7345 126.935L39.5159 127.067C39.2948 127.067 39.076 127.022 38.8734 126.934C38.6707 126.846 38.4886 126.716 38.3386 126.554C38.1886 126.391 38.074 126.2 38.0021 125.991C37.9302 125.782 37.9025 125.56 37.9208 125.34L39.3619 107.963C39.3949 107.566 39.576 107.195 39.8693 106.924C40.1626 106.653 40.5468 106.502 40.946 106.5L70.1591 106.368C70.3802 106.368 70.599 106.413 70.8017 106.501C71.0043 106.589 71.1865 106.719 71.3364 106.881C71.4864 107.044 71.601 107.235 71.673 107.444C71.7449 107.653 71.7726 107.875 71.7543 108.096L70.3132 125.466C70.2827 125.864 70.1034 126.237 69.8109 126.509C69.5184 126.781 69.1341 126.933 68.7345 126.935Z" fill="white"/>
</g>
<path opacity="0.1" d="M64.796 104.824L58.5695 128.536L60.6981 128.525L66.8532 104.818L64.796 104.824Z" fill="white"/>
<path opacity="0.1" d="M68.0798 104.813L61.8587 128.52L66.0831 128.503L72.2381 104.796L68.0798 104.813Z" fill="white"/>
<path d="M59.62 128.426L70.401 128.519C70.5385 129.774 69.9884 130.225 69.3009 130.219L29.8404 130.159C29.634 130.159 29.4297 130.118 29.2392 130.039C29.0486 129.96 28.8756 129.844 28.7299 129.698C28.5843 129.551 28.4689 129.378 28.3905 129.187C28.312 128.996 28.272 128.792 28.2727 128.585L59.62 128.426Z" fill="#BB2C75"/>
<path opacity="0.2" d="M70.4284 128.52C70.5659 129.774 70.0158 130.225 69.3283 130.219H55.665C56.5671 130.219 57.7057 129.345 57.7057 128.448L70.4284 128.52Z" fill="white"/>
<path opacity="0.2" d="M59.62 128.426L70.401 128.519C70.5385 129.774 69.9884 130.225 69.3009 130.219L29.8404 130.159C29.634 130.159 29.4297 130.118 29.2392 130.039C29.0486 129.96 28.8756 129.844 28.7299 129.698C28.5843 129.551 28.4689 129.378 28.3905 129.187C28.312 128.996 28.272 128.792 28.2727 128.585L59.62 128.426Z" fill="white"/>
<path d="M34.0535 132.189V199.482H35.8027L38.0029 132.189H34.0535Z" fill="#BB2C75"/>
<path d="M54.7023 134.389V196.731H56.4515L58.6517 134.389H54.7023Z" fill="#BB2C75"/>
<path opacity="0.5" d="M54.7023 134.389V196.731H56.4515L58.6517 134.389H54.7023Z" fill="black"/>
<path d="M138.948 132.189V196.732H137.199L134.998 132.189H138.948Z" fill="#BB2C75"/>
<path opacity="0.5" d="M138.948 132.189V196.732H137.199L134.998 132.189H138.948Z" fill="black"/>
<path d="M118.299 134.389V199.074H116.55L114.35 134.389H118.299Z" fill="#BB2C75"/>
<path d="M151.027 130.165H20.6985V132.986H151.027V130.165Z" fill="#BB2C75"/>
<path d="M142.457 136.006H29.9284L25.363 132.986H147.023L142.457 136.006Z" fill="#BB2C75"/>
<path opacity="0.5" d="M142.457 136.006H29.9284L25.363 132.986H147.023L142.457 136.006Z" fill="black"/>
<path d="M137.76 129.273H134.856V130.423H137.76V129.273Z" fill="#263238"/>
<path d="M137.572 129.839L115.62 129.603C112.919 129.603 112.039 124.504 112.039 122.535C112.039 120.93 112.677 119.391 113.811 118.256C114.946 117.122 116.485 116.484 118.09 116.484H139.184C140.132 116.487 141.04 116.865 141.711 117.534C142.382 118.204 142.761 119.112 142.765 120.06C142.765 120.06 142.319 129.839 137.572 129.839Z" fill="#BB2C75"/>
<g opacity="0.5">
<g opacity="0.7">
<path opacity="0.7" d="M137.572 129.839L115.62 129.603C112.919 129.603 112.039 124.504 112.039 122.535C112.039 120.93 112.677 119.391 113.811 118.256C114.946 117.122 116.485 116.484 118.09 116.484H139.184C140.132 116.487 141.04 116.865 141.711 117.534C142.382 118.204 142.761 119.112 142.765 120.06C142.765 120.06 142.319 129.839 137.572 129.839Z" fill="white"/>
</g>
</g>
<path d="M139.778 116.545L118.42 116.501C115.419 116.489 112.496 117.454 110.092 119.251L107.512 121.165C107.385 121.262 107.291 121.397 107.244 121.55C107.198 121.704 107.201 121.868 107.253 122.019C107.306 122.171 107.405 122.302 107.537 122.393C107.668 122.485 107.825 122.533 107.985 122.529L129.382 121.979L139.778 116.545Z" fill="#BB2C75"/>
<path opacity="0.5" d="M139.778 116.545L118.877 116.501C115.45 116.501 112.606 117.188 109.707 119.537L106.841 121.715C106.758 121.778 106.696 121.866 106.665 121.966C106.634 122.067 106.636 122.174 106.67 122.273C106.705 122.372 106.77 122.458 106.856 122.518C106.942 122.578 107.045 122.609 107.149 122.606L129.025 122.216L139.778 116.545Z" fill="white"/>
<path d="M110.956 129.273H108.052V130.423H110.956V129.273Z" fill="#263238"/>
<path d="M130.263 129.273H127.359V130.423H130.263V129.273Z" fill="#263238"/>
<path d="M119.053 129.273H116.149V130.423H119.053V129.273Z" fill="#263238"/>
<path d="M128.833 129.84H109.273C108.089 129.837 106.955 129.365 106.118 128.528C105.281 127.691 104.809 126.557 104.807 125.373C104.811 124.191 105.283 123.058 106.12 122.222C106.957 121.386 108.09 120.915 109.273 120.913H128.833C130.015 120.915 131.148 121.386 131.984 122.222C132.82 123.058 133.291 124.191 133.294 125.373C133.291 126.556 132.82 127.69 131.984 128.527C131.148 129.363 130.015 129.835 128.833 129.84Z" fill="#BB2C75"/>
<path d="M128.894 123.685H109.884V124.433H128.894V123.685Z" fill="#263238"/>
<path d="M128.893 124.857H109.883V125.605H128.893V124.857Z" fill="#263238"/>
<path d="M128.893 126.022H109.883V126.77H128.893V126.022Z" fill="#263238"/>
<path d="M128.893 127.194H109.883V127.942H128.893V127.194Z" fill="#263238"/>
<path d="M134.625 116.424L134.504 116.545L130.983 118.13C127.578 119.708 125.719 119.549 126.297 118.13C126.297 118.13 126.907 112.464 130.664 112.464C131.714 112.465 132.721 112.883 133.463 113.626C134.205 114.368 134.623 115.374 134.625 116.424Z" fill="#BB2C75"/>
<g opacity="0.7">
<path opacity="0.7" d="M134.625 116.424L134.504 116.545L130.983 118.13C127.578 119.708 125.719 119.549 126.297 118.13C126.297 118.13 126.907 112.464 130.664 112.464C131.714 112.465 132.721 112.883 133.463 113.626C134.205 114.368 134.623 115.374 134.625 116.424Z" fill="white"/>
</g>
<path d="M125.908 48.4794L111.201 52.0183L111.637 53.8312L126.344 50.2924L125.908 48.4794Z" fill="#BB2C75"/>
<path opacity="0.3" d="M125.908 48.4794L111.201 52.0183L111.637 53.8312L126.344 50.2924L125.908 48.4794Z" fill="white"/>
<path d="M142.19 44.1017L120.163 49.4023L120.856 52.2848L142.884 46.9842L142.19 44.1017Z" fill="#BB2C75"/>
<path opacity="0.2" d="M142.19 44.1017L120.163 49.4023L120.856 52.2848L142.884 46.9842L142.19 44.1017Z" fill="white"/>
<path d="M157.38 46.3099L133.272 49.7312L132.364 45.9578L155.389 38.0371L156.324 39.5057C157.264 40.977 157.691 42.7172 157.54 44.4562L157.38 46.3099Z" fill="#BB2C75"/>
<path opacity="0.2" d="M157.38 46.3099L133.272 49.7312L132.364 45.9578L155.389 38.0371L156.324 39.5057C157.264 40.977 157.691 42.7172 157.54 44.4562L157.38 46.3099Z" fill="white"/>
<path d="M94.5373 70.6334C90.8465 73.1801 85.511 76.7499 82.9478 78.8401H82.9148C81.7062 80.1459 80.5731 81.5196 79.521 82.9545L79.0535 83.6145L79.0095 83.675L78.9545 83.785C78.9104 83.8667 78.8718 83.9513 78.8389 84.0381C78.6638 84.5104 78.5348 84.9985 78.4539 85.4957C78.2779 86.5958 78.2724 90.9082 78.7069 95.7926C78.7361 96.123 78.6387 96.4522 78.4345 96.7136C78.2303 96.9749 77.9345 97.1491 77.6068 97.2007L76.4132 97.3988C76.1013 97.4526 75.7804 97.3907 75.511 97.2246C75.2415 97.0584 75.0421 96.7996 74.9501 96.4967C74.2611 94.1579 73.7662 91.7662 73.4705 89.346C73.2799 87.8727 73.221 86.3854 73.2945 84.9016C73.3371 83.9915 73.4828 83.0891 73.729 82.2119C73.7742 82.0377 73.8312 81.8668 73.8995 81.7004L74.0425 81.3373L74.2295 80.9468C74.378 80.6498 74.4495 80.5397 74.5431 80.3967L74.8291 79.9127C75.1872 79.2672 75.582 78.6428 76.0117 78.0425C76.4352 77.4925 76.8588 76.8874 77.3043 76.3044C78.2119 75.0943 79.2075 73.9722 80.2141 72.8721C80.6431 72.4045 81.0776 71.9535 81.5232 71.5024C84.917 67.3166 89.9169 61.7336 92.3537 61.8656C96.325 62.0471 97.9752 66.7115 94.5373 70.6334Z" fill="#BB2C75"/>
<path d="M76.1823 96.6891C75.0382 97.9267 76.1823 99.9509 76.1823 99.9509L79.9061 99.0213L77.8819 96.4801L76.1823 96.6891Z" fill="#FF8B7B"/>
<path d="M79.9059 99.0218L76.2041 99.9624L77.5352 102.966L80.2965 102.35L79.9059 99.0218Z" fill="#FF8B7B"/>
<path d="M111.132 52.0302C111.363 52.0907 111.484 52.4152 111.391 52.7838C111.297 53.1523 111.055 53.3943 110.802 53.3338C110.549 53.2733 110.456 52.9378 110.549 52.5802C110.643 52.2227 110.885 51.9697 111.132 52.0302Z" fill="#263238"/>
<path d="M109.669 56.6285C109.94 56.7757 110.24 56.8622 110.548 56.8822C110.856 56.9021 111.164 56.855 111.452 56.744C110.984 55.6339 110.675 54.4637 110.533 53.2677L109.669 56.6285Z" fill="#FF5652"/>
<path d="M109.642 50.1656C109.631 50.1393 109.626 50.111 109.626 50.0826C109.626 50.0542 109.632 50.0261 109.644 50C109.655 49.9739 109.671 49.9503 109.692 49.9306C109.712 49.9108 109.736 49.8954 109.763 49.8851C110.078 49.7524 110.421 49.6976 110.761 49.7254C111.102 49.7532 111.431 49.8627 111.721 50.0446L111.765 50.0776C111.802 50.1172 111.823 50.1696 111.823 50.224C111.824 50.2785 111.803 50.331 111.766 50.3709C111.729 50.4108 111.678 50.435 111.624 50.4388C111.569 50.4426 111.516 50.4255 111.473 50.3911C111.24 50.2528 110.978 50.1712 110.708 50.1531C110.437 50.1349 110.166 50.1807 109.917 50.2866C109.874 50.3032 109.827 50.3032 109.785 50.2866C109.753 50.2798 109.723 50.2652 109.698 50.2441C109.673 50.223 109.654 50.196 109.642 50.1656Z" fill="#263238"/>
<path d="M104.136 60.0172C102.65 62.2174 101.627 64.7917 104.823 66.8874C104.823 66.8874 107.023 71.2877 100.621 68.961C94.7957 66.8653 95.0818 63.378 95.0818 63.378C98.03 62.0799 98.7506 56.937 99.2621 53.5817L104.136 60.0172Z" fill="#FF8B7B"/>
<path d="M104.851 67.1182C104.851 67.1182 105.819 64.335 104.114 62.9818C102.409 61.6287 96.963 61.1282 95.8079 61.1282C94.7628 61.1282 94.8453 62.2888 94.9333 63.3284L104.851 67.1182Z" fill="#BB2C75"/>
<path opacity="0.5" d="M104.851 67.1182C104.851 67.1182 105.819 64.335 104.114 62.9818C102.409 61.6287 96.963 61.1282 95.8079 61.1282C94.7628 61.1282 94.8453 62.2888 94.9333 63.3284L104.851 67.1182Z" fill="white"/>
<path opacity="0.3" d="M91.8807 73.4158C89.4495 75.803 87.3483 77.4532 87.3483 77.4532L87.0732 77.1176L93.1513 68.9109L91.8807 73.4158Z" fill="black"/>
<path d="M102.881 99.9232L96.0552 98.7076L87.4965 97.2004L81.864 96.2049C82.018 93.3281 83.5966 81.3535 86.4349 67.8223C87.2214 64.082 90.1202 61.2217 93.866 61.9533H93.9705C96.9621 62.5412 99.9171 63.3015 102.821 64.2305C104.474 64.8308 106.084 65.5438 107.639 66.3647C107.973 66.5249 108.261 66.7666 108.476 67.0676C108.691 67.3685 108.827 67.7189 108.871 68.0863C109.201 70.9026 103.981 85.0334 102.881 99.9232Z" fill="#BB2C75"/>
<path opacity="0.3" d="M102.381 73.956C102.605 77.3211 103.709 80.5685 105.582 83.3728C105.94 81.6292 107.854 74.0605 108.217 72.5479L102.381 73.956Z" fill="black"/>
<path d="M124.938 55.672L125.967 55.793C127.749 53.4388 126.627 50.2925 126.627 50.2925L121.583 51.4971L122.502 53.8128C122.701 54.3143 123.034 54.7521 123.463 55.0795C123.892 55.4069 124.402 55.6117 124.938 55.672Z" fill="#FF8B7B"/>
<path d="M121.611 51.4967L126.627 50.2976L126.209 47.6189L121.754 47.0908L121.611 51.4967Z" fill="#FF8B7B"/>
<path d="M135.213 66.5853C135.07 66.0721 134.867 65.5774 134.608 65.1111C134.417 64.7336 134.206 64.3663 133.976 64.011C133.657 63.516 130.384 58.6151 127.892 55.4138C127.64 55.0921 127.325 54.8257 126.966 54.631C126.607 54.4363 126.212 54.3174 125.805 54.2818C125.398 54.2463 124.988 54.2947 124.6 54.4241C124.213 54.5535 123.856 54.7612 123.552 55.0342C125.115 57.2344 127.887 63.923 128.558 65.0396L128.899 65.5897C129.204 65.5573 129.512 65.5573 129.817 65.5897C130.461 65.7217 131.105 65.2047 131.721 65.3202L131.963 65.3697H132.084H132.144C132.062 65.3642 131.979 65.3642 131.897 65.3697C131.664 65.3983 131.438 65.4632 131.226 65.5622C130.834 65.7499 130.502 66.0433 130.268 66.4093C130.097 66.6829 129.988 66.9909 129.949 67.3113C129.942 67.4212 129.942 67.5315 129.949 67.6414C129.927 67.5359 129.89 67.4341 129.839 67.3388C129.735 67.0873 129.617 66.8413 129.487 66.6018C129.317 66.2607 129.119 65.9087 128.904 65.5512H128.723L128.563 64.9626C128.563 64.9626 99.5262 66.1232 100.137 70.3036C96.49 81.0956 128.921 71.7117 130.23 71.3267H130.268C131.571 71.0122 132.857 70.6285 134.119 70.1771C134.488 69.896 134.791 69.5377 135.006 69.1272C135.222 68.7167 135.345 68.264 135.367 67.8009C135.38 67.3901 135.328 66.9799 135.213 66.5853ZM129.971 67.8559C129.956 67.8191 129.947 67.7801 129.944 67.7404C129.958 67.7775 129.968 67.8163 129.971 67.8559Z" fill="#BB2C75"/>
<path d="M132.144 65.4517C132.062 65.4462 131.979 65.4462 131.897 65.4517C131.664 65.4802 131.438 65.5452 131.226 65.6442C130.834 65.8319 130.503 66.1253 130.269 66.4912C130.097 66.7649 129.988 67.0729 129.95 67.3933C129.942 67.5032 129.942 67.6135 129.95 67.7234C129.927 67.6179 129.89 67.5161 129.84 67.4208C129.735 67.1693 129.617 66.9233 129.488 66.6838C129.317 66.3427 129.119 65.9907 128.904 65.6332C129.21 65.6008 129.518 65.6008 129.823 65.6332C130.467 65.7652 131.11 65.2481 131.726 65.3636L131.968 65.4131H132.089L132.144 65.4517Z" fill="#BB2C75"/>
<path d="M99.9993 46.1888C100.483 45.5403 101.091 44.9936 101.786 44.5799C102.482 44.1661 103.252 43.8935 104.053 43.7775C104.854 43.6616 105.67 43.7046 106.454 43.9041C107.239 44.1036 107.976 44.4556 108.624 44.9402C112.474 47.7784 111.374 54.412 109.449 58.0974C107.287 62.1897 101.38 62.8113 98.9267 58.5869C97.2766 55.7816 98.0191 53.2239 98.8717 48.7905C99.0413 47.8477 99.4273 46.9572 99.9993 46.1888Z" fill="#FF8B7B"/>
<path d="M100.621 42.575C98.3272 43.8951 96.7705 46.2328 95.9345 48.7521C95.1589 51.1118 95.0819 61.0127 104.466 58.6915C104.638 56.0031 105.62 53.4298 107.282 51.3098C108.201 54.9016 108.168 49.2966 109.73 48.191C110.901 47.3604 112.48 47.3989 113.762 46.7279C114.697 46.1789 115.379 45.2825 115.657 44.2338C115.935 43.1851 115.787 42.069 115.247 41.1284C115.351 41.6344 114.565 43.1141 114.081 43.2901C114.417 42.3509 114.472 41.334 114.24 40.3638C114.081 41.1394 113.426 42.861 112.705 42.9435C112.953 42.465 112.705 40.9139 112.309 40.2373C112.639 40.8479 111.605 42.5585 111.209 42.9435C110.032 44.0161 106.138 39.3957 100.621 42.575Z" fill="#263238"/>
<path d="M106.809 50.0998C107.909 50.8699 107.958 52.9105 107.628 54.0711C107.265 55.3638 106.138 55.8918 105.313 54.6652C104.696 53.7266 104.404 52.6117 104.482 51.4914C104.603 50.1438 105.692 49.3297 106.809 50.0998Z" fill="#FF8B7B"/>
<path d="M58.7621 188.992C58.7517 188.977 58.7462 188.958 58.7462 188.94C58.7462 188.921 58.7517 188.903 58.7621 188.888C58.774 188.873 58.7894 188.862 58.8067 188.856C58.824 188.849 58.8427 188.847 58.8611 188.849C58.9051 188.849 60.2418 189.13 60.5553 189.652C60.5905 189.706 60.6128 189.767 60.6204 189.831C60.6281 189.895 60.6208 189.96 60.5993 190.021C60.5278 190.263 60.3848 190.34 60.2803 190.34C60.0217 190.378 59.6972 190.125 59.4112 189.828C59.1646 189.574 58.9469 189.294 58.7621 188.992ZM59.0481 189.091C59.3947 189.603 59.9722 190.191 60.2583 190.153C60.2583 190.153 60.3683 190.153 60.4178 189.966C60.4339 189.932 60.4422 189.895 60.4422 189.858C60.4422 189.821 60.4339 189.785 60.4178 189.751C60.3951 189.718 60.3694 189.686 60.3408 189.658C59.9579 189.374 59.5161 189.18 59.0481 189.091Z" fill="#BB2C75"/>
<path d="M58.7458 188.938C58.7431 188.921 58.7447 188.903 58.7505 188.887C58.7562 188.87 58.7659 188.856 58.7788 188.844C58.8173 188.811 59.7248 188.069 60.3244 188.14C60.3981 188.146 60.4698 188.167 60.5344 188.203C60.5989 188.24 60.6549 188.289 60.6984 188.349C60.7458 188.402 60.7746 188.468 60.7805 188.539C60.7865 188.609 60.7693 188.68 60.7314 188.74C60.4619 189.114 59.2683 189.152 58.8118 189.009H58.7733C58.7554 188.99 58.7455 188.964 58.7458 188.938ZM60.3024 188.344C59.8434 188.396 59.4116 188.588 59.0648 188.894C59.5763 188.976 60.4179 188.894 60.5719 188.657C60.5719 188.657 60.6214 188.591 60.5719 188.492V188.459C60.5387 188.421 60.4971 188.39 60.4504 188.37C60.4038 188.35 60.3531 188.341 60.3024 188.344Z" fill="#BB2C75"/>
<path d="M59.389 179.032L63.1293 180.39L58.3824 188.773L54.6421 187.414L59.389 179.032Z" fill="#FF8B7B"/>
<path d="M59.235 189.075C59.2955 190.384 60.3076 192.964 61.9852 195.675C62.3593 196.281 60.9951 197.326 59.818 196.071C58.6409 194.817 56.0997 191.858 55.2471 190.978C53.8555 189.542 53.2339 189.031 52.1338 187.931C52.1018 187.9 52.074 187.865 52.0513 187.826C52.009 187.76 51.9803 187.687 51.9668 187.61C51.9533 187.533 51.9553 187.454 51.9727 187.377C51.9901 187.301 52.0226 187.229 52.0682 187.165C52.1138 187.102 52.1717 187.048 52.2384 187.007L55.3736 185.082C55.4431 185.04 55.5243 185.024 55.6042 185.035C55.6841 185.046 55.7579 185.084 55.8137 185.142L58.971 188.404C59.1407 188.586 59.235 188.826 59.235 189.075Z" fill="#263238"/>
<path opacity="0.2" d="M56.936 183.355L60.5003 185.033L63.1295 180.39L59.3892 179.032L56.936 183.355Z" fill="black"/>
<path d="M96.0666 98.7069C96.0666 98.7069 88.1349 127.827 84.5156 139.097C80.5277 151.435 63.2452 183.794 63.2452 183.794L56.4631 180.84C56.4631 180.84 69.5432 151.38 72.3375 139.037C75.3463 125.67 72.7445 102.304 81.8643 96.2042H81.8918L87.5244 97.1998L96.0666 98.7069Z" fill="#BB2C75"/>
<path opacity="0.5" d="M96.0666 98.7069C96.0666 98.7069 92.2492 112.722 88.6959 125.071C87.1283 130.522 85.6101 135.648 84.499 139.097C80.5112 151.435 63.2286 183.794 63.2286 183.794L56.4465 180.84C56.4465 180.84 69.5267 151.38 72.321 139.037C75.3297 125.67 72.728 102.304 81.8478 96.2042H81.8753L87.5078 97.1998L96.0666 98.7069Z" fill="white"/>
<path d="M56.5838 179.12L55.4177 181.381L63.0304 184.747L64.8786 182.459L56.5838 179.12Z" fill="#263238"/>
<path opacity="0.3" d="M92.9311 108.471C90.4504 118.091 86.8805 131.639 84.6418 138.647C85.0049 128.46 86.3855 108.724 91.765 108.212C92.1718 108.164 92.583 108.255 92.9311 108.471Z" fill="black"/>
<path d="M97.1884 199.378C97.1691 199.375 97.151 199.367 97.1364 199.354C97.1217 199.342 97.1111 199.325 97.1059 199.306C97.1018 199.287 97.1032 199.267 97.11 199.248C97.1168 199.23 97.1287 199.214 97.1444 199.202C97.2049 199.163 98.5635 198.272 99.2455 198.41C99.3766 198.435 99.4929 198.51 99.5701 198.619C99.6132 198.68 99.6363 198.753 99.6363 198.828C99.6363 198.902 99.6132 198.975 99.5701 199.037C99.4161 199.273 98.921 199.378 98.404 199.411C97.9985 199.431 97.5921 199.42 97.1884 199.378ZM99.02 198.591C98.465 198.689 97.9344 198.895 97.4579 199.196C98.2169 199.251 99.24 199.196 99.4106 198.916C99.4491 198.877 99.4766 198.817 99.4106 198.701C99.3887 198.669 99.3603 198.641 99.3271 198.62C99.2939 198.599 99.2568 198.586 99.218 198.58C99.1578 198.572 99.0967 198.572 99.0365 198.58L99.02 198.591Z" fill="#BB2C75"/>
<path d="M97.1224 199.373C97.1091 199.362 97.0982 199.349 97.0906 199.334C97.083 199.318 97.0788 199.302 97.0784 199.285C97.0784 199.241 97.1169 198.146 97.6285 197.689C97.7016 197.62 97.7882 197.567 97.8829 197.533C97.9775 197.499 98.0782 197.485 98.1785 197.491C98.4481 197.491 98.5471 197.629 98.5526 197.739C98.6571 198.184 97.7495 199.125 97.271 199.389H97.2324C97.2141 199.395 97.1946 199.396 97.1755 199.394C97.1565 199.391 97.1383 199.384 97.1224 199.373ZM98.0795 197.678C97.9715 197.689 97.8695 197.733 97.788 197.805C97.5027 198.171 97.3375 198.617 97.315 199.081C97.777 198.757 98.415 198.03 98.3325 197.755C98.3325 197.755 98.3325 197.656 98.14 197.662H98.0795V197.678Z" fill="#BB2C75"/>
<path d="M92.5845 190.192L96.6163 189.944L96.7923 199.306L92.7605 199.559L92.5845 190.192Z" fill="#FF8B7B"/>
<path d="M97.7386 199.092C100.571 200.605 102.139 200.583 105.351 201.072C106.055 201.188 105.692 202.887 104.042 202.992C101.292 203.162 100.28 203.096 97.9421 203.245C95.9454 203.366 93.6572 203.624 92.0676 203.723C92.0237 203.729 91.9794 203.729 91.9356 203.723C91.8591 203.712 91.7857 203.685 91.7196 203.645C91.6534 203.605 91.5959 203.553 91.5504 203.49C91.5048 203.428 91.4721 203.357 91.4542 203.282C91.4363 203.207 91.4335 203.129 91.446 203.052L91.9961 199.416C92.0096 199.337 92.0495 199.264 92.1094 199.21C92.1693 199.157 92.2457 199.124 92.3261 199.119L96.7265 198.85C97.08 198.833 97.4309 198.917 97.7386 199.092Z" fill="#263238"/>
<path opacity="0.2" d="M92.5791 190.197L92.6836 195.456L96.7155 195.208L96.6165 189.944L92.5791 190.197Z" fill="black"/>
<path d="M102.882 99.9234C102.882 99.9234 103.877 129.318 102.997 141.617C102.073 154.411 98.3656 192.909 98.3656 192.909L91.534 193.333C91.534 193.333 90.4834 154.725 90.6319 142.134C90.6869 137.844 90.3404 131.953 89.8564 125.869C88.7563 112.453 86.9411 98.1247 86.9411 98.1247L96.0554 98.7077L102.882 99.9234Z" fill="#BB2C75"/>
<path opacity="0.5" d="M102.882 99.9234C102.882 99.9234 103.877 129.318 102.997 141.617C102.073 154.411 98.3656 192.909 98.3656 192.909L91.534 193.333C91.534 193.333 90.4834 154.725 90.6319 142.134C90.6869 137.844 90.3404 131.953 89.8564 125.869C88.7563 112.453 86.9411 98.1247 86.9411 98.1247L96.0554 98.7077L102.882 99.9234Z" fill="white"/>
<path d="M90.4009 191.803L90.7804 194.323L99.0862 193.806C99.0862 193.806 99.3282 190.945 99.3007 190.945L90.4009 191.803Z" fill="#263238"/>
</svg>
