<?xml version="1.0" encoding="utf-8"?>
<!-- Generator: Adobe Illustrator 25.0.1, SVG Export Plug-In . SVG Version: 6.00 Build 0)  -->
<svg version="1.1" id="Ebene_1" xmlns="http://www.w3.org/2000/svg" xmlns:xlink="http://www.w3.org/1999/xlink" x="0px" y="0px"
	 viewBox="0 0 1000 1000" style="enable-background:new 0 0 1000 1000;" xml:space="preserve">
<style type="text/css">
	.st0{fill:none;stroke:#FFFFFF;stroke-width:1.24;stroke-miterlimit:10;}
	.st1{fill:none;stroke:#FFFFFF;stroke-width:2.47;stroke-miterlimit:10;}
	.st2{fill:none;stroke:#FFFFFF;stroke-width:2.47;stroke-linecap:square;stroke-linejoin:bevel;}
	.st3{fill:#FFFFFF;}
</style>
<path class="st0" d="M149.1,492.3l58.8-18.9l37.8-15.4l-44.9-36.4"/>
<path class="st0" d="M748.2,588.5l-42.6-9.3l-81-9L522.8,545l-141-39.2l-102.8-50l-17.8-27.1l-65.9-46.8l-44.4-9.6l-52.5-30.6"/>
<path class="st0" d="M182.5,322.6l-30.9,49.8l-36.2,24.9"/>
<path class="st0" d="M316.5,379.3L256,360.1l-73.4-37.5l-74.7,9.1"/>
<path class="st0" d="M288.8,519l-42.7-60.8l15.1-29.3l55.3-49.3l72.2,28.1"/>
<path class="st0" d="M195.3,381.8l60.7-21.7"/>
<path class="st0" d="M195.3,381.8l4.9,39.9"/>
<path class="st0" d="M694.6,596.6l33.9-39.9"/>
<path class="st0" d="M388.7,407.4l-51.2-94.6l35.3-75.3l217-70.8l124.2-5.5"/>
<path class="st0" d="M106.9,302.6l-8.5,39.2"/>
<path class="st0" d="M416.3,538.3l-34.5-32.6l78.3-11"/>
<path class="st0" d="M204.3,465.1l41.8-6.9"/>
<path class="st0" d="M256,360.1l-7.6-30.9"/>
<path class="st0" d="M248.4,329.2l-65.9-6.6"/>
<path class="st0" d="M248.4,329.2l68.1,50.1"/>
<path class="st0" d="M164.7,506.3l-17.3-13.2"/>
<path class="st0" d="M79,529.4l24.3,12.9"/>
<path class="st0" d="M567.6,249.1l-194.8-11.7L354.2,222"/>
<path class="st0" d="M581.1,156l8.7,10.7"/>
<path class="st0" d="M324.5,295.6l12.5,17.2"/>
<path class="st0" d="M337,312.8l17.2-90.6"/>
<path class="st0" d="M354.2,222.2l235.6-55.5"/>
<path class="st0" d="M103.3,542.3l44.1-49.2"/>
<path class="st0" d="M247.9,495.9l40.7,23"/>
<path class="st0" d="M249.5,496.9l-84.8,9.6"/>
<path class="st0" d="M249.5,496.9l-3.8-38.8"/>
<path class="st0" d="M367.6,374.3l-51.1,5.2"/>
<path class="st0" d="M494.3,287.8l-48.5,14.2l-34.5,3.9"/>
<path class="st0" d="M449.7,288.2l140.1-121.5l192.4,33.9"/>
<path class="st0" d="M410.6,306l-73.1,6.8"/>
<path class="st0" d="M164.7,506.3l-61.5,35.9L73,689"/>
<path class="st0" d="M164.7,506.3l35.3,34.4"/>
<path class="st0" d="M410.6,306l-37.8-68.6"/>
<path class="st0" d="M103.3,542.3l58.2,156.7"/>
<path class="st0" d="M200,540.7L73.3,689.6"/>
<path class="st0" d="M73,689l84.5,117.1"/>
<path class="st0" d="M677.7,222.4l-87.9-55.6"/>
<path class="st0" d="M73,689l88.4,9.9"/>
<path class="st0" d="M206.7,303l-21.7,3.5l-41.8-21.7"/>
<path class="st0" d="M182.5,322.6l2.4-16.1"/>
<path class="st0" d="M184.7,306.5l-76.9,25.2"/>
<path class="st0" d="M184.7,306.5l63.7,22.7"/>
<path class="st0" d="M479.1,667.4l100.1-68.9"/>
<path class="st0" d="M727.5,386.9l-60,101.3"/>
<path class="st0" d="M441.9,325.9L410.6,306"/>
<path class="st0" d="M441.9,325.9l3.8-24"/>
<path class="st0" d="M441.9,325.9l52.3-38.1"/>
<path class="st0" d="M288.8,519l108.6,131"/>
<path class="st0" d="M671.6,344.2L643,527.9"/>
<path class="st0" d="M397.3,649.9l182.5-51.8"/>
<path class="st0" d="M460.1,494.7l62.7,50.3"/>
<path class="st0" d="M522.8,545l-106.5-6.6"/>
<path class="st0" d="M647.6,633.7l-71.9-7.6l23.3,31.8l62.3,19.2l122.5-5.8"/>
<path class="st0" d="M568.7,675.4l30.4-17.5"/>
<path class="st0" d="M599.1,658l48.5-24.3"/>
<path class="st0" d="M919,603.9l-55-60.5l-89.8-53.7L667,488.2"/>
<path class="st0" d="M774.2,489.6l0.9-40.3"/>
<path class="st0" d="M919.5,603.6L792,539.3"/>
<path class="st0" d="M644,528.4l130-38.8"/>
<path class="st0" d="M579.8,598.1l81.5,79.1"/>
<path class="st0" d="M389.5,406.9l184.2-107.5"/>
<path class="st0" d="M290,608.3l-1.3-89.5"/>
<path class="st0" d="M804.9,578.2l59.1-34.8"/>
<path class="st0" d="M705.9,706.7l17.2-32.5"/>
<path class="st0" d="M705.9,706.7l-44.6-29.5"/>
<path class="st0" d="M792.6,539.4l71.2,3.8"/>
<path class="st0" d="M864,543.4l-88.9-94.1"/>
<path class="st0" d="M864,543.4l-160.4-32.6"/>
<path class="st0" d="M626.8,643.8l97.7,31"/>
<path class="st0" d="M744.7,638.7l-83.4,38.5"/>
<path class="st0" d="M366.9,374.4l-92-48.4"/>
<path class="st0" d="M366.9,374.4l-66.3-58"/>
<path class="st0" d="M579.5,597.6l45.1-27.4l18.9-41.8l24-40.2"/>
<path class="st0" d="M290,608.3l286.5-9.3"/>
<path class="st0" d="M413,540.7l-52.3,65.2"/>
<path class="st0" d="M544.9,521.9l79.9,47.9"/>
<path class="st0" d="M360.6,605.9L508,564.7l116.6,5.5"/>
<path class="st0" d="M389.2,407.4l21.6-101.2l39.1-17.8"/>
<path class="st0" d="M388.8,407.5L329,316"/>
<path class="st0" d="M570.1,407.5l102.6-63.2"/>
<path class="st0" d="M570.1,407.5l4.7-108"/>
<path class="st0" d="M570.1,407.5L461,495"/>
<path class="st0" d="M545.3,523.1l24.6-115.5"/>
<path class="st0" d="M570.1,407.5l-180.3,0.2"/>
<path class="st0" d="M570.1,407.5l98.5,80.8"/>
<path class="st1" d="M143,284.8l-35.3,47l-20.5,20.2L84,331.4l22.7-28.7L143,284.8h0.2l63.4,18.1l41.8,26.2l26.8-3.3"/>
<path class="st2" d="M329,316l-2.7-18.9l27.9-74.9l226.9-66l132.7,5.2l68.2,39.4l-98.5,20.2l-116.1,28.2l-118.8,39.6l45.5-1.1
	l79.7,10.7l97.7,45.7l55.9,42.7l47.6,62.3l94.4,64.1l38.1,38.3l13.2,54.1l-114.7-26.9l-13.4-39.1l-42.7-0.2l-24,19.2l13.2,9.9
	l9,19.9l-28.8,7.1l-24.6,1.4l-45.1,15.8l-2.2,21l98.8,5l38,33.4l-78.2,33.9l-47-10.7l-90.6-20l-89.7-8l-81.8-17.3l-107.3-39.6
	l-40-41l-22.1-30.4l-27.7,1.9l-15.8,98.2l-22.9,60.2l-3.9,107l-48.9-34.5L73,689l5.8-159.6l68.9-36.4"/>
<path class="st1" d="M200.8,421.4l-85.4-24.1l-28.1-44.6"/>
<path class="st1" d="M204.3,465.2l-3.5-43.8"/>
<path class="st1" d="M204.6,464.4l-57.2,28.7"/>
<path class="st1" d="M274.6,326.2l26.8-10.1l27.7-0.2"/>
<path class="st1" d="M695.1,596.3l-115.2,1.7l-72-33.1l-91.6-26.6L288.8,519"/>
<path class="st1" d="M388.7,407.1l-0.3,0.5L279,455.8l9.6,63"/>
<path class="st1" d="M574,298.5l-132.1,27.4"/>
<path class="st1" d="M441.9,325.9l-53.3,81.6"/>
<path class="st1" d="M575.7,626l74.1-13.4"/>
<path class="st1" d="M725.9,558.7l-57.8-70.3L775,449.9"/>
<path class="st1" d="M568.7,676.1l7.1-49.8l0.2-0.6l3.2-26.8"/>
<path class="st1" d="M249.8,569.2l38.9-50.4l-27.6-90.3l127.5-21.3"/>
<path class="st1" d="M288.8,519l-61,19.9"/>
<path class="st1" d="M720,594.4l-11.5-14.3l30.7-11.7"/>
<path class="st1" d="M725.9,559.1L643.2,529l-98.5-6.9l-84.3-28.2L389,406.6"/>
<path class="st1" d="M643.4,529.5l24.7-41.3"/>
<path class="st3" d="M710,160.1c0.5-1.1,1.4-1.9,2.5-2.4c0.8-0.3,1.7-0.3,2.5-0.2c0.8,0.2,1.6,0.6,2.2,1.3s0.9,1.4,1.1,2.4
	c0.2,0.9,0,1.7-0.3,2.5c-0.3,0.8-0.9,1.4-1.7,1.9c-0.8,0.5-1.6,0.6-2.5,0.6c-0.9,0-1.7-0.3-2.5-0.8c-0.8-0.5-1.3-1.3-1.6-2
	C709.5,162.5,709.5,161.2,710,160.1z"/>
<path class="st3" d="M777,199.2c0.5-1.1,1.4-1.9,2.5-2.4c0.8-0.3,1.7-0.3,2.5-0.2c0.8,0.2,1.6,0.6,2.2,1.3c0.6,0.6,0.9,1.4,1.1,2.4
	c0.2,0.9,0,1.7-0.3,2.5c-0.3,0.8-0.9,1.4-1.7,1.9c-0.8,0.5-1.6,0.6-2.5,0.6c-0.9,0-1.7-0.3-2.5-0.8s-1.3-1.3-1.6-2
	C776.5,201.6,776.5,200.3,777,199.2z"/>
<path class="st3" d="M447,286.8c0.5-1.1,1.4-1.9,2.5-2.4c0.8-0.3,1.7-0.3,2.5-0.2c0.8,0.2,1.6,0.6,2.2,1.3c0.6,0.6,0.9,1.4,1.1,2.4
	c0.2,0.9,0,1.7-0.3,2.5s-0.9,1.4-1.7,1.9c-0.8,0.5-1.6,0.6-2.5,0.6c-0.9,0-1.7-0.3-2.5-0.8c-0.8-0.5-1.3-1.3-1.6-2
	C446.5,289.2,446.5,287.9,447,286.8z"/>
<path class="st3" d="M351.3,220.9c0.5-1.1,1.4-1.9,2.5-2.4c0.8-0.3,1.7-0.3,2.5-0.2s1.6,0.6,2.2,1.3c0.6,0.6,0.9,1.4,1.1,2.4
	c0.2,0.9,0,1.7-0.3,2.5c-0.3,0.8-0.9,1.4-1.7,1.9c-0.8,0.5-1.6,0.6-2.5,0.6c-0.9,0-1.7-0.3-2.5-0.8c-0.8-0.5-1.3-1.3-1.6-2
	C350.9,223.3,350.9,222,351.3,220.9z"/>
<path class="st3" d="M322.3,295.6c0.5-1.1,1.4-1.9,2.5-2.4c0.8-0.3,1.7-0.3,2.5-0.2c0.8,0.2,1.6,0.6,2.2,1.3
	c0.6,0.6,0.9,1.4,1.1,2.4c0.2,0.9,0,1.7-0.3,2.5c-0.3,0.8-0.9,1.4-1.7,1.9c-0.8,0.5-1.6,0.6-2.5,0.6c-0.9,0-1.7-0.3-2.5-0.8
	c-0.8-0.5-1.3-1.3-1.6-2C321.9,297.8,321.9,296.7,322.3,295.6z"/>
<path class="st3" d="M568.7,299.4c0-0.6,0.2-1.1,0.5-1.7c0.3-0.5,0.6-0.9,0.9-1.4c0.5-0.5,0.9-0.6,1.4-0.9c0.8-0.3,1.7-0.3,2.5-0.2
	c0.8,0.2,1.6,0.6,2.2,1.3c0.6,0.6,0.9,1.4,1.1,2.4c0.2,0.9,0,1.7-0.3,2.5s-0.9,1.4-1.7,1.9c-0.8,0.5-1.6,0.6-2.5,0.6
	s-1.7-0.3-2.5-0.8c-0.8-0.5-1.3-1.3-1.6-2C568.8,300.7,568.7,300.1,568.7,299.4z"/>
<path class="st3" d="M667,344.3c0.5-1.1,1.4-1.9,2.5-2.4c0.8-0.3,1.7-0.3,2.5-0.2c0.8,0.2,1.6,0.6,2.2,1.3s0.9,1.4,1.1,2.4
	c0.2,0.9,0,1.7-0.3,2.5c-0.3,0.8-0.9,1.4-1.7,1.9c-0.8,0.5-1.6,0.6-2.5,0.6s-1.7-0.3-2.5-0.8c-0.8-0.5-1.3-1.3-1.6-2
	C666.4,346.7,666.4,345.4,667,344.3z"/>
<path class="st3" d="M724.5,386.7c0.5-1.1,1.4-1.9,2.5-2.4c0.8-0.3,1.7-0.3,2.5-0.2c0.8,0.2,1.6,0.6,2.2,1.3
	c0.6,0.6,0.9,1.4,1.1,2.4c0.2,0.9,0,1.7-0.3,2.5c-0.3,0.8-0.9,1.4-1.7,1.9c-0.8,0.5-1.6,0.6-2.5,0.6s-1.7-0.3-2.5-0.8
	c-0.8-0.5-1.3-1.3-1.6-2C723.9,389.1,724,387.8,724.5,386.7z"/>
<path class="st3" d="M457.6,493.1c0.5-1.1,1.4-1.9,2.5-2.4c0.8-0.3,1.7-0.3,2.5-0.2c0.8,0.2,1.6,0.6,2.2,1.3
	c0.6,0.6,0.9,1.4,1.1,2.4c0.2,0.9,0,1.7-0.3,2.5c-0.3,0.8-0.9,1.4-1.7,1.9s-1.6,0.6-2.5,0.6s-1.7-0.3-2.5-0.8s-1.3-1.3-1.6-2
	C457.1,495.5,457.1,494.2,457.6,493.1z"/>
<path class="st3" d="M378.1,505.2c0.5-1.1,1.4-1.9,2.5-2.4c0.8-0.3,1.7-0.3,2.5-0.2c0.8,0.2,1.6,0.6,2.2,1.3
	c0.6,0.6,0.9,1.4,1.1,2.4c0.2,0.9,0,1.7-0.3,2.5c-0.3,0.8-0.9,1.4-1.7,1.9c-0.8,0.5-1.6,0.6-2.5,0.6s-1.7-0.3-2.5-0.8
	s-1.3-1.3-1.6-2C377.6,507.6,377.6,506.3,378.1,505.2z"/>
<path class="st3" d="M276.6,455.4c0.5-1.1,1.4-1.9,2.5-2.4c0.8-0.3,1.7-0.3,2.5-0.2c0.8,0.2,1.6,0.6,2.2,1.3
	c0.6,0.6,0.9,1.4,1.1,2.4c0.2,0.9,0,1.7-0.3,2.5s-0.9,1.4-1.7,1.9c-0.8,0.5-1.6,0.6-2.5,0.6s-1.7-0.3-2.5-0.8
	c-0.8-0.5-1.3-1.3-1.6-2C276.2,457.6,276.2,456.4,276.6,455.4z"/>
<path class="st3" d="M385.2,405.5c0.5-1.1,1.4-1.9,2.5-2.4c0.8-0.3,1.7-0.3,2.5-0.2c0.8,0.2,1.6,0.6,2.2,1.3
	c0.6,0.6,0.9,1.4,1.1,2.4c0.2,0.9,0,1.7-0.3,2.5s-0.9,1.4-1.7,1.9c-0.8,0.5-1.6,0.6-2.5,0.6s-1.7-0.3-2.5-0.8s-1.3-1.3-1.6-2
	C384.7,407.8,384.7,406.6,385.2,405.5z"/>
<path class="st3" d="M284.7,517.2c0.5-1.1,1.4-1.9,2.5-2.4c0.8-0.3,1.7-0.3,2.5-0.2c0.8,0.2,1.6,0.6,2.2,1.3
	c0.6,0.6,0.9,1.4,1.1,2.4c0.2,0.9,0,1.7-0.3,2.5c-0.3,0.8-0.9,1.4-1.7,1.9c-0.8,0.5-1.6,0.6-2.5,0.6c-0.9,0-1.7-0.3-2.5-0.8
	c-0.8-0.5-1.3-1.3-1.6-2C284,519.6,284.2,518.3,284.7,517.2z"/>
<path class="st3" d="M224.6,538.7c0.5-1.1,1.4-1.9,2.5-2.4c0.8-0.3,1.7-0.3,2.5-0.2c0.8,0.2,1.6,0.6,2.2,1.3
	c0.6,0.6,0.9,1.4,1.1,2.4s0,1.7-0.3,2.5s-0.9,1.4-1.7,1.9c-0.8,0.5-1.6,0.6-2.5,0.6c-0.9,0-1.7-0.3-2.5-0.8c-0.8-0.5-1.3-1.3-1.6-2
	C224,541,224.1,539.8,224.6,538.7z"/>
<path class="st3" d="M200.2,462.8c0.5-1.1,1.4-1.9,2.5-2.4c0.8-0.3,1.7-0.3,2.5-0.2c0.8,0.2,1.6,0.6,2.2,1.3
	c0.6,0.6,0.9,1.4,1.1,2.4s0,1.7-0.3,2.5s-0.9,1.4-1.7,1.9c-0.8,0.5-1.6,0.6-2.5,0.6c-0.9,0-1.7-0.3-2.5-0.8c-0.8-0.5-1.3-1.3-1.6-2
	C199.7,465.2,199.7,464,200.2,462.8z"/>
<path class="st3" d="M76.2,528.9c0.5-1.1,1.4-1.9,2.5-2.4c0.8-0.3,1.7-0.3,2.5-0.2c0.8,0.2,1.6,0.6,2.2,1.3c0.6,0.6,0.9,1.4,1.1,2.4
	c0.2,0.9,0,1.7-0.3,2.5c-0.3,0.8-0.9,1.4-1.7,1.9s-1.6,0.6-2.5,0.6s-1.7-0.3-2.5-0.8c-0.8-0.5-1.3-1.3-1.6-2
	C75.7,531.2,75.7,530,76.2,528.9z"/>
<path class="st3" d="M83.7,350.2c0.5-1.1,1.4-1.9,2.5-2.4c0.8-0.3,1.7-0.3,2.5-0.2c0.8,0.2,1.6,0.6,2.2,1.3s0.9,1.4,1.1,2.4
	c0.2,0.9,0,1.7-0.3,2.5c-0.3,0.8-0.9,1.4-1.7,1.9c-0.8,0.5-1.6,0.6-2.5,0.6c-0.9,0-1.7-0.3-2.5-0.8c-0.8-0.5-1.3-1.3-1.6-2
	C83.3,352.4,83.3,351.1,83.7,350.2z"/>
<path class="st3" d="M141.3,284.3c0.5-1.1,1.4-1.9,2.5-2.4c0.8-0.3,1.7-0.3,2.5-0.2c0.8,0.2,1.6,0.6,2.2,1.3
	c0.6,0.6,0.9,1.4,1.1,2.4c0.2,0.9,0,1.7-0.3,2.5s-0.9,1.4-1.7,1.9c-0.8,0.5-1.6,0.6-2.5,0.6c-0.9,0-1.7-0.3-2.5-0.8
	c-0.8-0.5-1.3-1.3-1.6-2C140.8,286.7,140.8,285.4,141.3,284.3z"/>
<path class="st3" d="M181,306.2c0.5-1.1,1.4-1.9,2.5-2.4c0.8-0.3,1.7-0.3,2.5-0.2c0.8,0.2,1.6,0.6,2.2,1.3c0.6,0.6,0.9,1.4,1.1,2.4
	s0,1.7-0.3,2.5s-0.9,1.4-1.7,1.9c-0.8,0.5-1.6,0.6-2.5,0.6c-0.9,0-1.7-0.3-2.5-0.8c-0.8-0.5-1.3-1.3-1.6-2
	C180.5,308.4,180.5,307.3,181,306.2z"/>
<path class="st3" d="M244.8,329c0.5-1.1,1.4-1.9,2.5-2.4c0.8-0.3,1.7-0.3,2.5-0.2c0.8,0.2,1.6,0.6,2.2,1.3s0.9,1.4,1.1,2.4
	c0.2,0.9,0,1.7-0.3,2.5c-0.3,0.8-0.9,1.4-1.7,1.9c-0.8,0.5-1.6,0.6-2.5,0.6c-0.9,0-1.7-0.3-2.5-0.8c-0.8-0.5-1.3-1.3-1.6-2
	C244.2,331.4,244.3,330.2,244.8,329z"/>
<path class="st3" d="M158,697.7c0.5-1.1,1.4-1.9,2.5-2.4c0.8-0.3,1.7-0.3,2.5-0.2c0.8,0.2,1.6,0.6,2.2,1.3c0.6,0.6,0.9,1.4,1.1,2.4
	c0.2,0.9,0,1.7-0.3,2.5c-0.3,0.8-0.9,1.4-1.7,1.9c-0.8,0.5-1.6,0.6-2.5,0.6s-1.7-0.3-2.5-0.8c-0.8-0.5-1.3-1.3-1.6-2
	C157.5,700,157.5,698.8,158,697.7z"/>
<path class="st3" d="M70.5,688.2c0.5-1.1,1.4-1.9,2.5-2.4c0.8-0.3,1.7-0.3,2.5-0.2c0.8,0.2,1.6,0.6,2.2,1.3c0.6,0.6,0.9,1.4,1.1,2.4
	c0.2,0.9,0,1.7-0.3,2.5c-0.3,0.8-0.9,1.4-1.7,1.9c-0.8,0.5-1.6,0.6-2.5,0.6s-1.7-0.3-2.5-0.8c-0.8-0.5-1.3-1.3-1.6-2
	C69.9,690.6,70,689.3,70.5,688.2z"/>
<path class="st3" d="M153.4,803.1c0.5-1.1,1.4-1.9,2.5-2.4c0.8-0.3,1.7-0.3,2.5-0.2c0.8,0.2,1.6,0.6,2.2,1.3
	c0.6,0.6,0.9,1.4,1.1,2.4s0,1.7-0.3,2.5c-0.3,0.8-0.9,1.4-1.7,1.9s-1.6,0.6-2.5,0.6c-0.9,0-1.7-0.3-2.5-0.8c-0.8-0.5-1.3-1.3-1.6-2
	C152.8,805.3,152.8,804,153.4,803.1z"/>
<path class="st3" d="M287,608.8c0.5-1.1,1.4-1.9,2.5-2.4c0.8-0.3,1.7-0.3,2.5-0.2c0.8,0.2,1.6,0.6,2.2,1.3c0.6,0.6,0.9,1.4,1.1,2.4
	c0.2,0.9,0,1.7-0.3,2.5c-0.3,0.8-0.9,1.4-1.7,1.9s-1.6,0.6-2.5,0.6s-1.7-0.3-2.5-0.8s-1.3-1.3-1.6-2
	C286.6,611,286.6,609.7,287,608.8z"/>
<path class="st3" d="M411.1,537.7c0.5-1.1,1.4-1.9,2.5-2.4c0.8-0.3,1.7-0.3,2.5-0.2c0.8,0.2,1.6,0.6,2.2,1.3
	c0.6,0.6,0.9,1.4,1.1,2.4c0.2,0.9,0,1.7-0.3,2.5s-0.9,1.4-1.7,1.9s-1.6,0.6-2.5,0.6s-1.7-0.3-2.5-0.8s-1.3-1.3-1.6-2
	C410.6,539.9,410.6,538.7,411.1,537.7z"/>
<path class="st3" d="M393.6,649.1c0.5-1.1,1.4-1.9,2.5-2.4c0.8-0.3,1.7-0.3,2.5-0.2c0.8,0.2,1.6,0.6,2.2,1.3
	c0.6,0.6,0.9,1.4,1.1,2.4c0.2,0.9,0,1.7-0.3,2.5c-0.3,0.8-0.9,1.4-1.7,1.9c-0.8,0.5-1.6,0.6-2.5,0.6c-0.9,0-1.7-0.3-2.5-0.8
	c-0.8-0.5-1.3-1.3-1.6-2C393.1,651.3,393.1,650.1,393.6,649.1z"/>
<path class="st3" d="M575.9,597.6c0.5-1.1,1.4-1.9,2.5-2.4c0.8-0.3,1.7-0.3,2.5-0.2c0.8,0.2,1.6,0.6,2.2,1.3
	c0.6,0.6,0.9,1.4,1.1,2.4c0.2,0.9,0,1.7-0.3,2.5c-0.3,0.8-0.9,1.4-1.7,1.9s-1.6,0.6-2.5,0.6s-1.7-0.3-2.5-0.8
	c-0.8-0.5-1.3-1.3-1.6-2C575.3,599.8,575.4,598.5,575.9,597.6z"/>
<path class="st3" d="M565,673.7c0.5-1.1,1.4-1.9,2.5-2.4c0.8-0.3,1.7-0.3,2.5-0.2c0.8,0.2,1.6,0.6,2.2,1.3c0.6,0.6,0.9,1.4,1.1,2.4
	c0.2,0.9,0,1.7-0.3,2.5c-0.3,0.8-0.9,1.4-1.7,1.9c-0.8,0.5-1.6,0.6-2.5,0.6s-1.7-0.3-2.5-0.8c-0.8-0.5-1.3-1.3-1.6-2
	C564.6,675.9,564.6,674.7,565,673.7z"/>
<path class="st3" d="M643.4,631.8c0.5-1.1,1.4-1.9,2.5-2.4c0.8-0.3,1.7-0.3,2.5-0.2c0.8,0.2,1.6,0.6,2.2,1.3
	c0.6,0.6,0.9,1.4,1.1,2.4c0.2,0.9,0,1.7-0.3,2.5c-0.3,0.8-0.9,1.4-1.7,1.9c-0.8,0.5-1.6,0.6-2.5,0.6s-1.7-0.3-2.5-0.8
	c-0.8-0.5-1.3-1.3-1.6-2C642.9,634.2,642.9,632.9,643.4,631.8z"/>
<path class="st3" d="M620.5,568.1c0.5-1.1,1.4-1.9,2.5-2.4c0.8-0.3,1.7-0.3,2.5-0.2c0.8,0.2,1.6,0.6,2.2,1.3
	c0.6,0.6,0.9,1.4,1.1,2.4c0.2,0.9,0,1.7-0.3,2.5c-0.3,0.8-0.9,1.4-1.7,1.9c-0.8,0.5-1.6,0.6-2.5,0.6c-0.9,0-1.7-0.3-2.5-0.8
	s-1.3-1.3-1.6-2C620,570.5,620,569.2,620.5,568.1z"/>
<path class="st3" d="M516.2,543.4c0.5-1.1,1.4-1.9,2.5-2.4c0.8-0.3,1.7-0.3,2.5-0.2c0.8,0.2,1.6,0.6,2.2,1.3
	c0.6,0.6,0.9,1.4,1.1,2.4c0.2,0.9,0,1.7-0.3,2.5c-0.3,0.8-0.9,1.4-1.7,1.9s-1.6,0.6-2.5,0.6c-0.9,0-1.7-0.3-2.5-0.8
	c-0.8-0.5-1.3-1.3-1.6-2C515.7,545.7,515.7,544.5,516.2,543.4z"/>
<path class="st3" d="M640.5,527.6c0.5-1.1,1.4-1.9,2.5-2.4c0.8-0.3,1.7-0.3,2.5-0.2c0.8,0.2,1.6,0.6,2.2,1.3
	c0.6,0.6,0.9,1.4,1.1,2.4c0.2,0.9,0,1.7-0.3,2.5c-0.3,0.8-0.9,1.4-1.7,1.9c-0.8,0.5-1.6,0.6-2.5,0.6s-1.7-0.3-2.5-0.8
	c-0.8-0.5-1.3-1.3-1.6-2C639.9,529.8,640,528.6,640.5,527.6z"/>
<path class="st3" d="M704.2,578.8c0.5-1.1,1.4-1.9,2.5-2.4c0.8-0.3,1.7-0.3,2.5-0.2c0.8,0.2,1.6,0.6,2.2,1.3
	c0.6,0.6,0.9,1.4,1.1,2.4c0.2,0.9,0,1.7-0.3,2.5c-0.3,0.8-0.9,1.4-1.7,1.9c-0.8,0.5-1.6,0.6-2.5,0.6c-0.9,0-1.7-0.3-2.5-0.8
	c-0.8-0.5-1.3-1.3-1.6-2C703.6,581.2,703.7,579.9,704.2,578.8z"/>
<path class="st3" d="M690.8,594.8c0.5-1.1,1.4-1.9,2.5-2.4c0.8-0.3,1.7-0.3,2.5-0.2c0.8,0.2,1.6,0.6,2.2,1.3
	c0.6,0.6,0.9,1.4,1.1,2.4c0.2,0.9,0,1.7-0.3,2.5c-0.3,0.8-0.9,1.4-1.7,1.9c-0.8,0.5-1.6,0.6-2.5,0.6c-0.9,0-1.7-0.3-2.5-0.8
	c-0.8-0.5-1.3-1.3-1.6-2C690.2,597,690.2,595.7,690.8,594.8z"/>
<path class="st3" d="M722.9,557.3c0.5-1.1,1.4-1.9,2.5-2.4c0.8-0.3,1.7-0.3,2.5-0.2c0.8,0.2,1.6,0.6,2.2,1.3
	c0.6,0.6,0.9,1.4,1.1,2.4c0.2,0.9,0,1.7-0.3,2.5c-0.3,0.8-0.9,1.4-1.7,1.9c-0.8,0.5-1.6,0.6-2.5,0.6c-0.9,0-1.7-0.3-2.5-0.8
	c-0.8-0.5-1.3-1.3-1.6-2C722.5,559.6,722.5,558.4,722.9,557.3z"/>
<path class="st3" d="M744.2,586.4c0.5-1.1,1.4-1.9,2.5-2.4c0.8-0.3,1.7-0.3,2.5-0.2s1.6,0.6,2.2,1.3s0.9,1.4,1.1,2.4
	c0.2,0.9,0,1.7-0.3,2.5c-0.3,0.8-0.9,1.4-1.7,1.9s-1.6,0.6-2.5,0.6s-1.7-0.3-2.5-0.8c-0.8-0.5-1.3-1.3-1.6-2
	C743.6,588.8,743.7,587.5,744.2,586.4z"/>
<path class="st3" d="M915.5,605.5c0-0.6,0.2-1.1,0.5-1.7c0.3-0.5,0.6-0.9,0.9-1.4c0.5-0.5,0.9-0.6,1.4-0.9c0.8-0.3,1.7-0.3,2.5-0.2
	c0.8,0.2,1.6,0.6,2.2,1.3c0.6,0.6,0.9,1.4,1.1,2.4c0.2,0.9,0,1.7-0.3,2.5c-0.3,0.8-0.9,1.4-1.7,1.9c-0.8,0.5-1.6,0.6-2.5,0.6
	s-1.7-0.3-2.5-0.8c-0.8-0.5-1.3-1.3-1.6-2C915.7,606.6,915.5,605.9,915.5,605.5z"/>
<path class="st3" d="M903.1,551.9c0-0.6,0.2-1.1,0.5-1.7c0.3-0.5,0.6-0.9,0.9-1.4c0.3-0.5,0.9-0.6,1.4-0.9c0.8-0.3,1.7-0.3,2.5-0.2
	c0.8,0.2,1.6,0.6,2.2,1.3c0.6,0.6,0.9,1.4,1.1,2.4c0.2,0.9,0,1.7-0.3,2.5c-0.3,0.8-0.9,1.4-1.7,1.9c-0.8,0.5-1.6,0.6-2.5,0.6
	s-1.7-0.3-2.5-0.8c-0.8-0.5-1.3-1.3-1.6-2C903.2,553,903.1,552.5,903.1,551.9z"/>
<path class="st3" d="M770.1,450.6c0-0.6,0.2-1.1,0.5-1.7c0.3-0.5,0.6-0.9,0.9-1.4c0.5-0.5,0.9-0.6,1.4-0.9c0.8-0.3,1.7-0.3,2.5-0.2
	c0.8,0.2,1.6,0.6,2.2,1.3c0.6,0.6,0.9,1.4,1.1,2.4c0.2,0.9,0,1.7-0.3,2.5c-0.3,0.8-0.9,1.4-1.7,1.9c-0.8,0.5-1.6,0.6-2.5,0.6
	s-1.7-0.3-2.5-0.8c-0.8-0.5-1.3-1.3-1.6-2C770.1,451.8,770.1,451.2,770.1,450.6z"/>
<path class="st3" d="M742,639c0.5-1.1,1.4-1.9,2.5-2.4c0.8-0.3,1.7-0.3,2.5-0.2c0.8,0.2,1.6,0.6,2.2,1.3c0.6,0.6,0.9,1.4,1.1,2.4
	c0.2,0.9,0,1.7-0.3,2.5c-0.3,0.8-0.9,1.4-1.7,1.9c-0.8,0.5-1.6,0.6-2.5,0.6c-0.9,0-1.7-0.3-2.5-0.8s-1.3-1.3-1.6-2
	C741.5,641.2,741.5,640,742,639z"/>
<path class="st3" d="M778.6,670.4c0.5-1.1,1.4-1.9,2.5-2.4c0.8-0.3,1.7-0.3,2.5-0.2c0.8,0.2,1.6,0.6,2.2,1.3
	c0.6,0.6,0.9,1.4,1.1,2.4c0.2,0.9,0,1.7-0.3,2.5c-0.3,0.8-0.9,1.4-1.7,1.9s-1.6,0.6-2.5,0.6c-0.9,0-1.7-0.3-2.5-0.8
	c-0.8-0.5-1.3-1.3-1.6-2C778.1,672.8,778.1,671.5,778.6,670.4z"/>
<path class="st0" d="M668.1,488.4l83.4,51.4"/>
</svg>
