<?xml version="1.0" encoding="utf-8"?>
<!-- Generator: Adobe Illustrator 25.0.1, SVG Export Plug-In . SVG Version: 6.00 Build 0)  -->
<svg version="1.1" id="Ebene_1" xmlns="http://www.w3.org/2000/svg" xmlns:xlink="http://www.w3.org/1999/xlink" x="0px" y="0px"
	 viewBox="0 0 3968.5 1417.3" style="enable-background:new 0 0 3968.5 1417.3;" xml:space="preserve">
<style type="text/css">
	.st0{fill:#FFFFFF;}
</style>
<g>
	<g>
		<path class="st0" d="M786.2,1284.9c-153.1,25.6-247.6-4.5-357.1-39.3c-13.7-4.4-27.9-8.9-42.3-13.3l-482.7-165.6l1.5-4.3
			L388.2,1228c14.3,4.4,28.5,8.9,42.2,13.3c108.9,34.6,203,64.6,355,39.1c113.8-19,215.5-162.6,313.8-301.4
			c89.3-126.1,173.7-245.2,263.2-268.4c148.1-38.3,286.2-0.5,419.8,36c113.8,31.2,231.5,63.4,352.8,46.6
			c133.6-18.5,200.6-88.4,285.2-177.1c82.4-86.2,175.8-184,358.1-267.4l0.3-0.1c114.4-31.4,226.6-34.6,335.2-37.7
			c117.9-3.3,229.2-6.5,343.4-42.6l0.2-0.1c185.2-38.2,251.1-76.3,469.3-202.5c23.9-13.8,49.6-28.7,77.5-44.7l0.4-0.2
			c200.8-73.1,350.1-81.5,406.7-74.9l-0.5,4.5c-56.2-6.5-204.6,1.9-404.5,74.6c-27.8,16-53.5,30.8-77.3,44.6
			c-218.7,126.5-284.7,164.6-470.6,203c-114.7,36.3-226.3,39.4-344.5,42.8c-108.2,3.1-220.1,6.2-333.9,37.5
			c-181.4,83-274.5,180.4-356.6,266.3c-85.3,89.3-152.6,159.8-287.9,178.4c-122.2,16.9-240.3-15.5-354.6-46.7
			c-133-36.4-270.5-74.1-417.5-36c-87.9,22.8-171.8,141.2-260.7,266.6C1004.1,1121.2,901.9,1265.5,786.2,1284.9z"/>
	</g>
	<g>
		<path class="st0" d="M665.5,1330.3c-153.1,25.6-247.6-4.5-357.1-39.3c-13.7-4.4-27.9-8.9-42.3-13.3l-316.4-123.6l1.6-4.2
			l316.3,123.5c14.2,4.4,28.4,8.9,42.1,13.2c108.9,34.6,203,64.6,355,39.1c113.8-19,215.5-162.6,313.8-301.4
			c89.3-126.1,173.7-245.2,263.2-268.4c148.1-38.3,286.2-0.5,419.8,36c113.8,31.2,231.5,63.4,352.8,46.6
			c142.9-19.7,216.2-92.2,308.8-183.8c76.6-75.8,171.9-170.1,334.4-260.5c79.4-44.2,227-47.4,369.7-50.6
			c120.1-2.6,233.5-5.2,309.3-29.9c180.7-59.1,378.9-133,603.5-272.7l0.2-0.1c73.6-34.7,200.9-63.5,247.6-71.3l0.7,4.5
			c-46.6,7.8-173.2,36.5-246.3,70.9C3717.4,184.9,3518.9,259,3338,318.1c-76.5,25-190.2,27.5-310.6,30.2
			c-142.2,3.1-289.1,6.4-367.6,50c-162,90.1-257,184.2-333.4,259.8c-93.2,92.3-166.9,165.1-311.4,185.1
			c-122.2,16.9-240.3-15.5-354.6-46.7c-133-36.4-270.5-74-417.5-36c-87.9,22.8-171.8,141.2-260.7,266.6
			C883.4,1166.7,781.1,1311,665.5,1330.3z"/>
	</g>
	<g>
		<path class="st0" d="M538.4,1365.3c-153.1,25.6-247.6-4.5-357.1-39.3c-13.7-4.4-27.9-8.9-42.3-13.3l-169.5-54.1l1.4-4.3
			l169.5,54.1c14.4,4.4,28.6,8.9,42.3,13.3c108.9,34.6,203,64.6,355,39.1c113.8-19,215.5-162.6,313.8-301.4
			c89.3-126.1,173.7-245.2,263.2-268.4c148.1-38.3,286.2-0.5,419.8,36c113.8,31.2,231.5,63.4,352.8,46.6
			c142.9-19.7,216.1-92.2,308.8-183.8c76.6-75.8,171.9-170.1,334.4-260.5c85.3-47.5,245.4-52.4,400.2-57.2
			c107.2-3.3,208.4-6.4,278.9-23.4c193.5-46.5,330.6-113.9,603.6-248.2l33.4-16.4c146.7-72.1,226.2-89.5,310.3-108
			c23.7-5.2,48.2-10.6,74.8-17.3l1.1,4.4c-26.7,6.7-51.2,12.1-74.9,17.3C4074.1-1,3994.8,16.4,3848.7,88.2l-33.4,16.4
			c-273.3,134.4-410.5,201.9-604.5,248.5c-71,17.1-172.4,20.2-279.9,23.5c-154.3,4.8-313.8,9.7-398.2,56.6
			c-162,90.1-257,184.2-333.4,259.8c-93.2,92.3-166.9,165.1-311.4,185.1c-122.2,16.9-240.3-15.5-354.6-46.7
			c-133-36.4-270.5-74-417.5-36C1028,818.2,944,936.7,855.2,1062.1C756.3,1201.7,654.1,1346,538.4,1365.3z"/>
	</g>
	<g>
		<path class="st0" d="M390.8,1407.2c-153.9,25.8-257.4-7.1-366.9-41.8c-13.3-4.2-27.1-8.6-40.9-12.8l1.3-4.3
			c13.8,4.2,27.6,8.6,40.9,12.8c109,34.6,212,67.2,364.8,41.6c113.8-19,215.5-162.6,313.8-301.4C793.2,975.3,877.6,856.2,967,833
			c148.1-38.3,286.2-0.5,419.8,36c113.8,31.2,231.5,63.4,352.8,46.6c143-19.7,216.1-92.2,308.8-183.8
			c76.6-75.8,171.9-170.1,334.4-260.5c85.3-47.5,245.4-52.4,400.2-57.2c107.2-3.3,208.4-6.4,278.9-23.4
			c193.5-46.5,330.6-113.9,603.6-248.2l33.4-16.4c159.6-78.5,308.6-114.2,428.3-143c20.5-4.9,39.8-9.6,58-14.1l1.1,4.4
			c-18.2,4.6-37.6,9.2-58.1,14.2c-119.5,28.7-268.3,64.4-427.4,142.6l-33.4,16.4c-273.3,134.4-410.5,201.9-604.5,248.5
			c-71,17.1-172.4,20.2-279.9,23.5c-154.3,4.8-313.8,9.7-398.2,56.6c-162,90.1-257,184.2-333.4,259.8
			c-93.2,92.3-166.9,165.1-311.4,185.1c-122.2,16.9-240.3-15.5-354.6-46.7c-133-36.4-270.5-74-417.5-36
			c-87.9,22.8-171.8,141.2-260.7,266.6C608.6,1243.6,506.4,1387.9,390.8,1407.2z"/>
	</g>
</g>
</svg>
