<svg width="394" height="363" viewBox="0 0 394 363" fill="none" xmlns="http://www.w3.org/2000/svg">
<path d="M349.614 270.994C329.553 269.514 350.358 266.537 368.921 264.313C387.485 262.089 302.756 261.335 302.012 252.412C301.268 243.489 367.433 246.466 368.921 236.808C370.41 227.15 318.36 215.985 313.159 215.24C307.958 214.496 315.392 212.263 331.005 204.837C346.618 197.412 262.607 192.202 262.607 192.202C262.607 192.202 209.159 189.27 196.968 194.925V350.248H193.11C192.094 357.129 191.413 359.144 196.469 360.188C206.073 362.149 253.72 357.955 286.426 357.211C319.132 356.466 247.021 351.265 232.869 348.288C218.718 345.31 267.817 346.055 282.659 342.351C297.501 338.647 276.713 338.629 270.023 331.168C263.333 323.706 325.786 318.532 333.964 316.308C342.143 314.084 317.625 310.353 310.917 302.919C304.209 295.484 370.392 292.507 388.229 285.817C406.066 279.127 369.702 272.464 349.614 270.994Z" fill="#BB2C75"/>
<path d="M105.078 183.705C96.8353 182.335 98.678 185.076 91.8064 181.409C91.8064 181.409 84.4901 177.297 77.5822 178.205C70.6743 179.112 67.0524 181.409 60.1899 182.335C53.3274 183.261 49.2062 181.872 39.6114 182.789C30.0166 183.705 24.9696 184.604 19.4687 185.512C13.9678 186.42 6.19751 187.799 6.19751 187.799H116.942C116.942 187.799 113.32 185.076 105.078 183.705Z" fill="#BB2C75"/>
<path d="M348.116 168.138C339.874 166.767 341.698 169.508 334.845 165.85C334.845 165.85 327.519 161.738 320.621 162.655C313.722 163.572 310.091 165.85 303.228 166.712C296.366 167.575 292.245 166.259 282.641 167.175C273.037 168.092 267.999 168.991 262.507 169.899C257.015 170.806 249.236 172.195 249.236 172.195H359.98C359.98 172.195 356.34 169.508 348.116 168.138Z" fill="#BB2C75"/>
<path d="M112.485 309.672C104.252 308.302 106.085 311.043 99.2136 307.376C99.2136 307.376 91.8972 303.255 84.9893 304.172C78.0814 305.088 74.4686 307.376 67.597 308.302C60.7254 309.228 56.6134 307.83 47.0186 308.756C37.4238 309.682 32.3767 310.571 26.8758 311.479C21.3749 312.387 13.6682 313.766 13.6682 313.766H124.412C124.412 313.766 120.763 311.043 112.485 309.672Z" fill="#BB2C75"/>
<path d="M92.1879 261.934C85.9765 260.357 79.6781 259.145 73.325 258.303C64.3203 257.096 60.4714 258.902 54.0174 257.695C47.5634 256.488 44.1594 253.483 37.7598 252.249C31.3602 251.014 24.4977 256.506 24.4977 256.506C18.0618 261.326 19.7775 257.704 12.0708 259.556C4.36405 261.408 0.896484 264.903 0.896484 264.903H104.615C104.615 264.903 97.3348 263.133 92.1879 261.934Z" fill="#BB2C75"/>
<path d="M154.304 348.215C150.214 347.197 146.068 346.418 141.887 345.882C135.968 345.083 133.436 346.272 129.178 345.483C124.921 344.693 122.688 342.705 118.458 341.915C114.228 341.126 109.725 344.693 109.725 344.693C105.495 347.861 106.621 345.483 101.556 346.672C96.4905 347.861 94.2302 350.239 94.2302 350.239H162.356C162.356 350.239 157.618 348.959 154.304 348.215Z" fill="#BB2C75"/>
<path d="M199.555 358.59C193.628 357.792 191.095 358.981 186.847 358.191C182.599 357.401 180.347 355.413 176.126 354.624C171.905 353.834 167.385 357.401 167.385 357.401C163.155 360.569 164.335 358.191 159.215 359.38C154.096 360.569 151.89 362.948 151.89 362.948H220.106C220.106 362.948 215.304 361.758 211.937 360.969C207.859 359.936 203.725 359.141 199.555 358.59Z" fill="#BB2C75"/>
<path d="M330.697 335.643C324.787 334.844 322.246 336.033 317.988 335.243C313.731 334.454 311.507 332.466 307.277 331.676C303.047 330.886 298.544 334.454 298.544 334.454C294.314 337.622 295.44 335.243 290.375 336.433C285.31 337.622 283.049 340 283.049 340H351.284L343.114 337.967C339.024 336.952 334.877 336.176 330.697 335.643Z" fill="#BB2C75"/>
<path d="M196.968 187.817H302.32C302.32 187.817 298.689 185.094 290.429 183.76C282.169 182.425 284.02 185.13 277.158 181.463C277.158 181.463 269.832 177.342 262.934 178.259C256.035 179.176 252.404 181.463 245.55 182.38C238.697 183.297 234.567 181.926 224.954 182.843C215.341 183.76 210.312 184.658 204.82 185.566C202.342 185.975 199.374 186.474 196.932 186.91L196.968 187.817Z" fill="#BB2C75"/>
<path d="M355.478 184.468C350.939 184.904 348.543 185.33 345.937 185.766C343.332 186.202 339.656 186.855 339.656 186.855H392.132C390.414 185.803 388.487 185.137 386.486 184.904C382.583 184.25 383.436 185.557 380.195 183.814C380.195 183.814 376.737 181.863 373.487 182.298C370.238 182.734 368.504 183.814 365.254 184.25C362.004 184.686 360.053 184.032 355.478 184.468Z" fill="#BB2C75"/>
<path d="M86.8322 250.778C86.8322 250.778 83.3737 248.827 80.124 249.253C76.8743 249.68 75.1314 250.778 71.8817 251.205C68.632 251.632 66.6804 250.987 62.1235 251.423C57.5666 251.858 55.1974 252.33 52.5922 252.73L46.2834 253.801H98.7508C97.0353 252.75 95.1119 252.084 93.1137 251.849C89.2649 251.205 90.091 252.503 86.8322 250.778Z" fill="#BB2C75"/>
<path d="M93.8034 204.946C89.9001 204.302 90.7624 205.6 87.5309 203.866C87.5309 203.866 84.0542 201.914 80.8136 202.35C77.573 202.786 75.821 203.866 72.5713 204.302C69.3216 204.738 67.37 204.075 62.8131 204.511C58.2563 204.946 55.8871 205.418 53.2818 205.818C50.6766 206.217 46.9912 206.898 46.9912 206.898H99.4223C97.7121 205.85 95.7952 205.184 93.8034 204.946Z" fill="#BB2C75"/>
<g opacity="0.8">
<path opacity="0.8" d="M349.614 270.994C329.553 269.514 350.358 266.537 368.921 264.313C387.485 262.089 302.756 261.335 302.012 252.412C301.268 243.489 367.433 246.466 368.921 236.808C370.41 227.15 318.36 215.985 313.159 215.24C307.958 214.496 315.392 212.263 331.005 204.837C346.618 197.412 262.607 192.202 262.607 192.202C262.607 192.202 209.159 189.27 196.968 194.925V350.248H193.11C192.094 357.129 191.413 359.144 196.469 360.188C206.073 362.149 253.72 357.955 286.426 357.211C319.132 356.466 247.021 351.265 232.869 348.288C218.718 345.31 267.817 346.055 282.659 342.351C297.501 338.647 276.713 338.629 270.023 331.168C263.333 323.706 325.786 318.532 333.964 316.308C342.143 314.084 317.625 310.353 310.917 302.919C304.209 295.484 370.392 292.507 388.229 285.817C406.066 279.127 369.702 272.464 349.614 270.994Z" fill="white"/>
<path opacity="0.8" d="M105.078 183.705C96.8353 182.335 98.678 185.076 91.8064 181.409C91.8064 181.409 84.4901 177.297 77.5822 178.205C70.6743 179.112 67.0524 181.409 60.1899 182.335C53.3274 183.261 49.2062 181.872 39.6114 182.789C30.0166 183.705 24.9696 184.604 19.4687 185.512C13.9678 186.42 6.19751 187.799 6.19751 187.799H116.942C116.942 187.799 113.32 185.076 105.078 183.705Z" fill="white"/>
<path opacity="0.8" d="M348.116 168.138C339.874 166.767 341.698 169.508 334.845 165.85C334.845 165.85 327.519 161.738 320.621 162.655C313.722 163.572 310.091 165.85 303.228 166.712C296.366 167.575 292.245 166.259 282.641 167.175C273.037 168.092 267.999 168.991 262.507 169.899C257.015 170.806 249.236 172.195 249.236 172.195H359.98C359.98 172.195 356.34 169.508 348.116 168.138Z" fill="white"/>
<path opacity="0.8" d="M112.485 309.672C104.252 308.302 106.085 311.043 99.2136 307.376C99.2136 307.376 91.8972 303.255 84.9893 304.172C78.0814 305.088 74.4686 307.376 67.597 308.302C60.7254 309.228 56.6134 307.83 47.0186 308.756C37.4238 309.682 32.3767 310.571 26.8758 311.479C21.3749 312.387 13.6682 313.766 13.6682 313.766H124.412C124.412 313.766 120.763 311.043 112.485 309.672Z" fill="white"/>
<path opacity="0.8" d="M92.1879 261.934C85.9765 260.357 79.6781 259.145 73.325 258.303C64.3203 257.096 60.4714 258.902 54.0174 257.695C47.5634 256.488 44.1594 253.483 37.7598 252.249C31.3602 251.014 24.4977 256.506 24.4977 256.506C18.0618 261.326 19.7775 257.704 12.0708 259.556C4.36405 261.408 0.896484 264.903 0.896484 264.903H104.615C104.615 264.903 97.3348 263.133 92.1879 261.934Z" fill="white"/>
<path opacity="0.8" d="M154.304 348.215C150.214 347.197 146.068 346.418 141.887 345.882C135.968 345.083 133.436 346.272 129.178 345.483C124.921 344.693 122.688 342.705 118.458 341.915C114.228 341.126 109.725 344.693 109.725 344.693C105.495 347.861 106.621 345.483 101.556 346.672C96.4905 347.861 94.2302 350.239 94.2302 350.239H162.356C162.356 350.239 157.618 348.959 154.304 348.215Z" fill="white"/>
<path opacity="0.8" d="M199.555 358.59C193.628 357.792 191.095 358.981 186.847 358.191C182.599 357.401 180.347 355.413 176.126 354.624C171.905 353.834 167.385 357.401 167.385 357.401C163.155 360.569 164.335 358.191 159.215 359.38C154.096 360.569 151.89 362.948 151.89 362.948H220.106C220.106 362.948 215.304 361.758 211.937 360.969C207.859 359.936 203.725 359.141 199.555 358.59Z" fill="white"/>
<path opacity="0.8" d="M330.697 335.643C324.787 334.844 322.246 336.033 317.988 335.243C313.731 334.454 311.507 332.466 307.277 331.676C303.047 330.886 298.544 334.454 298.544 334.454C294.314 337.622 295.44 335.243 290.375 336.433C285.31 337.622 283.049 340 283.049 340H351.284L343.114 337.967C339.024 336.952 334.877 336.176 330.697 335.643Z" fill="white"/>
<path opacity="0.8" d="M196.968 187.817H302.32C302.32 187.817 298.689 185.094 290.429 183.76C282.169 182.425 284.02 185.13 277.158 181.463C277.158 181.463 269.832 177.342 262.934 178.259C256.035 179.176 252.404 181.463 245.55 182.38C238.697 183.297 234.567 181.926 224.954 182.843C215.341 183.76 210.312 184.658 204.82 185.566C202.342 185.975 199.374 186.474 196.932 186.91L196.968 187.817Z" fill="white"/>
<path opacity="0.8" d="M355.478 184.468C350.939 184.904 348.543 185.33 345.937 185.766C343.332 186.202 339.656 186.855 339.656 186.855H392.132C390.414 185.803 388.487 185.137 386.486 184.904C382.583 184.25 383.436 185.557 380.195 183.814C380.195 183.814 376.737 181.863 373.487 182.298C370.238 182.734 368.504 183.814 365.254 184.25C362.004 184.686 360.053 184.032 355.478 184.468Z" fill="white"/>
<path opacity="0.8" d="M86.8322 250.778C86.8322 250.778 83.3737 248.827 80.124 249.253C76.8743 249.68 75.1314 250.778 71.8817 251.205C68.632 251.632 66.6804 250.987 62.1235 251.423C57.5666 251.858 55.1974 252.33 52.5922 252.73L46.2834 253.801H98.7508C97.0353 252.75 95.1119 252.084 93.1137 251.849C89.2649 251.205 90.091 252.503 86.8322 250.778Z" fill="white"/>
<path opacity="0.8" d="M93.8034 204.946C89.9001 204.302 90.7624 205.6 87.5309 203.866C87.5309 203.866 84.0542 201.914 80.8136 202.35C77.573 202.786 75.821 203.866 72.5713 204.302C69.3216 204.738 67.37 204.075 62.8131 204.511C58.2563 204.946 55.8871 205.418 53.2818 205.818C50.6766 206.217 46.9912 206.898 46.9912 206.898H99.4223C97.7121 205.85 95.7952 205.184 93.8034 204.946Z" fill="white"/>
</g>
<path d="M343.65 151.117C343.573 150.593 343.371 150.094 343.06 149.665L341.979 148.222C342.656 148.455 343.37 148.56 344.085 148.53C345.208 148.61 346.311 148.868 347.353 149.293C347.353 149.293 346.291 147.477 344.948 147.35C343.902 147.269 342.852 147.269 341.807 147.35C342.257 146.937 342.777 146.605 343.341 146.37C344.585 145.771 344.993 145.998 344.993 145.998H346.21C346.119 145.607 345.902 145.256 345.592 145.002C345.281 144.747 344.895 144.603 344.494 144.591C343.141 144.636 341.571 146.924 341.571 146.924C341.571 146.924 342.143 146.161 341.271 144.001C340.807 142.744 339.873 141.716 338.666 141.132C339.032 142.442 339.481 143.728 340.01 144.981C340.358 145.628 340.662 146.298 340.917 146.987C340.588 146.77 340.242 146.579 339.883 146.415C337.695 141.277 333.864 134.306 328.391 131.501L327.374 130.14C328.045 130.37 328.753 130.472 329.462 130.439C330.584 130.519 331.687 130.776 332.73 131.202C332.73 131.202 331.677 129.386 330.324 129.25C329.281 129.177 328.235 129.177 327.192 129.25C327.646 128.839 328.169 128.51 328.736 128.279C329.97 127.67 330.369 127.906 330.369 127.906H331.604C331.516 127.514 331.299 127.161 330.988 126.905C330.678 126.649 330.291 126.503 329.888 126.49C328.527 126.536 326.956 128.832 326.956 128.832C326.956 128.832 327.528 128.061 326.657 125.909C326.196 124.647 325.257 123.616 324.043 123.041C324.405 124.34 324.853 125.614 325.386 126.853C325.731 127.502 326.034 128.172 326.294 128.86C325.493 128.323 324.574 127.99 323.616 127.888C322.632 128.095 321.703 128.51 320.893 129.105C321.738 129.554 322.663 129.831 323.616 129.922C325.105 130.049 326.539 130.076 326.539 130.076C326.303 130.212 326.058 130.366 325.831 130.53C325.54 130.466 325.25 130.403 324.923 130.357C319.186 129.54 314.675 130.566 310.69 131.338C309.694 130.702 308.643 130.158 307.549 129.713C307.549 129.713 310.163 129.613 312.796 129.368C314.44 129.202 316.051 128.799 317.579 128.17C316.16 127.233 314.496 126.734 312.796 126.734C311.095 126.734 309.431 127.233 308.012 128.17C308.504 127.253 309.062 126.373 309.682 125.537C310.689 123.932 311.57 122.251 312.315 120.508C310.333 121.209 308.647 122.559 307.531 124.339C305.851 127.208 306.814 128.17 306.814 128.17C306.814 128.17 304.081 125.301 301.676 125.301C301.021 125.276 300.373 125.448 299.818 125.796C299.262 126.145 298.825 126.652 298.562 127.253H300.714C300.714 127.253 301.44 126.926 303.591 127.652C304.528 127.892 305.422 128.275 306.242 128.787C304.398 128.733 302.553 128.778 300.714 128.923C299.89 129.033 299.102 129.328 298.408 129.785C291.5 124.911 285.418 110.569 266.701 105.885C247.057 101.019 217.002 129.486 198.765 133.725C181.518 137.574 143.302 127.434 113.592 134.724C112.828 134.413 112.019 134.226 111.196 134.17C109.931 134.31 108.701 134.676 107.565 135.25C107.94 134.575 108.362 133.925 108.826 133.308C109.575 132.093 110.228 130.821 110.778 129.504C109.266 130.029 107.983 131.062 107.147 132.427C105.876 134.597 106.603 135.35 106.603 135.35C106.603 135.35 104.651 133.18 102.799 133.18C102.307 133.158 101.819 133.285 101.399 133.544C100.98 133.803 100.648 134.182 100.448 134.633H102.073C102.073 134.633 102.627 134.388 104.251 134.932C104.958 135.11 105.632 135.398 106.249 135.786C104.856 135.749 103.462 135.786 102.073 135.895C100.784 136.155 99.6196 136.843 98.7687 137.846C100.195 137.38 101.668 137.076 103.162 136.938C104.113 136.946 105.06 136.821 105.976 136.566L105.232 137.283C101.174 138.636 97.6341 139.861 94.5114 140.996C95.7993 141.165 96.976 141.813 97.8065 142.812C99.3678 144.582 99.0864 145.489 99.0864 145.489C99.0864 145.489 99.7945 142.812 101.038 142.303C101.42 142.183 101.831 142.193 102.207 142.331C102.583 142.469 102.903 142.727 103.117 143.066L101.991 143.52C101.991 143.52 101.528 143.429 100.566 144.427C100.112 144.83 99.7286 145.305 99.4314 145.834C100.382 145.409 101.362 145.051 102.363 144.763C103.68 144.445 105.286 145.744 105.286 145.744C104.16 145.693 103.032 145.822 101.946 146.125C101.288 146.39 100.586 146.532 99.8762 146.542L101.374 147.514C101.813 147.814 102.169 148.22 102.409 148.694L103.934 151.49C103.069 150.964 102.258 150.356 101.51 149.674C100.839 148.93 100.212 148.148 99.6311 147.332C99.343 148.587 98.9136 149.805 98.3512 150.963C97.8784 151.788 97.3085 152.553 96.6537 153.241C96.6705 151.827 96.9538 150.429 97.4888 149.12C97.9102 148.29 98.4249 147.51 99.0229 146.797C99.0229 146.797 97.625 147.269 96.1726 147.65C95.2584 147.878 94.3079 147.921 93.3768 147.777C93.9462 146.936 94.689 146.228 95.5553 145.698C96.498 145.471 97.4811 145.471 98.4238 145.698C97.9546 145.138 97.4513 144.608 96.9169 144.11C96.0015 143.125 95.1553 142.079 94.3844 140.978C88.3842 143.166 84.018 144.936 80.5867 146.343C80.0092 146.103 79.3955 145.962 78.7712 145.925C77.8219 146.026 76.899 146.3 76.048 146.733C76.3388 146.216 76.6632 145.719 77.0193 145.244C77.5915 144.337 78.0922 143.388 78.5171 142.403C77.386 142.79 76.4237 143.557 75.7938 144.573C74.8226 146.188 75.3854 146.733 75.3854 146.733C75.3854 146.733 73.8967 145.108 72.5532 145.108C72.1757 145.076 71.7977 145.163 71.4722 145.357C71.1466 145.551 70.8898 145.841 70.7377 146.188H72.0358C72.0358 146.188 72.4443 146.007 73.6607 146.415C74.1905 146.55 74.6959 146.768 75.1584 147.06C74.1168 147.032 73.0745 147.06 72.0358 147.141C71.0731 147.347 70.2034 147.86 69.5577 148.603C70.6241 148.259 71.7268 148.04 72.8437 147.949C73.555 147.958 74.264 147.867 74.9496 147.677L73.8331 148.757C73.7072 148.875 73.5973 149.01 73.5063 149.157C71.1202 150.045 68.626 150.61 66.0901 150.836C57.0853 151.653 43.1697 154.93 43.1697 154.93H345.311L344.094 154.022L343.65 151.117ZM77.9361 147.486L76.747 147.958C76.2568 147.713 75.9482 147.595 75.9482 147.595C75.9482 147.595 76.8559 147.595 77.9361 147.486ZM75.5397 148.14L75.7303 148.358L75.3763 148.494C75.4761 148.303 75.5397 148.14 75.5397 148.14ZM91.2526 149.22C90.7422 149.429 90.1972 149.539 89.646 149.547L90.8079 150.319C91.1428 150.553 91.4167 150.864 91.6067 151.226L92.7958 153.396C92.1227 152.993 91.493 152.521 90.9168 151.989C90.3899 151.417 89.9016 150.81 89.4553 150.173C89.2297 151.135 88.901 152.069 88.475 152.96C88.0993 153.596 87.6482 154.184 87.1315 154.712C87.1456 153.616 87.3642 152.532 87.776 151.517C88.1011 150.868 88.5002 150.259 88.9652 149.701C88.9652 149.701 87.8759 150.064 86.7684 150.364C86.0549 150.535 85.3151 150.565 84.5898 150.455C85.0483 149.821 85.6362 149.292 86.3146 148.902C87.0428 148.73 87.8012 148.73 88.5294 148.902C88.1658 148.469 87.7779 148.057 87.3675 147.668C86.6671 146.889 86.0153 146.067 85.4159 145.208C86.4504 145.316 87.4016 145.824 88.0665 146.624C89.2738 147.995 89.0468 148.712 89.0468 148.712C89.0468 148.712 89.6006 146.633 90.5809 146.234C90.88 146.141 91.2011 146.15 91.4948 146.258C91.7885 146.366 92.0383 146.568 92.2058 146.833L91.298 147.178C91.298 147.178 90.9349 147.114 90.1906 147.877C89.8288 148.186 89.5218 148.554 89.2829 148.966C90.025 148.637 90.7894 148.361 91.5704 148.14C92.5507 147.895 93.8216 148.912 93.8216 148.912C92.9355 148.884 92.0505 148.994 91.1982 149.238L91.2526 149.22ZM107.238 136.43H107.846L107.474 136.548L107.238 136.43ZM112.902 148.376C112.389 148.586 111.841 148.7 111.286 148.712L112.457 149.483C112.796 149.713 113.071 150.026 113.256 150.391L114.436 152.561C113.765 152.152 113.135 151.678 112.557 151.145C112.036 150.568 111.548 149.962 111.096 149.329C110.876 150.294 110.55 151.232 110.125 152.125C109.755 152.761 109.313 153.351 108.808 153.886C108.817 152.79 109.036 151.705 109.453 150.691C109.779 150.042 110.178 149.433 110.642 148.875C110.642 148.875 109.553 149.238 108.427 149.529C107.717 149.702 106.98 149.736 106.258 149.629C106.7 148.977 107.28 148.428 107.955 148.022C108.686 147.86 109.446 147.875 110.17 148.067C109.814 147.63 109.429 147.218 109.017 146.833C108.321 146.056 107.681 145.231 107.102 144.364C108.136 144.472 109.088 144.98 109.752 145.78C110.951 147.151 110.724 147.859 110.724 147.859C110.724 147.859 111.277 145.78 112.267 145.39C112.564 145.298 112.882 145.307 113.174 145.413C113.465 145.52 113.714 145.719 113.883 145.98L112.975 146.334C112.975 146.334 112.63 146.27 111.876 147.023C111.52 147.341 111.214 147.712 110.969 148.122C111.709 147.786 112.474 147.507 113.256 147.287C114.081 147.244 114.89 147.52 115.517 148.058C114.629 148.018 113.741 148.116 112.884 148.349L112.902 148.376ZM306.805 130.639C306.805 130.639 307.204 131.12 307.776 131.737C307.249 131.801 306.723 131.837 306.224 131.864C306.569 131.147 306.795 130.621 306.795 130.621L306.805 130.639ZM302.266 130.294C303.491 130.302 304.711 130.149 305.897 129.84L303.9 131.792L303.836 131.855C302.445 131.693 301.095 131.281 299.851 130.639C300.596 130.462 301.356 130.353 302.121 130.312L302.266 130.294ZM287.27 144.273C288.401 145.176 289.309 146.329 289.921 147.641C287.545 146.895 285.455 145.441 283.929 143.474C283.519 144.416 283.04 145.326 282.495 146.197C281.817 147.095 281.051 147.922 280.208 148.666L281.007 145.644C281.145 145.107 281.431 144.619 281.833 144.237L283.303 142.83C282.416 143.073 281.5 143.192 280.58 143.184C279.119 143.321 277.678 143.625 276.286 144.091C277.113 143.1 278.247 142.413 279.509 142.14C280.864 142.031 282.225 141.995 283.585 142.031C282.983 141.655 282.328 141.373 281.642 141.196C280.053 140.66 279.509 140.905 279.509 140.905H277.757C277.963 140.468 278.298 140.103 278.716 139.86C279.134 139.617 279.616 139.507 280.099 139.544C281.86 139.544 283.811 141.65 283.811 141.65C283.811 141.65 283.094 140.951 284.338 138.827C285.164 137.512 286.412 136.516 287.878 136.004C287.326 137.29 286.673 138.532 285.927 139.716C285.466 140.336 285.05 140.988 284.683 141.668C285.729 140.967 286.96 140.593 288.219 140.593C289.478 140.593 290.708 140.967 291.754 141.668C290.628 142.142 289.438 142.448 288.223 142.576C286.271 142.757 284.329 142.83 284.329 142.83C285.322 143.219 286.271 143.712 287.161 144.3L287.27 144.273ZM301.031 148.394C301.344 148.823 301.546 149.321 301.621 149.847L302.112 152.987C301.472 152.203 300.915 151.354 300.45 150.455C300.066 149.532 299.738 148.586 299.47 147.623C298.778 148.697 297.972 149.692 297.064 150.591C296.341 151.211 295.546 151.741 294.695 152.17C295.423 149.905 297.001 148.011 299.098 146.887C299.098 146.887 297.609 146.887 296.12 146.733C295.167 146.646 294.241 146.369 293.397 145.916C294.208 145.32 295.137 144.903 296.12 144.691C297.074 144.801 297.988 145.134 298.789 145.662C298.53 144.974 298.227 144.304 297.881 143.656C297.346 142.407 296.894 141.125 296.529 139.816C297.737 140.393 298.671 141.419 299.134 142.675C300.042 144.872 299.434 145.598 299.434 145.598C299.434 145.598 301.013 143.32 302.357 143.265C302.76 143.278 303.148 143.425 303.459 143.683C303.77 143.942 303.986 144.296 304.072 144.691H302.856C302.856 144.691 302.456 144.455 301.204 145.063C300.642 145.298 300.123 145.627 299.67 146.034C300.715 145.952 301.765 145.952 302.81 146.034C304.154 146.17 305.216 147.986 305.216 147.986C304.174 147.561 303.071 147.303 301.948 147.223C301.234 147.251 300.52 147.15 299.842 146.924L301.031 148.394ZM323.198 148.149C324.743 149.361 325.986 150.915 326.829 152.688C325.407 152.18 324.041 151.526 322.754 150.736C321.258 149.671 319.901 148.424 318.714 147.023C318.158 148.308 317.506 149.55 316.762 150.736C315.84 151.958 314.797 153.083 313.649 154.095L314.738 150.001C314.921 149.259 315.308 148.583 315.855 148.049L317.852 146.098C316.64 146.436 315.388 146.604 314.13 146.597C312.143 146.753 310.181 147.14 308.284 147.75C308.284 147.75 310.227 145.399 312.659 145.154C314.495 145.008 316.338 144.963 318.178 145.017C317.36 144.508 316.47 144.126 315.537 143.883C313.377 143.166 312.605 143.492 312.605 143.492H310.435C310.695 142.892 311.131 142.384 311.685 142.035C312.239 141.687 312.886 141.514 313.54 141.541C315.936 141.541 318.569 144.464 318.569 144.464C318.569 144.464 317.598 143.492 319.286 140.633C320.399 138.846 322.09 137.494 324.079 136.802C323.334 138.547 322.451 140.228 321.437 141.831C320.821 142.669 320.263 143.549 319.767 144.464C321.187 143.523 322.852 143.021 324.555 143.021C326.259 143.021 327.924 143.523 329.344 144.464C327.815 145.092 326.204 145.495 324.56 145.662C321.927 145.898 319.313 146.007 319.313 146.007C320.654 146.571 321.93 147.28 323.117 148.122L323.198 148.149ZM341.172 148.149L340.736 148.412C340.721 148.314 340.684 148.221 340.627 148.14L341.172 148.149ZM341.172 149.493L341.589 148.875C341.853 149.845 342.177 150.797 342.56 151.726C342.913 152.409 343.326 153.059 343.795 153.668L342.134 152.425C342.134 152.425 341.78 151.29 341.126 149.511L341.172 149.493Z" fill="#BB2C75"/>
<path opacity="0.4" d="M343.65 151.117C343.573 150.593 343.371 150.094 343.06 149.665L341.979 148.222C342.656 148.455 343.37 148.56 344.085 148.53C345.208 148.61 346.311 148.868 347.353 149.293C347.353 149.293 346.291 147.477 344.948 147.35C343.902 147.269 342.852 147.269 341.807 147.35C342.257 146.937 342.777 146.605 343.341 146.37C344.585 145.771 344.993 145.998 344.993 145.998H346.21C346.119 145.607 345.902 145.256 345.592 145.002C345.281 144.747 344.895 144.603 344.494 144.591C343.141 144.636 341.571 146.924 341.571 146.924C341.571 146.924 342.143 146.161 341.271 144.001C340.807 142.744 339.873 141.716 338.666 141.132C339.032 142.442 339.481 143.728 340.01 144.981C340.358 145.628 340.662 146.298 340.917 146.987C340.588 146.77 340.242 146.579 339.883 146.415C337.695 141.277 333.864 134.306 328.391 131.501L327.374 130.14C328.045 130.37 328.753 130.472 329.462 130.439C330.584 130.519 331.687 130.776 332.73 131.202C332.73 131.202 331.677 129.386 330.324 129.25C329.281 129.177 328.235 129.177 327.192 129.25C327.646 128.839 328.169 128.51 328.736 128.279C329.97 127.67 330.369 127.906 330.369 127.906H331.604C331.516 127.514 331.299 127.161 330.988 126.905C330.678 126.649 330.291 126.503 329.888 126.49C328.527 126.536 326.956 128.832 326.956 128.832C326.956 128.832 327.528 128.061 326.657 125.909C326.196 124.647 325.257 123.616 324.043 123.041C324.405 124.34 324.853 125.614 325.386 126.853C325.731 127.502 326.034 128.172 326.294 128.86C325.493 128.323 324.574 127.99 323.616 127.888C322.632 128.095 321.703 128.51 320.893 129.105C321.738 129.554 322.663 129.831 323.616 129.922C325.105 130.049 326.539 130.076 326.539 130.076C326.303 130.212 326.058 130.366 325.831 130.53C325.54 130.466 325.25 130.403 324.923 130.357C319.186 129.54 314.675 130.566 310.69 131.338C309.694 130.702 308.643 130.158 307.549 129.713C307.549 129.713 310.163 129.613 312.796 129.368C314.44 129.202 316.051 128.799 317.579 128.17C316.16 127.233 314.496 126.734 312.796 126.734C311.095 126.734 309.431 127.233 308.012 128.17C308.504 127.253 309.062 126.373 309.682 125.537C310.689 123.932 311.57 122.251 312.315 120.508C310.333 121.209 308.647 122.559 307.531 124.339C305.851 127.208 306.814 128.17 306.814 128.17C306.814 128.17 304.081 125.301 301.676 125.301C301.021 125.276 300.373 125.448 299.818 125.796C299.262 126.145 298.825 126.652 298.562 127.253H300.714C300.714 127.253 301.44 126.926 303.591 127.652C304.528 127.892 305.422 128.275 306.242 128.787C304.398 128.733 302.553 128.778 300.714 128.923C299.89 129.033 299.102 129.328 298.408 129.785C291.5 124.911 285.418 110.569 266.701 105.885C247.057 101.019 217.002 129.486 198.765 133.725C181.518 137.574 143.302 127.434 113.592 134.724C112.828 134.413 112.019 134.226 111.196 134.17C109.931 134.31 108.701 134.676 107.565 135.25C107.94 134.575 108.362 133.925 108.826 133.308C109.575 132.093 110.228 130.821 110.778 129.504C109.266 130.029 107.983 131.062 107.147 132.427C105.876 134.597 106.603 135.35 106.603 135.35C106.603 135.35 104.651 133.18 102.799 133.18C102.307 133.158 101.819 133.285 101.399 133.544C100.98 133.803 100.648 134.182 100.448 134.633H102.073C102.073 134.633 102.627 134.388 104.251 134.932C104.958 135.11 105.632 135.398 106.249 135.786C104.856 135.749 103.462 135.786 102.073 135.895C100.784 136.155 99.6196 136.843 98.7687 137.846C100.195 137.38 101.668 137.076 103.162 136.938C104.113 136.946 105.06 136.821 105.976 136.566L105.232 137.283C101.174 138.636 97.6341 139.861 94.5114 140.996C95.7993 141.165 96.976 141.813 97.8065 142.812C99.3678 144.582 99.0864 145.489 99.0864 145.489C99.0864 145.489 99.7945 142.812 101.038 142.303C101.42 142.183 101.831 142.193 102.207 142.331C102.583 142.469 102.903 142.727 103.117 143.066L101.991 143.52C101.991 143.52 101.528 143.429 100.566 144.427C100.112 144.83 99.7286 145.305 99.4314 145.834C100.382 145.409 101.362 145.051 102.363 144.763C103.68 144.445 105.286 145.744 105.286 145.744C104.16 145.693 103.032 145.822 101.946 146.125C101.288 146.39 100.586 146.532 99.8762 146.542L101.374 147.514C101.813 147.814 102.169 148.22 102.409 148.694L103.934 151.49C103.069 150.964 102.258 150.356 101.51 149.674C100.839 148.93 100.212 148.148 99.6311 147.332C99.343 148.587 98.9136 149.805 98.3512 150.963C97.8784 151.788 97.3085 152.553 96.6537 153.241C96.6705 151.827 96.9538 150.429 97.4888 149.12C97.9102 148.29 98.4249 147.51 99.0229 146.797C99.0229 146.797 97.625 147.269 96.1726 147.65C95.2584 147.878 94.3079 147.921 93.3768 147.777C93.9462 146.936 94.689 146.228 95.5553 145.698C96.498 145.471 97.4811 145.471 98.4238 145.698C97.9546 145.138 97.4513 144.608 96.9169 144.11C96.0015 143.125 95.1553 142.079 94.3844 140.978C88.3842 143.166 84.018 144.936 80.5867 146.343C80.0092 146.103 79.3955 145.962 78.7712 145.925C77.8219 146.026 76.899 146.3 76.048 146.733C76.3388 146.216 76.6632 145.719 77.0193 145.244C77.5915 144.337 78.0922 143.388 78.5171 142.403C77.386 142.79 76.4237 143.557 75.7938 144.573C74.8226 146.188 75.3854 146.733 75.3854 146.733C75.3854 146.733 73.8967 145.108 72.5532 145.108C72.1757 145.076 71.7977 145.163 71.4722 145.357C71.1466 145.551 70.8898 145.841 70.7377 146.188H72.0358C72.0358 146.188 72.4443 146.007 73.6607 146.415C74.1905 146.55 74.6959 146.768 75.1584 147.06C74.1168 147.032 73.0745 147.06 72.0358 147.141C71.0731 147.347 70.2034 147.86 69.5577 148.603C70.6241 148.259 71.7268 148.04 72.8437 147.949C73.555 147.958 74.264 147.867 74.9496 147.677L73.8331 148.757C73.7072 148.875 73.5973 149.01 73.5063 149.157C71.1202 150.045 68.626 150.61 66.0901 150.836C57.0853 151.653 43.1697 154.93 43.1697 154.93H345.311L344.094 154.022L343.65 151.117ZM77.9361 147.486L76.747 147.958C76.2568 147.713 75.9482 147.595 75.9482 147.595C75.9482 147.595 76.8559 147.595 77.9361 147.486ZM75.5397 148.14L75.7303 148.358L75.3763 148.494C75.4761 148.303 75.5397 148.14 75.5397 148.14ZM91.2526 149.22C90.7422 149.429 90.1972 149.539 89.646 149.547L90.8079 150.319C91.1428 150.553 91.4167 150.864 91.6067 151.226L92.7958 153.396C92.1227 152.993 91.493 152.521 90.9168 151.989C90.3899 151.417 89.9016 150.81 89.4553 150.173C89.2297 151.135 88.901 152.069 88.475 152.96C88.0993 153.596 87.6482 154.184 87.1315 154.712C87.1456 153.616 87.3642 152.532 87.776 151.517C88.1011 150.868 88.5002 150.259 88.9652 149.701C88.9652 149.701 87.8759 150.064 86.7684 150.364C86.0549 150.535 85.3151 150.565 84.5898 150.455C85.0483 149.821 85.6362 149.292 86.3146 148.902C87.0428 148.73 87.8012 148.73 88.5294 148.902C88.1658 148.469 87.7779 148.057 87.3675 147.668C86.6671 146.889 86.0153 146.067 85.4159 145.208C86.4504 145.316 87.4016 145.824 88.0665 146.624C89.2738 147.995 89.0468 148.712 89.0468 148.712C89.0468 148.712 89.6006 146.633 90.5809 146.234C90.88 146.141 91.2011 146.15 91.4948 146.258C91.7885 146.366 92.0383 146.568 92.2058 146.833L91.298 147.178C91.298 147.178 90.9349 147.114 90.1906 147.877C89.8288 148.186 89.5218 148.554 89.2829 148.966C90.025 148.637 90.7894 148.361 91.5704 148.14C92.5507 147.895 93.8216 148.912 93.8216 148.912C92.9355 148.884 92.0505 148.994 91.1982 149.238L91.2526 149.22ZM107.238 136.43H107.846L107.474 136.548L107.238 136.43ZM112.902 148.376C112.389 148.586 111.841 148.7 111.286 148.712L112.457 149.483C112.796 149.713 113.071 150.026 113.256 150.391L114.436 152.561C113.765 152.152 113.135 151.678 112.557 151.145C112.036 150.568 111.548 149.962 111.096 149.329C110.876 150.294 110.55 151.232 110.125 152.125C109.755 152.761 109.313 153.351 108.808 153.886C108.817 152.79 109.036 151.705 109.453 150.691C109.779 150.042 110.178 149.433 110.642 148.875C110.642 148.875 109.553 149.238 108.427 149.529C107.717 149.702 106.98 149.736 106.258 149.629C106.7 148.977 107.28 148.428 107.955 148.022C108.686 147.86 109.446 147.875 110.17 148.067C109.814 147.63 109.429 147.218 109.017 146.833C108.321 146.056 107.681 145.231 107.102 144.364C108.136 144.472 109.088 144.98 109.752 145.78C110.951 147.151 110.724 147.859 110.724 147.859C110.724 147.859 111.277 145.78 112.267 145.39C112.564 145.298 112.882 145.307 113.174 145.413C113.465 145.52 113.714 145.719 113.883 145.98L112.975 146.334C112.975 146.334 112.63 146.27 111.876 147.023C111.52 147.341 111.214 147.712 110.969 148.122C111.709 147.786 112.474 147.507 113.256 147.287C114.081 147.244 114.89 147.52 115.517 148.058C114.629 148.018 113.741 148.116 112.884 148.349L112.902 148.376ZM306.805 130.639C306.805 130.639 307.204 131.12 307.776 131.737C307.249 131.801 306.723 131.837 306.224 131.864C306.569 131.147 306.795 130.621 306.795 130.621L306.805 130.639ZM302.266 130.294C303.491 130.302 304.711 130.149 305.897 129.84L303.9 131.792L303.836 131.855C302.445 131.693 301.095 131.281 299.851 130.639C300.596 130.462 301.356 130.353 302.121 130.312L302.266 130.294ZM287.27 144.273C288.401 145.176 289.309 146.329 289.921 147.641C287.545 146.895 285.455 145.441 283.929 143.474C283.519 144.416 283.04 145.326 282.495 146.197C281.817 147.095 281.051 147.922 280.208 148.666L281.007 145.644C281.145 145.107 281.431 144.619 281.833 144.237L283.303 142.83C282.416 143.073 281.5 143.192 280.58 143.184C279.119 143.321 277.678 143.625 276.286 144.091C277.113 143.1 278.247 142.413 279.509 142.14C280.864 142.031 282.225 141.995 283.585 142.031C282.983 141.655 282.328 141.373 281.642 141.196C280.053 140.66 279.509 140.905 279.509 140.905H277.757C277.963 140.468 278.298 140.103 278.716 139.86C279.134 139.617 279.616 139.507 280.099 139.544C281.86 139.544 283.811 141.65 283.811 141.65C283.811 141.65 283.094 140.951 284.338 138.827C285.164 137.512 286.412 136.516 287.878 136.004C287.326 137.29 286.673 138.532 285.927 139.716C285.466 140.336 285.05 140.988 284.683 141.668C285.729 140.967 286.96 140.593 288.219 140.593C289.478 140.593 290.708 140.967 291.754 141.668C290.628 142.142 289.438 142.448 288.223 142.576C286.271 142.757 284.329 142.83 284.329 142.83C285.322 143.219 286.271 143.712 287.161 144.3L287.27 144.273ZM301.031 148.394C301.344 148.823 301.546 149.321 301.621 149.847L302.112 152.987C301.472 152.203 300.915 151.354 300.45 150.455C300.066 149.532 299.738 148.586 299.47 147.623C298.778 148.697 297.972 149.692 297.064 150.591C296.341 151.211 295.546 151.741 294.695 152.17C295.423 149.905 297.001 148.011 299.098 146.887C299.098 146.887 297.609 146.887 296.12 146.733C295.167 146.646 294.241 146.369 293.397 145.916C294.208 145.32 295.137 144.903 296.12 144.691C297.074 144.801 297.988 145.134 298.789 145.662C298.53 144.974 298.227 144.304 297.881 143.656C297.346 142.407 296.894 141.125 296.529 139.816C297.737 140.393 298.671 141.419 299.134 142.675C300.042 144.872 299.434 145.598 299.434 145.598C299.434 145.598 301.013 143.32 302.357 143.265C302.76 143.278 303.148 143.425 303.459 143.683C303.77 143.942 303.986 144.296 304.072 144.691H302.856C302.856 144.691 302.456 144.455 301.204 145.063C300.642 145.298 300.123 145.627 299.67 146.034C300.715 145.952 301.765 145.952 302.81 146.034C304.154 146.17 305.216 147.986 305.216 147.986C304.174 147.561 303.071 147.303 301.948 147.223C301.234 147.251 300.52 147.15 299.842 146.924L301.031 148.394ZM323.198 148.149C324.743 149.361 325.986 150.915 326.829 152.688C325.407 152.18 324.041 151.526 322.754 150.736C321.258 149.671 319.901 148.424 318.714 147.023C318.158 148.308 317.506 149.55 316.762 150.736C315.84 151.958 314.797 153.083 313.649 154.095L314.738 150.001C314.921 149.259 315.308 148.583 315.855 148.049L317.852 146.098C316.64 146.436 315.388 146.604 314.13 146.597C312.143 146.753 310.181 147.14 308.284 147.75C308.284 147.75 310.227 145.399 312.659 145.154C314.495 145.008 316.338 144.963 318.178 145.017C317.36 144.508 316.47 144.126 315.537 143.883C313.377 143.166 312.605 143.492 312.605 143.492H310.435C310.695 142.892 311.131 142.384 311.685 142.035C312.239 141.687 312.886 141.514 313.54 141.541C315.936 141.541 318.569 144.464 318.569 144.464C318.569 144.464 317.598 143.492 319.286 140.633C320.399 138.846 322.09 137.494 324.079 136.802C323.334 138.547 322.451 140.228 321.437 141.831C320.821 142.669 320.263 143.549 319.767 144.464C321.187 143.523 322.852 143.021 324.555 143.021C326.259 143.021 327.924 143.523 329.344 144.464C327.815 145.092 326.204 145.495 324.56 145.662C321.927 145.898 319.313 146.007 319.313 146.007C320.654 146.571 321.93 147.28 323.117 148.122L323.198 148.149ZM341.172 148.149L340.736 148.412C340.721 148.314 340.684 148.221 340.627 148.14L341.172 148.149ZM341.172 149.493L341.589 148.875C341.853 149.845 342.177 150.797 342.56 151.726C342.913 152.409 343.326 153.059 343.795 153.668L342.134 152.425C342.134 152.425 341.78 151.29 341.126 149.511L341.172 149.493Z" fill="white"/>
<path d="M344.739 87.3397C341.308 85.6694 339.747 87.0674 338.503 85.6694C337.259 84.2715 341.934 80.6587 332.575 77.055C332.575 77.055 331.958 69.2757 319.168 68.9852C306.378 68.6947 309.809 76.7736 306.378 78.7252C302.947 80.6769 302.012 77.6087 298.581 79.5513C295.149 81.4938 296.711 85.388 293.906 85.9508C291.101 86.5136 287.361 83.4455 283.921 85.388C280.48 87.3306 280.48 89.019 278.928 89.019C277.376 89.019 274.244 87.9116 272.374 89.019C270.504 90.1264 268.307 91.5244 268.307 91.5244H347.217C347.217 91.5244 348.17 88.9918 344.739 87.3397Z" fill="#BB2C75"/>
<path d="M191.685 102.326C186.856 99.9845 184.678 101.936 182.917 99.9845C181.156 98.0328 187.746 92.9495 174.583 87.8662C174.583 87.8662 173.676 76.9733 155.73 76.5376C137.784 76.1019 142.568 87.4304 137.756 90.1537C132.945 92.8769 131.656 88.5833 126.791 91.3156C121.926 94.0479 124.159 99.5306 120.201 100.311C116.243 101.092 110.996 96.7983 106.176 99.5306C102.663 101.564 101.71 103.298 100.603 104.124C100.314 104.155 100.022 104.12 99.7488 104.022C99.4754 103.925 99.2274 103.767 99.0232 103.561C98.0066 102.472 101.746 99.6395 94.3847 96.8165C94.3847 96.8165 93.8945 90.7165 83.8912 90.5077C73.8879 90.2989 76.5658 96.5986 73.9061 98.1236C71.2464 99.6486 70.493 97.2159 67.8151 98.7772C65.1373 100.339 66.3446 103.316 64.1842 103.779C62.0238 104.242 59.1008 101.827 56.3776 103.343C53.6544 104.859 53.6544 106.175 52.4653 106.175C51.2761 106.175 48.8343 105.268 47.3819 106.175L44.2048 108.127H195.244C195.244 108.127 196.514 104.632 191.685 102.326Z" fill="#BB2C75"/>
<path d="M267.772 36.7603C260.937 33.438 257.832 36.1975 255.345 33.438C252.858 30.6785 262.189 23.4528 243.544 16.2635C243.544 16.2635 242.31 0.759351 216.839 0.20563C191.368 -0.348092 198.194 15.7098 191.349 19.5859C184.505 23.4619 182.653 17.371 175.818 21.2561C168.983 25.1412 172.087 32.8752 166.496 33.9645C160.904 35.0538 153.451 28.9901 146.616 32.857C139.781 36.724 139.79 40.0645 136.676 40.0645C133.563 40.0645 127.363 37.8496 123.632 40.0645C119.901 42.2794 115.462 45.0389 115.462 45.0389H272.765C272.765 45.0389 274.625 40.0826 267.772 36.7603Z" fill="#BB2C75"/>
<g opacity="0.6">
<path opacity="0.6" d="M344.739 87.3397C341.308 85.6694 339.747 87.0674 338.503 85.6694C337.259 84.2715 341.934 80.6587 332.575 77.055C332.575 77.055 331.958 69.2757 319.168 68.9852C306.378 68.6947 309.809 76.7736 306.378 78.7252C302.947 80.6769 302.012 77.6087 298.581 79.5513C295.149 81.4938 296.711 85.388 293.906 85.9508C291.101 86.5136 287.361 83.4455 283.921 85.388C280.48 87.3306 280.48 89.019 278.928 89.019C277.376 89.019 274.244 87.9116 272.374 89.019C270.504 90.1264 268.307 91.5244 268.307 91.5244H347.217C347.217 91.5244 348.17 88.9918 344.739 87.3397Z" fill="white"/>
<path opacity="0.7" d="M191.685 102.326C186.856 99.9845 184.678 101.936 182.917 99.9845C181.156 98.0328 187.746 92.9495 174.583 87.8662C174.583 87.8662 173.676 76.9733 155.73 76.5376C137.784 76.1019 142.568 87.4304 137.756 90.1537C132.945 92.8769 131.656 88.5833 126.791 91.3156C121.926 94.0479 124.159 99.5306 120.201 100.311C116.243 101.092 110.996 96.7983 106.176 99.5306C102.663 101.564 101.71 103.298 100.603 104.124C100.314 104.155 100.022 104.12 99.7488 104.022C99.4754 103.925 99.2274 103.767 99.0232 103.561C98.0066 102.472 101.746 99.6395 94.3847 96.8165C94.3847 96.8165 93.8945 90.7165 83.8912 90.5077C73.8879 90.2989 76.5658 96.5986 73.9061 98.1236C71.2464 99.6486 70.493 97.2159 67.8151 98.7772C65.1373 100.339 66.3446 103.316 64.1842 103.779C62.0238 104.242 59.1008 101.827 56.3776 103.343C53.6544 104.859 53.6544 106.175 52.4653 106.175C51.2761 106.175 48.8343 105.268 47.3819 106.175L44.2048 108.127H195.244C195.244 108.127 196.514 104.632 191.685 102.326Z" fill="white"/>
<path opacity="0.6" d="M267.772 36.7603C260.937 33.438 257.832 36.1975 255.345 33.438C252.858 30.6785 262.189 23.4528 243.544 16.2635C243.544 16.2635 242.31 0.759351 216.839 0.20563C191.368 -0.348092 198.194 15.7098 191.349 19.5859C184.505 23.4619 182.653 17.371 175.818 21.2561C168.983 25.1412 172.087 32.8752 166.496 33.9645C160.904 35.0538 153.451 28.9901 146.616 32.857C139.781 36.724 139.79 40.0645 136.676 40.0645C133.563 40.0645 127.363 37.8496 123.632 40.0645C119.901 42.2794 115.462 45.0389 115.462 45.0389H272.765C272.765 45.0389 274.625 40.0826 267.772 36.7603Z" fill="white"/>
</g>
<path d="M362.44 156.391H372.48" stroke="#2E353A" stroke-width="1.11936" stroke-linecap="round" stroke-linejoin="round"/>
<path d="M49.8054 156.391H354.679" stroke="#2E353A" stroke-width="1.11936" stroke-linecap="round" stroke-linejoin="round"/>
<path d="M29.0908 156.391H43.3333" stroke="#2E353A" stroke-width="1.11936" stroke-linecap="round" stroke-linejoin="round"/>
<path d="M12.3794 156.391H21.9651" stroke="#2E353A" stroke-width="1.11936" stroke-linecap="round" stroke-linejoin="round"/>
<path d="M190.877 351.937C190.877 351.937 185.231 343.812 170.998 340.436C156.765 337.059 145.372 337.649 145.372 328.762C145.372 319.875 151.545 291.545 139.672 285.971C127.799 280.398 100.285 274.861 104.107 266.518C107.928 258.176 118.331 255.408 107.91 246.548C97.4892 237.689 78.9622 233.74 78.4448 225.398C77.9274 217.056 92.2152 213.198 101.701 213.733C111.187 214.269 106.921 206.471 105.023 201.533C103.126 196.595 125.901 197.094 128.752 197.094C131.602 197.094 186.538 327.9 190.877 351.937Z" fill="white" stroke="#2E353A" stroke-width="1.11936" stroke-miterlimit="10"/>
<path d="M192.793 353.044C192.793 353.044 198.448 344.92 212.681 341.543C226.915 338.166 238.307 338.756 238.307 329.869C238.307 320.983 232.134 292.652 244.007 287.079C255.881 281.505 283.385 275.986 279.573 267.635C275.76 259.284 265.348 256.515 275.778 247.665C286.208 238.814 304.726 234.884 305.243 226.551C305.761 218.218 291.473 214.36 281.987 214.877C272.501 215.394 276.759 207.615 278.665 202.677C280.571 197.739 257.787 198.229 254.936 198.229C252.086 198.229 197.123 328.989 192.793 353.044Z" fill="white" stroke="#2E353A" stroke-width="1.11936" stroke-miterlimit="10"/>
<path opacity="0.6" d="M192.793 353.044C192.793 353.044 198.448 344.92 212.681 341.543C226.915 338.166 238.307 338.756 238.307 329.869C238.307 320.983 232.134 292.652 244.007 287.079C255.881 281.505 283.385 275.986 279.573 267.635C275.76 259.284 265.348 256.515 275.778 247.665C286.208 238.814 304.726 234.884 305.243 226.551C305.761 218.218 291.473 214.36 281.987 214.877C272.501 215.394 276.759 207.615 278.665 202.677C280.571 197.739 257.787 198.229 254.936 198.229C252.086 198.229 197.123 328.989 192.793 353.044Z" fill="#BB2C75"/>
<path d="M147.723 341.171C147.723 341.171 131.266 341.906 128.742 331.54C126.219 321.173 144.564 314.492 131.266 305.606C117.968 296.719 88.2391 301.167 84.4448 288.567C80.6504 275.968 94.6115 270.04 94.6115 270.04C94.6115 270.04 84.4448 280.416 95.2378 284.855C106.031 289.293 142.059 293.024 144.601 308.574C146.67 321.564 131.556 333.056 147.723 341.171Z" fill="white" stroke="#2E353A" stroke-width="1.11936" stroke-miterlimit="10"/>
<path d="M236.909 341.171C236.909 341.171 253.357 341.906 255.89 331.54C258.422 321.173 240.077 314.492 253.357 305.606C266.637 296.719 296.384 301.167 300.187 288.567C303.991 275.968 290.03 270.04 290.03 270.04C290.03 270.04 300.187 280.416 289.394 284.855C278.601 289.293 242.573 293.024 240.041 308.574C237.971 321.564 253.103 333.056 236.909 341.171Z" fill="white" stroke="#2E353A" stroke-width="1.11936" stroke-miterlimit="10"/>
<path opacity="0.5" d="M236.909 341.171C236.909 341.171 253.357 341.906 255.89 331.54C258.422 321.173 240.077 314.492 253.357 305.606C266.637 296.719 296.384 301.167 300.187 288.567C303.991 275.968 290.03 270.04 290.03 270.04C290.03 270.04 300.187 280.416 289.394 284.855C278.601 289.293 242.573 293.024 240.041 308.574C237.971 321.564 253.103 333.056 236.909 341.171Z" fill="#BB2C75"/>
<path d="M123.151 306.849C124.237 307.294 125.202 307.991 125.965 308.883" stroke="#2E353A" stroke-width="1.11936" stroke-linecap="round" stroke-linejoin="round"/>
<path d="M83.5007 295.384C85.4292 297.015 87.6375 298.282 90.0183 299.124C97.2802 301.848 110.524 303.046 118.912 305.36" stroke="#2E353A" stroke-width="1.11936" stroke-linecap="round" stroke-linejoin="round"/>
<path d="M79.4524 288.558C79.6438 289.938 80.1501 291.254 80.932 292.407" stroke="#2E353A" stroke-width="1.11936" stroke-linecap="round" stroke-linejoin="round"/>
<path d="M82.9197 239.159C89.7731 242.055 101.583 246.675 103.244 250.433C105.277 255.044 98.7053 255.571 98.7053 255.571" stroke="#2E353A" stroke-width="1.11936" stroke-linecap="round" stroke-linejoin="round"/>
<path d="M76.175 234.738C76.9726 235.636 77.8888 236.421 78.8983 237.071" stroke="#2E353A" stroke-width="1.11936" stroke-linecap="round" stroke-linejoin="round"/>
<path d="M74.6321 231.97C74.6955 232.245 74.7867 232.512 74.9044 232.769" stroke="#2E353A" stroke-width="1.11936" stroke-linecap="round" stroke-linejoin="round"/>
<path d="M264.522 306.849C263.439 307.294 262.477 307.991 261.717 308.883" stroke="#2E353A" stroke-width="1.11936" stroke-linecap="round" stroke-linejoin="round"/>
<path d="M304.163 295.384C302.239 297.016 300.033 298.283 297.655 299.124C290.393 301.848 277.149 303.046 268.752 305.36" stroke="#2E353A" stroke-width="1.11936" stroke-linecap="round" stroke-linejoin="round"/>
<path d="M308.23 288.558C308.038 289.938 307.532 291.254 306.75 292.407" stroke="#2E353A" stroke-width="1.11936" stroke-linecap="round" stroke-linejoin="round"/>
<path d="M304.753 239.159C297.909 242.055 286.099 246.675 284.438 250.433C282.405 255.044 288.977 255.571 288.977 255.571" stroke="#2E353A" stroke-width="1.11936" stroke-linecap="round" stroke-linejoin="round"/>
<path d="M311.498 234.738C310.701 235.637 309.784 236.421 308.775 237.071" stroke="#2E353A" stroke-width="1.11936" stroke-linecap="round" stroke-linejoin="round"/>
<path d="M313.05 231.97C312.987 232.245 312.896 232.512 312.778 232.769" stroke="#2E353A" stroke-width="1.11936" stroke-linecap="round" stroke-linejoin="round"/>
<path d="M261.89 154.821H121.844L115.744 160.649V203.685C115.747 205.371 116.132 207.034 116.869 208.55C120.936 216.792 137.194 254.518 147.142 270.403C165.433 299.678 189.425 348.869 190.714 351.937C190.763 352.212 190.907 352.461 191.121 352.641C191.335 352.82 191.605 352.919 191.885 352.919C192.164 352.919 192.435 352.82 192.649 352.641C192.863 352.461 193.007 352.212 193.056 351.937C194.336 348.887 218.382 299.678 236.627 270.403C246.531 254.518 262.852 216.792 266.91 208.55C267.647 207.034 268.031 205.371 268.035 203.685V160.649L261.89 154.821Z" fill="white" stroke="#2E353A" stroke-width="1.11936" stroke-linecap="round" stroke-linejoin="round"/>
<path d="M261.89 154.821H121.844L115.744 160.649V209.276C115.746 210.965 116.131 212.632 116.869 214.151C120.936 222.384 137.194 254.518 147.142 270.431C165.433 299.705 189.425 348.896 190.714 351.964C190.763 352.239 190.907 352.488 191.121 352.668C191.335 352.848 191.605 352.946 191.885 352.946C192.164 352.946 192.435 352.848 192.649 352.668C192.863 352.488 193.007 352.239 193.056 351.964C194.336 348.914 218.382 299.705 236.627 270.431C246.531 254.545 262.852 222.411 266.91 214.151C267.648 212.632 268.033 210.965 268.035 209.276V160.649L261.89 154.821Z" fill="#2E353A" stroke="#2E353A" stroke-width="1.11936" stroke-linecap="round" stroke-linejoin="round"/>
<path d="M191.685 226.696V217.428" stroke="white" stroke-width="1.11936" stroke-linecap="round" stroke-linejoin="round"/>
<path d="M191.685 351.919V242.627" stroke="white" stroke-width="1.11936" stroke-linecap="round" stroke-linejoin="round"/>
<path d="M181.174 262.633C176.268 243.726 164.595 227.276 148.368 216.402C137.604 215.888 126.887 214.654 116.289 212.708C116.444 213.202 116.636 213.684 116.86 214.151C120.927 222.384 137.185 254.518 147.134 270.431C165.425 299.705 189.407 348.896 190.705 351.964C190.811 352.213 190.972 352.434 191.177 352.61C191.381 352.786 191.624 352.913 191.885 352.981C191.703 352.934 191.53 352.854 191.377 352.745C190.687 335.525 188.291 290.374 181.174 262.633ZM156.447 273.435C154.414 274.579 149.603 269.913 145.618 262.996C141.633 256.079 140.017 249.544 141.987 248.4C143.956 247.256 148.831 251.922 152.816 258.83C156.801 265.738 158.444 272.292 156.447 273.435Z" fill="#BB2C75" stroke="#2E353A" stroke-width="1.11936" stroke-linecap="round" stroke-linejoin="round"/>
<path d="M236.174 216.13C219.587 226.938 207.615 243.53 202.587 262.678C195.38 290.464 192.965 335.715 192.284 352.853C192.166 352.923 192.037 352.975 191.903 353.008C192.163 352.939 192.404 352.812 192.607 352.636C192.81 352.46 192.97 352.239 193.074 351.991C194.354 348.941 218.391 299.732 236.646 270.458C246.549 254.563 262.87 222.438 266.919 214.178C267.325 213.359 267.63 212.493 267.826 211.6C257.382 213.779 246.81 215.291 236.174 216.13ZM239.16 263.042C235.175 269.949 230.328 274.624 228.34 273.471C226.352 272.319 227.958 265.783 231.971 258.875C235.983 251.967 240.803 247.292 242.791 248.436C244.779 249.58 243.181 256.079 239.16 262.96V263.042Z" fill="#BB2C75" stroke="#2E353A" stroke-width="1.11936" stroke-linecap="round" stroke-linejoin="round"/>
<path d="M192.702 154.821H121.844L115.744 160.649V173.194C133.336 183.433 160.822 190.014 191.74 190.014C222.657 190.014 250.144 183.397 267.772 173.194V160.649L261.681 154.821H192.702Z" fill="white" stroke="#2E353A" stroke-width="1.11936" stroke-linecap="round" stroke-linejoin="round"/>
<path d="M190.923 60.1891C188.305 60.2542 185.739 59.4603 183.615 57.9288V49.7591C183.615 47.935 184.339 46.1853 185.627 44.8938C186.915 43.6022 188.663 42.8742 190.487 42.8694C192.312 42.8694 194.062 43.5943 195.352 44.8847C196.643 46.1751 197.368 47.9252 197.368 49.75V57.5657C197.368 57.5657 197.386 59.6535 190.923 60.1891Z" fill="white" stroke="#2E353A" stroke-width="1.11936" stroke-miterlimit="10"/>
<path d="M179.086 89.7087L184.641 93.5939H198.257L204.648 89.1459H201.035L196.868 92.205V89.4364H184.922V91.9327L181.591 89.4364L179.086 89.7087Z" fill="#2E353A"/>
<path d="M173.703 90.1897C171.086 90.2703 168.517 89.4819 166.395 87.9476V79.8233C166.395 77.9985 167.12 76.2484 168.411 74.958C169.701 73.6676 171.451 72.9427 173.276 72.9427C175.101 72.9427 176.851 73.6676 178.141 74.958C179.432 76.2484 180.157 77.9985 180.157 79.8233V87.6844C180.157 87.6844 180.157 89.636 173.703 90.1897Z" fill="white" stroke="#2E353A" stroke-width="1.11936" stroke-linecap="round" stroke-linejoin="round"/>
<path d="M208.705 90.1897C206.09 90.2615 203.523 89.4739 201.398 87.9476V79.8233C201.4 77.9976 202.127 76.2475 203.419 74.9574C204.711 73.6673 206.462 72.9427 208.288 72.9427C210.113 72.9427 211.863 73.6676 213.153 74.958C214.443 76.2484 215.168 77.9985 215.168 79.8233V87.6844C215.168 87.6844 215.168 89.636 208.705 90.1897Z" fill="white" stroke="#2E353A" stroke-width="1.11936" stroke-linecap="round" stroke-linejoin="round"/>
<path d="M193.6 82.2743V77.6721H192.447V64.9637H194.018V59.6171H192.447H188.844H187.273V64.9637H188.844V77.6721H187.691V82.2743H185.558V87.6118H195.734V82.2743H193.6Z" fill="#2E353A"/>
<path d="M210.194 87.4847H170.744V89.981H210.194V87.4847Z" fill="white" stroke="#2E353A" stroke-width="1.11936" stroke-linecap="round" stroke-linejoin="round"/>
<path d="M192.048 168.873C221.159 168.873 247.593 165.478 267.036 159.968L261.59 154.794H121.798L116.524 159.868C136.068 165.442 162.683 168.873 192.048 168.873Z" fill="#BB2C75" stroke="#2E353A" stroke-width="1.11936" stroke-linecap="round" stroke-linejoin="round"/>
<path d="M266.238 140.651C266.061 139.336 265.41 138.13 264.407 137.261C263.404 136.392 262.118 135.919 260.791 135.931H121.517C120.19 135.919 118.904 136.392 117.901 137.261C116.898 138.13 116.247 139.336 116.07 140.651C115.435 145.09 114.582 151.353 114.582 153.423C114.582 156.763 115.417 158.152 115.417 158.152H266.864C266.864 158.152 267.69 156.763 267.69 153.423C267.717 151.353 266.864 145.09 266.238 140.651Z" fill="white" stroke="#2E353A" stroke-width="1.11936" stroke-linecap="round" stroke-linejoin="round"/>
<path d="M227.704 93.4123H153.524V96.1899H227.704V93.4123Z" fill="white" stroke="#2E353A" stroke-width="1.11936" stroke-linecap="round" stroke-linejoin="round"/>
<path d="M153.524 96.19L153.251 100.91L148.794 106.475H152.961H232.433L227.432 100.357L227.704 96.19H153.524Z" fill="white" stroke="#2E353A" stroke-width="1.11936" stroke-linecap="round" stroke-linejoin="round"/>
<path d="M156.855 96.19L156.61 100.91L152.552 106.475H156.356H228.675L224.119 100.357L224.373 96.19H156.855Z" fill="#BB2C75"/>
<path opacity="0.5" d="M156.855 96.19L156.61 100.91L152.552 106.475H156.356H228.675L224.119 100.357L224.373 96.19H156.855Z" fill="white"/>
<path d="M156.855 96.19L156.61 100.91L152.552 106.475H156.356H228.675L224.119 100.357L224.373 96.19H156.855Z" stroke="#2E353A" stroke-width="1.11936" stroke-linecap="round" stroke-linejoin="round"/>
<path d="M144.319 105.376H237.816C238.283 105.376 238.745 105.468 239.177 105.647C239.608 105.826 240 106.089 240.329 106.419C240.659 106.75 240.92 107.142 241.098 107.574C241.276 108.005 241.367 108.468 241.366 108.935V113.156H140.743V108.962C140.738 108.49 140.827 108.023 141.005 107.586C141.183 107.15 141.446 106.753 141.779 106.419C142.112 106.085 142.508 105.821 142.944 105.642C143.38 105.463 143.848 105.373 144.319 105.376Z" fill="white" stroke="#2E353A" stroke-width="1.11936" stroke-linecap="round" stroke-linejoin="round"/>
<path d="M134.688 110.641H246.267C246.968 110.64 247.662 110.777 248.309 111.044C248.957 111.311 249.545 111.704 250.041 112.199C250.537 112.694 250.93 113.281 251.199 113.928C251.467 114.575 251.605 115.269 251.605 115.97V120.617H129.351V115.951C129.355 114.54 129.92 113.188 130.921 112.192C131.922 111.197 133.276 110.639 134.688 110.641Z" fill="white" stroke="#2E353A" stroke-width="1.11936" stroke-linecap="round" stroke-linejoin="round"/>
<path d="M189.643 135.931H154.631L129.351 120.69C132.528 118.764 136.194 117.796 139.908 117.903H246.594C246.594 117.903 251.042 117.34 251.596 120.69L231.036 136.24L189.643 135.931Z" fill="#BB2C75" stroke="#2E353A" stroke-width="1.11936" stroke-linecap="round" stroke-linejoin="round"/>
<path d="M237.717 119.256H144.074V138.155H237.717V119.256Z" fill="#2E353A" stroke="#2E353A" stroke-width="1.11936" stroke-linecap="round" stroke-linejoin="round"/>
<path d="M153.796 119.256H151.3V138.155H153.796V119.256Z" fill="#BB2C75"/>
<path d="M230.491 119.256H227.995V138.155H230.491V119.256Z" fill="#BB2C75"/>
<path d="M216.321 119.256H212.427V138.155H216.321V119.256Z" fill="#BB2C75"/>
<path d="M169.364 119.256H165.469V138.155H169.364V119.256Z" fill="#BB2C75"/>
<path d="M184.369 119.256H179.921V138.155H184.369V119.256Z" fill="#BB2C75"/>
<path d="M201.879 119.256H197.431V138.155H201.879V119.256Z" fill="#BB2C75"/>
<path d="M237.989 137.038H143.239V147.595H237.989V137.038Z" fill="#BB2C75" stroke="#2E353A" stroke-width="1.11936" stroke-linecap="round" stroke-linejoin="round"/>
<path d="M212.055 137.038H169.173V147.595H212.055V137.038Z" fill="#BB2C75" stroke="#2E353A" stroke-width="1.11936" stroke-linecap="round" stroke-linejoin="round"/>
<path d="M192.048 168.873C212.118 168.998 232.154 167.214 251.886 163.544V157.072L237.989 147.622H143.239L131.847 156.509V163.535C151.698 167.23 171.857 169.017 192.048 168.873Z" fill="white" stroke="#2E353A" stroke-width="1.11936" stroke-linecap="round" stroke-linejoin="round"/>
<path d="M146.861 138.427V147.568L142.676 156.718H126.019C127.689 152.694 130.884 149.496 134.906 147.822C138.396 146.386 141.74 144.616 144.891 142.539V138.091L146.861 138.427Z" fill="white" stroke="#2E353A" stroke-width="1.11936" stroke-linecap="round" stroke-linejoin="round"/>
<path d="M126.019 156.763C126.019 156.763 125.184 143.701 125.729 138.146C126.274 132.59 129.078 133.144 129.078 133.144L144.909 138.146" stroke="#2E353A" stroke-width="1.11936" stroke-linecap="round" stroke-linejoin="round"/>
<path d="M131.012 133.979V150.092" stroke="#2E353A" stroke-width="1.11936" stroke-linecap="round" stroke-linejoin="round"/>
<path d="M134.906 135.096V147.877" stroke="#2E353A" stroke-width="1.11936" stroke-linecap="round" stroke-linejoin="round"/>
<path d="M137.965 135.931V145.925" stroke="#2E353A" stroke-width="1.11936" stroke-linecap="round" stroke-linejoin="round"/>
<path d="M140.743 137.038V144.972" stroke="#2E353A" stroke-width="1.11936" stroke-linecap="round" stroke-linejoin="round"/>
<path d="M234.658 138.427V147.568L238.824 156.718H255.499C253.829 152.692 250.63 149.492 246.603 147.822C243.113 146.386 239.77 144.616 236.618 142.539V138.091L234.658 138.427Z" fill="white" stroke="#2E353A" stroke-width="1.11936" stroke-linecap="round" stroke-linejoin="round"/>
<path d="M236.6 138.146L252.44 133.144C252.44 133.144 255.227 132.581 255.772 138.146C256.316 143.71 255.499 156.763 255.499 156.763" stroke="#2E353A" stroke-width="1.11936" stroke-linecap="round" stroke-linejoin="round"/>
<path d="M250.497 133.979V150.092" stroke="#2E353A" stroke-width="1.11936" stroke-linecap="round" stroke-linejoin="round"/>
<path d="M246.603 135.096V147.877" stroke="#2E353A" stroke-width="1.11936" stroke-linecap="round" stroke-linejoin="round"/>
<path d="M243.544 135.931V145.925" stroke="#2E353A" stroke-width="1.11936" stroke-linecap="round" stroke-linejoin="round"/>
<path d="M240.776 137.038V144.972" stroke="#2E353A" stroke-width="1.11936" stroke-linecap="round" stroke-linejoin="round"/>
<path d="M142.676 165.387C159.024 167.773 175.527 168.938 192.048 168.873C207.601 168.929 223.139 167.909 238.552 165.823V156.745H142.676V165.387Z" fill="#BB2C75" stroke="#2E353A" stroke-width="1.11936" stroke-linecap="round" stroke-linejoin="round"/>
<path d="M239.632 105.712V101.646C239.632 101.646 239.632 100.166 236.292 100.166H145.844C142.468 100.166 142.504 101.646 142.504 101.646V105.712" stroke="#2E353A" stroke-width="1.11936" stroke-linecap="round" stroke-linejoin="round"/>
<path d="M159.106 100.166V104.995" stroke="#2E353A" stroke-width="1.11936" stroke-linecap="round" stroke-linejoin="round"/>
<path d="M180.175 100.166V104.995" stroke="#2E353A" stroke-width="1.11936" stroke-linecap="round" stroke-linejoin="round"/>
<path d="M201.225 100.166V104.995" stroke="#2E353A" stroke-width="1.11936" stroke-linecap="round" stroke-linejoin="round"/>
<path d="M222.294 100.166V104.995" stroke="#2E353A" stroke-width="1.11936" stroke-linecap="round" stroke-linejoin="round"/>
</svg>
