<svg width="66" height="67" viewBox="0 0 66 67" fill="none" xmlns="http://www.w3.org/2000/svg">
<path d="M61.2278 60.549C61.2278 60.5688 48.5749 60.5833 32.9697 60.5833C17.3645 60.5833 4.70898 60.5688 4.70898 60.549C4.70898 60.5292 17.3593 60.5146 32.9697 60.5146C48.5801 60.5146 61.2278 60.5252 61.2278 60.549Z" fill="#263238"/>
<path d="M6.05883 23.9029C6.05883 23.9029 16.3119 29.0258 19.1602 30.0171C21.4885 30.8289 25.2312 31.0863 27.4971 30.8381C27.9254 30.799 28.349 30.7181 28.762 30.5966C30.5534 30.0171 39.5858 28.1176 39.5858 28.1176L50.3888 27.5249L50.147 26.032L37.7541 26.795C37.7541 26.795 30.5911 27.8035 29.5888 29.0033C29.5888 29.0033 28.7373 30.2032 27.2345 30.4065C25.7317 30.6098 19.0718 28.9769 18.3204 28.2127C17.569 27.4484 17.3688 27.0933 15.2147 26.5851C13.0606 26.0769 8.20253 22.6172 8.20253 22.6172L5.79883 23.8382" fill="#BB2C75"/>
<path opacity="0.5" d="M6.05883 23.9029C6.05883 23.9029 16.3119 29.0258 19.1602 30.0171C21.4885 30.8289 25.2312 31.0863 27.4971 30.8381C27.9254 30.799 28.349 30.7181 28.762 30.5966C30.5534 30.0171 39.5858 28.1176 39.5858 28.1176L50.3888 27.5249L50.2965 26.9534L50.147 26.0294L37.7541 26.7923C37.7541 26.7923 30.5911 27.8008 29.5888 29.0007C29.5888 29.0007 28.7373 30.2006 27.2345 30.4039C25.7317 30.6071 19.0718 28.9769 18.3204 28.2127C17.569 27.4484 17.3688 27.0933 15.2147 26.5851C13.0606 26.0769 8.20253 22.6172 8.20253 22.6172L5.79883 23.8382" fill="black"/>
<path d="M47.9766 20.0189L33.8664 20.0809C33.5108 20.0597 33.1632 19.9654 32.8446 19.8037C32.3545 19.5688 31.3158 18.9259 30.9986 18.7279C30.9192 18.6764 30.8236 18.6571 30.7308 18.6738C30.6723 18.6857 30.6268 18.7134 30.6515 18.7741C30.6853 18.8547 31.5615 19.6216 31.5615 19.6216L30.0015 19.1213C29.9586 19.1069 29.9131 19.1021 29.8682 19.1073C29.8233 19.1126 29.7801 19.1277 29.7415 19.1517C29.7064 19.1741 29.6804 19.2045 29.6869 19.2414C29.6973 19.3087 30.6307 19.7589 30.6307 19.7589L29.4464 19.5529C29.3923 19.542 29.3361 19.5532 29.2901 19.5841C29.2441 19.615 29.212 19.6631 29.2007 19.7179C29.2001 19.7294 29.2001 19.7408 29.2007 19.7523C29.2007 19.8645 30.8907 20.4123 30.8907 20.4123H29.3307C29.2911 20.4124 29.2521 20.4228 29.2176 20.4424C29.183 20.462 29.1538 20.4903 29.1329 20.5244C29.112 20.5586 29.1 20.5976 29.098 20.6378C29.0959 20.678 29.104 20.718 29.1214 20.7541C29.2098 20.9323 31.5576 20.9944 31.581 21.261C31.6044 21.5277 30.9128 21.5831 30.6788 21.9435C30.6455 21.9832 30.6225 22.0308 30.6119 22.0819C30.6013 22.1329 30.6034 22.1859 30.618 22.2359C30.6325 22.286 30.6592 22.3315 30.6954 22.3685C30.7317 22.4055 30.7765 22.4327 30.8257 22.4477C31.0649 22.1573 31.9827 21.9197 31.9827 21.9197L33.4127 21.9963L46.7728 23.9287L48.8307 22.6008L49.6224 21.1488L47.9766 20.0189Z" fill="#FFBE9D"/>
<path d="M44.5036 19.9707L30.0957 22.8747C29.7282 22.9256 29.3543 22.8996 28.9972 22.7981C28.4499 22.6569 27.2643 22.2081 26.9003 22.0695C26.8093 22.0325 26.7078 22.0325 26.6169 22.0695C26.5597 22.0933 26.5181 22.1302 26.5558 22.187C26.5935 22.2437 27.6543 22.8681 27.6543 22.8681L25.9643 22.6727C25.9177 22.6668 25.8704 22.6711 25.8256 22.6852C25.7807 22.6993 25.7394 22.723 25.7043 22.7546C25.6886 22.7663 25.6766 22.7824 25.6697 22.8009C25.6627 22.8194 25.6612 22.8395 25.6653 22.8589C25.69 22.9262 26.7313 23.1968 26.7313 23.1968L25.4807 23.2258C25.4522 23.2255 25.424 23.2308 25.3976 23.2416C25.3712 23.2524 25.3471 23.2684 25.3269 23.2886C25.3066 23.3088 25.2904 23.333 25.2793 23.3596C25.2682 23.3862 25.2624 23.4147 25.2623 23.4436C25.2615 23.4551 25.2615 23.4665 25.2623 23.4779C25.2909 23.5915 27.1252 23.8159 27.1252 23.8159L25.5353 24.1287C25.494 24.1364 25.4554 24.1547 25.4232 24.182C25.391 24.2093 25.3663 24.2446 25.3515 24.2845C25.3367 24.3244 25.3323 24.3674 25.3388 24.4095C25.3453 24.4516 25.3623 24.4913 25.3884 24.5247C25.5184 24.6884 27.9247 24.2792 28.0014 24.5471C28.0781 24.8151 27.3813 25.0105 27.2123 25.4263C27.1862 25.4737 27.1721 25.527 27.1712 25.5813C27.1704 25.6356 27.1828 25.6893 27.2074 25.7376C27.232 25.7859 27.268 25.8272 27.3122 25.8578C27.3564 25.8885 27.4074 25.9076 27.4606 25.9133C27.6491 25.5675 28.5409 25.1411 28.5409 25.1411L30.0125 24.9326L44.0421 24.2171L45.8868 22.4457L46.4068 20.797L44.5036 19.9707Z" fill="#FFBE9D"/>
<path d="M39.3614 20.9877C39.3307 20.998 39.2995 21.0064 39.2678 21.0128L38.9974 21.0748L38.0029 21.286L34.7126 21.946L31.4223 22.606L30.4265 22.8093L30.1548 22.8621C30.1231 22.8695 30.091 22.8743 30.0586 22.8766C30.0888 22.8642 30.1202 22.8549 30.1522 22.8489L30.42 22.7829C30.654 22.7275 30.9933 22.6509 31.4132 22.5585C32.2517 22.3737 33.4139 22.1308 34.6996 21.8748L37.9938 21.2332L38.9922 21.0432L39.2652 20.9943C39.2969 20.9885 39.3292 20.9863 39.3614 20.9877Z" fill="#EB996E"/>
<path d="M48.7721 13.3252C48.7518 13.4579 48.696 13.5824 48.6107 13.6851C48.5254 13.7877 48.4139 13.8646 48.2885 13.9073C48.1455 13.9535 47.9895 13.9522 47.8491 14.005C47.7087 14.0578 47.5761 14.1964 47.6073 14.3456C47.6294 14.4578 47.7308 14.5317 47.814 14.6096C47.8972 14.6874 47.9726 14.8062 47.9232 14.9092C47.8738 15.0122 47.7087 15.0306 47.6242 15.123C47.5862 15.1769 47.5674 15.2423 47.5707 15.3084C47.574 15.3746 47.5993 15.4377 47.6424 15.4874C47.7306 15.5852 47.8332 15.6684 47.9466 15.7342C48.0602 15.8022 48.1432 15.9126 48.178 16.0418" fill="#263238"/>
<path d="M53.9046 15.6519C54.2946 14.8361 54.0203 13.8118 53.4314 13.132C52.8425 12.4522 51.9897 12.0628 51.1343 11.812C51.0108 11.775 50.8587 11.7486 50.7716 11.8437C50.7383 11.8902 50.722 11.947 50.7256 12.0043C50.7292 12.0617 50.7523 12.116 50.7911 12.1578C50.871 12.239 50.9692 12.2992 51.0771 12.3334C50.7329 12.1466 50.3526 12.0385 49.963 12.0166C49.8279 12.0052 49.6925 12.0336 49.573 12.0984C49.5135 12.1325 49.4662 12.1849 49.438 12.248C49.4097 12.3111 49.4019 12.3817 49.4157 12.4496C49.4256 12.4817 49.4428 12.511 49.4658 12.5353C49.4889 12.5595 49.5172 12.5779 49.5485 12.589C49.5798 12.6002 49.6133 12.6038 49.6462 12.5995C49.6791 12.5952 49.7105 12.5832 49.7381 12.5644C49.3674 12.5205 48.9931 12.6067 48.6773 12.8086C48.4524 12.9525 48.2496 13.2046 48.3003 13.4686C48.3315 13.623 48.4433 13.7484 48.4927 13.8989C48.5811 14.1722 48.4459 14.4626 48.3406 14.7318C48.1645 15.1474 48.0987 15.6024 48.1495 16.0518C48.1784 16.2718 48.254 16.4828 48.3712 16.6702C48.4884 16.8575 48.6443 17.0168 48.8281 17.1369" fill="#263238"/>
<path d="M52.2629 13.0505L52.1329 13.0043C51.8071 12.9033 51.4648 12.8697 51.126 12.9054C50.7872 12.9411 50.4589 13.0455 50.1606 13.2122C49.8622 13.379 49.5997 13.6047 49.3888 13.8762C49.1778 14.1477 49.0226 14.4594 48.9323 14.7929L47.3047 20.2656L50.1504 22.7102L51.0214 20.4148C51.0214 20.4148 52.3877 20.6959 52.8817 19.3904C53.1196 18.7595 53.507 17.4197 53.8437 16.2026C54.0194 15.5717 53.9542 14.8966 53.6612 14.3123C53.3681 13.7279 52.8688 13.2773 52.2629 13.0505Z" fill="#FFBE9D"/>
<path d="M51.0301 20.3973C50.4296 20.185 49.9051 19.7957 49.5234 19.2793C49.5234 19.2793 49.5767 20.3723 50.9092 20.7379L51.0301 20.3973Z" fill="#EB996E"/>
<path d="M50.8319 13.7969C50.7279 13.5593 50.5979 13.0431 50.4185 12.857C50.2391 12.6709 49.9466 12.725 49.6983 12.7989C49.5709 12.8356 49.4539 12.9027 49.3571 12.9945C49.2603 13.0864 49.1866 13.2003 49.1419 13.3269C48.7948 14.2721 48.7519 15.1657 48.4854 16.0989C48.463 16.1592 48.4572 16.2244 48.4685 16.2877C48.5153 16.4461 48.6869 16.5029 48.8481 16.5279C49.2446 16.59 49.45 16.2969 49.6398 15.9445C49.7049 15.7288 49.7527 15.5081 49.7828 15.2845C49.8094 14.9765 49.9143 14.6807 50.0873 14.4262C50.2602 14.1717 50.4953 13.9671 50.7695 13.8325L50.8319 13.7969Z" fill="#263238"/>
<path d="M49.1553 15.5503C49.1371 15.5318 48.3649 14.9497 48.0672 15.8578C47.7695 16.766 48.7263 16.8821 48.7367 16.8557C48.7471 16.8293 49.1553 15.5503 49.1553 15.5503Z" fill="#FFBE9D"/>
<path d="M48.5766 16.4204C48.5766 16.4204 48.5584 16.4204 48.5272 16.4296C48.485 16.4327 48.4432 16.4195 48.4102 16.3927C48.3647 16.3358 48.335 16.2677 48.3241 16.1953C48.3131 16.123 48.3213 16.0489 48.3478 15.9808C48.371 15.9023 48.4114 15.83 48.4661 15.7696C48.4836 15.7442 48.5069 15.7234 48.5341 15.7091C48.5613 15.6949 48.5915 15.6876 48.6221 15.6878C48.6417 15.6889 48.6604 15.6971 48.6746 15.7109C48.6889 15.7247 48.6979 15.7431 48.7001 15.763C48.7001 15.7921 48.6923 15.8079 48.7001 15.8105C48.7079 15.8132 48.7248 15.8026 48.73 15.763C48.7321 15.7389 48.7261 15.7147 48.7131 15.6944C48.6944 15.6675 48.6666 15.6487 48.6351 15.6416C48.5958 15.6364 48.556 15.6416 48.5193 15.6566C48.4827 15.6717 48.4504 15.696 48.4258 15.7274C48.362 15.7929 48.3147 15.873 48.288 15.961C48.2347 16.1458 48.2698 16.3491 48.3868 16.4309C48.4087 16.4458 48.4335 16.4557 48.4596 16.4598C48.4856 16.4639 48.5122 16.4622 48.5376 16.4547C48.5688 16.4375 48.5792 16.423 48.5766 16.4204Z" fill="#EB996E"/>
<path d="M50.4849 13.991C50.9282 13.6887 51.3819 13.8431 51.6835 14.024C51.9851 14.2048 52.2425 14.4622 52.5532 14.6285C52.8639 14.7948 53.2708 14.8529 53.5503 14.6378C53.6478 14.55 53.7265 14.4428 53.7818 14.323C53.837 14.2031 53.8675 14.0731 53.8714 13.9408C53.8929 13.6873 53.8648 13.432 53.7887 13.1896C53.7126 12.9472 53.59 12.7225 53.4281 12.5284C53.3423 12.4281 53.2123 12.3291 53.0927 12.3819C52.9445 12.4479 52.9627 12.6657 53.0121 12.8228C53.0121 12.8228 51.5106 12.2472 50.5889 12.5588C49.6672 12.8703 50.4849 13.991 50.4849 13.991Z" fill="#263238"/>
<path d="M51.0678 11.7881C51.0769 11.7881 51.0847 11.8528 51.1302 11.9636C51.2001 12.1163 51.2965 12.2549 51.4149 12.3728C51.5892 12.5486 51.7908 12.6939 52.0116 12.8032C52.1413 12.8677 52.2784 12.9156 52.4198 12.9457C52.568 12.98 52.7253 13.0051 52.8852 13.0513C53.0446 13.0919 53.1927 13.1692 53.3181 13.277C53.4332 13.381 53.5223 13.5113 53.5781 13.6572C53.6283 13.789 53.6457 13.9314 53.6288 14.0717C53.608 14.2204 53.546 14.36 53.45 14.4743C53.354 14.5886 53.228 14.6728 53.0867 14.7172C53.0418 14.7301 52.9955 14.7372 52.9489 14.7383C52.9177 14.7383 52.9008 14.7383 52.9008 14.7383C52.9008 14.7383 52.9671 14.7304 53.0776 14.6908C53.2313 14.6318 53.3622 14.5239 53.4507 14.3832C53.512 14.2884 53.5508 14.1804 53.5638 14.0677C53.577 13.9385 53.5587 13.8079 53.5105 13.6876C53.4575 13.554 53.3742 13.4351 53.2674 13.3404C53.1493 13.2385 53.0096 13.1657 52.8592 13.1279C52.7058 13.083 52.5498 13.0579 52.399 13.0223C52.2539 12.9904 52.1132 12.9403 51.9804 12.8731C51.7535 12.7577 51.5485 12.6027 51.3746 12.4151C51.2555 12.2896 51.1626 12.141 51.1016 11.9782C51.0875 11.9352 51.077 11.891 51.0704 11.8462C51.0665 11.8052 51.0652 11.7881 51.0678 11.7881Z" fill="#455A64"/>
<path d="M50.0699 12.0537C50.0777 12.0537 50.092 12.121 50.1414 12.2359C50.216 12.3946 50.3202 12.5371 50.4482 12.6556C50.6402 12.8293 50.8655 12.961 51.1099 13.0424C51.4121 13.141 51.721 13.2169 52.0342 13.2694C52.3539 13.3194 52.6657 13.4126 52.9611 13.5466C53.0946 13.6131 53.2012 13.7246 53.2627 13.8621C53.3084 13.9846 53.3147 14.1186 53.2809 14.2449C53.2285 14.4235 53.1127 14.5759 52.9559 14.6726C52.915 14.7 52.8715 14.7231 52.8259 14.7412C52.7947 14.7544 52.7778 14.7584 52.7765 14.7558C52.7752 14.7531 52.8376 14.7214 52.9364 14.6475C53.0768 14.547 53.1784 14.4 53.2237 14.2317C53.2522 14.1176 53.2436 13.9972 53.199 13.8885C53.1418 13.7667 53.0448 13.6688 52.9247 13.6113C52.6335 13.4848 52.3277 13.3961 52.0147 13.3473C51.6974 13.2952 51.3848 13.217 51.08 13.1137C50.8281 13.0255 50.5976 12.8837 50.404 12.6979C50.2751 12.5714 50.1745 12.4184 50.1089 12.2491C50.0915 12.2029 50.0784 12.1552 50.0699 12.1065C50.0686 12.0722 50.0673 12.055 50.0699 12.0537Z" fill="#455A64"/>
<path d="M53.2941 17.0118C53.2603 17.0303 53.1472 16.86 52.9301 16.7822C52.713 16.7043 52.5167 16.7571 52.5024 16.7214C52.4881 16.6858 52.5375 16.6673 52.6246 16.6409C52.7417 16.6085 52.8658 16.6141 52.9795 16.6568C53.0921 16.6966 53.1892 16.772 53.2564 16.8719C53.3045 16.9485 53.311 17.0039 53.2941 17.0118Z" fill="#263238"/>
<path d="M51.2243 16.3675C51.1892 16.3846 51.0774 16.2157 50.8603 16.1378C50.6432 16.0599 50.4456 16.1127 50.4326 16.0771C50.4248 16.0612 50.4664 16.0229 50.5548 15.9965C50.6713 15.9643 50.7948 15.9694 50.9084 16.0111C51.0212 16.0518 51.1185 16.1275 51.1866 16.2275C51.2347 16.3054 51.2399 16.3595 51.2243 16.3675Z" fill="#263238"/>
<path d="M51.4297 17.8981C51.5561 17.9026 51.6815 17.9235 51.8028 17.9601C51.8613 17.9746 51.9172 17.9826 51.9393 17.9469C51.9646 17.8908 51.9723 17.8281 51.9614 17.7674C51.9614 17.613 51.9523 17.4506 51.9471 17.2816C51.9341 16.59 51.9471 16.0303 51.9718 16.0303C51.9965 16.0303 52.0329 16.59 52.0472 17.2803C52.0472 17.4506 52.0472 17.6116 52.0472 17.7674C52.0581 17.8473 52.0411 17.9286 51.9991 17.9971C51.9842 18.0141 51.9657 18.0274 51.945 18.0361C51.9242 18.0448 51.9019 18.0486 51.8795 18.0472C51.8459 18.044 51.8127 18.0369 51.7807 18.0261C51.6588 17.9988 51.5408 17.9557 51.4297 17.8981Z" fill="#263238"/>
<path d="M50.7419 17.8211C50.7783 17.8317 50.6951 18.0706 50.8368 18.3122C50.9785 18.5537 51.2385 18.6184 51.2268 18.6527C51.2151 18.687 51.1553 18.6791 51.0487 18.6435C50.9102 18.5958 50.7928 18.4999 50.7172 18.3729C50.6443 18.2511 50.621 18.1053 50.6522 17.9663C50.6795 17.8634 50.7263 17.8132 50.7419 17.8211Z" fill="#263238"/>
<path d="M51.5757 15.1423C51.5328 15.1938 51.3261 15.0882 51.0622 15.0275C50.7983 14.9668 50.5669 14.9628 50.5513 14.8955C50.5448 14.8638 50.6007 14.8216 50.7034 14.7925C50.8389 14.7613 50.9796 14.7619 51.1148 14.7944C51.25 14.8269 51.3761 14.8904 51.4834 14.98C51.5588 15.0526 51.5939 15.1173 51.5757 15.1423Z" fill="#263238"/>
<path d="M53.508 16.0416C53.4521 16.0772 53.3221 15.9716 53.1427 15.9096C52.9633 15.8476 52.7995 15.8238 52.7839 15.7591C52.7774 15.7274 52.8177 15.6865 52.9009 15.6628C53.0101 15.6384 53.1239 15.6475 53.2281 15.6889C53.3322 15.7302 53.4219 15.802 53.4859 15.8951C53.5262 15.969 53.5288 16.0284 53.508 16.0416Z" fill="#263238"/>
<path d="M50.4569 21.9532C50.5245 22.3149 50.6207 24.8321 50.4374 25.8525C50.0942 27.748 47.5189 31.9245 47.3512 32.2584C47.2524 32.4538 45.1191 37.413 45.1191 37.413C45.1191 37.413 35.8319 34.4839 35.3691 32.0961C35.3691 32.0961 38.506 29.7201 39.2808 28.9967C39.4342 28.8515 42.2773 23.8804 42.2773 23.8804L43.992 20.8708C43.992 20.8708 45.318 19.5508 46.0018 19.5508H47.5072L50.4569 21.9532Z" fill="#BB2C75"/>
<path opacity="0.4" d="M35.3652 32.0967C35.3652 32.0967 36.4585 32.1838 39.5122 33.9222C42.5659 35.6607 43.3706 36.1662 43.3706 36.1662L37.1085 33.9394C37.1085 33.9394 35.4783 32.9652 35.3652 32.0967Z" fill="black"/>
<path d="M45.8397 19.5566L44.1315 19.7111L39.2266 20.7314L41.3456 24.7403L46.7549 24.2123C46.7549 24.2123 48.0653 21.5894 47.5791 21.0192C47.0929 20.449 45.8397 19.5566 45.8397 19.5566Z" fill="#BB2C75"/>
<path opacity="0.4" d="M41.8198 24.6943L45.5079 24.3154L41.0762 25.9628L41.8198 24.6943Z" fill="black"/>
<path d="M46.5465 24.2887C46.5465 24.3072 45.5819 24.4207 44.3885 24.5277C43.1951 24.6346 42.224 24.7164 42.2227 24.6979C42.2214 24.6795 43.1873 24.5659 44.382 24.459C45.5767 24.3521 46.5452 24.2703 46.5465 24.2887Z" fill="#263238"/>
<path d="M47.5011 21.964C47.4894 21.964 47.4751 21.8175 47.4127 21.5918C47.2499 20.9985 46.8909 20.4802 46.3961 20.1239C46.2063 19.9919 46.075 19.9259 46.0802 19.9141C46.1144 19.9198 46.1474 19.9314 46.1777 19.9484C46.2627 19.9854 46.3444 20.0296 46.4221 20.0804C46.9463 20.4241 47.319 20.9606 47.4621 21.5773C47.484 21.6691 47.4979 21.7628 47.5037 21.8571C47.509 21.8926 47.5081 21.9288 47.5011 21.964Z" fill="#263238"/>
<path d="M40.2715 29.1506C40.3337 29.1313 40.3978 29.1185 40.4626 29.1124C40.5926 29.0926 40.7629 29.0596 40.9826 29.0107C41.2023 28.9619 41.4571 28.8932 41.7379 28.8022C42.3462 28.601 42.9285 28.3262 43.4721 27.9838C43.7217 27.824 43.9401 27.6709 44.1221 27.5323C44.3041 27.3937 44.4393 27.2776 44.5329 27.1944C44.5802 27.149 44.6311 27.1075 44.685 27.0703C44.6464 27.1225 44.6029 27.1707 44.555 27.2142C44.4653 27.304 44.3301 27.4267 44.1559 27.5706C43.9509 27.7379 43.737 27.8934 43.515 28.0366C43.2422 28.2111 42.9591 28.3685 42.6674 28.5078C42.3746 28.6446 42.0737 28.7628 41.7665 28.8616C41.5153 28.941 41.2602 29.0066 41.0021 29.0582C40.7811 29.1005 40.6017 29.1282 40.4756 29.1388C40.408 29.1486 40.3397 29.1526 40.2715 29.1506Z" fill="#263238"/>
<path d="M40.7891 28.2392C40.7891 28.2167 41.248 28.2114 41.7953 28.0808C42.3426 27.9501 42.7599 27.7521 42.7677 27.7719C42.688 27.832 42.6005 27.8804 42.5077 27.9158C42.0604 28.1115 41.5823 28.2245 41.0959 28.2497C40.9936 28.2601 40.8904 28.2565 40.7891 28.2392Z" fill="#263238"/>
<path d="M45.9695 32.4873C45.9129 32.5208 45.8538 32.5495 45.7927 32.5731C45.6783 32.6246 45.508 32.6919 45.2974 32.7698C44.1912 33.1708 43.0312 33.3978 41.8576 33.443C41.6327 33.4509 41.4507 33.4522 41.3259 33.443C41.2607 33.444 41.1955 33.44 41.1309 33.4311C41.1952 33.4193 41.2605 33.4145 41.3259 33.4166C41.4559 33.4166 41.6327 33.4047 41.855 33.3902C42.4375 33.3533 43.0171 33.2792 43.5905 33.1684C44.1626 33.0554 44.7271 32.9055 45.2805 32.7196C45.4924 32.6483 45.664 32.5876 45.7823 32.5441C45.8425 32.5184 45.9053 32.4994 45.9695 32.4873Z" fill="#263238"/>
<path d="M50.4821 25.5623L47.7703 24.6211C47.3803 26.1695 46.3403 27.4459 45.0273 28.6101L48.3839 30.4502C49.0384 29.2782 49.6312 28.0718 50.1597 26.8361C50.3348 26.4321 50.4437 26.0019 50.4821 25.5623Z" fill="#F5F5F5"/>
<path d="M48.3714 24.3154L48.1426 25.0507L48.5131 25.2289L48.7302 24.4488L48.3714 24.3154Z" fill="#E0E0E0"/>
<path d="M47.8086 28.0638C47.974 28.0463 48.1403 28.0401 48.3065 28.0453L48.9409 26.7583L48.2116 26.3887L48.0556 26.7068L48.3923 26.8784L47.8086 28.0638Z" fill="#BB2C75"/>
<path d="M49.8073 27.6308H49.8255C49.8788 27.4776 49.9386 27.3272 50.0036 27.1793C49.9456 27.1318 49.8829 27.0906 49.8164 27.0566C49.6907 26.9842 49.5494 26.9444 49.4049 26.9407C49.2605 26.937 49.1174 26.9696 48.9883 27.0354L49.182 27.3654C49.2494 27.3304 49.3242 27.3127 49.3999 27.3138C49.4756 27.315 49.5499 27.335 49.6162 27.372C49.7553 27.438 49.8164 27.5252 49.8073 27.6308Z" fill="#BB2C75"/>
<path d="M48.5694 27.978C48.3939 28.007 48.2509 27.9978 48.0793 28.0414L47.9727 28.2525L48.3627 28.4505L48.6006 27.9688L48.5694 27.978Z" fill="#BB2C75"/>
<path d="M49.6098 28.082H49.5864L48.7609 28.3355L48.6309 28.5995L49.199 28.8872C49.2043 28.8692 49.2108 28.8516 49.2185 28.8344C49.2618 28.743 49.3113 28.6548 49.3667 28.5704L49.3394 28.5572L49.3836 28.5427L49.6098 28.082Z" fill="#BB2C75"/>
<path d="M49.3723 27.8008C49.3384 27.8191 49.3021 27.8324 49.2644 27.8404C49.1929 27.8628 49.0902 27.8892 48.9615 27.9196C48.6254 27.9966 48.2851 28.0534 47.9423 28.0899C47.6003 28.1258 47.2565 28.1407 46.9127 28.1347C46.7827 28.1347 46.6735 28.1268 46.5994 28.1202C46.5612 28.1208 46.523 28.1154 46.4863 28.1044C46.6275 28.0893 46.7695 28.0831 46.9114 28.0859C47.1714 28.0793 47.5367 28.0621 47.9358 28.0212C48.3349 27.9803 48.6924 27.9196 48.9511 27.8721C49.0899 27.8392 49.2306 27.8154 49.3723 27.8008Z" fill="#263238"/>
<path d="M42.9948 36.8145C42.9233 37.0323 37.3411 45.5397 32.5454 47.2847L30.4654 46.9574L19.4414 43.6574L20.6582 40.5316L30.9659 42.7848L35.7044 37.3346L37.1344 33.5752L42.9948 36.8145Z" fill="#FFBE9D"/>
<path d="M20.0918 43.8472L24.6847 45.2213L25.7663 41.6402L20.7119 40.4258L20.0918 43.8472Z" fill="#455A64"/>
<path d="M20.2712 43.8089L20.1867 43.8235C20.1867 43.8235 17.5048 46.6918 16.8691 46.4635L19.6485 39.874L21.3489 40.604L21.1916 40.8218C20.5637 41.6943 20.2972 42.7279 20.2712 43.8089Z" fill="#BB2C75"/>
<g opacity="0.6">
<path d="M20.7094 41.2243C20.7172 41.1526 20.6987 41.0806 20.6574 41.0219C20.6162 40.9632 20.555 40.922 20.4858 40.9062C20.4155 40.896 20.3441 40.9134 20.2861 40.9548C20.2282 40.9963 20.188 41.0587 20.1738 41.1293C20.1654 41.2053 20.1852 41.2819 20.2295 41.3439C20.2737 41.4059 20.3391 41.4489 20.413 41.4645C20.4866 41.4676 20.5585 41.4419 20.6141 41.3929C20.6697 41.3438 20.7047 41.275 20.712 41.2005" fill="white"/>
</g>
<g opacity="0.6">
<path d="M19.6472 39.8711L20.1672 40.1179L17.3072 46.3431C17.3072 46.3431 17.0576 46.582 16.8691 46.4605L19.6472 39.8711Z" fill="white"/>
</g>
<path d="M20.175 43.9443C20.1438 43.9298 20.1971 43.7621 20.162 43.5602C20.1269 43.3582 20.032 43.2157 20.0541 43.1906C20.0762 43.1655 20.2426 43.2949 20.2803 43.5404C20.318 43.7859 20.201 43.9641 20.175 43.9443Z" fill="#263238"/>
<path d="M19.6009 44.5139C19.5671 44.5073 19.5723 44.345 19.4839 44.1773C19.3955 44.0097 19.2681 43.9133 19.2824 43.8856C19.2967 43.8579 19.4852 43.912 19.5905 44.1219C19.6958 44.3318 19.6321 44.5258 19.6009 44.5139Z" fill="#263238"/>
<path d="M18.6217 44.5532C18.6282 44.5215 18.805 44.5452 18.9441 44.7036C19.0832 44.862 19.0884 45.0416 19.0559 45.0442C19.0234 45.0468 18.9701 44.9122 18.8544 44.7802C18.7387 44.6482 18.6113 44.5848 18.6217 44.5532Z" fill="#263238"/>
<path d="M20.2285 43.8813C20.2454 43.7607 20.2944 43.647 20.3702 43.5526C20.4413 43.4425 20.525 43.3415 20.6198 43.2516C20.676 43.1989 20.736 43.1504 20.7992 43.1064C20.8347 43.0776 20.8747 43.0548 20.9175 43.0391C20.9489 43.0277 20.9831 43.0273 21.0147 43.0381C21.0464 43.0489 21.0735 43.0702 21.0917 43.0985C21.1073 43.124 21.1166 43.1528 21.1189 43.1827C21.1212 43.2126 21.1163 43.2426 21.1047 43.2701C21.0883 43.3125 21.065 43.3518 21.0358 43.3863C20.9892 43.4496 20.937 43.5084 20.8798 43.5618C20.7836 43.6519 20.6739 43.7259 20.5548 43.781C20.4502 43.8426 20.3295 43.8702 20.209 43.8602C20.209 43.8404 20.339 43.81 20.5158 43.7044C20.6208 43.6426 20.7177 43.5676 20.8044 43.4813C20.8538 43.4298 20.8995 43.3747 20.9409 43.3163C20.989 43.2543 21.0137 43.1949 20.9916 43.1645C20.9695 43.1342 20.9786 43.15 20.9513 43.1553C20.9205 43.1673 20.8916 43.1838 20.8655 43.2041C20.8058 43.2447 20.7485 43.2888 20.6939 43.3361C20.599 43.4154 20.5119 43.5038 20.4339 43.6001C20.3 43.7691 20.2389 43.8932 20.2285 43.8813Z" fill="#263238"/>
<path d="M20.1954 43.8197C20.3146 43.7978 20.4376 43.8154 20.5463 43.8698C20.669 43.9163 20.7828 43.9837 20.883 44.0691C20.9422 44.1203 20.9962 44.1774 21.0442 44.2394C21.0799 44.2755 21.1056 44.3205 21.1188 44.3698C21.132 44.4191 21.1323 44.4711 21.1197 44.5206C21.1071 44.5499 21.0863 44.5748 21.06 44.5924C21.0337 44.61 21.0029 44.6194 20.9715 44.6196C20.9275 44.6197 20.8837 44.6135 20.8415 44.6011C20.7642 44.5811 20.6906 44.549 20.623 44.5061C20.5087 44.4355 20.4135 44.3371 20.3461 44.2196C20.233 44.0177 20.2512 43.8672 20.2629 43.8685C20.3089 43.9725 20.3606 44.0739 20.4176 44.1721C20.486 44.2698 20.5748 44.351 20.6776 44.4097C20.7369 44.4441 20.8009 44.4695 20.8674 44.4849C20.9415 44.5047 21.0078 44.5034 21.0117 44.4744C21.0142 44.4447 21.0103 44.4149 21.0004 44.3869C20.9906 44.3589 20.9749 44.3334 20.9545 44.312C20.9121 44.255 20.8647 44.202 20.8128 44.1536C20.7234 44.0718 20.6232 44.0029 20.5151 43.949C20.3253 43.8566 20.1928 43.8395 20.1954 43.8197Z" fill="#263238"/>
<path d="M25.2178 41.6055C25.2147 41.6506 25.205 41.6951 25.1892 41.7375C25.1606 41.8365 25.1255 41.9566 25.0852 42.0978L24.7329 43.2858C24.6029 43.7412 24.4729 44.1531 24.3832 44.4738C24.3403 44.6137 24.3039 44.7378 24.2727 44.8329C24.2633 44.8791 24.2471 44.9236 24.2246 44.9649C24.2272 44.9201 24.235 44.8758 24.248 44.8329C24.2675 44.7457 24.2974 44.6203 24.3364 44.4672C24.4144 44.1597 24.5301 43.7359 24.6679 43.2726C24.8057 42.8093 24.9383 42.3909 25.0397 42.0846C25.0904 41.9341 25.132 41.8127 25.1632 41.7295C25.1766 41.6862 25.1949 41.6445 25.2178 41.6055Z" fill="#FAFAFA"/>
<path d="M24.794 41.6055C24.7891 41.6505 24.7791 41.6948 24.7641 41.7375C24.7355 41.8365 24.7017 41.9566 24.6601 42.0978L24.3078 43.2858C24.1778 43.7412 24.0478 44.1531 23.9581 44.4738L23.8489 44.8329C23.8379 44.8786 23.8218 44.9229 23.8008 44.9649C23.8024 44.9201 23.8098 44.8757 23.8229 44.8329C23.8424 44.7457 23.8723 44.6203 23.9126 44.4672C23.9906 44.1597 24.1063 43.7359 24.2428 43.2726C24.3793 42.8093 24.5132 42.3909 24.6146 42.0846C24.6653 41.9341 24.7082 41.8127 24.7446 41.7295C24.7563 41.6864 24.7729 41.6448 24.794 41.6055Z" fill="#FAFAFA"/>
<path d="M43.8701 36.501C44.0846 36.6462 51.4439 44.2362 51.5869 44.817C51.7299 45.3978 54.3078 57.027 54.3078 57.027L51.8027 57.753C51.8027 57.753 48.2927 50.7755 48.2927 50.5577C48.2927 50.3399 47.1045 47.1257 47.1045 47.1257L42.6403 43.1406L37.9863 38.8532L43.8701 36.501Z" fill="#FFBE9D"/>
<path d="M55.1644 57.8637L53.5836 53.2754L50.0879 54.4713L52.0652 59.3474L55.1644 57.8637Z" fill="#455A64"/>
<path d="M55.0281 57.7383L55.0892 57.799C55.0892 57.799 58.9476 58.3389 59.1335 58.9976L52.2435 60.5486L51.834 58.7217H52.1005C53.1652 58.7309 54.1467 58.3481 55.0281 57.7383Z" fill="#BB2C75"/>
<g opacity="0.6">
<path d="M52.7055 58.8843C52.6435 58.9197 52.5966 58.9772 52.5738 59.0457C52.551 59.1142 52.5539 59.1888 52.582 59.2552C52.6137 59.32 52.6689 59.37 52.736 59.3946C52.8031 59.4191 52.8769 59.4165 52.9421 59.3872C53.0086 59.3496 53.0589 59.2882 53.083 59.2149C53.107 59.1415 53.1032 59.0617 53.0721 58.9912C53.0313 58.9278 52.9679 58.8828 52.8952 58.8659C52.8225 58.8489 52.7461 58.8611 52.6821 58.9001" fill="white"/>
</g>
<g opacity="0.6">
<path d="M52.242 60.5491L52.1367 59.9789L58.7836 58.7051C58.7836 58.7051 59.1203 58.7711 59.1333 58.9981L52.242 60.5491Z" fill="white"/>
</g>
<path d="M55.1995 57.7387C55.206 57.773 55.0409 57.8258 54.8992 57.9736C54.7575 58.1215 54.7003 58.2838 54.6665 58.2772C54.6327 58.2706 54.6392 58.0621 54.8147 57.8812C54.9902 57.7004 55.1995 57.7057 55.1995 57.7387Z" fill="#263238"/>
<path d="M55.9785 57.8851C55.9928 57.9155 55.8602 58.0066 55.777 58.1768C55.6938 58.3471 55.6951 58.5082 55.6613 58.5134C55.6275 58.5187 55.5638 58.3313 55.6704 58.1174C55.777 57.9036 55.9785 57.8468 55.9785 57.8851Z" fill="#263238"/>
<path d="M56.5847 58.6652C56.5561 58.6798 56.4716 58.5187 56.5171 58.3128C56.5626 58.1069 56.7043 57.996 56.7238 58.0211C56.7433 58.0462 56.6692 58.1689 56.6341 58.3392C56.599 58.5095 56.6172 58.6547 56.5847 58.6652Z" fill="#263238"/>
<path d="M55.1144 57.736C55.0077 57.7917 54.8884 57.8177 54.7686 57.8112C54.6378 57.8175 54.5068 57.8068 54.3786 57.7796C54.3035 57.7645 54.2296 57.7438 54.1576 57.7175C54.114 57.7052 54.0727 57.6856 54.0354 57.6594C54.0082 57.64 53.988 57.6121 53.9779 57.5799C53.9678 57.5477 53.9684 57.5131 53.9795 57.4812C53.9915 57.4538 54.0094 57.4295 54.0319 57.4101C54.0544 57.3906 54.0809 57.3766 54.1095 57.369C54.1521 57.359 54.1959 57.3554 54.2395 57.3585C54.3173 57.3596 54.3948 57.3684 54.4709 57.3849C54.5985 57.4125 54.7213 57.4596 54.8349 57.5248C55.0286 57.6396 55.1105 57.7545 55.0949 57.7637C55.0793 57.773 54.9818 57.6898 54.792 57.6014C54.6811 57.5517 54.5645 57.5162 54.4449 57.4958C54.3749 57.4834 54.304 57.4772 54.233 57.4773C54.1563 57.4773 54.0939 57.4878 54.0822 57.5248C54.0822 57.5393 54.0822 57.5446 54.0991 57.5631C54.1268 57.5815 54.1571 57.5957 54.1888 57.6053C54.2556 57.6321 54.3242 57.6537 54.3942 57.67C54.5126 57.7005 54.6336 57.7191 54.7556 57.7254C54.8753 57.7203 54.9952 57.7238 55.1144 57.736Z" fill="#263238"/>
<path d="M55.08 57.7939C55.0696 57.8018 54.976 57.6949 54.9149 57.4758C54.8805 57.3469 54.8682 57.2129 54.8785 57.0798C54.8851 57.0008 54.8991 56.9225 54.9201 56.8462C54.9286 56.7958 54.9499 56.7485 54.9818 56.7089C55.0137 56.6694 55.0551 56.6389 55.1021 56.6204C55.1328 56.6142 55.1647 56.617 55.1939 56.6284C55.2232 56.6399 55.2486 56.6595 55.2672 56.6851C55.2939 56.7224 55.3153 56.7633 55.3309 56.8066C55.3598 56.8818 55.3773 56.961 55.3829 57.0415C55.3924 57.1773 55.3687 57.3133 55.314 57.4375C55.2191 57.6487 55.0878 57.7213 55.0826 57.7108C55.1387 57.612 55.1894 57.5102 55.2347 57.4058C55.2729 57.2922 55.2858 57.1714 55.2724 57.0521C55.2648 56.9831 55.2477 56.9156 55.2217 56.8514C55.1944 56.7788 55.1541 56.7194 55.1281 56.7392C55.1021 56.759 55.0475 56.8158 55.0332 56.8805C55.0119 56.9489 54.9971 57.0191 54.989 57.0904C54.9753 57.2116 54.9784 57.3343 54.9981 57.4547C55.0332 57.6646 55.0969 57.7847 55.08 57.7939Z" fill="#263238"/>
<path d="M50.3789 54.9445C50.4196 54.9203 50.4634 54.9017 50.5089 54.8891L50.8586 54.765L52.013 54.3624L53.1687 53.9585L53.5197 53.8384C53.5616 53.8217 53.6052 53.8098 53.6497 53.8027C53.6121 53.8289 53.5709 53.8494 53.5275 53.8635C53.4469 53.8991 53.3286 53.9466 53.183 54.0034C52.8918 54.1182 52.4862 54.2674 52.0338 54.4271C51.5814 54.5868 51.168 54.7175 50.869 54.8112L50.5128 54.9155C50.4694 54.9303 50.4245 54.94 50.3789 54.9445Z" fill="#FAFAFA"/>
<path d="M50.627 55.2928C50.6678 55.2691 50.7115 55.2509 50.757 55.2387L51.1054 55.1133L52.2611 54.7107L53.4155 54.3068C53.5533 54.2606 53.6755 54.221 53.7665 54.1867C53.8081 54.1693 53.8518 54.1578 53.8965 54.1523C53.8582 54.1771 53.8172 54.197 53.7743 54.2117C53.6937 54.2474 53.5754 54.2949 53.4298 54.353C53.1373 54.4665 52.7317 54.617 52.2806 54.7767C51.8295 54.9364 51.4174 55.0671 51.1184 55.1595C50.9676 55.2057 50.8467 55.2413 50.7622 55.2638C50.7183 55.2787 50.673 55.2884 50.627 55.2928Z" fill="#FAFAFA"/>
<path d="M37.1439 33.5681C37.1439 33.5681 33.2114 38.5841 32.2715 38.9801C31.9712 39.1121 33.0515 40.3912 33.0515 40.3912L33.5858 39.7774C35.2836 40.6842 36.5979 41.8722 37.9499 43.542L40.2899 41.306L42.2607 43.9552L47.8702 40.4308L45.1155 37.4186C45.1155 37.4186 41.404 34.0222 38.0552 33.1114C38.0578 33.1061 37.6704 33.1035 37.1439 33.5681Z" fill="#263238"/>
<path d="M43.1629 38.085C43.15 38.1073 43.1347 38.1281 43.1174 38.147L42.9783 38.3186C42.8548 38.4651 42.6741 38.6737 42.4492 38.9311C41.9981 39.4446 41.3676 40.1468 40.6526 40.9111C39.9376 41.6754 39.2759 42.3433 38.778 42.8119C38.5284 43.0442 38.3256 43.2316 38.1787 43.3544L38.0097 43.497C37.9912 43.515 37.9701 43.5301 37.9473 43.5418C37.963 43.5214 37.9808 43.5028 38.0006 43.4864L38.1605 43.3346C38.3009 43.2026 38.4985 43.0138 38.7442 42.7776C39.2317 42.301 39.8895 41.6252 40.6032 40.8649C41.3169 40.1046 41.9526 39.4129 42.4115 38.9034L42.9575 38.3054L43.107 38.1444C43.1236 38.1227 43.1423 38.1028 43.1629 38.085Z" fill="#455A64"/>
<path d="M37.9941 43.4576C37.9941 43.4576 37.9733 43.4417 37.9395 43.4061L37.7965 43.249C37.673 43.117 37.491 42.9164 37.2609 42.6801C37.0308 42.4438 36.75 42.1693 36.4289 41.8762C36.1078 41.5832 35.7399 41.2756 35.3421 40.9681C34.9443 40.6605 34.5517 40.3912 34.1877 40.1523C33.8237 39.9134 33.487 39.7167 33.1997 39.557C32.9124 39.3973 32.6797 39.2719 32.5146 39.1887L32.3274 39.091C32.305 39.0803 32.2837 39.0675 32.2637 39.0527C32.2877 39.0579 32.3108 39.0663 32.3326 39.0778L32.5263 39.1649C32.694 39.2402 32.9319 39.359 33.2231 39.5147C33.5143 39.6705 33.8523 39.8659 34.2215 40.0995C34.5907 40.3331 34.9833 40.6077 35.3837 40.9139C35.7841 41.2202 36.1468 41.5343 36.4705 41.8287C36.7942 42.1231 37.0711 42.4029 37.296 42.6458C37.5209 42.8887 37.699 43.088 37.816 43.2319L37.946 43.3969C37.9644 43.415 37.9806 43.4354 37.9941 43.4576Z" fill="#455A64"/>
<path d="M40.1556 33.8057C40.1401 33.8299 40.1227 33.8529 40.1036 33.8743L39.945 34.0644L39.3561 34.76C38.8595 35.3474 38.1796 36.1632 37.4464 37.0793C36.7132 37.9953 36.0671 38.8415 35.603 39.4553L35.0544 40.1839L34.9036 40.3806C34.8865 40.4039 34.8678 40.426 34.8477 40.4466C34.8603 40.42 34.8755 40.3948 34.8932 40.3713C34.9296 40.3199 34.9764 40.2512 35.0336 40.1667C35.1571 39.9899 35.3378 39.7364 35.5653 39.4262C36.019 38.8032 36.6599 37.9544 37.3944 37.037C38.1289 36.1196 38.8179 35.3131 39.3197 34.7283C39.5732 34.4379 39.7799 34.2003 39.9255 34.0472L40.0932 33.8651C40.1114 33.8426 40.1323 33.8227 40.1556 33.8057Z" fill="#FAFAFA"/>
<path d="M39.729 33.7793C39.7134 33.8026 39.696 33.8247 39.677 33.8453L39.5171 34.0288L38.923 34.6888C38.4225 35.2511 37.7361 36.0339 36.9964 36.913C36.2567 37.7921 35.6002 38.6131 35.1296 39.2005L34.5745 39.8988C34.5121 39.9767 34.4614 40.0401 34.4211 40.0876C34.4047 40.1106 34.386 40.1318 34.3652 40.1509C34.3769 40.1251 34.3923 40.1011 34.4107 40.0797L34.5537 39.883C34.6837 39.7127 34.8618 39.4685 35.0919 39.1702C35.5534 38.5722 36.2021 37.7565 36.9431 36.876C37.6841 35.9956 38.3731 35.2168 38.8866 34.6624C39.1466 34.3839 39.3494 34.1621 39.4963 34.0103L39.6653 33.8361C39.6838 33.8142 39.7053 33.7951 39.729 33.7793Z" fill="#FAFAFA"/>
<path d="M44.1732 42.5734C44.1576 42.5839 43.6688 41.9134 43.0812 41.0712C42.4936 40.2291 42.0295 39.5413 42.0412 39.5295C42.0529 39.5176 42.5443 40.1895 43.1332 41.0316C43.7221 41.8738 44.1888 42.5734 44.1732 42.5734Z" fill="#455A64"/>
<path d="M50.8094 27.9424C50.7951 28.0942 50.5364 28.4599 50.2166 28.65C49.8596 28.8723 49.4907 29.0741 49.1116 29.2545C48.3901 29.6096 42.752 31.6622 42.752 31.6622L43.2486 30.5389L43.1264 29.805C44.6799 29.4631 48.9465 28.1708 50.0463 27.429C50.2725 27.2758 50.4233 26.9406 50.2218 26.7082L50.2465 26.629C50.2465 26.629 50.3518 26.6053 50.6859 27.1834C50.8073 27.416 50.8507 27.6825 50.8094 27.9424Z" fill="#BB2C75"/>
<g opacity="0.3">
<path d="M50.8094 27.9424C50.7951 28.0942 50.5364 28.4599 50.2166 28.65C49.8596 28.8723 49.4907 29.0741 49.1116 29.2545C48.3901 29.6096 42.752 31.6622 42.752 31.6622L43.2486 30.5389L43.1264 29.805C44.6799 29.4631 48.9465 28.1708 50.0463 27.429C50.2725 27.2758 50.4233 26.9406 50.2218 26.7082L50.2465 26.629C50.2465 26.629 50.3518 26.6053 50.6859 27.1834C50.8073 27.416 50.8507 27.6825 50.8094 27.9424Z" fill="black"/>
</g>
<path d="M34.5298 30.576L39.9989 29.8936L40.6684 30.2618L39.3918 31.7719C39.3918 31.7719 32.4719 32.3606 30.8118 33.3665C29.2206 34.3274 28.7734 36.751 26.2488 36.9886C23.7242 37.2262 17.349 34.532 16.0815 35.1406L15.3301 33.1302C15.3301 33.1302 19.1313 33.2015 21.9419 34.2311C24.7525 35.2607 25.6404 35.493 27.0782 34.2311C28.516 32.9692 29.7432 31.7627 32.2379 31.1594C33.7602 30.7859 34.5298 30.576 34.5298 30.576Z" fill="#BB2C75"/>
<g opacity="0.3">
<path d="M34.5298 30.576L39.9989 29.8936L40.6684 30.2618L39.3918 31.7719C39.3918 31.7719 32.4719 32.3606 30.8118 33.3665C29.2206 34.3274 28.7734 36.751 26.2488 36.9886C23.7242 37.2262 17.349 34.532 16.0815 35.1406L15.3301 33.1302C15.3301 33.1302 19.1313 33.2015 21.9419 34.2311C24.7525 35.2607 25.6404 35.493 27.0782 34.2311C28.516 32.9692 29.7432 31.7627 32.2379 31.1594C33.7602 30.7859 34.5298 30.576 34.5298 30.576Z" fill="black"/>
</g>
<path d="M29.7402 17.4845C29.7402 17.503 27.6381 17.5188 25.0459 17.5188C22.4537 17.5188 20.3516 17.503 20.3516 17.4845C20.3516 17.466 22.4524 17.4502 25.0459 17.4502C27.6394 17.4502 29.7402 17.466 29.7402 17.4845Z" fill="#455A64"/>
<path d="M23.6763 19.754C23.6763 19.7725 22.6506 19.7884 21.387 19.7884C20.1234 19.7884 19.0977 19.7725 19.0977 19.754C19.0977 19.7356 20.1221 19.7197 21.387 19.7197C22.6519 19.7197 23.6763 19.7369 23.6763 19.754Z" fill="#455A64"/>
<path d="M26.7687 18.6525C26.7687 18.671 22.5645 18.6868 17.3775 18.6868C12.1905 18.6868 7.98633 18.671 7.98633 18.6525C7.98633 18.634 12.1905 18.6182 17.3775 18.6182C22.5645 18.6182 26.7687 18.6327 26.7687 18.6525Z" fill="#455A64"/>
<path d="M43.5468 50.9249C43.5468 50.9447 41.446 50.9593 38.8525 50.9593C36.259 50.9593 34.1582 50.9447 34.1582 50.9249C34.1582 50.9051 36.2603 50.8906 38.8525 50.8906C41.4447 50.8906 43.5468 50.9065 43.5468 50.9249Z" fill="#455A64"/>
<path d="M40.5747 52.0929C40.5747 52.1114 36.3692 52.1272 31.1835 52.1272C25.9978 52.1272 21.791 52.1114 21.791 52.0929C21.791 52.0744 25.9952 52.0586 31.1835 52.0586C36.3718 52.0586 40.5747 52.0771 40.5747 52.0929Z" fill="#455A64"/>
<path d="M10.2903 58.1657C10.3748 57.8331 10.1603 57.4991 9.91854 57.2563C9.67674 57.0134 9.38944 56.7982 9.26854 56.4788C9.06444 55.9613 9.33873 55.2908 8.99163 54.8591C8.78753 54.6057 8.42093 54.5199 8.24023 54.2493C8.15713 54.0989 8.10204 53.9342 8.07773 53.7635C7.88443 52.9036 7.46787 52.1119 6.87133 51.4707C6.83064 52.2371 6.99411 53.0004 7.34453 53.6804C7.48493 53.9523 7.65653 54.2176 7.70333 54.5199C7.77873 55.0123 7.50833 55.5191 7.62793 56.0023C7.76443 56.5553 8.37543 56.9263 8.40793 57.4939C8.43263 57.9743 8.01793 58.3967 8.05043 58.8772C8.07504 59.0816 8.14723 59.2771 8.26103 59.4475C8.62763 60.0652 9.17103 60.4916 9.98093 60.4784L10.9793 60.5127L10.2903 58.1657Z" fill="#BB2C75"/>
<g opacity="0.3">
<path d="M10.2903 58.1657C10.3748 57.8331 10.1603 57.4991 9.91854 57.2563C9.67674 57.0134 9.38944 56.7982 9.26854 56.4788C9.06444 55.9613 9.33873 55.2908 8.99163 54.8591C8.78753 54.6057 8.42093 54.5199 8.24023 54.2493C8.15713 54.0989 8.10204 53.9342 8.07773 53.7635C7.88443 52.9036 7.46787 52.1119 6.87133 51.4707C6.83064 52.2371 6.99411 53.0004 7.34453 53.6804C7.48493 53.9523 7.65653 54.2176 7.70333 54.5199C7.77873 55.0123 7.50833 55.5191 7.62793 56.0023C7.76443 56.5553 8.37543 56.9263 8.40793 57.4939C8.43263 57.9743 8.01793 58.3967 8.05043 58.8772C8.07504 59.0816 8.14723 59.2771 8.26103 59.4475C8.62763 60.0652 9.17103 60.4916 9.98093 60.4784L10.9793 60.5127L10.2903 58.1657Z" fill="black"/>
</g>
<path d="M11.1751 60.5411C11.2662 60.5552 11.359 60.553 11.4494 60.5345C11.5603 60.5183 11.6692 60.4904 11.7744 60.4514C11.9176 60.4003 12.0512 60.3248 12.1696 60.2283C12.2424 60.1694 12.2992 60.0926 12.3347 60.0052C12.3657 59.9075 12.3815 59.8056 12.3815 59.7029C12.3815 59.596 12.3815 59.4865 12.4049 59.3743C12.4249 59.2587 12.4663 59.148 12.5271 59.0482C12.6454 58.8383 12.8404 58.639 12.9041 58.3539C12.9519 58.0588 12.9426 57.7571 12.8768 57.4655C12.83 57.1606 12.7858 56.8293 12.9002 56.5125C13.0146 56.1957 13.2317 55.9053 13.3396 55.5515C13.4475 55.1978 13.3981 54.8018 13.4215 54.419C13.4283 54.2243 13.4725 54.0328 13.5515 53.8553C13.6321 53.6758 13.7439 53.5069 13.831 53.3181C14.0091 52.9353 14.0403 52.5023 14.091 52.0786C14.1144 51.8648 14.1391 51.6483 14.1625 51.4305C14.1775 51.2111 14.215 50.9939 14.2743 50.7824C14.3418 50.5685 14.4212 50.3587 14.5122 50.1541C14.5603 50.0485 14.5994 49.939 14.6292 49.8267C14.6459 49.7112 14.6563 49.5949 14.6604 49.4782C14.6735 49.2444 14.6665 49.0099 14.6396 48.7773C14.6123 48.5423 14.5707 48.3113 14.546 48.0764V48.0355V47.9893L14.5044 48.0104C14.2928 48.1198 14.109 48.2775 13.9675 48.4711C13.8283 48.6597 13.7166 48.8678 13.636 49.0888C13.4939 49.5212 13.3899 49.9656 13.3253 50.4167C13.263 50.8475 13.1237 51.263 12.9145 51.643C12.8053 51.8239 12.6727 51.9889 12.557 52.171C12.4309 52.3381 12.343 52.5315 12.2996 52.7373C12.2398 53.1663 12.4725 53.5438 12.4296 53.9253C12.4072 54.1126 12.3452 54.2927 12.2476 54.4533C12.1566 54.6157 12.05 54.7661 11.9486 54.9166C11.8453 55.0641 11.7557 55.221 11.6808 55.3852C11.6108 55.5459 11.5694 55.718 11.5586 55.8934C11.5339 56.2353 11.582 56.5534 11.5586 56.8663C11.5303 57.1575 11.4464 57.4404 11.3116 57.6992C11.1907 57.95 11.0516 58.1744 10.9437 58.3935C10.8881 58.4987 10.8378 58.6066 10.7929 58.7169C10.7524 58.8204 10.7228 58.9279 10.7045 59.0377C10.6766 59.2293 10.6766 59.4241 10.7045 59.6158C10.7303 59.8842 10.8289 60.14 10.9892 60.355C11.0142 60.3866 11.0416 60.4161 11.0711 60.4435C11.0906 60.4647 11.1124 60.4838 11.1361 60.5002L11.1933 60.5411C11.1223 60.483 11.0573 60.4175 10.9996 60.3458C10.8461 60.1308 10.7526 59.8777 10.7292 59.6132C10.7061 59.4235 10.71 59.2315 10.7409 59.0429C10.7602 58.936 10.7899 58.8312 10.8293 58.7301C10.8693 58.6223 10.9144 58.5166 10.9645 58.4133C11.0776 58.1968 11.2128 57.9724 11.3363 57.7203C11.4769 57.4579 11.5653 57.1699 11.5963 56.8729C11.6236 56.56 11.5768 56.234 11.5963 55.9C11.6067 55.7304 11.6472 55.564 11.7159 55.409C11.7884 55.2484 11.8754 55.0951 11.9759 54.9509C12.0773 54.8005 12.1852 54.65 12.2775 54.4837C12.3791 54.3171 12.4443 54.1302 12.4686 53.9359C12.5167 53.5319 12.2853 53.1518 12.3464 52.7479C12.3849 52.5478 12.4666 52.3589 12.5856 52.1948C12.6987 52.0219 12.8326 51.8569 12.9457 51.6668C13.1585 51.28 13.3007 50.8575 13.3656 50.4194C13.429 49.9709 13.5321 49.5291 13.6737 49.0994C13.7556 48.8893 13.8663 48.692 14.0026 48.5133C14.1398 48.3269 14.3178 48.1755 14.5226 48.0711L14.4758 48.0447C14.4758 48.0579 14.4758 48.0724 14.4758 48.0856C14.5005 48.3232 14.5421 48.5555 14.5694 48.7879C14.5981 49.0167 14.6068 49.2478 14.5954 49.4782C14.5954 49.5917 14.5824 49.7105 14.5655 49.8175C14.5361 49.9255 14.4983 50.031 14.4524 50.1329C14.3606 50.3398 14.2803 50.5518 14.2119 50.7679C14.1525 50.9834 14.1151 51.2046 14.1001 51.4279C14.0754 51.647 14.052 51.8635 14.0286 52.0773C13.9818 52.5023 13.9493 52.9287 13.779 53.2983C13.6945 53.4818 13.5827 53.6507 13.4995 53.8369C13.4197 54.0211 13.3756 54.2191 13.3695 54.4203C13.3487 54.8163 13.3981 55.1951 13.2941 55.541C13.1901 55.8868 12.973 56.1746 12.8625 56.5019C12.752 56.8293 12.7936 57.1751 12.8404 57.4774C12.9076 57.7633 12.9187 58.0598 12.8729 58.3499C12.8157 58.6219 12.6259 58.8199 12.505 59.035C12.4404 59.1385 12.3963 59.2537 12.375 59.3743C12.3619 59.4847 12.355 59.5957 12.3542 59.7069C12.3538 59.8066 12.3394 59.9057 12.3113 60.0013C12.2778 60.0843 12.2246 60.1578 12.1566 60.2151C12.0399 60.3113 11.9081 60.3867 11.7666 60.4382C11.6632 60.4787 11.5561 60.5083 11.4468 60.5266C11.3799 60.5391 11.312 60.5458 11.244 60.5464L11.1751 60.5411Z" fill="#263238"/>
<path d="M14.3316 48.5918C14.3264 48.6017 14.3228 48.6124 14.3212 48.6235C14.3212 48.6472 14.3082 48.6776 14.2991 48.7146C14.2796 48.7938 14.2562 48.9152 14.2185 49.0657C14.1808 49.2162 14.0885 49.3851 14.0118 49.5937C13.9351 49.8022 13.8493 50.0425 13.7739 50.3131C13.6985 50.5837 13.6296 50.8846 13.5594 51.2054C13.4985 51.5493 13.3909 51.8829 13.2396 52.1967C13.1577 52.3604 13.0654 52.528 12.9926 52.7102C12.9205 52.8973 12.872 53.0929 12.8483 53.2923C12.7982 53.7046 12.7266 54.114 12.6338 54.5186C12.4336 55.3502 12.2438 56.1422 12.0683 56.8629L11.5951 58.773L11.2818 60.0639C11.2467 60.2118 11.2194 60.3279 11.1999 60.415C11.1921 60.452 11.1856 60.4824 11.1791 60.5061C11.1773 60.517 11.1773 60.5282 11.1791 60.5391C11.1842 60.5296 11.1877 60.5194 11.1895 60.5088C11.1973 60.485 11.2051 60.4546 11.2155 60.4177C11.2389 60.3297 11.2701 60.2135 11.3091 60.0692C11.3897 59.7616 11.5028 59.3234 11.6432 58.7848C11.7836 58.2463 11.9474 57.5968 12.1294 56.8774C12.3114 56.158 12.4973 55.3647 12.7001 54.5331C12.7934 54.1268 12.865 53.7157 12.9146 53.3016C12.9373 53.1072 12.9841 52.9165 13.0537 52.734C13.1239 52.5558 13.2149 52.3894 13.2968 52.2231C13.4485 51.9045 13.5557 51.566 13.6153 51.2173C13.6842 50.8952 13.7453 50.5956 13.822 50.325C13.8987 50.0544 13.9715 49.8154 14.0482 49.6069C14.1249 49.3983 14.2094 49.2267 14.2471 49.071C14.2848 48.9152 14.3004 48.7977 14.316 48.7159L14.3316 48.6235V48.5918Z" fill="#263238"/>
<path d="M11.3508 60.5435C12.0008 60.1475 12.1893 58.9595 11.9176 58.2348C11.6459 57.5101 11.1688 56.858 11.096 56.0911C11.0388 55.5024 11.226 54.8965 11.096 54.321C10.9127 53.5435 10.1652 52.9403 10.1743 52.1417C10.1743 51.6929 10.4343 51.2705 10.4096 50.8217C10.3849 50.2712 9.97021 49.8356 9.71281 49.3512C9.32281 48.6107 9.29291 47.7342 9.15771 46.9026C9.02251 46.071 8.71181 45.1866 7.98771 44.7734C7.87981 45.4796 7.69781 45.9614 7.75501 46.9184C7.77581 47.2616 8.16841 47.9177 8.22171 48.6701C8.25421 49.1202 8.27631 49.5703 8.30231 50.0204C8.30741 50.4599 8.37797 50.896 8.51161 51.314C8.62991 51.6282 8.82101 51.9133 8.90811 52.238C9.07451 52.8479 8.85611 53.5079 8.99001 54.1256C9.10311 54.6536 9.46061 55.0998 9.53341 55.6304C9.63481 56.3762 9.16031 57.1511 9.40341 57.8626C9.52431 58.215 9.81031 58.4988 9.89091 58.8631C9.95461 59.1456 9.89091 59.4452 9.94291 59.729C10.0339 60.1871 10.8945 60.5422 11.3534 60.5131" fill="#BB2C75"/>
<path d="M8.16514 45.4766C8.1637 45.4897 8.1637 45.503 8.16514 45.5162L8.18074 45.6323C8.19504 45.734 8.21194 45.8831 8.24574 46.0772C8.27954 46.2712 8.37574 46.4903 8.46024 46.7543C8.54474 47.0183 8.62664 47.3219 8.69944 47.6612C8.77224 48.0004 8.82944 48.3779 8.90094 48.7818C8.95396 49.2185 9.06685 49.6455 9.23634 50.0504C9.32734 50.2616 9.43004 50.4741 9.50674 50.6998C9.58336 50.9317 9.63055 51.1726 9.64714 51.4166C9.68344 51.934 9.74723 52.4492 9.83824 52.9596C10.0384 54.0051 10.2282 55.0004 10.4024 55.9072C10.5766 56.814 10.7495 57.6232 10.8873 58.307C11.0251 58.9907 11.1473 59.5385 11.2201 59.9253C11.2604 60.1114 11.2916 60.2592 11.3137 60.3635C11.3254 60.411 11.3332 60.448 11.3397 60.477C11.3462 60.5061 11.3501 60.5166 11.3514 60.5153C11.3527 60.514 11.3514 60.5021 11.3514 60.4757C11.3514 60.4493 11.3397 60.4084 11.3319 60.3609C11.3124 60.2553 11.2851 60.1074 11.25 59.92C11.1759 59.5319 11.0693 58.9802 10.9367 58.2977C10.8041 57.6153 10.6429 56.7982 10.4648 55.8953L9.90714 52.9491C9.81636 52.4398 9.75214 51.9261 9.71474 51.41C9.69717 51.1605 9.64824 50.9143 9.56914 50.6774C9.48984 50.4477 9.38584 50.2338 9.29354 50.024C9.12493 49.626 9.01162 49.2062 8.95684 48.7766C8.88924 48.3713 8.82684 47.9951 8.74624 47.6546C8.67807 47.3478 8.59476 47.0447 8.49664 46.7464C8.41344 46.4824 8.31204 46.2633 8.27304 46.0745C8.23404 45.8858 8.21454 45.7326 8.19634 45.6323C8.18724 45.5848 8.18074 45.5465 8.17424 45.5175C8.17323 45.5035 8.17016 45.4897 8.16514 45.4766Z" fill="#263238"/>
<path d="M43.8444 55.4209C43.9754 55.4439 44.1005 55.4935 44.2122 55.5668C44.3239 55.64 44.4199 55.7354 44.4944 55.8473C44.642 56.0719 44.7367 56.328 44.7713 56.5957C44.8532 57.1105 44.7128 57.6913 44.523 58.1797C44.003 57.9302 43.743 57.3191 43.6195 56.9996C43.4323 56.4954 43.3959 55.4697 43.8457 55.4249" fill="#BB2C75"/>
<path d="M45.228 58.8608C45.1609 58.7265 45.1298 58.5765 45.138 58.4261C45.1462 58.2756 45.1934 58.1301 45.2748 58.0041C45.3583 57.8794 45.4655 57.7729 45.59 57.6908C45.7146 57.6088 45.8541 57.5528 46.0002 57.5263C46.0656 57.5067 46.1344 57.5018 46.2017 57.5121C46.2691 57.5223 46.3334 57.5475 46.3902 57.5857C46.4373 57.63 46.4717 57.6863 46.49 57.7488C46.5083 57.8112 46.5098 57.8775 46.4942 57.9407C46.4635 58.0695 46.3988 58.1872 46.307 58.2813C46.0119 58.6113 45.6674 58.8753 45.228 58.8674" fill="#BB2C75"/>
<path d="M45.1208 60.5381C45.1127 60.503 45.1079 60.4672 45.1065 60.4311C45.1 60.3559 45.0909 60.2582 45.0805 60.1407C45.0417 59.8196 45.0545 59.4942 45.1182 59.1771C45.1873 58.8586 45.339 58.5647 45.5576 58.3257C45.6241 58.2548 45.6987 58.1923 45.7799 58.1396C45.8019 58.1247 45.8249 58.1115 45.8488 58.1C45.8644 58.0908 45.8722 58.0868 45.8735 58.0881C45.7661 58.1631 45.6663 58.2489 45.5758 58.3442C45.3676 58.5843 45.2227 58.874 45.1546 59.1864C45.0919 59.4999 45.0757 59.8211 45.1065 60.1394C45.1143 60.2622 45.1195 60.3612 45.1208 60.4311C45.1234 60.4667 45.1234 60.5025 45.1208 60.5381Z" fill="#263238"/>
<path d="M43.9414 56.1992C43.9483 56.2132 43.9539 56.2278 43.9583 56.2428L44.0012 56.3682C44.0376 56.4791 44.0883 56.6388 44.1507 56.8355C44.2729 57.2315 44.4354 57.7806 44.6005 58.3904C44.7656 59.0003 44.9034 59.556 44.9905 59.9599C45.0373 60.1619 45.0737 60.3255 45.0971 60.4377C45.1088 60.4919 45.1179 60.5354 45.1244 60.5697C45.128 60.5844 45.1302 60.5995 45.1309 60.6146C45.1248 60.6006 45.12 60.586 45.1166 60.5711C45.1088 60.5381 45.0971 60.4945 45.0841 60.4391C45.0542 60.3216 45.0139 60.1605 44.9645 59.9639C44.8644 59.5679 44.7227 59.0069 44.5576 58.397C44.3925 57.7872 44.2352 57.2381 44.1182 56.8407C44.061 56.6454 44.0155 56.4857 43.9817 56.3708C43.9661 56.318 43.9544 56.2758 43.9453 56.2388C43.943 56.2257 43.9417 56.2125 43.9414 56.1992Z" fill="#263238"/>
<path d="M44.5964 59.3659C44.4627 59.0778 44.2632 58.8261 44.0145 58.6319C43.7658 58.4377 43.4751 58.3065 43.1664 58.2492C43.0104 58.2215 42.818 58.2294 42.7322 58.3654C42.6464 58.5013 42.7244 58.6822 42.8206 58.8115C43.0246 59.078 43.3018 59.2771 43.6172 59.3838C43.9325 59.4904 44.2719 59.4998 44.5925 59.4108" fill="#BB2C75"/>
<path d="M43.3691 58.7031C43.402 58.7045 43.4346 58.7089 43.4666 58.7163C43.4991 58.7229 43.5368 58.7295 43.581 58.7427C43.6252 58.7559 43.6759 58.7652 43.7292 58.7863C43.7885 58.8064 43.8467 58.8297 43.9034 58.8562C43.9692 58.8853 44.0334 58.918 44.0958 58.9539C44.3842 59.1202 44.6283 59.3553 44.8069 59.639C44.8452 59.7003 44.8799 59.7637 44.9109 59.8291C44.9398 59.8859 44.965 59.9445 44.9863 60.0046C45.0053 60.0533 45.0214 60.1031 45.0344 60.1538C45.0464 60.1914 45.056 60.2298 45.063 60.2686C45.0718 60.301 45.077 60.3342 45.0786 60.3676C45.0708 60.3676 45.0461 60.2277 44.9616 60.0139C44.9387 59.9557 44.9127 59.8989 44.8836 59.8436C44.8516 59.7798 44.8165 59.7177 44.7783 59.6575C44.6887 59.5201 44.5845 59.3931 44.4676 59.2786C44.3482 59.1669 44.2174 59.0683 44.0776 58.9843C44.0166 58.9479 43.9536 58.9149 43.8891 58.8853C43.8341 58.857 43.7772 58.8328 43.7188 58.8127C43.5082 58.7335 43.3691 58.711 43.3691 58.7031Z" fill="#263238"/>
<path d="M43.6986 15.4404L43.1409 13.5475C43.6843 12.8994 43.865 12.3239 44.0028 11.421C44.1648 10.3568 43.9671 9.2683 43.4418 8.33283C42.9166 7.39735 42.0948 6.6701 41.1104 6.26959C40.1259 5.86909 39.0369 5.81894 38.0208 6.12733C37.0048 6.43573 36.1215 7.08447 35.515 7.96783C34.9085 8.85119 34.6146 9.91709 34.6811 10.9918C34.7476 12.0665 35.1707 13.0866 35.8813 13.886C36.5919 14.6853 37.5482 15.2167 38.5943 15.3935C39.6404 15.5703 40.7147 15.3821 41.642 14.8596L41.9371 14.6313L43.6986 15.4404Z" fill="white"/>
<path d="M40.1733 10.0729H39.8847L39.2542 9.17663V8.59583C39.2542 8.59583 38.8083 8.56811 38.8642 9.33371C38.9201 10.0993 38.8642 9.90527 38.8642 9.90527C38.8642 9.90527 37.9165 9.90527 37.8372 9.99239C37.78 10.0531 37.754 11.0101 37.7449 11.5275C37.7384 11.6526 37.7732 11.7763 37.8439 11.8789C37.9145 11.9815 38.017 12.0572 38.1349 12.0938C38.1686 12.1021 38.203 12.1065 38.2376 12.107C38.4729 12.107 39.6819 11.9117 39.6819 11.9117H40.1798L40.1733 10.0729Z" fill="#BB2C75"/>
<path d="M41.0002 9.91211L40.8234 11.9185H40.3281V9.95303L41.0002 9.91211Z" fill="#BB2C75"/>
<path d="M39.3682 5.88326H39.2863L39.0458 5.89118C38.9938 5.89118 38.934 5.89118 38.869 5.8991L38.6571 5.92814L38.4101 5.9651L38.1345 6.03374C37.6591 6.15538 37.2068 6.35562 36.7955 6.62642C36.1868 7.01963 35.6749 7.54903 35.2988 8.1741C34.9227 8.79917 34.6925 9.50333 34.6258 10.2327C34.6069 10.4521 34.6026 10.6726 34.6128 10.8927C34.6206 11.0035 34.6128 11.1157 34.6336 11.2279L34.6843 11.5672C34.7687 12.0329 34.9202 12.4835 35.1341 12.9043C35.3621 13.3453 35.652 13.7504 35.9947 14.1069C36.3596 14.4709 36.7774 14.7758 37.2336 15.0111C37.706 15.2567 38.2173 15.4158 38.7442 15.481C38.8775 15.5021 39.0122 15.514 39.1472 15.5166C39.2831 15.5246 39.4194 15.5246 39.5554 15.5166C39.8295 15.5061 40.1023 15.4712 40.3705 15.4123C40.95 15.2857 41.5011 15.0502 41.9955 14.718H41.9461L43.601 15.3925L43.6985 15.4321L43.6712 15.3292C43.5039 14.7132 43.3418 14.1143 43.185 13.5327L43.1759 13.5775C43.6247 12.9732 43.9271 12.27 44.0586 11.5249C44.1228 11.177 44.1447 10.8223 44.1236 10.4689C44.1199 10.2999 44.1043 10.1314 44.0768 9.9647C44.0638 9.88154 44.0508 9.7997 44.0391 9.71918C44.0274 9.63866 44.0001 9.55946 43.9806 9.48026C43.7038 8.37602 43.0495 7.4076 42.1346 6.74786C41.7969 6.50116 41.4272 6.30304 41.0361 6.15914L40.7891 6.06938L40.5538 6.00866L40.3393 5.95454C40.2704 5.94134 40.2093 5.93474 40.1417 5.92418C40.0117 5.90834 39.9064 5.8859 39.8102 5.88194L39.5671 5.87402H39.4176H39.3682C39.3842 5.87912 39.4008 5.88179 39.4176 5.88194L39.5658 5.89382L39.8076 5.90966C39.9025 5.91758 40.0117 5.94134 40.1352 5.96114C41.0329 6.11844 41.8663 6.53693 42.5344 7.16582C43.2025 7.79472 43.6764 8.60697 43.8987 9.50402C43.9169 9.5819 43.9403 9.65846 43.9546 9.73898L43.9897 9.97922C44.0162 10.1434 44.031 10.3092 44.0339 10.4755C44.0518 10.8207 44.0291 11.1668 43.9663 11.5065C43.835 12.2358 43.5366 12.9236 43.0953 13.5142L43.081 13.534V13.5591C43.237 14.1385 43.3982 14.7391 43.5633 15.3556L43.6335 15.2922L41.9799 14.6164L41.9539 14.6058L41.9305 14.6217C41.2199 15.0971 40.3952 15.3668 39.545 15.4018C39.4119 15.4071 39.2786 15.4044 39.1459 15.3939C39.0153 15.3919 38.885 15.3809 38.7559 15.3609C38.2404 15.2971 37.7401 15.1416 37.2778 14.9015C36.831 14.6724 36.4215 14.375 36.0636 14.0197C35.7279 13.6713 35.4433 13.2756 35.2186 12.8449C35.011 12.4379 34.8621 12.0027 34.7766 11.5527L34.7259 11.22C34.7103 11.1105 34.7116 10.9996 34.7038 10.8913C34.6935 10.6762 34.697 10.4606 34.7142 10.2459C34.7766 9.52775 34.9994 8.83352 35.3656 8.21596C35.7319 7.59839 36.232 7.07374 36.828 6.68186C37.232 6.41021 37.6767 6.20692 38.1449 6.07994L38.4179 6.00602L38.6623 5.9651L38.8716 5.92946C38.9366 5.92946 38.9951 5.92022 39.0471 5.91626L39.2863 5.8991C39.314 5.89673 39.3415 5.89142 39.3682 5.88326Z" fill="#263238"/>
</svg>
