<svg width="460" height="450" viewBox="0 0 460 450" fill="none" xmlns="http://www.w3.org/2000/svg">
<path d="M100.623 48.8608C100.623 48.8608 86.0864 37.7812 67.8604 48.8608C67.8604 48.8608 83.6267 58.7217 100.623 48.8608Z" fill="#BB2C75"/>
<path d="M100.623 48.8609C100.623 48.8609 106.783 43.0773 108.268 43.9415C109.753 44.8058 103.692 48.8609 103.692 48.8609C103.692 48.8609 108.623 54.4007 106.407 54.8993C104.191 55.3979 100.623 48.8609 100.623 48.8609Z" fill="#BB2C75"/>
<path d="M48.1939 67.4968C48.1939 67.4968 38.0671 59.741 25.3809 67.4968C25.3809 67.4968 36.3497 74.344 48.1939 67.4968Z" fill="#BB2C75"/>
<path d="M48.1938 67.4967C48.1938 67.4967 52.4817 63.4637 53.501 64.062C54.5203 64.6603 50.3322 67.4967 50.3322 67.4967C50.3322 67.4967 53.7669 71.3524 52.2158 71.6959C50.6646 72.0394 48.1938 67.4967 48.1938 67.4967Z" fill="#BB2C75"/>
<path d="M61.1241 33.9145C61.1241 33.9145 50.9973 26.1588 38.311 33.9145C38.3221 33.9145 49.2799 40.7728 61.1241 33.9145Z" fill="#BB2C75"/>
<path d="M61.124 33.9142C61.124 33.9142 65.4119 29.8812 66.4312 30.4795C67.4505 31.0778 63.2624 33.9142 63.2624 33.9142C63.2624 33.9142 66.6971 37.7699 65.1459 38.1134C63.5948 38.4568 61.124 33.9142 61.124 33.9142Z" fill="#BB2C75"/>
<path d="M356.884 424.65C356.884 424.65 371.421 413.57 389.647 424.65C389.647 424.65 373.88 434.499 356.884 424.65Z" fill="#BB2C75"/>
<path d="M356.884 424.65C356.884 424.65 350.724 418.855 349.251 419.719C347.777 420.584 353.804 424.65 353.804 424.65C353.804 424.65 348.874 430.19 351.09 430.688C353.306 431.187 356.884 424.65 356.884 424.65Z" fill="#BB2C75"/>
<path d="M389.547 405.814C389.547 405.814 399.663 398.059 412.36 405.814C412.404 405.814 401.424 412.673 389.547 405.814Z" fill="#BB2C75"/>
<path d="M389.547 405.814C389.547 405.814 385.259 401.781 384.229 402.38C383.198 402.978 387.397 405.814 387.397 405.814C387.397 405.814 383.974 409.67 385.514 410.014C387.054 410.357 389.547 405.814 389.547 405.814Z" fill="#BB2C75"/>
<path d="M350.591 397.87C350.591 397.87 360.718 390.115 373.404 397.87C373.404 397.87 362.435 404.706 350.591 397.87Z" fill="#BB2C75"/>
<path d="M350.591 397.87C350.591 397.87 346.303 393.837 345.284 394.436C344.265 395.034 348.453 397.87 348.453 397.87C348.453 397.87 345.018 401.726 346.569 402.069C348.12 402.413 350.591 397.87 350.591 397.87Z" fill="#BB2C75"/>
<path d="M434.375 114.796C434.375 114.796 444.502 107.04 457.189 114.796C457.189 114.796 446.22 121.654 434.375 114.796Z" fill="#BB2C75"/>
<path d="M434.376 114.796C434.376 114.796 430.088 110.763 429.069 111.361C428.049 111.96 432.237 114.796 432.237 114.796C432.237 114.796 428.803 118.652 430.354 118.995C431.905 119.339 434.376 114.796 434.376 114.796Z" fill="#BB2C75"/>
<path d="M406.588 131.305C406.588 131.305 421.124 120.225 439.35 131.305C439.406 131.305 423.584 141.166 406.588 131.305Z" fill="#BB2C75"/>
<path d="M406.588 131.305C406.588 131.305 400.427 125.521 398.954 126.385C397.48 127.25 403.507 131.305 403.507 131.305C403.507 131.305 398.577 136.845 400.793 137.343C403.009 137.842 406.588 131.305 406.588 131.305Z" fill="#BB2C75"/>
<path d="M73.9761 370.37C73.9761 370.37 63.8604 362.615 51.1631 370.37C51.1631 370.37 62.143 377.229 73.9761 370.37Z" fill="#BB2C75"/>
<path d="M73.9761 370.371C73.9761 370.371 78.2639 366.338 79.2943 366.936C80.3247 367.534 76.1255 370.371 76.1255 370.371C76.1255 370.371 79.5491 374.226 78.0091 374.57C76.469 374.913 73.9761 370.371 73.9761 370.371Z" fill="#BB2C75"/>
<path d="M35.5744 364.631C35.5744 364.631 21.0378 353.552 2.86719 364.631C2.86719 364.631 18.5781 374.525 35.5744 364.631Z" fill="#BB2C75"/>
<path d="M35.5742 364.631C35.5742 364.631 41.7345 358.836 43.2081 359.701C44.6817 360.565 38.6544 364.631 38.6544 364.631C38.6544 364.631 43.5848 370.171 41.3578 370.658C39.1308 371.146 35.5742 364.631 35.5742 364.631Z" fill="#BB2C75"/>
<path d="M41.1582 343.491C41.1582 343.491 31.0425 335.735 18.3452 343.491C18.3785 343.491 29.3252 350.361 41.1582 343.491Z" fill="#BB2C75"/>
<path d="M41.1582 343.491C41.1582 343.491 45.446 339.469 46.4764 340.068C47.5069 340.666 43.2966 343.491 43.2966 343.491C43.2966 343.491 46.7313 347.358 45.1912 347.702C43.6511 348.045 41.1582 343.491 41.1582 343.491Z" fill="#BB2C75"/>
<path d="M79.2503 26.9784C78.6523 26.9777 78.058 26.8842 77.4887 26.7014C76.7103 26.5015 75.9792 26.1496 75.3374 25.6661C74.6956 25.1825 74.1558 24.5767 73.749 23.8837C73.3422 23.1906 73.0765 22.424 72.9673 21.6278C72.858 20.8317 72.9072 20.0218 73.1122 19.2448C73.7216 16.5635 75.9929 14.0373 79.1728 14.3808C80.3698 14.4203 81.5298 14.8053 82.5129 15.4895C83.4959 16.1737 84.2599 17.1277 84.7126 18.2365C85.1316 19.4623 85.2001 20.7807 84.9104 22.0432C84.6207 23.3058 83.9843 24.4624 83.0728 25.3829C82.0603 26.4 80.6855 26.9738 79.2503 26.9784ZM78.5966 15.6882C76.4583 15.6882 74.9182 17.5607 74.475 19.5218C74.305 20.1359 74.2592 20.7777 74.3405 21.4097C74.4218 22.0417 74.6285 22.6511 74.9484 23.2022C75.2683 23.7533 75.695 24.2349 76.2035 24.6189C76.712 25.0029 77.2921 25.2815 77.9097 25.4383C78.6267 25.6815 79.3976 25.718 80.1343 25.5437C80.871 25.3693 81.5438 24.991 82.0757 24.4522C82.8044 23.7039 83.3137 22.7699 83.5482 21.752C83.7826 20.7341 83.7332 19.6714 83.4052 18.6797C82.962 17.4942 81.8319 16.0206 78.9734 15.7104C78.8485 15.6937 78.7226 15.6863 78.5966 15.6882Z" fill="#BB2C75"/>
<path d="M445.788 91.3734C444.804 90.3249 444.122 89.03 443.814 87.6258C443.506 86.2215 443.583 84.7601 444.037 83.3961C444.494 82.1758 445.3 81.1167 446.354 80.3505C447.407 79.5842 448.663 79.1445 449.965 79.0861C453.366 78.6983 455.793 81.5236 456.447 84.5151C456.901 86.2406 456.668 88.0752 455.795 89.6318C454.923 91.1884 453.48 92.3452 451.771 92.8581C451.16 93.0617 450.52 93.1665 449.876 93.1684C449.109 93.1632 448.35 93.0014 447.647 92.6927C446.944 92.3841 446.311 91.9352 445.788 91.3734ZM450.131 80.5597C447.117 80.9142 445.91 82.5651 445.433 83.8836C445.079 84.9887 445.024 86.1681 445.275 87.3012C445.527 88.4342 446.074 89.4802 446.863 90.3319C447.411 90.9318 448.123 91.3569 448.912 91.554C449.7 91.751 450.529 91.7113 451.295 91.4399C452.664 91.0459 453.82 90.1242 454.51 88.8776C455.2 87.631 455.366 86.1615 454.973 84.7921C454.497 82.5762 452.857 80.4932 450.541 80.4932L450.131 80.5597Z" fill="#BB2C75"/>
<path d="M91.1498 11.755C90.3222 11.7541 89.5077 11.5485 88.7788 11.1567C87.9871 10.7288 87.3328 10.0854 86.8916 9.30111C86.4504 8.51678 86.2404 7.62354 86.2859 6.72479C86.3856 3.40089 88.6126 2.03809 90.4961 1.92729C91.6732 1.84741 92.8372 2.21333 93.7569 2.95233C94.6765 3.69133 95.2845 4.74931 95.4598 5.91598C95.903 8.99612 94.5291 10.4476 93.676 11.0459C92.9248 11.5318 92.0442 11.779 91.1498 11.755ZM90.7621 3.35657H90.5737C89.2663 3.42305 87.837 4.34266 87.7705 6.68047C87.7305 7.3106 87.8707 7.93911 88.1748 8.49244C88.479 9.04577 88.9344 9.50103 89.4879 9.80494C89.9971 10.094 90.5752 10.2395 91.1606 10.2258C91.7459 10.2121 92.3166 10.0399 92.8118 9.72738C93.3258 9.27962 93.7026 8.69554 93.8987 8.04265C94.0948 7.38976 94.1021 6.69471 93.9198 6.03785C93.7985 5.28832 93.4139 4.60659 92.8351 4.11515C92.2564 3.6237 91.5213 3.35473 90.7621 3.35657Z" fill="#BB2C75"/>
<path d="M431.905 102.043C431.052 101.445 429.689 99.9934 430.121 96.9133C430.297 95.7466 430.904 94.6886 431.824 93.9496C432.744 93.2106 433.908 92.8447 435.085 92.9246C436.968 93.0354 439.207 94.3539 439.306 97.7221C439.354 98.6213 439.145 99.5156 438.704 100.3C438.263 101.085 437.607 101.728 436.813 102.154C436.086 102.551 435.271 102.761 434.442 102.763C433.543 102.786 432.658 102.535 431.905 102.043ZM431.595 97.1127C431.422 97.7766 431.44 98.4756 431.645 99.13C431.851 99.7844 432.237 100.368 432.758 100.813C433.277 101.131 433.874 101.3 434.482 101.302C435.091 101.304 435.689 101.139 436.21 100.825C436.731 100.51 437.156 100.059 437.438 99.5196C437.72 98.9803 437.849 98.3739 437.81 97.7664C437.744 95.4064 436.315 94.4425 435.007 94.4425H434.83C434.069 94.435 433.33 94.7 432.746 95.1897C432.163 95.6793 431.774 96.3614 431.65 97.1127H431.595Z" fill="#BB2C75"/>
<path d="M20.8494 329.043C19.9963 328.456 18.6335 326.994 19.0767 323.913C19.2497 322.747 19.8574 321.688 20.7779 320.951C21.6985 320.213 22.8638 319.85 24.0404 319.936C25.9239 320.036 28.1509 321.354 28.2506 324.722C28.2974 325.621 28.088 326.515 27.6466 327.3C27.2053 328.084 26.5503 328.727 25.7577 329.154C25.0288 329.546 24.2143 329.752 23.3867 329.752C22.4886 329.779 21.6037 329.531 20.8494 329.043ZM20.5946 324.124C20.4127 324.783 20.4202 325.479 20.6162 326.134C20.8121 326.788 21.1887 327.374 21.7026 327.825C22.201 328.128 22.7706 328.295 23.3541 328.309C23.9376 328.322 24.5144 328.182 25.0265 327.902C25.5894 327.599 26.053 327.14 26.3615 326.58C26.67 326.02 26.8105 325.382 26.766 324.744C26.6995 322.384 25.2702 321.421 23.9517 321.421H23.7745C23.0075 321.412 22.2633 321.681 21.6789 322.178C21.0946 322.674 20.7095 323.366 20.5946 324.124Z" fill="#BB2C75"/>
<path d="M91.072 27.6765C90.5805 27.677 90.0939 27.5778 89.6418 27.3849C89.1897 27.1919 88.7814 26.9093 88.4417 26.554C88.102 26.1988 87.8379 25.7783 87.6653 25.318C87.4928 24.8577 87.4154 24.3672 87.4379 23.8762C87.4109 23.4331 87.4714 22.9891 87.6161 22.5694C87.7607 22.1498 87.9866 21.7627 88.2809 21.4304C88.5752 21.098 88.932 20.8269 89.3311 20.6325C89.7302 20.4382 90.1636 20.3243 90.6067 20.2975C91.4884 20.2346 92.3614 20.5066 93.0514 21.059C93.7415 21.6115 94.1978 22.4038 94.3295 23.2779C94.5017 23.9764 94.4667 24.71 94.2286 25.3889C93.9905 26.0677 93.5596 26.6625 92.9888 27.1004C92.421 27.4778 91.7539 27.6783 91.072 27.6765ZM90.8061 21.7821H90.6953C89.5874 21.7821 88.9669 22.6353 88.9337 23.9205C88.9088 24.3059 88.9899 24.6908 89.1681 25.0334C89.3463 25.376 89.6149 25.6633 89.9448 25.8642C90.2746 26.065 90.6531 26.1718 91.0393 26.173C91.4255 26.1741 91.8047 26.0695 92.1357 25.8705C92.4668 25.5808 92.7098 25.2038 92.8372 24.7827C92.9645 24.3615 92.971 23.9131 92.8559 23.4884C92.7805 23.0032 92.5307 22.5622 92.1533 22.248C91.776 21.9339 91.2969 21.7682 90.8061 21.7821Z" fill="#BB2C75"/>
<path d="M392.417 398.336C391.709 398.766 390.906 399.017 390.079 399.067C389.178 399.11 388.283 398.897 387.499 398.452C386.714 398.007 386.072 397.348 385.647 396.552C383.963 393.638 385.171 391.345 386.755 390.27C387.712 389.581 388.894 389.278 390.065 389.422C391.235 389.565 392.309 390.145 393.071 391.045C395.065 393.45 394.666 395.4 394.245 396.353C393.857 397.188 393.218 397.881 392.417 398.336ZM387.675 391.389L387.531 391.489C386.423 392.242 385.714 393.771 386.899 395.81C387.184 396.349 387.612 396.799 388.136 397.111C388.66 397.423 389.259 397.585 389.869 397.58C390.479 397.574 391.075 397.401 391.593 397.079C392.111 396.757 392.53 396.299 392.805 395.754C393.015 395.102 393.037 394.404 392.869 393.739C392.7 393.075 392.348 392.471 391.852 391.998C391.348 391.407 390.646 391.02 389.878 390.908C389.11 390.796 388.327 390.967 387.675 391.389Z" fill="#BB2C75"/>
<path d="M399.176 421.902C398.646 422.225 398.044 422.412 397.425 422.445C396.751 422.477 396.082 422.318 395.494 421.987C394.906 421.656 394.423 421.165 394.101 420.572C393.591 419.837 393.391 418.931 393.545 418.05C393.698 417.168 394.193 416.383 394.921 415.864C395.639 415.348 396.525 415.123 397.401 415.232C398.278 415.34 399.082 415.776 399.652 416.451C400.167 416.953 400.524 417.596 400.677 418.299C400.831 419.002 400.775 419.735 400.516 420.406C400.228 421.027 399.761 421.548 399.176 421.902ZM395.852 417.016L395.763 417.082C395.553 417.234 395.376 417.427 395.242 417.649C395.109 417.872 395.022 418.119 394.987 418.376C394.951 418.632 394.969 418.894 395.037 419.144C395.106 419.394 395.225 419.627 395.386 419.83C395.565 420.174 395.835 420.462 396.166 420.663C396.497 420.865 396.877 420.971 397.264 420.971C397.652 420.971 398.032 420.865 398.363 420.663C398.694 420.462 398.964 420.174 399.142 419.83C399.27 419.409 399.277 418.961 399.164 418.536C399.05 418.112 398.82 417.727 398.5 417.426C398.182 417.046 397.737 416.795 397.247 416.72C396.758 416.644 396.258 416.75 395.841 417.016H395.852Z" fill="#BB2C75"/>
<path d="M405.879 398.048C405.388 398.048 404.901 397.949 404.449 397.756C403.997 397.563 403.589 397.28 403.249 396.925C402.909 396.57 402.645 396.149 402.472 395.689C402.3 395.229 402.223 394.738 402.245 394.247C402.218 393.804 402.279 393.36 402.423 392.941C402.568 392.521 402.794 392.134 403.088 391.801C403.382 391.469 403.739 391.198 404.138 391.004C404.537 390.809 404.971 390.695 405.414 390.669C406.296 390.606 407.169 390.878 407.859 391.43C408.549 391.983 409.005 392.775 409.137 393.649C409.311 394.348 409.275 395.084 409.035 395.763C408.795 396.443 408.36 397.037 407.785 397.471C407.223 397.854 406.558 398.055 405.879 398.048ZM405.613 392.153H405.491C404.383 392.209 403.774 393.006 403.73 394.292C403.703 394.679 403.784 395.065 403.963 395.41C404.142 395.754 404.411 396.043 404.743 396.244C405.075 396.445 405.455 396.551 405.843 396.551C406.231 396.551 406.612 396.444 406.943 396.242C407.274 395.952 407.517 395.575 407.644 395.154C407.772 394.733 407.778 394.284 407.663 393.86C407.588 393.374 407.338 392.933 406.96 392.619C406.583 392.305 406.104 392.139 405.613 392.153Z" fill="#BB2C75"/>
<path d="M436.813 75.9282C436.24 75.4949 435.807 74.9024 435.568 74.2245C435.33 73.5466 435.297 72.8135 435.472 72.1168C435.604 71.2438 436.058 70.452 436.746 69.898C437.433 69.344 438.303 69.0683 439.184 69.1253C440.077 69.1852 440.91 69.5944 441.503 70.2642C442.096 70.9341 442.402 71.8106 442.353 72.704C442.386 73.3769 442.229 74.0455 441.9 74.6332C441.57 75.221 441.082 75.7043 440.492 76.0279C439.947 76.3227 439.338 76.4788 438.719 76.4822C438.042 76.4959 437.377 76.3026 436.813 75.9282ZM436.946 72.3273C436.831 72.752 436.837 73.2004 436.965 73.6216C437.092 74.0427 437.335 74.4197 437.666 74.7094C437.998 74.9091 438.378 75.0138 438.766 75.0123C439.153 75.0108 439.532 74.903 439.862 74.7008C440.193 74.4985 440.461 74.2095 440.638 73.8652C440.816 73.521 440.895 73.1346 440.868 72.7483C440.868 71.4742 440.17 70.6764 439.107 70.621H438.996C438.506 70.6095 438.028 70.776 437.651 71.0897C437.274 71.4035 437.024 71.8431 436.946 72.3273Z" fill="#BB2C75"/>
<path d="M406.854 64.9927C406.278 64.5608 405.843 63.9689 405.603 63.2909C405.362 62.613 405.327 61.8791 405.502 61.1813C405.636 60.3074 406.092 59.5155 406.782 58.9617C407.471 58.4079 408.342 58.1325 409.225 58.1898C410.119 58.2497 410.954 58.6604 411.548 59.3327C412.141 60.005 412.445 60.8844 412.393 61.7796C412.427 62.4539 412.268 63.1237 411.937 63.7119C411.606 64.3 411.115 64.7825 410.521 65.1035C409.98 65.3983 409.375 65.5544 408.759 65.5578C408.081 65.5682 407.416 65.3711 406.854 64.9927ZM406.976 61.3918C406.86 61.8165 406.867 62.265 406.994 62.6861C407.122 63.1073 407.365 63.4842 407.696 63.774C408.015 63.9653 408.381 64.0663 408.754 64.0663C409.126 64.0663 409.492 63.9653 409.812 63.774C410.171 63.5835 410.468 63.2924 410.664 62.9362C410.861 62.5801 410.95 62.1743 410.92 61.7685C410.92 60.4944 410.222 59.6967 409.158 59.6413H409.036C408.538 59.6284 408.052 59.7999 407.671 60.1229C407.291 60.4458 407.044 60.8976 406.976 61.3918Z" fill="#BB2C75"/>
<path d="M12.8385 312.967C12.2633 312.535 11.8282 311.943 11.5877 311.265C11.3473 310.587 11.3122 309.853 11.4868 309.155C11.6159 308.279 12.0712 307.484 12.7615 306.929C13.4518 306.375 14.3262 306.101 15.2095 306.164C16.1022 306.224 16.9354 306.633 17.5285 307.303C18.1217 307.973 18.427 308.849 18.3783 309.743C18.4089 310.416 18.2495 311.085 17.9185 311.673C17.5874 312.26 17.098 312.743 16.5059 313.066C15.9644 313.358 15.3591 313.51 14.7442 313.51C14.0685 313.527 13.4038 313.337 12.8385 312.967ZM12.9604 309.355C12.8457 309.781 12.8523 310.231 12.9795 310.654C13.1068 311.077 13.3496 311.456 13.6806 311.748C14.0003 311.939 14.366 312.04 14.7387 312.04C15.1113 312.04 15.477 311.939 15.7968 311.748C16.1592 311.564 16.4584 311.276 16.6559 310.92C16.8533 310.565 16.94 310.159 16.9047 309.754C16.9047 308.479 16.2178 307.682 15.1431 307.615H15.0323C14.5272 307.588 14.0304 307.752 13.6404 308.074C13.2505 308.397 12.9959 308.854 12.9271 309.355H12.9604Z" fill="#BB2C75"/>
<path d="M0.905855 213.837C5.71443 144.146 137.607 6.13783 228.117 4.6864C325.618 3.11309 456.468 146.794 459.249 222.346C462.784 318.285 316.532 448.128 225.624 445.347C141.474 442.765 -5.75302 310.341 0.905855 213.837Z" fill="#BB2C75" fill-opacity="0.2"/>
<path d="M202.766 97.135C202.166 97.1328 201.569 97.0433 200.994 96.8691C200.217 96.6655 199.487 96.3108 198.847 95.8253C198.208 95.3398 197.67 94.7329 197.264 94.0395C196.859 93.346 196.594 92.5795 196.485 91.7837C196.376 90.9879 196.425 90.1784 196.628 89.4014C197.227 86.7312 199.509 84.2051 202.689 84.5485C203.885 84.5857 205.045 84.9685 206.028 85.6508C207.011 86.3331 207.775 87.2856 208.229 88.3932C208.649 89.6188 208.718 90.9375 208.428 92.2003C208.139 93.4632 207.501 94.6198 206.589 95.5396C206.089 96.0452 205.494 96.4465 204.838 96.7204C204.181 96.9943 203.477 97.1352 202.766 97.135ZM202.113 85.8449C199.974 85.8449 198.434 87.7173 197.991 89.6895C197.821 90.3029 197.776 90.944 197.857 91.5753C197.938 92.2065 198.145 92.8152 198.465 93.3653C198.785 93.9155 199.212 94.3962 199.72 94.7791C200.229 95.162 200.809 95.4394 201.426 95.595C202.142 95.8408 202.914 95.8787 203.651 95.7042C204.389 95.5297 205.061 95.1499 205.592 94.6089C206.322 93.8638 206.832 92.9312 207.064 91.9143C207.297 90.8974 207.244 89.8359 206.91 88.8474C206.467 87.6619 205.348 86.1772 202.478 85.867L202.113 85.8449Z" fill="white"/>
<path d="M441.123 233.703C440.14 232.652 439.458 231.355 439.15 229.949C438.842 228.543 438.919 227.08 439.372 225.714C439.829 224.494 440.635 223.435 441.689 222.669C442.743 221.903 443.998 221.463 445.3 221.404C448.702 221.017 451.128 223.842 451.771 226.845C452.231 228.569 451.999 230.404 451.126 231.961C450.253 233.517 448.806 234.671 447.095 235.176C446.488 235.381 445.852 235.486 445.211 235.487C444.444 235.484 443.686 235.325 442.983 235.018C442.279 234.711 441.647 234.264 441.123 233.703ZM445.466 222.889C442.442 223.233 441.245 224.883 440.769 226.213C440.414 227.317 440.358 228.496 440.607 229.629C440.856 230.761 441.401 231.808 442.187 232.661C442.735 233.261 443.447 233.686 444.236 233.883C445.024 234.08 445.853 234.041 446.619 233.769C447.988 233.375 449.144 232.454 449.834 231.207C450.524 229.96 450.69 228.491 450.297 227.122C449.821 224.906 448.17 222.823 445.865 222.823C445.731 222.836 445.598 222.858 445.466 222.889Z" fill="white"/>
<path d="M224.117 211.732C223.133 210.681 222.451 209.385 222.141 207.979C221.831 206.574 221.905 205.111 222.355 203.743C222.813 202.525 223.62 201.468 224.673 200.704C225.727 199.94 226.982 199.502 228.282 199.444C231.695 199.057 234.121 201.882 234.764 204.874C235.222 206.599 234.989 208.435 234.117 209.992C233.244 211.55 231.799 212.706 230.088 213.217C229.48 213.412 228.844 213.513 228.205 213.516C227.438 213.515 226.679 213.356 225.975 213.049C225.272 212.742 224.639 212.294 224.117 211.732ZM228.46 200.918C227.434 200.939 226.438 201.267 225.601 201.859C224.763 202.452 224.123 203.282 223.762 204.242C223.407 205.348 223.352 206.528 223.601 207.663C223.85 208.797 224.395 209.846 225.18 210.701C225.731 211.297 226.444 211.718 227.231 211.915C228.018 212.112 228.845 212.075 229.612 211.809C230.978 211.41 232.131 210.488 232.82 209.243C233.509 207.998 233.678 206.531 233.29 205.162C232.814 202.946 231.163 200.863 228.859 200.863L228.46 200.918Z" fill="white"/>
<path d="M218.134 84.0499C217.306 84.0424 216.492 83.8333 215.763 83.4405C214.97 83.0137 214.315 82.3706 213.874 81.586C213.433 80.8014 213.223 79.9076 213.27 79.0087C213.37 75.6848 215.608 74.322 217.491 74.2222C218.668 74.1368 219.833 74.4993 220.754 75.2369C221.674 75.9746 222.282 77.033 222.455 78.1999C222.887 81.28 221.524 82.7425 220.671 83.3297C219.918 83.8217 219.033 84.0729 218.134 84.0499ZM217.746 75.6515H217.569C216.262 75.7291 214.832 76.6376 214.766 78.9754C214.725 79.5838 214.852 80.1917 215.133 80.7326C215.415 81.2736 215.839 81.7267 216.361 82.0424C216.883 82.3582 217.481 82.5243 218.091 82.5227C218.701 82.5211 219.298 82.3519 219.818 82.0334C220.34 81.5878 220.725 81.0045 220.931 80.3501C221.137 79.6957 221.154 78.9967 220.982 78.3328C220.861 77.5689 220.465 76.8752 219.87 76.3817C219.274 75.8881 218.519 75.6285 217.746 75.6515Z" fill="white"/>
<path d="M130.97 151.071C130.142 151.07 129.328 150.864 128.599 150.473C127.797 150.042 127.136 149.39 126.694 148.594C126.252 147.799 126.048 146.893 126.106 145.985C126.205 142.661 128.432 141.299 130.316 141.199C131.493 141.113 132.658 141.476 133.578 142.213C134.499 142.951 135.107 144.01 135.28 145.176C135.712 148.257 134.349 149.708 133.496 150.306C132.751 150.812 131.87 151.078 130.97 151.071ZM130.571 142.672H130.394C129.086 142.739 127.657 143.658 127.59 145.996C127.55 146.626 127.691 147.255 127.995 147.808C128.299 148.362 128.754 148.817 129.308 149.121C129.817 149.41 130.395 149.555 130.98 149.542C131.566 149.528 132.136 149.356 132.632 149.043C133.146 148.595 133.522 148.011 133.719 147.358C133.915 146.706 133.922 146.011 133.74 145.354C133.618 144.602 133.232 143.919 132.651 143.427C132.07 142.936 131.332 142.668 130.571 142.672Z" fill="white"/>
<path d="M42.0451 258.588C41.2163 258.585 40.4013 258.376 39.674 257.978C38.8806 257.552 38.2248 256.91 37.7833 256.125C37.3419 255.34 37.133 254.446 37.1811 253.546C37.2808 250.167 39.5189 248.86 41.4024 248.749C42.5779 248.669 43.7405 249.033 44.6599 249.77C45.5793 250.507 46.1883 251.562 46.3661 252.727C46.7982 255.818 45.4354 257.269 44.5823 257.856C43.8323 258.356 42.946 258.612 42.0451 258.588ZM41.6462 250.189H41.4689C40.1615 250.267 38.7322 251.186 38.6658 253.513C38.6248 254.122 38.7519 254.729 39.0333 255.27C39.3147 255.811 39.7394 256.264 40.261 256.58C40.7827 256.896 41.3811 257.062 41.9908 257.06C42.6006 257.059 43.1981 256.89 43.7181 256.571C44.2396 256.126 44.6253 255.542 44.831 254.888C45.0367 254.233 45.0542 253.534 44.8815 252.871C44.7583 252.108 44.3625 251.415 43.7675 250.922C43.1725 250.429 42.4187 250.169 41.6462 250.189Z" fill="white"/>
<path d="M427.218 244.362C426.365 243.763 425.002 242.312 425.434 239.232C425.61 238.065 426.217 237.007 427.137 236.268C428.057 235.529 429.221 235.163 430.398 235.243C432.281 235.354 434.519 236.672 434.608 240.04C434.668 240.949 434.465 241.856 434.023 242.652C433.581 243.448 432.918 244.099 432.115 244.528C431.39 244.918 430.579 245.124 429.755 245.126C428.851 245.136 427.966 244.869 427.218 244.362ZM426.908 239.442C426.732 240.104 426.748 240.803 426.954 241.456C427.16 242.109 427.547 242.69 428.071 243.132C428.565 243.447 429.136 243.62 429.722 243.634C430.308 243.648 430.887 243.501 431.395 243.209C431.948 242.905 432.404 242.45 432.708 241.897C433.012 241.343 433.152 240.715 433.112 240.085C433.046 237.725 431.617 236.761 430.309 236.761H430.132C429.367 236.748 428.622 237.011 428.035 237.501C427.447 237.991 427.055 238.676 426.93 239.431L426.908 239.442Z" fill="white"/>
<path d="M344.121 88.216C343.268 87.6288 341.905 86.1774 342.337 83.0862C342.515 81.9215 343.124 80.8662 344.043 80.1295C344.963 79.3927 346.125 79.0284 347.301 79.1086C349.184 79.2083 351.422 80.5268 351.511 83.895C351.558 84.7939 351.348 85.6877 350.907 86.4723C350.466 87.2569 349.811 87.9 349.018 88.3268C348.292 88.727 347.476 88.9366 346.647 88.9362C345.751 88.957 344.871 88.7059 344.121 88.216ZM343.811 83.2967C343.627 83.9552 343.634 84.6521 343.83 85.3069C344.026 85.9618 344.404 86.5478 344.919 86.9973C345.439 87.3188 346.037 87.4905 346.649 87.4937C347.26 87.4968 347.861 87.3312 348.384 87.0151C348.908 86.699 349.334 86.2446 349.616 85.7019C349.898 85.1592 350.024 84.5493 349.982 83.9393C349.915 81.5904 348.486 80.6154 347.179 80.6154H347.002C346.229 80.5948 345.475 80.8552 344.88 81.3483C344.285 81.8415 343.889 82.5338 343.766 83.2967H343.811Z" fill="white"/>
<path d="M218.067 99.9603C217.449 99.9594 216.841 99.8072 216.295 99.5171C215.705 99.1915 215.219 98.7078 214.89 98.1205C214.561 97.5332 214.403 96.8656 214.433 96.1932C214.385 95.2998 214.69 94.4232 215.283 93.7534C215.876 93.0835 216.709 92.6743 217.602 92.6145C218.484 92.5548 219.355 92.8296 220.043 93.3841C220.731 93.9385 221.185 94.7319 221.314 95.606C221.489 96.2925 221.46 97.0151 221.232 97.6859C221.004 98.3566 220.586 98.9466 220.028 99.3841C219.452 99.7774 218.765 99.979 218.067 99.9603ZM217.813 94.0659H217.702C216.594 94.1324 215.973 94.9301 215.94 96.2043C215.913 96.5906 215.993 96.9769 216.17 97.3212C216.347 97.6654 216.616 97.9544 216.946 98.1567C217.276 98.359 217.656 98.4667 218.043 98.4682C218.43 98.4698 218.81 98.365 219.142 98.1654C219.473 97.8731 219.716 97.4942 219.843 97.0713C219.97 96.6485 219.977 96.1986 219.862 95.7722C219.787 95.287 219.537 94.8459 219.16 94.5318C218.782 94.2176 218.303 94.052 217.813 94.0659Z" fill="white"/>
<path d="M284.479 414.49C283.773 414.925 282.969 415.176 282.141 415.221C281.241 415.267 280.346 415.055 279.562 414.612C278.777 414.169 278.135 413.511 277.709 412.717C276.025 409.792 277.233 407.498 278.817 406.424C279.775 405.733 280.958 405.431 282.129 405.577C283.301 405.723 284.374 406.306 285.133 407.21C287.127 409.603 286.728 411.553 286.307 412.506C285.919 413.341 285.28 414.035 284.479 414.49ZM279.737 407.554L279.593 407.642C278.485 408.396 277.776 409.925 278.961 411.963C279.256 412.524 279.704 412.988 280.254 413.302C280.804 413.616 281.431 413.767 282.064 413.736C282.651 413.707 283.22 413.522 283.712 413.201C284.205 412.879 284.603 412.433 284.867 411.908C285.077 411.256 285.099 410.557 284.931 409.893C284.762 409.229 284.41 408.625 283.914 408.152C283.411 407.559 282.711 407.17 281.942 407.056C281.174 406.941 280.39 407.111 279.737 407.532V407.554Z" fill="white"/>
<path d="M275.327 399.433C274.796 399.753 274.195 399.939 273.576 399.975C272.902 400.007 272.233 399.848 271.645 399.517C271.057 399.186 270.574 398.696 270.252 398.103C269.739 397.369 269.538 396.462 269.691 395.579C269.845 394.697 270.341 393.912 271.072 393.394C271.79 392.879 272.676 392.653 273.553 392.762C274.429 392.871 275.233 393.306 275.803 393.981C276.318 394.484 276.675 395.126 276.829 395.829C276.982 396.533 276.926 397.265 276.667 397.937C276.382 398.559 275.915 399.081 275.327 399.433ZM272.003 394.557L271.914 394.613C271.704 394.765 271.527 394.958 271.394 395.18C271.26 395.402 271.173 395.649 271.138 395.906C271.103 396.163 271.12 396.424 271.189 396.674C271.257 396.924 271.376 397.158 271.538 397.361C271.725 397.716 272.01 398.009 272.36 398.206C272.71 398.402 273.109 398.494 273.51 398.469C273.877 398.459 274.235 398.351 274.547 398.156C274.859 397.961 275.113 397.687 275.283 397.361C275.414 396.941 275.425 396.493 275.313 396.068C275.201 395.642 274.972 395.257 274.651 394.956C274.334 394.575 273.889 394.322 273.399 394.247C272.909 394.171 272.409 394.278 271.992 394.546L272.003 394.557Z" fill="white"/>
<path d="M383.265 351.591C382.664 351.587 382.067 351.498 381.492 351.325C380.715 351.121 379.986 350.766 379.346 350.281C378.706 349.795 378.168 349.189 377.763 348.495C377.357 347.802 377.093 347.035 376.983 346.239C376.874 345.443 376.923 344.634 377.127 343.857C377.725 341.187 380.008 338.661 383.187 339.004C384.384 339.041 385.543 339.424 386.526 340.106C387.51 340.789 388.274 341.741 388.727 342.849C389.148 344.074 389.217 345.393 388.927 346.656C388.637 347.919 388 349.075 387.087 349.995C386.588 350.501 385.992 350.902 385.336 351.176C384.68 351.45 383.976 351.591 383.265 351.591ZM382.611 340.256C380.473 340.256 378.933 342.129 378.49 344.101C378.32 344.714 378.274 345.355 378.355 345.987C378.437 346.618 378.644 347.226 378.964 347.777C379.284 348.327 379.71 348.807 380.219 349.19C380.727 349.573 381.307 349.851 381.924 350.006C382.641 350.252 383.413 350.29 384.15 350.115C384.887 349.941 385.56 349.561 386.09 349.02C386.819 348.274 387.329 347.342 387.563 346.326C387.798 345.31 387.748 344.249 387.42 343.259C386.966 342.073 385.847 340.588 382.988 340.278L382.611 340.256Z" fill="white"/>
<path d="M395.087 352.3C394.472 352.296 393.866 352.14 393.326 351.845C392.732 351.524 392.241 351.042 391.91 350.454C391.578 349.866 391.42 349.196 391.453 348.521C391.405 347.628 391.71 346.751 392.303 346.082C392.896 345.412 393.729 345.003 394.622 344.943C395.505 344.883 396.378 345.157 397.068 345.711C397.757 346.266 398.213 347.059 398.345 347.934C398.519 348.632 398.484 349.366 398.244 350.044C398.003 350.722 397.568 351.314 396.993 351.746C396.429 352.12 395.764 352.313 395.087 352.3ZM394.822 346.394H394.711C393.603 346.449 392.982 347.247 392.949 348.521C392.922 348.908 393.001 349.294 393.179 349.638C393.356 349.983 393.625 350.272 393.955 350.474C394.285 350.676 394.664 350.784 395.052 350.785C395.439 350.787 395.819 350.682 396.151 350.482C396.482 350.193 396.725 349.816 396.853 349.395C396.98 348.973 396.986 348.525 396.871 348.1C396.794 347.616 396.543 347.176 396.166 346.863C395.79 346.549 395.312 346.383 394.822 346.394Z" fill="white"/>
<path d="M23.9182 237.692C23.299 237.688 22.6901 237.532 22.1455 237.237C21.5546 236.914 21.0667 236.431 20.7375 235.843C20.4083 235.255 20.2512 234.586 20.2841 233.913C20.2571 233.47 20.3176 233.026 20.4623 232.607C20.6069 232.187 20.8328 231.8 21.1271 231.468C21.4214 231.135 21.7782 230.864 22.1773 230.67C22.5763 230.475 23.0098 230.362 23.4529 230.335C24.3427 230.251 25.2309 230.511 25.9354 231.061C26.64 231.611 27.1075 232.409 27.2421 233.293C27.4159 233.991 27.3815 234.726 27.1433 235.405C26.9051 236.084 26.4734 236.679 25.9015 237.116C25.3164 237.509 24.6231 237.711 23.9182 237.692ZM23.6412 231.797H23.5304C22.4225 231.853 21.802 232.65 21.7688 233.936C21.7366 234.329 21.8153 234.724 21.9959 235.076C22.1766 235.427 22.452 235.721 22.791 235.924C23.13 236.127 23.519 236.231 23.914 236.224C24.3091 236.217 24.6943 236.1 25.0262 235.886C25.3573 235.596 25.6004 235.219 25.7277 234.798C25.855 234.377 25.8615 233.928 25.7464 233.504C25.6706 233.014 25.4176 232.57 25.0355 232.256C24.6535 231.941 24.169 231.778 23.6745 231.797H23.6412Z" fill="white"/>
<path d="M206.167 199.733C205.553 199.733 204.947 199.581 204.406 199.289C203.814 198.966 203.324 198.483 202.993 197.896C202.662 197.308 202.503 196.639 202.533 195.965C202.485 195.072 202.79 194.195 203.383 193.526C203.976 192.856 204.809 192.447 205.702 192.387C206.586 192.324 207.46 192.598 208.15 193.152C208.841 193.707 209.296 194.502 209.425 195.378C209.598 196.075 209.563 196.807 209.325 197.484C209.086 198.162 208.655 198.754 208.084 199.19C207.516 199.562 206.847 199.752 206.167 199.733ZM205.902 193.838H205.791C204.683 193.905 204.062 194.702 204.029 195.977C204.002 196.363 204.082 196.749 204.259 197.093C204.436 197.438 204.705 197.727 205.035 197.929C205.365 198.131 205.745 198.239 206.132 198.241C206.519 198.242 206.899 198.137 207.231 197.938C207.562 197.645 207.805 197.266 207.932 196.844C208.059 196.421 208.066 195.971 207.951 195.544C207.876 195.059 207.626 194.618 207.249 194.304C206.871 193.99 206.392 193.824 205.902 193.838Z" fill="white"/>
<path d="M432.149 218.258C431.575 217.822 431.141 217.228 430.901 216.549C430.66 215.87 430.624 215.135 430.797 214.435C430.931 213.562 431.388 212.772 432.077 212.22C432.767 211.668 433.638 211.395 434.52 211.455C434.963 211.482 435.396 211.596 435.795 211.79C436.194 211.984 436.551 212.256 436.845 212.588C437.14 212.92 437.366 213.307 437.51 213.727C437.655 214.147 437.715 214.591 437.688 215.034C437.721 215.707 437.564 216.375 437.235 216.963C436.906 217.551 436.418 218.034 435.827 218.358C435.282 218.651 434.673 218.807 434.054 218.812C433.378 218.821 432.714 218.629 432.149 218.258ZM432.281 214.646C432.164 215.07 432.169 215.52 432.296 215.941C432.424 216.363 432.668 216.74 433.002 217.028C433.333 217.227 433.712 217.332 434.098 217.33C434.484 217.329 434.863 217.223 435.193 217.022C435.522 216.821 435.791 216.534 435.969 216.191C436.147 215.848 436.229 215.463 436.204 215.078C436.204 213.793 435.506 212.995 434.442 212.94H434.32C433.831 212.928 433.355 213.095 432.98 213.409C432.605 213.723 432.357 214.163 432.281 214.646Z" fill="white"/>
<path d="M402.178 207.3C401.609 206.861 401.179 206.266 400.941 205.588C400.703 204.909 400.667 204.176 400.838 203.478C400.969 202.604 401.426 201.811 402.116 201.259C402.806 200.706 403.679 200.434 404.56 200.497C405.004 200.524 405.437 200.638 405.836 200.832C406.235 201.027 406.592 201.298 406.886 201.63C407.181 201.962 407.406 202.349 407.551 202.769C407.696 203.189 407.756 203.633 407.729 204.076C407.762 204.75 407.604 205.42 407.273 206.008C406.942 206.596 406.451 207.079 405.857 207.4C405.316 207.695 404.711 207.851 404.095 207.854C403.416 207.862 402.749 207.67 402.178 207.3ZM402.311 203.688C402.196 204.113 402.203 204.561 402.33 204.982C402.457 205.404 402.7 205.78 403.032 206.07C403.363 206.269 403.742 206.374 404.128 206.373C404.514 206.372 404.893 206.265 405.222 206.064C405.552 205.863 405.821 205.576 405.999 205.233C406.177 204.89 406.258 204.506 406.234 204.12C406.234 202.835 405.547 202.037 404.472 201.982H404.361C403.867 201.969 403.385 202.137 403.007 202.456C402.629 202.775 402.382 203.221 402.311 203.71V203.688Z" fill="white"/>
<path d="M114.306 159.901C113.736 159.463 113.306 158.868 113.068 158.189C112.83 157.511 112.794 156.777 112.965 156.079C113.097 155.205 113.553 154.412 114.243 153.86C114.933 153.308 115.806 153.036 116.688 153.098C117.131 153.125 117.564 153.239 117.964 153.434C118.363 153.628 118.719 153.899 119.014 154.231C119.308 154.564 119.534 154.951 119.679 155.37C119.823 155.79 119.884 156.234 119.857 156.677C119.886 157.351 119.726 158.019 119.395 158.607C119.064 159.194 118.575 159.677 117.984 160.001C117.444 160.296 116.838 160.452 116.223 160.455C115.543 160.465 114.876 160.272 114.306 159.901ZM114.439 156.289C114.324 156.714 114.33 157.163 114.457 157.584C114.585 158.005 114.828 158.382 115.159 158.672C115.49 158.871 115.869 158.975 116.255 158.974C116.641 158.973 117.02 158.866 117.35 158.665C117.68 158.464 117.948 158.177 118.127 157.834C118.305 157.492 118.386 157.107 118.361 156.722C118.361 155.436 117.674 154.639 116.599 154.583H116.489C115.991 154.571 115.507 154.742 115.128 155.066C114.75 155.389 114.504 155.84 114.439 156.334V156.289Z" fill="white"/>
<path d="M325.285 67.8957C324.714 67.4605 324.283 66.8678 324.045 66.1905C323.807 65.5132 323.772 64.7811 323.945 64.0843C324.074 63.2081 324.529 62.4131 325.219 61.8584C325.91 61.3037 326.784 61.0302 327.667 61.0928C328.56 61.1526 329.393 61.5618 329.986 62.2317C330.58 62.9015 330.885 63.7781 330.836 64.6715C330.864 65.3449 330.704 66.0127 330.373 66.5999C330.042 67.187 329.554 67.6703 328.964 67.9954C328.422 68.2867 327.817 68.439 327.202 68.4386C326.523 68.4578 325.854 68.2684 325.285 67.8957ZM325.418 64.2837C325.304 64.7101 325.31 65.1601 325.437 65.5829C325.565 66.0057 325.807 66.3846 326.138 66.6769C326.47 66.8766 326.85 66.9813 327.238 66.9798C327.625 66.9783 328.004 66.8705 328.335 66.6682C328.665 66.466 328.933 66.177 329.111 65.8327C329.288 65.4884 329.367 65.1021 329.34 64.7158C329.34 63.4416 328.653 62.6439 327.579 62.5774H327.501C327.009 62.5608 326.527 62.7252 326.147 63.0396C325.767 63.354 325.516 63.7965 325.44 64.2837H325.418Z" fill="white"/>
<path d="M38.0558 270.266C37.7368 270.264 37.4213 270.199 37.1282 270.073C36.8352 269.947 36.5705 269.763 36.3502 269.532C36.1299 269.302 35.9583 269.029 35.8459 268.73C35.7335 268.432 35.6824 268.114 35.6958 267.795C35.6656 267.211 35.8676 266.638 36.2578 266.202C36.648 265.766 37.1948 265.502 37.7788 265.468C38.3555 265.431 38.9249 265.612 39.3744 265.976C39.8238 266.339 40.1203 266.858 40.2053 267.429C40.3055 267.879 40.2754 268.349 40.1184 268.782C39.9614 269.216 39.6841 269.596 39.3189 269.878C38.9471 270.132 38.5065 270.268 38.0558 270.266ZM37.9118 266.942C37.4907 266.942 37.2581 267.274 37.2359 267.817C37.2194 267.982 37.2527 268.149 37.3317 268.295C37.4107 268.441 37.5317 268.56 37.6791 268.637C37.8063 268.713 37.9519 268.753 38.1001 268.753C38.2484 268.753 38.3939 268.713 38.5212 268.637C38.6466 268.502 38.7366 268.339 38.783 268.161C38.8294 267.983 38.8308 267.796 38.7871 267.618C38.7517 267.417 38.642 267.237 38.4797 267.114C38.3174 266.99 38.1146 266.933 37.9118 266.953V266.942Z" fill="white"/>
<path d="M212.683 416.052C209.226 424.716 205.27 433.07 202.567 441.879L201.393 441.58C204.196 430.998 209.625 420.949 213.204 410.767C213.824 409.024 214.378 407.27 214.865 405.504C216.937 396.086 213.757 387.09 211.342 377.982C209.846 372.442 208.628 366.969 208.96 361.285C208.953 361.13 208.995 360.977 209.081 360.847C209.166 360.718 209.291 360.619 209.436 360.565C211.819 359.922 213.048 363.734 213.868 365.717C213.924 365.883 213.99 366.038 214.046 366.182C215.603 369.78 216.78 373.531 217.558 377.373C220.272 390.746 217.669 403.543 212.683 416.052Z" fill="white"/>
<path d="M213.835 365.739C213.335 369.888 212.501 373.99 211.342 378.005C209.875 383.065 207.962 387.985 205.625 392.707C205.37 393.261 205.104 393.815 204.816 394.336C204.781 394.424 204.714 394.496 204.628 394.535C204.628 394.635 204.561 394.746 204.539 394.846C203.054 400.064 201.326 405.205 200.174 410.49C198.565 418.408 197.966 426.498 198.39 434.566C198.441 436.368 198.53 438.174 198.656 439.984C198.656 440.272 198.656 440.549 198.711 440.837H198.556C198.268 440.76 197.98 440.682 197.692 440.582C197.525 438.81 197.381 437.037 197.282 435.253C197.193 433.735 197.116 432.195 197.093 430.666C196.875 424.657 197.283 418.641 198.312 412.717C199.564 405.859 201.946 399.277 203.697 392.541L203.841 392.031C204.085 391.045 204.339 390.07 204.55 389.062C205.92 383.4 206.872 377.646 207.397 371.844C208.085 364.659 207.962 357.419 207.032 350.261C206.134 343.536 204.151 336.855 204.328 329.996C204.328 328.789 204.528 327.138 206.179 327.503C208.184 327.969 209.203 331.935 209.835 333.442C212.269 339.452 213.738 345.809 214.189 352.278C214.514 356.766 214.395 361.275 213.835 365.739Z" fill="white"/>
<path d="M199.709 441.081L198.7 440.804H198.545C198.259 438.928 197.833 437.077 197.271 435.264C194.08 424.783 186.989 415.177 181.937 405.504C178.334 398.742 176.396 391.217 176.284 383.556C176.173 375.894 177.89 368.316 181.294 361.451C181.365 361.359 181.461 361.288 181.57 361.246C181.679 361.204 181.798 361.194 181.913 361.216C182.028 361.238 182.134 361.291 182.221 361.37C182.307 361.448 182.37 361.55 182.402 361.662C183.588 372.542 179.211 383.134 180.596 394.015C181.193 398.408 182.42 402.692 184.241 406.734C184.74 407.62 185.238 408.496 185.77 409.371C187.554 412.385 189.438 415.465 191.221 418.623L192.806 420.728C192.84 420.768 192.863 420.816 192.876 420.867C192.888 420.919 192.888 420.972 192.876 421.024C192.865 421.075 192.841 421.123 192.808 421.164C192.774 421.205 192.732 421.238 192.684 421.26C194.341 424.263 195.799 427.372 197.049 430.566C197.559 431.889 198.002 433.207 198.379 434.522C198.634 435.364 198.833 436.217 199.033 437.059C199.33 438.387 199.556 439.729 199.709 441.081Z" fill="white"/>
<path d="M199.708 441.081L198.7 440.804H198.545L198.645 439.995C198.733 439.042 198.866 438.078 199.032 437.114C199.705 433.251 200.585 429.427 201.669 425.658C204.118 416.661 206.378 407.72 205.137 398.313C204.982 397.139 204.772 395.987 204.528 394.857C204.284 393.726 204.074 392.929 203.797 391.987C203.298 390.27 202.689 388.608 202.09 386.946C202.045 386.943 202.002 386.93 201.963 386.907C201.925 386.883 201.892 386.851 201.869 386.813C189.991 367.811 181.438 341.209 196.329 321.376C196.408 321.299 196.505 321.241 196.611 321.209C196.717 321.177 196.829 321.171 196.938 321.192C197.047 321.213 197.149 321.259 197.236 321.328C197.323 321.397 197.392 321.486 197.437 321.587C198.401 326.129 197.049 330.373 195.864 334.749C194.542 339.591 193.827 344.578 193.736 349.596C193.641 358.542 195.45 367.407 199.044 375.6C200.96 380.098 202.955 384.464 204.461 389.018C204.882 390.247 205.259 391.466 205.569 392.718C206.244 395.21 206.692 397.758 206.91 400.33C208.118 414.29 201.304 427.464 199.708 441.081Z" fill="white"/>
<path d="M113.785 389.527C113.719 391.196 113.564 392.861 113.32 394.513L112.212 393.682C112.3 393.006 112.356 392.319 112.411 391.643C112.522 390.17 112.577 388.707 112.544 387.212C112.505 383.588 112.086 379.978 111.292 376.442C111.037 375.234 110.727 374.049 110.362 372.852C110.273 372.498 110.173 372.132 110.051 371.744C108.245 365.994 105.697 360.554 103.681 354.892C96.8444 335.58 105.243 320.767 106.606 321.099C108.544 321.576 107.647 323.947 107.204 325.154C105.097 330.848 104.147 336.905 104.412 342.971C104.678 349.219 106.45 354.959 108.722 360.698C109.833 363.522 110.78 366.407 111.558 369.34C111.913 370.769 112.245 372.199 112.522 373.65C113.169 376.978 113.54 380.354 113.63 383.744C113.63 384.109 113.697 384.486 113.708 384.852C113.829 386.469 113.841 387.987 113.785 389.527Z" fill="white"/>
<path d="M119.846 378.47C118.561 382.525 116.112 386.004 113.785 389.549C113.342 390.247 112.877 390.956 112.445 391.666C112.134 392.153 111.846 392.652 111.547 393.161L110.207 392.053C110.971 390.369 111.791 388.729 112.578 387.2C112.711 386.923 112.855 386.658 112.999 386.392C113.242 385.893 113.497 385.406 113.741 384.918C117.264 377.67 118.64 369.566 117.707 361.562C117.419 359.973 117.334 358.353 117.453 356.742C117.663 356.056 118.273 356.421 118.804 357.064C119.126 357.449 119.377 357.888 119.547 358.36C121.805 364.857 121.91 371.909 119.846 378.47Z" fill="white"/>
<path d="M118.805 357.097C118.639 358.005 118.472 358.781 118.317 359.413C118.162 360.044 117.929 360.875 117.708 361.628C116.281 365.808 114.56 369.881 112.556 373.816C112.412 374.148 112.246 374.47 112.102 374.802C111.825 375.378 111.559 375.966 111.326 376.542C109.429 380.782 108.092 385.252 107.348 389.837C106.639 389.272 105.919 388.729 105.21 388.109C105.831 384.898 106.804 381.766 108.113 378.769C108.955 376.763 109.708 374.824 110.395 372.919C110.827 371.755 111.215 370.603 111.592 369.473C115.955 356.444 117.529 342.643 116.212 328.966C116.212 328.644 116.788 328.644 116.965 328.966C121.054 336.023 119.99 350.227 118.805 357.097Z" fill="white"/>
<path d="M365.937 381.461L364.751 382.469C364.637 379.28 364.225 376.109 363.521 372.996C363.266 371.8 362.956 370.614 362.602 369.418C362.513 369.063 362.402 368.697 362.28 368.31C360.474 362.559 357.926 357.119 355.91 351.446C349.073 332.146 357.483 317.332 358.835 317.653C360.774 318.141 359.943 320.512 359.433 321.72C357.326 327.413 356.376 333.47 356.641 339.536C357.078 345.645 358.539 351.638 360.962 357.263C362.081 360.089 363.021 362.983 363.776 365.927C364.164 367.368 364.474 368.786 364.762 370.226C365.414 373.546 365.784 376.915 365.87 380.298C365.892 380.73 365.926 381.107 365.937 381.461Z" fill="white"/>
<path d="M372.041 375.013C371.864 375.574 371.665 376.128 371.443 376.675C369.626 378.281 367.809 379.866 365.97 381.428C369.476 374.207 370.848 366.135 369.925 358.161C369.681 355.801 369.427 354.15 369.67 353.33C369.914 352.51 370.49 353.009 371.011 353.651C371.344 354.028 371.597 354.469 371.753 354.948C373.998 361.432 374.099 368.467 372.041 375.013Z" fill="white"/>
<path d="M371 353.64C370.834 354.549 370.668 355.324 370.524 355.956C370.38 356.587 370.136 357.429 369.914 358.172C368.473 362.345 366.751 366.417 364.762 370.359C364.596 370.681 364.452 371.002 364.297 371.334C364.031 371.899 363.776 372.442 363.521 373.063C361.553 377.48 360.189 382.142 359.466 386.923L356.94 388.94C357.234 384.238 358.379 379.628 360.319 375.334C361.15 373.329 361.915 371.39 362.602 369.484C363.012 368.321 363.422 367.179 363.776 366.06C368.152 353.026 369.733 339.217 368.418 325.531C368.418 325.21 368.984 325.21 369.161 325.531C373.238 332.567 372.174 346.737 371 353.64Z" fill="white"/>
<path d="M239.861 444.759C239.451 444.815 239.041 444.848 238.631 444.881C238.469 442.241 238.099 439.618 237.523 437.037C237.268 435.84 236.958 434.655 236.604 433.458C236.515 433.103 236.404 432.738 236.293 432.35C234.487 426.6 231.928 421.16 229.912 415.487C223.087 396.186 231.485 381.373 232.837 381.694C234.787 382.181 233.889 384.552 233.435 385.76C231.328 391.454 230.378 397.511 230.643 403.576C231.081 409.686 232.541 415.678 234.964 421.304C236.077 424.141 237.009 427.046 237.756 430.001C238.144 431.442 238.465 432.86 238.742 434.3C239.394 437.62 239.764 440.989 239.85 444.372C239.85 444.527 239.861 444.649 239.861 444.759Z" fill="white"/>
<path d="M246.01 439.053C245.415 440.882 244.627 442.642 243.661 444.305C242.553 444.46 241.445 444.593 240.337 444.715C243.562 437.693 244.789 429.919 243.883 422.245C243.639 419.885 243.384 418.235 243.628 417.415C243.872 416.595 244.448 417.093 244.969 417.736C245.301 418.115 245.557 418.556 245.722 419.032C247.948 425.505 248.049 432.519 246.01 439.053Z" fill="white"/>
<path d="M244.969 417.681C244.803 418.589 244.648 419.365 244.493 419.996C244.338 420.628 244.105 421.47 243.883 422.212C242.446 426.388 240.725 430.46 238.731 434.4C238.565 434.721 238.421 435.042 238.266 435.375C238 435.94 237.745 436.483 237.49 437.103C236.327 439.749 235.364 442.479 234.61 445.269C233.79 445.269 232.97 445.358 232.15 445.391C232.74 443.344 233.454 441.335 234.288 439.375C235.119 437.369 235.884 435.43 236.571 433.525C236.992 432.361 237.391 431.22 237.745 430.101C242.121 417.067 243.703 403.257 242.388 389.572C242.388 389.25 242.953 389.25 243.141 389.572C247.207 396.607 246.155 410.778 244.969 417.681Z" fill="white"/>
<path d="M414.011 301.743C413.553 305.953 412.582 310.09 411.119 314.064C410.011 317.332 408.704 320.556 407.474 323.814C405.979 328.176 404.718 332.614 403.696 337.109C403.69 337.135 403.69 337.161 403.696 337.187C403.618 337.564 403.53 337.952 403.463 338.295C403.341 338.982 403.219 339.669 403.12 340.378C403.02 341.087 402.931 341.685 402.865 342.339C402.848 342.472 402.848 342.605 402.865 342.738C402.743 343.658 402.654 344.588 402.577 345.53L402.001 346.173L401.823 346.361C401.679 346.538 401.524 346.704 401.358 346.882C401.358 346.283 401.358 345.696 401.436 345.098C401.513 344.5 401.524 343.591 401.624 342.882C401.69 341.94 401.801 340.987 401.934 340.046C402.023 339.458 402.111 338.938 402.211 338.306C402.399 337.198 402.621 336.146 402.876 335.093C405.978 321.432 413.08 308.424 410.2 294.098C408.751 287.734 406.266 281.651 402.843 276.094C402.333 275.207 401.735 274.343 401.258 273.479L399.197 270.155C395.242 263.84 389.868 255.009 391.929 253.901C394.81 252.361 399.973 259.053 402.843 263.629L403.618 264.948C404.601 266.646 405.55 268.382 406.466 270.155C411.429 279.949 415.03 290.708 414.011 301.743Z" fill="white"/>
<path d="M411.607 261.48C410.089 264.316 408.139 267.496 406.433 270.21L404.372 273.534C403.84 274.399 403.264 275.263 402.81 276.149C399.38 281.726 396.898 287.832 395.464 294.22C392.583 308.546 399.685 321.554 402.81 335.215C402.81 335.481 402.921 335.758 402.987 336.046C403.153 336.777 403.297 337.519 403.43 338.262C403.43 338.262 403.43 338.361 403.43 338.417C403.53 338.971 403.619 339.525 403.696 340.068C403.696 340.068 403.696 340.068 403.696 340.156C403.829 341.142 403.951 342.129 404.029 343.104C404.029 343.336 404.029 343.58 404.029 343.813L403.619 344.278C403.397 344.544 403.175 344.799 402.932 345.065C402.876 344.322 402.81 343.591 402.721 342.849C402.717 342.793 402.717 342.738 402.721 342.683C402.721 342.339 402.644 341.996 402.588 341.663C402.588 341.275 402.5 340.888 402.433 340.5C402.367 340.112 402.289 339.536 402.2 339.06C402.2 338.86 402.123 338.627 402.09 338.417C401.058 333.484 399.715 328.621 398.068 323.858C395.353 316.634 392.24 309.532 391.531 301.787C390.511 290.708 394.112 279.994 399.109 270.255C400.018 268.482 400.967 266.746 401.957 265.047L402.754 263.729C404.604 260.615 406.891 257.783 409.546 255.319C411.075 254.045 412.527 253.403 413.646 254.001C414.765 254.599 413.646 257.713 411.607 261.48Z" fill="white"/>
<path d="M421.678 287.772C420.174 293.441 418.324 299.014 416.139 304.458C412.693 315.338 406.821 326.052 403.752 337.165C403.746 337.19 403.746 337.217 403.752 337.242C403.663 337.575 403.574 337.885 403.497 338.217C403.198 339.325 402.932 340.433 402.71 341.619C402.411 343.115 402.189 344.621 402.023 346.128C402.029 346.165 402.029 346.202 402.023 346.239L401.846 346.427C401.702 346.605 401.547 346.771 401.381 346.948C401.332 347.016 401.276 347.079 401.214 347.137C401.214 346.394 401.314 345.663 401.392 344.921C401.469 344.178 401.536 343.58 401.646 342.915C401.824 341.597 402.056 340.3 402.344 338.982C402.555 337.974 402.81 336.976 403.076 335.957C403.928 332.777 404.949 329.644 406.134 326.573C407.729 322.362 409.458 318.219 411.208 314.03C413.463 308.761 415.25 303.304 416.549 297.721C418.765 287.162 416.815 277.146 413.568 267.031C412.97 265.18 412.327 263.33 411.696 261.491C411.064 259.651 410.311 257.369 409.69 255.286C407.94 249.502 406.654 243.608 407.053 237.559C407.585 229.692 411.485 222.047 418.953 218.79C419.252 218.657 419.74 218.79 419.695 219.233C418.997 227.432 414.61 233.415 414.92 243.065C415.268 250.73 416.955 258.275 419.906 265.357C422.709 272.847 423.64 279.927 421.678 287.772Z" fill="white"/>
<path d="M426.864 307.848C426.276 312.923 423.894 317.532 420.98 321.698C417.927 325.827 414.528 329.689 410.82 333.243C408.756 335.227 406.9 337.418 405.28 339.78C404.837 340.888 404.449 341.996 404.106 343.104C403.984 343.491 403.862 343.89 403.751 344.289C403.641 344.688 403.308 344.81 403.064 345.076L402.566 345.652L401.99 346.294C401.99 346.294 401.99 346.206 401.99 346.161C402.078 345.74 402.167 345.342 402.256 344.932C402.375 344.178 402.56 343.437 402.81 342.716C402.81 342.638 402.81 342.561 402.887 342.483L403.153 341.785C403.33 341.22 403.541 340.677 403.751 340.09C404.369 338.43 405.11 336.819 405.967 335.27C408.604 330.417 412.283 326.251 414.909 321.354C417.747 316.244 419.957 310.808 421.49 305.167C422.277 302.042 422.155 286.442 424.304 287.539C425.678 288.182 427.983 298.209 426.864 307.848Z" fill="white"/>
<path d="M401.735 346.46C401.591 346.638 401.436 346.804 401.269 346.981C401.22 347.049 401.165 347.112 401.103 347.17L400.826 347.491C400.66 346.915 400.472 346.383 400.272 345.785C397.761 339.931 394.798 334.281 391.409 328.888C388.21 323.814 385.473 318.463 383.232 312.9C381.2 307.347 380.103 301.495 379.985 295.583C379.872 292.886 379.976 290.185 380.296 287.506C380.517 285.866 381.082 284.326 382.999 284.237C387.254 284.06 387.431 290.364 387.088 293.156C386.744 295.948 386.035 298.408 385.691 301.056C385.265 304.375 385.366 307.74 385.991 311.028C387.298 317.675 391.01 323.415 394.234 329.254C397.07 334.251 399.429 339.504 401.281 344.943C401.281 345.042 401.281 345.109 401.347 345.186C401.502 345.618 401.646 346.039 401.735 346.46Z" fill="white"/>
<path d="M81.0119 333.697C80.5526 337.859 79.5966 341.95 78.1644 345.885C78.1724 345.917 78.1724 345.952 78.1644 345.984C77.0565 349.308 75.7269 352.51 74.5082 355.768C74.1536 356.876 73.8101 357.984 73.4667 359.036L73.0456 358.604C72.824 358.382 72.6024 358.161 72.3919 357.928C75.6383 347.502 79.3943 337.209 77.1673 326.13C75.7381 319.74 73.2556 313.633 69.8214 308.059C69.3118 307.172 68.791 306.308 68.2592 305.444C67.7274 304.58 66.9518 303.383 66.1984 302.175C62.243 295.849 56.8693 287.007 58.9301 285.921C61.8108 284.381 66.9518 291.073 69.8325 295.649L70.6081 296.946C71.5942 298.652 72.547 300.403 73.4667 302.175C78.4303 311.914 82.0202 322.684 81.0119 333.697Z" fill="white"/>
<path d="M78.6075 293.444C77.0895 296.281 75.1284 299.461 73.4333 302.175L71.3724 305.444C70.8295 306.297 70.2645 307.172 69.788 308.058C66.3616 313.634 63.8866 319.741 62.4644 326.129C60.8135 334.328 62.4644 342.117 64.6803 349.84C63.5724 348.732 62.5863 347.546 61.5559 346.394C60.0338 342.301 59.018 338.037 58.5311 333.697C57.5229 322.684 61.1127 311.914 66.1207 302.175C67.0292 300.402 67.9821 298.652 68.9682 296.946C69.2008 296.547 69.4778 296.104 69.7548 295.649C71.6112 292.54 73.8977 289.709 76.5466 287.24C78.0867 285.966 79.5381 285.323 80.6572 285.921C81.7762 286.52 80.624 289.688 78.6075 293.444Z" fill="white"/>
<path d="M88.6679 319.725C87.1599 325.398 85.3099 330.974 83.1281 336.422C80.6795 344.178 77.001 351.79 73.9873 359.568L73.4777 359.036L73.0566 358.604C74.6521 354.383 76.4581 350.228 78.1644 346.017C78.1724 345.985 78.1724 345.95 78.1644 345.918C80.4074 340.694 82.1798 335.28 83.4604 329.741C85.6764 319.194 83.7264 309.178 80.4689 299.062C79.8706 297.212 79.2391 295.339 78.6076 293.522C77.9095 291.461 77.2226 289.389 76.5911 287.317C74.8515 281.523 73.5663 275.628 73.9652 269.59C74.4859 261.723 78.397 254.078 85.8647 250.843C86.1528 250.71 86.6514 250.843 86.6071 251.286C85.9091 259.474 81.5215 265.457 81.8207 275.097C82.171 282.769 83.8622 290.322 86.8176 297.411C89.7094 304.801 90.6401 311.892 88.6679 319.725Z" fill="white"/>
<path d="M93.8535 339.791C93.2773 344.865 90.8841 349.485 87.9813 353.64C85.2021 357.46 82.0914 361.026 78.6854 364.299L76.2368 361.872C78.2413 359.104 80.0907 356.226 81.7766 353.252C84.6415 348.147 86.8739 342.711 88.4244 337.065C89.2222 333.941 89.1003 318.318 91.2498 319.426C92.679 320.158 94.9836 330.174 93.8535 339.791Z" fill="white"/>
<path d="M54.0995 325.121C53.8003 327.78 53.058 330.362 52.7145 333.021C52.5926 333.929 52.5151 334.838 52.4818 335.757C50.6352 333.542 48.8292 331.296 47.0639 329.021C47.0639 328.526 47.0417 328.028 46.9974 327.525C46.8771 324.832 46.9846 322.134 47.3187 319.459C47.5403 317.831 48.1054 316.279 50.0111 316.135C54.2657 316.002 54.4318 322.318 54.0995 325.121Z" fill="white"/>
<path d="M333.407 406.136C332.133 407 330.836 407.853 329.551 408.684C327.998 403.733 325.855 398.986 323.169 394.546C322.659 393.671 322.139 392.796 321.607 391.932L319.546 388.663C315.591 382.337 310.217 373.506 312.278 372.42C315.159 370.88 320.311 377.561 323.191 382.148L323.967 383.445C324.953 385.14 325.906 386.89 326.814 388.663C329.743 394.185 331.958 400.056 333.407 406.136Z" fill="white"/>
<path d="M331.989 379.877C330.471 382.713 328.51 385.893 326.814 388.608L324.754 391.876C324.222 392.729 323.646 393.616 323.169 394.491C319.751 400.071 317.277 406.177 315.846 412.562C315.52 414.181 315.313 415.821 315.225 417.47L311.901 419.365C311.115 408.617 314.671 398.125 319.546 388.608C320.455 386.835 321.408 385.084 322.394 383.389C322.637 382.99 322.903 382.536 323.191 382.093C325.043 378.98 327.326 376.145 329.972 373.672C331.512 372.409 332.964 371.767 334.083 372.365C335.202 372.963 334.005 376.121 331.989 379.877Z" fill="white"/>
<path d="M343.013 399.421C341.225 400.714 339.43 401.981 337.628 403.222C337.06 397.183 335.78 391.233 333.816 385.494C333.218 383.644 332.575 381.782 331.944 379.954C331.246 377.905 330.559 375.822 329.927 373.75C328.188 367.966 326.903 362.061 327.302 356.022C327.833 348.156 331.733 340.511 339.201 337.275C339.5 337.142 339.988 337.275 339.943 337.708C339.245 345.895 334.858 351.89 335.157 361.529C335.512 369.197 337.203 376.745 340.154 383.832C342.196 388.769 343.17 394.081 343.013 399.421Z" fill="white"/>
<path d="M307.491 411.565C307.192 414.224 306.439 416.805 306.095 419.453C305.953 420.515 305.872 421.584 305.852 422.655C304.467 423.387 303.093 424.096 301.708 424.794C300.915 421.237 300.474 417.612 300.389 413.969C300.26 411.273 300.364 408.57 300.7 405.892C300.921 404.263 301.486 402.712 303.403 402.623C307.646 402.446 307.813 408.761 307.491 411.565Z" fill="white"/>
<path d="M234.332 301.156C234.332 301.156 223.507 315.293 207.32 333.752C195.332 347.413 178.513 362.77 170.757 379.999C153.218 418.777 165.826 450 165.826 450C165.826 450 222.743 417.381 243.118 377.074C257.322 348.987 250.597 303.372 250.597 303.372L234.332 301.156Z" fill="#BB2C75"/>
<path opacity="0.2" d="M234.332 301.156C234.332 301.156 223.507 315.293 207.32 333.752C195.332 347.413 178.513 362.77 170.757 379.999C153.218 418.777 165.826 450 165.826 450C165.826 450 222.743 417.381 243.118 377.074C257.322 348.987 250.597 303.372 250.597 303.372L234.332 301.156Z" fill="black"/>
<path d="M247.417 384.198C67.6159 384.198 40.1162 277.589 40.1162 193.096V160.123C40.1162 74.5434 122.638 75.6513 126.05 75.6513V98.4754C126.05 98.4754 109.996 97.2456 100.046 104.99C88.1798 114.231 88.4235 148.057 88.4235 161.231V166.948C88.4235 192.985 97.5864 226.988 200.018 226.988H419.85C419.85 226.988 427.218 384.198 247.417 384.198Z" fill="#BB2C75"/>
<path d="M247.417 384.198C67.6159 384.198 40.1162 277.589 40.1162 193.096V160.123C40.1162 74.5434 122.638 75.6513 126.05 75.6513V98.4754C126.05 98.4754 109.996 97.2456 100.046 104.99C88.1798 114.231 88.4235 148.057 88.4235 161.231V166.948C88.4235 192.985 97.5864 226.988 200.018 226.988H419.85C419.85 226.988 427.218 384.198 247.417 384.198Z" fill="#BB2C75"/>
<path opacity="0.1" d="M247.417 384.198C67.6159 384.198 40.1162 277.589 40.1162 193.096V160.123C40.1162 74.5434 122.638 75.6513 126.05 75.6513V98.4754C126.05 98.4754 109.996 97.2456 100.046 104.99C88.1798 114.231 88.4235 148.057 88.4235 161.231V166.948C88.4235 192.985 97.5864 226.988 200.018 226.988H419.85C419.85 226.988 427.218 384.198 247.417 384.198Z" fill="black"/>
<path d="M244.503 171.845C244.503 171.845 196.362 179.401 171.488 166.305C144.963 152.356 151.179 98.4201 126.062 98.4201V75.596C151.19 75.596 144.975 21.6491 171.488 7.69979C196.362 -5.37421 244.503 2.15996 244.503 2.15996C244.503 2.15996 214.112 11.8768 204.284 30.0253C190.988 54.5225 197.038 87.0413 174.435 87.0413C197.038 87.0413 191.055 119.549 204.284 144.057C214.112 162.25 244.503 171.845 244.503 171.845Z" fill="#BB2C75"/>
<g opacity="0.1">
<path opacity="0.1" d="M244.503 171.845C244.503 171.845 196.362 179.401 171.488 166.305C144.963 152.356 151.179 98.4201 126.062 98.4201V75.596C151.19 75.596 144.975 21.6491 171.488 7.69979C196.362 -5.37421 244.503 2.15996 244.503 2.15996C244.503 2.15996 214.112 11.8768 204.284 30.0253C190.988 54.5225 197.038 87.0413 174.435 87.0413C197.038 87.0413 191.055 119.549 204.284 144.057C214.112 162.25 244.503 171.845 244.503 171.845Z" fill="black"/>
</g>
<path d="M418.831 246.688C413.922 288.891 387.409 384.198 247.417 384.198C67.6163 384.198 40.1055 277.589 40.1055 193.096V174.449C48.6257 178.061 55.617 188.11 57.3011 210.291C65.6663 321.42 150.647 355.701 212.051 355.701C281.321 355.701 307.535 290.331 355.754 263.862C375.118 253.21 396.74 247.323 418.831 246.688Z" fill="white"/>
<path d="M418.831 246.688C417.474 258.848 414.856 270.835 411.019 282.453C409.115 288.267 406.861 293.962 404.272 299.505C401.711 305.062 398.798 310.45 395.552 315.637C389.053 326.04 381.157 335.501 372.085 343.757C363.002 352.005 352.873 359.023 341.96 364.631C331.028 370.201 319.507 374.53 307.613 377.539C295.738 380.547 283.641 382.596 271.438 383.666L262.275 384.286C261.51 384.286 260.746 384.397 259.981 384.43L257.688 384.486L253.101 384.586C246.985 384.84 240.913 384.586 234.753 384.497C233.224 384.497 231.695 384.497 230.166 384.386L225.59 384.12L216.427 383.6C213.369 383.389 210.333 383.012 207.286 382.735L202.722 382.281C201.957 382.192 201.193 382.137 200.439 382.037L198.223 381.705L189.138 380.364L186.922 380.021L184.706 379.578L180.197 378.691C174.169 377.583 168.253 376.01 162.314 374.525C150.518 371.235 139.026 366.935 127.967 361.673C116.92 356.337 106.55 349.702 97.0771 341.907C87.6185 334.096 79.2259 325.078 72.1146 315.083C65.0303 305.073 59.1821 294.244 54.6974 282.83C50.2742 271.413 46.9356 259.606 44.7257 247.563C42.523 235.528 41.1459 223.357 40.604 211.133C39.9725 198.946 40.2827 186.703 40.2716 174.482C40.3714 186.67 40.1498 198.924 40.8699 211.122C41.5248 223.322 43.0054 235.464 45.3018 247.464C47.5529 259.46 50.9248 271.22 55.3732 282.586C59.8612 293.939 65.7096 304.706 72.7904 314.651C79.8869 324.568 88.2574 333.509 97.6865 341.242C107.123 348.975 117.453 355.548 128.455 360.82C139.414 366.008 150.797 370.249 162.48 373.495C168.397 374.946 174.28 376.553 180.296 377.594L184.784 378.47L187 378.902L189.216 379.234L198.268 380.553L200.484 380.896C201.237 380.985 202.001 381.051 202.755 381.129L207.309 381.605C210.344 381.893 213.369 382.27 216.416 382.492L225.557 383.034L230.122 383.311C231.64 383.4 233.169 383.389 234.698 383.433C240.791 383.511 246.885 383.81 253.001 383.566L257.699 383.467H259.992C260.757 383.467 261.51 383.367 262.275 383.323L271.404 382.735C283.559 381.692 295.612 379.68 307.447 376.719C319.283 373.75 330.752 369.469 341.639 363.955C352.511 358.41 362.609 351.463 371.675 343.292C380.714 335.085 388.59 325.684 395.087 315.349C398.384 310.205 401.345 304.854 403.951 299.328C406.578 293.817 408.868 288.153 410.809 282.365C414.712 270.783 417.401 258.826 418.831 246.688Z" fill="#A6A6A6"/>
<path d="M411.994 253.148C411.822 258.836 411.169 264.499 410.044 270.077C408.964 275.668 407.52 281.183 405.723 286.586C402.148 297.412 397.148 307.715 390.854 317.221C384.498 326.709 376.875 335.283 368.196 342.705C359.495 350.077 349.921 356.351 339.688 361.385C329.432 366.393 318.707 370.375 307.668 373.273C302.128 374.791 296.588 375.932 291.048 377.018C288.234 377.473 285.442 378.015 282.617 378.381L278.384 378.979L274.141 379.467C262.795 380.717 251.386 381.313 239.971 381.251C228.592 381.251 217.202 380.73 205.857 379.6C183.221 377.306 160.685 372.476 139.656 363.59C118.627 354.704 99.359 341.43 84.5899 324.057C77.2102 315.352 70.9083 305.788 65.8209 295.572C60.7626 285.361 56.7462 274.667 53.8327 263.651C47.9272 241.625 45.8997 218.756 45.9772 196.065C46.0769 218.756 48.2929 241.647 54.3313 263.507C57.2948 274.475 61.3442 285.119 66.4192 295.284C71.5095 305.452 77.8036 314.971 85.166 323.636C99.913 340.921 119.103 354.117 140.032 362.803C160.962 371.49 183.432 376.331 205.99 378.558C217.291 379.666 228.637 380.242 239.993 380.287C251.351 380.38 262.704 379.817 273.997 378.603L278.218 378.126L282.439 377.539C285.254 377.196 288.046 376.653 290.849 376.209C296.389 375.101 301.984 373.993 307.468 372.52C318.461 369.672 329.142 365.738 339.356 360.775C349.555 355.791 359.103 349.573 367.786 342.261C376.444 334.904 384.056 326.397 390.411 316.978C396.759 307.548 401.826 297.317 405.479 286.553C407.314 281.175 408.794 275.682 409.911 270.111C411.078 264.524 411.775 258.85 411.994 253.148Z" fill="#DBDBDB"/>
<path d="M406.842 255.851C406.559 261.244 405.817 266.604 404.626 271.872C401.185 287.773 394.629 302.836 385.336 316.191C379.091 325.039 371.686 333.01 363.321 339.89C354.938 346.737 345.774 352.568 336.021 357.263C316.509 366.659 295.192 371.855 273.753 374.292C263.014 375.492 252.217 376.106 241.411 376.132C230.609 376.132 219.806 375.766 209.048 374.813C198.276 373.869 187.571 372.266 176.994 370.016C166.423 367.788 156.049 364.713 145.971 360.82C135.886 356.916 126.232 351.978 117.164 346.084C98.944 334.217 83.9615 318.004 73.5657 298.906C68.4002 289.385 64.22 279.361 61.09 268.991C54.8189 248.294 52.2263 226.667 51.4507 205.139C52.4479 226.667 55.1845 248.25 61.6107 268.836C64.7692 279.139 68.964 289.095 74.1308 298.552C84.5205 317.514 99.4654 333.594 117.618 345.341C126.66 351.181 136.285 356.064 146.337 359.911C166.435 367.667 187.797 371.766 209.214 373.661C219.939 374.647 230.72 375.09 241.489 375.068C252.26 375.076 263.023 374.495 273.731 373.328C295.104 370.968 316.332 365.85 335.777 356.565C345.483 351.911 354.605 346.128 362.955 339.336C379.72 325.624 392.496 307.663 399.95 287.328C401.818 282.264 403.35 277.082 404.537 271.817C405.758 266.57 406.529 261.229 406.842 255.851Z" fill="#DBDBDB"/>
<path d="M399.973 256.505C399.75 261.004 399.176 265.479 398.256 269.889C397.364 274.308 396.21 278.67 394.799 282.952C386.307 308.963 368.765 331.065 345.361 345.242C330.016 354.781 312.82 361.097 295.215 364.941C277.549 368.683 259.536 370.54 241.478 370.481C232.471 370.481 223.452 370.304 214.455 369.584C209.957 369.318 205.469 368.753 200.993 368.298C196.517 367.844 192.041 367.124 187.609 366.293C178.72 364.788 169.935 362.723 161.306 360.111C152.661 357.484 144.236 354.179 136.111 350.228C127.993 346.263 120.279 341.52 113.076 336.068C105.908 330.571 99.3483 324.324 93.5094 317.432C87.6995 310.52 82.6582 302.997 78.4743 294.995C74.2993 287.006 70.8472 278.659 68.1592 270.055C70.943 278.613 74.4879 286.904 78.7513 294.829C83.022 302.729 88.1135 310.156 93.9416 316.989C99.7781 323.825 106.33 330.017 113.486 335.458C120.669 340.859 128.361 345.546 136.454 349.452C144.546 353.357 152.933 356.618 161.539 359.202C170.149 361.773 178.911 363.8 187.775 365.274C192.207 366.082 196.639 366.614 201.071 367.213C205.503 367.811 210.001 368.199 214.488 368.442C223.452 369.163 232.448 369.373 241.434 369.418C259.423 369.531 277.373 367.734 294.982 364.055C312.532 360.277 329.661 354.083 344.962 344.61C368.247 330.494 385.802 308.611 394.533 282.819C395.975 278.556 397.166 274.213 398.101 269.811C399.07 265.431 399.696 260.982 399.973 256.505Z" fill="#DBDBDB"/>
<path d="M393.979 259.784C392.009 274.975 386.899 289.59 378.973 302.698C371.047 315.807 360.48 327.122 347.943 335.924C335.386 344.678 321.493 351.338 306.804 355.646C292.142 359.957 277.056 362.669 261.81 363.734C254.209 364.321 246.575 364.576 238.941 364.576C231.307 364.576 223.685 364.354 216.073 363.789C200.828 362.801 185.708 360.39 170.912 356.587C156.081 352.809 141.863 346.937 128.687 339.148C115.553 331.299 104.035 321.018 94.7505 308.856C97.1215 311.811 99.6145 314.688 102.229 317.487C104.866 320.224 107.625 322.861 110.495 325.354C116.266 330.313 122.457 334.762 128.998 338.649C142.147 346.322 156.324 352.078 171.1 355.745C185.861 359.455 200.936 361.777 216.128 362.681C231.305 363.771 246.54 363.797 261.721 362.759C276.906 361.745 291.937 359.089 306.549 354.837C321.177 350.602 335.022 344.024 347.544 335.359C360.012 326.597 370.567 315.389 378.567 302.419C386.587 289.421 391.834 274.906 393.979 259.784Z" fill="#DBDBDB"/>
<path d="M387.797 262.576C383.272 287.795 369.851 310.554 349.971 326.716C343.393 332.052 336.278 336.689 328.742 340.555C313.572 348.128 297.309 353.28 280.545 355.823C272.197 357.167 263.783 358.066 255.339 358.515C251.118 358.726 246.885 358.892 242.664 358.903H239.495C238.443 358.903 237.379 358.836 236.326 358.814C234.208 358.739 232.096 358.543 230 358.227C234.205 357.825 238.431 357.688 242.653 357.817C246.863 357.817 251.074 357.651 255.284 357.451C263.693 357.016 272.074 356.136 280.39 354.814C297.06 352.298 313.244 347.234 328.376 339.801C335.886 336.002 342.981 331.435 349.55 326.173C356.101 320.874 362.023 314.841 367.199 308.191C377.572 294.827 384.631 279.195 387.797 262.576Z" fill="#DBDBDB"/>
<path d="M380.584 265.379C377.578 279.725 371.458 293.236 362.657 304.956C353.795 316.653 342.649 326.427 329.894 333.686C323.537 337.305 316.906 340.421 310.062 343.004C303.207 345.521 296.202 347.608 289.088 349.252L283.725 350.36C282.828 350.538 281.941 350.737 281.044 350.903L278.341 351.335L272.945 352.2L267.516 352.864C263.904 353.352 260.259 353.518 256.624 353.828C252.99 354.139 249.356 354.161 245.711 354.338C249.345 354.072 252.99 353.895 256.602 353.562C260.214 353.23 263.859 352.898 267.449 352.322L272.856 351.59L278.219 350.648L280.911 350.172C281.797 350.006 282.684 349.795 283.57 349.596L288.888 348.433C295.943 346.71 302.894 344.586 309.707 342.073C316.482 339.474 323.046 336.355 329.34 332.744C335.634 329.148 341.57 324.96 347.068 320.235C352.547 315.484 357.539 310.198 361.97 304.457C370.833 292.872 377.173 279.561 380.584 265.379Z" fill="#DBDBDB"/>
<path d="M373.592 267.861C372.088 273.902 369.976 279.775 367.288 285.389C364.593 291.013 361.361 296.364 357.637 301.366C350.079 311.336 340.791 319.866 330.215 326.55C324.949 329.897 319.434 332.834 313.718 335.336C312.31 336.012 310.859 336.566 309.419 337.154C307.978 337.741 306.538 338.339 305.064 338.849C303.591 339.358 302.139 339.957 300.632 340.411L296.201 341.796C284.264 345.278 272.02 347.601 259.638 348.732C265.787 347.845 271.936 346.959 277.986 345.618C284.063 344.383 290.073 342.834 295.99 340.976C307.846 337.384 319.166 332.219 329.65 325.62C340.15 319.037 349.406 310.654 356.995 300.857C364.538 290.99 370.167 279.799 373.592 267.861Z" fill="#DBDBDB"/>
<path d="M367.388 268.637C365.879 273.834 363.921 278.891 361.538 283.75L359.632 287.373C359.023 288.591 358.236 289.699 357.549 290.874C356.862 292.048 356.175 293.223 355.333 294.309L352.962 297.632C346.425 306.365 338.492 313.961 329.484 320.113C320.449 326.162 310.698 331.067 300.455 334.716C297.874 335.58 295.314 336.489 292.7 337.331L284.833 339.414C283.515 339.735 282.218 340.134 280.889 340.4L276.889 341.153L268.912 342.649L276.834 340.865L280.789 339.99C282.108 339.68 283.393 339.248 284.689 338.882L292.445 336.666C294.993 335.78 297.53 334.838 300.068 333.929C310.225 330.192 319.897 325.248 328.875 319.205C337.821 313.15 345.733 305.694 352.308 297.123L354.724 293.876C355.555 292.769 356.208 291.661 356.94 290.553C357.671 289.445 358.446 288.337 359.078 287.118L361.039 283.583C363.558 278.782 365.681 273.783 367.388 268.637Z" fill="#DBDBDB"/>
<path d="M359.864 271.108C358.362 275.399 356.551 279.576 354.446 283.606C352.273 287.611 349.803 291.448 347.056 295.084C341.533 302.359 335.009 308.815 327.678 314.263C320.318 319.65 312.38 324.199 304.012 327.825C295.634 331.36 286.967 334.167 278.107 336.212L284.611 334.218L287.869 333.232L291.06 332.068C293.176 331.27 295.336 330.572 297.43 329.719L303.668 327.038C311.912 323.326 319.738 318.746 327.013 313.377C334.298 308.008 340.818 301.671 346.391 294.541C349.187 290.989 351.72 287.238 353.97 283.318C356.202 279.382 358.171 275.303 359.864 271.108Z" fill="#DBDBDB"/>
<path d="M353.671 271.651C351.049 278.381 347.571 284.745 343.323 290.586C339.04 296.422 334.103 301.749 328.609 306.463C323.117 311.14 317.179 315.267 310.881 318.784C307.679 320.434 304.499 322.107 301.176 323.537C297.852 324.966 294.528 326.207 291.115 327.459C294.439 325.974 297.763 324.711 300.943 323.027C304.211 321.542 307.336 319.759 310.46 318.03C316.659 314.442 322.511 310.288 327.944 305.621C333.394 300.993 338.33 295.792 342.669 290.109C343.777 288.702 344.763 287.206 345.816 285.755C346.868 284.304 347.777 282.764 348.674 281.201C350.504 278.106 352.172 274.919 353.671 271.651Z" fill="#DBDBDB"/>
<path d="M346.834 273.324C345.628 275.979 344.282 278.568 342.801 281.079C341.328 283.595 339.677 285.988 337.971 288.348C334.468 293.011 330.536 297.337 326.226 301.267C321.892 305.166 317.225 308.677 312.277 311.759C311.069 312.568 309.773 313.244 308.532 313.975L306.637 315.083L304.71 316.091C302.139 317.443 299.48 318.628 296.821 319.792C299.369 318.396 301.973 317.122 304.444 315.615L306.327 314.507L308.177 313.399C309.385 312.612 310.648 311.903 311.823 311.061C316.652 307.868 321.216 304.293 325.473 300.369C329.766 296.512 333.722 292.293 337.295 287.761C340.857 283.212 344.047 278.384 346.834 273.324Z" fill="#DBDBDB"/>
<path d="M243.982 340.322C248.51 340.322 252.181 336.652 252.181 332.124C252.181 327.595 248.51 323.925 243.982 323.925C239.454 323.925 235.783 327.595 235.783 332.124C235.783 336.652 239.454 340.322 243.982 340.322Z" fill="#263238"/>
<path d="M171.399 316.39C171.399 316.39 155.688 324.8 133.319 334.904C116.699 342.383 95.1159 349.43 80.9006 361.894C48.8915 389.97 47.4844 423.597 47.4844 423.597C47.4844 423.597 112.777 417.426 147.999 389.15C172.552 369.44 185.282 325.132 185.282 325.132L171.399 316.39Z" fill="#BB2C75"/>
<path opacity="0.1" d="M171.399 316.39C171.399 316.39 155.688 324.8 133.319 334.904C116.699 342.383 95.1159 349.43 80.9006 361.894C48.8915 389.97 47.4844 423.597 47.4844 423.597C47.4844 423.597 112.777 417.426 147.999 389.15C172.552 369.44 185.282 325.132 185.282 325.132L171.399 316.39Z" fill="black"/>
<g opacity="0.2">
<path opacity="0.2" d="M64.5467 242.965C64.3527 242.988 64.1739 243.082 64.0442 243.228C63.9144 243.374 63.8428 243.562 63.8428 243.758C63.8428 243.953 63.9144 244.141 64.0442 244.287C64.1739 244.433 64.3527 244.527 64.5467 244.55C64.7406 244.527 64.9194 244.433 65.0492 244.287C65.1789 244.141 65.2505 243.953 65.2505 243.758C65.2505 243.562 65.1789 243.374 65.0492 243.228C64.9194 243.082 64.7406 242.988 64.5467 242.965Z" fill="black"/>
<path opacity="0.2" d="M169.061 410.157C168.852 410.157 168.652 410.24 168.505 410.388C168.357 410.535 168.274 410.735 168.274 410.944C168.274 411.153 168.357 411.353 168.505 411.5C168.652 411.648 168.852 411.731 169.061 411.731C169.27 411.731 169.47 411.648 169.617 411.5C169.765 411.353 169.848 411.153 169.848 410.944C169.848 410.735 169.765 410.535 169.617 410.388C169.47 410.24 169.27 410.157 169.061 410.157Z" fill="black"/>
<path opacity="0.2" d="M109.021 258.477C108.827 258.5 108.648 258.593 108.518 258.739C108.389 258.885 108.317 259.073 108.317 259.269C108.317 259.464 108.389 259.653 108.518 259.799C108.648 259.945 108.827 260.038 109.021 260.061C109.215 260.038 109.394 259.945 109.523 259.799C109.653 259.653 109.725 259.464 109.725 259.269C109.725 259.073 109.653 258.885 109.523 258.739C109.394 258.593 109.215 258.5 109.021 258.477Z" fill="black"/>
<path opacity="0.2" d="M130.737 353.551C130.543 353.574 130.364 353.668 130.234 353.814C130.104 353.96 130.033 354.148 130.033 354.343C130.033 354.539 130.104 354.727 130.234 354.873C130.364 355.019 130.543 355.113 130.737 355.136C130.931 355.113 131.109 355.019 131.239 354.873C131.369 354.727 131.44 354.539 131.44 354.343C131.44 354.148 131.369 353.96 131.239 353.814C131.109 353.668 130.931 353.574 130.737 353.551Z" fill="black"/>
<path opacity="0.2" d="M220.615 398.214C220.421 398.237 220.242 398.33 220.113 398.476C219.983 398.622 219.911 398.81 219.911 399.006C219.911 399.201 219.983 399.39 220.113 399.536C220.242 399.682 220.421 399.775 220.615 399.798C220.809 399.775 220.988 399.682 221.118 399.536C221.247 399.39 221.319 399.201 221.319 399.006C221.319 398.81 221.247 398.622 221.118 398.476C220.988 398.33 220.809 398.237 220.615 398.214Z" fill="black"/>
<path opacity="0.2" d="M72.8681 146.539C72.8319 146.459 72.7912 146.381 72.7463 146.306C72.7148 146.253 72.6702 146.21 72.6168 146.179C72.5634 146.149 72.503 146.133 72.4416 146.133C72.3801 146.133 72.3197 146.149 72.2663 146.179C72.2129 146.21 72.1683 146.253 72.1369 146.306C72.0919 146.381 72.0513 146.459 72.015 146.539C71.5607 147.469 73.3224 147.469 72.8681 146.539Z" fill="black"/>
<path opacity="0.2" d="M121.552 280.06C121.516 279.977 121.475 279.895 121.43 279.816C121.396 279.766 121.351 279.725 121.298 279.696C121.245 279.668 121.185 279.653 121.125 279.653C121.065 279.653 121.005 279.668 120.952 279.696C120.899 279.725 120.854 279.766 120.82 279.816C120.775 279.895 120.735 279.977 120.699 280.06C120.244 280.991 122.006 280.991 121.552 280.06Z" fill="black"/>
<path opacity="0.2" d="M96.8777 394.546L96.7559 394.302C96.7212 394.252 96.6749 394.211 96.6208 394.182C96.5668 394.154 96.5067 394.139 96.4456 394.139C96.3846 394.139 96.3244 394.154 96.2704 394.182C96.2164 394.211 96.17 394.252 96.1354 394.302C96.0904 394.381 96.0497 394.463 96.0135 394.546C95.5593 395.532 97.3209 395.532 96.8777 394.546Z" fill="black"/>
<path opacity="0.2" d="M71.3502 247.796C71.2041 247.816 71.0701 247.888 70.9732 247.999C70.8762 248.11 70.8228 248.253 70.8228 248.4C70.8228 248.547 70.8762 248.69 70.9732 248.801C71.0701 248.912 71.2041 248.984 71.3502 249.004C71.4962 248.984 71.6302 248.912 71.7271 248.801C71.8241 248.69 71.8776 248.547 71.8776 248.4C71.8776 248.253 71.8241 248.11 71.7271 247.999C71.6302 247.888 71.4962 247.816 71.3502 247.796Z" fill="black"/>
<path opacity="0.2" d="M167.754 345.629C167.608 345.649 167.474 345.721 167.377 345.832C167.28 345.943 167.227 346.086 167.227 346.233C167.227 346.381 167.28 346.523 167.377 346.634C167.474 346.745 167.608 346.817 167.754 346.837C167.9 346.817 168.034 346.745 168.131 346.634C168.228 346.523 168.281 346.381 168.281 346.233C168.281 346.086 168.228 345.943 168.131 345.832C168.034 345.721 167.9 345.649 167.754 345.629Z" fill="black"/>
<path opacity="0.2" d="M168.341 402.302C168.195 402.322 168.061 402.394 167.964 402.505C167.867 402.616 167.814 402.758 167.814 402.906C167.814 403.053 167.867 403.196 167.964 403.307C168.061 403.418 168.195 403.49 168.341 403.51C168.487 403.49 168.621 403.418 168.718 403.307C168.815 403.196 168.869 403.053 168.869 402.906C168.869 402.758 168.815 402.616 168.718 402.505C168.621 402.394 168.487 402.322 168.341 402.302Z" fill="black"/>
<path opacity="0.2" d="M397.114 237.215C396.968 237.235 396.834 237.307 396.737 237.418C396.64 237.529 396.586 237.672 396.586 237.819C396.586 237.966 396.64 238.109 396.737 238.22C396.834 238.331 396.968 238.403 397.114 238.423C397.26 238.403 397.394 238.331 397.491 238.22C397.588 238.109 397.641 237.966 397.641 237.819C397.641 237.672 397.588 237.529 397.491 237.418C397.394 237.307 397.26 237.235 397.114 237.215Z" fill="black"/>
<path opacity="0.2" d="M85.0445 223.31C84.8984 223.33 84.7645 223.402 84.6675 223.513C84.5705 223.624 84.5171 223.766 84.5171 223.914C84.5171 224.061 84.5705 224.203 84.6675 224.315C84.7645 224.426 84.8984 224.498 85.0445 224.517C85.1906 224.498 85.3245 224.426 85.4215 224.315C85.5185 224.203 85.5719 224.061 85.5719 223.914C85.5719 223.766 85.5185 223.624 85.4215 223.513C85.3245 223.402 85.1906 223.33 85.0445 223.31Z" fill="black"/>
<path opacity="0.2" d="M59.107 409.781C58.9609 409.801 58.827 409.873 58.73 409.984C58.633 410.095 58.5796 410.237 58.5796 410.385C58.5796 410.532 58.633 410.674 58.73 410.785C58.827 410.896 58.9609 410.969 59.107 410.988C59.2531 410.969 59.387 410.896 59.484 410.785C59.5809 410.674 59.6344 410.532 59.6344 410.385C59.6344 410.237 59.5809 410.095 59.484 409.984C59.387 409.873 59.2531 409.801 59.107 409.781Z" fill="black"/>
<path opacity="0.2" d="M46.4649 171.457C46.3091 171.302 46.0978 171.214 45.8776 171.214C45.6574 171.214 45.4462 171.302 45.2904 171.457C45.1461 171.598 45.043 171.776 44.9922 171.971C44.9414 172.166 44.9449 172.372 45.0023 172.565C45.0556 172.756 45.1699 172.925 45.328 173.045C45.4861 173.165 45.6791 173.23 45.8776 173.23C46.0762 173.23 46.2692 173.165 46.4273 173.045C46.5853 172.925 46.6997 172.756 46.7529 172.565C46.8103 172.372 46.8139 172.166 46.7631 171.971C46.7123 171.776 46.6092 171.598 46.4649 171.457Z" fill="black"/>
<path opacity="0.2" d="M159.987 29.1275C159.832 28.9719 159.62 28.8845 159.4 28.8845C159.18 28.8845 158.969 28.9719 158.813 29.1275C158.669 29.2685 158.565 29.4462 158.515 29.6414C158.464 29.8367 158.467 30.0421 158.525 30.2355C158.578 30.4268 158.692 30.5953 158.85 30.7154C159.009 30.8355 159.202 30.9005 159.4 30.9005C159.599 30.9005 159.792 30.8355 159.95 30.7154C160.108 30.5953 160.222 30.4268 160.275 30.2355C160.333 30.0421 160.336 29.8367 160.286 29.6414C160.235 29.4462 160.132 29.2685 159.987 29.1275Z" fill="black"/>
<path opacity="0.2" d="M114.881 280.215C114.726 280.059 114.514 279.972 114.294 279.972C114.074 279.972 113.863 280.059 113.707 280.215C113.563 280.356 113.459 280.534 113.409 280.729C113.358 280.924 113.361 281.129 113.419 281.323C113.472 281.514 113.586 281.683 113.745 281.803C113.903 281.923 114.096 281.988 114.294 281.988C114.493 281.988 114.686 281.923 114.844 281.803C115.002 281.683 115.116 281.514 115.169 281.323C115.227 281.129 115.23 280.924 115.18 280.729C115.129 280.534 115.026 280.356 114.881 280.215Z" fill="black"/>
<path opacity="0.2" d="M63.4612 136.235C63.3021 136.081 63.0896 135.995 62.8684 135.995C62.6473 135.995 62.4347 136.081 62.2757 136.235C62.1371 136.38 62.0379 136.557 61.9875 136.751C61.9371 136.945 61.9371 137.149 61.9876 137.343C62.0444 137.532 62.1608 137.698 62.3195 137.816C62.4781 137.935 62.6707 137.998 62.8684 137.998C63.0662 137.998 63.2587 137.935 63.4174 137.816C63.5761 137.698 63.6924 137.532 63.7493 137.343C63.7998 137.149 63.7998 136.945 63.7494 136.751C63.699 136.557 63.5997 136.38 63.4612 136.235Z" fill="black"/>
<path opacity="0.2" d="M223.574 4.42007C223.497 4.34167 223.406 4.27937 223.305 4.23682C223.204 4.19428 223.096 4.17236 222.987 4.17236C222.877 4.17236 222.769 4.19428 222.668 4.23682C222.567 4.27937 222.476 4.34167 222.399 4.42007C222.255 4.56102 222.152 4.73871 222.101 4.93396C222.05 5.12922 222.054 5.33463 222.111 5.52804C222.171 5.71324 222.288 5.87475 222.445 5.98932C222.602 6.10388 222.792 6.16561 222.987 6.16561C223.181 6.16561 223.371 6.10388 223.528 5.98932C223.685 5.87475 223.802 5.71324 223.862 5.52804C223.919 5.33463 223.923 5.12922 223.872 4.93396C223.821 4.73871 223.718 4.56102 223.574 4.42007Z" fill="black"/>
<path opacity="0.2" d="M178.169 339.203C178.363 339.18 178.542 339.087 178.672 338.941C178.801 338.795 178.873 338.606 178.873 338.411C178.873 338.216 178.801 338.027 178.672 337.881C178.542 337.735 178.363 337.642 178.169 337.619C177.975 337.642 177.796 337.735 177.667 337.881C177.537 338.027 177.465 338.216 177.465 338.411C177.465 338.606 177.537 338.795 177.667 338.941C177.796 339.087 177.975 339.18 178.169 339.203Z" fill="black"/>
<path opacity="0.2" d="M172.163 408.573C172.357 408.55 172.536 408.457 172.666 408.311C172.796 408.165 172.867 407.976 172.867 407.781C172.867 407.585 172.796 407.397 172.666 407.251C172.536 407.105 172.357 407.012 172.163 406.989C171.969 407.012 171.791 407.105 171.661 407.251C171.531 407.397 171.459 407.585 171.459 407.781C171.459 407.976 171.531 408.165 171.661 408.311C171.791 408.457 171.969 408.55 172.163 408.573Z" fill="black"/>
<path opacity="0.2" d="M197.968 137.01C198.177 137.01 198.377 136.927 198.525 136.78C198.672 136.632 198.755 136.432 198.755 136.224C198.755 136.015 198.672 135.815 198.525 135.667C198.377 135.52 198.177 135.437 197.968 135.437C197.76 135.437 197.56 135.52 197.412 135.667C197.265 135.815 197.182 136.015 197.182 136.224C197.182 136.432 197.265 136.632 197.412 136.78C197.56 136.927 197.76 137.01 197.968 137.01Z" fill="black"/>
<path opacity="0.2" d="M221.379 343.469C221.573 343.446 221.752 343.352 221.882 343.206C222.011 343.06 222.083 342.872 222.083 342.676C222.083 342.481 222.011 342.293 221.882 342.147C221.752 342.001 221.573 341.907 221.379 341.884C221.185 341.907 221.006 342.001 220.877 342.147C220.747 342.293 220.675 342.481 220.675 342.676C220.675 342.872 220.747 343.06 220.877 343.206C221.006 343.352 221.185 343.446 221.379 343.469Z" fill="black"/>
<path opacity="0.2" d="M101.475 97.4115C101.669 97.3886 101.848 97.2952 101.978 97.1492C102.108 97.0032 102.179 96.8147 102.179 96.6193C102.179 96.424 102.108 96.2355 101.978 96.0895C101.848 95.9435 101.669 95.8501 101.475 95.8271C101.281 95.8501 101.103 95.9435 100.973 96.0895C100.843 96.2355 100.771 96.424 100.771 96.6193C100.771 96.8147 100.843 97.0032 100.973 97.1492C101.103 97.2952 101.281 97.3886 101.475 97.4115Z" fill="black"/>
<path opacity="0.2" d="M182.035 237.835C182.229 237.812 182.408 237.719 182.538 237.573C182.668 237.427 182.739 237.238 182.739 237.043C182.739 236.848 182.668 236.659 182.538 236.513C182.408 236.367 182.229 236.274 182.035 236.251C181.841 236.274 181.663 236.367 181.533 236.513C181.403 236.659 181.332 236.848 181.332 237.043C181.332 237.238 181.403 237.427 181.533 237.573C181.663 237.719 181.841 237.812 182.035 237.835Z" fill="black"/>
<path opacity="0.2" d="M324.609 253.834C324.645 253.914 324.686 253.992 324.731 254.067C324.762 254.12 324.807 254.164 324.86 254.194C324.914 254.224 324.974 254.24 325.036 254.24C325.097 254.24 325.158 254.224 325.211 254.194C325.264 254.164 325.309 254.12 325.34 254.067C325.385 253.992 325.426 253.914 325.462 253.834C325.917 252.848 324.177 252.848 324.609 253.834Z" fill="black"/>
<path opacity="0.2" d="M255.716 335.99C255.75 336.075 255.79 336.156 255.837 336.234C255.87 336.287 255.916 336.33 255.97 336.36C256.025 336.39 256.086 336.406 256.148 336.406C256.21 336.406 256.271 336.39 256.325 336.36C256.379 336.33 256.425 336.287 256.458 336.234C256.458 336.156 256.535 336.079 256.58 335.99C257.023 335.06 255.272 335.06 255.716 335.99Z" fill="black"/>
<path opacity="0.2" d="M185.891 382.292C185.929 382.373 185.973 382.451 186.024 382.525C186.055 382.577 186.1 382.621 186.153 382.652C186.207 382.682 186.267 382.698 186.329 382.698C186.39 382.698 186.45 382.682 186.504 382.652C186.557 382.621 186.602 382.577 186.633 382.525C186.681 382.451 186.721 382.373 186.755 382.292C187.209 381.35 185.448 381.35 185.891 382.292Z" fill="black"/>
<path opacity="0.2" d="M295.635 305.233C295.675 305.313 295.72 305.39 295.768 305.466C295.8 305.518 295.844 305.562 295.898 305.593C295.951 305.623 296.011 305.639 296.073 305.639C296.134 305.639 296.195 305.623 296.248 305.593C296.301 305.562 296.346 305.518 296.377 305.466C296.422 305.39 296.463 305.313 296.499 305.233C296.954 304.291 295.192 304.291 295.635 305.233Z" fill="black"/>
<path opacity="0.2" d="M171.366 334.372C171.512 334.353 171.646 334.281 171.743 334.169C171.84 334.058 171.893 333.916 171.893 333.769C171.893 333.621 171.84 333.479 171.743 333.368C171.646 333.257 171.512 333.185 171.366 333.165C171.22 333.185 171.086 333.257 170.989 333.368C170.892 333.479 170.838 333.621 170.838 333.769C170.838 333.916 170.892 334.058 170.989 334.169C171.086 334.281 171.22 334.353 171.366 334.372Z" fill="black"/>
<path opacity="0.2" d="M177.659 432.583C177.805 432.563 177.939 432.491 178.036 432.38C178.133 432.269 178.187 432.126 178.187 431.979C178.187 431.831 178.133 431.689 178.036 431.578C177.939 431.467 177.805 431.395 177.659 431.375C177.513 431.395 177.379 431.467 177.282 431.578C177.185 431.689 177.132 431.831 177.132 431.979C177.132 432.126 177.185 432.269 177.282 432.38C177.379 432.491 177.513 432.563 177.659 432.583Z" fill="black"/>
<path opacity="0.2" d="M152.132 53.7356C152.293 53.7356 152.448 53.6714 152.563 53.5571C152.677 53.4428 152.741 53.2878 152.741 53.1262C152.741 52.9646 152.677 52.8096 152.563 52.6953C152.448 52.581 152.293 52.5168 152.132 52.5168C151.97 52.5168 151.815 52.581 151.701 52.6953C151.587 52.8096 151.522 52.9646 151.522 53.1262C151.522 53.2878 151.587 53.4428 151.701 53.5571C151.815 53.6714 151.97 53.7356 152.132 53.7356Z" fill="black"/>
<path opacity="0.2" d="M166.436 28.9172C166.582 28.8973 166.716 28.8252 166.813 28.7142C166.91 28.6031 166.963 28.4607 166.963 28.3133C166.963 28.1659 166.91 28.0235 166.813 27.9124C166.716 27.8014 166.582 27.7293 166.436 27.7095C166.29 27.7293 166.156 27.8014 166.059 27.9124C165.962 28.0235 165.908 28.1659 165.908 28.3133C165.908 28.4607 165.962 28.6031 166.059 28.7142C166.156 28.8252 166.29 28.8973 166.436 28.9172Z" fill="black"/>
<path opacity="0.2" d="M332.221 247.896C332.367 247.876 332.501 247.804 332.598 247.693C332.695 247.582 332.748 247.439 332.748 247.292C332.748 247.144 332.695 247.002 332.598 246.891C332.501 246.78 332.367 246.708 332.221 246.688C332.075 246.708 331.941 246.78 331.844 246.891C331.747 247.002 331.693 247.144 331.693 247.292C331.693 247.439 331.747 247.582 331.844 247.693C331.941 247.804 332.075 247.876 332.221 247.896Z" fill="black"/>
<path opacity="0.2" d="M186.911 153.187C187.057 153.167 187.191 153.095 187.288 152.984C187.385 152.873 187.438 152.73 187.438 152.583C187.438 152.435 187.385 152.293 187.288 152.182C187.191 152.071 187.057 151.999 186.911 151.979C186.765 151.999 186.631 152.071 186.534 152.182C186.437 152.293 186.383 152.435 186.383 152.583C186.383 152.73 186.437 152.873 186.534 152.984C186.631 153.095 186.765 153.167 186.911 153.187Z" fill="black"/>
<path opacity="0.2" d="M277.543 361.917C277.689 361.897 277.823 361.825 277.92 361.714C278.016 361.603 278.07 361.46 278.07 361.313C278.07 361.165 278.016 361.023 277.92 360.912C277.823 360.801 277.689 360.729 277.543 360.709C277.396 360.729 277.263 360.801 277.166 360.912C277.069 361.023 277.015 361.165 277.015 361.313C277.015 361.46 277.069 361.603 277.166 361.714C277.263 361.825 277.396 361.897 277.543 361.917Z" fill="black"/>
<path opacity="0.2" d="M268.358 245.447C268.435 245.526 268.527 245.588 268.629 245.631C268.731 245.674 268.84 245.696 268.951 245.696C269.061 245.696 269.17 245.674 269.272 245.631C269.374 245.588 269.466 245.526 269.543 245.447C269.688 245.306 269.791 245.128 269.842 244.933C269.892 244.738 269.889 244.532 269.831 244.339C269.775 244.15 269.658 243.983 269.5 243.865C269.341 243.747 269.148 243.684 268.951 243.684C268.753 243.684 268.56 243.747 268.402 243.865C268.243 243.983 268.127 244.15 268.07 244.339C268.012 244.532 268.009 244.738 268.06 244.933C268.11 245.128 268.213 245.306 268.358 245.447Z" fill="black"/>
<path opacity="0.2" d="M377.503 249.547C377.662 249.7 377.874 249.786 378.095 249.786C378.317 249.786 378.529 249.7 378.688 249.547C378.827 249.402 378.926 249.224 378.976 249.03C379.027 248.836 379.027 248.633 378.976 248.439C378.919 248.249 378.803 248.083 378.644 247.965C378.486 247.847 378.293 247.783 378.095 247.783C377.898 247.783 377.705 247.847 377.547 247.965C377.388 248.083 377.271 248.249 377.215 248.439C377.164 248.633 377.164 248.836 377.215 249.03C377.265 249.224 377.364 249.402 377.503 249.547Z" fill="black"/>
<path opacity="0.2" d="M174.746 101.002C174.905 101.155 175.117 101.241 175.338 101.241C175.559 101.241 175.772 101.155 175.931 101.002C176.075 100.861 176.178 100.683 176.229 100.488C176.28 100.292 176.277 100.087 176.219 99.8937C176.162 99.7042 176.046 99.5381 175.887 99.4201C175.729 99.302 175.536 99.2383 175.338 99.2383C175.14 99.2383 174.948 99.302 174.789 99.4201C174.631 99.5381 174.514 99.7042 174.457 99.8937C174.409 100.088 174.41 100.291 174.46 100.484C174.511 100.678 174.609 100.856 174.746 101.002Z" fill="black"/>
<path opacity="0.2" d="M157.893 288.314C158.052 288.468 158.265 288.554 158.486 288.554C158.707 288.554 158.92 288.468 159.079 288.314C159.221 288.172 159.322 287.994 159.371 287.799C159.42 287.604 159.414 287.399 159.356 287.206C159.302 287.015 159.188 286.846 159.03 286.726C158.872 286.606 158.679 286.541 158.48 286.541C158.282 286.541 158.089 286.606 157.931 286.726C157.773 286.846 157.658 287.015 157.605 287.206C157.553 287.4 157.553 287.604 157.603 287.798C157.654 287.992 157.754 288.17 157.893 288.314Z" fill="black"/>
<path opacity="0.2" d="M77.0999 388.807C77.259 388.96 77.4715 389.046 77.6927 389.046C77.9138 389.046 78.1264 388.96 78.2854 388.807C78.424 388.662 78.5232 388.484 78.5736 388.29C78.624 388.096 78.624 387.893 78.5735 387.699C78.5167 387.509 78.4003 387.343 78.2416 387.225C78.0829 387.107 77.8904 387.043 77.6927 387.043C77.4949 387.043 77.3024 387.107 77.1437 387.225C76.985 387.343 76.8686 387.509 76.8118 387.699C76.7613 387.893 76.7613 388.096 76.8117 388.29C76.8621 388.484 76.9613 388.662 77.0999 388.807Z" fill="black"/>
<path opacity="0.2" d="M300.344 297.366C300.5 297.522 300.711 297.609 300.931 297.609C301.152 297.609 301.363 297.522 301.519 297.366C301.663 297.225 301.766 297.048 301.817 296.852C301.868 296.657 301.864 296.452 301.807 296.258C301.747 296.073 301.63 295.912 301.473 295.797C301.315 295.683 301.126 295.621 300.931 295.621C300.737 295.621 300.547 295.683 300.39 295.797C300.233 295.912 300.116 296.073 300.056 296.258C299.999 296.452 299.995 296.657 300.046 296.852C300.097 297.048 300.2 297.225 300.344 297.366Z" fill="black"/>
</g>
<path d="M370.002 60.4057C370.002 60.4057 355.466 49.3261 337.24 60.4057C337.24 60.4057 352.984 70.2556 370.002 60.4057Z" fill="#37474F"/>
<path d="M370.002 60.4058C370.002 60.4058 376.162 54.6111 377.647 55.4753C379.132 56.3395 373.082 60.4058 373.082 60.4058C373.082 60.4058 378.013 65.9456 375.797 66.4331C373.581 66.9206 370.002 60.4058 370.002 60.4058Z" fill="#37474F"/>
<g opacity="0.1">
<path opacity="0.1" d="M370.002 60.406C370.002 60.406 355.465 49.3263 337.239 60.406C337.239 60.406 352.983 70.2558 370.002 60.406Z" fill="#37474F"/>
<path opacity="0.1" d="M370.002 60.406C370.002 60.406 376.162 54.6114 377.647 55.4756C379.132 56.3398 373.082 60.406 373.082 60.406C373.082 60.406 378.013 65.9459 375.797 66.4334C373.581 66.9209 370.002 60.406 370.002 60.406Z" fill="#37474F"/>
</g>
<path d="M417.501 112.248C417.501 112.248 402.964 101.168 384.738 112.248C384.738 112.248 400.505 122.108 417.501 112.248Z" fill="#37474F"/>
<path d="M417.5 112.248C417.5 112.248 423.661 106.464 425.134 107.328C426.608 108.192 420.581 112.248 420.581 112.248C420.581 112.248 425.511 117.787 423.295 118.286C421.079 118.785 417.5 112.248 417.5 112.248Z" fill="#37474F"/>
<path d="M410.487 91.019C410.487 91.019 400.372 83.2633 387.674 91.019C387.674 91.019 398.654 97.8773 410.487 91.019Z" fill="#37474F"/>
<path d="M410.487 91.0187C410.487 91.0187 414.775 86.9857 415.806 87.584C416.836 88.1823 412.637 91.0187 412.637 91.0187C412.637 91.0187 416.06 94.8744 414.52 95.2179C412.98 95.5613 410.487 91.0187 410.487 91.0187Z" fill="#37474F"/>
<g opacity="0.1">
<path opacity="0.1" d="M410.487 91.019C410.487 91.019 400.372 83.2633 387.674 91.019C387.674 91.019 398.654 97.8773 410.487 91.019Z" fill="#37474F"/>
<path opacity="0.1" d="M410.487 91.0189C410.487 91.0189 414.775 86.9859 415.806 87.5842C416.836 88.1825 412.637 91.0189 412.637 91.0189C412.637 91.0189 416.06 94.8746 414.52 95.2181C412.98 95.5616 410.487 91.0189 410.487 91.0189Z" fill="#37474F"/>
</g>
<path d="M317.529 79.0307C317.529 79.0307 307.402 71.275 294.716 79.0307C294.76 79.0307 305.729 85.9001 317.529 79.0307Z" fill="#37474F"/>
<path d="M317.529 79.0309C317.529 79.0309 321.817 75.009 322.836 75.6073C323.855 76.2056 319.667 79.0309 319.667 79.0309C319.667 79.0309 323.102 82.8977 321.551 83.2412C320 83.5847 317.529 79.0309 317.529 79.0309Z" fill="#37474F"/>
<g opacity="0.1">
<path opacity="0.1" d="M317.529 79.031C317.529 79.031 307.402 71.2752 294.716 79.031C294.76 79.031 305.729 85.9004 317.529 79.031Z" fill="#37474F"/>
<path opacity="0.1" d="M317.529 79.0309C317.529 79.0309 321.817 75.009 322.836 75.6073C323.855 76.2056 319.667 79.0309 319.667 79.0309C319.667 79.0309 323.102 82.8977 321.551 83.2412C320 83.5847 317.529 79.0309 317.529 79.0309Z" fill="#37474F"/>
</g>
<path d="M378.667 78.4765C378.667 78.4765 368.551 70.7208 355.865 78.4765C355.865 78.4765 366.834 85.3349 378.667 78.4765Z" fill="#37474F"/>
<path d="M378.667 78.4766C378.667 78.4766 382.954 74.4436 383.985 75.0529C385.015 75.6623 380.816 78.4766 380.816 78.4766C380.816 78.4766 384.251 82.3434 382.7 82.6757C381.148 83.0081 378.667 78.4766 378.667 78.4766Z" fill="#37474F"/>
<path d="M330.503 45.4482C330.503 45.4482 320.377 37.6925 307.69 45.4482C307.69 45.4482 318.637 52.3065 330.503 45.4482Z" fill="#37474F"/>
<path d="M330.503 45.4482C330.503 45.4482 334.791 41.4152 335.811 42.0246C336.83 42.634 332.642 45.4482 332.642 45.4482C332.642 45.4482 336.076 49.315 334.525 49.6585C332.974 50.002 330.503 45.4482 330.503 45.4482Z" fill="#37474F"/>
<path d="M37.9668 278.952C37.9668 278.952 52.5033 267.872 70.7294 278.952C70.7294 278.952 54.9408 288.802 37.9668 278.952Z" fill="#37474F"/>
<path d="M37.967 278.952C37.967 278.952 31.8067 273.158 30.3331 274.022C28.8595 274.886 34.8868 278.952 34.8868 278.952C34.8868 278.952 29.9564 284.492 32.1834 284.979C34.4104 285.467 37.967 278.952 37.967 278.952Z" fill="#37474F"/>
<path d="M55.1182 260.117C55.1182 260.117 65.2339 252.361 77.9312 260.117C77.9312 260.117 66.9512 266.975 55.1182 260.117Z" fill="#37474F"/>
<path d="M55.1183 260.117C55.1183 260.117 50.8305 256.084 49.8001 256.682C48.7697 257.28 52.98 260.117 52.98 260.117C52.98 260.117 49.5452 263.973 51.0853 264.316C52.6254 264.659 55.1183 260.117 55.1183 260.117Z" fill="#37474F"/>
<g opacity="0.1">
<path opacity="0.1" d="M55.1177 260.117C55.1177 260.117 65.2334 252.361 77.9307 260.117C77.9307 260.117 66.9508 266.975 55.1177 260.117Z" fill="#37474F"/>
<path opacity="0.1" d="M55.1183 260.117C55.1183 260.117 50.8305 256.084 49.8001 256.682C48.7697 257.28 52.98 260.117 52.98 260.117C52.98 260.117 49.5452 263.973 51.0853 264.316C52.6254 264.659 55.1183 260.117 55.1183 260.117Z" fill="#37474F"/>
</g>
<path d="M8.90479 252.727C8.90479 252.727 19.0205 244.971 31.7178 252.727C31.6735 252.727 20.7379 259.585 8.90479 252.727Z" fill="#37474F"/>
<path d="M8.90494 252.726C8.90494 252.726 4.61711 248.705 3.58671 249.303C2.5563 249.901 6.76657 252.726 6.76657 252.726C6.76657 252.726 3.33187 256.593 4.87195 256.937C6.41202 257.28 8.90494 252.726 8.90494 252.726Z" fill="#37474F"/>
<path d="M113.874 120.879C113.874 120.879 123.989 113.123 136.675 120.879C136.675 120.879 125.707 127.748 113.874 120.879Z" fill="#37474F"/>
<path d="M113.874 120.879C113.874 120.879 109.586 116.846 108.555 117.444C107.525 118.042 111.724 120.879 111.724 120.879C111.724 120.879 108.301 124.734 109.841 125.078C111.381 125.421 113.874 120.879 113.874 120.879Z" fill="#37474F"/>
<path d="M86.0752 137.398C86.0752 137.398 100.612 126.319 118.838 137.398C118.838 137.398 103.071 147.259 86.0752 137.398Z" fill="#37474F"/>
<path d="M86.0744 137.398C86.0744 137.398 79.9141 131.615 78.4405 132.468C76.9669 133.321 82.9943 137.398 82.9943 137.398C82.9943 137.398 78.0638 142.938 80.2798 143.437C82.4957 143.935 86.0744 137.398 86.0744 137.398Z" fill="#37474F"/>
<g opacity="0.1">
<path opacity="0.1" d="M86.0742 137.398C86.0742 137.398 100.611 126.319 118.837 137.398C118.837 137.398 103.07 147.259 86.0742 137.398Z" fill="#37474F"/>
<path opacity="0.1" d="M86.0744 137.398C86.0744 137.398 79.9141 131.615 78.4405 132.468C76.9669 133.321 82.9943 137.398 82.9943 137.398C82.9943 137.398 78.0638 142.938 80.2798 143.437C82.4957 143.935 86.0744 137.398 86.0744 137.398Z" fill="#37474F"/>
</g>
<path d="M360.153 346.992C360.153 346.992 345.616 335.913 327.379 346.992C327.379 346.992 343.145 356.875 360.153 346.992Z" fill="#37474F"/>
<path d="M360.152 346.992C360.152 346.992 366.302 341.198 367.786 342.062C369.271 342.926 363.221 346.992 363.221 346.992C363.221 346.992 368.152 352.532 365.936 353.02C363.72 353.507 360.152 346.992 360.152 346.992Z" fill="#37474F"/>
<path d="M370.512 378.459C370.512 378.459 360.397 370.703 347.699 378.459C347.699 378.459 358.679 385.317 370.512 378.459Z" fill="#37474F"/>
<path d="M370.512 378.459C370.512 378.459 374.8 374.426 375.83 375.024C376.861 375.622 372.651 378.459 372.651 378.459C372.651 378.459 376.085 382.314 374.545 382.658C373.005 383.001 370.512 378.459 370.512 378.459Z" fill="#37474F"/>
<path d="M404.626 366.526C404.626 366.526 390.09 355.446 371.864 366.526C371.82 366.526 387.63 376.387 404.626 366.526Z" fill="#37474F"/>
<path d="M404.626 366.526C404.626 366.526 410.786 360.742 412.271 361.607C413.756 362.471 407.706 366.526 407.706 366.526C407.706 366.526 412.637 372.066 410.421 372.564C408.205 373.063 404.626 366.526 404.626 366.526Z" fill="#37474F"/>
<g opacity="0.1">
<path opacity="0.1" d="M404.626 366.526C404.626 366.526 390.09 355.446 371.864 366.526C371.82 366.526 387.63 376.387 404.626 366.526Z" fill="#37474F"/>
<path opacity="0.1" d="M404.626 366.526C404.626 366.526 410.787 360.742 412.271 361.607C413.756 362.471 407.707 366.526 407.707 366.526C407.707 366.526 412.637 372.066 410.421 372.564C408.205 373.063 404.626 366.526 404.626 366.526Z" fill="#37474F"/>
</g>
<path d="M312.776 384.652C312.776 384.652 298.24 373.572 280.002 384.652C280.002 384.652 295.769 394.546 312.776 384.652Z" fill="#37474F"/>
<path d="M312.776 384.652C312.776 384.652 318.936 378.857 320.41 379.722C321.883 380.586 315.856 384.652 315.856 384.652C315.856 384.652 320.775 390.192 318.559 390.691C316.344 391.189 312.776 384.652 312.776 384.652Z" fill="#37474F"/>
<g opacity="0.1">
<path opacity="0.1" d="M312.776 384.652C312.776 384.652 298.24 373.572 280.002 384.652C280.002 384.652 295.769 394.546 312.776 384.652Z" fill="#37474F"/>
<path opacity="0.1" d="M312.776 384.652C312.776 384.652 318.936 378.857 320.41 379.722C321.883 380.586 315.856 384.652 315.856 384.652C315.856 384.652 320.775 390.192 318.559 390.691C316.344 391.189 312.776 384.652 312.776 384.652Z" fill="#37474F"/>
</g>
<path d="M338.071 366.692C338.071 366.692 327.944 358.936 315.258 366.692C315.313 366.692 326.238 373.55 338.071 366.692Z" fill="#37474F"/>
<path d="M338.071 366.692C338.071 366.692 342.359 362.659 343.389 363.257C344.419 363.856 340.209 366.692 340.209 366.692C340.209 366.692 343.644 370.548 342.093 370.891C340.542 371.235 338.071 366.692 338.071 366.692Z" fill="#37474F"/>
<g opacity="0.1">
<path opacity="0.1" d="M338.071 366.692C338.071 366.692 327.944 358.937 315.258 366.692C315.313 366.692 326.238 373.551 338.071 366.692Z" fill="#37474F"/>
<path opacity="0.1" d="M338.071 366.692C338.071 366.692 342.359 362.659 343.389 363.258C344.419 363.856 340.209 366.692 340.209 366.692C340.209 366.692 343.644 370.548 342.093 370.891C340.542 371.235 338.071 366.692 338.071 366.692Z" fill="#37474F"/>
</g>
</svg>
