<svg width="750.02539" height="588.32031" xmlns="http://www.w3.org/2000/svg" data-name="Layer 1">
 <defs>
  <radialGradient id="svg_35" r="100%" fy="50%" fx="0%" cy="50%" cx="0%">
   <stop offset="0%" stop-color="#5D9DF6"/>
   <stop offset="100%" stop-color="#006FFF"/>
  </radialGradient>
 </defs>
 <g>
  <title>Layer 1</title>
  <path id="svg_1" fill="#bb2c75" d="m680.42297,461.43791l-1.636,-0.49951l-610.5325,-186.22661l1.67952,-0.83848l419.11771,-209.29415l0.32984,0.6838l191.04143,396.17495zm-608.14027,-187.06327l605.3056,184.63225l-189.22545,-392.40924l-416.08015,207.77699z"/>
  <rect id="svg_2" fill="#fff" height="120.28508" width="152.02515" y="378.99978" x="595.00012"/>
  <path id="svg_3" fill="#e6e6e6" d="m750.0254,502.28467l-158.0254,0l0,-126.28467l158.0254,0l0,126.28467zm-152.0254,-6l146.0254,0l0,-114.28467l-146.0254,0l0,114.28467z"/>
  <rect id="svg_4" fill="#fff" height="120.28508" width="152.02515" y="215.99978" x="3.00012"/>
  <path id="svg_5" fill="#e6e6e6" d="m158.0254,339.28467l-158.0254,0l0,-126.28467l158.0254,0l0,126.28467zm-152.0254,-6l146.0254,0l0,-114.28467l-146.0254,0l0,114.28467z"/>
  <rect id="svg_6" fill="#fff" height="120.28508" width="152.02515" y="2.99978" x="424.00012"/>
  <path id="svg_7" fill="#e6e6e6" d="m579.0254,126.28467l-158.0254,0l0,-126.28467l158.0254,0l0,126.28467zm-152.0254,-6l146.0254,0l0,-114.28467l-146.0254,0l0,114.28467z"/>
  <path id="svg_15" fill="#a0616a" d="m294.3045,360.42684a11.74854,11.74854 0 0 0 -6.6165,-16.756l-1.93671,-26.77754l-16.55969,-2.79193l3.2661,37.77669a11.81223,11.81223 0 0 0 21.84677,8.54878l0.00003,0z"/>
  <polygon id="svg_16" fill="#a0616a" points="344.371 572.599 359.731 572.598 367.039 513.35 344.368 513.351 344.371 572.599"/>
  <path id="svg_17" fill="#292929" d="m340.4527,567.58372l30.25047,-0.00122l0.00123,0a19.279,19.279 0 0 1 19.27792,19.27766l0,0.62646l-49.52874,0.00184l-0.00088,-19.90474z"/>
  <polygon id="svg_18" fill="#a0616a" points="294.254 572.599 309.615 572.598 316.922 513.35 294.252 513.351 294.254 572.599"/>
  <path id="svg_19" fill="#292929" d="m290.336,567.58372l30.25047,-0.00122l0.00122,0a19.279,19.279 0 0 1 19.27801,19.27766l0,0.62646l-49.52875,0.00184l-0.00095,-19.90474z"/>
  <polygon id="svg_20" fill="#292929" points="290.225 312.997 282.708 355.453 292.731 553.414 315.288 553.414 327.742 456.043 332.824 381.764 340.84 553.414 364.147 555.096 377.627 456.709 381.061 358.585 377.441 312.997 290.225 312.997"/>
  <path stroke="null" id="svg_21" fill="#bb2c75" d="m320.92146,180.77666l33.82875,8.69102l9.39688,167.73681s-41.34625,26.07308 -56.38125,3.47641s13.15562,-179.90424 13.15562,-179.90424z"/>
  <path stroke="null" id="svg_24" fill="#d03987" d="m290.22501,202.27045l-7.5175,-3.77941s-3.75875,0 -5.01167,2.51961s-16.92424,75.58824 -16.92424,75.58824l9.58925,68.22625l18.61124,-9.01547l-3.8722,-57.00613l5.12512,-76.53309z"/>
  <path stroke="null" id="svg_23" fill="#bb2c75" d="m282.70751,199.41975l38.214,-17.84307l4.38521,77.31999s12.52917,103.09332 -27.56416,107.05845c0,0 -11.27625,1.32171 -16.28792,-7.93026l7.5175,-76.65914l-6.26463,-81.94598z"/>
  <path id="svg_22" fill="#bb2c75" d="m386.69959,207.60854l-31.94938,-18.16729l-4.38521,83.31891s-1.25291,97.7275 23.80542,97.7275l18.79375,-6.26459l-10.02333,-81.43957l3.75875,-75.17496z"/>
  <path id="svg_25" fill="#a0616a" d="m373.0388,369.01916a11.74855,11.74855 0 0 1 5.27193,-17.22636l-0.185,-26.84685l16.28733,-4.09158l-0.27119,37.91662a11.81223,11.81223 0 0 1 -21.103,10.24817l-0.00007,0z"/>
  <path id="svg_26" fill="#d03987" d="m372.9175,208.86146l13.78209,-1.25292s5.01166,1.80539 6.26458,17.19061s1.25292,53.98393 1.25292,53.98393l3.75874,69.15212l-21.29958,0l-6.26455,-70.16333l2.5058,-68.91041z"/>
  <circle id="svg_27" fill="#a0616a" r="29.43624" cy="143.30755" cx="342.00977"/>
  <path id="svg_28" fill="#292929" d="m337.62143,149.31455l-0.40752,-6.99022c-0.095,-1.62928 0.408,-3.89929 2.03587,-3.78212c1.38452,0.09965 4.46682,0.64039 4.87583,0.2047c1.53159,-1.63178 4.69063,0.03391 6.34338,-1.47508c0.69244,-0.63223 1.00113,-1.7477 1.90371,-2.00159a2.57947,2.57947 0 0 1 1.77919,0.40658a11.31491,11.31491 0 0 0 4.68306,1.4329a4.62891,4.62891 0 0 0 4.19328,-2.11329a2.40587,2.40587 0 0 1 0.632,-0.91227a1.79739,1.79739 0 0 1 1.1394,-0.17774l5.07442,0.3309a18.85379,18.85379 0 0 0 -5.56655,-14.70827a31.22184,31.22184 0 0 0 -8.39837,-5.43364q-5.15775,-2.48915 -10.51911,-4.51634c-3.9132,-1.485 -8.01093,-2.80322 -12.19128,-2.594c-4.17992,0.20921 -8.49584,2.23444 -10.39279,5.965a7.32316,7.32316 0 0 1 -3.29083,-2.962a2.69572,2.69572 0 0 0 0.99445,4.01559l-4.59464,-1.76944c-0.899,1.43283 1.77729,3.15488 1.07615,4.69423a2.53567,2.53567 0 0 1 -0.94931,0.93749a19.02312,19.02312 0 0 0 -5.199,4.96586c-1.86034,2.8191 -2.4824,6.25852 -2.93594,9.60552c-1.0088,7.44463 -1.148,15.77513 3.61868,21.58192c0.54038,0.6583 8.16965,11.78643 8.95263,12.1216c2.64678,1.133 0.34613,-2.44411 2.47245,-0.503c1.66743,1.52215 0.03156,-5.26921 2.27471,-4.16182a4.92917,4.92917 0 0 0 5.30559,-0.8332c0.69,-0.72055 -0.19827,-3.76152 -1.20972,-6.51427a3.41551,3.41551 0 0 1 3.306,-4.594c2.52866,0.07673 5.01158,0.07677 4.99426,-0.22z"/>
  <path id="svg_29" fill="#ccc" d="m462.24749,588.32032l-247,0a1,1 0 1 1 0,-2l247,0a1,1 0 0 1 0,2z"/>
  <g transform="rotate(0.278417 501.017 63.1894)" stroke="null">
   <polygon stroke="#E2761B" stroke-linejoin="round" stroke-linecap="round" fill="#E2761B" points="541.7968139648438,18.407825469970703 506.45233154296875,46.40574645996094 512.9884033203125,29.88736343383789 " class="st0"/>
   <g stroke="null">
    <polygon stroke="#E4761B" stroke-linejoin="round" stroke-linecap="round" fill="#E4761B" points="460.2025451660156,18.407825469970703 495.26287841796875,46.67095184326172 489.0465087890625,29.88736343383789 " class="st1"/>
    <polygon stroke="#E4761B" stroke-linejoin="round" stroke-linecap="round" fill="#E4761B" points="529.0799560546875,83.30694580078125 519.6666259765625,98.68875885009766 539.8076782226562,104.59900665283203 545.5975952148438,83.64790344238281 " class="st1"/>
    <polygon stroke="#E4761B" stroke-linejoin="round" stroke-linecap="round" fill="#E4761B" points="456.4726867675781,83.64790344238281 462.2273254394531,104.59900665283203 482.3682861328125,98.68875885009766 472.9549560546875,83.30694580078125 " class="st1"/>
    <polygon stroke="#E4761B" stroke-linejoin="round" stroke-linecap="round" fill="#E4761B" points="481.2315979003906,57.31698989868164 475.61907958984375,66.37181091308594 495.6180419921875,67.31896209716797 494.9076232910156,44.397762298583984 " class="st1"/>
    <polygon stroke="#E4761B" stroke-linejoin="round" stroke-linecap="round" fill="#E4761B" points="520.767822265625,57.31698989868164 506.9140930175781,44.1325798034668 506.45233154296875,67.31896209716797 526.415771484375,66.37181091308594 " class="st1"/>
    <polygon stroke="#E4761B" stroke-linejoin="round" stroke-linecap="round" fill="#E4761B" points="482.3682861328125,98.68875885009766 494.37481689453125,92.43753051757812 484.0023498535156,83.7994613647461 " class="st1"/>
    <polygon stroke="#E4761B" stroke-linejoin="round" stroke-linecap="round" fill="#E4761B" points="507.6244812011719,92.43753051757812 519.6666259765625,98.68875885009766 517.9970092773438,83.7994613647461 " class="st1"/>
   </g>
   <g stroke="null">
    <polygon stroke="#D7C1B3" stroke-linejoin="round" stroke-linecap="round" fill="#D7C1B3" points="519.6666259765625,98.68875885009766 507.6244812011719,92.43753051757812 508.5836486816406,100.81038665771484 508.4770202636719,104.33378601074219 " class="st2"/>
    <polygon stroke="#D7C1B3" stroke-linejoin="round" stroke-linecap="round" fill="#D7C1B3" points="482.3682861328125,98.68875885009766 493.55780029296875,104.33378601074219 493.48675537109375,100.81038665771484 494.37481689453125,92.43753051757812 " class="st2"/>
   </g>
   <polygon stroke="#233447" stroke-linejoin="round" stroke-linecap="round" fill="#233447" points="493.7353210449219,78.26805877685547 483.7181396484375,75.12349700927734 490.7870178222656,71.67587280273438 " class="st3"/>
   <polygon stroke="#233447" stroke-linejoin="round" stroke-linecap="round" fill="#233447" points="508.2638854980469,78.26805877685547 511.21221923828125,71.67587280273438 518.3167724609375,75.12349700927734 " class="st3"/>
   <g stroke="null">
    <polygon stroke="#CD6116" stroke-linejoin="round" stroke-linecap="round" fill="#CD6116" points="482.3682861328125,98.68875885009766 484.0733947753906,83.30694580078125 472.9549560546875,83.64790344238281 " class="st4"/>
    <polygon stroke="#CD6116" stroke-linejoin="round" stroke-linecap="round" fill="#CD6116" points="517.9616088867188,83.30694580078125 519.6666259765625,98.68875885009766 529.0799560546875,83.64790344238281 " class="st4"/>
    <polygon stroke="#CD6116" stroke-linejoin="round" stroke-linecap="round" fill="#CD6116" points="526.415771484375,66.37181091308594 506.45233154296875,67.31896209716797 508.2994384765625,78.26805877685547 511.24786376953125,71.67587280273438 518.352294921875,75.12349700927734 " class="st4"/>
    <polygon stroke="#CD6116" stroke-linejoin="round" stroke-linecap="round" fill="#CD6116" points="483.7181396484375,75.12349700927734 490.8225402832031,71.67587280273438 493.7353210449219,78.26805877685547 495.6180419921875,67.31896209716797 475.61907958984375,66.37181091308594 " class="st4"/>
   </g>
   <g stroke="null">
    <polygon stroke="#E4751F" stroke-linejoin="round" stroke-linecap="round" fill="#E4751F" points="475.61907958984375,66.37181091308594 484.0023498535156,83.7994613647461 483.7181396484375,75.12349700927734 " class="st5"/>
    <polygon stroke="#E4751F" stroke-linejoin="round" stroke-linecap="round" fill="#E4751F" points="518.352294921875,75.12349700927734 517.9970092773438,83.7994613647461 526.415771484375,66.37181091308594 " class="st5"/>
    <polygon stroke="#E4751F" stroke-linejoin="round" stroke-linecap="round" fill="#E4751F" points="495.6180419921875,67.31896209716797 493.7353210449219,78.26805877685547 496.07989501953125,91.18729400634766 496.61273193359375,74.17636108398438 " class="st5"/>
    <polygon stroke="#E4751F" stroke-linejoin="round" stroke-linecap="round" fill="#E4751F" points="506.45233154296875,67.31896209716797 505.49322509765625,74.13849639892578 505.9194641113281,91.18729400634766 508.2994384765625,78.26805877685547 " class="st5"/>
   </g>
   <polygon stroke="#F6851B" stroke-linejoin="round" stroke-linecap="round" fill="#F6851B" points="508.2994384765625,78.26805877685547 505.9194641113281,91.18729400634766 507.6244812011719,92.43753051757812 517.9970092773438,83.7994613647461 518.352294921875,75.12349700927734 " class="st6"/>
   <polygon stroke="#F6851B" stroke-linejoin="round" stroke-linecap="round" fill="#F6851B" points="483.7181396484375,75.12349700927734 484.0023498535156,83.7994613647461 494.37481689453125,92.43753051757812 496.07989501953125,91.18729400634766 493.7353210449219,78.26805877685547 " class="st6"/>
   <polygon stroke="#C0AD9E" stroke-linejoin="round" stroke-linecap="round" fill="#C0AD9E" points="508.4770202636719,104.33378601074219 508.5836486816406,100.81038665771484 507.6955871582031,99.97688293457031 494.3037109375,99.97688293457031 493.48675537109375,100.81038665771484 493.55780029296875,104.33378601074219 482.3682861328125,98.68875885009766 486.2757263183594,102.0985107421875 494.1971740722656,107.97087860107422 507.80218505859375,107.97087860107422 515.7591552734375,102.0985107421875 519.6666259765625,98.68875885009766 " class="st7"/>
   <polygon stroke="#161616" stroke-linejoin="round" stroke-linecap="round" fill="#161616" points="507.6244812011719,92.43753051757812 505.9194641113281,91.18729400634766 496.07989501953125,91.18729400634766 494.37481689453125,92.43753051757812 493.48675537109375,100.81038665771484 494.3037109375,99.97688293457031 507.6955871582031,99.97688293457031 508.5836486816406,100.81038665771484 " class="st8"/>
   <g stroke="null">
    <polygon stroke="#763D16" stroke-linejoin="round" stroke-linecap="round" fill="#763D16" points="543.288818359375,48.224273681640625 546.3082275390625,32.76671600341797 541.7968139648438,18.407825469970703 507.6244812011719,45.45860290527344 520.767822265625,57.31698989868164 539.3457641601562,63.11359786987305 543.4664306640625,57.998931884765625 541.6903686523438,56.635032653808594 544.5321044921875,53.86933898925781 542.3297119140625,52.05078887939453 545.17138671875,49.73973846435547 " class="st9"/>
    <polygon stroke="#763D16" stroke-linejoin="round" stroke-linecap="round" fill="#763D16" points="455.7267150878906,32.76671600341797 458.74615478515625,48.224273681640625 456.82794189453125,49.73973846435547 459.6696472167969,52.05078887939453 457.5027770996094,53.86933898925781 460.3446044921875,56.635032653808594 458.56854248046875,57.998931884765625 462.65350341796875,63.11359786987305 481.2315979003906,57.31698989868164 494.37481689453125,45.45860290527344 460.2025451660156,18.407825469970703 " class="st9"/>
   </g>
   <polygon stroke="#F6851B" stroke-linejoin="round" stroke-linecap="round" fill="#F6851B" points="539.3457641601562,63.11359786987305 520.767822265625,57.31698989868164 526.415771484375,66.37181091308594 517.9970092773438,83.7994613647461 529.0799560546875,83.64790344238281 545.5975952148438,83.64790344238281 " class="st6"/>
   <polygon stroke="#F6851B" stroke-linejoin="round" stroke-linecap="round" fill="#F6851B" points="481.2315979003906,57.31698989868164 462.65350341796875,63.11359786987305 456.4726867675781,83.64790344238281 472.9549560546875,83.64790344238281 484.0023498535156,83.7994613647461 475.61907958984375,66.37181091308594 " class="st6"/>
   <polygon stroke="#F6851B" stroke-linejoin="round" stroke-linecap="round" fill="#F6851B" points="506.45233154296875,67.31896209716797 507.6244812011719,45.45860290527344 513.02392578125,29.88736343383789 489.0465087890625,29.88736343383789 494.37481689453125,45.45860290527344 495.6180419921875,67.31896209716797 496.0442810058594,74.21424865722656 496.07989501953125,91.18729400634766 505.9194641113281,91.18729400634766 505.9905090332031,74.21424865722656 " class="st6"/>
  </g>
  <g stroke="null">
   <!-- Generator: Sketch 49.3 (51167) - http://www.bohemiancoding.com/sketch -->
   <title stroke="null">logo</title>
   <desc stroke="null">Created with Sketch.</desc>

   <g stroke="null" fill-rule="evenodd" fill="none" id="svg_31">
    <g stroke="null" id="svg_32">
     <rect stroke="null" rx="256" height="100" width="99" y="389.36015" x="623.0127" fill="url(#svg_35)" id="svg_34"/>
     <path stroke="null" fill-rule="nonzero" fill="#FFFFFF" id="svg_33" d="m655.73099,425.40139c9.26829,-9.1661 24.29517,-9.1661 33.56347,0l1.11545,1.10315c0.46341,0.4583 0.46341,1.20137 0,1.65967l-3.81575,3.77367c-0.23171,0.22915 -0.60738,0.22915 -0.83909,0l-1.535,-1.51807c-6.46579,-6.3945 -16.94892,-6.3945 -23.41471,0l-1.64385,1.62573c-0.23171,0.22915 -0.60738,0.22915 -0.83909,0l-3.81575,-3.77367c-0.46341,-0.4583 -0.46341,-1.20136 0,-1.65967l1.22431,-1.21081zm41.45479,7.80435l3.39602,3.35858c0.46341,0.4583 0.46341,1.20136 0.00001,1.65966l-15.3129,15.14428c-0.46341,0.45831 -1.21476,0.45831 -1.67817,0.00001c0,0 0,0 -0.00001,-0.00001l-10.86816,-10.74834c-0.11585,-0.11458 -0.30369,-0.11458 -0.41954,0c0,0 0,0 0,0l-10.86793,10.74833c-0.46341,0.45831 -1.21476,0.45832 -1.67817,0.00002c0,0 -0.00001,0 -0.00001,-0.00001l-15.31332,-15.14448c-0.46341,-0.4583 -0.46341,-1.20136 0,-1.65967l3.39603,-3.35858c0.46341,-0.4583 1.21476,-0.4583 1.67817,0l10.86832,10.74849c0.11586,0.11458 0.30369,0.11458 0.41954,0c0,0 0,0 0.00001,-0.00001l10.86778,-10.74848c0.4634,-0.45832 1.21475,-0.45833 1.67817,-0.00004c0.00001,0.00001 0.00001,0.00001 0.00002,0.00002l10.86831,10.7485c0.11585,0.11458 0.30369,0.11458 0.41954,0l10.86813,-10.74829c0.46341,-0.4583 1.21476,-0.4583 1.67817,0z"/>
    </g>
   </g>
  </g>
  <g stroke="null">
   <g stroke="null" fill="#124ADB" transform="translate(0 512) scale(0.1 -0.1)">
    <path stroke="null" d="m5542.0732,-2523.57894c-216.02099,-19.19012 -412.40372,-140.43675 -531.33973,-328.55804c-101.51051,-160.49915 -139.40407,-348.62043 -108.97858,-540.23083c31.53187,-198.87938 142.99981,-377.98712 305.91449,-491.96478c93.76584,-65.42085 188.36146,-102.34728 307.85066,-119.50208c42.59569,-6.39671 137.19131,-4.65215 185.04231,2.90759c201.91463,32.27429 374.78675,147.70574 487.08447,325.06893c62.78715,99.14893 99.29774,203.53153 113.6807,325.06893c4.97872,42.45086 4.42553,137.52916 -1.38298,181.72458c-43.42548,336.6993 -291.53153,597.21965 -610.72261,640.83355c-41.7659,5.81519 -108.97858,7.8505 -147.14874,4.65215zm92.65945,-308.20488c99.57434,-10.17658 185.31891,-52.62744 255.57413,-126.48031c71.6382,-75.30667 110.63815,-163.11598 120.31899,-271.85997c11.61701,-129.3879 -42.59569,-272.44149 -135.80833,-357.92473c-59.46801,-54.95351 -134.42536,-92.75222 -208.55292,-105.83639c-36.51059,-6.39671 -99.02115,-6.39671 -135.53174,0c-53.6595,9.3043 -118.65942,36.63567 -163.19128,68.32844c-138.85088,99.14893 -207.99973,277.09364 -174.25509,448.9324c24.34039,123.86347 102.89348,233.7705 211.59547,295.99299c42.59569,24.42378 102.0637,43.32314 154.06363,48.55681c34.02123,3.48911 45.36164,3.48911 75.78714,0.29076z"/>
    <path stroke="null" d="m5479.83924,-3129.52137c-13.82977,-8.14126 -13.82977,-9.59506 -14.10636,-134.62157c0,-84.61096 0.82979,-118.92056 3.31914,-124.44499c6.63829,-15.701 9.12765,-15.99176 129.44664,-15.99176c120.31899,0 122.80835,0.29076 129.44664,15.99176c2.48936,5.52443 3.31914,39.83403 3.31914,123.57271c0,124.73575 -0.2766,127.9341 -14.10636,135.49385c-10.78722,5.81519 -227.36141,5.81519 -237.31884,0z"/>
   </g>
  </g>
  <rect stroke="null" id="svg_66" height="98.33334" width="99.16667" y="227.50651" x="29.15398" fill="#2e66f8"/>
  <ellipse stroke="null" ry="35" rx="35" id="svg_67" cy="277.92316" cx="78.32064" fill="#ffffff"/>
  <rect stroke="null" rx="4" stroke-width="0" id="svg_71" height="22.5" width="24.16667" y="268.15167" x="66.19699" fill="#2e66f8"/>
 </g>
</svg>