<svg width="634.38742" height="584.34971" xmlns="http://www.w3.org/2000/svg" data-name="Layer 1">

 <g>
  <title>Layer 1</title>
  <path id="svg_1" fill="#e6e6e6" d="m291.29414,321.50246c-0.11329,0 -0.18457,-0.00293 -0.20948,-0.0044l-13.56445,0.00147l0,-2l13.61349,0c0.31518,0.01123 6.74584,0.19287 12.67089,-6.99659c8.82959,-10.71484 16.08057,-37.23974 0.48145,-102.75586c-20.9751,-88.0957 -3.481,-165.92334 5.01392,-195.29541a9.75245,9.75245 0 0 0 -9.38306,-12.45166l-202.5754,0a9.79616,9.79616 0 0 0 -7.89966,4.021c-3.59863,4.9502 -8.53711,14.46 -11.62744,31.65527l-1.96826,-0.35351c3.15722,-17.56885 8.25635,-27.3584 11.978,-32.47754a11.801,11.801 0 0 1 9.51734,-4.84522l202.57546,0a11.75275,11.75275 0 0 1 11.30444,15.00733c-8.45117,29.21972 -25.85473,106.64355 -4.9895,194.27685c15.81836,66.4375 8.21387,93.53711 -0.95068,104.57178c-6.04493,7.27783 -12.70533,7.64649 -13.98706,7.64649z"/>
  <path id="svg_2" fill="#ccc" d="m254.79414,358.00246c-0.11329,0 -0.18457,-0.00293 -0.20948,-0.0044l-13.56445,0.00147l0,-2l13.61349,0c0.31689,0.00976 6.74584,0.19287 12.67089,-6.99659c8.82959,-10.71484 16.08057,-37.23974 0.48145,-102.75586c-20.9751,-88.0957 -3.481,-165.92334 5.01392,-195.29541a9.75245,9.75245 0 0 0 -9.38306,-12.45166l-202.5754,0a9.79616,9.79616 0 0 0 -7.89966,4.021c-3.59863,4.9502 -8.53711,14.46 -11.62732,31.65527l-1.9685,-0.35351c3.15734,-17.56885 8.25647,-27.3584 11.97814,-32.47754a11.801,11.801 0 0 1 9.51734,-4.84522l202.57544,0a11.75275,11.75275 0 0 1 11.30444,15.00733c-8.45117,29.21972 -25.85473,106.64355 -4.9895,194.27685c15.81836,66.4375 8.21387,93.53711 -0.95068,104.57178c-6.04493,7.27783 -12.70533,7.64649 -13.98706,7.64649z"/>
  <path id="svg_3" fill="#3f3d56" d="m218.29414,394.50246c-0.11329,0 -0.18457,-0.00293 -0.20948,-0.0044l-199.45312,0.00147a11.75012,11.75012 0 0 1 -10.92835,-16.10206c7.23682,-18.08056 16.98084,-61.459 0.93152,-148.83935c-18.95141,-103.18018 -1.98486,-140.46973 6.18933,-151.71289a11.80128,11.80128 0 0 1 9.51758,-4.84522l202.57532,0a11.75275,11.75275 0 0 1 11.30444,15.00733c-8.45117,29.21972 -25.85473,106.64355 -4.9895,194.27685c15.81836,66.4375 8.21411,93.53711 -0.95068,104.57178c-6.04493,7.27783 -12.70533,7.64649 -13.98706,7.64649zm-193.95252,-319.50245a9.79644,9.79644 0 0 0 -7.8999,4.021c-8.02258,11.03467 -24.65149,47.75732 -5.84,150.17578c15.33191,83.47363 7.896,127.61377 -1.04187,149.94385a9.58718,9.58718 0 0 0 0.97705,9.06445a9.76294,9.76294 0 0 0 8.09461,4.29444l199.50219,0c0.31494,0.01513 6.74584,0.19335 12.67089,-6.99659c8.82959,-10.71484 16.08057,-37.23974 0.48145,-102.75586c-20.9751,-88.0957 -3.481,-165.92334 5.01392,-195.29541a9.75245,9.75245 0 0 0 -9.38306,-12.45166l-202.57528,0z"/>
  <path id="svg_4" fill="#bb2c75" d="m192.46095,163.00001l-159,0a8,8 0 1 1 0,-16l159,0a8,8 0 0 1 0,16z"/>
  <path id="svg_7" fill="#ccc" d="m204.46095,265.00001l-159,0a8,8 0 1 1 0,-16l159,0a8,8 0 0 1 0,16z"/>
  <path id="svg_8" fill="#ccc" d="m204.46095,299.00001l-159,0a8,8 0 1 1 0,-16l159,0a8,8 0 0 1 0,16z"/>
  <path id="svg_9" fill="#bb2c75" d="m108.46095,129.00001l-75,0a8,8 0 1 1 0,-16l75,0a8,8 0 0 1 0,16z"/>
  <path id="svg_10" fill="#3f3d56" d="m98.77664,353.82173c1.6141,-6.835 9.19795,-9.07539 15.39832,-8.82485a65.72829,65.72829 0 0 1 11.6109,1.83727c3.9841,0.89132 7.92945,1.94677 11.85492,3.06617c7.19849,2.05274 14.32272,4.53559 21.63978,6.14065c6.09146,1.33622 12.71116,2.11988 18.78589,0.27517c5.83939,-1.77324 10.79336,-6.12626 12.38213,-12.14463c1.49722,-5.67157 -0.55835,-11.8728 -6.05412,-14.46457c-5.01175,-2.36352 -11.34247,-1.1616 -13.82653,4.18356c-2.80075,6.02663 -0.00233,12.59922 4.43248,16.96033a49.66774,49.66774 0 0 0 8.23778,6.257a30.67633,30.67633 0 0 0 9.86375,4.41791c5.785,1.23563 12.67623,-0.58511 15.65954,-6.112a10.32933,10.32933 0 0 0 1.17184,-4.03693c0.17661,-1.92177 -2.8245,-1.90975 -3,0c-0.50576,5.50343 -6.95071,8.08082 -11.77032,7.4771a23.92386,23.92386 0 0 1 -9.12538,-3.54166a53.47235,53.47235 0 0 1 -7.55822,-5.33292c-4.08779,-3.53755 -7.9197,-9.359 -5.17421,-14.87935c2.23555,-4.495 8.06322,-4.4502 11.60773,-1.55128c4.29251,3.51068 3.5271,9.88266 0.69595,14.05172c-3.13485,4.61626 -8.81678,6.55143 -14.174,6.76014c-5.821,0.22678 -11.59339,-1.109 -17.15667,-2.68883c-6.91261,-1.963 -13.75632,-4.15989 -20.70215,-6.00791c-3.94328,-1.04917 -7.9169,-1.996 -11.93125,-2.73275a39.377,39.377 0 0 0 -11.56954,-0.80089c-6.25992,0.72286 -12.65,4.36679 -14.19142,10.89406c-0.44336,1.87745 2.4486,2.6787 2.89284,0.79752l-0.00004,-0.00003z"/>
  <path id="svg_11" fill="#f2f2f2" d="m405.2763,523.44017a458.03107,458.03107 0 0 0 4.318,58.85469c0.09456,0.685 0.19759,1.36993 0.29256,2.05487l184.40236,-1.03035c0.54143,-0.68028 1.07434,-1.36872 1.59067,-2.06539c1.7216,-2.30561 3.33516,-4.67675 4.81639,-7.12968c7.11952,-11.81721 10.37891,-25.65281 7.11268,-35.19857l-0.0585,-0.14833a16.75017,16.75017 0 0 0 -3.26922,-5.6805c-7.44693,-8.38264 -22.50384,-6.9853 -36.16768,-0.21914c12.2556,-13.41509 22.01422,-30.3429 22.7557,-45.4529c0.727,-14.7382 -6.97951,-25.26672 -15.33816,-34.21415c-0.27427,-0.29578 -0.54849,-0.58335 -0.82271,-0.87086c-0.1331,-0.14791 -0.27422,-0.28757 -0.40692,-0.43548c-6.52154,-6.81857 -14.12452,-13.54026 -25.12937,-12.72717c-12.06945,0.89334 -25.45087,11.00284 -34.83337,22.78314c-9.38254,11.772 -15.61745,25.14522 -21.93723,38.19682c-6.32789,13.04338 -13.17414,26.42 -23.3284,37.56868c13.75326,-17.39607 24.842,-37.18893 28.93817,-56.43894s0.49124,-37.73839 -11.76613,-46.80442a28.669,28.669 0 0 0 -12.55765,-5.067c-0.52878,-0.08788 -1.06593,-0.15923 -1.61151,-0.22227c-11.34689,-1.291 -24.89474,2.63335 -36.42155,12.014c-12.69423,10.32875 -21.49523,25.64065 -25.87422,40.1763c-4.3786,14.53564 -4.84523,28.52909 -4.70391,42.05665z"/>
  <path id="svg_12" fill="#fff" d="m525.92307,583.70137l3.52612,-0.0197q1.67943,-1.05 3.3747,-2.07535c0.69964,-0.44162 1.40743,-0.86679 2.11558,-1.30023q17.54426,-10.71507 35.308,-20.55589q17.74752,-9.849 35.67351,-18.79043a1.47784,1.47784 0 0 0 0.84954,-1.68963a0.42594,0.42594 0 0 0 -0.05876,-0.12352c-0.16669,-0.31292 -0.53924,-0.443 -1.083,-0.17568c-1.46583,0.735 -2.94013,1.47 -4.40586,2.22156q-17.975,9.09448 -35.79561,19.09674q-17.80839,9.998 -35.41384,20.87854c-0.24677,0.15 -0.4939,0.30834 -0.74067,0.45838c-1.11926,0.69177 -2.23045,1.38349 -3.34971,2.07521z"/>
  <path id="svg_13" fill="#fff" d="m480.45812,583.95541l2.18044,-0.01218c0.49178,-0.68822 0.97509,-1.37643 1.46687,-2.0647q17.33163,-24.30411 34.656,-48.60824q28.37064,-39.78961 56.72434,-79.57913a1.40436,1.40436 0 0 0 0.24533,-0.48041c0.16166,-0.58731 -0.26976,-0.93177 -0.82271,-0.87086a1.6564,1.6564 0 0 0 -1.15209,0.73324q-15.90609,22.314 -31.80419,44.61144q-28.22295,39.5906 -56.43787,79.17284c-1.19643,1.675 -2.39282,3.35827 -3.58925,5.03331c-0.49178,0.68826 -0.98356,1.37652 -1.46687,2.06469z"/>
  <path id="svg_14" fill="#fff" d="m431.88193,571.29316c0.11127,3.67467 0.35448,7.29079 0.67212,10.87342q0.09225,1.02775 0.18489,2.05546l2.28771,-0.01278c-0.07,-0.68508 -0.13993,-1.3702 -0.20143,-2.05537c-0.48341,-5.17575 -0.8264,-10.41 -0.873,-15.78645a220.22989,220.22989 0 0 1 4.33558,-44.39187a276.39733,276.39733 0 0 1 13.42783,-46.11929a316.72374,316.72374 0 0 1 21.9699,-45.63021a1.21872,1.21872 0 0 0 0.20194,-0.8105c-0.09438,-0.652 -0.9625,-0.84532 -1.61151,-0.22227a1.89383,1.89383 0 0 0 -0.328,0.41479q-1.583,2.72194 -3.10817,5.46011a316.50458,316.50458 0 0 0 -21.02777,45.79008a275.09009,275.09009 0 0 0 -12.51841,46.18859a217.271,217.271 0 0 0 -3.41168,44.24629z"/>
  <path id="svg_15" fill="#3f3d56" d="m209.0047,354.53255a2.49989,2.49989 0 0 1 1.36211,-4.40965a41.28894,41.28894 0 0 1 16.19271,1.6597l53.31537,16.46563a5.5,5.5 0 0 1 -3.24591,10.51019l-53.31537,-16.46563a41.29214,41.29214 0 0 1 -14.30891,-7.76024z"/>
  <path id="svg_16" fill="#ffb8b8" d="m427.5517,422.93208a10.74268,10.74268 0 0 1 -4.868,-15.7369l-9.1385,-47.79161l23.29142,-1.81583l1.40592,46.74693a10.80091,10.80091 0 0 1 -10.69084,18.59741z"/>
  <path id="svg_17" fill="#d03987" d="m412.10778,398.26672l-23.7229,-110.48243a17.49974,17.49974 0 1 1 34.21973,-7.34668l23.72314,110.48145a4.50561,4.50561 0 0 1 -3.45483,5.34473l-25.42066,5.458a4.4984,4.4984 0 0 1 -5.34448,-3.45507z"/>
  <polygon id="svg_18" fill="#ffb8b8" points="373.17 572.064 360.911 572.064 355.078 524.776 373.173 524.777 373.17 572.064"/>
  <path id="svg_19" fill="#292929" d="m352.15353,568.56068l23.64387,0a0,0 0 0 1 0,0l0,14.88687a0,0 0 0 1 0,0l-38.53073,0a0,0 0 0 1 0,0l0,0a14.88686,14.88686 0 0 1 14.88686,-14.88687z"/>
  <polygon id="svg_20" fill="#ffb8b8" points="414.17 571.064 401.911 571.064 396.078 523.776 414.173 523.777 414.17 571.064"/>
  <path id="svg_21" fill="#292929" d="m393.15353,567.56068l23.64387,0a0,0 0 0 1 0,0l0,14.88687a0,0 0 0 1 0,0l-38.53073,0a0,0 0 0 1 0,0l0,0a14.88686,14.88686 0 0 1 14.88686,-14.88687z"/>
  <path id="svg_22" fill="#292929" d="m358.48156,563.24328a4.46919,4.46919 0 0 1 -1.61621,-3.0625l-14.25265,-156.7793a4.50075,4.50075 0 0 1 4.313,-4.9043l71.47974,-2.68066a4.50154,4.50154 0 0 1 4.66577,4.66211l-5.71387,156.17676a4.50841,4.50841 0 0 1 -4.0896,4.3164l-14.41284,1.31055a4.49951,4.49951 0 0 1 -4.89722,-4.18262l-6.6145,-99.21679a1.43593,1.43593 0 0 0 -1.49585,-1.39942l-0.0061,0a1.43661,1.43661 0 0 0 -1.49243,1.41114l-5.91919,99.88574a4.4791,4.4791 0 0 1 -4.04419,4.21094l-12.59082,1.25976a4.46991,4.46991 0 0 1 -3.313,-1.00781l-0.00004,0z"/>
  <circle id="svg_23" fill="#ffb8b8" r="24.56103" cy="218.96246" cx="385.97692"/>
  <path id="svg_24" fill="#bb2c75" d="m338.67883,404.46301a4.46183,4.46183 0 0 1 -1.05274,-3.67872c4.53442,-27.56152 1.97876,-68.07421 -0.96387,-97.207a44.20088,44.20088 0 0 1 18.24121,-40.30175l12.82691,-10.99415a4.56971,4.56971 0 0 1 3.05737,-1.082l31.866,0.91016a4.48315,4.48315 0 0 1 3.05347,1.31738l4.92407,10.9043l0.05078,0.03711a44.07016,44.07016 0 0 1 17.915,37.69043l-4.69043,96.93652a4.52415,4.52415 0 0 1 -4.34693,4.28028l-77.34741,2.71777c-0.05,0.001 -0.09961,0.002 -0.14941,0.002a4.48933,4.48933 0 0 1 -3.38402,-1.53233z"/>
  <path id="svg_25" fill="#ffb8b8" d="m245.90284,364.012a10.74267,10.74267 0 0 1 12.366,-10.8825l39.86511,-27.89846l11.18962,20.508l-42.07677,20.41562a10.80091,10.80091 0 0 1 -21.344,-2.1427l0.00004,0.00004z"/>
  <path id="svg_26" fill="#d03987" d="m279.45153,368.86144a4.47327,4.47327 0 0 1 -2.94531,-1.78515l-15.38452,-20.96a4.50641,4.50641 0 0 1 0.96484,-6.291l91.09473,-66.86328a17.50025,17.50025 0 0 1 20.71,28.21582l-91.09477,66.8633a4.46888,4.46888 0 0 1 -2.65283,0.87305a4.60231,4.60231 0 0 1 -0.69214,-0.05274z"/>
  <path id="svg_27" fill="#292929" d="m387.23414,240.82687c3.25719,-3.99362 2.90059,-10.07682 0.2864,-14.518s-7.05192,-7.49993 -11.61815,-9.889s-9.4171,-4.26785 -13.71433,-7.11253s-4.10985,-14.88746 -5.25405,-19.91231l2.729,0.909c-1.04887,-1.34182 -1.38528,-5.30676 -2.43415,-6.64858c3.08365,0.30468 5.45485,3.23246 8.53849,3.53714l-1.77942,-4.77642c10.57439,-0.65193 17.14878,6.69613 27.72317,6.0442c5.23921,-0.323 10.929,-0.52738 15.23606,2.47312c3.74278,2.60741 5.63743,7.12028 6.88058,11.50907c2.66917,9.42319 3.084,19.97876 -1.52619,28.61978s-15.23665,14.46378 -24.52024,11.34355l-0.54717,-1.57902z"/>
  <path id="svg_28" fill="#3f3d56" d="m252.38741,584.00001l381,0a1,1 0 0 0 0,-2l-381,0a1,1 0 0 0 0,2z"/>
  <path id="svg_29" fill="#ccc" d="m192.46095,232.00001l-159,0a8,8 0 1 1 0,-16l159,0a8,8 0 0 1 0,16z"/>
  <path id="svg_30" fill="#ccc" d="m191.46095,199.00001l-159,0a8,8 0 1 1 0,-16l159,0a8,8 0 0 1 0,16z"/>
 </g>
</svg>