<svg xmlns="http://www.w3.org/2000/svg" fill="none" viewBox="0 0 201 112">
  <path fill="#FFBE9D" d="M119.027 77.79s3.139-1.953 4.321-1.823l6.791 1.583s.594.635-.594 1.22c-1.187.585-2.672-.255-2.672-.255l-1.651.232 1.14.953 4.505 1.387s3.266.92 2.868 1.401c-.397.481-1.377.54-2.785.143l-3.195-.891s-.558-.122.341.502c.9.623 4.853 1.594 5.375 1.853.523.258 1.942.475 1.782 1.286-.16.81-1.936.157-1.936.157l-5.85-1.357s2.31.998 2.702 1.188c.392.19 1.672.537 2.355.89.683.354 1.01.793.932 1.153a.678.678 0 0 1-.739.576l-4.95-1.702s-2.245-.89-2.397-.86c-.151.029.876.988.876.988l1.58.81s2.281.764 2.287 1.396c.006.633-.47.61-.47.61l-4.157-1.435-4.641-2.352-3.478-2.132s.627-2.453.508-2.56c-.119-.107 1.152-2.96 1.152-2.96Z"/>
  <path fill="#EB996E" d="M120.666 82.399c0-.048.437-.163 1.12-.41.683-.246 1.645-.686 2.144-1.657.218-.394.298-.85.225-1.295l-.029-.148.163-.02c.722-.096 1.393-.253 1.847-.313.454-.06.745-.08.745-.041a3.84 3.84 0 0 1-.709.21c-.461.11-1.066.297-1.874.425l.133-.17a2.21 2.21 0 0 1-.234 1.486c-.26.492-.65.903-1.129 1.188-.378.23-.787.407-1.214.525-.722.214-1.179.255-1.188.22Z"/>
  <path fill="#263238" d="m56.847 107.732-.55-20.496 35.944.695 4.89 19.029-40.284.772Z"/>
  <path fill="#455A64" d="m74.735 29.963-2.702 2.56s-10.097 2.509-11.879 4.276c-1.781 1.767-2.672 28.988-2.568 30.883.104 1.894 0 18.242 0 18.242s-.594 6.235 0 6.592c.594.356 11.925.505 17.576.623 5.651.12 17.633.449 18.34-.14.707-.587-1.755-12.792-1.755-12.792l-.98-5.627.297-9.841L93.143 51.2l1.535-14.02s-4.119-2.47-6.12-2.942c-2.002-.472-13.823-4.276-13.823-4.276Z"/>
  <path fill="#455A64" d="m104.533 69.267-5.49-23.055a25.815 25.815 0 0 0-1.889-5.304c-.852-1.749-1.906-3.655-2.485-3.723-3.406-.392-5.18 10.007-5.18 10.007v13.182l3.214 14.277a6.316 6.316 0 0 0 4.252 4.636l21.794 6.936 2.527-10.818-16.743-6.138ZM65.603 34.738s-8.282 1.17-10.957 7.49c0 0-8.276 32.213-6.892 36.456C49.137 82.928 59.837 99.3 59.837 99.3l9.38-4.95S60.05 75.322 60.05 73.222c0-2.1 5.553-38.485 5.553-38.485Z"/>
  <path fill="#263238" d="M69.219 94.348a.557.557 0 0 1-.054-.104c-.036-.074-.08-.178-.14-.297-.121-.282-.296-.68-.522-1.188l-1.895-4.386a31329.05 31329.05 0 0 0-6.515-15.248v-.018c.032-.375.09-.747.175-1.114.078-.362.158-.721.244-1.072.166-.707.344-1.398.52-2.078.353-1.358.697-2.673 1.021-3.911.66-2.486 1.244-4.719 1.72-6.596.475-1.876.837-3.397 1.09-4.454.118-.52.213-.923.278-1.208.033-.134.06-.235.078-.315a.416.416 0 0 1 .032-.104.993.993 0 0 1-.018.107 142.134 142.134 0 0 1-.315 1.535 167.093 167.093 0 0 1-1.042 4.454 570.632 570.632 0 0 1-1.686 6.605c-.321 1.247-.662 2.553-1.013 3.91-.172.68-.35 1.372-.517 2.079a16.002 16.002 0 0 0-.412 2.147v-.03c.104.24.213.502.323.76l6.153 14.51 1.823 4.38c.211.516.378.917.496 1.187.052.131.093.235.125.312.039.098.05.137.05.137ZM93.094 48.763a.774.774 0 0 1 0 .19c0 .136-.009.314-.027.534l-.127 1.966c-.12 1.66-.262 3.953-.526 6.48-.264 2.527-.638 4.798-.924 6.438-.142.82-.264 1.484-.353 1.939a20.75 20.75 0 0 1-.107.522c-.01.063-.024.124-.044.184A.805.805 0 0 1 91 66.83c.021-.14.045-.314.078-.531.074-.478.178-1.138.297-1.945.255-1.642.611-3.914.876-6.435.264-2.521.424-4.817.57-6.474.074-.814.133-1.485.178-1.963.02-.217.042-.395.056-.531a.898.898 0 0 1 .039-.187Z"/>
  <path fill="#FFBE9D" d="m61.072 98.65.93 1.711s4.605-1.755 6.797-4.712l-.594-.594-7.133 3.596Z"/>
  <path fill="#455A64" d="M70.158 93.974a3.324 3.324 0 0 1-.264.436c-.09.14-.199.297-.342.493a9.988 9.988 0 0 1-.487.627c-.19.222-.394.475-.635.721-.24.247-.502.511-.784.778-.623.571-1.29 1.093-1.993 1.562a18.78 18.78 0 0 1-2.203 1.245c-.623.292-1.263.55-1.915.772-.276.1-.532.172-.757.24a7.831 7.831 0 0 1-.576.154c-.164.049-.33.085-.5.107.156-.068.317-.122.482-.163.157-.047.35-.104.57-.181.22-.077.472-.154.745-.261a21.01 21.01 0 0 0 1.889-.8 20.447 20.447 0 0 0 2.182-1.24c.696-.466 1.357-.98 1.981-1.539.282-.261.552-.51.787-.763.235-.252.451-.484.644-.704.193-.22.354-.43.5-.608.145-.178.267-.342.362-.475.093-.143.198-.277.314-.401Z"/>
  <path fill="#263238" d="M65.48 46.24c-.036 0 .088-.547.062-1.423a5.746 5.746 0 0 0-.063-.713 6.71 6.71 0 0 0-.151-.807 7.786 7.786 0 0 0-1.737-3.3 7.654 7.654 0 0 0-.594-.578 5.53 5.53 0 0 0-.556-.455c-.706-.517-1.223-.718-1.208-.748.125.03.246.078.36.14.14.055.275.124.403.204.176.095.347.2.51.315.203.136.395.286.577.449.21.18.408.373.594.579.429.476.799 1.002 1.101 1.567.294.566.52 1.164.672 1.782.063.271.11.546.14.823.03.241.044.484.044.727.004.199-.005.397-.027.594-.009.15-.029.3-.06.448a2.34 2.34 0 0 1-.068.395Z"/>
  <path fill="#fff" d="M64.231 55.112c0 .041-2.743-.594-6.102-1.393-3.358-.799-6.079-1.485-6.07-1.538.01-.054 2.744.579 6.106 1.39 3.361.81 6.075 1.5 6.066 1.54ZM92.507 53.408c0 .044-6.152.184-13.74.311-7.587.128-13.742.202-13.745.158-.003-.045 6.152-.181 13.742-.312 7.59-.13 13.743-.199 13.743-.157ZM101.308 54.952a1.394 1.394 0 0 1-.335.071 25.31 25.31 0 0 1-.918.137 85.373 85.373 0 0 1-6.093.6c-.392.023-.71.038-.93.044a1.243 1.243 0 0 1-.341 0c.11-.028.224-.046.338-.053l.924-.095L97 55.359l3.043-.297.924-.09c.112-.02.227-.027.341-.02ZM60.308 71.87c0 .04-2.646-.298-5.891-.77-3.246-.472-5.877-.89-5.871-.92.006-.03 2.643.297 5.891.769 3.25.472 5.877.879 5.871.92ZM90.289 74.272c0 .041-6.373.516-14.254 1.06-7.88.543-14.253.947-14.253.89 0-.056 6.372-.516 14.253-1.057 7.881-.54 14.251-.935 14.254-.893ZM103.948 69.639a2.96 2.96 0 0 1-.363.323l-1.021.844c-.861.71-2.049 1.695-3.34 2.803a199.954 199.954 0 0 0-3.282 2.88l-.989.891c-.115.11-.24.21-.374.297.103-.126.215-.244.335-.353.22-.22.547-.535.954-.918a91.857 91.857 0 0 1 3.266-2.913 127.365 127.365 0 0 1 3.373-2.773c.443-.345.802-.621 1.052-.805.121-.103.251-.196.389-.276ZM66.699 90.53a2.35 2.35 0 0 1-.377.174l-1.043.434-3.456 1.416-3.448 1.447-1.045.433a2.24 2.24 0 0 1-.392.143c.116-.077.24-.142.368-.196.24-.119.594-.282 1.028-.481.87-.398 2.078-.927 3.43-1.485 1.35-.558 2.58-1.04 3.477-1.375.448-.17.81-.297 1.066-.389.126-.054.257-.095.392-.122ZM116.406 74.108a2.123 2.123 0 0 1-.056.428c-.048.273-.128.665-.235 1.15a41.982 41.982 0 0 1-1.013 3.732 41.83 41.83 0 0 1-1.345 3.629c-.196.457-.359.822-.478 1.072-.054.133-.122.26-.202.38.038-.139.086-.274.146-.404l.433-1.09c.362-.917.838-2.197 1.298-3.635.46-1.437.816-2.752 1.054-3.712l.282-1.134a2.6 2.6 0 0 1 .116-.416ZM74.605 35.564a2.956 2.956 0 0 1-.476.095l-1.3.222a67.509 67.509 0 0 0-4.267.891 71.159 71.159 0 0 0-4.2 1.161l-1.258.395c-.153.056-.31.101-.47.134.144-.076.294-.14.449-.19.297-.113.715-.264 1.247-.443a50.97 50.97 0 0 1 8.48-2.052c.553-.083 1.002-.142 1.31-.175.16-.027.322-.04.484-.038Z"/>
  <path fill="#263238" d="M97.088 7.4c2.203 1.898.971 4.874.529 7.745-.443 2.872.07 6.025.187 8.93.062 1.535.44 3.12-.06 4.573-.52 1.52-1.882 2.56-2.942 3.77-1.06 1.212-1.854 3.01-1.019 4.381a1.454 1.454 0 0 1-1.384-.19c-.356.638-1.235.828-1.939.62-.704-.207-1.274-.71-1.817-1.187-.083.525-.722.81-1.245.703a2.755 2.755 0 0 1-1.312-.867 3.587 3.587 0 0 0-1.26-.959c-1.113-.395-2.413.452-3.494-.03-1.485-.656-1.34-3.221-2.875-3.747-.721-.25-1.5.092-2.256.175-.758.083-1.571-.594-1.467-1.342-1.304.543-2.97.802-4.31.318a1.536 1.536 0 0 0 .541-1.47 4.968 4.968 0 0 1-2.865-.35 2.927 2.927 0 0 0 1.897-1.506 2.502 2.502 0 0 1-2.239-.799c1.654.018 2.806-1.692 3.154-3.308.347-1.615.225-3.344.89-4.858.716-1.648 2.248-2.797 3.178-4.336 1.298-2.144 1.333-4.878 2.673-6.996.89-1.387 1.716-2.568 3.046-3.53 1.681-1.218 2.643-1.848 4.719-1.82 1.74.023 4.715.507 6.2 1.416 2.637 1.615 5.437 3.418 6.607 6.28"/>
  <path fill="#263238" d="M77.573 20.122c-.125-2.292-.235-4.602.036-6.883.27-2.28.95-4.555 2.277-6.432.202-.282 1.764-2.132 2.079-2.01.231.086-.909 1.897-.844 2.138.627 2.29.297 4.751-.487 6.999a31.061 31.061 0 0 1-3.073 6.188"/>
  <path fill="#FFBE9D" d="M83.06 43.45c-3.424-.989-9.868-7.69-8.953-11.136l5.502-20.72c1.301-5.616 5.642-9.539 11.228-8.084l.508.166a10.302 10.302 0 0 1 6.845 12.175c-1.155 4.862-2.492 10.213-3.347 12.743-1.782 5.238-7.296 4.35-7.296 4.35s-.362 1.23-.796 2.794c-.974 3.513-3.026 6.958-3.691 7.721v-.009Z"/>
  <path fill="#EB996E" d="M87.55 32.95s-3.379-.89-6.194-4.246c0 0 .365 4.49 5.767 5.716l.428-1.47Z"/>
  <path fill="#263238" d="M94.943 20.16a.79.79 0 0 1-.97.523.753.753 0 0 1-.556-.926.796.796 0 0 1 .97-.526.758.758 0 0 1 .556.93ZM96.32 17.815c-.125.069-.558-.537-1.366-.799-.808-.26-1.532-.047-1.589-.175-.03-.056.125-.202.443-.297a2.139 2.139 0 0 1 1.31.018c.42.135.787.4 1.047.757.187.265.214.466.155.496ZM87.552 18.023a.79.79 0 0 1-.971.523.753.753 0 0 1-.556-.927.796.796 0 0 1 .971-.526.758.758 0 0 1 .556.93ZM88.335 15.434c-.124.068-.558-.538-1.366-.8-.807-.26-1.532-.047-1.588-.174-.027-.06.121-.205.442-.297.43-.129.888-.122 1.313.02.42.135.788.4 1.048.758.184.267.21.463.151.493ZM89.219 22.584c0-.047.543.03 1.39.19.213.045.421.069.501-.062.088-.207.11-.436.063-.656l-.101-1.782c-.122-2.512-.14-4.552-.039-4.555.101-.003.282 2.028.404 4.54.028.618.053 1.212.074 1.782.047.29-.009.589-.157.843a.545.545 0 0 1-.437.193 1.515 1.515 0 0 1-.368-.065c-.831-.22-1.342-.38-1.33-.428ZM89.244 12.39c-.178.169-.89-.297-1.838-.633-.947-.335-1.782-.44-1.82-.683 0-.116.21-.25.594-.297a3.384 3.384 0 0 1 2.785 1.004c.273.282.368.525.28.608ZM96.756 15.864c-.226.13-.828-.264-1.621-.517-.793-.252-1.506-.33-1.6-.57-.04-.113.12-.264.471-.35.472-.093.96-.056 1.414.106.459.143.87.41 1.188.77.201.276.234.498.148.56Z"/>
  <path fill="#FFBE9D" d="M78.776 15.626c-.077-.068-3.266-2.239-4.317 1.393-1.052 3.632 2.812 3.94 2.847 3.837.036-.104 1.47-5.23 1.47-5.23Z"/>
  <path fill="#EB996E" d="M76.593 19.158c0-.015-.074.026-.196.044a.648.648 0 0 1-.475-.128c-.344-.249-.49-.953-.318-1.612.08-.315.23-.607.44-.855a.752.752 0 0 1 .615-.348.336.336 0 0 1 .323.28c.021.115-.023.183 0 .195.024.012.095-.038.11-.199a.41.41 0 0 0-.077-.267.505.505 0 0 0-.324-.196.939.939 0 0 0-.825.374 2.24 2.24 0 0 0-.511.948c-.19.74 0 1.532.47 1.838a.71.71 0 0 0 .593.071c.145-.06.187-.134.175-.145Z"/>
  <path fill="#263238" d="M97.522 9.162c.683-.16-.552-2.563-1.817-3.626-1.918-1.612-5.084-3.153-7.263-3.147-2.622 0-4.98.653-6.83 2.524-1.85 1.87-3.02 4.32-3.656 6.865-.196.775-.341 1.6-.11 2.376.283.947 1.117 1.728.764 2.827a1.586 1.586 0 0 0 .065 1.217c.47.891 1.485.46 2.034-.104 1.188-1.202 1.764-2.88 2.293-4.495.374-1.147.754-2.322.739-3.528 0-.656-.134-1.31-.107-1.969a2.277 2.277 0 0 1 .77-1.746c.118-.082.245-.154.376-.214a3.94 3.94 0 0 1 3.97.336c1.848 1.3 5.049 3.364 6.156 2.925 1.598-.633 2.097-1.188 2.097-1.188l.52.947ZM86.85 22.394c-.053 0-.136.184-.154.52-.016.444.109.883.357 1.252.238.357.54.666.89.912.262.187.446.273.481.232.036-.042-.083-.205-.297-.44a8.05 8.05 0 0 1-.745-.92c-.502-.746-.407-1.547-.531-1.556Z"/>
  <path fill="#BB2C75" d="M78.702 16.125v.232c.003 0 0-.084 0-.232Z"/>
  <path fill="#455A64" d="M77.734 15.098s.891-.523.968 1.027c-.017-2.001.342-16.451 14.2-12.597 0 0-4.454-2.672-8.314-1.484-.006-.01-7.3 1.057-6.854 13.054Z"/>
  <path fill="#263238" d="M86.8 30.32c.03.056.418-.11.778-.476.359-.365.525-.75.469-.78-.057-.03-.297.279-.636.614-.338.336-.647.585-.611.642ZM86.048 29.957c.048.045.366-.235.71-.623.345-.39.594-.737.535-.782-.06-.044-.369.238-.713.624-.345.386-.582.74-.532.781ZM85.592 29.482c.063.021.235-.32.39-.763.154-.442.225-.817.163-.837-.063-.021-.235.32-.386.763-.152.442-.23.817-.167.837ZM84.9 29.346c.064-.015 0-.451.091-.971.092-.52.282-.912.223-.95-.06-.039-.362.335-.454.911-.093.576.08 1.034.14 1.01ZM83.925 28.766c.068 0 .041-.437.104-.947.062-.511.187-.918.125-.945-.063-.026-.297.366-.36.915-.062.55.072.989.13.977ZM88.564 75.96s-.036.037-.113.093l-.339.243c-.297.208-.73.5-1.27.853a94.421 94.421 0 0 1-8.731 5.072c-.573.297-1.043.525-1.37.68l-.376.175c-.09.039-.134.056-.137.05a.607.607 0 0 1 .122-.077l.365-.202 1.345-.724a121.867 121.867 0 0 0 4.407-2.456 146.252 146.252 0 0 0 4.315-2.61l1.297-.811.354-.217a.546.546 0 0 1 .13-.068ZM104.522 69.232a10.973 10.973 0 0 0-3.697 3.48c.086-.238.207-.463.359-.667.34-.512.739-.982 1.188-1.402.447-.418.94-.785 1.47-1.093.21-.138.439-.245.68-.318Z"/>
  <path fill="#263238" d="M104.218 65.374s-10.55 1.25-14.453 4.368a13.356 13.356 0 0 0-1.713 1.67 17.882 17.882 0 0 0-4.243 10.14l-1.414 15.516.113 2.563a7.506 7.506 0 0 0 7.471 7.171l43.599.297s5.725-6.391 4.225-16.303c-.353-2.33-.917-10.325-3.127-15.245-1.167-2.602-2.954-5.815-7.673-7.068l-11.014-3.115-11.771.006Z"/>
  <path fill="#455A64" d="M94.329 77.994a1.701 1.701 0 0 1-.09-.347 32.704 32.704 0 0 0-.22-.944 20.38 20.38 0 0 0-1.02-3.03 20.062 20.062 0 0 0-1.503-2.817c-.223-.348-.407-.621-.54-.811a1.965 1.965 0 0 1-.19-.297c.09.08.17.17.24.267.145.178.344.446.579.784a16.844 16.844 0 0 1 2.542 5.877c.086.404.142.733.172.962.024.117.034.237.03.356ZM96.162 95.681c-.044 0-.51-3.385-1.042-7.575-.531-4.19-.93-7.59-.89-7.593.038-.003.507 3.385 1.042 7.575.534 4.19.932 7.593.89 7.593ZM94.232 79.328a3.357 3.357 0 0 1-.742-.315 13.485 13.485 0 0 1-3.174-2.236 3.159 3.159 0 0 1-.547-.593c.217.157.424.329.618.513.377.321.906.752 1.523 1.188a17.69 17.69 0 0 0 1.63 1.03c.241.12.472.259.692.413ZM122.484 82.2a3.37 3.37 0 0 1 0-.532c.003-.207.017-.414.042-.62.027-.24.044-.517.104-.817a9.35 9.35 0 0 1 .199-.98c.074-.353.193-.718.297-1.104a13.84 13.84 0 0 1 2.568-4.562c.271-.296.52-.593.781-.84.234-.238.48-.464.737-.677.225-.208.451-.365.644-.514.162-.128.332-.247.508-.356.144-.102.296-.194.454-.273a3.468 3.468 0 0 1-.418.32c-.14.099-.297.22-.49.378-.193.157-.407.317-.627.525-.22.208-.472.428-.716.686-.243.259-.499.544-.763.843a14.434 14.434 0 0 0-2.542 4.517c-.121.38-.246.74-.323 1.087-.078.347-.161.671-.217.968-.057.297-.089.57-.125.81-.036.241-.056.443-.068.615a3.856 3.856 0 0 1-.045.526ZM118.137 100.02a1.57 1.57 0 0 1-.033-.546 1.642 1.642 0 0 1 .781-1.277 13.48 13.48 0 0 1 4.46-3.11l-.044.063c.059-.558.121-1.137.166-1.734.169-2.174.199-4.356.089-6.533-.039-.834-.098-1.511-.131-1.978l-.044-.537a.756.756 0 0 1 0-.19c.019.06.031.123.035.187.021.136.045.315.075.534.05.466.127 1.14.181 1.978a45.949 45.949 0 0 1-.214 8.294v.044l-.042.018a13.81 13.81 0 0 0-4.454 3.038 1.576 1.576 0 0 0-.579.594 1.62 1.62 0 0 0-.193.594c-.074.38-.033.558-.053.561Z"/>
  <path fill="#455A64" d="M130.578 98.763c-.027.015-.253-.412-.748-1.006a7.684 7.684 0 0 0-2.329-1.877 7.455 7.455 0 0 0-1.538-.594 5.842 5.842 0 0 0-1.336-.175c-.772 0-1.25.09-1.253.06.106-.04.217-.068.329-.08.306-.054.614-.084.924-.09.461-.01.921.04 1.369.149a7.069 7.069 0 0 1 1.577.593 7.234 7.234 0 0 1 2.343 1.946c.191.242.362.5.513.769.062.095.112.198.149.305ZM130.365 94.705c0 .026-.363-.14-.965-.297a7.37 7.37 0 0 0-1.069-.184c-.444-.041-.889-.053-1.334-.036a12.1 12.1 0 0 0-2.393.365c-.594.158-.965.297-.974.265a.961.961 0 0 1 .243-.12 6.69 6.69 0 0 1 .701-.249 10.02 10.02 0 0 1 2.417-.415c.452-.017.905-.001 1.354.047.367.044.73.117 1.084.22.136.039.27.084.401.136.102.035.201.076.297.125a.934.934 0 0 1 .238.143Z"/>
  <path fill="#BB2C75" d="M122.101 47.783c-.87-3.694-2.423-7.468-5.488-9.713-2.726-1.999-6.705-2.759-10.078-2.51-1.66.125-3.513.954-4.936 1.82-1.948 1.189-2.717 3.496-3.608 5.598-1.781 4.214-1.356 9.823 0 11.344l17.636 8.594c3.02-1.699 6.29-3.985 6.994-7.374.472-2.31.02-5.464-.52-7.759Z"/>
  <path fill="#FFBE9D" d="m115.421 41.229-11.016-2.86c-3.534-.398-5.913 3.94-6.162 7.486-.273 3.938-.455 8.76 0 11.703.89 5.919 5.428 7.323 5.428 7.323s0 5.143.033 6.898l5.14 15.656 7.308-15.656 1.125-28.421a2.077 2.077 0 0 0-1.856-2.13Z"/>
  <path fill="#263238" d="M100.212 50.622a.757.757 0 0 0 .728.77.722.722 0 0 0 .783-.678.754.754 0 0 0-.724-.772.728.728 0 0 0-.787.68ZM99.274 48.365c.092.098.671-.324 1.485-.315.813.01 1.413.42 1.502.321.042-.044-.05-.223-.312-.416a2.077 2.077 0 0 0-1.187-.377 2.004 2.004 0 0 0-1.188.371c-.261.194-.348.372-.3.416ZM107.619 50.622a.756.756 0 0 0 .724.77.723.723 0 0 0 .712-.4.724.724 0 0 0 .075-.278.758.758 0 0 0-.724-.772.73.73 0 0 0-.714.402.711.711 0 0 0-.073.278ZM107.295 48.57c.092.101.671-.32 1.484-.312.814.01 1.414.42 1.503.321.042-.044-.05-.223-.312-.416a2.096 2.096 0 0 0-1.188-.38 2.003 2.003 0 0 0-1.187.374c-.262.19-.348.369-.3.413ZM104.288 54.604c0-.047-.502-.14-1.321-.25-.211-.023-.407-.065-.44-.207a1.037 1.037 0 0 1 .143-.618l.627-1.582c.87-2.251 1.502-4.107 1.413-4.14-.089-.033-.873 1.764-1.743 4.018-.211.555-.41 1.084-.594 1.591-.135.25-.176.54-.116.817a.523.523 0 0 0 .342.297c.114.035.233.053.353.053.82.06 1.333.066 1.336.021Z"/>
  <path fill="#EB996E" d="m103.652 64.92.032 1.485c5.916.594 7.899-3.531 7.899-3.531a15.017 15.017 0 0 1-7.931 2.046ZM106.978 56.145a1.314 1.314 0 0 0-1.087-.594 1.707 1.707 0 0 0-1.559.76c-.12.237-.146.509-.075.764.057.13 0 .068.113.157.337.35.754.612 1.215.763a1.28 1.28 0 0 0 1.354-.487 1.302 1.302 0 0 0 .039-1.363Z"/>
  <path fill="#263238" d="M106.688 55.183c-.134 0-.143.89-.891 1.5-.748.608-1.705.522-1.714.644 0 .056.211.175.609.187a2.19 2.19 0 0 0 1.429-.487c.388-.313.64-.764.7-1.26.03-.368-.074-.587-.133-.584Z"/>
  <path fill="#BB2C75" d="M106.926 45.956c.08.223.891.122 1.853.244s1.728.389 1.856.19c.059-.095-.075-.297-.386-.52a3.24 3.24 0 0 0-2.824-.332c-.354.14-.532.312-.499.419ZM99.588 45.547c.142.184.706 0 1.38 0 .675 0 1.251.134 1.381-.06.06-.091-.029-.279-.279-.457a1.995 1.995 0 0 0-2.224.054c-.24.18-.32.371-.258.463Z"/>
  <path fill="#FFBE9D" d="M115.678 50.545c.08-.036 3.29-1.057 3.266 2.245-.023 3.302-3.337 2.59-3.343 2.494-.006-.095.077-4.74.077-4.74Z"/>
  <path fill="#EB996E" d="M116.62 54.046s.056.042.151.086a.565.565 0 0 0 .431 0c.35-.124.647-.674.671-1.268a1.933 1.933 0 0 0-.155-.825.652.652 0 0 0-.43-.446.299.299 0 0 0-.339.155c-.044.092-.027.157-.041.163-.015.006-.072-.056-.045-.193a.36.36 0 0 1 .134-.205.431.431 0 0 1 .317-.08.806.806 0 0 1 .594.517c.137.287.202.602.19.92-.026.665-.374 1.286-.852 1.42a.634.634 0 0 1-.526-.092c-.098-.072-.112-.146-.1-.152Z"/>
  <path fill="#263238" d="M117.708 55.147c.015-.018.143.137.122.434a.607.607 0 0 1-.232.463.689.689 0 0 1-.632.044.664.664 0 0 1-.44-.457.701.701 0 0 1 .089-.508c.164-.255.372-.279.372-.261 0 .018-.158.09-.268.318a.59.59 0 0 0-.044.413.529.529 0 0 0 .35.338.55.55 0 0 0 .484-.015.535.535 0 0 0 .205-.35c.013-.14.011-.28-.006-.419Z"/>
  <path fill="#BB2C75" d="M97.98 46.785c.445-.956 1.309-1.653 2.226-2.176.918-.523 1.91-.891 2.822-1.431a9.92 9.92 0 0 0 4.436-5.547c-1.624-.84-3.647-.743-5.286.068a8.079 8.079 0 0 0-3.64 3.937 12.682 12.682 0 0 0-1.007 5.345"/>
  <path fill="#BB2C75" d="M116.434 40.348c-2.441-2.32-7.052-3.6-10.233-2.512.473 2.776 2.569 5.897 4.413 8.017 1.844 2.12 2.97 5.9 7.017 4.624.276-.086.594.166.846.018.201-.15.339-.367.389-.612a9.453 9.453 0 0 0-2.432-9.535ZM98.162 50.797a1.23 1.23 0 0 1-.579-.033c-.52-.15-.97-.482-1.268-.935a3.447 3.447 0 0 1-.501-2.28c.04-.463.117-.92.231-1.37.107-.472.255-.947.416-1.431a14.63 14.63 0 0 1 2.571-4.517c.34-.403.703-.786 1.087-1.146l.321-.282a.57.57 0 0 1 .122-.092c-.122.15-.255.29-.398.419-.253.273-.63.656-1.04 1.187a15.244 15.244 0 0 0-2.503 4.496c-.162.463-.301.934-.416 1.41a8.498 8.498 0 0 0-.237 1.346 3.38 3.38 0 0 0 .445 2.203c.276.44.696.77 1.188.936.184.047.372.077.561.089Z"/>
  <path fill="#BB2C75" d="M126.154 40.718c0-1.55-.436-3.153-1.485-4.288-1.464-1.573-4.026-1.927-5.939-.926-1.912 1-3.052 3.207-2.925 5.345a6.65 6.65 0 0 0 3.32 5.241l1.363-.154c1.366.721 3.157.21 4.208-.918 1.051-1.128 1.458-2.755 1.458-4.3Z"/>
  <path fill="#fff" d="M117.822 39.81s-.017.041-.068.11c-.07.103-.147.202-.229.297-.295.353-.631.67-1 .944a6.496 6.496 0 0 1-8.392-.46 5.907 5.907 0 0 1-.891-1.049c-.092-.133-.148-.246-.193-.32-.045-.075-.062-.116-.056-.12.357.51.765.982 1.217 1.408.5.452 1.064.825 1.675 1.108a6.29 6.29 0 0 0 4.793.261 6.754 6.754 0 0 0 1.781-.914 8.88 8.88 0 0 0 1.363-1.265Z"/>
  <path fill="#fff" d="M119.407 44.309a.767.767 0 0 1-.11.11 3.358 3.358 0 0 1-.348.297 5.213 5.213 0 0 1-1.47.772 6.63 6.63 0 0 1-2.443.33 7.523 7.523 0 0 1-2.922-.755 9.494 9.494 0 0 1-2.447-1.782 12.495 12.495 0 0 1-1.568-1.897 14.41 14.41 0 0 1-.858-1.422 5.091 5.091 0 0 1-.205-.404.777.777 0 0 1-.06-.146c.035.041.065.086.089.134l.226.386c.199.338.493.82.891 1.386.468.669.996 1.292 1.58 1.862a9.707 9.707 0 0 0 2.414 1.735c.895.436 1.868.69 2.862.748a6.667 6.667 0 0 0 2.4-.297 5.6 5.6 0 0 0 1.485-.719c.311-.213.472-.356.484-.338ZM124.821 39.26s-.042.078-.14.203a3.89 3.89 0 0 1-.466.484 5.321 5.321 0 0 1-.802.594c-.35.21-.72.385-1.105.522-.386.13-.784.222-1.187.276-.331.04-.665.05-.998.03a4.197 4.197 0 0 1-.665-.092.748.748 0 0 1-.238-.071c0-.027.351.044.906.053a6.17 6.17 0 0 0 4.018-1.404c.43-.342.656-.594.677-.594ZM126.051 41.339a.491.491 0 0 1 .042.267 1.235 1.235 0 0 1-.256.692c-.229.291-.528.52-.87.662a6.76 6.76 0 0 1-3.655.523 6.24 6.24 0 0 1-.716-.146.813.813 0 0 1-.25-.095c0-.026.372.075.977.131a7.519 7.519 0 0 0 2.352-.145c.891-.211 1.711-.517 2.079-.995.149-.182.246-.4.282-.633.021-.17.003-.261.015-.261Z"/>
  <path fill="#455A64" d="M118.589 101.674a.567.567 0 0 1-.164.015h-.469a11.589 11.589 0 0 1-10.372-6.952 10.613 10.613 0 0 1-.57-1.633c-.057-.196-.081-.353-.104-.457a1.128 1.128 0 0 1-.027-.164c.074.194.137.393.187.594.169.549.374 1.086.615 1.607a11.83 11.83 0 0 0 8.57 6.723c.561.11 1.13.181 1.701.214.407.038.633.041.633.053ZM104.685 100.729a.616.616 0 0 1-.131-.071l-.359-.231-1.304-.885a37.733 37.733 0 0 0-4.454-2.602 17.288 17.288 0 0 0-4.873-1.556 14.026 14.026 0 0 0-1.553-.142 5.511 5.511 0 0 1-.573-.024.49.49 0 0 1 .148-.018c.096 0 .241-.02.425-.018.524-.006 1.048.026 1.568.095 1.716.244 3.382.76 4.935 1.53a33.49 33.49 0 0 1 4.44 2.651c.543.375.977.686 1.277.906l.341.256c.077.056.116.089.113.109Z"/>
  <path fill="#FFBE9D" d="m119.615 99.945-20.273 1.025 1.571 5.972 27.016.124-8.314-7.12Z"/>
  <path fill="#FFBE9D" d="M100.283 100.923s-6.55-3.267-7.361-3.3c-.62-.02-4.22.594-5.877.877a1.188 1.188 0 0 0-1.015 1.333 1.01 1.01 0 0 0 .944.817 1.268 1.268 0 0 0-.695 1.315c.13.941 1.295.965 1.295.965-.05.053-.097.11-.14.169a1.13 1.13 0 0 0 .835 1.782l.528.039s-.647.395-.54 1.036c.208 1.229 3.017 1.045 3.017 1.045l9.639-.068-.63-6.01Z"/>
  <path fill="#FFBE9D" d="M87.461 96.944c.092.4.32 1.253 1.072 1.538l3.798-.722s-2.996-.549-3.474-.97a3.33 3.33 0 0 0-.627-.452.546.546 0 0 0-.769.606Z"/>
  <path fill="#EB996E" d="M90.519 97.989c0 .065-.76.258-1.728.389-.968.13-1.746.21-1.758.14-.012-.072.757-.26 1.725-.39.968-.13 1.761-.21 1.761-.14ZM89.993 100.251c.018.066-.638.297-1.484.384-.847.086-1.536.032-1.533-.033.003-.065.677-.119 1.503-.217.825-.098 1.496-.202 1.514-.134ZM91.895 99.681c.062.027.02.247-.172.419-.193.172-.416.187-.437.125-.02-.063.119-.176.27-.312.152-.137.276-.261.339-.232ZM90.784 102.606c0 .069-.727.214-1.636.321-.909.107-1.654.139-1.666.071-.012-.068.722-.211 1.636-.318.915-.106 1.66-.142 1.666-.074ZM92.809 101.252c.03 0 .1.056.142.202a.797.797 0 0 1-.537.953c-.149.042-.244.015-.247-.018-.003-.032.312-.16.487-.475.175-.315.092-.635.155-.662ZM91.708 104.887c0 .068-.666.142-1.485.166-.82.024-1.5-.015-1.5-.083s.665-.143 1.485-.166c.82-.024 1.5.017 1.5.083ZM93.67 103.36c.03 0 .09.066.108.217a.915.915 0 0 1-.125.549c-.229.381-.523.55-.564.511-.042-.038.157-.315.344-.632.187-.318.175-.624.238-.645Z"/>
  <path fill="#9B6E65" d="M74.41 103.699c-1.33-.633-5.77-2.376-5.77-2.376l-2.174-14.847-8.843 1.327s5.146 18.925 6.533 19.055c1.387.131 9.274 0 9.274 0L76 106.82s-.659-2.682-1.591-3.121Z"/>
  <path fill="#704C45" d="M68.248 106.395a.993.993 0 0 1-.443.163 2.575 2.575 0 0 1-2.153-.573 1.024 1.024 0 0 1-.297-.362c.021-.018.143.11.371.276a2.996 2.996 0 0 0 2.067.552c.15-.031.302-.05.455-.056ZM73.363 106.814c-.021.015-.205-.297-.544-.748a3.648 3.648 0 0 0-.683-.704 3.775 3.775 0 0 0-1.078-.529 10.599 10.599 0 0 1-2.025-.956 4.794 4.794 0 0 1-.772-.511c.286.116.562.255.826.416.648.358 1.326.661 2.025.906.4.122.777.312 1.114.561.264.215.495.469.683.754.128.191.246.39.353.594.044.067.079.14.1.217Z"/>
  <path fill="#BB2C75" d="m47.503 37.45-3.267 2.25s-4.068-.243-7.02.76c-1.636.559-3.62 1.233-5.77 3.41a16.158 16.158 0 0 0-4.106 7.144l-3.953 32.923-5.998 23.231h39.93V77.769l3.823-13.484s-.992-1.556-.963-2.177c.03-.62 2.26-14.99 2.26-14.99l-4.552-5.446-10.384-4.223Z"/>
  <path fill="#BB2C75" d="M61.906 46.435s2.26 1.054 2.812 5c.552 3.947 4.555 34.405 4.555 34.405s-4.422 1.022-8.457 1.485l-5.081.864-.128-20.365 6.299-21.39Z"/>
  <path fill="#000" d="M31.537 106.241c6.788-8.136 7.854-19.937 14.729-28.003l-4.208 2.376c.745-7.011 1.461-14.301-.89-20.95a183.875 183.875 0 0 1-9.83 46.544" opacity=".2"/>
  <path fill="#BB2C75" d="M42.415 47.07c-.154 12.557-.73 25.1-1.728 37.627a15.603 15.603 0 0 1-.642 2.872 2.078 2.078 0 0 1-2.298 1.434l-8.193-1.235c-1.425-.241-1.966-.431-2.393-1.352a4.482 4.482 0 0 1-.393-2.028c.315-11.21-.665-17.149 0-27.747"/>
  <path fill="#263238" d="M26.79 56.641v.217c0 .142-.014.362-.026.641-.03.564-.068 1.393-.101 2.462-.033 1.069-.06 2.376-.065 3.899-.006 1.523.023 3.249.077 5.16.107 3.826.297 8.384.223 13.447 0 .632-.027 1.27-.042 1.921a4.51 4.51 0 0 0 .338 1.889 1.839 1.839 0 0 0 1.402 1.214c.662.153 1.33.272 2.005.357l4.157.623 2.123.321c.353.05.719.116 1.066.151.351.023.703-.046 1.019-.201.315-.159.584-.396.78-.69.181-.304.311-.636.387-.982.2-.682.355-1.377.463-2.079.13-1.405.226-2.81.33-4.181.201-2.747.374-5.396.525-7.923.297-5.048.502-9.603.639-13.428.136-3.825.213-6.919.26-9.06.025-1.066.042-1.895.054-2.462 0-.279.006-.493.018-.641v-.22.861c0 .568-.015 1.396-.026 2.465a457.876 457.876 0 0 1-.211 9.06c-.125 3.825-.318 8.38-.594 13.434a582.232 582.232 0 0 1-.517 7.926c-.1 1.375-.196 2.767-.33 4.19-.11.712-.265 1.416-.466 2.108-.08.361-.217.707-.407 1.025a2.158 2.158 0 0 1-1.936.96c-.374-.04-.721-.105-1.08-.156l-2.124-.32-4.157-.627a19.302 19.302 0 0 1-2.02-.362 2.264 2.264 0 0 1-.929-.452 2.32 2.32 0 0 1-.57-.849 4.663 4.663 0 0 1-.35-1.942l.044-1.918c.092-5.048-.098-9.613-.187-13.44a170.035 170.035 0 0 1-.056-5.164 113.526 113.526 0 0 1 .22-6.36l.044-.642a5.91 5.91 0 0 1 .02-.232ZM57.32 88.922a.471.471 0 0 1 0-.095v-.276c0-.255.022-.615.037-1.07.017-.929.133-2.268.326-3.916.122-.822.223-1.728.416-2.672.089-.481.17-.98.28-1.485.109-.505.219-1.034.335-1.568.48-2.144 1.095-4.475 1.669-6.94 1.187-4.92 1.612-9.502 1.52-12.825l-.08-2.233c-.036-.66-.101-1.224-.137-1.684-.035-.46-.065-.81-.086-1.066 0-.116-.015-.205-.018-.276-.003-.072 0-.095 0-.095.01.03.016.06.018.092l.036.276c.026.252.065.609.115 1.063.05.454.116 1.024.16 1.684.045.659.066 1.41.105 2.239.122 3.317-.282 7.931-1.485 12.86-.573 2.468-1.188 4.8-1.68 6.934-.12.535-.232 1.058-.345 1.566-.113.507-.19 1.003-.297 1.484-.196.956-.297 1.86-.43 2.673-.209 1.645-.34 2.97-.375 3.908-.03.454-.05.81-.068 1.066 0 .116-.015.205-.021.276a.479.479 0 0 1 .006.08ZM57.04 68.923a.888.888 0 0 1-.117.136l-.353.369c-.297.32-.763.769-1.336 1.315a65.856 65.856 0 0 1-4.68 4.045 63.069 63.069 0 0 1-5.048 3.59c-.669.427-1.212.766-1.595.989l-.443.252a.625.625 0 0 1-.157.08.859.859 0 0 1 .143-.104l.424-.282c.374-.237.909-.594 1.568-1.024a80.499 80.499 0 0 0 5-3.623 79.276 79.276 0 0 0 4.702-4.003c.593-.534 1.048-.971 1.368-1.277l.372-.347a.664.664 0 0 1 .151-.116Z"/>
  <path fill="#000" d="M61.8 62.553c-.974 9.042-4.193 18.922-4.478 24.626 1.277-4.065 2.892-7.95 4.08-12.041 1.188-4.092 1.722-8.535.398-12.585Z" opacity=".2"/>
  <path fill="#263238" d="M67.684 9.966a2.32 2.32 0 0 0 1.159-3.492c-.297-.458-.776-.796-1.055-1.274a7.427 7.427 0 0 1-.469-1.289 4.688 4.688 0 0 0-3.165-2.83 6.049 6.049 0 0 0-4.282.502c-.523.264-1.034.594-1.616.647-.582.054-1.11-.178-1.666-.297A3.86 3.86 0 0 0 52.264 7a3.31 3.31 0 0 0-.039 6.533c.938.17 1.898-.074 2.827-.297a50.42 50.42 0 0 1 11.495-1.282"/>
  <path fill="#BB2C75" d="M48.187 30.32a11.842 11.842 0 0 1-1.538-7.938c.442-2.715 1.547-5.996 3.64-7.78-.911-1.485-.148-2.8.986-4.131C52.41 9.14 54.1 8.392 55.79 7.953a18.803 18.803 0 0 1 7.75-.41c2.1.33 4.805 1.235 4.787 2.791-.02 1.625-1.187 2.12-1.187 2.12a10.494 10.494 0 0 1 3.409 3.095c2.102 3.01 2.613 5.734 1.704 8.472-.908 2.738-1.95 4.807-3.99 6.254"/>
  <path fill="#455A64" d="M65.948 33.245a2.65 2.65 0 0 1 1.188-.431l-.077-.02c.076-.002.153.003.228.014a1.039 1.039 0 0 1 .772.297c.407.264.699.671.82 1.14a2.292 2.292 0 0 1-.808 2.242 1.755 1.755 0 0 1-2.996-1.327 2.184 2.184 0 0 1 .873-1.915Z"/>
  <path fill="#9B6E65" d="m47.352 39.631 3.302-21.784a2.138 2.138 0 0 1 2.313-1.738l11.718-.513c3.64.359 5.102 5.235 4.588 8.855-.57 4.023-1.425 8.908-2.51 11.78-2.176 5.76-6.9 5.577-6.9 5.577l-1.358 6.286-2.432 8.546-8.721-17.009Z"/>
  <path fill="#263238" d="M66.957 29.164a.78.78 0 0 1-.89.62.749.749 0 0 1-.645-.852.781.781 0 0 1 .89-.62.75.75 0 0 1 .645.852ZM67.68 26.761c-.115.08-.594-.466-1.428-.635-.834-.17-1.508.118-1.577 0-.035-.054.098-.214.401-.35a2.15 2.15 0 0 1 1.289-.125c.427.088.816.31 1.11.632.214.246.262.442.205.478ZM59.221 27.747a.778.778 0 0 1-.89.618.747.747 0 0 1-.645-.852.778.778 0 0 1 .89-.618.748.748 0 0 1 .645.852ZM59.57 25.244c-.117.08-.61-.466-1.43-.635-.819-.17-1.51.119-1.579 0-.036-.054.098-.214.4-.35a2.132 2.132 0 0 1 1.29-.122c.429.085.819.306 1.113.63.211.24.274.442.205.477ZM61.29 31.958c0-.047.535-.03 1.388.036.213.024.421.02.486-.113a1.11 1.11 0 0 0 0-.653c-.092-.55-.19-1.123-.296-1.726-.392-2.455-.63-4.454-.532-4.472.098-.017.499 1.963.89 4.419l.262 1.731c.08.281.057.58-.062.847a.533.533 0 0 1-.407.234c-.123.008-.247 0-.368-.024-.85-.127-1.366-.231-1.36-.279Z"/>
  <path fill="#704C45" d="M59.848 41.807a15.467 15.467 0 0 1-7.54-3.78s1.093 4.5 7.169 5.17l.371-1.39ZM60.765 33.888a2.078 2.078 0 0 0-1.485-1.227 1.349 1.349 0 0 0-1.206.366 1.304 1.304 0 0 0-.255 1.333 1.286 1.286 0 0 0 1.235.754c.49-.053.958-.224 1.366-.499a.92.92 0 0 0 .324-.252.427.427 0 0 0 .053-.425"/>
  <path fill="#263238" d="M58.746 32.03c.133.017-.048.911.594 1.701.641.79 1.603.89 1.582 1.015 0 .06-.246.131-.65.06a2.278 2.278 0 0 1-1.333-.799 1.975 1.975 0 0 1-.434-1.416c.045-.38.187-.58.24-.562ZM60.359 23.083c-.128.208-.927-.068-1.916-.152-.989-.083-1.823.018-1.91-.207-.035-.107.143-.297.503-.443a3.22 3.22 0 0 1 1.484-.199c.507.042.996.205 1.426.475.33.214.469.428.413.526ZM67.873 24.32c-.184.158-.71-.154-1.39-.296-.68-.143-1.283-.134-1.375-.356-.038-.107.092-.277.38-.401a2.057 2.057 0 0 1 2.227.534c.202.232.238.44.158.52Z"/>
  <path fill="#BB2C75" d="M65.116 17.464s-5.565-1.277-11.138 4.122c-3.674 3.563-5.375 8.65-5.375 8.65l-.036-10.393 2.587-4.178 4.326-1.349 7.41 1.155 2.47 1.96"/>
  <path fill="#BB2C75" d="M54.066 15.64c9.35-.24 15.83 4.226 15.643 11.478l2.791-4.202-3.438-6.56-4.778-2.402-10.53-.63.312 2.316Z"/>
  <path fill="#455A64" d="M47.383 29.298c.379-.254.814-.413 1.267-.464l-.083-.023a1.72 1.72 0 0 1 .247.015 1.12 1.12 0 0 1 .831.296c.441.285.759.725.891 1.233a2.48 2.48 0 0 1-.87 2.411 1.889 1.889 0 0 1-3.225-1.431 2.345 2.345 0 0 1 .941-2.037Z"/>
  <path fill="#fff" d="M50.164 26.571a.892.892 0 0 1-.366-.228 2.288 2.288 0 0 1-.641-.992 2.316 2.316 0 0 1 .098-1.746c.143-.297.327-.594.448-.891a1.005 1.005 0 0 0-.047-.935 3.503 3.503 0 0 0-.751-.728 2.59 2.59 0 0 1-.677-.802 2.889 2.889 0 0 1-.297-1.728c.05-.395.192-.773.415-1.102a.938.938 0 0 1 .297-.314c-.287.43-.47.923-.534 1.437a2.762 2.762 0 0 0 .33 1.594c.158.284.373.532.632.728.308.217.58.482.805.784a1.235 1.235 0 0 1 .062 1.152c-.137.345-.33.63-.466.912a2.192 2.192 0 0 0-.14 1.594c.103.362.29.694.544.971.172.19.3.276.288.294ZM51.201 14.135a3.86 3.86 0 0 0-.564 1.334c-.09.513-.04 1.042.146 1.529.198.552.683 1 1.152 1.538.242.266.426.58.54.92.09.33.082.679-.02 1.005-.182.593-.476 1.072-.532 1.508-.073.34-.016.697.16.998.134.205.282.255.267.279-.014.024-.038 0-.104-.03a.711.711 0 0 1-.24-.19 1.432 1.432 0 0 1-.255-1.08c.041-.49.332-.984.484-1.548a1.56 1.56 0 0 0 0-.873 2.378 2.378 0 0 0-.496-.828c-.443-.511-.968-1.001-1.188-1.619a2.925 2.925 0 0 1-.104-1.645c.078-.364.232-.708.451-1.01.176-.21.294-.296.303-.288ZM56.552 19.703s-.086.077-.253 0a.484.484 0 0 1-.222-.217.63.63 0 0 1-.054-.41c.048-.297.297-.594.365-.89.069-.298-.127-.64-.44-.892a2.596 2.596 0 0 1-.813-.89 2.112 2.112 0 0 1-.208-.983c-.016-.313.084-.62.28-.864-.06.283-.095.571-.104.86.014.311.095.615.237.892.191.327.454.608.77.82.172.137.316.306.424.498a.847.847 0 0 1 .074.639c-.125.389-.36.623-.413.87a.458.458 0 0 0 .152.507c.113.06.202.039.205.06ZM59.283 15.225s.062 0 .116.074a.424.424 0 0 1 .032.368 2.289 2.289 0 0 1-.243.43 1.01 1.01 0 0 0-.11.502c.03.337.137.661.315.948.133.234.214.386.184.407-.03.02-.154-.093-.33-.312a1.782 1.782 0 0 1-.418-1.037c-.01-.22.047-.438.163-.626.113-.166.226-.27.276-.377a.48.48 0 0 0 .015-.377ZM68.873 13.88s-.036.092-.149.22c-.112.127-.297.296-.469.513a1.238 1.238 0 0 0-.27.912c.062.432.068.87.018 1.303-.09.446-.311.855-.636 1.173a2.18 2.18 0 0 1-.938.54c-.609.164-.992.024-.98 0a5.26 5.26 0 0 0 .926-.169 2.126 2.126 0 0 0 1.384-1.597 5.668 5.668 0 0 0 0-1.25 1.394 1.394 0 0 1 .365-1.028c.166-.172.346-.33.538-.472.125-.101.199-.157.21-.146ZM72.219 18.945c.027.045-.297.12-.508.535-.1.217-.27.463-.413.733-.15.32-.328.623-.534.91a1.966 1.966 0 0 1-1.782.676 1.108 1.108 0 0 1-.727-.32c.02-.042.282.121.745.148a1.915 1.915 0 0 0 1.57-.662c.198-.275.375-.564.53-.864.166-.297.338-.5.463-.71a.967.967 0 0 1 .442-.4c.13-.054.208-.06.214-.046ZM71.75 25.072c.027.018-.024.154-.19.312a1.303 1.303 0 0 1-1.666.08c-.18-.143-.243-.273-.22-.297.024-.024.446.335 1.055.297.608-.039.974-.443 1.021-.392ZM63.774 11.86c.017.042-.297.128-.618.467a1.868 1.868 0 0 0-.51 1.65c.073.34.219.725.118 1.088-.082.3-.259.564-.505.754a1.461 1.461 0 0 1-.715.38c-.021-.039.258-.178.593-.508.197-.182.336-.417.401-.677.072-.297-.053-.594-.14-.986-.077-.37-.04-.754.108-1.102.117-.28.298-.529.528-.727a1.09 1.09 0 0 1 .74-.339ZM57.262 14.952c-.06-.042.237-.532.383-1.188.145-.656.098-1.241.172-1.253.075-.012.238.579.072 1.307-.167.727-.586 1.178-.627 1.134ZM53.246 13.5c0-.018.066-.053.14-.16a.89.89 0 0 0 .16-.523c0-.481-.338-1.099-.594-1.847a2.918 2.918 0 0 1-.145-1.108c.02-.323.136-.633.332-.89.13-.174.312-.3.52-.36.151-.032.235 0 .232 0a1.016 1.016 0 0 0-.609.448c-.297.393-.336 1.105-.095 1.818.24.713.594 1.369.528 1.93a.891.891 0 0 1-.26.594c-.114.11-.209.11-.209.098ZM59.479 12.03c0-.015.053-.072.166-.158.113-.086.297-.205.36-.404a1.28 1.28 0 0 0-.253-.766c-.169-.279-.413-.552-.65-.89a1.782 1.782 0 0 1-.43-1.079c.047-.32.191-.618.412-.855.35-.395.615-.573.636-.552a5.026 5.026 0 0 1-.496.66 1.55 1.55 0 0 0-.324.762c.038.34.178.66.404.918.448.594.989 1.205.87 1.838a.865.865 0 0 1-.478.437c-.13.077-.208.103-.217.089ZM65.202 12.238c-.015-.036.273-.095.433-.47.088-.213.11-.448.063-.674a5.31 5.31 0 0 0-.276-.852 2.355 2.355 0 0 1-.188-.941c.023-.275.14-.533.333-.73.297-.354.642-.36.633-.315a1.443 1.443 0 0 0-.496.424c-.144.18-.228.4-.24.63.013.292.077.58.19.85.122.285.213.584.27.89.045.27-.001.548-.131.79a.808.808 0 0 1-.395.368c-.119.045-.196.03-.196.03Z"/>
  <path fill="#263238" d="M67.15 12.455a3.708 3.708 0 0 1-.685-.116 27.348 27.348 0 0 0-1.859-.324 20.673 20.673 0 0 0-6.186.092c-2.04.377-4.038.958-5.962 1.734l-1.755.701c-.21.1-.429.178-.654.235.194-.128.4-.236.615-.324.401-.196.992-.466 1.728-.775a27.821 27.821 0 0 1 5.987-1.817 19.266 19.266 0 0 1 6.254-.021 17.96 17.96 0 0 1 1.853.404c.227.05.45.12.665.21ZM51.94 14.943h.062l.181-.036.297-.06.404-.064a11.225 11.225 0 0 1 2.592-.066c1.28.12 2.541.395 3.754.823.689.231 1.392.522 2.117.84a24.94 24.94 0 0 1 2.194 1.081c2.97 1.589 4.969 4.098 5.672 6.168.286.819.448 1.675.481 2.542.018.297.015.543 0 .706v.184a.25.25 0 0 0 0 .063.172.172 0 0 0 0-.063v-.184c0-.16.024-.4.018-.71a8.523 8.523 0 0 0-.442-2.57c-.686-2.106-2.712-4.657-5.699-6.26a27.481 27.481 0 0 0-2.206-1.084 28.17 28.17 0 0 0-2.132-.838 15.461 15.461 0 0 0-3.754-.802c-.87-.068-1.746-.03-2.607.113l-.404.077-.297.075-.178.047c-.036.009-.053.015-.053.018Z"/>
  <path fill="#263238" d="M63.575 17.443a4.986 4.986 0 0 0-.763-.077c-.7-.015-1.4.063-2.08.232a14.394 14.394 0 0 0-5.992 3.287 21.976 21.976 0 0 0-2.563 2.791 26.151 26.151 0 0 0-1.799 2.519 14.248 14.248 0 0 0-.989 1.838 9.045 9.045 0 0 0-.208.525.859.859 0 0 0-.056.19 1.38 1.38 0 0 0 .083-.178c.05-.123.127-.295.232-.517.303-.622.645-1.225 1.024-1.805a28.607 28.607 0 0 1 1.815-2.489 22.7 22.7 0 0 1 2.556-2.767 14.674 14.674 0 0 1 5.922-3.296 8.553 8.553 0 0 1 2.048-.276c.244 0 .437 0 .565.02.068.008.136.01.205.003Z"/>
  <path fill="#9B6E65" d="M13.081 106.134s1.817-.594 2.97-.932c.644-.187 3.31-1.366 4.932-1.672 1.354-.256 5.104-2.171 5.687-2.563.582-.392 2.88-13.2 2.88-13.2l8.671 1.307s-4.623 12.353-4.915 13.532c-.29 1.179-1.39 4.229-1.39 4.229H13.082v-.701Z"/>
  <path fill="#704C45" d="M28.265 106.549c0-.027.297-.05.704-.228a2.811 2.811 0 0 0 1.746-2.795c-.026-.454-.13-.724-.104-.733.027-.009.045.059.09.184.062.174.104.356.124.54a2.75 2.75 0 0 1-1.814 2.907 2.334 2.334 0 0 1-.54.125.472.472 0 0 1-.206 0ZM27.127 105.917a1.116 1.116 0 0 1-.176.078 3.397 3.397 0 0 1-.534.139c-.675.071-1.354.086-2.031.045a4.77 4.77 0 0 0-1.366.163c-.478.143-.95.404-1.485.594a4.909 4.909 0 0 1-3.65-.279l-.184-.089.196-.054.176-.05a6.598 6.598 0 0 0 1.746-.793c.497-.339.966-.716 1.404-1.128a7.184 7.184 0 0 1 2.694-1.485 16.037 16.037 0 0 1 2.016-.481l.558-.092a.895.895 0 0 1 .193-.021.735.735 0 0 1-.19.05l-.55.122a18.57 18.57 0 0 0-1.995.526 7.202 7.202 0 0 0-2.63 1.484c-.44.421-.915.806-1.417 1.15a6.762 6.762 0 0 1-1.782.813l-.178.051v-.143a4.817 4.817 0 0 0 3.543.279c.531-.169 1.01-.43 1.502-.573.46-.118.934-.17 1.408-.151.672.049 1.347.049 2.019 0 .463-.063.707-.172.712-.155Z"/>
  <path fill="#263238" d="m155.15 84.171-5.039 11.662-4.674 15.019 45.288.214-.772-28.448-22.259-2.268-12.544 3.821Z"/>
  <path fill="#C78976" d="M130.939 85.962s-3.647 1.387-6.5 2.227c-2.854.84-7.947 3.985-7.947 3.985s-5.185 4.671-4.998 5.289c.188.618.802.915 1.589.282.787-.633 4.674-2.928 4.674-2.928s.25 1.3 1.09 1.45c.424.104.87.083 1.283-.06 0 0 .344 1.22.95 1.618.355.235.749.403 1.164.496a.977.977 0 0 0 .802.915 5.128 5.128 0 0 0 1.606.19s2.706-1.64 3.136-2.43c.431-.79.956-1.855.956-1.855l1.117-.559 3.43-.593-2.352-8.027Z"/>
  <path fill="#925B4C" d="M127.178 92.132c-.095.151-.208.29-.336.413a4.425 4.425 0 0 1-1.206.846 6.069 6.069 0 0 1-2.158.594 4.706 4.706 0 0 1-1.36-.056 3.56 3.56 0 0 1-1.381-.567l.089-.122c.336.249.655.52.956.81.16.154.304.323.431.505.129.192.218.408.261.636a1.953 1.953 0 0 1-.371 1.553l-.036.044-.053-.02a7.282 7.282 0 0 1-1.455-.814c-.44-.297-.844-.618-1.224-.918-.38-.3-.73-.594-1.066-.86a1.32 1.32 0 0 1-.398-1.12c.028-.173.08-.341.155-.5.062-.15.124-.296.19-.418.127-.252.252-.463.359-.632a3.24 3.24 0 0 1 .264-.372.74.74 0 0 1 .104-.121.67.67 0 0 1-.08.136c-.056.086-.14.217-.241.386a7.258 7.258 0 0 0-.513 1.055 1.697 1.697 0 0 0-.137.478 1.22 1.22 0 0 0 .377 1.021c.321.261.695.543 1.069.84.374.297.784.61 1.221.906.446.316.926.581 1.431.79l-.089.027a1.812 1.812 0 0 0 .341-1.431 1.567 1.567 0 0 0-.237-.58 3.304 3.304 0 0 0-.41-.48 8.894 8.894 0 0 0-.938-.8l.089-.121c.395.275.844.463 1.318.55.436.086.882.11 1.325.067a6.13 6.13 0 0 0 2.126-.564 4.581 4.581 0 0 0 1.211-.802c.241-.213.357-.374.372-.359Z"/>
  <path fill="#925B4C" d="M122.295 95.955c.143-.073.292-.132.445-.178.353-.133.681-.326.968-.57.145-.135.248-.308.297-.5a.66.66 0 0 0-.404-.754s.051-.018.137 0c.124.038.23.12.297.232a.76.76 0 0 1 .116.543c-.046.23-.165.438-.339.594-.3.263-.655.456-1.039.564a1.073 1.073 0 0 1-.478.069Z"/>
  <path fill="#925B4C" d="M123.059 98.024c.209-.156.428-.299.656-.428.205-.13.442-.297.698-.48.278-.2.536-.424.772-.672.112-.126.192-.276.234-.44a.677.677 0 0 0-.056-.442.962.962 0 0 0-.594-.496 1.629 1.629 0 0 0-.552-.068.785.785 0 0 1-.211 0 .526.526 0 0 1 .208-.06c.197-.033.399-.026.594.021a1.078 1.078 0 0 1 .694.54.867.867 0 0 1 .075.538 1.202 1.202 0 0 1-.265.508 4.685 4.685 0 0 1-.807.683 9.433 9.433 0 0 1-.722.463 2.832 2.832 0 0 1-.724.333Z"/>
  <path fill="#925B4C" d="M126.657 97.786c.053-.13.096-.264.128-.4a.876.876 0 0 0-.77-1.047.877.877 0 0 0-.475.087c-.237.104-.335.247-.356.229-.021-.018.057-.184.297-.327a.954.954 0 0 1 1.405 1.078c-.066.28-.22.392-.229.38Z"/>
  <path fill="#C78976" d="m149.125 101.7-.953 1.405h-7.106l-9.051 3.646h23.376c.199-.246.807-1.187.807-1.187l-7.073-3.864Z"/>
  <path fill="#455A64" d="M181.515 58.446c-5.105-8.258-16.074-18.349-17.004-18.815-.929-.466-15.925-1.407-15.925-1.407l-11.843 8.403-3.931 5.877c-.538 1.672-1.485 4.247-1.052 5.94l.366 2.897 12.353 7.973 6.144 3.588 3.421 4.852-.273 8.127 4.84-.92s7.453.736 14.598.912c7.145.175 16.971-2.094 16.971-2.094s-2.973-16.118-8.665-25.333Z"/>
  <path fill="#455A64" d="m153.02 52.445 4.193 23.263-8.694 25.66 8.694 4.751s6.213-10.934 9.01-17.547c2.797-6.613 3.816-10.307 3.816-10.307s0-25.143-.891-28.041c-.891-2.899-3.843-8.645-6.949-8.333-3.106.312-10.45 3.498-9.179 10.554Z"/>
  <path fill="#455A64" d="m132.126 61.353 7.492 18.346a7.612 7.612 0 0 0-.891 2.159l-9.345 4.618 2.744 8.834s11.658-3.86 13.31-4.751c1.651-.891 6.414-4.282 7.239-7.035.826-2.753-3.75-12.505-3.75-12.505l-16.799-9.666Z"/>
  <path fill="#263238" d="M150.623 72.914a.867.867 0 0 1-.16-.08l-.443-.246c-.383-.22-.935-.54-1.612-.95-.677-.41-1.485-.892-2.334-1.486a17.951 17.951 0 0 1-1.322-.976l-1.354-1.12-4.727-3.961-1.42-1.215-.383-.335a.784.784 0 0 1-.125-.125c.053.026.102.06.146.1l.398.298c.359.297.852.692 1.455 1.188 1.229 1.018 2.904 2.399 4.751 3.925l1.351 1.126c.44.353.891.677 1.307.974a62.155 62.155 0 0 0 2.313 1.523l1.583.989.427.273c.054.026.104.06.149.098ZM151.491 39.299c.226.263.418.553.573.864.426.848.654 1.783.665 2.732a7.396 7.396 0 0 1-.235 1.942c-.2.73-.5 1.43-.891 2.079a11.252 11.252 0 0 1-3.611 3.61 9.571 9.571 0 0 1-4.834 1.61 6.373 6.373 0 0 1-3.97-1.188 5.297 5.297 0 0 1-1.782-2.167 3.243 3.243 0 0 1-.157-.416 1.718 1.718 0 0 1-.083-.315c-.018-.077-.03-.142-.042-.196a.196.196 0 0 1 0-.068c.096.33.211.654.344.97a5.348 5.348 0 0 0 1.782 2.106 6.302 6.302 0 0 0 3.899 1.143 9.5 9.5 0 0 0 4.751-1.594 11.252 11.252 0 0 0 3.564-3.564 8.239 8.239 0 0 0 .891-2.025 7.434 7.434 0 0 0 .246-1.906 6.267 6.267 0 0 0-.817-3.097 3.223 3.223 0 0 0-.169-.277l-.11-.166c-.006-.053-.017-.074-.014-.077Z"/>
  <path fill="#263238" d="M148.266 50.022c-.042.015-.258-.466-.624-.995-.365-.528-.736-.906-.703-.938a3.46 3.46 0 0 1 1.327 1.933ZM151.098 47.38a6.972 6.972 0 0 0-.994-.728 7.277 7.277 0 0 0-1.164-.404 2.374 2.374 0 0 1 2.158 1.131ZM152.64 44.225c-.014.042-.451-.092-1-.166-.55-.074-1.007-.071-1.01-.116a2.08 2.08 0 0 1 1.031-.038c.348.024.684.134.979.32ZM152.373 40.555c-.29.106-.588.19-.891.25a6.675 6.675 0 0 1-.891.26c.245-.206.538-.347.852-.41a1.94 1.94 0 0 1 .93-.1ZM143.478 51.8a1.537 1.537 0 0 1-.232-.95 1.569 1.569 0 0 1 .241-.95c.044.015-.086.428-.086.95 0 .523.118.936.077.95ZM138.69 50.862c.101-.232.246-.441.428-.617.267-.315.513-.546.543-.517.03.03-.157.297-.425.618-.267.32-.513.543-.546.517ZM169.134 50.22s0 .042.036.125c.035.123.063.248.083.375.065.332.124.834.19 1.484.124 1.307.237 3.228.329 5.681.184 4.903.297 11.923.333 20.377v.018c-.627 2.129-1.417 4.308-2.29 6.56-.873 2.25-1.82 4.57-2.942 6.895-2.228 4.659-4.817 9.481-7.587 14.417l-.039.068-.065-.039-.805-.436-7.893-4.309-.057-.03.021-.062 8.713-25.657v.03c-1.268-7.097-2.308-12.914-3.029-16.959-.359-2.02-.636-3.596-.826-4.671l-.21-1.223c-.048-.28-.069-.42-.069-.42s.033.143.086.417c.054.273.128.686.229 1.22.196 1.075.487 2.649.858 4.665.734 4.042 1.782 9.856 3.083 16.95v.03c-2.462 7.272-5.432 16.059-8.683 25.668l-.036-.092 7.881 4.306.805.44-.104.029c2.768-4.935 5.345-9.754 7.587-14.405 1.12-2.322 2.079-4.641 2.946-6.883s1.669-4.428 2.295-6.533v.018c0-8.454-.116-15.471-.276-20.374-.083-2.453-.184-4.374-.297-5.678a19.672 19.672 0 0 0-.172-1.485 3.705 3.705 0 0 0-.071-.377 1.107 1.107 0 0 1-.024-.14ZM163.476 43.899a11.819 11.819 0 0 0-1.407-.594 7.023 7.023 0 0 0-6.88 1.41c-.376.345-.73.713-1.061 1.102a1.61 1.61 0 0 1 .226-.347 6.28 6.28 0 0 1 .76-.838 6.862 6.862 0 0 1 6.991-1.43c.356.124.7.282 1.027.471.124.06.239.137.344.226Z"/>
  <g fill="#000" opacity=".3">
    <path d="M167.006 86.734c.047-.125.092-.25.14-.372l-.078.054-.062.318ZM171.697 70.375c-.375-3.813-.868-7.626-1.859-11.326-.841 6.423.807 13.012-.297 19.397-.469 2.723-1.429 5.345-2.403 7.916 2.429-1.588 3.893-4.368 4.472-7.215.58-2.848.375-5.85.087-8.772Z" opacity=".3"/>
  </g>
  <path fill="#000" d="m149.614 72.311-10.313-7.783c.116 2.901 2.322 5.283 4.618 7.065 2.295 1.781 5.413 3.83 7.587 5.755-.704-1.604-1.17-3.433-1.892-5.037Z" opacity=".3"/>
  <path fill="#fff" d="M154.163 58.078c-.05.07-.106.135-.166.196-.113.125-.297.297-.508.538a12.35 12.35 0 0 1-2.079 1.755 6.085 6.085 0 0 1-1.716.778 4.37 4.37 0 0 1-2.162 0 8.074 8.074 0 0 1-2.17-1.004c-.704-.43-1.399-.933-2.168-1.333a5.621 5.621 0 0 0-2.391-.719 3.509 3.509 0 0 0-2.173.71c-.57.43-1.113.897-1.625 1.395-.455.438-.97.809-1.529 1.102a2.806 2.806 0 0 1-1.517.318 2.287 2.287 0 0 1-1.114-.371 1.56 1.56 0 0 1-.514-.535 1.075 1.075 0 0 1-.104-.238s.042.08.131.22c.133.205.311.376.52.502.328.202.702.317 1.087.336a2.753 2.753 0 0 0 1.463-.33 6.656 6.656 0 0 0 1.485-1.099 17.12 17.12 0 0 1 1.628-1.416c.321-.231.671-.418 1.042-.555a3.407 3.407 0 0 1 1.217-.19 5.738 5.738 0 0 1 2.459.733c.784.407 1.485.912 2.177 1.342a7.947 7.947 0 0 0 2.126.992c.351.098.714.145 1.078.14.343.001.685-.038 1.018-.12a6.005 6.005 0 0 0 1.69-.745 13.12 13.12 0 0 0 2.079-1.707l.525-.514c.065-.067.135-.127.211-.18ZM169.228 56.276a.76.76 0 0 1-.125.118 1.756 1.756 0 0 1-.424.247 2.78 2.78 0 0 1-1.782.053c-1.547-.356-2.919-2.245-5.232-2.672a8.247 8.247 0 0 0-1.657-.211 8.744 8.744 0 0 0-1.553.119 8.32 8.32 0 0 0-2.495.837A8.983 8.983 0 0 0 154 56.21a.793.793 0 0 1 .11-.13l.336-.357c.163-.136.356-.314.594-.495l.398-.28c.139-.1.297-.178.469-.276a8.184 8.184 0 0 1 2.521-.89 8.744 8.744 0 0 1 1.58-.131c.569.01 1.135.08 1.689.21a7.784 7.784 0 0 1 1.607.562c.24.136.484.258.707.398.222.14.433.297.638.44.805.593 1.547 1.119 2.275 1.32a2.803 2.803 0 0 0 1.737 0c.201-.078.391-.18.567-.305ZM176.933 52.11c0 .015-.136.077-.356.246a2.873 2.873 0 0 0-.74.891 6.058 6.058 0 0 0-.561 1.645c-.12.716-.31 1.418-.567 2.097a3.562 3.562 0 0 1-1.431 1.63 3.968 3.968 0 0 1-1.684.567c-.398.04-.8.009-1.188-.092a1.743 1.743 0 0 1-.297-.104c-.071-.027-.107-.041-.104-.047.003-.006.152.038.425.092.385.078.78.093 1.17.044a3.995 3.995 0 0 0 1.621-.594 3.484 3.484 0 0 0 1.363-1.57 12 12 0 0 0 .57-2.064 5.895 5.895 0 0 1 .594-1.67 2.69 2.69 0 0 1 .799-.89c.088-.064.183-.117.282-.16.075-.012.104-.027.104-.021ZM142.19 66.815a1.207 1.207 0 0 1-.06.314 2.41 2.41 0 0 1-.104.363 4.612 4.612 0 0 1-.181.466 4.58 4.58 0 0 1-.276.54 5.986 5.986 0 0 1-.374.594 6.493 6.493 0 0 1-2.435 2.025 6.05 6.05 0 0 1-1.232.425 4.054 4.054 0 0 1-.493.086c-.124.02-.249.03-.375.03a1.403 1.403 0 0 1-.32 0c0-.033.457-.036 1.161-.217a6.45 6.45 0 0 0 1.188-.445 7.231 7.231 0 0 0 1.306-.853 7.141 7.141 0 0 0 1.075-1.131c.137-.182.264-.371.38-.567.111-.167.21-.342.297-.523.306-.668.404-1.116.443-1.107Z"/>
  <path fill="#455A64" d="M188.826 91.385c-.16.043-.323.072-.487.086a4.49 4.49 0 0 1-.579.06c-.256.021-.513.03-.77.023a7.97 7.97 0 0 1-.929-.044c-.336-.021-.689-.087-1.063-.143a13.04 13.04 0 0 1-2.352-.7 12.698 12.698 0 0 1-2.156-1.174c-.297-.223-.594-.424-.852-.65a8.282 8.282 0 0 1-.689-.627c-.211-.193-.374-.395-.526-.561a4.47 4.47 0 0 1-.365-.451 3.032 3.032 0 0 1-.297-.404c.121.11.232.233.33.365.12.151.249.295.386.43.154.161.324.357.534.541.222.215.455.418.698.609.25.217.547.416.85.632.675.446 1.39.83 2.135 1.147.75.304 1.526.538 2.319.7.368.063.715.134 1.048.158.306.038.613.06.921.065.297.018.537 0 .763 0 .192 0 .385-.01.576-.033a3.38 3.38 0 0 1 .505-.03ZM165.02 106.371c-.042 0 .594-2.951 1.422-6.574.829-3.623 1.53-6.551 1.571-6.533.042.018-.594 2.954-1.422 6.577-.829 3.623-1.535 6.551-1.571 6.53Z"/>
  <path fill="#C78976" d="M150.843 42.75a3.433 3.433 0 0 0-.297-1.67l-9.013-19.729c-2.099-5.662-7.147-9.163-12.751-6.907l-.508.24a10.801 10.801 0 0 0-5.496 13.59c1.847 4.9 3.952 10.286 5.179 12.804 2.539 5.211 8.166 3.563 8.166 3.563l1.051 2.008s1.099 3.78 5.796 3.251c3.614-.41 6.287-3.916 7.332-5.517.317-.49.503-1.052.541-1.633Z"/>
  <path fill="#925B4C" d="M136.079 44.632a14.05 14.05 0 0 0 5.919-5.253s.166 4.534-5.289 6.533l-.63-1.28Z"/>
  <path fill="#263238" d="M126.156 32.213a.822.822 0 0 0 1.078.416.793.793 0 0 0 .454-1.04.827.827 0 0 0-1.078-.415.796.796 0 0 0-.447.423.775.775 0 0 0-.007.616ZM125.116 30.296c.139.056.508-.633 1.315-1.01.808-.377 1.586-.255 1.628-.395.023-.065-.155-.196-.502-.261a2.271 2.271 0 0 0-1.36.193 2.209 2.209 0 0 0-.989.93c-.158.302-.158.522-.092.543ZM133.54 28.785a.822.822 0 0 0 1.078.415.789.789 0 0 0 .454-1.04.829.829 0 0 0-1.078-.415.795.795 0 0 0-.454 1.04ZM133.107 26.708c.137.054.508-.635 1.313-1.012.805-.378 1.589-.253 1.63-.395.021-.063-.154-.196-.502-.262a2.273 2.273 0 0 0-1.36.196c-.42.196-.766.52-.988.927-.158.309-.161.522-.093.546ZM133.003 34.063c-.018-.047-.559.101-1.42.38-.217.078-.43.128-.531 0a1.16 1.16 0 0 1-.152-.674c-.041-.594-.083-1.205-.13-1.853-.208-2.63-.464-4.751-.568-4.751-.104 0-.023 2.147.185 4.775.055.647.109 1.265.163 1.853-.012.31.085.613.273.858a.57.57 0 0 0 .481.14c.128-.022.253-.061.371-.116.838-.33 1.345-.564 1.328-.612ZM135.637 33.5c-.133.056.276.93-.178 1.904-.454.973-1.431 1.318-1.381 1.443 0 .062.297.07.686-.104a2.4 2.4 0 0 0 1.188-1.153 2.106 2.106 0 0 0 .095-1.57c-.151-.38-.353-.553-.41-.52ZM131.408 23.65c.181.18.939-.298 1.936-.636.998-.339 1.886-.434 1.919-.692 0-.119-.22-.261-.627-.33a3.542 3.542 0 0 0-2.937 1.01c-.282.306-.374.558-.291.647ZM124.311 27.825c.229.115.695-.336 1.357-.66.663-.323 1.292-.46 1.331-.712 0-.12-.164-.262-.49-.318a2.098 2.098 0 0 0-1.253.226 2.079 2.079 0 0 0-.915.89c-.145.288-.134.514-.03.573Z"/>
  <path fill="#263238" d="M122.145 25.622s-.166-3.935 1.054-5.45c1.485-1.831 3.297-.118 4.882-1.484 1.586-1.366 2.997-3.127 5.53-2.595 2.77.579 2.325 2.114 3.563 4.383 4.965 9.187 7.946 11.04 6.337 6.366-.175-.51.992-1.535.223-3.685-1.001-2.788-2.426-6.075-3.914-7.685-1.256-1.36-2.673-2.031-4.888-2.476-3.48-.701-7.035.926-9.321 2.3-2.287 1.376-5.625 6.32-3.466 10.326Z"/>
  <path fill="#C78976" d="M143.098 26.854a1.572 1.572 0 0 1-.003-1.24 1.568 1.568 0 0 1 .894-.86c1.022-.368 2.376-.327 3.267 1.725 1.577 3.638-2.403 4.473-2.453 4.372-.051-.101-1.057-2.471-1.705-3.997Z"/>
  <path fill="#925B4C" d="M144.997 29.137c0-.018.081.018.211.02a.715.715 0 0 0 .478-.195c.321-.297.38-1.06.113-1.723-.125-.316-.32-.6-.57-.83a.792.792 0 0 0-.686-.28.35.35 0 0 0-.297.335c0 .125.051.188.033.202-.018.015-.104-.03-.14-.19a.444.444 0 0 1 .045-.297.51.51 0 0 1 .297-.243.966.966 0 0 1 .908.276c.291.248.517.563.66.918.296.742.216 1.591-.244 1.971a.743.743 0 0 1-.621.158c-.142-.036-.199-.095-.187-.122Z"/>
  <path fill="#263238" d="M139.749 19.94c-.314.538-.65 1.1-1.188 1.42-.537.32-1.33.297-1.686-.21-.161-.23-.235-.547-.49-.663-.297-.14-.633.104-.918.28a2.53 2.53 0 0 1-3.147-.52c-.081.522-.707.798-1.233.73-.525-.068-.983-.374-1.467-.594-.484-.22-1.081-.326-1.523-.035-.247.163-.419.439-.698.54-.49.181-.98-.261-1.271-.695-.291-.433-.594-.953-1.122-1.018-.529-.066-.891.297-1.301.57-.41.273-1.01.43-1.321.06a.94.94 0 0 1-.146-.725 2.564 2.564 0 0 1 2.325-2.174 3.478 3.478 0 0 1 5.494-3.338 3.527 3.527 0 0 1 4.172-2.052 3.527 3.527 0 0 1 1.47.805 2.554 2.554 0 0 1 3.87.697c.248.437.361.937.326 1.438.819.062 1.672.443 2.037 1.188.365.745 0 1.814-.82 1.957a1.414 1.414 0 0 1-.577 2.51 1.415 1.415 0 0 1-1.035-.185"/>
  <path fill="#455A64" d="M124.797 18.094s0 .024.032.065c.033.063.071.124.113.181.165.222.365.414.594.567a2.81 2.81 0 0 0 1.188.473 2.635 2.635 0 0 0 1.666-.273l-.098-.051c.046.377.239.721.537.956.314.247.661.447 1.031.594.189.095.388.17.594.223.224.035.453.015.668-.06a1.443 1.443 0 0 0 .971-.959l-.152.024a2.964 2.964 0 0 0 2.017 1.321 2.16 2.16 0 0 0 1.36-.169c.389-.207.74-.478 1.039-.802h-.116a3.13 3.13 0 0 0 1.372.704 1.652 1.652 0 0 0 1.408-.25 2.177 2.177 0 0 0 .79-2.262l-.063.077c.473.023.939-.12 1.319-.4.284-.207.516-.476.677-.788.101-.197.166-.41.193-.63a.852.852 0 0 0 0-.225 2.292 2.292 0 0 1-.256.823c-.164.296-.395.55-.674.742a1.962 1.962 0 0 1-1.253.356h-.086l.024.084a2.066 2.066 0 0 1-.769 2.108 1.51 1.51 0 0 1-1.286.214 2.97 2.97 0 0 1-1.292-.674l-.059-.054-.057.057c-.286.31-.622.568-.994.766-.391.186-.832.24-1.256.154a2.828 2.828 0 0 1-1.907-1.244l-.101-.157-.05.184a1.289 1.289 0 0 1-.847.843c-.19.068-.394.087-.594.056a2.675 2.675 0 0 1-.558-.207 4.035 4.035 0 0 1-1.001-.559 1.312 1.312 0 0 1-.498-.86v-.099l-.087.048a2.524 2.524 0 0 1-1.585.297 2.818 2.818 0 0 1-1.17-.428 3 3 0 0 1-.784-.766Z"/>
  <path fill="#263238" d="M129.852 31.38a7.314 7.314 0 0 0-.219-.936 3.91 3.91 0 0 0-1.577-2.013 3.862 3.862 0 0 0-1.672-.594 3.896 3.896 0 0 0-2.002.317c-.34.148-.654.349-.932.594a3.605 3.605 0 0 0-.751.87 3.826 3.826 0 0 0 1.193 5.283c.309.204.648.357 1.004.454a3.862 3.862 0 0 0 4.87-3.016c.049-.317.078-.636.086-.957.012.083.019.166.021.25a1.84 1.84 0 0 1 0 .297 2.486 2.486 0 0 1-.044.412 3.94 3.94 0 0 1-2.869 3.157 3.968 3.968 0 0 1-2.099 0 3.683 3.683 0 0 1-1.046-.466 3.766 3.766 0 0 1-.891-.781 3.96 3.96 0 0 1-.338-4.707c.212-.337.476-.638.784-.89.29-.252.616-.459.968-.612a3.987 3.987 0 0 1 2.079-.312 3.933 3.933 0 0 1 1.716.63 3.891 3.891 0 0 1 1.574 2.078c.044.132.078.267.101.404a1.658 1.658 0 0 1 .044.537ZM139.078 26.99a6.81 6.81 0 0 0-.216-.935 3.91 3.91 0 0 0-1.577-2.013 3.84 3.84 0 0 0-3.674-.28c-.694.31-1.28.82-1.683 1.465a3.824 3.824 0 0 0 .323 4.531c.492.58 1.144 1.001 1.874 1.212a3.893 3.893 0 0 0 2.028.026 3.888 3.888 0 0 0 2.842-3.043c.051-.317.079-.636.083-.957.016.083.023.166.021.25.01.099.01.198 0 .297a3.888 3.888 0 0 1-1.303 2.702 3.958 3.958 0 0 1-5.66-.395 3.956 3.956 0 0 1-.339-4.704 3.976 3.976 0 0 1 3.831-1.829 3.944 3.944 0 0 1 3.296 2.717c.044.132.078.267.101.404.023.098.038.197.044.297.011.085.014.17.009.256Z"/>
  <path fill="#263238" d="M131.349 28.398a2.701 2.701 0 0 0-2.179 1.057s.032-.149.175-.342a2.04 2.04 0 0 1 1.627-.79c.232.006.383.057.377.075ZM142.912 25.764c-.672.093-1.35.136-2.028.127-.677.045-1.356.036-2.031-.026a26.716 26.716 0 0 1 4.059-.101Z"/>
  <path fill="#E0E0E0" d="M111.746 104.948h17.948a.892.892 0 0 1 0 1.782h-17.948a.892.892 0 0 1 0-1.782Z"/>
  <path fill="#E0E0E0" d="M114.609 106.739H80.662l-3.353-22.936a1.956 1.956 0 0 1 1.933-2.248l29.808.24c.965 0 1.889.466 2.034 1.423l3.525 23.521Z"/>
  <path fill="#fff" d="M97.275 93.876a1.868 1.868 0 1 1-3.735.005 1.868 1.868 0 0 1 3.735-.005Z"/>
  <path fill="#263238" d="M113.134 106.54c-.041 0-.989-5.526-2.117-12.353-1.128-6.827-2.01-12.374-1.966-12.383.045-.01.989 5.526 2.117 12.356 1.129 6.83 2.008 12.371 1.966 12.38Z"/>
  <path fill="#455A64" d="M200.913 106.74h-200v4.918h200v-4.918Z"/>
  <path fill="#263238" d="m43.282 106.814-.063.054c-.047.033-.112.083-.21.145a4.464 4.464 0 0 1-1.004.455 8.954 8.954 0 0 1-1.933.365c-.896.07-1.795.092-2.694.065-1.003-.017-2.078-.104-3.245-.211-1.167-.106-2.376-.225-3.694-.246-2.622-.053-5.47.333-8.315.891-2.845.558-5.52 1.226-8.071 1.624-1.274.199-2.51.342-3.68.41a27.81 27.81 0 0 1-3.266 0 17.753 17.753 0 0 1-4.484-.796 8.037 8.037 0 0 1-1.387-.594.424.424 0 0 1 .098.033l.265.113c.234.098.594.237 1.072.389 1.448.435 2.944.689 4.454.757 1.072.062 2.147.061 3.219-.003a37.962 37.962 0 0 0 3.64-.419c2.53-.401 5.185-1.054 8.051-1.63 2.866-.576 5.743-.962 8.404-.891 1.33.027 2.568.155 3.72.262 1.153.106 2.23.201 3.22.225.89.034 1.783.019 2.672-.044a9.139 9.139 0 0 0 1.907-.336 5.407 5.407 0 0 0 1.324-.618Z"/>
  <path fill="#263238" d="M21.405 106.889c-.192.11-.39.209-.594.297-.596.253-1.206.473-1.826.659a24.54 24.54 0 0 1-2.97.683 27.83 27.83 0 0 1-3.899.341 25.046 25.046 0 0 1-6.97-.807 4.767 4.767 0 0 1-1.683-.772 1.336 1.336 0 0 1-.273-.297c-.042-.075-.06-.113-.054-.113.117.137.243.265.378.383a5.151 5.151 0 0 0 1.683.719c2.252.555 4.568.809 6.887.757a28.749 28.749 0 0 0 3.842-.327 26.651 26.651 0 0 0 2.97-.647 23.788 23.788 0 0 0 1.85-.618c.214-.1.434-.186.659-.258ZM68.333 110.003s.11.021.297.066c.187.044.511.095.924.136a9.304 9.304 0 0 0 3.498-.297v.063c-1.38-.57-2.85-.892-4.342-.951a13.81 13.81 0 0 0-5.642.826c-.21.086-.415.19-.436.318-.02.127.145.246.374.317.253.076.513.128.775.155l.852.107c1.147.142 2.329.297 3.564.386 1.255.112 2.514.16 3.774.145.644 0 1.295-.044 1.94-.104.323-.032.647-.065.964-.113a8.25 8.25 0 0 0 .936-.172c.43-.089.84-.255 1.211-.49.297-.217.401-.505.232-.757a1.99 1.99 0 0 0-.95-.594 11.077 11.077 0 0 0-1.328-.365 30.804 30.804 0 0 0-5.556-.648 39.69 39.69 0 0 0-9.484.811 32.19 32.19 0 0 0-5.71 1.755c-.61.264-1.079.475-1.379.63l-.353.166-.125.056a.504.504 0 0 1 .107-.065l.339-.178c.297-.163.751-.38 1.354-.653a30.518 30.518 0 0 1 5.698-1.806 39.249 39.249 0 0 1 9.571-.858c1.897.043 3.785.261 5.642.65.465.095.923.22 1.372.374.407.114.772.346 1.048.666.205.297.083.644-.267.89a3.853 3.853 0 0 1-1.307.535 8.694 8.694 0 0 1-.974.178c-.323.048-.653.083-.983.116-.659.059-1.318.098-1.971.104a37.16 37.16 0 0 1-3.819-.149 83.162 83.162 0 0 1-3.563-.392l-.853-.112a4.344 4.344 0 0 1-.837-.167 1.127 1.127 0 0 1-.35-.175.276.276 0 0 1-.128-.264c.041-.196.297-.315.528-.404 1.85-.678 3.822-.96 5.788-.829a12.67 12.67 0 0 1 4.407.995l.08.036-.09.027a9.353 9.353 0 0 1-3.577.279 6.26 6.26 0 0 1-1.25-.244ZM94.085 106.942c.084.066.151.15.196.247.13.223.177.485.133.739-.065.633-.757 1.464-1.948 2.144-.577.348-1.186.64-1.82.87-.571.206-1.158.365-1.755.478-.525.101-.968.152-1.27.182-.16.019-.321.026-.482.02 0-.023.671-.077 1.693-.297.574-.126 1.139-.292 1.69-.498a10.711 10.711 0 0 0 1.763-.859c1.167-.665 1.847-1.455 1.954-2.061a1.575 1.575 0 0 0-.154-.965ZM129.985 111.399c-.024 0-.282-.208-.921-.502a9.35 9.35 0 0 0-3.126-.792 12.17 12.17 0 0 0-2.376.038c-.925.121-1.859.17-2.791.146a8.016 8.016 0 0 1-2.78-.766 12.48 12.48 0 0 0-2.791-.933 17.864 17.864 0 0 0-6.201-.053 20.72 20.72 0 0 0-4.587 1.306 26.08 26.08 0 0 0-2.673 1.277l-.68.377a1.7 1.7 0 0 1-.244.125 1.14 1.14 0 0 1 .208-.145 22.36 22.36 0 0 1 3.273-1.714 20.498 20.498 0 0 1 4.635-1.351c2.102-.356 4.25-.34 6.346.048.987.203 1.946.523 2.857.953a7.653 7.653 0 0 0 2.657.748c.913.025 1.826-.018 2.732-.131a12.553 12.553 0 0 1 2.444-.023 9.106 9.106 0 0 1 3.157.849c.312.138.602.321.861.543ZM162.05 106.787a1.618 1.618 0 0 1-.219.169c-.155.104-.36.271-.683.458a19.531 19.531 0 0 1-2.919 1.458 31.97 31.97 0 0 1-5.052 1.577 36.007 36.007 0 0 1-3.266.594 29.369 29.369 0 0 1-3.653.264 30.714 30.714 0 0 1-6.933-.811 31.364 31.364 0 0 1-5.049-1.606 20.125 20.125 0 0 1-2.901-1.485c-.32-.187-.528-.351-.683-.457a1.545 1.545 0 0 1-.219-.167c.089.043.176.093.258.149.166.101.386.258.716.439a22.19 22.19 0 0 0 2.933 1.429 31.931 31.931 0 0 0 5.019 1.567c2.246.52 4.543.785 6.848.79a29.151 29.151 0 0 0 3.602-.258 33.769 33.769 0 0 0 3.236-.57 33.23 33.23 0 0 0 5.049-1.541 21.617 21.617 0 0 0 2.951-1.417c.333-.178.547-.338.716-.436a2.22 2.22 0 0 1 .249-.146Z"/>
  <path fill="#263238" d="M157.468 106.74s-.053.033-.169.077c-.116.045-.297.119-.52.199-.454.166-1.131.392-2.001.636a31.19 31.19 0 0 1-3.166.724 23.749 23.749 0 0 1-4.13.398c-2.48-.02-4.946-.37-7.332-1.042a20.998 20.998 0 0 1-1.987-.657c-.225-.083-.389-.157-.505-.207a.653.653 0 0 1-.163-.081s.261.087.722.244a29.237 29.237 0 0 0 9.265 1.603 23.963 23.963 0 0 0 4.062-.38 34.34 34.34 0 0 0 3.157-.689 39.181 39.181 0 0 0 2.031-.594c.469-.151.727-.24.736-.231ZM192.448 107.245h-.398l-1.129-.024-.81-.02h-3.347l-1.372.023-1.485.057c-1.027.029-2.102.107-3.242.169-2.26.16-4.71.389-7.202.701a106.44 106.44 0 0 0-6.746 1.084c-.971.205-1.925.386-2.744.594l-1.209.282-1.069.282c-.695.175-1.268.353-1.781.505l-.719.213-.567.19-.799.262a2.191 2.191 0 0 1-.297.086c.075-.044.155-.079.238-.104l.742-.279.543-.202.698-.22c.502-.16 1.066-.344 1.755-.525l1.06-.297 1.206-.297c.817-.208 1.782-.395 2.744-.594 2.004-.389 4.291-.775 6.797-1.102 2.506-.327 4.992-.543 7.278-.698 1.155-.059 2.242-.133 3.267-.157l1.484-.051 1.387-.014c.891-.018 1.681 0 2.376 0h.977l.813.032 1.126.051c.143.008.284.026.425.053ZM133.579 111.301a7.613 7.613 0 0 0-1.102-.737 13.62 13.62 0 0 0-4.03-1.265 34.729 34.729 0 0 0-3.144-.392c-1.147-.095-2.376-.181-3.68-.297-1.303-.115-2.631-.326-3.991-.561-1.36-.235-2.761-.49-4.246-.591a30.72 30.72 0 0 0-8.315.645c-1.223.252-2.34.555-3.376.852-1.036.297-1.98.594-2.842.867a180.878 180.878 0 0 0-4.038 1.336l-1.084.374-.297.095-.101.03a.446.446 0 0 1 .086-.042l.27-.106 1.063-.395a134.769 134.769 0 0 1 6.839-2.269 38.717 38.717 0 0 1 3.391-.87 30.642 30.642 0 0 1 8.407-.662 43.27 43.27 0 0 1 4.3.594c1.36.237 2.672.445 3.964.567 1.292.121 2.518.214 3.67.32 1.153.107 2.219.238 3.166.41 1.415.218 2.785.666 4.056 1.325.388.194.737.455 1.034.772ZM88.532 106.814a.643.643 0 0 1-.03.315c-.08.298-.212.578-.391.829-.46.671-1.408 1.58-3.074 2.212-1.485.513-3.008.91-4.555 1.188-.612.113-1.108.196-1.455.246-.18.034-.363.055-.547.063.17-.05.343-.088.517-.116l1.425-.297c1.518-.3 3.014-.702 4.478-1.203a6.778 6.778 0 0 0 3.05-2.132c.242-.341.437-.712.582-1.105ZM42.1 111.658a3.6 3.6 0 0 1 .487-.262c.324-.166.808-.389 1.425-.656a51.53 51.53 0 0 1 5.1-1.847 114.86 114.86 0 0 1 5.43-1.52c.704-.181 1.277-.327 1.675-.422.207-.059.417-.104.63-.137a4.409 4.409 0 0 1-.594.185l-1.642.463c-1.39.386-3.314.911-5.387 1.55a63.664 63.664 0 0 0-5.113 1.805c-.627.256-1.129.47-1.467.621-.176.087-.357.16-.544.22ZM51.522 107.016c0 .015-.46-.035-1.288 0-1.131.063-2.25.255-3.338.57a38.252 38.252 0 0 0-4.333 1.637c-.853.36-1.724.677-2.61.95a22.666 22.666 0 0 1-3.124.677 51.102 51.102 0 0 1-6.387.431c-1.978.032-3.754 0-5.241.044-1.488.045-2.673.113-3.507.193-.41.042-.728.077-.942.107a2.6 2.6 0 0 1-.33.033s.107-.024.318-.06c.211-.035.526-.083.936-.133a39.934 39.934 0 0 1 3.516-.238c1.493-.041 3.266-.036 5.24-.074a51.704 51.704 0 0 0 6.34-.437 23.196 23.196 0 0 0 3.074-.662c.939-.282 1.782-.612 2.59-.935a36.451 36.451 0 0 1 4.389-1.619 14.578 14.578 0 0 1 3.403-.534c.418 0 .745 0 .965.018.11.003.22.014.33.032Z"/>
</svg>
