<svg xmlns="http://www.w3.org/2000/svg" xmlns:xlink="http://www.w3.org/1999/xlink" fill="none" viewBox="0 0 151 151">
  <defs>
    <path id="reuse-0" fill="#FAFAFA" d="m115.897 114.359-41.556 25.325a.832.832 0 0 1-.796 0l-34.078-20.752a.252.252 0 0 1-.118-.094.269.269 0 0 1 0-.298.246.246 0 0 1 .118-.094L81.02 93.122a.846.846 0 0 1 .797 0l34.08 20.752c.048.017.089.05.119.093a.272.272 0 0 1 0 .298.243.243 0 0 1-.119.094Z"/>
    <path id="reuse-1" fill="#FFA8A7" d="M71.585 71.213 66.42 81.589a.343.343 0 0 1-.146.158.317.317 0 0 1-.392-.066.36.36 0 0 1-.092-.198l-1.893-11.607 7.688 1.337Z"/>
  </defs>
  <path fill="#F5F5F5" d="M22.36 138.132c29.288 16.148 76.773 16.148 106.064 0 29.292-16.147 29.285-42.327 0-58.478-29.284-16.151-76.776-16.144-106.068 0-29.291 16.144-29.285 42.331.004 58.478Z"/>
  <path fill="#E0E0E0" d="M131.763 113.848c7.434 0 13.461-3.031 13.461-6.771 0-3.739-6.027-6.77-13.461-6.77s-13.461 3.031-13.461 6.77c0 3.74 6.027 6.771 13.461 6.771ZM23.479 121.301c7.434 0 13.461-3.031 13.461-6.77 0-3.74-6.027-6.771-13.461-6.771s-13.46 3.031-13.46 6.771c0 3.739 6.026 6.77 13.46 6.77Z"/>
  <path fill="#EBEBEB" d="m73.547 141.206-34.08-20.752a.907.907 0 0 1-.282-.313.975.975 0 0 1-.118-.415v-.545a.966.966 0 0 1 .118-.414.91.91 0 0 1 .282-.314L81.02 93.128a.845.845 0 0 1 .796 0l34.081 20.753a.905.905 0 0 1 .281.314.972.972 0 0 1 .115.414v.548a.972.972 0 0 1-.115.414.914.914 0 0 1-.281.314l-41.553 25.321a.845.845 0 0 1-.796 0Z"/>
  <use xlink:href="#reuse-0"/>
  <use xlink:href="#reuse-0"/>
  <path fill="#E0E0E0" d="M73.944 139.922v1.376a.781.781 0 0 1-.397-.102l-34.08-20.752a.91.91 0 0 1-.283-.314.957.957 0 0 1-.117-.414v-.546a.983.983 0 0 1 .099-.374.929.929 0 0 1 .234-.301c-.143.134-.12.317.074.433l34.08 20.752a.492.492 0 0 0 .103.046l.287.196Z"/>
  <path fill="#455A64" d="M53.395 116.815a.181.181 0 0 1 0 .053l-.037.052-.19.081-4.433.239a.47.47 0 0 0-.333.24c-.07.126-.033.228.083.235l4.18.225.096.081a.166.166 0 0 1-.02.053.237.237 0 0 1-.19.12l-4.216-.229c-.236 0-.313-.225-.173-.485.076-.132.179-.245.3-.329a.935.935 0 0 1 .407-.16l4.469-.243c.036 0 .056.025.056.067ZM92.447 113.979a.15.15 0 0 1-.027.077.246.246 0 0 1-.193.11s-1.107-.138-3.13-.321c-.06 0-.076-.066-.033-.137a.242.242 0 0 1 .19-.112c2.026.183 3.126.32 3.136.32.016.001.03.008.04.02.011.011.017.027.017.043ZM88.769 120.722a.082.082 0 0 1 0 .046.25.25 0 0 1-.18.141s-1.263.141-3.49.331c-.07 0-.1-.046-.066-.113a.254.254 0 0 1 .076-.092.238.238 0 0 1 .107-.045c2.223-.19 3.47-.331 3.483-.331.013 0 .07.021.07.063Z"/>
  <path fill="#455A64" d="M84.056 113.255c0 .025-.008.05-.02.071a.251.251 0 0 1-.193.116c-1.85-.12-3.786-.222-5.756-.31-8.982-.383-11.971-.035-14.697.426-2.96.499-10.489 3.391-11.132 3.915.073.52 4.456 3.397 6.872 3.886 2.23.454 4.843.795 14.261.38 2.06-.091 4.113-.2 6.106-.327.066 0 .093.049.06.116a.253.253 0 0 1-.183.134c-2 .126-4.05.235-6.11.327-9.444.418-12.067.074-14.31-.38-2.167-.443-7.296-3.493-6.946-4.136.35-.644 8.822-3.715 11.475-4.165 2.743-.461 5.746-.812 14.75-.425a269.405 269.405 0 0 1 5.787.312.045.045 0 0 1 .02.013.058.058 0 0 1 .016.047Z"/>
  <path fill="#455A64" d="M67.208 115.358c-.223-.545-.756-.847-1.493-.847a4.627 4.627 0 0 0-2.446.865 6.595 6.595 0 0 0-1.127.953 5.725 5.725 0 0 0-.826 1.126 2.907 2.907 0 0 0-.413 1.709c.103.774.703 1.235 1.6 1.231a4.607 4.607 0 0 0 2.446-.865 6.172 6.172 0 0 0 1.953-2.079c.25-.425.396-.908.426-1.407a1.734 1.734 0 0 0-.12-.686Zm-.546 2.093a5.615 5.615 0 0 1-1.787 1.903 4.242 4.242 0 0 1-2.233.791c-.826 0-1.373-.422-1.463-1.125-.014-.09-.02-.18-.016-.271.029-.459.164-.903.393-1.294a5.672 5.672 0 0 1 1.783-1.903 4.223 4.223 0 0 1 2.236-.788c.667 0 1.163.274 1.37.774.207.499.113 1.185-.283 1.913Z"/>
  <path fill="#BB2C75" d="M66.946 115.531c-.207-.5-.69-.774-1.37-.774-.8.042-1.573.314-2.236.788a5.672 5.672 0 0 0-1.783 1.903c-.23.391-.364.835-.393 1.294-.003.091.002.181.016.271.09.703.637 1.125 1.463 1.125a4.241 4.241 0 0 0 2.233-.791 5.614 5.614 0 0 0 1.787-1.903c.396-.721.493-1.4.283-1.913Zm-.887 1.92c-.623 1.136-2 2.065-3.082 2.065-1.07 0-1.44-.929-.824-2.061.617-1.133 2-2.062 3.08-2.065.74 0 1.146.436 1.13 1.055a2.268 2.268 0 0 1-.304 1.006Z"/>
  <path fill="#455A64" d="M59.213 114.532a.117.117 0 0 0-.045-.01.117.117 0 0 0-.045.01c-2.113.703-6.842 2.427-7.125 2.944-.283.517 2.57 2.226 3.916 2.926a.134.134 0 0 0 .096 0 .29.29 0 0 0 .104-.074c1.646-1.906 2.7-3.83 3.123-5.715v-.021a.055.055 0 0 0-.024-.06Z"/>
  <path fill="#BB2C75" d="M58.936 114.827c-.42 1.759-1.393 3.517-2.9 5.304-2.042-1.073-3.745-2.318-3.789-2.645.4-.341 3.48-1.604 6.689-2.659Z"/>
  <path fill="#455A64" d="M92.487 114.317a4.553 4.553 0 0 1-.37 1.491.26.26 0 0 1-.073.095.24.24 0 0 1-.107.049c-.07 0-.106-.035-.08-.102.44-1.118.36-1.579.334-1.688a81.536 81.536 0 0 0-2.13-.225 7.395 7.395 0 0 1-.727 2.276.25.25 0 0 1-.183.137c-.07 0-.096-.046-.066-.113.58-1.263.703-2.001.713-2.385a.206.206 0 0 1 .076-.13.205.205 0 0 1 .14-.056c1.54.144 2.37.25 2.38.25.01.001.02.004.028.009a.074.074 0 0 1 .022.022.861.861 0 0 1 .043.37ZM90.389 118.946a.178.178 0 0 1-.033.08c-.974 1.407-1.667 1.833-1.7 1.851a.209.209 0 0 1-.083.031s-.954.109-2.667.26c-.046 0-.076 0-.08-.059a.176.176 0 0 1 .067-.127 11.967 11.967 0 0 0 1.883-2.378.244.244 0 0 1 .083-.083.229.229 0 0 1 .11-.033c.06 0 .077.067.034.137a13.342 13.342 0 0 1-1.753 2.273c1.353-.123 2.18-.215 2.376-.236a7.066 7.066 0 0 0 1.506-1.678.232.232 0 0 1 .194-.102.054.054 0 0 1 .025.001.052.052 0 0 1 .022.014.05.05 0 0 1 .014.022.06.06 0 0 1 .002.027ZM94.627 123.838l-8.502.605-.847-3.412a.053.053 0 0 0-.016-.026.048.048 0 0 0-.027-.012c-1.62-.465-3.57-.32-5.792.425a.298.298 0 0 0-.124.088.138.138 0 0 0-.03.116l1.94 5.389a.061.061 0 0 0 .024.03c.01.007.023.01.036.008l3.333.06h.043l9.882-3.018a.258.258 0 0 0 .157-.144.186.186 0 0 0 0-.035c.016-.049-.027-.077-.077-.074Zm-9.905 3.018-3.253-.056-1.876-5.216c2.066-.662 3.885-.781 5.409-.352l.85 3.426c0 .028.036.045.076.042l7.635-.542-8.841 2.698Z"/>
  <path fill="#BB2C75" d="m93.577 124.155-8.855 2.702-3.253-.057-1.876-5.216c2.066-.661 3.886-.781 5.409-.351l.85 3.425c0 .029.036.046.076.043l7.649-.546Z"/>
  <path fill="#455A64" d="m101.836 110.716-6.602-2.993h-.036l-3.397.07a.188.188 0 0 0-.103.039l-7.828 5.402a.25.25 0 0 0-.094.116.076.076 0 0 0-.004.052.07.07 0 0 0 .03.04c1.414.738 3.207.876 5.333.408a.285.285 0 0 0 .087-.042l4.572-3.419 7.862.57a.237.237 0 0 0 .18-.102.148.148 0 0 0 .034-.085.066.066 0 0 0-.008-.034.051.051 0 0 0-.026-.022Zm-7.945-.588a.189.189 0 0 0-.123.046l-4.596 3.433c-2 .429-3.666.317-5.026-.352l7.575-5.219 3.333-.067 5.906 2.677-7.069-.518Z"/>
  <path fill="#BB2C75" d="m100.949 110.645-7.06-.517a.189.189 0 0 0-.123.046l-4.595 3.433c-2 .429-3.666.317-5.026-.352l7.575-5.219 3.333-.067 5.896 2.676Z"/>
  <path fill="#455A64" d="m101.515 117.24-8.285-1.71h-.037l-12.347 1.759a.267.267 0 0 0-.17.123c-.037.063-.02.116.033.127l10.435 1.758h.04l10.198-1.808a.233.233 0 0 0 .096-.044.267.267 0 0 0 .071-.082.157.157 0 0 0 .016-.06.059.059 0 0 0-.013-.042.05.05 0 0 0-.037-.021Zm-10.218 1.808-9.665-1.629 11.451-1.621 7.686 1.575-9.472 1.675Z"/>
  <path fill="#BB2C75" d="m100.756 117.37-9.458 1.674-9.679-1.629 11.452-1.621 7.685 1.576Z"/>
  <path fill="#455A64" d="m90.794 125.002-.956.296-.967.299-1.08.331a2.654 2.654 0 0 0-1.052.631c-.3.292-.535.652-.684 1.053-.187.704.267 1.115 1.036.943l1.02-.229h.03l.943-.211.927-.207c.503-.134.893-.964 1.073-1.632.066-.236.105-.479.117-.725.016-.376-.09-.633-.407-.549Zm.027 1.337c-.177.668-.51 1.259-.733 1.319l-.667.148-.317.07-.666.148-.303.07-.984.218c-.54.12-.89-.116-.88-.548a.977.977 0 0 1 .037-.226c.122-.327.313-.621.558-.858a2.16 2.16 0 0 1 .859-.513l1-.313.31-.095.666-.208.333-.102.667-.207c.256-.057.3.436.12 1.097Z"/>
  <path fill="#455A64" d="M90.054 125.449a.278.278 0 0 0-.15-.155.13.13 0 0 0-.073 0l-.967.299a.261.261 0 0 0-.14.109c-.033.049-.033.099 0 .12.01.007.017.017.023.028.114.144.1.552-.033 1.055a3.084 3.084 0 0 1-.567 1.193l-.043.045a.188.188 0 0 0-.067.137c.004.016.014.03.027.039a.063.063 0 0 0 .044.011h.03l.943-.211a.21.21 0 0 0 .073-.039c.099-.074.186-.163.26-.264.265-.372.458-.795.57-1.245a3.01 3.01 0 0 0 .117-.721.958.958 0 0 0-.047-.401Zm-.334 1.182a2.903 2.903 0 0 1-.62 1.245l-.666.148c.242-.362.421-.765.53-1.193.114-.344.14-.714.077-1.073l.666-.207c.164.098.164.531.014 1.08Z"/>
  <path fill="#BB2C75" d="M89.72 126.632a2.904 2.904 0 0 1-.619 1.245l-.667.147c.242-.361.422-.765.53-1.192.115-.344.141-.714.077-1.073l.666-.207c.164.098.164.531.014 1.08Z"/>
  <path fill="#455A64" d="m101.469 106.903-.707-.204-.71-.208-.796-.232c-.58-.169-1.49.25-2.067.95-.576.7-.623 1.438-.1 1.681l.717.327.643.296.637.291c.116.043.35 0 .796-.351.32-.277.617-.583.887-.915.258-.305.487-.638.683-.992a1.11 1.11 0 0 0 .143-.436.193.193 0 0 0-.026-.129.176.176 0 0 0-.1-.078Zm-.264.65c-.18.327-.391.633-.63.915a6.684 6.684 0 0 1-.816.841c-.227.189-.4.281-.473.256l-.447-.204-.22-.102-.447-.204-.203-.095-.666-.309c-.427-.197-.394-.799.08-1.372.473-.573 1.213-.914 1.69-.774l.75.218.223.064.503.144.24.07.496.144c.064.029.037.176-.08.408Z"/>
  <path fill="#455A64" d="M100.804 106.737a.061.061 0 0 0-.015-.026.06.06 0 0 0-.025-.013l-.71-.207a.209.209 0 0 0-.147.046.235.235 0 0 0-.083.137v.045a3.745 3.745 0 0 1-.736 1.186c-.316.411-.69.767-1.11 1.055l-.057.028a.26.26 0 0 0-.13.12c-.023.049-.017.091.02.109l.643.295c.024.009.05.009.074 0 .117-.034.23-.086.333-.155a6.135 6.135 0 0 0 1.15-1.115 4.61 4.61 0 0 0 .79-1.245.674.674 0 0 0 .033-.179.233.233 0 0 0-.03-.081Zm-1 1.439a4.235 4.235 0 0 1-1.18 1.083l-.446-.204c.403-.312.77-.674 1.093-1.076.31-.356.57-.758.77-1.193l.503.144c.01.187-.3.704-.743 1.246h.003Z"/>
  <path fill="#BB2C75" d="M100.539 106.93c0 .187-.297.704-.74 1.245a4.222 4.222 0 0 1-1.18 1.084l-.447-.204a6.55 6.55 0 0 0 1.094-1.077c.31-.355.57-.757.769-1.192l.504.144Z"/>
  <path fill="#455A64" d="M65.232 115.39c-1.076 0-2.46.928-3.08 2.064-.62 1.136-.246 2.061.824 2.061 1.08 0 2.46-.928 3.083-2.064.172-.3.274-.639.296-.989.037-.636-.383-1.072-1.123-1.072Zm.593 2.061c-.546.999-1.756 1.811-2.706 1.811s-1.273-.809-.726-1.808c.546-.999 1.756-1.808 2.703-1.811.946-.004 1.273.809.73 1.808Z"/>
  <path fill="#9A4A4D" d="M125.008 49.404c-1.389 1.952-4.195 5.452-5.589 7.299a5.569 5.569 0 0 0-1.129 3.408c0 .918.25 1.685 1.099 1.294.617-.285 1-.619 1.907-1.554.806-.84 5.472-7.066 5.472-7.066s.383-3.49 1.59-3.87c1.206-.38-.433-1.434-.433-1.434-.51.06-1.513-.046-2.917 1.923Z"/>
  <path fill="#FFA8A7" d="m107.94 96.083-8.712 10.495a.402.402 0 0 1-.212.132.38.38 0 0 1-.244-.022.41.41 0 0 1-.187-.168.444.444 0 0 1-.06-.251l.866-14.002 8.549 3.816Z"/>
  <path fill="#263238" d="M98.525 106.268a.444.444 0 0 0 .06.251.41.41 0 0 0 .187.168.395.395 0 0 0 .456-.109l1.7-2.051a2.118 2.118 0 0 1-1.188-.216 2.273 2.273 0 0 1-.905-.839l-.127-.201-.183 2.997Z"/>
  <path fill="#BB2C75" d="m120.717 37.871-.467 1.196-.569 1.438-20.293 51.758c.535 1.47 1.578 2.67 2.919 3.362 2 1.126 4.396 1.33 5.622.454l20.12-51.377 1.08-2.754c-.78 1.74-9.195-2.318-8.412-4.077Z"/>
  <path fill="#EBEBEB" d="m118.914 42.408-1.04 2.67c-.333.763 1.04 1.938 2.776 2.891 2.3 1.277 5.246 2.163 5.666 1.154l.77-1.966.263-.704c-.433 1.01-3.379.127-5.682-1.15-1.667-.918-3-2.044-2.793-2.814a.175.175 0 0 1 .04-.08Z"/>
  <path fill="#BB2C75" d="M118.662 43.073c-.76 1.759 7.689 5.814 8.449 4.045l1.049-2.67c-.759 1.76-9.208-2.272-8.448-4.04l-1.05 2.665Z"/>
  <path fill="#EBEBEB" d="m120.716 37.871-1.036 2.634c-.767 1.731 7.369 5.734 8.369 4.197a.482.482 0 0 0 .053-.095l1.026-2.66c-.78 1.742-9.195-2.317-8.412-4.076Z"/>
  <path fill="#000" d="m128.049 44.702 1.079-2.754c-.36.788-2.273.387-4.192-.447l-21.013 54.813-4.696 10.264 8.712-10.496 20.11-51.38Z" opacity=".1"/>
  <path fill="#FFA8A7" d="m125.097 26.7-4.379 11.171c-.334.753.999 1.924 2.732 2.88 2.297 1.285 5.25 2.196 5.703 1.197l4.229-10.756c1.18-2.42-2.889-5.466-5.812-5.628-1.107-.077-2.033.232-2.473 1.136Z"/>
  <path fill="#F28F8F" d="m129.142 30.387-4.193 11.11c1.71.743 3.407 1.14 4 .662.043-.037.083-.079.12-.123.02-.032.043-.056.06-.088l4.349-11.076c-.54 1.33-4.336-.485-4.336-.485Z"/>
  <path fill="#B16668" d="m142.276 104.01-2.403.757-1.04-3.697 2.457-.886.986 3.826Z"/>
  <path fill="#263238" d="m139.521 103.514-.103-.351c-.2.176-.26 2.42-.823 3.714-.614 1.407-1.264 2.42-1.537 3.056-.366.852 1.06 1.302 2.636.482.78-.408 2.033-1.47 2.233-2.152.2-.683.13-1.565.304-2.075.173-.51.713-1.179.736-1.71a3.348 3.348 0 0 0-.513-1.291c-.237-.411-.497-.868-.63-.781 0 .057.077.278.077.278a2.53 2.53 0 0 1-1 1.034c-.377.204-1.253.236-1.38-.204Z"/>
  <path fill="#37474F" d="M136.321 61.856c1.449 1.963 1.709 3.989 1.393 9.725-.317 5.737-.413 10.552-.333 10.858.08.306 1.786 2.628 2.332 4.727.547 2.1 2.043 13.996 2.043 13.996a3.376 3.376 0 0 1-1.219.995 3.205 3.205 0 0 1-1.513.313s-6.049-17.382-6.456-18.677c-.407-1.294-2.999-14.885-2.999-14.885l.393-7.675 6.359.623Z"/>
  <path fill="#263238" d="M130.016 44.955h2a4.624 4.624 0 0 0 3.355-1.465 5.152 5.152 0 0 0 1.391-3.54c0-1.609-.606-3.152-1.684-4.29-1.078-1.138-2.54-1.777-4.065-1.777-1.525 0-2.987.639-4.065 1.777-1.079 1.138-1.684 2.681-1.684 4.29 0 .658.123 1.31.362 1.918.239.608.589 1.16 1.03 1.625.442.465.966.833 1.542 1.084.577.251 1.195.38 1.818.378Z"/>
  <path fill="#B16668" d="m127 99.157-2.506-.035-.049 3.855 2.506.035.049-3.855Z"/>
  <path fill="#37474F" d="M125.249 68.454c.224-2.648.76-7.238.76-7.238l6.419-.398c1.04 1.71.587 4.573.303 7.126l-3.666 15.167c.074.728.707 2.269 0 6.173-.789 4.361-1.963 10.611-1.963 10.611s-1.829.971-2.732-.087c0 0-.484-14.175-.144-17.939.364-4.094.873-11.6 1.023-13.415Z"/>
  <path fill="#263238" d="M124.47 101.661v-.38c-.24.106-.933 2.23-1.833 3.289-.983 1.157-1.89 1.913-2.333 2.434-.587.703.647 1.576 2.38 1.287.863-.14 2.359-.767 2.739-1.35.38-.584.567-1.457.877-1.886.31-.429.999-.904 1.183-1.407a3.382 3.382 0 0 0-.127-1.407c-.11-.467-.23-.984-.38-.942v.288a2.44 2.44 0 0 1-1.253.672c-.407.088-1.256-.137-1.253-.598Z"/>
  <path fill="#F0F0F0" d="M126.774 55.908c-.16 1.548-1.107 8.27-1.107 8.27 4.84 2.722 10.842.918 11.758-.204-.83-2.892-1.726-4.538-2.409-5.305l1.033-4.248s-2.333-2.624-.257-6.757l-2.566-.222-3.766-.116c-.9.053-1.543.144-1.543.144a25.425 25.425 0 0 0-1.763 3.782c-.373 1.026-.77 2.528.62 4.656Z"/>
  <path fill="#B16668" d="M127.322 36.524c-.606.38-1.356 1.991-1.283 5.371.063 2.863.943 3.57 1.383 3.774.44.204 1.293.081 2.123-.066v1.72s-1.146 1.406-1.073 2.19c.073.785 1.666.975 2.723.205a8.974 8.974 0 0 0 1.973-2.272l-.02-3.95s.49.5 1.316-.264c.667-.63.91-1.688.38-2.258a1.172 1.172 0 0 0-.486-.29 1.13 1.13 0 0 0-.557-.023 1.162 1.162 0 0 0-.506.247 1.244 1.244 0 0 0-.344.463s-1.333.05-3.076-.97a5.048 5.048 0 0 1-1.716-1.616 5.385 5.385 0 0 1-.837-2.26Z"/>
  <path fill="#263238" d="M129.069 41.174a.374.374 0 0 0 .084.274.32.32 0 0 0 .25.116.336.336 0 0 0 .199-.051.367.367 0 0 0 .139-.16.393.393 0 0 0-.056-.41.351.351 0 0 0-.176-.112.335.335 0 0 0-.205.01.351.351 0 0 0-.165.129.39.39 0 0 0-.07.204Z"/>
  <path fill="#9A4A4D" d="m128.98 43.602-.794.267c.015.056.04.108.074.154a.404.404 0 0 0 .443.148.45.45 0 0 0 .245-.227.489.489 0 0 0 .032-.342Z"/>
  <path fill="#263238" d="m126.274 40.07.69-.507a.418.418 0 0 0-.262-.191.38.38 0 0 0-.312.068.484.484 0 0 0-.116.63ZM126.429 40.913a.36.36 0 0 0 .055.193.336.336 0 0 0 .145.129.318.318 0 0 0 .36-.065.363.363 0 0 0-.023-.536.323.323 0 0 0-.177-.072.339.339 0 0 0-.248.098.374.374 0 0 0-.112.253Z"/>
  <path fill="#9A4A4D" d="m128.039 40.71-.053 2.167-1.08-.352 1.133-1.815ZM129.545 45.602c.873-.12 2.666-.664 2.946-1.407-.112.38-.332.714-.63.957-.537.485-2.316 1.03-2.316 1.03v-.58Z"/>
  <path fill="#263238" d="m136.716 40.893 1.223-.946a.76.76 0 0 0-.209-.22.716.716 0 0 0-.569-.109.724.724 0 0 0-.269.128.877.877 0 0 0-.176 1.147ZM130.715 74.89l-1.05-5.567a11.093 11.093 0 0 1-2.62-1.407 8.146 8.146 0 0 0 1.833 1.783l1.837 5.192Z"/>
  <path fill="#263238" d="M136.049 44.98c-1.113-.594-.96-1.706-.397-2.884.564-1.178 1.317-1.97 2.433-1.379.516.297.903.794 1.078 1.386a2.512 2.512 0 0 1-.14 1.786 2.308 2.308 0 0 1-1.278 1.181 2.154 2.154 0 0 1-1.696-.09Z"/>
  <path fill="#B16668" d="M118.089 62.573c.56.155 1.104.105 1.877.387a3.3 3.3 0 0 0 1.633.292c.726-.05 2.623-.996 4.306-2.076a19.672 19.672 0 0 0 4.809-4.702c1.523-2.276 3.209-5.867 4.016-7.239.806-1.371 1.083-1.572 1.083-1.572 1.053.046 2.1 1.055 1.4 3.778-.58 2.244-2.137 5.152-4.053 7.6a20.824 20.824 0 0 1-5.116 4.573c-1.779 1.147-3.332 1.717-5.332 2.416-.54.19-.893.472-1.88.964a4.48 4.48 0 0 1-1.266.489 5.539 5.539 0 0 1-1.667 0 3.835 3.835 0 0 1-1.919-.869 2.613 2.613 0 0 1-.71-.953 1.85 1.85 0 0 1-.087-1.2.492.492 0 0 1 .114-.214.52.52 0 0 1 .403-.098c.807.084 1.618.126 2.429.123.667-.05 1.13-.183 1.034-.282-.097-.098-.484-.042-1.017-.285-.533-.242-.883-.777-.736-1.055.146-.278.12-.232.679-.077ZM114.412 53.931a4.182 4.182 0 0 1 2.452-.323c.667.116.667 2.462-1.476 3.21-1.396.483-2.236.268-2.686 1.482 0 0-.907-.127-.7-1.481a7.744 7.744 0 0 1 1.716-3.76c.614-.767.667-1.407.957-1.196.29.211.183.96.183.96l-.446 1.108Z"/>
  <path fill="#F28F8F" d="M27.889 55.645c1.486 1.874 4.196 5.452 5.589 7.298a5.542 5.542 0 0 1 1.13 3.408c0 .918-.247 1.685-1.1 1.295-.614-.285-1-.62-1.903-1.555-.807-.84-3.666-4.467-3.666-4.467s-2.193-6.088-3.4-6.475a5.32 5.32 0 0 0-2.043-.289c1.457-.53 3.506-1.586 5.393.785Z"/>
  <path fill="#E0E0E0" d="M21.776 53.643c1.49-1.181 4-.875 5.406.904a664.41 664.41 0 0 1 3.452 4.488 5.461 5.461 0 0 1-1.267 1.831 5.12 5.12 0 0 1-1.862 1.131l-5.729-8.354Z"/>
  <path fill="#BB2C75" d="M50.289 95.64S46.103 79.625 40.2 64.53c-5.856-14.953-14.884-30.123-16.394-32.413l-.02-.028-.023-.035a1.146 1.146 0 0 0-.574-.426 1.086 1.086 0 0 0-.702.007 1.15 1.15 0 0 0-.565.439 1.252 1.252 0 0 0-.186.979s4 20.71 9.775 35.416C37.288 83.174 45.176 97.89 45.176 97.89c.128.193.297.353.493.467.196.114.414.18.637.19a4.166 4.166 0 0 0 2.003-.338 4.39 4.39 0 0 0 1.643-1.255c.148-.177.255-.388.313-.616.058-.228.066-.468.024-.7Z"/>
  <path fill="#000" d="M21.703 32.792c0 .093.01.185.03.275 0 0 4 20.71 9.775 35.415 3.876 9.894 8.711 19.789 11.464 25.209l3.02-2.02S21.952 32.04 22.849 31.587c-.15 0-.3.03-.438.09a1.14 1.14 0 0 0-.372.262 1.213 1.213 0 0 0-.249.392 1.264 1.264 0 0 0-.087.462Z" opacity=".1"/>
  <path fill="#EBEBEB" d="M45.16 97.905c-.487 2.585-1.333 5.906.206 10.218 1.736 4.896 6.999 6.246 9.525 6.25 3.523 0 5.753-1.379 5.753-1.379s-1.823-.738-2.577-3.517a9.817 9.817 0 0 1-.273-1.85c-.163-2.251-.233-4.703-2.096-7.422-1.351-2.038-3.227-3.624-5.406-4.572l-5.132 2.272Z"/>
  <path fill="#BB2C75" d="M58.06 109.477a9.797 9.797 0 0 1-.274-1.85c0 .018-.637 2.933-2.193 2.761-1.557-.172-2-1.92-4.07-1.92-2.516 0-3.382 2.23-5.539 1.027 2.16 3.83 6.61 4.875 8.899 4.878 3.523 0 5.752-1.379 5.752-1.379s-1.816-.738-2.576-3.517Z"/>
  <path fill="#000" d="M51.488 110.415c-4.072-2.979-3.306-10.903-3.186-12.194l-3.142-.317c-.487 2.586-1.333 5.906.206 10.218 1.736 4.896 6.999 6.247 9.525 6.25 3.523 0 5.753-1.379 5.753-1.379s-4.386.915-9.156-2.578Z" opacity=".1"/>
  <path fill="#455A64" d="M45.158 97.904c.128.194.297.354.493.468.196.114.414.179.637.19a4.167 4.167 0 0 0 2.003-.338 4.391 4.391 0 0 0 1.643-1.255c.153-.178.265-.39.327-.62.061-.231.072-.474.03-.71a305.603 305.603 0 0 0-2.02-7.164c.147.492 0 1.097-.436 1.716a5.527 5.527 0 0 1-2.074 1.587c-.8.35-1.666.495-2.529.425-.753-.102-1.26-.447-1.476-.918 1.306 2.578 2.526 4.987 3.402 6.62Z"/>
  <path fill="#37474F" d="M45.992 91.672c-.857.44-1.811.624-2.76.531-.753-.102-1.26-.447-1.476-.918 1.3 2.578 2.526 4.988 3.402 6.62.128.193.297.353.493.467.196.114.414.18.637.19a3.873 3.873 0 0 0 2-.351l.037-.067-2.334-6.483v.011Z"/>
  <path fill="#263238" d="M24.71 48.062c1.944-.485 3.148-2.54 2.69-4.591-.46-2.052-2.407-3.322-4.35-2.838-1.945.484-3.148 2.54-2.69 4.591.46 2.051 2.407 3.322 4.35 2.838Z"/>
  <path fill="#FFA8A7" d="M15.226 113.497h2.546v-4.601h-2.546v4.601ZM24.052 108.65l2.546.092.127-4.868-2.543-.092-.13 4.868Z"/>
  <path fill="#37474F" d="M15.4 72.43c0 2.567-.333 18.117-.333 18.117-.06.739-.713 2.11-.573 4.925.193 3.85.51 13.868.51 13.868s1.193 1.249 2.88 0c0 0 2.305-13.855 2.759-17.674.423-3.32 1.09-12.364 1.09-12.364l2.36 10.654s-.417 2.505-.507 4.27c-.09 1.766.43 11.024.43 11.024a2.668 2.668 0 0 0 2.773.109s2.042-13.96 2.306-15.557c.263-1.597-1.79-17.365-1.79-17.365L15.4 72.43Z"/>
  <path fill="#F0F0F0" d="M17.84 53.869c-.542.1-1.045.368-1.443.769a2.985 2.985 0 0 0-.796 1.486c-.138.67-.208 1.354-.207 2.04V72.43c1.783 2.05 7.999 3.003 11.908 0 0 0-.076-12.6-.37-14.67-.506-3.6-2.136-4.88-3.776-4.746l-3.929.612-1.387.243Z"/>
  <path fill="#263238" d="M17.633 47.056s.587 2.905.82 3.383c.158.293.415.512.72.612l-.04-2.043-1.5-1.952ZM18.37 42.895c-.205-.025-.413 0-.608.073-.194.072-.37.19-.515.346-.484.52-.214 2.149.386 3.742l1.103.134-.366-4.295Z"/>
  <path fill="#FFA8A7" d="M19.067 47.193c-.22.137-.537-.31-.81-.612-.273-.303-1.163-.704-1.606.274-.444.978.393 2.339 1.093 2.571 1.21.4 1.39-.419 1.39-.419l.093 4.619a4.072 4.072 0 0 0 1.186 1.564c.512.41 1.112.68 1.747.785 2.143.306 1.703-1.558 1-2.462v-1.407a7.342 7.342 0 0 0 1.63.092c.89-.148 1.449-.887 1.716-1.903.433-1.629.6-2.948.23-6.152-.4-3.517-4.276-3.553-6.366-2.163-2.09 1.39-1.303 5.213-1.303 5.213Z"/>
  <path fill="#263238" d="M19.067 47.583c-.11 0-.534-.738-.81-1.002-.38-.352.113-3.686.113-3.686a1.647 1.647 0 0 1-.055-.897c.065-.298.212-.57.422-.781.523-.605 1.396-.675 2.89-.922.779-.13 1.965-.351 2.749-.513.933-.183 1.706-.376 2.362.229.258.236.44.551.522.9.082.35.06.719-.062 1.055a1.693 1.693 0 0 1-.266.419c-.177.221-.407.389-.667.485 0 0-.406.383-1.823.563-1.307.103-2.62.078-3.922-.078-.41-.06-.497.352-.72 1.51-.197 1.023-.36 2.711-.733 2.718Z"/>
  <path fill="#263238" d="m18.37 43.155-1.333-.76a.774.774 0 0 1 .177-.245.703.703 0 0 1 .823-.107c.18.105.315.279.377.486a.886.886 0 0 1-.044.626Z"/>
  <path fill="#F28F8F" d="M23.151 52.086s-2-.419-2.666-.81a2.355 2.355 0 0 1-.96-1.002c.103.429.287.83.54 1.182.507.686 3.09 1.19 3.09 1.19l-.004-.56Z"/>
  <path fill="#263238" d="M22.675 46.668a.435.435 0 0 1-.072.23.402.402 0 0 1-.18.15.378.378 0 0 1-.428-.098.44.44 0 0 1-.081-.455.414.414 0 0 1 .145-.186.382.382 0 0 1 .373-.036.425.425 0 0 1 .243.395ZM22.256 45.086l-.856.492a.565.565 0 0 1-.033-.392.535.535 0 0 1 .23-.31.457.457 0 0 1 .66.21Z"/>
  <path fill="#F28F8F" d="m22.972 49.567.91.352a.512.512 0 0 1-.245.297.458.458 0 0 1-.372.02.52.52 0 0 1-.273-.273.562.562 0 0 1-.02-.396Z"/>
  <path fill="#263238" d="m26.221 45.434-.776-.63a.481.481 0 0 1 .311-.202.445.445 0 0 1 .355.094.566.566 0 0 1 .11.739ZM25.981 46.55a.433.433 0 0 1-.074.227.4.4 0 0 1-.182.146.377.377 0 0 1-.227.017.392.392 0 0 1-.199-.118.44.44 0 0 1-.079-.454.413.413 0 0 1 .146-.185.382.382 0 0 1 .374-.035.425.425 0 0 1 .241.402Z"/>
  <path fill="#F28F8F" d="m23.958 46.151.13 2.522 1.247-.446-1.377-2.076Z"/>
  <path fill="#263238" d="M17.77 112.168v-.384c.247.113.81 2.392 1.823 3.363.804.774 1.897 1.667 2.177 2.529.28.861-1.527 1.407-2.276 1.252-.874-.166-2.384-.813-2.763-1.407-.38-.595-.557-1.484-.864-1.924-.306-.44-1.02-.932-1.186-1.442-.093-.282 0-.894.147-1.407.146-.514.243-.999.396-.953v.292c.362.301.812.462 1.273.453.374.007 1.277-.073 1.273-.372ZM26.625 107.912c.133 0 .24.204.53.534a5.6 5.6 0 0 0 1.5 1.14c.953.503 2.806 1.277 3.645 1.678.524.246.5.914-.043 1.297-.543.384-1.85.651-3.42.282-.856-.201-1.969-1.034-2.665-.992-.697.042-2.027.035-2.547-.352s-.313-1.189-.163-1.882c.16-.759.39-1.92.627-1.867v.239c.306.489 1.863.703 2.536.327v-.404ZM21.732 79.302a9.338 9.338 0 0 0 3.546-2.146s-.686 1.35-2.72 2.61l.764 6.87-1.59-7.334Z"/>
  <path fill="#FFA8A7" d="M35.98 69.27c-.56.151-1.1.102-1.872.383a3.276 3.276 0 0 1-1.637.292c-.723-.045-2.623-.995-4.306-2.071a19.734 19.734 0 0 1-4.796-4.706c-1.523-2.276-3.209-5.864-3.999-7.236-.79-1.371-1.57-1.519-2.466-1.477-1.053.046-1.726 1.055-.8 3.166a43.402 43.402 0 0 0 4.84 8.09 20.811 20.811 0 0 0 5.112 4.572c1.78 1.15 3.332 1.716 5.332 2.416.54.19.897.472 1.883.964.396.229.822.395 1.263.493a5.426 5.426 0 0 0 1.667 0c.702-.101 1.365-.4 1.92-.866a2.61 2.61 0 0 0 .712-.956c.16-.377.19-.802.084-1.2a.502.502 0 0 0-.11-.214.537.537 0 0 0-.404-.099c-.808.086-1.62.128-2.432.127-.667-.053-1.127-.183-1.033-.281.093-.099.486-.043 1.02-.285.532-.243.88-.781.736-1.056-.144-.274-.154-.207-.713-.056Z"/>
  <path fill="#E0E0E0" d="M17.231 54.061c-.81.043-1.856.563-1.836 2.023.02 1.46 2.143 5.698 3.779 8.118 0 0 2.556-.172 3.896-2.206 0 0-2.386-4.006-3.033-5.276-.583-1.157-1.636-2.722-2.806-2.659Z"/>
  <path fill="#FFA8A7" d="M38.396 60.126a3.927 3.927 0 0 0-2.333-.275c-.667.117-.667 2.462 1.476 3.212 1.396.481 2.236.27 2.686 1.48 0 0 .903-.126.7-1.48a7.773 7.773 0 0 0-1.703-3.76c-.617-.767-.666-1.407-.96-1.193-.293.215-.29 1.003-.29 1.003l.424 1.013Z"/>
  <path fill="#37474F" d="m96.918 69.868-12.231-.176-.107 10.552c0 .954.576 1.914 1.763 2.656 2.376 1.484 6.249 1.526 8.665.098 1.213-.72 1.82-1.677 1.817-2.641l.093-10.489Z"/>
  <path fill="#455A64" d="M86.506 67.079c-2.403 1.431-2.426 3.792-.053 5.276s6.245 1.526 8.648.098c2.403-1.428 2.43-3.788.057-5.276-2.373-1.487-6.249-1.526-8.652-.098Z"/>
  <path fill="#263238" d="M96.386 69.826a1.686 1.686 0 0 1-.087.506c-.183.605-.683 1.165-1.463 1.629a8.643 8.643 0 0 1-4.07.97 8.657 8.657 0 0 1-4.048-1.062c-.753-.471-1.247-1.055-1.42-1.628a1.671 1.671 0 0 1-.087-.542c0-.784.56-1.544 1.553-2.11a8.672 8.672 0 0 1 4.07-.967 8.687 8.687 0 0 1 4.05 1.058c.986.595 1.502 1.358 1.502 2.146Z"/>
  <path fill="#BB2C75" d="M96.306 70.333c-.183.605-.683 1.164-1.463 1.628a8.643 8.643 0 0 1-4.07.971 8.658 8.658 0 0 1-4.049-1.062c-.753-.472-1.246-1.055-1.42-1.629a3.012 3.012 0 0 1 1.467-1.621 8.595 8.595 0 0 1 4.07-.978 8.608 8.608 0 0 1 4.049 1.07c.643.34 1.147.916 1.416 1.62Z"/>
  <path fill="#263238" d="M93.408 73.819c.27-.159.483-.025.48.299-.01.176-.06.348-.146.5a1.108 1.108 0 0 1-.344.379c-.27.158-.483.024-.48-.3.011-.176.061-.348.146-.5.085-.153.203-.283.344-.379Z"/>
  <path fill="#E0E0E0" d="M84.668 71.564c-.667 1.407-2 4.727-.274 6.085.074.056.14.105.214.155v.671a6.876 6.876 0 0 1-.527-.369c-2.596-2.033.333-7.242.46-7.46a.249.249 0 0 1 .147-.12l-.02 1.038Z"/>
  <path fill="#E0E0E0" d="M93.64 74.539c-.073.162-1.963 3.974-5.072 4.741-.352.09-.712.134-1.073.134a5.197 5.197 0 0 1-2.893-.957v-.672c1.283.94 2.576 1.263 3.839.953 2.87-.703 4.706-4.424 4.72-4.46a.263.263 0 0 1 .26-.15.257.257 0 0 1 .1.03.263.263 0 0 1 .137.163.288.288 0 0 1-.018.218Z"/>
  <path fill="#37474F" d="M77.811 48.885H49.816l3.13 27.181c.143 1.576 1.186 3.124 3.16 4.327 4.255 2.592 11.15 2.592 15.403 0 1.973-1.203 3.02-2.75 3.163-4.327l3.14-27.181Z"/>
  <path fill="#455A64" d="M53.928 42.849c5.47-3.331 14.33-3.331 19.803 0 5.473 3.33 5.47 8.737 0 12.068-5.469 3.33-14.33 3.33-19.803 0-5.472-3.331-5.469-8.734 0-12.068Z"/>
  <path fill="#263238" d="M63.83 55.701c-3.46 0-6.689-.806-9.088-2.269-2.123-1.294-3.29-2.909-3.29-4.551 0-1.643 1.167-3.254 3.29-4.548 2.4-1.463 5.629-2.268 9.088-2.268 3.46 0 6.69.805 9.089 2.268 2.123 1.294 3.29 2.909 3.29 4.548 0 1.639-1.167 3.257-3.29 4.548-2.4 1.466-5.63 2.272-9.089 2.272Z"/>
  <use xlink:href="#reuse-1"/>
  <use xlink:href="#reuse-1"/>
  <path fill="#263238" d="M65.788 81.472a.36.36 0 0 0 .093.198.318.318 0 0 0 .392.066.344.344 0 0 0 .145-.158l1-2.026a1.78 1.78 0 0 1-1.01.07 1.843 1.843 0 0 1-.896-.496l-.14-.14.416 2.486Z"/>
  <path fill="#BB2C75" d="m71.19 21.01-.156 1.055-.2 1.29-6.942 46.496c.708 1.088 1.78 1.853 3 2.142 1.833.51 3.836.176 4.666-.795l6.912-46.133.37-2.462c-.324 1.576-7.952.004-7.65-1.593Z"/>
  <path fill="#EBEBEB" d="m70.572 25.086-.353 2.395c-.124.704 1.21 1.368 2.806 1.79 2.113.563 4.685.68 4.852-.235l.263-1.759.084-.633c-.167.915-2.74.802-4.853.24-1.53-.409-2.823-1.056-2.806-1.714a.13.13 0 0 1 .007-.084Z"/>
  <path fill="#BB2C75" d="M70.488 25.687c-.293 1.6 7.362 3.166 7.665 1.551l.36-2.395c-.29 1.6-7.945.05-7.665-1.551l-.36 2.395Z"/>
  <path fill="#EBEBEB" d="m71.19 21.01-.357 2.367c-.296 1.572 7.079 3.166 7.636 1.692a.339.339 0 0 0 .026-.088l.334-2.385c-.314 1.583-7.942.01-7.64-1.586Z"/>
  <path fill="#000" d="m78.47 25.066.369-2.462c-.147.703-1.786.787-3.51.503l-6.981 49.115-1.93 9.356 5.166-10.376 6.885-46.136Z" opacity=".1"/>
  <path fill="#FFA8A7" d="m72.701 10.975-1.51 10.035c-.13.682 1.19 1.36 2.77 1.787 2.113.573 4.696.703 4.88-.204l1.449-9.652c.513-2.223-3.376-3.869-5.8-3.408-.902.155-1.596.612-1.789 1.442Z"/>
  <path fill="#BB2C75" d="m54.906 68.926-.14-1.076-.177-1.295-6.179-46.6c.574.622 2.057.953 3.666.77 1.883-.215 3.62-1.03 4.033-1.977l6.132 46.256.334 2.48c-.294-1.594-7.946-.162-7.67 1.442Z"/>
  <path fill="#EBEBEB" d="m54.352 64.835-.313-2.398c-.114-.704 1.233-1.347 2.833-1.738 2.126-.527 4.699-.594 4.849.324l.236 1.758.074.633c-.154-.918-2.727-.85-4.853-.327-1.533.38-2.836 1.003-2.83 1.66a.151.151 0 0 0 .004.088Z"/>
  <path fill="#BB2C75" d="M54.28 64.238c-.267-1.611 7.412-3.022 7.665-1.407l.333 2.402c-.266-1.607-7.945-.197-7.665 1.407l-.333-2.402Z"/>
  <path fill="#EBEBEB" d="m54.905 68.926-.317-2.37c-.273-1.58 7.13-3.019 7.666-1.552a.55.55 0 0 1 .023.088l.303 2.392c-.3-1.594-7.952-.162-7.675 1.442Z"/>
  <path fill="#FFA8A7" d="M51.568 10.79c-1.12.305-1.517.059-1.517.059l-1.636 9.106c.893 1.354 3.07 1.636 4.912 1.055l-.056-.446-1.703-9.775Z"/>
  <path fill="#FAFAFA" d="m56.121 18.748-4.016-8.441 4.016 8.441Z"/>
  <path fill="#E0E0E0" d="m52.102 10.32-.973-2.043.973 2.044Z"/>
  <path fill="#455A64" d="m50.497 8.372-.446 2.462s.38.285 1.516-.06l-.437-2.51a.35.35 0 0 0-.191-.18.317.317 0 0 0-.255.017.338.338 0 0 0-.126.11.364.364 0 0 0-.06.161Z"/>
  <path fill="#000" d="M62.252 65.004 56.12 18.76c-.433 1.1-1.537 1.881-2.793 2.265l5.752 45.89c1.73-.253 3.366-.151 3.5.57l-.327-2.48Z" opacity=".1"/>
  <path fill="#F28F8F" d="m56.119 18.759-4.02-8.442a1.035 1.035 0 0 1-.536.468l1.706 9.778.057.454c1.257-.376 2.36-1.157 2.793-2.258Z"/>
  <path fill="#37474F" d="M51.566 10.789a.782.782 0 0 0 .319-.17.838.838 0 0 0 .217-.298l-.973-2.044.437 2.512Z"/>
  <path fill="#F28F8F" d="m56.249 78.986-1.333-10.06c-.117-.686 1.21-1.34 2.796-1.737 2.126-.535 4.71-.62 4.876.295l1.293 9.68c.477 2.23-3.44 3.802-5.852 3.299-.914-.176-1.6-.644-1.78-1.477Z"/>
  <path fill="#BB2C75" d="M61.343 15.748S59.853 28.36 59.84 40.85c0 12.38 2.156 25.898 2.59 27.983v.025a.13.13 0 0 1 0 .035c.044.19.144.362.286.489a.84.84 0 0 0 1.032.076.914.914 0 0 0 .348-.442.87.87 0 0 0 .053-.204s2.906-15.89 2.93-28.06c.023-12.17-1.48-25.02-1.48-25.02a1.22 1.22 0 0 0-.222-.472 1.142 1.142 0 0 0-.394-.326 3.192 3.192 0 0 0-1.51-.381c-.525 0-1.042.13-1.51.381a1.116 1.116 0 0 0-.4.33 1.195 1.195 0 0 0-.22.483Z"/>
  <path fill="#000" d="M64.1 69.017a.87.87 0 0 0 .054-.204s2.902-15.891 2.926-28.061c0-8.192-.667-16.683-1.107-21.364l-2.693.492s.434 49.594-.333 49.636a.84.84 0 0 0 .962-.197.929.929 0 0 0 .191-.302Z" opacity=".1"/>
  <path fill="#F0F0F0" d="M63.467 14.538c.373-.739 2.41-4.727 1.753-7.977a3.218 3.218 0 0 1-1.193-.268c-1.463-.64-1.29-2.012-2.333-2.617-1.043-.605-2.306 1.26-2.316 1.277-.51 1.64-1.143 3.394-.58 5.895a10.12 10.12 0 0 0 2.556 4.896h4.256c.267-.418.56-.865.85-1.35-.29.485-.583.932-.85 1.35l-2.143-1.206Z"/>
  <path fill="#000" d="M68.23 7.278c-.907-1.15-1.837-.675-3-.703.666 3.25-1.38 7.238-1.753 7.977l2.133 1.192c.266-.418.56-.865.85-1.35.073-.12.146-.247.22-.373a13.294 13.294 0 0 0 1-2.153c.11-.323.212-.661.3-1.02.194-.78.306-1.581.332-2.388a7.059 7.059 0 0 0-.083-1.182Z" opacity=".1"/>
  <path fill="#BB2C75" d="M68.226 7.26c-.03-.2-.067-.393-.11-.587v-.056a7.71 7.71 0 0 0-.12-.426l-.05-.162c0-.042-.033-.084-.046-.126l-.084-.222a4.808 4.808 0 0 0-.113-.264 5.724 5.724 0 0 0-.313-.576c-.104-.187-.214-.352-.334-.542a4.57 4.57 0 0 0-.363-.503 9.638 9.638 0 0 0-2.836-2.427l-.237-.127-.066-.035-.274-.126C62.716.83 62.131.633 61.534.49c-.267-.064-.52-.11-.756-.148a6.959 6.959 0 0 0-.667-.074l-.287-.02H59.164c-.223 0-.333.027-.333.027s1.087 1.087.847 3.282c-.066.48-.178.95-.334 1.407 0 0 1.267-1.878 2.317-1.277 1.05.601.88 1.977 2.333 2.617.379.165.783.255 1.193.267 1.173.042 2.103-.432 3 .704l.04-.014Z"/>
  <path fill="#000" d="M58.841.275s3.356.704 5.76 4.654c.298.5.508 1.052.62 1.632 1.172.042 2.102-.433 2.998.703-.03-.2-.066-.394-.11-.587V6.62a7.889 7.889 0 0 0-.12-.425l-.05-.162c0-.042-.033-.084-.046-.127l-.083-.221a6.554 6.554 0 0 0-.42-.844c-.104-.187-.214-.352-.334-.542a4.57 4.57 0 0 0-.363-.503 9.638 9.638 0 0 0-2.836-2.427l-.237-.127-.066-.035-.274-.126C62.716.83 62.131.633 61.534.49c-.267-.064-.52-.11-.756-.148a6.959 6.959 0 0 0-.667-.074l-.287-.02H59.164c-.223 0-.333.027-.333.027h.01Z" opacity=".1"/>
  <path fill="#455A64" d="M65.6 15.73a1.224 1.224 0 0 0-.223-.47 1.144 1.144 0 0 0-.394-.325 3.192 3.192 0 0 0-1.51-.381c-.524 0-1.041.13-1.51.381a1.112 1.112 0 0 0-.403.335 1.192 1.192 0 0 0-.216.492c-.2 1.758-.387 3.672-.566 5.69.038-.233.13-.453.267-.641a1.41 1.41 0 0 1 .519-.438 4.035 4.035 0 0 1 1.906-.481c.663 0 1.316.165 1.907.481.208.1.39.253.528.446s.228.42.261.659c-.203-2.238-.4-4.32-.566-5.748Z"/>
  <path fill="#37474F" d="M63.281 19.88a3.804 3.804 0 0 1 2.11.479c.208.1.39.253.528.446s.228.42.262.658c-.204-2.223-.4-4.305-.567-5.733a1.221 1.221 0 0 0-.229-.473 1.142 1.142 0 0 0-.4-.322 2.962 2.962 0 0 0-1.517-.38l-.047.036-.14 5.307v-.017Z"/>
  <path fill="#F28F8F" d="m78.84 22.592 1.45-9.651c.023-.098.036-.199.04-.3-.607 1.65-3.606.806-3.606.806l-1.403 9.645c1.736.284 3.373.218 3.52-.5Z"/>
</svg>
