<svg xmlns="http://www.w3.org/2000/svg" fill="none" viewBox="0 0 150 149">
  <path fill="#EBEBEB" d="M21.382 148.243c10.513 0 19.035-1.641 19.035-3.665 0-2.025-8.522-3.666-19.035-3.666s-19.035 1.641-19.035 3.666c0 2.024 8.523 3.665 19.035 3.665Z"/>
  <path fill="#BB2C75" d="M50.395 76.627h-23.83V62.643h.37v13.614h23.46v.37ZM82.145 55.797h-.37V42.67H12.203v-.37h69.942v13.496Z"/>
  <path fill="#BB2C75" d="M128.002 62.828H20.974a2.277 2.277 0 0 1-2.254-2.273V42.486h.37v18.069a1.903 1.903 0 0 0 1.903 1.903h107.009v.37Z"/>
  <path fill="#BB2C75" d="M32.027 49.136H20.982a2.28 2.28 0 0 1-2.262-2.28v-1.634l-3.832-2.591.207-.308 3.995 2.7v1.832a1.91 1.91 0 0 0 1.91 1.91h11.045a1.91 1.91 0 0 0 1.911-1.91v-2.07l3.332-2.447.219.3-3.184 2.333v1.884a2.28 2.28 0 0 1-2.296 2.281Z"/>
  <path fill="#BB2C75" d="m39.78 62.773-2.592-2.592v-9.138a1.91 1.91 0 0 0-1.907-1.907H30.05v-.37h5.243a2.28 2.28 0 0 1 2.277 2.277v8.997l2.47 2.473-.26.26ZM91.076 62.895l-2.222-2.222v-2.791a1.907 1.907 0 0 0-1.903-1.907H70.186a1.907 1.907 0 0 0-1.903 1.907v2.791l-2.092 2.092-.263-.259 1.984-1.984v-2.64a2.28 2.28 0 0 1 2.274-2.277h16.773a2.277 2.277 0 0 1 2.273 2.277v2.64l2.107 2.106-.263.267Z"/>
  <path fill="#BB2C75" d="M54.443 70H40.49a2.277 2.277 0 0 1-2.273-2.273v-2.44l-2.514-2.514.263-.26 2.621 2.622v2.592a1.903 1.903 0 0 0 1.903 1.903h13.952a1.907 1.907 0 0 0 1.907-1.903v-2.462l2.621-2.622.26.26-2.511 2.514v2.317A2.281 2.281 0 0 1 54.443 70ZM119.882 70h-13.955a2.275 2.275 0 0 1-2.273-2.273v-2.44l-2.514-2.514.262-.26 2.622 2.622v2.592a1.91 1.91 0 0 0 1.903 1.903h13.955a1.907 1.907 0 0 0 1.903-1.903v-2.462l2.622-2.622.263.26-2.514 2.514v2.317A2.277 2.277 0 0 1 119.882 70ZM14.277 42.486a2.084 2.084 0 1 1-4.169.008 2.084 2.084 0 0 1 4.169-.008ZM44.997 44.57a2.085 2.085 0 1 0 0-4.169 2.085 2.085 0 0 0 0 4.17Z"/>
  <path fill="#fff" d="M44.997 64.89a2.085 2.085 0 1 0 0-4.17 2.085 2.085 0 0 0 0 4.17Z"/>
  <path fill="#BB2C75" d="M45.008 65.076a2.27 2.27 0 1 1 0-4.54 2.27 2.27 0 0 1 0 4.54Zm0-4.17a1.9 1.9 0 1 0 0 3.8 1.9 1.9 0 0 0 0-3.8Z"/>
  <path fill="#fff" d="M64.928 62.805a2.084 2.084 0 1 1-4.168 0 2.084 2.084 0 0 1 4.169 0Z"/>
  <path fill="#BB2C75" d="M62.844 65.076a2.27 2.27 0 1 1 0-4.54 2.27 2.27 0 0 1 0 4.54Zm0-4.17a1.9 1.9 0 1 0 0 3.8 1.9 1.9 0 0 0 0-3.8ZM47.081 69.815a2.085 2.085 0 1 1-4.17 0 2.085 2.085 0 0 1 4.17 0Z"/>
  <path fill="#000" d="M47.081 69.815a2.085 2.085 0 1 1-4.17 0 2.085 2.085 0 0 1 4.17 0Z" opacity=".2"/>
  <path fill="#BB2C75" d="M52.154 69.815a2.085 2.085 0 1 1-4.17 0 2.085 2.085 0 0 1 4.17 0Z"/>
  <path fill="#000" d="M52.154 69.815a2.085 2.085 0 1 1-4.17 0 2.085 2.085 0 0 1 4.17 0Z" opacity=".2"/>
  <path fill="#BB2C75" d="M112.566 69.815a2.086 2.086 0 0 1-4.129.407 2.078 2.078 0 0 1 .886-2.14 2.085 2.085 0 0 1 3.243 1.733ZM117.616 69.815a2.085 2.085 0 1 1-4.17 0 2.085 2.085 0 0 1 4.17 0ZM81.96 44.57a2.085 2.085 0 1 0 0-4.169 2.085 2.085 0 0 0 0 4.17ZM26.75 51.228a2.085 2.085 0 1 0 0-4.17 2.085 2.085 0 0 0 0 4.17Z"/>
  <path fill="#fff" d="M26.75 64.728a2.085 2.085 0 1 0 0-4.17 2.085 2.085 0 0 0 0 4.17Z"/>
  <path fill="#BB2C75" d="M26.75 64.912a2.27 2.27 0 1 1-.007-4.538 2.27 2.27 0 0 1 .008 4.538Zm0-4.169a1.9 1.9 0 1 0-.007 3.8 1.9 1.9 0 0 0 .008-3.8ZM26.75 78.527a2.085 2.085 0 1 0 0-4.17 2.085 2.085 0 0 0 0 4.17Z"/>
  <path fill="#000" d="M26.75 78.527a2.085 2.085 0 1 0 0-4.17 2.085 2.085 0 0 0 0 4.17Z" opacity=".2"/>
  <path fill="#BB2C75" d="M35.644 78.527a2.085 2.085 0 1 0 0-4.17 2.085 2.085 0 0 0 0 4.17Z"/>
  <path fill="#000" d="M35.644 78.527a2.085 2.085 0 1 0 0-4.17 2.085 2.085 0 0 0 0 4.17Z" opacity=".2"/>
  <path fill="#BB2C75" d="M50.07 78.527a2.085 2.085 0 1 0 0-4.17 2.085 2.085 0 0 0 0 4.17Z"/>
  <path fill="#000" d="M50.07 78.527a2.085 2.085 0 1 0 0-4.17 2.085 2.085 0 0 0 0 4.17Z" opacity=".2"/>
  <path fill="#fff" d="M33.56 62.643a2.085 2.085 0 1 1-4.17 0 2.085 2.085 0 0 1 4.17 0Z"/>
  <path fill="#BB2C75" d="M31.475 64.912a2.27 2.27 0 1 1 0-4.538 2.27 2.27 0 0 1 0 4.538Zm0-4.169a1.9 1.9 0 1 0 0 3.799 1.9 1.9 0 0 0 0-3.799ZM78.624 55.797a2.084 2.084 0 1 1-4.168 0 2.084 2.084 0 0 1 4.168 0Z"/>
  <path fill="#000" d="M78.624 55.797a2.084 2.084 0 1 1-4.168 0 2.084 2.084 0 0 1 4.168 0Z" opacity=".4"/>
  <path fill="#fff" d="M97.44 64.728a2.085 2.085 0 1 0 .001-4.17 2.085 2.085 0 0 0 0 4.17Z"/>
  <path fill="#BB2C75" d="M97.44 64.912a2.27 2.27 0 1 1 0-4.538 2.27 2.27 0 0 1 0 4.538Zm0-4.169a1.9 1.9 0 1 0 0 3.799 1.9 1.9 0 0 0 0-3.799Z"/>
  <path fill="#fff" d="M110.482 64.728a2.084 2.084 0 1 0 0-4.169 2.084 2.084 0 0 0 0 4.169Z"/>
  <path fill="#BB2C75" d="M110.481 64.912a2.269 2.269 0 1 1 0-4.537 2.269 2.269 0 0 1 0 4.537Zm0-4.169a1.897 1.897 0 0 0-1.755 1.173 1.9 1.9 0 1 0 1.755-1.173Z"/>
  <path fill="#fff" d="M115.532 64.728a2.084 2.084 0 1 0 0-4.169 2.084 2.084 0 0 0 0 4.169Z"/>
  <path fill="#BB2C75" d="M115.532 64.912a2.269 2.269 0 1 1 0-4.537 2.269 2.269 0 0 1 0 4.537Zm0-4.169a1.903 1.903 0 0 0-1.755 1.173 1.894 1.894 0 0 0 1.384 2.59 1.901 1.901 0 0 0 2.27-1.863 1.9 1.9 0 0 0-1.899-1.9Z"/>
  <path fill="#fff" d="M128.002 64.728a2.084 2.084 0 1 0 0-4.169 2.084 2.084 0 0 0 0 4.169Z"/>
  <path fill="#BB2C75" d="M128.002 64.912a2.27 2.27 0 1 1-.008-4.539 2.27 2.27 0 0 1 .008 4.54Zm0-4.169a1.896 1.896 0 0 0-1.758 1.17 1.9 1.9 0 1 0 3.654.73 1.901 1.901 0 0 0-1.896-1.9ZM84.041 55.797a2.085 2.085 0 1 1-4.17 0 2.085 2.085 0 0 1 4.17 0Z"/>
  <path fill="#000" d="M84.041 55.797a2.085 2.085 0 1 1-4.17 0 2.085 2.085 0 0 1 4.17 0Z" opacity=".4"/>
  <path fill="#263238" d="M12.67 33.88v2.622a.248.248 0 0 1-.338.234.24.24 0 0 1-.15-.226v-2.185l-.178.1a.233.233 0 0 1-.272-.014.248.248 0 0 1 .02-.408l.544-.322H12.533a.052.052 0 0 1 0 .022v.044a.048.048 0 0 0 0 .034l.137.1ZM45.982 36.503a.24.24 0 0 1-.15.227.24.24 0 0 1-.095.017h-1.58a.249.249 0 0 1-.171-.426l1.315-1.192a.555.555 0 0 0 .04-.796.56.56 0 0 0-.796-.04l-.14.121a.236.236 0 0 1-.345 0 .243.243 0 0 1 0-.348l.137-.125a1.063 1.063 0 0 1 1.503.077c.18.194.28.45.278.715a1.07 1.07 0 0 1-.352.789l-.84.762h.962a.244.244 0 0 1 .234.219ZM82.575 34.858a1.083 1.083 0 0 1 .134 1.386 1.11 1.11 0 0 1-1.693.173.262.262 0 0 1 .37-.37.592.592 0 0 0 .422.174c.16 0 .313-.063.426-.174a.582.582 0 0 0 .126-.634.573.573 0 0 0-.133-.192.597.597 0 0 0-.422-.178.214.214 0 0 1-.182-.081.251.251 0 0 1 0-.37l.456-.463h-.719a.252.252 0 1 1 0-.5h1.307a.248.248 0 0 1 .256.248.243.243 0 0 1-.034.118.245.245 0 0 1-.044.063l-.559.578c.108.057.206.132.289.222ZM11.38 37.98h1.645l-.822.984-.822-.984ZM44.175 37.98h1.644l-.822.984-.822-.984ZM81.138 37.98h1.64l-.818.984-.822-.984Z"/>
  <path fill="#BB2C75" d="M66.398 76.442h-6.094v3.525h6.094v-3.525Z"/>
  <path fill="#fff" d="M86.507 76.442h-6.094v3.525h6.094v-3.525Z"/>
  <path fill="#BB2C75" d="M86.689 80.153h-6.461v-3.895h6.46v3.895Zm-6.091-.37h5.72v-3.155h-5.72v3.155ZM106.612 76.442h-6.094v3.525h6.094v-3.525Z"/>
  <path fill="#000" d="M106.612 76.442h-6.094v3.525h6.094v-3.525Z" opacity=".4"/>
  <path fill="#BB2C75" d="M126.721 76.442h-6.094v3.525h6.094v-3.525Z"/>
  <path fill="#000" d="M126.721 76.442h-6.094v3.525h6.094v-3.525Z" opacity=".2"/>
  <path fill="#C7C7C7" d="M74.929 76.643h-6.68v.37h6.68v-.37ZM72.537 77.835h-4.288v.37h4.288v-.37ZM94.934 76.643h-6.68v.37h6.68v-.37ZM91.595 77.835h-3.34v.37h3.34v-.37ZM111.596 76.643h-3.34v.37h3.34v-.37ZM113.543 77.835h-5.287v.37h5.287v-.37ZM133.056 76.643h-4.799v.37h4.799v-.37ZM134.937 77.835h-6.68v.37h6.68v-.37Z"/>
  <path fill="#37474F" d="M115.879.432H81.212V28.9h34.667V.431Z"/>
  <path fill="#263238" d="M116.013 29.034H81.079L81.212.432h34.668l.133 28.602Z"/>
  <path fill="#BB2C75" d="M115.879.432H81.212v2.506h34.667V.432Z"/>
  <path fill="#A6A6A6" d="M83.567 1.705a.633.633 0 1 1-1.266 0 .633.633 0 0 1 1.266 0Z"/>
  <path fill="#EBEBEB" d="M86.144 1.705a.634.634 0 1 1-1.267 0 .634.634 0 0 1 1.267 0Z"/>
  <path fill="#fff" d="M88.721 1.705a.634.634 0 1 1-1.267 0 .634.634 0 0 1 1.267 0Z"/>
  <path fill="#EBEBEB" d="M85.245 7.93h-1.34v.488h1.34V7.93ZM101.603 7.93H86.222v.488h15.381V7.93Z"/>
  <path fill="#fff" d="M104.972 7.93h-2.547v.488h2.547V7.93Z"/>
  <path fill="#EBEBEB" d="M110.796 14.483h-2.547v.49h2.547v-.49Z"/>
  <path fill="#A6A6A6" d="M109.926 7.93h-4.403v.488h4.403V7.93Z"/>
  <path fill="#EBEBEB" d="M86.585 9.24h-1.34v.489h1.34V9.24Z"/>
  <path fill="#A6A6A6" d="M97.622 9.24H87.53v.489h10.093V9.24ZM107.642 14.483h-5.91v.49h5.91v-.49ZM95.864 13.172h-9.642v.489h9.642v-.49Z"/>
  <path fill="#fff" d="M94.293 10.55H87.53v.49h6.764v-.49Z"/>
  <path fill="#A6A6A6" d="M106.708 11.861h-2.58v.49h2.58v-.49ZM105.842 10.55h-10.8v.49h10.8v-.49Z"/>
  <path fill="#fff" d="M99.115 14.483H86.222v.49h12.893v-.49ZM112.225 9.24h-6.987v.489h6.987V9.24Z"/>
  <path fill="#EBEBEB" d="M104.687 9.24h-6.431v.489h6.431V9.24ZM110.689 10.55h-4.34v.49h4.34v-.49ZM86.585 10.55h-1.34v.49h1.34v-.49Z"/>
  <path fill="#A6A6A6" d="M85.245 11.861h-1.34v.49h1.34v-.49Z"/>
  <path fill="#EBEBEB" d="M94.146 11.861h-7.924v.49h7.924v-.49ZM95.452 15.794H87.53v.489h7.923v-.49Z"/>
  <path fill="#A6A6A6" d="M108.327 17.105h-6.025v.488h6.025v-.488Z"/>
  <path fill="#fff" d="M104.039 15.794h-7.946v.489h7.946v-.49ZM101.61 17.105h-6.917v.488h6.917v-.488Z"/>
  <path fill="#EBEBEB" d="m94.146 17.597-3.725-.004v-.488l3.725.003v.489Z"/>
  <path fill="#A6A6A6" d="M89.824 17.105H87.53v.488h2.295v-.488Z"/>
  <path fill="#EBEBEB" d="M104.968 13.172h-8.564v.489h8.564v-.49Z"/>
  <path fill="#fff" d="M110.974 13.172h-5.451v.489h5.451v-.49ZM103.502 11.861h-8.553v.49h8.553v-.49Z"/>
  <path fill="#EBEBEB" d="M85.245 13.172h-1.34v.489h1.34v-.49ZM85.245 14.483h-1.34v.49h1.34v-.49Z"/>
  <path fill="#A6A6A6" d="M86.585 15.794h-1.34v.489h1.34v-.49Z"/>
  <path fill="#EBEBEB" d="M86.585 17.105h-1.34v.488h1.34v-.488ZM85.245 18.2h-1.34v.489h1.34V18.2ZM95.605 18.2h-9.383v.489h9.383V18.2ZM86.585 19.51h-1.34V20h1.34v-.49Z"/>
  <path fill="#A6A6A6" d="M97.622 19.51H87.53V20h10.093v-.49ZM95.864 23.443h-9.642v.49h9.642v-.49Z"/>
  <path fill="#fff" d="M94.293 20.822H87.53v.489h6.764v-.489Z"/>
  <path fill="#A6A6A6" d="M105.842 20.822h-10.8v.489h10.8v-.489Z"/>
  <path fill="#fff" d="M99.115 24.754H86.222v.489h12.893v-.49ZM112.225 19.51h-6.987V20h6.987v-.49Z"/>
  <path fill="#EBEBEB" d="M104.687 19.51h-6.431V20h6.431v-.49ZM110.689 20.822h-4.34v.489h4.34v-.489ZM86.585 20.822h-1.34v.489h1.34v-.489Z"/>
  <path fill="#A6A6A6" d="M85.245 22.133h-1.34v.489h1.34v-.49Z"/>
  <path fill="#EBEBEB" d="M94.146 22.133h-7.924v.489h7.924v-.49ZM104.968 23.443h-8.564v.49h8.564v-.49Z"/>
  <path fill="#fff" d="M103.502 22.133h-8.553v.489h8.553v-.49Z"/>
  <path fill="#EBEBEB" d="M85.245 23.443h-1.34v.49h1.34v-.49Z"/>
  <path fill="#fff" d="M84.73 6.641a.111.111 0 0 1 0 .163.114.114 0 0 1-.082.033.13.13 0 0 1-.085-.033l-.515-.522V6.24l.515-.526a.122.122 0 0 1 .166 0 .116.116 0 0 1 .027.13.116.116 0 0 1-.026.037l-.437.44.436.32ZM85.2 6.696l.452-1.07a.1.1 0 0 1 .094-.064.1.1 0 0 1 .039.009.104.104 0 0 1 .052.133l-.452 1.06a.103.103 0 0 1-.093.058.067.067 0 0 1-.037 0 .096.096 0 0 1-.055-.126ZM86.725 6.267l-.514.522a.122.122 0 0 1-.13.025.115.115 0 0 1-.037-.025.113.113 0 0 1-.036-.081.111.111 0 0 1 .036-.082l.433-.425-.437-.441a.116.116 0 0 1-.026-.129.116.116 0 0 1 .026-.038.122.122 0 0 1 .167 0l.515.526v.089l.003.06Z"/>
  <path fill="#37474F" d="M147.641 22.195h-42.073v28.47h42.073v-28.47Z"/>
  <path fill="#37474F" d="M147.774 50.798h-42.335l.129-28.603h42.073l.133 28.603Z"/>
  <path fill="#BB2C75" d="M147.641 22.195h-42.073v2.507h42.073v-2.507Z"/>
  <path fill="#A6A6A6" d="M107.923 23.47a.63.63 0 0 1-.391.584.633.633 0 1 1 .391-.585Z"/>
  <path fill="#EBEBEB" d="M109.867 24.099a.629.629 0 1 0 0-1.258.629.629 0 0 0 0 1.258Z"/>
  <path fill="#fff" d="M113.077 23.47a.63.63 0 0 1-.391.584.633.633 0 1 1 .391-.585Z"/>
  <path fill="#EBEBEB" d="M109.6 29.693h-1.34v.49h1.34v-.49ZM118.553 29.693h-7.975v.49h7.975v-.49Z"/>
  <path fill="#fff" d="M141.424 29.693h-3.295v.49h3.295v-.49ZM121.922 29.693h-2.547v.49h2.547v-.49Z"/>
  <path fill="#EBEBEB" d="M137.485 29.693h-9.834v.49h9.834v-.49ZM140.384 36.247h-7.78v.489h7.78v-.489Z"/>
  <path fill="#A6A6A6" d="M126.877 29.693h-4.403v.49h4.403v-.49Z"/>
  <path fill="#EBEBEB" d="M110.941 31.004H109.6v.489h1.341v-.49Z"/>
  <path fill="#A6A6A6" d="M121.978 31.004h-10.093v.489h10.093v-.49ZM132.001 36.247h-5.909v.489h5.909v-.489ZM120.219 34.937h-9.641v.488h9.641v-.488Z"/>
  <path fill="#fff" d="M118.65 32.315h-6.765v.488h6.765v-.488ZM142.413 32.315h-6.765v.488h6.765v-.488Z"/>
  <path fill="#A6A6A6" d="M131.064 33.626h-2.58v.489h2.58v-.489ZM130.198 32.315h-10.801v.488h10.801v-.488Z"/>
  <path fill="#fff" d="M123.47 36.247h-12.892v.489h12.892v-.489ZM132.586 31.004h-6.987v.489h6.987v-.49Z"/>
  <path fill="#EBEBEB" d="M125.044 31.004h-2.433v.489h2.433v-.49ZM143.545 31.004h-10.163v.489h10.163v-.49ZM135.045 32.315h-4.34v.488h4.34v-.488ZM110.941 32.315H109.6v.488h1.341v-.488Z"/>
  <path fill="#A6A6A6" d="M109.6 33.626h-1.34v.489h1.34v-.489Z"/>
  <path fill="#EBEBEB" d="M118.501 33.626h-7.923v.489h7.923v-.489ZM139.462 33.626h-7.924v.489h7.924v-.489ZM119.809 37.558h-7.924v.488h7.924v-.488Z"/>
  <path fill="#fff" d="M129.102 38.868h-6.025v.489h6.025v-.489ZM128.395 37.558h-7.946v.488h7.946v-.488Z"/>
  <path fill="#EBEBEB" d="M122.104 38.868h-6.916v.489h6.916v-.489Z"/>
  <path fill="#A6A6A6" d="M114.181 38.868h-2.296v.489h2.296v-.489ZM135.33 38.868h-5.61v.489h5.61v-.489Z"/>
  <path fill="#EBEBEB" d="M129.327 34.937h-8.564v.488h8.564v-.488Z"/>
  <path fill="#fff" d="M135.33 34.937h-5.45v.488h5.45v-.488ZM127.858 33.626h-8.553v.489h8.553v-.489Z"/>
  <path fill="#EBEBEB" d="M109.6 34.937h-1.34v.488h1.34v-.488ZM109.6 36.247h-1.34v.489h1.34v-.489Z"/>
  <path fill="#A6A6A6" d="M110.941 37.558H109.6v.488h1.341v-.488ZM137.144 37.558h-8.094v.488h8.094v-.488Z"/>
  <path fill="#EBEBEB" d="M110.941 38.868H109.6v.489h1.341v-.489ZM109.6 39.965h-1.34v.489h1.34v-.49ZM125.958 39.965h-15.38v.489h15.38v-.49ZM110.941 41.275H109.6v.49h1.341v-.49Z"/>
  <path fill="#A6A6A6" d="M121.978 41.275h-10.093v.49h10.093v-.49ZM120.219 45.207h-9.641v.489h9.641v-.489Z"/>
  <path fill="#fff" d="M118.65 42.586h-6.765v.489h6.765v-.49Z"/>
  <path fill="#A6A6A6" d="M130.198 42.586h-10.801v.489h10.801v-.49Z"/>
  <path fill="#fff" d="M123.47 46.518h-12.892v.488h12.892v-.488ZM136.581 41.275h-6.986v.49h6.986v-.49Z"/>
  <path fill="#EBEBEB" d="M129.042 41.275h-6.431v.49h6.431v-.49ZM135.045 42.586h-4.34v.489h4.34v-.49ZM110.941 42.586H109.6v.489h1.341v-.49Z"/>
  <path fill="#A6A6A6" d="M109.6 43.897h-1.34v.488h1.34v-.488ZM133.656 43.897h-5.224v.488h5.224v-.488Z"/>
  <path fill="#EBEBEB" d="M118.501 43.897h-7.923v.488h7.923v-.488ZM138.891 43.897h-4.409v.488h4.409v-.488ZM129.327 45.207h-8.564v.489h8.564v-.489Z"/>
  <path fill="#fff" d="M127.858 43.897h-8.553v.488h8.553v-.488Z"/>
  <path fill="#EBEBEB" d="M109.6 45.207h-1.34v.489h1.34v-.489Z"/>
  <path fill="#fff" d="m109.556 28.46.451-1.073a.107.107 0 0 1 .057-.053.104.104 0 0 1 .077 0 .1.1 0 0 1 .052.13l-.452 1.078a.099.099 0 0 1-.038.043.097.097 0 0 1-.055.016.067.067 0 0 1-.037 0 .102.102 0 0 1-.062-.057.103.103 0 0 1-.006-.042.087.087 0 0 1 .013-.041ZM111.081 28.027l-.537.54a.115.115 0 0 1-.148.012.112.112 0 0 1-.042-.052.117.117 0 0 1 .024-.126l.437-.437-.437-.44a.105.105 0 0 1-.027-.038.117.117 0 0 1 0-.091.12.12 0 0 1 .11-.07.12.12 0 0 1 .083.032l.515.526v.022l.022.122Z"/>
  <path fill="#263238" d="M101.206 44.57h-8.193V31.494h.37V44.2h7.823v.37Z"/>
  <path fill="#263238" d="m100.881 45.492 1.918-1.107-1.918-1.107v2.215Z"/>
  <path fill="#DBDBDB" d="M4.198 133.674h49.826L44.09 75.88H6.83l-2.632 57.794Z"/>
  <path fill="#A6A6A6" d="M4.198 133.674h4.37l2.45-57.794H6.831l-2.633 57.794Z"/>
  <path fill="#AD6359" d="M47.97 83.489c3.255 14.177 9.997 31.172 12.874 33.93 3.64 3.492 27.718 9.886 28.917 10.016 2.963.303 8.931-21.105 5.765-21.564-4.813-.696-22.349-1.648-23.4-2.729-1.052-1.081-8.486-10.456-16.095-20.998-5.25-7.282-10.079-7.453-8.06 1.344Z"/>
  <path fill="#AD6359" d="M87.373 126.283c.37.178 5.388 2.71 8.498 3.61 2.321.674 9.053 2.429 10.049-.052.677-1.692-3.159-3.191-5.85-4.309-1.415-.593-3.162-2.078-2.744-2.988.74-1.593 4.377 0 6.776 1.403 4.639 2.695 10.819 7.546 13.655 5.183 1.07-.892-.174-2.51-1.996-4.098 2.962 1.851 6.102 3.369 7.331 2.429.704-.537.741-1.274.345-2.115.914.297 1.718.241 2.281-.37.959-1.003.492-2.484-.559-4.006a1.142 1.142 0 0 0 .873-.574c2.029-3.099-8.145-11.996-11.659-12.826-10.367-2.462-21.257-2.003-21.257-2.003-4.047 3.273-5.75 20.709-5.743 20.716Z"/>
  <path fill="#263238" d="M102.595 116.753a17.63 17.63 0 0 1 6.905 2.659c2.622 1.733 4.362 3.758 6.565 5.802.012.01.019.026.019.042a.063.063 0 0 1-.015.043.057.057 0 0 1-.042.019.064.064 0 0 1-.044-.015c-1.048-.971-5.394-4.618-6.52-5.447a16.705 16.705 0 0 0-6.876-3.058.023.023 0 0 1-.014-.009.02.02 0 0 1-.004-.017.024.024 0 0 1 .009-.015.025.025 0 0 1 .017-.004ZM104.524 112.361c2.721.741 5.506 1.481 8.031 2.784 2.766 1.407 4.928 3.703 7.053 5.925a116.605 116.605 0 0 1 3.74 4.073c.052.059-.026.151-.082.092a160.476 160.476 0 0 0-6.664-6.665 22.179 22.179 0 0 0-7.324-4.617c-1.559-.592-3.158-1.066-4.754-1.536-.041-.015-.03-.063 0-.056ZM107.43 108.522c2.644.54 4.947 1.007 7.29 2.421 3.096 1.878 6.087 5.036 7.139 6.154a110.566 110.566 0 0 1 3.373 3.806c.045.052-.048.13-.092.078a87.435 87.435 0 0 0-8.065-7.983 17.393 17.393 0 0 0-4.506-2.932 31.22 31.22 0 0 0-5.143-1.526s-.007-.022.004-.018Z"/>
  <path fill="#BB2C75" d="m91.446 104.716-7.405 23.459s-20.046-5.724-23.697-9.675c-3.65-3.95-10.437-24.355-12.426-34.241-1.988-9.886 3.01-9.646 7.605-3.41 4.595 6.235 16.036 21.345 16.662 21.675.626.329 19.261 2.192 19.261 2.192Z"/>
  <path fill="#263238" d="M82.12 117.753c.895-2.766 1.814-5.524 2.591-8.324.452-1.592.911-3.18 1.348-4.776 0-.059-.085-.096-.107-.037-1.007 2.74-2.014 5.491-2.9 8.279-.884 2.788-1.784 5.535-2.628 8.32a78.472 78.472 0 0 0-1.293 4.787.026.026 0 0 0 .011.014.027.027 0 0 0 .034 0 .026.026 0 0 0 .011-.014c1.118-2.692 2.029-5.465 2.933-8.249Z"/>
  <path fill="#000" d="m73.932 124.947-.888-.311c-2.222-.796-4.514-1.666-6.543-2.551l-.466-.204a43.894 43.894 0 0 1-2.451-1.177l-.37-.208a13.91 13.91 0 0 1-2.474-1.625 5.114 5.114 0 0 1-.204-.189c-.063-.063-.13-.126-.185-.185-3.665-3.951-10.426-24.352-12.415-34.242-.026-.13-.051-.27-.077-.414a34.474 34.474 0 0 1-.348-2.7c-.186-3.262.777-4.713 2.28-4.695 6.38 12.649 20.198 40.755 24.141 48.501Z" opacity=".1"/>
  <path fill="#BB2C75" d="M66.398 133.673H15.71c-.56-1.022 7.75-45.423 24.855-57.927 3.792-2.773 10.52-.989 12.393 1.707 9.393 13.555 13.44 56.22 13.44 56.22Z"/>
  <path fill="#263238" d="M58.337 89.265c.467 1.683.917 3.372 1.352 5.065a40.999 40.999 0 0 0-.233-2.221c0-.041.063-.06.07 0 .182.91.284 1.836.303 2.765a249.929 249.929 0 0 1 1.482 6.143c.866 3.943 1.64 7.912 2.28 11.896.37 2.248.64 4.51 1.022 6.754 0 .041-.059.059-.066 0-.352-1.988-.819-3.965-1.252-5.924a356.206 356.206 0 0 1-1.255-5.898c-.822-3.955-1.688-7.898-2.503-11.849-.46-2.221-.885-4.461-1.344-6.69a.081.081 0 0 1 .106-.068.08.08 0 0 1 .038.027Z"/>
  <path fill="#AD6359" d="M34.807 80.134c-8.186 8.764-27.655 41.658-21.342 47.722 6.313 6.065 41.34-2.099 51.167-6.786 2.925-1.393-8.198-19.643-11.638-20.069-2.862-.37-17.505 6.343-17.928 5.503-.48-.952 2.848-7.061 6.369-19.784 4.076-14.67-3.014-10.46-6.628-6.586ZM67.553 95.112c7.113-.99 9.09-.152 14.651-4.177 3.647-2.64 6.898-1.444 4.814 2.751-3.403 6.865-12.315 10.071-15.722 10.293l-3.743-8.867Z"/>
  <path fill="#AD6359" d="M48.655 101.961s7.994-4.443 15.47-6.246c5.183-1.248 16.72-2.71 27.77 8.686 2.62 2.703 4.442 8.416-1.445 5.554-4.18-2.029-6.216-4.58-8.864-5.321 0 0 1.452 7.539-1.359 10.06-1.259 1.111-4.758 4.121-7.816 6.061a14.49 14.49 0 0 1-1.266-1.358s-2.847 2.106-8.209 1.595l-14.28-19.031Z"/>
  <path fill="#AD6359" d="M69.249 95.31c2.473 1.293 7.668 4.11 11.108 7.895 3.828 4.202 10.067 13.329 6.934 16.124-2.295 2.048-4.983-1.225-4.983-1.225s1.784 4.313-.696 5.713c-2.259 1.27-4.188-1.389-4.188-1.389s.633 2.807-1.777 3.61c-2.903.974-3.751-5.065-7.539-6.62-.848-.352 1.14-24.108 1.14-24.108Z"/>
  <path fill="#263238" d="M75.248 106.508c2.125 1.596 6.024 6.45 7.101 11.478.026.115-.048.196-.093.096a55.867 55.867 0 0 0-7.034-11.541v-.012a.037.037 0 0 1 .006-.01.036.036 0 0 1 .008-.008.022.022 0 0 1 .011-.003ZM71.115 110.496c1.692 1.562 5.488 6.749 6.406 11.885.022.115-.056.189-.096.089a60.004 60.004 0 0 0-6.35-11.941c-.019-.026.018-.052.04-.033ZM81.59 104.586c2.318.685 3.828 1.822 5.783 3.181.96.685 1.958 1.316 2.988 1.888.945.511 2.337 1.285 3.333.485.563-.444.552-1.255.43-1.896a9.329 9.329 0 0 0-1.274-2.636c-.023-.03.03-.07.051-.037a13.071 13.071 0 0 1 1.393 2.348c.251.568.325 1.199.21 1.81-.34 1.278-1.85 1.444-2.917 1.111a10.25 10.25 0 0 1-1.822-.881 26.062 26.062 0 0 1-1.647-1.037c-1.111-.741-2.159-1.551-3.251-2.307a30.351 30.351 0 0 0-3.333-1.933c-.022-.04.011-.107.056-.096Z"/>
  <path fill="#263238" d="M86.444 112.743c-.6-1.322-3.847-6.827-4.902-8.101a.035.035 0 0 1-.005-.022.032.032 0 0 1 .01-.02.028.028 0 0 1 .021-.009.033.033 0 0 1 .022.006c1.807 1.711 4.713 6.262 5.387 7.72.674 1.459 1.44 3.281 1.44 4.888 0 2.421-1.606 2.88-2.199 2.999a3.152 3.152 0 0 1-2.062-.337 6.35 6.35 0 0 1-1.851-1.755c-.026-.033.018-.082.044-.048.84.955 2.222 1.896 3.55 1.725a2.229 2.229 0 0 0 1.5-.811 2.838 2.838 0 0 0 .37-1.951c-.125-1.499-.707-2.925-1.325-4.284Z"/>
  <path fill="#BB2C75" d="m48.655 101.96 11.212 23.586s-43.854 9.853-47.638 2.222c-3.784-7.632 13.248-37.519 20.93-46.213 7.684-8.693 11.108-6.153 9.068 3.203-2.04 9.357-7.02 21.975-7.02 21.975l13.448-4.773Z"/>
  <path fill="#263238" d="M21.878 113.002a51.52 51.52 0 0 1 6.394-3.754 49.668 49.668 0 0 1 6.802-2.729c1.329-.44 2.67-.811 4.013-1.196.041 0 .056.052.019.067a63.532 63.532 0 0 0-6.872 2.673 193.089 193.089 0 0 0-6.635 3.103c-1.24.607-2.451 1.274-3.673 1.925-.056.03-.1-.063-.048-.089Z"/>
  <path fill="#263238" d="M48.54 101.891c-.222.059-12.218 4.017-12.588 4.202.048-.181 2.199-6.557 2.521-7.49.033-.096.06-.189.093-.281.218-.419.437-.834.64-1.256.26-.548.515-1.092.77-1.64 0 0-.018-.03-.026 0-.28.533-.56 1.068-.836 1.603-.13.245-.248.496-.37.74.21-.658.41-1.321.614-1.984.322-1.059.611-2.125.896-3.195 0-.034-.04-.045-.052 0-.637 1.851-1.333 3.703-1.973 5.554-.64 1.851-3.11 8.705-3.092 8.697.019-.007 13.211-4.661 13.466-4.765a.097.097 0 0 0 .061-.124.095.095 0 0 0-.049-.056.093.093 0 0 0-.075-.005ZM49.347 117.278c-1.233-2.632-2.447-5.276-3.78-7.864a233.553 233.553 0 0 0-2.277-4.406c-.03-.056-.126 0-.104.044 1.137 2.692 2.281 5.387 3.536 8.027 1.255 2.64 2.48 5.262 3.766 7.872a89.974 89.974 0 0 0 2.325 4.38c0 .03.063 0 .052-.026-1.044-2.728-2.274-5.376-3.518-8.027Z"/>
  <path fill="#263238" d="M60.433 125.917c-.437-.741-.993-1.774-1.463-2.481-.122-.185-.266-.148-.166.048.333.659.61 1.4.94 2.077-.615.123-1.233.234-1.851.371l-2.13.426c-1.396.283-2.794.556-4.19.818-2.832.523-5.67.986-8.517 1.388a167.272 167.272 0 0 1-17.25 1.618c-1.614.06-3.232.089-4.847.067a46.953 46.953 0 0 1-4.772-.23c-.041 0-.052.067 0 .078 1.367.288 2.755.467 4.15.537 1.464.074 2.928.104 4.392.089 2.913-.033 5.827-.222 8.73-.489a204.561 204.561 0 0 0 17.18-2.314c1.597-.281 3.19-.581 4.777-.9.8-.163 1.6-.322 2.399-.5.8-.177 2.692-.481 2.618-.603Z"/>
  <path fill="#AD6359" d="M50.103 86.406c-3.058-.018-6.95-5.639-8.038-9.697-.074-.277 3.332-9.849 3.802-11.815.097-.403 11.608 5.987 11.608 5.987s-2.222 3.829-3.021 7.265c-.067.285-1.396 8.275-4.351 8.26Z"/>
  <path fill="#263238" d="M53.042 78.871c.4.11.81.184 1.222.223.048-.241.093-.445.122-.6a.064.064 0 0 1 0-.022.25.25 0 0 1 0-.052c0-.06.023-.126.037-.19a.08.08 0 0 1 0-.036v-.052a20.57 20.57 0 0 1 .693-2.262 35.728 35.728 0 0 1 2.047-4.488c.152-.285.248-.455.27-.5l-.303-.174-.404-.222h-.018l-.27-.144-.334-.19a6.394 6.394 0 0 1-.307-.166l-.06-.033c-.125-.07-.262-.14-.403-.222l-.092-.048-.4-.222-.211-.112-.652-.37-.496-.27-.422-.23-1.444-.777-.467-.252c-.57-.304-1.129-.6-1.666-.877-.122-.063-.24-.13-.37-.186l-.237-.126-.282-.144-.61-.31-.37-.186a15.453 15.453 0 0 0-.512-.248c-.081-.045-.159-.078-.233-.111a9.706 9.706 0 0 0-.566-.252l-.1-.044c-.086 3.332.17 12.11 6.838 13.895Z"/>
  <path fill="#AD6359" d="M49.321 50.083c-2.725 3.836-4.58 16.921-2.462 20.683 3.073 5.454 10.156 8.238 15.307 4.073 4.99-4.036 7.109-21.134 4.55-24.763-3.77-5.35-13.366-5.665-17.395.007Z"/>
  <path fill="#263238" d="M59.078 61.628c0-.037-.074.03-.078.067-.104.885-.37 1.88-1.207 2.055-.026 0-.03.051 0 .051.996.008 1.333-1.321 1.285-2.173Z"/>
  <path fill="#263238" d="M58.43 60.592c-1.4-.315-1.929 2.51-.63 2.803 1.3.292 1.804-2.54.63-2.803ZM63.891 62.672c0-.033.06.056.052.09-.192.87-.263 1.899.474 2.336.022 0 0 .059 0 .048-.959-.326-.848-1.692-.526-2.474Z"/>
  <path fill="#263238" d="M64.843 61.895c1.426.156 1.007 3-.315 2.855-1.321-.144-.88-2.988.315-2.855ZM57.556 59.092c.392-.04.781-.1 1.167-.182.42-.007.825-.151 1.155-.41a.607.607 0 0 0 .037-.741c-.352-.456-.922-.5-1.463-.434a2.221 2.221 0 0 0-1.429.708.647.647 0 0 0 .533 1.059ZM66.202 60.677a10.44 10.44 0 0 1-1.07-.504 1.91 1.91 0 0 1-.993-.718.607.607 0 0 1 .17-.722c.467-.337 1.026-.218 1.53 0 .512.203.93.588 1.174 1.081a.648.648 0 0 1-.811.863ZM56.523 69.54c.17.245.33.567.64.652.327.054.662.039.982-.044a.03.03 0 0 1 .033.002.03.03 0 0 1 .008.01.03.03 0 0 1-.011.04 1.199 1.199 0 0 1-1.2.27.959.959 0 0 1-.544-.903c-.004-.056.055-.06.092-.026Z"/>
  <path fill="#263238" d="M57.934 67.093a3.028 3.028 0 0 0 1.74 1.7c.34.133.698.216 1.062.248a.997.997 0 0 0 .208 0h.2a.226.226 0 0 0 .21-.163.398.398 0 0 0 0-.093v-.077c.145-.67.271-1.707.271-1.707.226.166 1.374.966 1.422.61.37-2.962.781-6.22.53-9.23a.086.086 0 0 0-.084-.068.085.085 0 0 0-.083.068c-.467 2.818-.437 5.698-.863 8.534a5.354 5.354 0 0 0-1.326-.688c-.1 0-.207 2.007-.296 2.303v.03c-1.159-.067-1.947-.567-2.903-1.533-.055-.06-.13-.011-.088.066Z"/>
  <path fill="#263238" d="M60.403 68.627a3.595 3.595 0 0 1-1.621.829 1.61 1.61 0 0 1-.978-.118c-.663-.315-.56-.96-.33-1.482.127-.277.285-.54.47-.78a4.647 4.647 0 0 0 2.46 1.55Z"/>
  <path fill="#FF99BA" d="M58.782 69.456a1.61 1.61 0 0 1-.978-.118c-.663-.315-.56-.96-.33-1.482.734.215 1.382.863 1.308 1.6Z"/>
  <path fill="#BB2C75" d="M56.294 65.29a3.81 3.81 0 1 1 4.968-3.398 3.817 3.817 0 0 1-4.035 3.57 4.044 4.044 0 0 1-.933-.171Zm2.173-6.771A3.299 3.299 0 1 0 56.45 64.8a3.299 3.299 0 0 0 2.017-6.282ZM64.883 66.927c-1.388-.448-2.191-2.273-1.81-4.225a4.557 4.557 0 0 1 1.303-2.458 2.373 2.373 0 0 1 3.988.781c.38.871.477 1.84.278 2.77-.404 2.062-1.981 3.495-3.514 3.191-.085-.015-.163-.037-.245-.059Zm1.796-6.868a1.51 1.51 0 0 0-.185-.048 2.025 2.025 0 0 0-1.77.607 4.044 4.044 0 0 0-1.151 2.184c-.348 1.785.389 3.44 1.651 3.703 1.263.263 2.57-1.004 2.918-2.792a4.006 4.006 0 0 0-.24-2.455 2.083 2.083 0 0 0-1.223-1.2Z"/>
  <path fill="#BB2C75" d="m61.052 62.302-.248-.448c.662-.37 2.099-.74 2.821.407l-.433.27c-.645-1.036-2.081-.262-2.14-.229ZM44.205 60l-.4-.315c.148-.189 1.48-1.818 2.625-1.781 1.077.037 7.653 1.977 7.935 2.062l-.145.489c-1.884-.56-6.975-2.014-7.805-2.04-.759-.026-1.855 1.137-2.21 1.585Z"/>
  <path fill="#263238" d="M67.31 56.1c-4.988 1.822-9.665-4.072-9.665-4.072a4.766 4.766 0 0 1-5.431 1.718s-2.677 6.971-4.566 6.472c-2.88-.74-1.262-10.782.14-12.474 1.404-1.693 3.978-1.556 3.978-1.556s.562-1.447 2.695-2.354c2.359-1.004 8.638 2.773 8.638 2.773a6.539 6.539 0 0 1 2.344-1.907 1.85 1.85 0 0 1 2.522.903 4.376 4.376 0 0 0-1.145 1.593c-.88 2.018.837 2.455 1.311.544a3.051 3.051 0 0 0-.166-2.137c1.17-1.029 2.654-1.08 3.332-.196 1.192 1.6.163 9.183-3.988 10.693Z"/>
  <path fill="#AD6359" d="M48.607 61.006s-1.559-4.888-3.703-4.443c-2.144.444-1.833 6.909.06 8.368a2.276 2.276 0 0 0 3.276-.26l.367-3.665Z"/>
  <path fill="#263238" d="M45.049 58.407a.034.034 0 0 0-.035.017.034.034 0 0 0 .005.038c1.31 1.074 1.67 2.71 1.774 4.321-.274-.692-.789-1.185-1.696-.885-.048 0-.03.09 0 .093a1.403 1.403 0 0 1 1.33.925c.161.457.273.93.332 1.411.03.156.293.16.29 0v-.04c.647-1.911-.008-5.047-2-5.88Z"/>
  <path fill="#EBEBEB" d="m54.605 77.442-2.029 5.88-9.849-9.172-2.591 2.944s8.786 14.677 8.841 14.014l3.873-6.339 3.47 4.462-.148-9.275-1.567-2.514Z"/>
  <path fill="#263238" d="M56.486 83.8c-.11-1.807-.018-1.944-.214-3.747a.061.061 0 0 0-.123 0c-.37 1.744-.063 6.968-.077 8.627l-.019-.019c-.181-.192-3.154-3.94-3.195-3.88-.656.992-3.721 5.632-3.873 6.046-1.389-2.332-6.717-10.808-8.36-13.014a.064.064 0 0 0-.112.063c1.226 2.462 8.276 13.873 8.383 13.844.074.055 3.68-5.64 4.014-6.698.644.8 3.65 5.013 3.665 4.746.073-1.99.043-3.982-.089-5.968ZM0 133.673l18.75-.092 18.75-.03 37.5-.063 37.5.06 18.75.033 18.75.092-18.75.089-18.75.034-37.5.063-37.5-.063-18.75-.034L0 133.673Z"/>
  <path fill="#455A64" d="M114.966 132.704H64.029v2.285h50.937v-2.285Z"/>
  <path fill="#263238" d="M114.966 132.704H89.329v2.285h25.637v-2.285Z"/>
  <path fill="#455A64" d="M92.087 134.988h49.641l6.49-33.716h-49.64l-6.491 33.716Z"/>
  <path fill="#EBEBEB" d="M117.132 118.13a2.721 2.721 0 0 0 1.629 2.799c.355.153.739.229 1.126.223a3.37 3.37 0 0 0 3.287-3.022 2.712 2.712 0 0 0-.696-2.134 2.728 2.728 0 0 0-2.062-.887 3.36 3.36 0 0 0-3.284 3.021Z"/>
  <path fill="#263238" d="m144.057 122.881-2.332 12.104h-38.493l40.825-12.104Z"/>
  <path fill="#455A64" d="M26.442 143.164h-9.309v1.451h9.309v-1.451Z"/>
  <path fill="#263238" d="M26.442 143.164h-9.309v.959h9.309v-.959Z"/>
  <path fill="#455A64" d="M6.084 139.257a5.27 5.27 0 0 0 5.232 2.244c.323-.061.639-.153.944-.274.464-.179.906-.41 1.318-.689l-1.184-1.755c-.22.153-.453.286-.697.396-2.221 1.004-3.62-.74-3.898-1.14-1.274-1.796-1.733-5.891-.437-7.468.085-.115.455-.3 1.958.018.274.063.59.134.944.23.276.094.562.157.852.185l.037-1.055.104-1.048c-.096-.019-.248-.063-.444-.119a13.184 13.184 0 0 0-2.118-.436c-1.111-.115-2.259 0-2.962.888-2.1 2.573-1.248 7.776.351 10.023Z"/>
  <path fill="#263238" d="M12.401 138.783c-.22.153-.452.286-.696.396l.563 2.048a6.626 6.626 0 0 0 1.318-.689l-1.185-1.755ZM8.702 128.346l.626 2.243c.274.063.588.134.944.23.275.095.561.157.851.185l.037-1.055.104-1.048c-.096-.018-.248-.063-.444-.118a13.079 13.079 0 0 0-2.118-.437Z"/>
  <path fill="#455A64" d="M34.172 125.617s-1.11 9.49-3.047 13.485c-1.937 3.995-4.621 4.443-6.294 4.443h-6.088c-1.67 0-4.365-.444-6.294-4.443-1.93-3.999-3.044-13.485-3.044-13.485h24.767Z"/>
  <path fill="#fff" d="M32.35 131.815a.6.6 0 1 1 0-1.198.6.6 0 0 1 0 1.198Zm0-1.084a.487.487 0 0 0-.344.835.487.487 0 0 0 .833-.35.487.487 0 0 0-.302-.45.477.477 0 0 0-.187-.035Zm-17.646-1.981a.602.602 0 0 1-.43-1.023.598.598 0 0 1 .924.089.601.601 0 0 1-.494.934Zm0-1.085a.483.483 0 0 0-.455.3.489.489 0 1 0 .455-.3Zm.88 9.827a.602.602 0 0 1-.592-.715.598.598 0 0 1 .818-.44.596.596 0 0 1 .371.555.602.602 0 0 1-.596.6Zm0-1.085a.489.489 0 1 0-.009.978.489.489 0 0 0 .01-.978Zm-4.864-9.224a.6.6 0 0 1-.551-.368.594.594 0 0 1 .434-.812.594.594 0 1 1 .116 1.18Zm0-1.081a.488.488 0 1 0 0 .977.488.488 0 0 0 0-.977Zm8.308 4.795a.6.6 0 0 1-.55-.368.595.595 0 0 1 .778-.779.596.596 0 0 1-.228 1.147Zm0-1.081a.488.488 0 1 0-.008.977.488.488 0 0 0 .008-.977Zm6.48 7.424a.598.598 0 0 1-.58-.715.596.596 0 1 1 .58.715Zm0-1.081a.487.487 0 0 0-.344.835.487.487 0 0 0 .833-.35.488.488 0 0 0-.302-.45.478.478 0 0 0-.187-.035Zm-3.962-8.976a.6.6 0 0 1-.55-.368.594.594 0 0 1 .434-.812.594.594 0 1 1 .116 1.18Zm0-1.081a.488.488 0 1 0 0 .976.488.488 0 0 0 0-.976Zm-.74 8.75a.598.598 0 0 1-.581-.715.594.594 0 0 1 .47-.466.595.595 0 1 1 .11 1.181Zm0-1.085a.486.486 0 0 0-.48.584.486.486 0 0 0 .384.384.488.488 0 0 0 .584-.48.491.491 0 0 0-.488-.492v.004Zm-5.925 8.219a.592.592 0 0 1-.55-.368.594.594 0 0 1 .434-.812.594.594 0 1 1 .131 1.18h-.015Zm0-1.084a.482.482 0 0 0-.438.314.489.489 0 1 0 .453-.314h-.015Zm14.5-12.823a.592.592 0 0 1-.551-.368.594.594 0 0 1 .435-.812.597.597 0 0 1 .543 1.001.593.593 0 0 1-.412.179h-.015Zm0-1.084a.488.488 0 1 0 .015 0h-.015Zm-16.625 6.231a.598.598 0 0 1-.58-.715.597.597 0 0 1 1.18.119.602.602 0 0 1-.6.596Zm0-1.085a.487.487 0 0 0-.451.302.49.49 0 1 0 .451-.302Zm12.219-.7a.6.6 0 0 1-.551-.368.593.593 0 0 1 .434-.812.594.594 0 1 1 .109 1.18h.008Zm0-1.084a.486.486 0 0 0-.48.584.49.49 0 0 0 .968-.096.494.494 0 0 0-.496-.488h.008Zm-4.162 10.737a.597.597 0 0 1-.417-1.019.599.599 0 0 1 .917.092c.065.098.1.213.1.331a.603.603 0 0 1-.607.589l.007.007Zm0-1.081a.488.488 0 1 0 .489.485.48.48 0 0 0-.306-.458.479.479 0 0 0-.19-.034l.007.007Zm5.02 3.236a.588.588 0 0 1-.332-.097.59.59 0 0 1-.26-.609.602.602 0 0 1 .464-.474.599.599 0 0 1 .615.249.597.597 0 0 1 .102.331.595.595 0 0 1-.596.593l.008.007Zm0-1.085a.494.494 0 0 0-.459.295.489.489 0 1 0 .937.19.486.486 0 0 0-.485-.492l.008.007Zm3.57-7.846a.6.6 0 0 1-.55-.368.594.594 0 0 1 .434-.812.594.594 0 0 1 .712.584.602.602 0 0 1-.603.589l.007.007Zm0-1.084a.488.488 0 1 0 .485.488.49.49 0 0 0-.492-.496l.007.008Zm.533 6.453a.601.601 0 0 1-.592-.714.598.598 0 0 1 .817-.44.597.597 0 0 1 .371.554.599.599 0 0 1-.596.6Zm0-1.085a.488.488 0 1 0 .489.485.487.487 0 0 0-.489-.481v-.004Z"/>
</svg>
