<svg width="237" height="216" viewBox="0 0 237 216" fill="none" xmlns="http://www.w3.org/2000/svg">
<path d="M35.4768 197.397C81.5558 221.472 156.275 221.472 202.354 197.397C248.433 173.322 248.439 134.29 202.354 110.215C156.27 86.1399 81.5558 86.1399 35.4768 110.215C-10.6022 134.29 -10.6076 173.322 35.4768 197.397Z" fill="#F5F5F5"/>
<path d="M154.927 191.306C168.823 191.306 180.088 185.938 180.088 179.315C180.088 172.693 168.823 167.324 154.927 167.324C141.032 167.324 129.767 172.693 129.767 179.315C129.767 185.938 141.032 191.306 154.927 191.306Z" fill="#EBEBEB"/>
<path d="M199.5 163.96C210.22 163.96 218.911 159.818 218.911 154.709C218.911 149.6 210.22 145.458 199.5 145.458C188.779 145.458 180.088 149.6 180.088 154.709C180.088 159.818 188.779 163.96 199.5 163.96Z" fill="#EBEBEB"/>
<path d="M61.1473 152.118C60.0512 146.33 56.0396 138.082 51.1456 133.484C46.438 129.067 39.4505 127.527 36.6665 129.566C33.8825 131.605 35.7074 136.011 41.1111 141.382C47.2107 147.437 58.9223 164.24 61.1473 173.76V152.118Z" fill="#BB2C75"/>
<g opacity="0.2">
<path opacity="0.2" d="M61.1473 152.118C60.0512 146.33 56.0396 138.082 51.1456 133.484C46.438 129.067 39.4505 127.527 36.6665 129.566C33.8825 131.605 35.7074 136.011 41.1111 141.382C47.2107 147.437 58.9223 164.24 61.1473 173.76V152.118Z" fill="black"/>
</g>
<path d="M61.1465 166.043C61.0779 166.042 61.012 166.016 60.9614 165.969C60.9109 165.923 60.8792 165.859 60.8725 165.791C59.4915 151.213 49.298 134.827 39.499 131.412C39.4306 131.387 39.3746 131.337 39.3429 131.271C39.3112 131.206 39.3062 131.131 39.3292 131.062C39.354 130.993 39.4045 130.937 39.47 130.905C39.5355 130.874 39.6108 130.869 39.6799 130.892C49.8405 134.427 60.0066 150.714 61.4315 165.741C61.4377 165.814 61.4154 165.886 61.3693 165.942C61.3233 165.998 61.2571 166.035 61.1849 166.043H61.1465Z" fill="white"/>
<path d="M61.147 180.759C61.147 180.759 59.2508 182.272 52.9265 181.68C46.6021 181.088 43.3413 176.567 43.3413 174.627C43.3413 172.686 49.156 172.352 50.4165 167.54C49.1343 168.915 47.4286 169.82 45.5718 170.111C42.2836 170.73 39.642 169.678 38.8912 163.688C40.5119 163.925 42.1653 163.788 43.7249 163.288C46.3281 162.449 46.9474 161.019 46.2678 160.712C45.5883 160.405 41.9602 160.712 39.6366 159.829C37.3129 158.947 39.0885 146.846 40.6121 145.986C42.1356 145.126 49.3423 147.153 50.7453 148.239C51.9948 149.203 53.7485 150.875 52.9374 154.409C53.8982 153.511 54.6471 152.41 55.1296 151.187C55.8091 149.543 56.3024 149.926 57.3217 150.557C57.9338 150.902 58.4651 151.374 58.8801 151.941C59.295 152.508 59.584 153.157 59.7276 153.845C59.9742 155.379 59.5742 160.673 57.4149 162.394C57.4149 162.394 59.4865 162.657 61.1799 159.161C61.1799 159.161 64.4681 160.487 65.2135 162.635C65.9588 164.784 66.7699 175.301 61.147 180.759Z" fill="#BB2C75"/>
<path d="M61.7062 181.953C61.6392 181.952 61.5746 181.928 61.5243 181.883C61.4741 181.839 61.4413 181.778 61.4321 181.712C59.9853 169.869 50.9811 154.31 42.1522 148.468C42.0911 148.427 42.0488 148.364 42.0344 148.292C42.02 148.22 42.0348 148.145 42.0755 148.084C42.1162 148.023 42.1794 147.981 42.2514 147.967C42.3233 147.952 42.398 147.967 42.4591 148.008C51.3976 153.954 60.5443 169.672 61.9747 181.646C61.984 181.718 61.9645 181.791 61.9203 181.848C61.8761 181.906 61.8109 181.944 61.739 181.953H61.7062Z" fill="white"/>
<path d="M62.2608 183.608C61.9338 183.382 61.6644 183.082 61.474 182.732C61.2837 182.383 61.1778 181.994 61.1647 181.597V50.665C61.1871 50.253 61.3065 49.8521 61.5131 49.495C61.7198 49.1378 62.0079 48.8346 62.3539 48.6099L144.56 1.13887C144.903 0.923352 145.299 0.805578 145.704 0.798219C146.11 0.79086 146.51 0.894192 146.861 1.0971C147.212 1.30001 147.501 1.59482 147.697 1.94981C147.893 2.30479 147.989 2.70653 147.974 3.1118L64.5625 183.564C64.2094 183.752 63.8169 183.854 63.4169 183.861C63.017 183.869 62.6209 183.782 62.2608 183.608Z" fill="#E0E0E0"/>
<path d="M63.3727 53.1541L96.7646 31.3039L94.5395 30.016L62.3369 48.6109C61.9908 48.8356 61.7027 49.1389 61.496 49.496C61.2894 49.8531 61.17 50.254 61.1476 50.666V51.8662L63.3727 53.1541Z" fill="#37474F"/>
<path opacity="0.2" d="M63.3727 53.1541L96.7646 31.3039L94.5395 30.016L62.3369 48.6109C61.9908 48.8356 61.7027 49.1389 61.496 49.496C61.2894 49.8531 61.17 50.254 61.1476 50.666V51.8662L63.3727 53.1541Z" fill="#37474F"/>
<path d="M74.5251 57.0061L61.4927 49.5089C61.2804 49.8624 61.1616 50.2641 61.1475 50.6762V181.586C61.1333 181.991 61.2297 182.392 61.4262 182.746C61.6228 183.1 61.912 183.394 62.263 183.596C62.6139 183.799 63.0133 183.901 63.4183 183.894C63.8233 183.886 64.2186 183.769 64.5617 183.553L74.5251 177.826V57.0061Z" fill="#263238"/>
<path opacity="0.4" d="M74.5251 57.0061L61.4927 49.5089C61.2804 49.8624 61.1616 50.2641 61.1475 50.6762V181.586C61.1333 181.991 61.2297 182.392 61.4262 182.746C61.6228 183.1 61.912 183.394 62.263 183.596C62.6139 183.799 63.0133 183.901 63.4183 183.894C63.8233 183.886 64.2186 183.769 64.5617 183.553L74.5251 177.826V57.0061Z" fill="#263238"/>
<path d="M64.5621 183.564L146.768 136.093C147.114 135.868 147.402 135.565 147.608 135.208C147.815 134.851 147.935 134.45 147.957 134.038V3.11147C147.957 2.35518 147.409 2.04828 146.768 2.42642L64.5621 49.8974C64.216 50.1221 63.9279 50.4254 63.7212 50.7825C63.5146 51.1397 63.3952 51.5406 63.3728 51.9526V182.879C63.3728 183.635 63.9044 183.942 64.5621 183.564Z" fill="#455A64"/>
<path opacity="0.1" d="M64.5621 183.564L146.768 136.093C147.114 135.868 147.402 135.565 147.608 135.208C147.815 134.851 147.935 134.45 147.957 134.038V3.11147C147.957 2.35518 147.409 2.04828 146.768 2.42642L64.5621 49.8974C64.216 50.1221 63.9279 50.4254 63.7212 50.7825C63.5146 51.1397 63.3952 51.5406 63.3728 51.9526V182.879C63.3728 183.635 63.9044 183.942 64.5621 183.564Z" fill="#455A64"/>
<path d="M70.2012 82.1942L89.9305 70.795C91.2404 70.0387 92.3036 70.5758 92.3036 71.9952C92.245 72.7922 91.9997 73.5641 91.5874 74.2487C91.1752 74.9332 90.6076 75.5111 89.9305 75.9356L70.2012 87.3348C68.8859 88.0911 67.8282 87.554 67.8282 86.1346C67.8855 85.3373 68.1303 84.5648 68.5426 83.8801C68.955 83.1953 69.5233 82.6177 70.2012 82.1942Z" fill="#BB2C75"/>
<path d="M70.2012 90.2839L83.2609 82.7429C84.5707 81.9866 85.6339 82.5237 85.6339 83.9431C85.5754 84.74 85.33 85.512 84.9178 86.1965C84.5056 86.8811 83.938 87.459 83.2609 87.8835L70.2012 95.4245C68.8859 96.1808 67.8282 95.6437 67.8282 94.2243C67.8855 93.427 68.1303 92.6545 68.5426 91.9698C68.955 91.285 69.5233 90.7074 70.2012 90.2839Z" fill="#BB2C75"/>
<path d="M68.7763 104.127L71.3302 102.653C71.8782 102.351 72.2783 102.598 72.2783 103.201V106.149C72.2605 106.478 72.1654 106.799 72.0006 107.085C71.8359 107.37 71.6062 107.613 71.3302 107.793L68.7763 109.246C68.2283 109.552 67.8282 109.306 67.8282 108.698V105.749C67.8498 105.424 67.9466 105.108 68.1112 104.826C68.2757 104.545 68.5034 104.305 68.7763 104.127Z" fill="#BB2C75"/>
<path opacity="0.2" d="M68.7763 104.127L71.3302 102.653C71.8782 102.351 72.2783 102.598 72.2783 103.201V106.149C72.2605 106.478 72.1654 106.799 72.0006 107.085C71.8359 107.37 71.6062 107.613 71.3302 107.793L68.7763 109.246C68.2283 109.552 67.8282 109.306 67.8282 108.698V105.749C67.8498 105.424 67.9466 105.108 68.1112 104.826C68.2757 104.545 68.5034 104.305 68.7763 104.127Z" fill="black"/>
<path d="M68.7763 114.413L71.3302 112.939C71.8782 112.632 72.2783 112.879 72.2783 113.487V116.435C72.2592 116.764 72.1635 117.084 71.9989 117.37C71.8343 117.655 71.6053 117.898 71.3302 118.079L68.7763 119.554C68.2283 119.855 67.8282 119.608 67.8282 119.006V116.057C67.8451 115.728 67.9399 115.407 68.1047 115.121C68.2695 114.835 68.4996 114.593 68.7763 114.413Z" fill="#BB2C75"/>
<g opacity="0.2">
<path opacity="0.2" d="M68.7763 114.413L71.3302 112.939C71.8782 112.632 72.2783 112.879 72.2783 113.487V116.435C72.2592 116.764 72.1635 117.084 71.9989 117.37C71.8343 117.655 71.6053 117.898 71.3302 118.079L68.7763 119.554C68.2283 119.855 67.8282 119.608 67.8282 119.006V116.057C67.8451 115.728 67.9399 115.407 68.1047 115.121C68.2695 114.835 68.4996 114.593 68.7763 114.413Z" fill="black"/>
</g>
<path d="M75.693 111.707L91.1257 102.79C91.7833 102.412 92.315 102.681 92.315 103.393C92.2852 103.791 92.162 104.177 91.9554 104.519C91.7488 104.861 91.4645 105.149 91.1257 105.36L75.693 114.277C75.0353 114.655 74.5037 114.387 74.5037 113.674C74.5335 113.276 74.6567 112.89 74.8633 112.548C75.0699 112.207 75.3542 111.918 75.693 111.707Z" fill="#BB2C75"/>
<path opacity="0.2" d="M75.693 111.707L91.1257 102.79C91.7833 102.412 92.315 102.681 92.315 103.393C92.2852 103.791 92.162 104.177 91.9554 104.519C91.7488 104.861 91.4645 105.149 91.1257 105.36L75.693 114.277C75.0353 114.655 74.5037 114.387 74.5037 113.674C74.5335 113.276 74.6567 112.89 74.8633 112.548C75.0699 112.207 75.3542 111.918 75.693 111.707Z" fill="black"/>
<path d="M68.7763 124.695L71.3302 123.22C71.8782 122.914 72.2783 123.16 72.2783 123.769V126.717C72.2596 127.046 72.1642 127.366 71.9995 127.652C71.8349 127.937 71.6056 128.18 71.3302 128.361L68.7763 129.835C68.2283 130.137 67.8282 129.89 67.8282 129.287V126.339C67.8451 126.009 67.9399 125.689 68.1047 125.403C68.2695 125.117 68.4996 124.874 68.7763 124.695Z" fill="#E0E0E0"/>
<path d="M75.693 121.986L91.1257 113.081C91.7833 112.703 92.315 112.971 92.315 113.684C92.286 114.082 92.1632 114.468 91.9565 114.81C91.7498 115.152 91.4651 115.44 91.1257 115.651L75.693 124.568C75.0353 124.946 74.5037 124.677 74.5037 123.965C74.5318 123.565 74.6542 123.177 74.8609 122.833C75.0676 122.489 75.3527 122.199 75.693 121.986Z" fill="#F0F0F0"/>
<path d="M68.7763 135.003L71.3302 133.528C71.8782 133.221 72.2783 133.468 72.2783 134.076V137.025C72.2596 137.354 72.1642 137.674 71.9995 137.96C71.8349 138.245 71.6056 138.488 71.3302 138.669L68.7763 140.143C68.2283 140.445 67.8282 140.198 67.8282 139.595V136.647C67.8451 136.317 67.9399 135.997 68.1047 135.711C68.2695 135.425 68.4996 135.182 68.7763 135.003Z" fill="#E0E0E0"/>
<path d="M75.693 132.295L91.1257 123.384C91.7833 123.001 92.315 123.275 92.315 123.982C92.286 124.381 92.1632 124.768 91.9566 125.11C91.7499 125.453 91.4652 125.743 91.1257 125.955L75.693 134.866C75.0353 135.244 74.5037 134.975 74.5037 134.263C74.5335 133.865 74.6567 133.479 74.8633 133.137C75.0699 132.795 75.3542 132.507 75.693 132.295Z" fill="#F0F0F0"/>
<path d="M68.7763 145.284L71.3302 143.81C71.8782 143.503 72.2783 143.75 72.2783 144.358V147.307C72.2596 147.636 72.1642 147.956 71.9995 148.241C71.8349 148.527 71.6056 148.77 71.3302 148.951L68.7763 150.425C68.2283 150.726 67.8282 150.48 67.8282 149.877V146.928C67.8451 146.599 67.9399 146.278 68.1047 145.992C68.2695 145.707 68.4996 145.464 68.7763 145.284Z" fill="#E0E0E0"/>
<path d="M75.693 142.577L91.1257 133.666C91.7833 133.282 92.315 133.556 92.315 134.263C92.286 134.663 92.1632 135.049 91.9566 135.392C91.7499 135.735 91.4652 136.024 91.1257 136.236L75.693 145.147C75.0353 145.525 74.5037 145.257 74.5037 144.544C74.5335 144.146 74.6567 143.761 74.8633 143.419C75.0699 143.077 75.3542 142.789 75.693 142.577Z" fill="#F0F0F0"/>
<path d="M69.012 155.401L79.9727 149.06C80.6304 148.682 81.162 148.95 81.162 149.663C81.1322 150.061 81.009 150.447 80.8024 150.788C80.5957 151.13 80.3115 151.419 79.9727 151.63L69.012 157.971C68.3598 158.349 67.8282 158.08 67.8282 157.373C67.857 156.975 67.9791 156.589 68.1847 156.246C68.3904 155.903 68.6738 155.614 69.012 155.401Z" fill="#BB2C75"/>
<path d="M69.012 160.541L91.1253 147.778C91.7829 147.4 92.3145 147.668 92.3145 148.375C92.2856 148.774 92.1628 149.161 91.9561 149.504C91.7495 149.847 91.4648 150.136 91.1253 150.348L69.012 163.112C68.3598 163.49 67.8282 163.221 67.8282 162.514C67.857 162.116 67.9791 161.729 68.1847 161.387C68.3904 161.044 68.6738 160.754 69.012 160.541Z" fill="#BB2C75"/>
<path opacity="0.8" d="M69.012 160.541L91.1253 147.778C91.7829 147.4 92.3145 147.668 92.3145 148.375C92.2856 148.774 92.1628 149.161 91.9561 149.504C91.7495 149.847 91.4648 150.136 91.1253 150.348L69.012 163.112C68.3598 163.49 67.8282 163.221 67.8282 162.514C67.857 162.116 67.9791 161.729 68.1847 161.387C68.3904 161.044 68.6738 160.754 69.012 160.541Z" fill="white"/>
<path d="M69.012 160.542L84.4502 151.631C85.1023 151.253 85.6339 151.522 85.6339 152.234C85.6043 152.632 85.4818 153.017 85.2762 153.359C85.0706 153.7 84.7877 153.989 84.4502 154.201L69.012 163.113C68.3598 163.491 67.8282 163.222 67.8282 162.515C67.857 162.117 67.9791 161.73 68.1847 161.387C68.3904 161.045 68.6738 160.755 69.012 160.542Z" fill="#BB2C75"/>
<path d="M69.012 165.692L79.9727 159.351C80.6304 158.973 81.162 159.242 81.162 159.954C81.1322 160.353 81.009 160.738 80.8024 161.08C80.5957 161.422 80.3115 161.71 79.9727 161.922L69.012 168.263C68.3598 168.641 67.8282 168.372 67.8282 167.665C67.857 167.267 67.9791 166.88 68.1847 166.538C68.3904 166.195 68.6738 165.905 69.012 165.692Z" fill="#BB2C75"/>
<path d="M75.693 101.419L91.1257 92.5084C91.7833 92.1302 92.315 92.3988 92.315 93.1112C92.2852 93.5095 92.162 93.8952 91.9554 94.237C91.7488 94.5788 91.4645 94.8672 91.1257 95.0787L75.693 103.99C75.0353 104.368 74.5037 104.099 74.5037 103.392C74.5327 102.993 74.6555 102.606 74.8621 102.264C75.0688 101.921 75.3535 101.632 75.693 101.419Z" fill="#BB2C75"/>
<path opacity="0.2" d="M75.693 101.419L91.1257 92.5084C91.7833 92.1302 92.315 92.3988 92.315 93.1112C92.2852 93.5095 92.162 93.8952 91.9554 94.237C91.7488 94.5788 91.4645 94.8672 91.1257 95.0787L75.693 103.99C75.0353 104.368 74.5037 104.099 74.5037 103.392C74.5327 102.993 74.6555 102.606 74.8621 102.264C75.0688 101.921 75.3535 101.632 75.693 101.419Z" fill="black"/>
<path d="M69.012 165.692L79.9727 159.351C80.6304 158.973 81.162 159.242 81.162 159.954C81.1322 160.353 81.009 160.738 80.8024 161.08C80.5957 161.422 80.3115 161.71 79.9727 161.922L69.012 168.263C68.3598 168.641 67.8282 168.372 67.8282 167.665C67.857 167.267 67.9791 166.88 68.1847 166.538C68.3904 166.195 68.6738 165.905 69.012 165.692Z" fill="#BB2C75"/>
<path d="M69.012 170.818L91.1253 158.054C91.7829 157.676 92.3145 157.945 92.3145 158.652C92.2856 159.051 92.1628 159.438 91.9561 159.781C91.7495 160.123 91.4648 160.413 91.1253 160.625L69.012 173.366C68.3598 173.75 67.8282 173.476 67.8282 172.769C67.8603 172.374 67.984 171.992 68.1895 171.654C68.395 171.315 68.6766 171.029 69.012 170.818Z" fill="#BB2C75"/>
<path opacity="0.8" d="M69.012 170.818L91.1253 158.054C91.7829 157.676 92.3145 157.945 92.3145 158.652C92.2856 159.051 92.1628 159.438 91.9561 159.781C91.7495 160.123 91.4648 160.413 91.1253 160.625L69.012 173.366C68.3598 173.75 67.8282 173.476 67.8282 172.769C67.8603 172.374 67.984 171.992 68.1895 171.654C68.395 171.315 68.6766 171.029 69.012 170.818Z" fill="white"/>
<path d="M69.012 170.817L88.9002 159.308C89.5579 158.93 90.0895 159.199 90.0895 159.911C90.0597 160.309 89.9365 160.695 89.7299 161.037C89.5233 161.379 89.239 161.667 88.9002 161.878L69.012 173.387C68.3598 173.771 67.8282 173.497 67.8282 172.79C67.857 172.391 67.9791 172.005 68.1847 171.662C68.3904 171.319 68.6738 171.03 69.012 170.817Z" fill="#BB2C75"/>
<path d="M146.778 2.42658L96.7641 31.3027V164.969L146.778 136.098C147.124 135.874 147.412 135.57 147.619 135.213C147.825 134.856 147.945 134.455 147.967 134.043V3.11162C147.962 2.37725 147.414 2.04843 146.778 2.42658Z" fill="#EBEBEB"/>
<path opacity="0.6" d="M146.778 2.42658L96.7641 31.3027V164.969L146.778 136.098C147.124 135.874 147.412 135.57 147.619 135.213C147.825 134.856 147.945 134.455 147.967 134.043V3.11162C147.962 2.37725 147.414 2.04843 146.778 2.42658Z" fill="#FAFAFA"/>
<path d="M96.7648 36.4445V46.7256L92.3147 51.8662H96.7648V62.1474L143.512 35.1566V9.45361L96.7648 36.4445Z" fill="#BB2C75"/>
<g opacity="0.6">
<path opacity="0.6" d="M102.88 36.8004L121.82 25.8396C122.736 25.2916 123.465 25.741 123.465 26.7987C123.434 27.3734 123.27 27.933 122.984 28.4327C122.699 28.9323 122.3 29.3581 121.82 29.6759L102.88 40.6092C101.96 41.1573 101.236 40.7079 101.236 39.6502C101.269 39.0799 101.435 38.5253 101.721 38.0305C102.006 37.5357 102.403 37.1145 102.88 36.8004Z" fill="white"/>
</g>
<path d="M101.812 45.1249L138.47 23.9597C138.799 23.7733 139.062 23.9049 139.062 24.2611C139.048 24.4605 138.987 24.6537 138.884 24.8251C138.781 24.9965 138.639 25.1412 138.47 25.2476L101.812 46.3854C101.483 46.5717 101.22 46.4402 101.22 46.0839C101.238 45.8893 101.301 45.7016 101.404 45.5353C101.507 45.3689 101.646 45.2285 101.812 45.1249Z" fill="#BB2C75"/>
<path d="M101.812 45.1249L138.47 23.9597C138.799 23.7733 139.062 23.9049 139.062 24.2611C139.048 24.4605 138.987 24.6537 138.884 24.8251C138.781 24.9965 138.639 25.1412 138.47 25.2476L101.812 46.3854C101.483 46.5717 101.22 46.4402 101.22 46.0839C101.238 45.8893 101.301 45.7016 101.404 45.5353C101.507 45.3689 101.646 45.2285 101.812 45.1249Z" fill="#BB2C75"/>
<path opacity="0.6" d="M101.812 45.1249L138.47 23.9597C138.799 23.7733 139.062 23.9049 139.062 24.2611C139.048 24.4605 138.987 24.6537 138.884 24.8251C138.781 24.9965 138.639 25.1412 138.47 25.2476L101.812 46.3854C101.483 46.5717 101.22 46.4402 101.22 46.0839C101.238 45.8893 101.301 45.7016 101.404 45.5353C101.507 45.3689 101.646 45.2285 101.812 45.1249Z" fill="white"/>
<path d="M101.812 48.9597L138.47 27.7945C138.799 27.6027 139.062 27.7397 139.062 28.0959C139.048 28.2946 138.987 28.487 138.884 28.6575C138.781 28.8281 138.639 28.9718 138.47 29.0769L101.812 50.2421C101.483 50.4339 101.22 50.2969 101.22 49.9407C101.234 49.742 101.295 49.5496 101.398 49.3791C101.501 49.2085 101.643 49.0648 101.812 48.9597Z" fill="#BB2C75"/>
<path opacity="0.6" d="M101.812 48.9597L138.47 27.7945C138.799 27.6027 139.062 27.7397 139.062 28.0959C139.048 28.2946 138.987 28.487 138.884 28.6575C138.781 28.8281 138.639 28.9718 138.47 29.0769L101.812 50.2421C101.483 50.4339 101.22 50.2969 101.22 49.9407C101.234 49.742 101.295 49.5496 101.398 49.3791C101.501 49.2085 101.643 49.0648 101.812 48.9597Z" fill="white"/>
<path opacity="0.6" d="M101.812 52.7968L138.47 31.6316C138.799 31.4452 139.062 31.5768 139.062 31.933C139.048 32.1324 138.987 32.3256 138.884 32.497C138.781 32.6684 138.639 32.8131 138.47 32.9194L101.812 54.0847C101.483 54.271 101.22 54.1395 101.22 53.7832C101.234 53.5838 101.295 53.3906 101.398 53.2192C101.501 53.0478 101.643 52.9031 101.812 52.7968Z" fill="white"/>
<path d="M103.193 63.5946L105.763 62.1149C106.311 61.808 106.711 62.0547 106.711 62.663V65.6114C106.693 65.9406 106.598 66.2608 106.433 66.5464C106.268 66.832 106.039 67.0749 105.763 67.2555L103.209 68.7298C102.661 69.0312 102.261 68.7846 102.261 68.1817V65.2388C102.276 64.9108 102.369 64.5909 102.53 64.3053C102.692 64.0196 102.919 63.7761 103.193 63.5946Z" fill="#BB2C75"/>
<path opacity="0.2" d="M103.193 63.5946L105.763 62.1149C106.311 61.808 106.711 62.0547 106.711 62.663V65.6114C106.693 65.9406 106.598 66.2608 106.433 66.5464C106.268 66.832 106.039 67.0749 105.763 67.2555L103.209 68.7298C102.661 69.0312 102.261 68.7846 102.261 68.1817V65.2388C102.276 64.9108 102.369 64.5909 102.53 64.3053C102.692 64.0196 102.919 63.7761 103.193 63.5946Z" fill="white"/>
<path d="M110.109 60.886L125.542 51.9694C126.199 51.5912 126.731 51.8598 126.731 52.5722C126.701 52.9705 126.578 53.3562 126.371 53.698C126.165 54.0398 125.88 54.3282 125.542 54.5397L110.109 63.4562C109.451 63.8344 108.92 63.5659 108.92 62.8534C108.949 62.4551 109.073 62.0694 109.279 61.7276C109.486 61.3858 109.77 61.0975 110.109 60.886Z" fill="#BB2C75"/>
<path opacity="0.8" d="M110.109 60.886L125.542 51.9694C126.199 51.5912 126.731 51.8598 126.731 52.5722C126.701 52.9705 126.578 53.3562 126.371 53.698C126.165 54.0398 125.88 54.3282 125.542 54.5397L110.109 63.4562C109.451 63.8344 108.92 63.5659 108.92 62.8534C108.949 62.4551 109.073 62.0694 109.279 61.7276C109.486 61.3858 109.77 61.0975 110.109 60.886Z" fill="white"/>
<path d="M102.837 72.8002L141.748 50.3307C142.076 50.1389 142.34 50.2759 142.34 50.6266C142.326 50.8261 142.265 51.0195 142.162 51.191C142.059 51.3624 141.917 51.5071 141.748 51.6131L102.837 74.0826C102.508 74.2744 102.245 74.1374 102.245 73.7812C102.259 73.5825 102.32 73.3901 102.423 73.2196C102.526 73.049 102.668 72.9053 102.837 72.8002Z" fill="#BB2C75"/>
<path d="M102.837 76.6533L141.748 54.1838C142.076 53.9975 142.34 54.129 142.34 54.4852C142.325 54.6846 142.264 54.8778 142.162 55.0492C142.059 55.2206 141.917 55.3654 141.748 55.4717L102.837 77.9412C102.508 78.1276 102.245 77.996 102.245 77.6398C102.259 77.4404 102.32 77.2472 102.423 77.0758C102.526 76.9044 102.668 76.7597 102.837 76.6533Z" fill="#BB2C75"/>
<path d="M102.837 80.5115L141.748 58.042C142.076 57.8502 142.34 57.9872 142.34 58.3379C142.326 58.5374 142.265 58.7308 142.162 58.9023C142.059 59.0737 141.917 59.2184 141.748 59.3244L102.837 81.7939C102.508 81.9857 102.245 81.8487 102.245 81.498C102.259 81.2985 102.32 81.1051 102.423 80.9336C102.525 80.7622 102.667 80.6175 102.837 80.5115Z" fill="#BB2C75"/>
<path d="M102.837 84.3746L141.748 61.9051C142.076 61.7188 142.34 61.8503 142.34 62.2065C142.325 62.4059 142.264 62.5991 142.162 62.7705C142.059 62.9419 141.917 63.0867 141.748 63.193L102.837 85.6625C102.508 85.8489 102.245 85.7173 102.245 85.3611C102.259 85.1617 102.32 84.9685 102.423 84.7971C102.526 84.6257 102.668 84.481 102.837 84.3746Z" fill="#BB2C75"/>
<path d="M102.837 72.8002L141.748 50.3307C142.076 50.1389 142.34 50.2759 142.34 50.6266C142.326 50.8261 142.265 51.0195 142.162 51.191C142.059 51.3624 141.917 51.5071 141.748 51.6131L102.837 74.0826C102.508 74.2744 102.245 74.1374 102.245 73.7812C102.259 73.5825 102.32 73.3901 102.423 73.2196C102.526 73.049 102.668 72.9053 102.837 72.8002Z" fill="#E0E0E0"/>
<path d="M102.837 76.6533L141.748 54.1838C142.076 53.9975 142.34 54.129 142.34 54.4852C142.325 54.6846 142.264 54.8778 142.162 55.0492C142.059 55.2206 141.917 55.3654 141.748 55.4717L102.837 77.9412C102.508 78.1276 102.245 77.996 102.245 77.6398C102.259 77.4404 102.32 77.2472 102.423 77.0758C102.526 76.9044 102.668 76.7597 102.837 76.6533Z" fill="#E0E0E0"/>
<path d="M102.837 80.5115L141.748 58.042C142.076 57.8502 142.34 57.9872 142.34 58.3379C142.326 58.5374 142.265 58.7308 142.162 58.9023C142.059 59.0737 141.917 59.2184 141.748 59.3244L102.837 81.7939C102.508 81.9857 102.245 81.8487 102.245 81.498C102.259 81.2985 102.32 81.1051 102.423 80.9336C102.525 80.7622 102.667 80.6175 102.837 80.5115Z" fill="#E0E0E0"/>
<path d="M102.837 84.3746L141.748 61.9051C142.076 61.7188 142.34 61.8503 142.34 62.2065C142.325 62.4059 142.264 62.5991 142.162 62.7705C142.059 62.9419 141.917 63.0867 141.748 63.193L102.837 85.6625C102.508 85.8489 102.245 85.7173 102.245 85.3611C102.259 85.1617 102.32 84.9685 102.423 84.7971C102.526 84.6257 102.668 84.481 102.837 84.3746Z" fill="#E0E0E0"/>
<path opacity="0.8" d="M102.837 72.8002L141.748 50.3307C142.076 50.1389 142.34 50.2759 142.34 50.6266C142.326 50.8261 142.265 51.0195 142.162 51.191C142.059 51.3624 141.917 51.5071 141.748 51.6131L102.837 74.0826C102.508 74.2744 102.245 74.1374 102.245 73.7812C102.259 73.5825 102.32 73.3901 102.423 73.2196C102.526 73.049 102.668 72.9053 102.837 72.8002Z" fill="#E0E0E0"/>
<path opacity="0.8" d="M102.837 76.6533L141.748 54.1838C142.076 53.9975 142.34 54.129 142.34 54.4852C142.325 54.6846 142.264 54.8778 142.162 55.0492C142.059 55.2206 141.917 55.3654 141.748 55.4717L102.837 77.9412C102.508 78.1276 102.245 77.996 102.245 77.6398C102.259 77.4404 102.32 77.2472 102.423 77.0758C102.526 76.9044 102.668 76.7597 102.837 76.6533Z" fill="#E0E0E0"/>
<path opacity="0.8" d="M102.837 80.5115L141.748 58.042C142.076 57.8502 142.34 57.9872 142.34 58.3379C142.326 58.5374 142.265 58.7308 142.162 58.9023C142.059 59.0737 141.917 59.2184 141.748 59.3244L102.837 81.7939C102.508 81.9857 102.245 81.8487 102.245 81.498C102.259 81.2985 102.32 81.1051 102.423 80.9336C102.525 80.7622 102.667 80.6175 102.837 80.5115Z" fill="#E0E0E0"/>
<path opacity="0.8" d="M102.837 84.3746L141.748 61.9051C142.076 61.7188 142.34 61.8503 142.34 62.2065C142.325 62.4059 142.264 62.5991 142.162 62.7705C142.059 62.9419 141.917 63.0867 141.748 63.193L102.837 85.6625C102.508 85.8489 102.245 85.7173 102.245 85.3611C102.259 85.1617 102.32 84.9685 102.423 84.7971C102.526 84.6257 102.668 84.481 102.837 84.3746Z" fill="#E0E0E0"/>
<path d="M102.837 100.75L141.748 78.2807C142.076 78.0889 142.34 78.2259 142.34 78.5767C142.326 78.7762 142.265 78.9696 142.162 79.141C142.059 79.3125 141.917 79.4572 141.748 79.5631L102.837 102.033C102.508 102.224 102.245 102.087 102.245 101.731C102.259 101.533 102.32 101.34 102.423 101.17C102.526 100.999 102.668 100.855 102.837 100.75Z" fill="#E0E0E0"/>
<path d="M102.837 104.603L141.748 82.1338C142.076 81.9475 142.34 82.079 142.34 82.4352C142.325 82.6346 142.264 82.8278 142.162 82.9992C142.059 83.1706 141.917 83.3154 141.748 83.4217L102.837 105.891C102.508 106.078 102.245 105.946 102.245 105.59C102.259 105.39 102.32 105.197 102.423 105.026C102.526 104.854 102.668 104.71 102.837 104.603Z" fill="#E0E0E0"/>
<path d="M102.837 108.461L141.748 85.991C142.076 85.7992 142.34 85.9362 142.34 86.2869C142.326 86.4864 142.265 86.6798 142.162 86.8513C142.059 87.0228 141.917 87.1674 141.748 87.2734L102.837 109.743C102.508 109.935 102.245 109.798 102.245 109.447C102.259 109.248 102.32 109.054 102.423 108.883C102.525 108.711 102.667 108.567 102.837 108.461Z" fill="#E0E0E0"/>
<path d="M102.837 112.324L141.748 89.8541C142.076 89.6678 142.34 89.7993 142.34 90.1556C142.325 90.3549 142.264 90.5482 142.162 90.7196C142.059 90.891 141.917 91.0357 141.748 91.142L102.837 113.612C102.508 113.798 102.245 113.666 102.245 113.31C102.259 113.111 102.32 112.918 102.423 112.746C102.526 112.575 102.668 112.43 102.837 112.324Z" fill="#E0E0E0"/>
<path opacity="0.8" d="M102.837 100.75L141.748 78.2807C142.076 78.0889 142.34 78.2259 142.34 78.5767C142.326 78.7762 142.265 78.9696 142.162 79.141C142.059 79.3125 141.917 79.4572 141.748 79.5631L102.837 102.033C102.508 102.224 102.245 102.087 102.245 101.731C102.259 101.533 102.32 101.34 102.423 101.17C102.526 100.999 102.668 100.855 102.837 100.75Z" fill="#E0E0E0"/>
<path opacity="0.8" d="M102.837 104.603L141.748 82.1338C142.076 81.9475 142.34 82.079 142.34 82.4352C142.325 82.6346 142.264 82.8278 142.162 82.9992C142.059 83.1706 141.917 83.3154 141.748 83.4217L102.837 105.891C102.508 106.078 102.245 105.946 102.245 105.59C102.259 105.39 102.32 105.197 102.423 105.026C102.526 104.854 102.668 104.71 102.837 104.603Z" fill="#E0E0E0"/>
<path opacity="0.8" d="M102.837 108.461L141.748 85.991C142.076 85.7992 142.34 85.9362 142.34 86.2869C142.326 86.4864 142.265 86.6798 142.162 86.8513C142.059 87.0228 141.917 87.1674 141.748 87.2734L102.837 109.743C102.508 109.935 102.245 109.798 102.245 109.447C102.259 109.248 102.32 109.054 102.423 108.883C102.525 108.711 102.667 108.567 102.837 108.461Z" fill="#E0E0E0"/>
<path opacity="0.8" d="M102.837 112.324L141.748 89.8541C142.076 89.6678 142.34 89.7993 142.34 90.1556C142.325 90.3549 142.264 90.5482 142.162 90.7196C142.059 90.891 141.917 91.0357 141.748 91.142L102.837 113.612C102.508 113.798 102.245 113.666 102.245 113.31C102.259 113.111 102.32 112.918 102.423 112.746C102.526 112.575 102.668 112.43 102.837 112.324Z" fill="#E0E0E0"/>
<path d="M102.837 129.249L141.748 106.779C142.076 106.587 142.34 106.724 142.34 107.075C142.326 107.275 142.265 107.468 142.162 107.639C142.059 107.811 141.917 107.956 141.748 108.062L102.837 130.531C102.508 130.723 102.245 130.586 102.245 130.23C102.259 130.031 102.32 129.839 102.423 129.668C102.526 129.498 102.668 129.354 102.837 129.249Z" fill="#E0E0E0"/>
<path d="M102.837 133.102L141.748 110.632C142.076 110.446 142.34 110.577 142.34 110.934C142.325 111.133 142.264 111.326 142.162 111.498C142.059 111.669 141.917 111.814 141.748 111.92L102.837 134.39C102.508 134.576 102.245 134.444 102.245 134.088C102.259 133.889 102.32 133.696 102.423 133.524C102.526 133.353 102.668 133.208 102.837 133.102Z" fill="#E0E0E0"/>
<path d="M102.837 136.959L141.748 114.489C142.076 114.298 142.34 114.435 142.34 114.785C142.326 114.985 142.265 115.178 142.162 115.35C142.059 115.521 141.917 115.666 141.748 115.772L102.837 138.241C102.508 138.433 102.245 138.296 102.245 137.945C102.259 137.746 102.32 137.553 102.423 137.381C102.525 137.21 102.667 137.065 102.837 136.959Z" fill="#E0E0E0"/>
<path d="M102.837 140.822L141.748 118.353C142.076 118.166 142.34 118.298 142.34 118.654C142.325 118.853 142.264 119.047 142.162 119.218C142.059 119.389 141.917 119.534 141.748 119.64L102.837 142.11C102.508 142.296 102.245 142.165 102.245 141.809C102.259 141.609 102.32 141.416 102.423 141.245C102.526 141.073 102.668 140.928 102.837 140.822Z" fill="#E0E0E0"/>
<path opacity="0.8" d="M102.837 129.249L141.748 106.779C142.076 106.587 142.34 106.724 142.34 107.075C142.326 107.275 142.265 107.468 142.162 107.639C142.059 107.811 141.917 107.956 141.748 108.062L102.837 130.531C102.508 130.723 102.245 130.586 102.245 130.23C102.259 130.031 102.32 129.839 102.423 129.668C102.526 129.498 102.668 129.354 102.837 129.249Z" fill="#E0E0E0"/>
<path opacity="0.8" d="M102.837 133.102L141.748 110.632C142.076 110.446 142.34 110.577 142.34 110.934C142.325 111.133 142.264 111.326 142.162 111.498C142.059 111.669 141.917 111.814 141.748 111.92L102.837 134.39C102.508 134.576 102.245 134.444 102.245 134.088C102.259 133.889 102.32 133.696 102.423 133.524C102.526 133.353 102.668 133.208 102.837 133.102Z" fill="#E0E0E0"/>
<path opacity="0.8" d="M102.837 136.959L141.748 114.489C142.076 114.298 142.34 114.435 142.34 114.785C142.326 114.985 142.265 115.178 142.162 115.35C142.059 115.521 141.917 115.666 141.748 115.772L102.837 138.241C102.508 138.433 102.245 138.296 102.245 137.945C102.259 137.746 102.32 137.553 102.423 137.381C102.525 137.21 102.667 137.065 102.837 136.959Z" fill="#E0E0E0"/>
<path opacity="0.8" d="M102.837 140.822L141.748 118.353C142.076 118.166 142.34 118.298 142.34 118.654C142.325 118.853 142.264 119.047 142.162 119.218C142.059 119.389 141.917 119.534 141.748 119.64L102.837 142.11C102.508 142.296 102.245 142.165 102.245 141.809C102.259 141.609 102.32 141.416 102.423 141.245C102.526 141.073 102.668 140.928 102.837 140.822Z" fill="#E0E0E0"/>
<path d="M103.193 91.8675L105.763 90.3933C106.311 90.0919 106.711 90.3385 106.711 90.9413V93.9007C106.694 94.2302 106.6 94.551 106.435 94.8367C106.27 95.1225 106.04 95.3652 105.763 95.5448L103.209 97.0191C102.661 97.3205 102.261 97.0793 102.261 96.471V93.5226C102.275 93.1928 102.367 92.871 102.529 92.5833C102.691 92.2957 102.918 92.0504 103.193 91.8675Z" fill="#BB2C75"/>
<path opacity="0.2" d="M103.193 91.8675L105.763 90.3933C106.311 90.0919 106.711 90.3385 106.711 90.9413V93.9007C106.694 94.2302 106.6 94.551 106.435 94.8367C106.27 95.1225 106.04 95.3652 105.763 95.5448L103.209 97.0191C102.661 97.3205 102.261 97.0793 102.261 96.471V93.5226C102.275 93.1928 102.367 92.871 102.529 92.5833C102.691 92.2957 102.918 92.0504 103.193 91.8675Z" fill="white"/>
<path d="M110.109 89.1593L125.542 80.2482C126.199 79.87 126.731 80.1386 126.731 80.8455C126.702 81.2448 126.579 81.6316 126.372 81.9744C126.166 82.3172 125.881 82.6064 125.542 82.8185L110.109 91.7076C109.451 92.0858 108.92 91.8172 108.92 91.1103C108.952 90.7148 109.076 90.3324 109.283 89.9937C109.489 89.6549 109.772 89.3691 110.109 89.1593Z" fill="#BB2C75"/>
<path opacity="0.8" d="M110.109 89.1593L125.542 80.2482C126.199 79.87 126.731 80.1386 126.731 80.8455C126.702 81.2448 126.579 81.6316 126.372 81.9744C126.166 82.3172 125.881 82.6064 125.542 82.8185L110.109 91.7076C109.451 92.0858 108.92 91.8172 108.92 91.1103C108.952 90.7148 109.076 90.3324 109.283 89.9937C109.489 89.6549 109.772 89.3691 110.109 89.1593Z" fill="white"/>
<path d="M103.193 120.146L105.763 118.671C106.311 118.364 106.711 118.611 106.711 119.219V122.168C106.694 122.497 106.599 122.818 106.434 123.103C106.27 123.389 106.04 123.632 105.763 123.812L103.209 125.286C102.661 125.588 102.261 125.341 102.261 124.738V121.79C102.276 121.462 102.369 121.142 102.53 120.856C102.692 120.571 102.919 120.327 103.193 120.146Z" fill="#BB2C75"/>
<path opacity="0.2" d="M103.193 120.146L105.763 118.671C106.311 118.364 106.711 118.611 106.711 119.219V122.168C106.694 122.497 106.599 122.818 106.434 123.103C106.27 123.389 106.04 123.632 105.763 123.812L103.209 125.286C102.661 125.588 102.261 125.341 102.261 124.738V121.79C102.276 121.462 102.369 121.142 102.53 120.856C102.692 120.571 102.919 120.327 103.193 120.146Z" fill="white"/>
<path d="M110.109 117.465L125.542 108.549C126.199 108.171 126.731 108.439 126.731 109.152C126.702 109.551 126.579 109.937 126.372 110.28C126.165 110.623 125.881 110.912 125.542 111.125L110.109 120.036C109.451 120.414 108.92 120.145 108.92 119.433C108.949 119.035 109.073 118.649 109.279 118.307C109.486 117.965 109.77 117.677 110.109 117.465Z" fill="#BB2C75"/>
<path opacity="0.8" d="M110.109 117.465L125.542 108.549C126.199 108.171 126.731 108.439 126.731 109.152C126.702 109.551 126.579 109.937 126.372 110.28C126.165 110.623 125.881 110.912 125.542 111.125L110.109 120.036C109.451 120.414 108.92 120.145 108.92 119.433C108.949 119.035 109.073 118.649 109.279 118.307C109.486 117.965 109.77 117.677 110.109 117.465Z" fill="white"/>
<path d="M106.827 145.038L109.381 143.564C109.929 143.262 110.335 143.509 110.335 144.112V147.06C110.317 147.39 110.221 147.711 110.055 147.997C109.889 148.282 109.658 148.525 109.381 148.704L106.827 150.179C106.306 150.485 105.879 150.239 105.879 149.63V146.682C105.898 146.353 105.994 146.033 106.158 145.748C106.323 145.462 106.552 145.219 106.827 145.038Z" fill="#BB2C75"/>
<path d="M102.837 155.055L113.376 148.972C113.705 148.785 113.968 148.917 113.968 149.273C113.953 149.473 113.893 149.666 113.79 149.837C113.687 150.009 113.545 150.153 113.376 150.26L102.837 156.343C102.508 156.529 102.245 156.398 102.245 156.042C102.259 155.842 102.32 155.649 102.423 155.478C102.526 155.306 102.668 155.161 102.837 155.055Z" fill="#E0E0E0"/>
<path d="M121.004 136.85L123.558 135.376C124.079 135.074 124.506 135.321 124.506 135.924V138.872C124.488 139.201 124.393 139.522 124.229 139.808C124.064 140.093 123.834 140.336 123.558 140.516L121.004 141.991C120.456 142.292 120.051 142.051 120.051 141.442V138.494C120.069 138.164 120.165 137.844 120.331 137.558C120.496 137.272 120.727 137.03 121.004 136.85Z" fill="#BB2C75"/>
<path d="M117.009 146.867L127.547 140.784C127.876 140.592 128.139 140.729 128.139 141.086C128.125 141.284 128.064 141.477 127.961 141.647C127.858 141.818 127.717 141.961 127.547 142.067L117.009 148.155C116.68 148.347 116.417 148.21 116.417 147.859C116.43 147.659 116.49 147.464 116.593 147.292C116.696 147.119 116.838 146.974 117.009 146.867Z" fill="#E0E0E0"/>
<path d="M135.177 128.662L137.731 127.188C138.251 126.881 138.679 127.128 138.679 127.736V130.684C138.66 131.014 138.565 131.334 138.4 131.619C138.235 131.905 138.006 132.148 137.731 132.329L135.177 133.803C134.629 134.104 134.229 133.858 134.229 133.255V130.306C134.246 129.977 134.34 129.656 134.505 129.37C134.67 129.085 134.9 128.842 135.177 128.662Z" fill="#BB2C75"/>
<path opacity="0.2" d="M106.827 145.038L109.381 143.564C109.929 143.262 110.335 143.509 110.335 144.112V147.06C110.317 147.39 110.221 147.711 110.055 147.997C109.889 148.282 109.658 148.525 109.381 148.704L106.827 150.179C106.306 150.485 105.879 150.239 105.879 149.63V146.682C105.898 146.353 105.994 146.033 106.158 145.748C106.323 145.462 106.552 145.219 106.827 145.038Z" fill="white"/>
<path opacity="0.2" d="M121.004 136.85L123.558 135.376C124.079 135.074 124.506 135.321 124.506 135.924V138.872C124.488 139.201 124.393 139.522 124.229 139.808C124.064 140.093 123.834 140.336 123.558 140.516L121.004 141.991C120.456 142.292 120.051 142.051 120.051 141.442V138.494C120.069 138.164 120.165 137.844 120.331 137.558C120.496 137.272 120.727 137.03 121.004 136.85Z" fill="white"/>
<path opacity="0.2" d="M135.177 128.662L137.731 127.188C138.251 126.881 138.679 127.128 138.679 127.736V130.684C138.66 131.014 138.565 131.334 138.4 131.619C138.235 131.905 138.006 132.148 137.731 132.329L135.177 133.803C134.629 134.104 134.229 133.858 134.229 133.255V130.306C134.246 129.977 134.34 129.656 134.505 129.37C134.67 129.085 134.9 128.842 135.177 128.662Z" fill="white"/>
<path d="M131.181 138.681L141.72 132.597C142.049 132.406 142.312 132.543 142.312 132.893C142.298 133.093 142.237 133.286 142.134 133.458C142.032 133.629 141.89 133.774 141.72 133.88L131.181 139.963C130.858 140.155 130.589 140.018 130.589 139.662C130.605 139.463 130.666 139.271 130.769 139.101C130.872 138.931 131.013 138.787 131.181 138.681Z" fill="#E0E0E0"/>
<path d="M78.9588 47.24C72.8099 50.7036 67.8282 59.3352 67.8282 66.5145C67.8282 73.6938 72.8099 76.6422 78.9588 73.091C85.1078 69.5397 90.0895 60.9136 90.0895 53.811C90.0895 46.7084 85.1023 43.771 78.9588 47.24Z" fill="#FAFAFA"/>
<path d="M84.3515 69.3639L75.4404 71.7534C75.287 71.8034 75.1235 71.8144 74.9647 71.7853C74.806 71.7562 74.657 71.6879 74.5313 71.5867C74.4055 71.4855 74.3071 71.3545 74.2448 71.2056C74.1825 71.0567 74.1583 70.8946 74.1745 70.734V55.5643C74.2059 54.3087 74.6253 53.0936 75.375 52.0859C76.1247 51.0781 77.1679 50.3271 78.3615 49.936L81.4086 49.1194C83.7268 48.5001 85.6065 50.0127 85.6065 52.4953V67.6705C85.5966 68.0475 85.4708 68.4123 85.2463 68.7153C85.0217 69.0182 84.7093 69.2447 84.3515 69.3639Z" fill="#37474F"/>
<path d="M84.7786 73.2869L83.8415 69.1492C83.8415 69.1492 83.8415 63.5647 83.0468 63.0496C82.2522 62.5344 82.022 62.4358 82.022 62.4358C83.0413 62.085 85.1896 61.822 85.8582 63.7839C86.4995 65.6363 87.4585 70.2015 87.9134 72.4484L84.7786 73.2869Z" fill="#F28F8F"/>
<path d="M84.7021 73.311L81.5235 62.4872C82.932 61.9392 84.7405 61.4843 85.6174 62.9366C86.4065 64.2409 87.667 71.075 87.9136 72.4505L84.7021 73.311Z" fill="#BB2C75"/>
<g opacity="0.4">
<path opacity="0.4" d="M84.7021 73.311L81.5235 62.4872C82.932 61.9392 84.7405 61.4843 85.6174 62.9366C86.4065 64.2409 87.667 71.075 87.9136 72.4505L84.7021 73.311Z" fill="black"/>
</g>
<path d="M85.1302 73.1956L82.0064 74.0341C82.1322 73.137 82.4279 72.2721 82.8777 71.4858C83.5029 70.5848 84.4026 69.91 85.4426 69.5621C85.2174 70.7598 85.1128 71.9771 85.1302 73.1956Z" fill="#BB2C75"/>
<path d="M85.1302 73.1956L82.0064 74.0341C82.1322 73.137 82.4279 72.2721 82.8777 71.4858C83.5029 70.5848 84.4026 69.91 85.4426 69.5621C85.2174 70.7598 85.1128 71.9771 85.1302 73.1956Z" fill="#BB2C75"/>
<g opacity="0.7">
<path opacity="0.7" d="M85.1302 73.1956L82.0064 74.0341C82.1322 73.137 82.4279 72.2721 82.8777 71.4858C83.5029 70.5848 84.4026 69.91 85.4426 69.5621C85.2174 70.7598 85.1128 71.9771 85.1302 73.1956Z" fill="black"/>
</g>
<path d="M84.4612 73.3766L75.6926 75.7168L74.7281 72.7299C74.7281 72.7299 77.2874 66.7399 74.1252 65.1999C74.5253 64.8985 77.8957 63.5832 77.8957 63.5832L81.5183 62.4871C82.2088 62.3008 84.9983 63.5394 85.7053 66.285C85.9574 67.2551 85.8697 68.1264 84.4503 73.1793C84.4667 73.2451 84.4612 73.3109 84.4612 73.3766Z" fill="#BB2C75"/>
<path d="M83.7379 50.9835C84.3408 51.2027 85.0861 52.6276 85.0149 56.0638C84.9546 58.9794 84.0777 59.9001 83.6393 60.2508C82.9826 60.5796 82.2582 60.7504 81.5239 60.7495V62.4868C81.5239 62.4868 82.6638 63.5829 82.5925 64.4159C82.5213 65.2489 80.9484 65.8408 79.8852 65.3476C79.1087 64.9098 78.4372 64.3075 77.9178 63.5829V59.5822C77.8377 59.6745 77.7401 59.7499 77.6306 59.804C77.5212 59.8582 77.402 59.89 77.2801 59.8977C77.1582 59.9053 77.036 59.8886 76.9206 59.8486C76.8052 59.8085 76.6989 59.7459 76.608 59.6644C76.4368 59.5473 76.2909 59.397 76.1789 59.2224C76.0668 59.0479 75.9909 58.8526 75.9557 58.6483C75.9204 58.4439 75.9265 58.2345 75.9736 58.0325C76.0207 57.8305 76.1078 57.64 76.2298 57.4723C76.7779 56.7544 77.7369 56.6502 78.1096 57.3682C78.5735 56.2421 79.4038 55.3056 80.4662 54.7102C82.198 53.6579 83.1406 52.7208 83.7379 50.9835Z" fill="#FFA8A7"/>
<path d="M82.0001 56.1453C82.0025 56.2492 81.9727 56.3513 81.9149 56.4376C81.857 56.5239 81.7738 56.5903 81.6768 56.6275C81.6356 56.6418 81.5915 56.6458 81.5484 56.6392C81.5053 56.6327 81.4645 56.6157 81.4294 56.5898C81.3944 56.5639 81.3661 56.5298 81.3472 56.4906C81.3282 56.4513 81.3191 56.408 81.3206 56.3645C81.3182 56.2606 81.348 56.1585 81.4059 56.0721C81.4637 55.9858 81.5469 55.9195 81.6439 55.8822C81.6851 55.8679 81.7292 55.8639 81.7723 55.8705C81.8154 55.8771 81.8562 55.8941 81.8913 55.9199C81.9264 55.9458 81.9546 55.9799 81.9736 56.0192C81.9925 56.0584 82.0016 56.1017 82.0001 56.1453Z" fill="#37474F"/>
<path d="M82.0883 58.5789L82.8775 58.6337C82.8544 58.754 82.7916 58.8631 82.6992 58.9435C82.6068 59.024 82.4902 59.0712 82.3678 59.0776C82.1486 59.0611 82.0226 58.8255 82.0883 58.5789Z" fill="#F28F8F"/>
<path d="M84.7845 54.2822L84.0995 53.9588C84.1403 53.8528 84.2188 53.7657 84.32 53.7141C84.4211 53.6625 84.5378 53.6501 84.6475 53.6793C84.6965 53.7095 84.739 53.7492 84.7725 53.796C84.806 53.8428 84.8298 53.8958 84.8426 53.952C84.8554 54.0081 84.8568 54.0662 84.8468 54.1229C84.8369 54.1796 84.8157 54.2337 84.7845 54.2822Z" fill="#37474F"/>
<path d="M81.0139 55.5643L81.699 54.8683C81.6626 54.8313 81.6189 54.8025 81.5706 54.7837C81.5223 54.7648 81.4706 54.7564 81.4188 54.759C81.3671 54.7616 81.3164 54.7751 81.2702 54.7987C81.2241 54.8222 81.1834 54.8553 81.1509 54.8957C81.0559 54.9752 80.9905 55.0846 80.9657 55.2061C80.9408 55.3275 80.9578 55.4538 81.0139 55.5643Z" fill="#37474F"/>
<path d="M84.6257 55.1821C84.6289 55.2862 84.5995 55.3886 84.5415 55.4751C84.4835 55.5616 84.3999 55.6278 84.3024 55.6644C84.2608 55.6788 84.2162 55.6828 84.1726 55.676C84.1291 55.6691 84.0879 55.6517 84.0527 55.6251C84.0175 55.5986 83.9893 55.5638 83.9708 55.5238C83.9522 55.4838 83.9437 55.4398 83.9462 55.3958C83.9446 55.2921 83.9747 55.1903 84.0325 55.1041C84.0902 55.018 84.1729 54.9515 84.2695 54.9135C84.3112 54.8991 84.3557 54.8951 84.3993 54.9019C84.4429 54.9088 84.4841 54.9262 84.5193 54.9528C84.5545 54.9793 84.5826 55.0141 84.6012 55.0541C84.6198 55.0941 84.6282 55.1381 84.6257 55.1821Z" fill="#37474F"/>
<path d="M83.025 55.4006L83.0743 57.5763L84.1539 56.9297L83.025 55.4006Z" fill="#F28F8F"/>
<path d="M81.5232 60.7492C80.6573 60.8588 78.8707 60.7876 78.5912 60.108C78.6926 60.4418 78.9155 60.7254 79.216 60.9027C79.764 61.2534 81.5232 61.3302 81.5232 61.3302V60.7492Z" fill="#F28F8F"/>
<path d="M75.7419 75.7109L75.3747 74.4066L76.3392 75.552L75.7419 75.7109Z" fill="#BB2C75"/>
<path d="M75.0236 75.9025C74.63 74.0276 74.0969 72.1847 73.4288 70.3893C72.5081 67.8628 73.5384 65.6816 74.1577 65.1994C74.7769 64.7171 77.9282 63.5826 77.9282 63.5826C79.0681 66.827 79.3805 71.173 79.4079 74.7297L75.0236 75.9025Z" fill="#BB2C75"/>
<path opacity="0.4" d="M75.0236 75.9025C74.63 74.0276 74.0969 72.1847 73.4288 70.3893C72.5081 67.8628 73.5384 65.6816 74.1577 65.1994C74.7769 64.7171 77.9282 63.5826 77.9282 63.5826C79.0681 66.827 79.3805 71.173 79.4079 74.7297L75.0236 75.9025Z" fill="black"/>
<path d="M73.4671 76.3182L70.3378 77.1567C70.2503 77.0978 70.1679 77.0318 70.0912 76.9594C70.0912 76.9594 71.5709 71.2488 72.0422 69.3526C72.5135 67.4564 72.8752 66.1521 74.1467 65.1985C76.432 66.6837 75.3743 70.8104 75.3743 70.8104L73.4671 76.3182Z" fill="#BB2C75"/>
<path opacity="0.4" d="M73.4671 76.3182L70.3378 77.1567C70.2503 77.0978 70.1679 77.0318 70.0912 76.9594C70.0912 76.9594 71.5709 71.2488 72.0422 69.3526C72.5135 67.4564 72.8752 66.1521 74.1467 65.1985C76.432 66.6837 75.3743 70.8104 75.3743 70.8104L73.4671 76.3182Z" fill="black"/>
<path d="M27.9031 39.8243V28.9677C27.8702 26.8633 29.2403 24.7533 32.0189 23.153C37.4992 19.9799 46.4103 19.9799 51.9017 23.153C54.6802 24.7533 56.0503 26.8633 56.0174 28.9677V39.786C56.0174 41.8795 54.6693 45.6226 51.9017 47.2174C46.4213 50.3905 37.5102 50.3905 32.0189 47.2174C29.2787 45.639 27.9086 41.9233 27.9031 39.8463V39.8243Z" fill="#EBEBEB"/>
<path d="M41.9609 15.4977L65.1593 28.8917L41.9609 42.2858L18.7624 28.8917L41.9609 15.4977Z" fill="#F5F5F5"/>
<path d="M30.3525 35.5819L41.7791 29.0603C41.8262 29.0333 41.8782 29.0159 41.9321 29.009C41.986 29.0021 42.0407 29.0059 42.0931 29.0201C42.1455 29.0343 42.1946 29.0588 42.2376 29.092C42.2806 29.1252 42.3166 29.1666 42.3436 29.2137C42.3705 29.2609 42.388 29.3129 42.3949 29.3667C42.4018 29.4206 42.398 29.4753 42.3837 29.5278C42.3695 29.5802 42.3451 29.6293 42.3118 29.6722C42.2786 29.7152 42.2372 29.7512 42.1901 29.7782L31.1691 36.0532L30.3525 35.5819Z" fill="#E0E0E0"/>
<path d="M65.1586 28.8896V29.8487L41.9602 43.2373V42.2837L65.1586 28.8896Z" fill="#E6E6E6"/>
<path d="M18.7619 28.8896V29.8487L41.9603 43.2373V42.2837L18.7619 28.8896Z" fill="#F0F0F0"/>
<path d="M29.7779 36.2072L30.4849 36.6127C30.5918 36.4382 30.7406 36.2931 30.9178 36.1907L31.1645 36.0482L30.3588 35.5879C30.1209 35.7478 29.9223 35.9595 29.7779 36.2072Z" fill="#E0E0E0"/>
<path d="M56.0454 35.1111L41.9608 44.6743L27.9146 35.133L41.9608 43.2385L56.0454 35.1111Z" fill="#E0E0E0"/>
<path d="M28.8732 47.4855C29.0698 47.5869 29.2878 47.6398 29.509 47.6398C29.7302 47.6398 29.9481 47.5869 30.1447 47.4855L31.1914 54.2428C31.1914 55.5197 27.8758 55.5197 27.8758 54.2428L28.8732 47.4855Z" fill="#F5F5F5"/>
<path d="M28.8131 51.3451L28.6048 55.0498C28.5365 55.0291 28.4704 55.0016 28.4075 54.9676L28.8131 51.3451Z" fill="#EBEBEB"/>
<path d="M30.3807 55.0763L29.9422 49.0479L30.5944 54.9886C30.525 55.022 30.4536 55.0513 30.3807 55.0763Z" fill="#EBEBEB"/>
<path d="M29.6354 55.196H29.4271L29.5367 50.4116L29.6354 55.196Z" fill="#EBEBEB"/>
<path d="M29.5038 48.0505C29.7467 48.0444 29.982 47.9641 30.1779 47.8203C30.2611 47.7588 30.3178 47.6678 30.3361 47.5659C30.3544 47.464 30.3331 47.3589 30.2765 47.2723C30.2167 47.187 30.126 47.1284 30.0236 47.1089C29.9213 47.0895 29.8154 47.1107 29.7285 47.1681C29.6763 47.2187 29.6065 47.247 29.5339 47.247C29.4613 47.247 29.3915 47.2187 29.3394 47.1681C29.2967 47.1302 29.2467 47.1015 29.1924 47.084C29.1381 47.0664 29.0807 47.0604 29.0239 47.0662C28.9672 47.0721 28.9122 47.0897 28.8627 47.1179C28.8131 47.1462 28.7699 47.1844 28.7359 47.2303C28.7019 47.2761 28.6778 47.3285 28.6652 47.3842C28.6526 47.4398 28.6517 47.4975 28.6626 47.5535C28.6734 47.6095 28.6959 47.6627 28.7284 47.7095C28.761 47.7564 28.8029 47.796 28.8516 47.8258C29.0402 47.9669 29.2683 48.0454 29.5038 48.0505Z" fill="#E0E0E0"/>
<path d="M29.5311 46.9988C29.5848 46.9995 29.6381 46.9896 29.688 46.9695C29.7378 46.9494 29.7832 46.9197 29.8214 46.882C29.8597 46.8442 29.89 46.7993 29.9107 46.7497C29.9315 46.7001 29.9421 46.647 29.9421 46.5932V37.0135C29.9427 36.7982 29.9996 36.5867 30.1073 36.4001C30.215 36.2136 30.3697 36.0585 30.5559 35.9504L42.1908 29.3191C42.2832 29.2662 42.3511 29.1791 42.3798 29.0765C42.4085 28.974 42.3957 28.8643 42.3442 28.7711C42.3185 28.7248 42.2839 28.684 42.2424 28.6512C42.2009 28.6184 42.1532 28.5942 42.1023 28.5799C42.0513 28.5656 41.998 28.5616 41.9454 28.5681C41.8929 28.5745 41.8422 28.5914 41.7962 28.6176L30.1339 35.2598C29.8231 35.4393 29.5648 35.6973 29.3849 36.0079C29.2051 36.3186 29.11 36.671 29.1091 37.03V46.6097C29.1112 46.663 29.1238 46.7153 29.1462 46.7637C29.1686 46.8121 29.2002 46.8556 29.2394 46.8917C29.2786 46.9279 29.3246 46.9559 29.3746 46.9743C29.4247 46.9927 29.4778 47.001 29.5311 46.9988Z" fill="#FAFAFA"/>
<path d="M30.4299 46.5924C30.431 46.4144 30.3792 46.2401 30.2811 46.0916C30.183 45.943 30.043 45.827 29.8789 45.7581C29.7147 45.6892 29.5338 45.6707 29.3591 45.7047C29.1844 45.7388 29.0238 45.8239 28.8975 45.9494C28.7713 46.0749 28.6851 46.235 28.65 46.4095C28.6149 46.584 28.6323 46.765 28.7002 46.9296C28.7681 47.0941 28.8833 47.2348 29.0312 47.3338C29.1791 47.4328 29.3531 47.4857 29.5311 47.4857C29.6489 47.4864 29.7656 47.4638 29.8746 47.4193C29.9836 47.3747 30.0828 47.309 30.1663 47.226C30.2498 47.143 30.3161 47.0442 30.3613 46.9355C30.4066 46.8268 30.4299 46.7101 30.4299 46.5924Z" fill="#F5F5F5"/>
<path d="M28.6432 46.6414C28.6807 46.7341 28.7376 46.8176 28.8103 46.8864C28.8829 46.9551 28.9695 47.0073 29.0642 47.0396C29.1588 47.0718 29.2593 47.0833 29.3588 47.0732C29.4583 47.0631 29.5544 47.0317 29.6406 46.9812C29.7507 46.9149 29.8418 46.8212 29.905 46.7094C29.9682 46.5975 30.0014 46.4712 30.0014 46.3427C30.0014 46.2142 29.9682 46.0879 29.905 45.976C29.8418 45.8641 29.7507 45.7705 29.6406 45.7042C29.8083 45.7274 29.9659 45.7976 30.0952 45.9069C30.2245 46.0161 30.32 46.1599 30.3708 46.3213C30.4215 46.4828 30.4253 46.6553 30.3818 46.8189C30.3383 46.9824 30.2492 47.1303 30.1249 47.2451C30.0006 47.36 29.8463 47.4372 29.6798 47.4678C29.5133 47.4983 29.3416 47.4809 29.1846 47.4177C29.0277 47.3544 28.8919 47.2479 28.7931 47.1104C28.6944 46.973 28.6367 46.8103 28.6268 46.6414H28.6432Z" fill="#EBEBEB"/>
<path d="M188.302 41.3054L184.065 38.8666L186.395 38.3734L188.713 39.9901L188.302 41.3054Z" fill="#E0E0E0"/>
<path d="M180.888 19.4759C180.888 12.8995 176.86 9.84693 171.911 12.7022L164.6 16.9221C159.668 19.7774 155.629 27.4718 155.629 34.0702C155.629 34.3387 155.629 34.6182 155.629 34.8539C155.629 35.0018 155.629 35.1279 155.629 35.2704C155.629 35.4129 155.656 35.528 155.667 35.654C155.678 35.7801 155.7 35.9445 155.722 36.087C155.832 36.8657 156.027 37.6302 156.303 38.3668C156.418 38.6408 156.538 38.9148 156.67 39.145C156.731 39.2721 156.8 39.3948 156.878 39.5122L156.949 39.6273C157.071 39.8236 157.213 40.0072 157.371 40.1753C157.459 40.274 157.541 40.3781 157.635 40.4713L157.92 40.7453C158.018 40.822 158.111 40.9152 158.215 40.9919C158.314 41.0712 158.418 41.1426 158.528 41.2056L158.851 41.392C159.27 41.618 159.724 41.7718 160.194 41.8468C160.23 41.838 160.267 41.838 160.303 41.8468C160.43 41.8468 160.545 41.8742 160.671 41.8742C160.804 41.8852 160.938 41.8852 161.071 41.8742C161.423 41.8781 161.774 41.8394 162.117 41.7591C162.323 41.7183 162.526 41.6671 162.726 41.6057C163.366 41.4095 163.981 41.1372 164.556 40.7946L171.867 36.5747C172.368 36.2838 172.848 35.9578 173.303 35.5992C173.303 35.5115 173.303 35.4348 173.303 35.3526C173.303 35.2704 173.303 35.095 173.303 34.9964C173.303 34.7771 173.303 34.5525 173.303 34.3278C173.286 28.7213 176.662 22.1065 180.888 19.4759Z" fill="#E0E0E0"/>
<path d="M182.12 14.7364L177.873 12.2921C177.9 12.2921 178.306 15.246 178.306 15.246L181.457 15.6187L182.12 14.7364Z" fill="#E0E0E0"/>
<path d="M162.495 43.459L158.571 41.234L160.933 40.2201L162.495 43.459Z" fill="#E0E0E0"/>
<path d="M164.599 40.8603C164.572 42.4844 164.05 44.0615 163.103 45.3816C162.928 45.6118 163.196 45.8146 163.394 45.7104C164.289 45.2456 165.083 44.6065 165.728 43.8307C166.968 42.3658 167.835 40.6228 168.255 38.7504L164.599 40.8603Z" fill="#E0E0E0"/>
<path d="M163.147 45.6995L167.395 48.1438C167.395 48.1438 169.779 46.1325 169.779 42.0606L165.17 41.7482C165.17 41.7482 165.06 44.4007 163.147 45.6995Z" fill="#E0E0E0"/>
<path d="M174.459 33.7202C174.459 33.9248 174.459 34.1221 174.459 34.3121C174.459 34.4217 174.459 34.5149 174.459 34.619C174.459 34.7231 174.459 34.8108 174.492 34.9094C174.525 35.0081 174.492 35.1287 174.53 35.2383C174.594 35.7237 174.708 36.2013 174.87 36.6632C174.894 36.7473 174.923 36.8297 174.958 36.9098C174.998 37.0199 175.044 37.1278 175.095 37.2331C175.138 37.335 175.187 37.4338 175.243 37.5291C175.286 37.6245 175.338 37.7162 175.396 37.8031L175.451 37.8908C175.548 38.0417 175.654 38.1864 175.769 38.3237C175.829 38.4036 175.895 38.4787 175.966 38.5484L176.174 38.7512C176.246 38.8178 176.321 38.8801 176.399 38.9375C176.474 38.9955 176.553 39.0486 176.635 39.0965C176.717 39.1458 176.794 39.1951 176.881 39.2389L177.134 39.3595L177.397 39.4527C177.557 39.5012 177.72 39.5415 177.884 39.5732H177.967C178.058 39.5816 178.149 39.5816 178.241 39.5732C178.339 39.5844 178.438 39.5844 178.537 39.5732C178.772 39.5732 179.007 39.5493 179.238 39.502C179.423 39.4706 179.606 39.4285 179.786 39.376C180.267 39.2285 180.729 39.0243 181.162 38.7676L186.642 35.6C187.131 35.3178 187.592 34.9893 188.018 34.619C188.171 34.4875 188.324 34.345 188.478 34.2025C188.754 33.9451 189.016 33.6725 189.262 33.3859L189.612 33.068C189.706 32.9584 189.793 32.8433 189.886 32.7283C189.909 32.6884 189.937 32.6516 189.969 32.6187C190.333 32.1362 190.67 31.6329 190.977 31.1115C191.059 30.9745 191.136 30.832 191.218 30.6896C191.3 30.5471 191.377 30.4046 191.454 30.2566C191.53 30.1086 191.602 29.9607 191.678 29.8182L191.887 29.3688C191.958 29.2208 192.024 29.0619 192.089 28.9194C192.205 28.6563 192.309 28.3714 192.402 28.1193C192.402 28.0699 192.44 28.0206 192.457 27.9713C192.517 27.8178 192.566 27.6644 192.616 27.5109C192.714 27.215 192.802 26.9191 192.89 26.6122C193.082 25.8919 193.227 25.1595 193.323 24.42C193.323 24.294 193.35 24.1734 193.366 24.0473C193.383 23.9213 193.366 23.8336 193.394 23.724C193.421 23.6144 193.394 23.5048 193.394 23.3952C193.394 23.1906 193.394 22.9878 193.394 22.7869C193.394 17.8545 190.374 15.5473 186.658 17.6901L181.178 20.8632C177.479 22.9951 174.459 28.7659 174.459 33.7202Z" fill="#E0E0E0"/>
<path d="M195.371 19.7939L191.157 17.3716L189.568 18.4951L194.484 21.4709L195.371 19.7939Z" fill="#E0E0E0"/>
<path d="M180.903 41.535L176.667 39.0962L179.988 38.1042L180.903 41.535Z" fill="#E0E0E0"/>
<path d="M185.847 36.1316C185.847 37.0085 186.943 38.2032 188.198 38.4279C188.368 38.4608 188.324 38.8334 188.121 38.9759C187.373 39.3822 186.51 39.525 185.671 39.3815C185.127 39.3652 184.596 39.2044 184.134 38.9155C183.671 38.6266 183.294 38.22 183.041 37.7373L185.847 36.1316Z" fill="#BB2C75"/>
<path d="M176.152 15.1425L168.836 19.3678C163.903 22.2231 159.87 29.9176 159.87 36.5104C159.87 36.7845 159.87 37.0585 159.87 37.2996C159.87 37.4476 159.87 37.5736 159.87 37.7161C159.87 37.8586 159.897 37.9682 159.914 38.0943C159.93 38.2203 159.946 38.3957 159.968 38.5327C160.067 39.3086 160.251 40.0713 160.516 40.8071C160.631 41.0866 160.752 41.3551 160.884 41.5908C160.944 41.7163 161.014 41.8372 161.092 41.9525C161.115 41.9925 161.14 42.0309 161.169 42.0675C161.288 42.2746 161.427 42.4693 161.585 42.6485C161.673 42.7471 161.76 42.8567 161.854 42.9444L162.133 43.2184C162.232 43.2952 162.33 43.3883 162.429 43.465C162.528 43.5431 162.633 43.6145 162.741 43.6788L163.07 43.8651C163.487 44.0903 163.939 44.2441 164.407 44.32C164.443 44.3079 164.482 44.3079 164.517 44.32C164.643 44.32 164.764 44.32 164.884 44.32C165.017 44.3281 165.151 44.3281 165.284 44.32C165.636 44.3215 165.988 44.2829 166.331 44.2049C166.536 44.1641 166.739 44.1129 166.939 44.0514C167.578 43.8536 168.192 43.5833 168.77 43.2458C168.743 44.8692 168.219 46.4453 167.268 47.7617C167.093 47.9973 167.361 48.2001 167.564 48.096C168.461 47.6307 169.255 46.9895 169.899 46.2107C171.135 44.7457 172.001 43.0053 172.425 41.1359L171.877 41.4373L176.059 39.0259C176.463 38.7927 176.853 38.5347 177.226 38.2532C177.194 38.1141 177.17 37.9732 177.155 37.8312C177.155 37.7381 177.122 37.601 177.111 37.4586C177.091 37.337 177.078 37.2144 177.073 37.0914V37.0256C177.067 36.9343 177.067 36.8428 177.073 36.7516C177.073 36.5433 177.073 36.3241 177.073 36.1049C177.073 30.5588 180.361 24.3057 184.592 21.8559L185.057 21.5819C185.014 15.2411 181.029 12.3256 176.152 15.1425Z" fill="#F0F0F0"/>
<path d="M190.922 20.1182L185.442 23.2859C181.732 25.4342 178.706 31.205 178.706 36.1593C178.706 36.3621 178.706 36.5594 178.706 36.7512C178.706 36.943 178.706 36.9539 178.706 37.0581C178.706 37.1622 178.706 37.2499 178.734 37.3485C178.743 37.457 178.757 37.565 178.778 37.6719C178.838 38.1597 178.952 38.6394 179.117 39.1023C179.138 39.1872 179.168 39.2698 179.205 39.3489C179.242 39.4575 179.286 39.5636 179.337 39.6667C179.38 39.7698 179.43 39.8704 179.485 39.9681C179.53 40.0638 179.583 40.1554 179.643 40.2422C179.656 40.2733 179.673 40.3027 179.693 40.3299C179.797 40.4833 179.901 40.6258 180.011 40.7628C180.074 40.8415 180.142 40.9165 180.213 40.9875L180.422 41.1903C180.493 41.2569 180.568 41.3191 180.646 41.3766C180.719 41.4358 180.796 41.4889 180.877 41.5355C180.959 41.5849 181.036 41.6342 181.123 41.678L181.375 41.7986L181.638 41.8918C181.799 41.9403 181.962 41.9806 182.126 42.0123H182.208C182.299 42.0207 182.391 42.0207 182.482 42.0123C182.582 42.0262 182.684 42.0262 182.784 42.0123C183.019 42.0137 183.254 41.9916 183.485 41.9466C183.67 41.9148 183.853 41.8727 184.033 41.8205C184.515 41.6752 184.977 41.4708 185.409 41.2122L187.261 40.149C187.518 40.6265 187.897 41.0276 188.359 41.3115C188.821 41.5955 189.35 41.7522 189.892 41.7657C190.731 41.9072 191.594 41.7624 192.342 41.3547C192.539 41.2286 192.588 40.856 192.413 40.8067C191.158 40.582 190.067 39.3872 190.067 38.5104L190.9 38.0281C191.388 37.7446 191.849 37.4162 192.276 37.0471C192.429 36.9156 192.583 36.7731 192.731 36.6306C193.009 36.3733 193.272 36.1007 193.52 35.814C193.618 35.6989 193.717 35.5893 193.816 35.4578C193.914 35.3263 193.997 35.2386 194.09 35.1235L194.172 35.0139C194.537 34.5314 194.874 34.0282 195.18 33.5068L195.427 33.0848C195.509 32.9423 195.586 32.7998 195.663 32.6518C195.739 32.5039 195.805 32.3559 195.882 32.2134L196.096 31.764C196.167 31.6106 196.227 31.4571 196.293 31.3146C196.408 31.0516 196.518 30.7666 196.611 30.5145L196.66 30.3665C196.72 30.2131 196.775 30.0596 196.819 29.9062C196.923 29.6048 197.005 29.3143 197.098 29.0074C197.291 28.2871 197.436 27.5548 197.531 26.8153C197.531 26.6892 197.559 26.5686 197.57 26.4426C197.581 26.3165 197.57 26.2234 197.597 26.1192C197.625 26.0151 197.597 25.9 197.597 25.7904C197.597 25.5877 197.597 25.3794 197.597 25.1766C197.657 20.2607 194.632 17.9754 190.922 20.1182Z" fill="#F0F0F0"/>
<path d="M146.893 92.6107C144.822 91.9641 142.695 93.6411 141.303 97.0279C139.911 100.415 136.99 109.03 136.557 111.326C136.124 113.623 145.923 118.621 145.649 118.489C145.375 118.358 146.893 92.6107 146.893 92.6107Z" fill="#263238"/>
<path d="M142.339 172.329C142.043 172.438 141.972 172.997 141.928 174.105C141.895 174.943 141.714 176.406 142.695 176.697C143.676 176.987 145.117 176.839 145.748 176.05C146.531 175.064 147.063 174.198 148.181 172.992C149.157 171.951 150.203 170.975 150.598 169.512C150.954 168.186 150.658 167.616 149.754 167.232C148.515 166.684 146.564 168.427 145.594 168.701C144.756 168.937 142.629 172.219 142.339 172.329Z" fill="#263238"/>
<path d="M142.339 171.304V172.663C142.849 172.989 143.439 173.17 144.044 173.187C144.65 173.203 145.248 173.054 145.775 172.756C145.836 172.624 146.132 170.81 146.132 170.81L142.339 171.304Z" fill="#FFA8A7"/>
<path d="M153.349 180.167C153.349 180.167 152.959 181.351 152.751 182.359C152.581 183.181 152.346 184.551 152.631 185.176C152.916 185.801 154.045 186.195 155.782 186.179C156.911 186.179 158.67 186.941 159.87 187.609C161.07 188.278 163.706 188.579 165.016 188.426C166.562 188.245 168.167 187.33 168.42 186.705C168.672 186.08 168.337 185.395 164.687 183.839C164.655 183.839 159.613 182.195 157.842 180.238L153.349 180.167Z" fill="#263238"/>
<path d="M153.349 178.697C153.349 178.697 153.349 179.706 153.349 180.281C153.349 180.856 154.029 181.717 155.793 181.657C157.032 181.613 157.892 181.278 157.843 180.259V178.785L153.349 178.697Z" fill="#FFA8A7"/>
<path d="M141.451 153.257C141.754 150.848 142.292 148.475 143.057 146.17C143.057 146.17 142.575 140.06 142.339 134.267C142.087 128.009 142.339 120.139 142.235 118.582C142.235 118.582 162.43 114.494 162.792 121.728C163.154 128.962 161.992 147.376 161.756 150.555C161.52 153.733 160.967 156.545 160.309 161.696C159.652 166.848 157.843 178.784 157.843 178.784C157.145 179.14 156.369 179.318 155.585 179.303C154.801 179.288 154.033 179.079 153.349 178.697C153.349 178.697 151.93 164.228 152.078 160.562C152.193 157.839 152.661 155.142 153.47 152.539L152.752 141.386C152.412 136.196 152.056 133.714 151.974 131.45L151.541 131.231C151.541 131.231 151.097 140.186 150.861 143.365C150.625 146.543 150.116 149.59 149.217 155.493C148.417 160.611 146.044 171.446 146.044 171.446C143.737 172.696 142.361 171.287 142.361 171.287C142.361 171.287 140.837 157.696 141.451 153.257Z" fill="#455A64"/>
<path d="M151.974 131.467C151.974 131.467 147.074 129.05 144.624 126.874C144.624 126.874 146.899 130.08 149.891 131.505C149.891 131.505 150.954 142.625 150.949 142.406L151.563 131.445L151.974 131.467Z" fill="#37474F"/>
<path d="M156.336 90.3198L155.141 96.8963L149.201 96.4633L150.445 89.0045L156.336 90.3198Z" fill="#FFA8A7"/>
<path d="M142.925 95.9816C143.512 94.195 145.781 92.2494 148.05 92.6933C151.424 93.2642 154.75 94.0942 157.997 95.1759C160.074 95.9158 161.964 97.7134 162.14 104.553L163.192 124.918L160.676 125.466L159.8 120.851L159.394 125.466C156.763 126.124 152.198 125.581 149.201 124.918C142.953 123.553 142.202 120.961 142.202 120.961C142.202 120.961 142.12 109.502 142.306 104.553C142.482 100.322 142.52 97.1872 142.925 95.9816Z" fill="#37474F"/>
<path d="M160.731 82.5281C160.731 82.5281 162.173 84.6599 161.986 84.8846C161.653 85.1092 161.282 85.2708 160.89 85.3614L160.731 82.5281Z" fill="#FFA8A7"/>
<path d="M156.335 75.7755C157.722 76.477 160.117 77.7704 160.775 82.8397C161.454 88.0461 160.561 89.7231 159.859 90.4136C159.383 90.8794 156.796 90.9068 155.502 90.5177C153.858 90.03 150.23 88.6434 148.564 85.969C146.602 82.8233 146.164 78.6089 148.378 76.9319C151.485 74.5753 155.163 75.1836 156.335 75.7755Z" fill="#FFA8A7"/>
<path d="M161.065 77.519C160.611 78.7686 159.843 81.8266 156.654 83.1035C156.654 83.1035 156.199 81.1525 154.56 81.3608C152.922 81.569 152.642 83.657 153.65 84.9559C154.659 86.2547 155.634 85.7834 155.634 85.7834C155.634 85.7834 155.854 88.5784 153.99 89.8444C153.99 89.8444 151.738 91.2693 149.354 90.1732C148.258 89.68 146.762 87.1097 145.874 84.9997C143.989 80.5387 143.72 76.96 146.564 75.8311C146.915 73.8033 147.83 73.0416 149.666 72.6634C153.618 71.8468 156.604 74.4445 159.925 73.9897C161.663 73.7485 161.586 76.0941 161.065 77.519Z" fill="#37474F"/>
<path d="M146.498 76.5105L144.635 75.3596C144.707 75.2305 144.805 75.1173 144.922 75.027C145.039 74.9366 145.173 74.8708 145.316 74.8337C145.46 74.7966 145.609 74.7888 145.755 74.8109C145.901 74.8329 146.042 74.8844 146.168 74.9621C146.293 75.0399 146.402 75.1423 146.487 75.2632C146.573 75.3841 146.633 75.521 146.663 75.6657C146.694 75.8104 146.696 75.9598 146.667 76.105C146.639 76.2502 146.581 76.3881 146.498 76.5105Z" fill="#37474F"/>
<path d="M155.898 92.7149L156.577 94.6824C156.577 94.6824 156.078 95.5592 153.958 95.6031C151.837 95.6469 149.573 94.9728 148.872 94.0686C148.712 93.8915 148.594 93.6812 148.526 93.4527C148.457 93.2242 148.441 92.9835 148.477 92.7478C148.477 92.7478 149.321 90.8845 150.121 90.9667L149.99 91.7778C149.99 91.7778 150.171 92.4409 152.094 92.9506C155.087 93.7452 155.898 92.7149 155.898 92.7149Z" fill="#455A64"/>
<path d="M172.941 105.791C173.796 104.811 174.125 102.635 175.265 101.144C176.405 99.6535 176.827 98.5629 177.276 99.215C177.874 100.075 176.526 101.802 176.827 101.955C177.128 102.109 178.241 104.399 178.356 105.66C178.471 106.92 175.128 110.099 175.128 110.099L172.941 105.791Z" fill="#FFA8A7"/>
<path d="M155.897 92.7162C156.035 92.7134 156.171 92.7482 156.291 92.8167C156.411 92.8852 156.51 92.985 156.577 93.1053C156.912 93.7105 157.212 94.3344 157.476 94.9741L156.577 94.6836L155.897 92.7162Z" fill="#455A64"/>
<path d="M176.734 101.78C176.734 101.78 180.773 101.429 181.359 101.78C181.946 102.13 181.77 103.879 181.359 104.953C180.948 106.027 178.888 106.723 176.975 108.016C176.975 107.819 176.734 101.78 176.734 101.78Z" fill="#FFA8A7"/>
<path d="M157.475 94.9951C159.213 95.6034 160.731 96.2994 162.353 99.3465C164.436 103.26 168.381 109.518 168.381 109.518L172.925 105.512C172.925 105.512 173.61 104.849 174.887 106.959C175.261 107.527 175.498 108.174 175.578 108.849C175.659 109.525 175.582 110.21 175.352 110.85C175.352 110.85 170.108 117.004 169.105 117.941C168.102 118.879 166.441 118.15 165.362 116.675C164.282 115.201 157.459 106.679 157.459 106.679C157.459 106.679 153.754 101.758 157.475 94.9951Z" fill="#37474F"/>
<path d="M204.338 84.7638H191.399C190.91 84.7638 190.442 84.5698 190.097 84.2245C189.751 83.8791 189.557 83.4108 189.557 82.9224V62.3655C189.557 60.7478 190.2 59.1963 191.344 58.0524C192.488 56.9085 194.039 56.2658 195.657 56.2658H200.096C201.711 56.2702 203.258 56.9148 204.399 58.0582C205.539 59.2016 206.179 60.7506 206.179 62.3655V82.9224C206.179 83.4108 205.985 83.8791 205.64 84.2245C205.295 84.5698 204.826 84.7638 204.338 84.7638Z" fill="#37474F"/>
<path d="M189.218 77.7481C187.963 81.4473 185.858 92.0902 185.858 92.0902C185.858 92.0902 181.474 97.45 180.043 98.7489C179.26 99.4723 177.495 100.771 177.495 100.771L180.701 103.128C183.596 100.901 186.315 98.4552 188.834 95.8114C189.394 95.2152 189.787 94.4817 189.974 93.685L192.166 84.2807C192.166 84.2807 192.166 76.7178 193.322 75.7258C194.479 74.7339 194.813 74.5256 194.813 74.5256C193.328 74.416 190.204 74.838 189.218 77.7481Z" fill="#F28F8F"/>
<path d="M195.498 74.4163C193.454 74.1806 190.835 74.2245 189.558 76.5098C188.281 78.7951 186.154 90.6108 186.154 90.6108C186.154 90.6108 188.166 92.1727 190.336 92.1453L195.498 74.4163Z" fill="#BB2C75"/>
<path d="M189.815 85.4261C190.183 87.1875 190.325 88.9886 190.237 90.7859C190.078 93.1534 188.445 97.2856 188.445 97.2856C188.445 97.2856 189.722 98.6886 193.323 98.1241C196.255 97.6693 195.219 88.8075 193.536 87.1086C192.555 86.0949 191.224 85.4932 189.815 85.4261Z" fill="#BB2C75"/>
<path opacity="0.3" d="M189.815 85.4261C190.183 87.1875 190.325 88.9886 190.237 90.7859C190.078 93.1534 188.445 97.2856 188.445 97.2856C188.445 97.2856 189.722 98.6886 193.323 98.1241C196.255 97.6693 195.219 88.8075 193.536 87.1086C192.555 86.0949 191.224 85.4932 189.815 85.4261Z" fill="black"/>
<path d="M196.589 148.012C196.612 148.416 196.511 148.818 196.299 149.163C195.757 150.058 195.119 150.893 194.397 151.651C193.383 152.747 191.865 154.035 190.774 154.983C190.172 155.531 190.15 156.309 191.016 156.589C192.63 156.982 194.333 156.745 195.778 155.925C196.874 155.345 198.398 152.637 199.296 152.254C200.332 151.788 200.908 151.558 201.258 151.081C201.524 150.81 201.689 150.457 201.728 150.08C201.767 149.702 201.677 149.323 201.472 149.004C200.984 148.094 200.25 146.697 199.949 146.855L200.042 147.14C199.806 147.88 197.789 148.741 196.753 148.538L196.589 148.012Z" fill="#37474F"/>
<path d="M207.15 117.092C207.616 112.159 208.953 104.224 207.583 98.3488L189.388 99.3133C188.884 105.106 188.292 123.191 188.928 125.263C189.662 127.707 196.222 144.625 196.6 148.028C196.626 148.428 196.525 148.825 196.31 149.163C195.768 150.061 195.131 150.897 194.408 151.656C193.915 152.204 193.312 152.752 192.676 153.3C192.623 153.379 192.591 153.469 192.583 153.564C192.583 154.112 193.964 154.281 194.775 154.046C195.787 153.689 196.658 153.019 197.263 152.133C197.729 151.514 198.776 150.325 199.455 149.431C199.682 149.156 199.875 148.854 200.031 148.533C200.212 148.131 200.243 147.678 200.119 147.256L200.075 147.119C199.719 146.009 199.498 144.861 199.417 143.699C199.165 139.967 198.524 131.346 197.932 129.05C197.521 127.377 196.897 125.763 196.074 124.249L198.151 108.087C198.151 108.087 198.37 122.336 199.017 125.97C199.527 128.88 199.724 132.519 200.321 137.512C200.869 142.29 201.505 150.708 201.505 150.708C201.521 150.711 201.538 150.711 201.554 150.708V154.731H204.958V152.396C204.958 151.342 205.046 150.29 205.221 149.25C205.769 146.072 206.909 138.799 207.144 136.339C207.517 132.437 206.109 127.532 206.109 127.532C206.109 127.532 206.695 121.903 207.15 117.092Z" fill="#FFA8A7"/>
<path d="M200.738 74.5867C200.738 74.5867 205.632 75.1347 206.218 75.4142C201.625 78.6421 205.347 85.8269 205.347 85.8269L203.587 91.3456C205.544 93.8502 207.232 95.3408 208.279 98.0865C209.44 101.156 210.471 105.721 210.197 115.076C205.812 118.364 192.473 118.008 187.278 115.076C187.278 115.076 188.155 106.817 189.19 100.399C189.875 96.1629 191.492 91.5484 191.218 89.9865C189.158 83.6512 189.026 82.5113 189.399 81.0973C190.424 77.1186 194.479 74.4277 195.476 74.4277L200.738 74.5867Z" fill="#BB2C75"/>
<path opacity="0.6" d="M200.738 74.5867C200.738 74.5867 205.632 75.1347 206.218 75.4142C201.625 78.6421 205.347 85.8269 205.347 85.8269L203.587 91.3456C205.544 93.8502 207.232 95.3408 208.279 98.0865C209.44 101.156 210.471 105.721 210.197 115.076C205.812 118.364 192.473 118.008 187.278 115.076C187.278 115.076 188.155 106.817 189.19 100.399C189.875 96.1629 191.492 91.5484 191.218 89.9865C189.158 83.6512 189.026 82.5113 189.399 81.0973C190.424 77.1186 194.479 74.4277 195.476 74.4277L200.738 74.5867Z" fill="white"/>
<path d="M201.522 153.027V152.539C201.094 154.178 200.239 155.674 199.045 156.874C197.948 157.866 196.469 159.017 196.085 160.13C195.701 161.242 197.844 161.741 199.258 161.598C200.628 161.431 201.891 160.771 202.81 159.741C203.708 158.71 203.692 158.009 204.108 157.439C204.525 156.869 205.495 156.244 205.72 155.586C205.79 154.973 205.722 154.351 205.522 153.767C205.363 153.159 205.188 152.485 204.974 152.539V152.918C204.481 153.306 203.87 153.513 203.242 153.504C202.766 153.515 201.516 153.411 201.522 153.027Z" fill="#37474F"/>
<path d="M204.957 152.905C204.464 153.293 203.853 153.5 203.226 153.492C202.721 153.492 201.494 153.41 201.499 153.026V152.538C201.072 154.177 200.217 155.673 199.022 156.873L198.195 157.613C197.614 158.26 197.778 158.824 199.143 158.939C200.507 159.054 201.707 158.232 202.738 156.966C203.616 155.693 204.36 154.332 204.957 152.905Z" fill="#FFA8A7"/>
<path d="M192.287 59.624C191.41 60.1447 190.325 62.3642 190.429 66.9787C190.522 70.9026 191.794 71.8727 192.435 72.1522C193.076 72.4317 194.304 72.2618 195.499 72.0645V74.4155C195.499 74.4155 193.854 76.3392 193.948 77.4188C194.041 78.4984 196.337 78.7505 197.888 77.6983C199.008 76.83 199.971 75.7773 200.738 74.5854L200.71 69.1763C200.71 69.1763 201.417 69.8559 202.612 68.8146C203.599 67.9542 203.927 66.4964 203.16 65.7182C202.961 65.5309 202.72 65.3939 202.457 65.3188C202.194 65.2436 201.917 65.2323 201.649 65.2859C201.381 65.3396 201.129 65.4565 200.915 65.627C200.702 65.7976 200.532 66.0167 200.42 66.2662C200.42 66.2662 199.757 64.4193 197 63.526C194.512 62.6985 193.158 61.7614 192.287 59.624Z" fill="#FFA8A7"/>
<path d="M194.813 65.9992C194.813 66.0958 194.842 66.1903 194.895 66.2708C194.948 66.3514 195.024 66.4145 195.113 66.4524C195.202 66.4903 195.3 66.5013 195.395 66.484C195.49 66.4666 195.578 66.4218 195.647 66.355C195.717 66.2882 195.766 66.2024 195.787 66.1082C195.809 66.014 195.802 65.9156 195.768 65.8252C195.734 65.7347 195.674 65.6563 195.596 65.5995C195.518 65.5428 195.425 65.5103 195.328 65.506C195.262 65.5045 195.196 65.5161 195.134 65.5401C195.073 65.5641 195.016 65.6001 194.969 65.6459C194.921 65.6917 194.882 65.7465 194.856 65.8071C194.829 65.8677 194.815 65.933 194.813 65.9992Z" fill="#37474F"/>
<path d="M194.682 69.3191L193.536 69.6863C193.557 69.7627 193.592 69.8343 193.641 69.8967C193.689 69.9592 193.75 70.0112 193.819 70.0495C193.888 70.0879 193.964 70.112 194.043 70.1202C194.121 70.1284 194.201 70.1206 194.276 70.0973C194.431 70.0446 194.559 69.9343 194.635 69.7894C194.71 69.6445 194.727 69.4761 194.682 69.3191Z" fill="#F28F8F"/>
<path d="M190.769 64.4801L191.766 63.7896C191.724 63.7222 191.668 63.664 191.603 63.6187C191.538 63.5733 191.464 63.5418 191.386 63.5259C191.308 63.51 191.228 63.5101 191.15 63.5262C191.072 63.5424 190.998 63.5742 190.933 63.6197C190.799 63.7138 190.708 63.8561 190.677 64.0167C190.646 64.1772 190.679 64.3434 190.769 64.4801Z" fill="#37474F"/>
<path d="M196.249 64.8515L195.247 64.161C195.289 64.0937 195.344 64.0357 195.409 63.9902C195.475 63.9448 195.548 63.913 195.626 63.8966C195.704 63.8802 195.784 63.8797 195.862 63.895C195.94 63.9103 196.014 63.9411 196.08 63.9856C196.212 64.0816 196.304 64.2244 196.335 64.3851C196.367 64.5458 196.336 64.7125 196.249 64.8515Z" fill="#37474F"/>
<path d="M190.999 65.6368C190.998 65.7336 191.025 65.8286 191.078 65.9099C191.131 65.9912 191.206 66.0552 191.295 66.0939C191.384 66.1326 191.482 66.1443 191.577 66.1276C191.673 66.1109 191.761 66.0665 191.831 66C191.901 65.9334 191.951 65.8476 191.973 65.7533C191.994 65.6589 191.988 65.5603 191.954 65.4695C191.92 65.3788 191.861 65.3 191.782 65.243C191.704 65.186 191.611 65.1534 191.514 65.1491C191.381 65.1461 191.253 65.1957 191.156 65.287C191.06 65.3783 191.003 65.504 190.999 65.6368Z" fill="#37474F"/>
<path d="M193.322 65.3566L193.246 68.3269L191.684 67.8447L193.322 65.3566Z" fill="#F28F8F"/>
<path d="M195.498 72.0655C196.759 71.8957 199.334 71.1503 199.762 70.1255C199.599 70.6446 199.282 71.1016 198.852 71.4353C198.074 72.0984 195.498 72.8492 195.498 72.8492V72.0655Z" fill="#F28F8F"/>
<path d="M204.437 88.3362L200.979 93.0164L203.588 91.3449L204.437 88.3362Z" fill="#BB2C75"/>
<path d="M177.194 100.773C176.454 101.726 175.999 103.579 175.61 104.203C175.221 104.828 174.755 105.371 175.61 105.486C176.465 105.601 177.715 103.929 178.18 102.915C178.416 102.344 178.861 101.883 179.424 101.628C179.024 101.491 179.233 99.8849 178.953 99.6602C178.953 99.6602 177.495 100.258 177.194 100.773Z" fill="#F28F8F"/>
<path d="M176.974 108.004C177.747 107.429 177.775 106.722 177.923 105.598C178.07 104.475 181.167 103.258 181.266 104.097C181.364 104.935 181.644 105.637 180.717 106.656C179.791 107.675 178.388 108.761 176.974 108.004Z" fill="#F28F8F"/>
<path d="M200.738 74.5859C200.738 74.5859 205.32 74.986 206.218 75.4135C207.117 75.8409 208.613 78.4277 207.276 82.1817C205.939 85.9358 204.722 90.353 204.859 91.2408C204.996 92.1286 208.191 96.7212 208.191 96.7212C207.31 97.3718 206.313 97.8497 205.254 98.1296L203.61 94.5564L203.993 98.3543C202.342 98.7559 200.645 98.9401 198.946 98.9024C198.946 98.9024 197.395 84.3136 200.738 74.5859Z" fill="#BB2C75"/>
<path d="M212.028 92.4802C212.395 90.3209 212.028 89.614 211.272 87.4985L207.435 89.9811C207.75 90.7796 207.935 91.6233 207.983 92.4802C207.95 93.105 207.101 99.2978 206.306 101.457C206.163 101.841 205.882 102.158 205.517 102.345C204.727 102.827 204.011 103.422 203.391 104.11C202.804 104.658 202.333 104.756 202.393 104.943C202.484 105.145 202.646 105.306 202.848 105.396C203.05 105.486 203.279 105.498 203.489 105.43C203.967 105.275 204.425 105.066 204.854 104.806C204.473 105.612 203.966 106.352 203.352 106.998C201.944 108.499 201.818 109.475 204.448 109.678C206.093 109.804 207.468 108.883 208.953 105.348C209.414 104.052 209.792 102.729 210.088 101.386C210.888 98.3223 211.666 94.6559 212.028 92.4802Z" fill="#FFA8A7"/>
<path d="M206.218 75.4125C208.065 76.24 208.591 77.8732 209.276 80.2736C209.961 82.674 212.109 89.8752 212.109 89.8752C212.109 89.8752 210.268 92.0673 207.725 91.4535L204.437 83.4686C204.437 83.4686 202.902 78.2568 206.218 75.4125Z" fill="#BB2C75"/>
</svg>
