<svg width="470" height="354" viewBox="0 0 470 354" fill="none" xmlns="http://www.w3.org/2000/svg">
<g clip-path="url(#clip0)">
<path opacity="0.1" d="M19.3952 82.4206C10.0162 98.4413 16.3423 118.439 17.8797 136.889C18.8131 148.166 17.8345 159.52 14.9854 170.468C10.9414 186.012 3.19238 200.592 1.20999 216.498C-0.772411 232.404 5.351 251.147 20.5626 256.678C24.338 258.052 28.4217 258.516 32.0957 260.142C42.0606 264.561 46.4791 276.384 46.8184 287.173C47.1576 297.963 44.4791 308.695 44.9637 319.48C45.2368 325.551 46.6774 331.891 50.8404 336.358C54.6686 340.463 60.237 342.429 65.5983 344.178C82.55 349.714 100.251 354.61 118.022 352.9C135.793 351.19 153.806 341.549 160.634 325.241C163.106 319.339 164.022 312.87 166.507 306.985C168.991 301.1 173.696 295.449 180.093 294.525C183.828 293.986 187.582 295.126 191.185 296.249L242.842 312.375C250.772 314.854 259.671 317.275 267.116 313.604C270.944 311.713 273.847 308.43 276.64 305.209C298.711 279.914 321.706 252.481 325.746 219.313C327.169 207.626 326.125 195.737 327.706 184.072C329.288 172.408 334.129 160.324 344.178 154.028C351.927 149.168 361.517 148.439 370.645 147.458C385.421 145.867 400.289 143.172 413.69 136.823C427.091 130.474 439.016 120.113 444.721 106.549C446.408 102.537 447.54 98.0967 446.589 93.8596C444.888 86.2999 437.307 81.6695 430.201 78.3955C408.95 68.6753 385.901 63.4705 362.945 58.8887C352.416 56.7856 341.799 54.793 331.041 54.9123C321.742 55.0095 312.539 56.6796 303.38 58.2658C224.948 71.7902 140.198 80.3307 61.4793 63.8417C44.9725 60.3821 28.3865 67.0582 19.3952 82.4206Z" fill="#BB2C75"/>
<path opacity="0.4" d="M131.594 51.3953C131.594 51.3953 226.415 21.1167 263.679 43.354C289.31 58.6457 347.063 54.2495 380.636 50.008C399.207 47.6593 418.068 49.7144 435.703 56.008C452.694 62.0788 470.558 69.4087 469.809 73.1599C468.395 80.2556 131.594 75.9964 131.594 75.9964V51.3953Z" fill="#BB2C75"/>
<path d="M355.672 189.003L355.319 189.034L355.429 188.76L354.989 188.941L355.429 187.779C355.429 187.779 353.997 188.358 351.345 189.304C286.23 192.348 149.978 136.938 149.978 136.938L74.5587 147.325C74.1204 146.915 73.7056 146.48 73.3164 146.022L73.6512 147.387C73.5337 147.258 73.4221 147.13 73.3164 147.003L73.4354 147.48H73.3164L73.5014 147.736L82.1315 182.844C82.1315 182.844 235.93 267.835 328.491 257.032L354.839 190.245L355.672 189.003Z" fill="url(#paint0_linear)"/>
<path d="M152.353 139.178C152.353 139.178 289.627 194.99 350.482 189.313L309.913 249.874L163.216 203.981L91.4973 171.334L124.978 148.624L152.353 139.178Z" fill="#BB2C75"/>
<path opacity="0.1" d="M152.353 139.178C152.353 139.178 289.627 194.99 350.482 189.313L309.913 249.874L163.216 203.981L91.4973 171.334L124.978 148.624L152.353 139.178Z" fill="black"/>
<path opacity="0.1" d="M146.925 155.959L183.485 164.239L108.951 177.485L91.4973 161.87L146.925 155.959Z" fill="white"/>
<path opacity="0.1" d="M163.198 189.785L206.366 173.937L236.794 184.108L183.485 203.981L163.198 189.785Z" fill="white"/>
<path opacity="0.1" d="M222.639 207.763L270.05 194.756L312.27 206.345L267.455 221.487L222.639 207.763Z" fill="white"/>
<path d="M78.5237 149.336L152.353 139.165V157.143L90.5546 166.13L78.5237 149.336Z" fill="#BB2C75"/>
<path opacity="0.1" d="M78.9949 150.281L152.352 139.165V157.143L90.5545 166.13L78.9949 150.281Z" fill="white"/>
<path d="M13.1882 90.1924C13.1924 82.9511 15.629 75.9224 20.1049 70.2405C24.5808 64.5586 30.8349 60.5549 37.8581 58.8755C68.5764 51.4837 120.092 42.5278 145.291 57.55C182.56 79.7873 287.755 60.3865 287.755 60.3865C287.755 60.3865 352.852 80.2689 351.438 87.3382C350.024 94.4074 13.2014 90.1747 13.2014 90.1747L13.1882 90.1924Z" fill="#BB2C75"/>
<path d="M273.424 64.9949C274.235 64.2393 274.997 63.3468 275.23 62.2599C275.464 61.173 275.001 59.8696 273.966 59.472C272.807 59.0302 271.565 59.8343 270.627 60.6472C269.689 61.4602 268.609 62.3925 267.38 62.2202C268.013 61.6445 268.487 60.9141 268.754 60.1003C269.022 59.2866 269.075 58.4171 268.909 57.5765C268.85 57.2285 268.698 56.9031 268.468 56.6354C267.825 55.9462 266.658 56.2422 265.887 56.7857C263.433 58.5176 262.75 61.8579 262.737 64.8667C262.49 63.7798 262.697 62.6576 262.693 61.5397C262.688 60.4219 262.384 59.1936 261.446 58.5972C260.863 58.2848 260.208 58.1323 259.547 58.1553C258.446 58.1156 257.217 58.226 256.464 59.039C255.53 60.0419 255.772 61.7297 256.583 62.8387C257.393 63.9477 258.636 64.637 259.777 65.4013C260.691 65.9476 261.471 66.6936 262.058 67.584C262.127 67.7078 262.183 67.838 262.226 67.9728H269.138C270.695 67.1796 272.137 66.1777 273.424 64.9949Z" fill="#BB2C75"/>
<path d="M121.528 49.8533C122.339 49.0978 123.101 48.2053 123.335 47.1184C123.568 46.0315 123.106 44.7281 122.07 44.3305C120.912 43.8886 119.669 44.6928 118.731 45.5057C117.793 46.3187 116.713 47.251 115.484 47.0787C116.12 46.5013 116.595 45.768 116.863 44.9508C117.131 44.1336 117.183 43.2606 117.013 42.4174C116.954 42.0693 116.802 41.7439 116.572 41.4763C115.929 40.787 114.762 41.083 113.991 41.6265C111.537 43.3585 110.854 46.6987 110.841 49.7075C110.594 48.6206 110.801 47.4984 110.797 46.3806C110.793 45.2627 110.489 44.0344 109.55 43.438C108.967 43.1256 108.312 42.9732 107.652 42.9961C106.55 42.9564 105.321 43.0668 104.568 43.8798C103.634 44.8828 103.876 46.5706 104.687 47.6795C105.497 48.7885 106.74 49.4778 107.881 50.2422C108.795 50.7884 109.575 51.5344 110.163 52.4248C110.231 52.5486 110.287 52.6788 110.33 52.8136H117.242C118.798 52.0258 120.24 51.03 121.528 49.8533Z" fill="#BB2C75"/>
<path d="M347.015 82.5002C347.826 81.7446 348.588 80.8521 348.821 79.7652C349.055 78.6783 348.592 77.3749 347.557 76.9773C346.398 76.5355 345.156 77.3396 344.218 78.1526C343.279 78.9655 342.2 79.8978 340.971 79.7255C341.604 79.1498 342.077 78.4194 342.345 77.6057C342.613 76.7919 342.666 75.9224 342.5 75.0818C342.441 74.7338 342.289 74.4084 342.059 74.1407C341.416 73.4515 340.248 73.7475 339.478 74.291C337.024 76.0229 336.341 79.3632 336.328 82.372C336.081 81.2851 336.288 80.1629 336.284 79.0451C336.279 77.9272 335.975 76.6989 335.037 76.1025C334.454 75.7901 333.799 75.6377 333.138 75.6606C332.037 75.6209 330.808 75.7313 330.055 76.5443C329.121 77.5473 329.363 79.235 330.173 80.344C330.984 81.453 332.226 82.1423 333.367 82.9066C334.282 83.4529 335.062 84.1989 335.649 85.0893C335.718 85.2131 335.774 85.3433 335.817 85.4781H342.729C344.285 84.6849 345.727 83.6831 347.015 82.5002Z" fill="#BB2C75"/>
<path d="M260.323 224.451C255.917 220.09 252.433 214.912 250.591 209.009C249.177 204.463 247.913 200.022 247.913 198.587C247.913 196.073 244.428 186.613 240.124 182.053C239.975 181.894 239.82 181.74 239.684 181.611C238.935 178.642 237.441 171.153 240.032 166.505C240.665 165.37 241.195 164.18 241.613 162.949C243.166 158.182 245.553 153.731 248.662 149.804C249.285 149.049 249.837 148.237 250.309 147.378C251.389 147.564 252.023 147.264 251.891 146.199C251.891 146.159 251.891 146.119 251.891 146.079C252.389 145.965 252.649 145.602 252.561 144.891C251.904 139.651 254.534 123.272 254.534 123.272C257.031 115.883 258.134 108.091 257.785 100.297C257.129 87.8507 243.97 85.2307 243.97 85.2307L242.882 86.3131C242.001 85.7697 241.014 85.16 240.014 84.5149C240.214 84.4282 240.394 84.3027 240.546 84.1458C240.697 83.9888 240.816 83.8034 240.895 83.6003C242.036 81.2277 242.093 77.9758 242.256 75.4044C242.352 74.5744 242.314 73.7344 242.142 72.9169C241.931 72.2183 241.59 71.5661 241.138 70.9949C240.12 69.6509 238.82 68.5478 237.331 67.7637C235.841 66.9795 234.197 66.5335 232.516 66.4573C231.424 66.4131 230.314 66.528 229.243 66.528C227.234 66.528 225.225 66.1392 223.225 66.3071C221.225 66.475 219.111 67.3586 218.225 69.1569C217.67 70.2836 217.666 71.64 217.01 72.6915C216.252 73.9242 214.776 74.5516 213.926 75.7225C213.461 76.3651 213.21 77.1379 213.208 77.9316C213.196 78.1896 213.249 78.4464 213.362 78.6783C213.564 78.9582 213.813 79.2004 214.098 79.3941C214.584 79.8372 214.905 80.4333 215.007 81.084C215.11 81.7348 214.988 82.4011 214.662 82.9729C215.34 83.1002 215.967 83.4248 216.464 83.9063C216.96 84.3878 217.305 85.0051 217.454 85.6813C217.469 85.9084 217.552 86.1258 217.692 86.3043C217.818 86.4076 217.971 86.472 218.133 86.4899C219.415 86.7108 220.71 86.1055 221.679 85.2351C221.759 85.3809 221.833 85.5223 221.922 85.6769C223.077 87.5787 224.877 89.0001 226.991 89.6815C229.105 90.3629 231.393 90.2588 233.437 89.3883C233.619 89.618 233.798 89.8551 233.974 90.0996C234.705 91.1145 235.306 92.2174 235.763 93.3824L234.75 94.3898C233.859 95.7902 233.058 97.2452 232.349 98.7462C230.707 101.889 229.503 105.243 228.772 108.714C226.384 111.082 222.692 115.341 222.252 119.282C222.252 119.282 205.146 127.801 200.542 123.215C195.939 118.629 190.018 126.489 191.331 127.801C192.644 129.113 196.595 131.733 201.199 129.126H219.626C222.429 128.752 225.127 127.809 227.556 126.356C227.23 127.24 226.825 128.154 226.375 129.087C225.684 130.412 224.939 131.738 224.243 132.926C223.86 133.24 223.481 133.545 223.102 133.836C220.745 134.813 217.78 136.046 214.701 137.371C213.003 137.734 211.393 138.427 209.961 139.412C202.851 142.505 196.415 145.518 196.604 146.146C196.128 146.459 195.882 146.694 195.948 146.817C196.014 146.941 196.071 147.091 196.164 147.321C195.657 149.19 195.56 153.012 196.604 160.576C199.247 179.575 193.313 182.849 193.313 182.849C193.313 182.849 188.71 188.743 183.445 188.089C178.181 187.435 182.789 192.675 187.41 192.021C190.516 191.579 197.221 191.137 201.247 190.894C201.611 190.872 201.965 190.769 202.285 190.594C202.604 190.418 202.881 190.174 203.095 189.878C203.31 189.582 203.456 189.243 203.524 188.884C203.592 188.525 203.581 188.155 203.49 187.801C202.728 184.905 202.629 181.874 203.199 178.934C204.19 174.003 206.67 164.619 207.556 159.436V159.379C208.877 158.053 211.34 156.228 214.375 156.661C215.957 156.887 218.781 155.407 221.811 153.374C220.225 162.427 219.014 172.152 220.296 175.66C222.939 182.866 225.56 186.14 225.56 186.14C225.56 186.14 226.825 186.198 228.6 186.176L229.45 187.501L241.345 205.81C241.345 205.81 251.869 220.877 242.001 222.843C242.001 222.843 234.107 224.809 237.397 227.429C237.397 227.429 260.424 228.083 261.08 226.104C261.239 225.596 260.904 225.026 260.323 224.451Z" fill="url(#paint1_linear)"/>
<path d="M245.882 89.1629C245.882 89.1629 236.931 107.119 236.292 98.1409C236.106 95.4707 235.18 92.9058 233.618 90.7358C231.982 88.4572 229.831 86.6007 227.34 85.319C227.34 85.319 232.455 75.7004 231.816 78.2497C231.49 79.5752 235.168 82.3808 238.864 84.8241C242.367 87.1703 245.882 89.1629 245.882 89.1629Z" fill="#FFB9B9"/>
<path d="M203.683 177.661C203.129 180.54 203.225 183.507 203.965 186.343C204.058 186.69 204.073 187.052 204.009 187.404C203.945 187.757 203.804 188.091 203.596 188.382C203.388 188.673 203.118 188.915 202.805 189.089C202.493 189.262 202.146 189.365 201.789 189.388C197.873 189.622 191.357 190.055 188.34 190.488C183.864 191.128 179.388 185.999 184.503 186.639C189.617 187.28 194.093 181.51 194.093 181.51C194.093 181.51 199.846 178.302 197.291 159.706C196.274 152.305 196.371 148.558 196.851 146.733C196.944 146.27 197.148 145.836 197.445 145.47C197.579 145.316 197.758 145.207 197.957 145.16C198.181 145.139 198.408 145.167 198.62 145.243C198.833 145.32 199.026 145.442 199.186 145.602C199.186 145.602 207.498 153.299 208.137 155.221C208.296 155.694 208.181 156.922 207.895 158.583C207.058 163.651 204.648 172.832 203.683 177.661Z" fill="#FFB9B9"/>
<path opacity="0.05" d="M203.683 177.661C203.129 180.54 203.225 183.507 203.965 186.343C204.058 186.69 204.073 187.052 204.009 187.404C203.945 187.757 203.804 188.091 203.596 188.382C203.388 188.673 203.118 188.915 202.805 189.089C202.493 189.262 202.146 189.365 201.789 189.388C197.873 189.622 191.357 190.055 188.34 190.488C183.864 191.128 179.388 185.999 184.503 186.639C189.617 187.28 194.093 181.51 194.093 181.51C194.093 181.51 199.846 178.302 197.291 159.706C196.274 152.305 196.371 148.558 196.851 146.733C196.944 146.27 197.148 145.836 197.445 145.47C197.579 145.316 197.758 145.207 197.957 145.16C198.181 145.139 198.408 145.167 198.62 145.243C198.833 145.32 199.026 145.442 199.186 145.602C199.186 145.602 207.498 153.299 208.137 155.221C208.296 155.694 208.181 156.922 207.895 158.583C207.058 163.651 204.648 172.832 203.683 177.661Z" fill="black"/>
<path d="M259.953 223.837C259.314 225.759 236.935 225.118 236.935 225.118C233.737 222.551 241.411 220.629 241.411 220.629C251.001 218.707 240.772 203.955 240.772 203.955L229.186 186.012L226.688 182.133C226.688 182.133 229.886 177.644 235.64 178.284C236.961 178.43 238.314 179.34 239.578 180.697C243.759 185.159 247.151 194.42 247.151 196.881C247.151 198.286 248.38 202.625 249.754 207.083C251.543 212.862 254.948 217.925 259.213 222.198C259.79 222.794 260.111 223.356 259.953 223.837Z" fill="#FFB9B9"/>
<path opacity="0.1" d="M207.917 158.579C207.296 159.105 206.735 159.698 206.243 160.346C201.529 159.754 197.903 149.367 196.864 146.733C196.776 146.508 196.705 146.34 196.652 146.239C196.599 146.137 196.877 145.836 197.459 145.47L197.97 145.16C198.194 145.139 198.421 145.167 198.633 145.243C198.846 145.32 199.039 145.442 199.199 145.602C199.199 145.602 207.511 153.299 208.15 155.221C208.318 155.694 208.203 156.918 207.917 158.579Z" fill="black"/>
<path d="M227.979 131.49C227.979 131.49 196.648 144.303 197.287 145.598C197.926 146.892 201.763 159.065 206.877 159.705C206.877 159.705 210.076 155.216 214.551 155.857C219.027 156.498 233.732 143.044 233.732 143.044L243.961 135.347L227.979 131.49Z" fill="#4C4C78"/>
<path opacity="0.05" d="M227.979 131.49C227.979 131.49 196.648 144.303 197.287 145.598C197.926 146.892 201.763 159.065 206.877 159.705C206.877 159.705 210.076 155.216 214.551 155.857C219.027 156.498 233.732 143.044 233.732 143.044L243.961 135.347L227.979 131.49Z" fill="black"/>
<path opacity="0.1" d="M240.129 182.791C240.129 185.464 233.344 185.972 229.199 186.03L226.701 182.15C226.701 182.15 229.899 177.661 235.653 178.302C236.974 178.448 238.327 179.358 239.591 180.715C239.882 181.991 240.129 182.791 240.129 182.791Z" fill="black"/>
<path d="M225.424 134.698C225.424 134.698 217.749 167.393 220.309 174.463C222.868 181.532 225.424 184.722 225.424 184.722C225.424 184.722 239.49 185.363 239.49 181.514C239.49 181.514 236.292 171.255 239.49 165.48C240.106 164.369 240.62 163.203 241.027 161.999C242.528 157.337 244.842 152.979 247.86 149.128C249.415 147.202 250.604 145.024 250.358 143.035C249.719 137.901 225.424 134.698 225.424 134.698Z" fill="#4C4C78"/>
<path d="M230.538 107.119C230.538 107.119 222.864 113.552 222.225 119.296C222.225 119.296 205.6 127.633 201.124 123.144C196.648 118.655 190.895 126.365 192.181 127.642C193.467 128.919 197.296 131.49 201.771 128.923H219.67C219.67 128.923 231.82 127.642 232.446 118.023C233.071 108.405 230.538 107.119 230.538 107.119Z" fill="#FFB9B9"/>
<path opacity="0.05" d="M230.538 107.119C230.538 107.119 222.864 113.552 222.225 119.296C222.225 119.296 205.6 127.633 201.124 123.144C196.648 118.655 190.895 126.365 192.181 127.642C193.467 128.919 197.296 131.49 201.771 128.923H219.67C219.67 128.923 231.82 127.642 232.446 118.023C233.071 108.405 230.538 107.119 230.538 107.119Z" fill="black"/>
<path opacity="0.1" d="M237.252 84.3558C237.138 84.7711 237.424 83.9714 237.252 84.3558C236.318 86.4766 235.763 89.8522 233.622 90.7358C231.987 88.4572 229.835 86.6007 227.344 85.319C227.344 85.319 232.459 75.7004 231.82 78.2497C231.49 79.5708 233.591 81.9125 237.252 84.3558Z" fill="black"/>
<path d="M238.529 81.7888C238.529 83.5645 238.004 85.3003 237.021 86.7767C236.037 88.2531 234.639 89.4038 233.003 90.0834C231.368 90.7629 229.568 90.9407 227.831 90.5943C226.095 90.2478 224.5 89.3928 223.248 88.1372C221.996 86.8816 221.144 85.2819 220.798 83.5403C220.453 81.7987 220.63 79.9936 221.308 78.3531C221.985 76.7125 223.133 75.3104 224.605 74.3239C226.077 73.3373 227.807 72.8108 229.578 72.8108C230.756 72.8032 231.923 73.0302 233.012 73.4787C234.102 73.9271 235.092 74.5882 235.925 75.4234C236.757 76.2586 237.416 77.2513 237.864 78.3441C238.311 79.4368 238.537 80.6076 238.529 81.7888Z" fill="#FFB9B9"/>
<path opacity="0.1" d="M233.737 96.2189L242.688 87.241C242.688 87.241 255.464 89.808 256.116 101.989C256.437 109.605 255.353 117.214 252.917 124.434C252.917 124.434 250.358 140.468 251.001 145.598C251.644 150.728 234.375 137.901 234.375 137.901C234.375 137.901 220.309 140.468 220.948 138.542C221.587 136.615 229.261 125.729 227.996 121.867C227.446 120.21 227.604 116.539 227.966 112.889C228.565 106.953 230.546 101.242 233.75 96.2145L233.737 96.2189Z" fill="black"/>
<path d="M253.556 123.153C253.556 123.153 251.001 139.178 251.653 144.317C252.305 149.455 235.027 136.62 235.027 136.62C235.027 136.62 232.825 137.022 230.182 137.389C226.186 137.945 221.212 138.423 221.596 137.261C221.697 136.988 221.82 136.724 221.961 136.47C223.631 133.306 229.789 124.059 228.631 120.564C228.08 118.911 228.239 115.235 228.6 111.586C229.202 105.65 231.185 99.9386 234.389 94.9111L243.34 85.9332C243.34 85.9332 256.116 88.5002 256.768 100.681C257.088 108.306 255.999 115.925 253.556 123.153Z" fill="#CBCDDA"/>
<path opacity="0.1" d="M238.53 81.7888C238.532 83.0315 238.275 84.261 237.776 85.3985C237.014 84.7697 236.355 84.0242 235.825 83.1894C235.061 82.0045 234.228 80.8655 233.331 79.7785C233.138 79.5029 232.869 79.2908 232.556 79.1687C231.966 79.0008 231.366 79.5399 231.199 80.1363C231.097 80.7462 231.097 81.3689 231.199 81.9788C231.249 82.2851 231.232 82.5987 231.149 82.8978C231.066 83.1969 230.919 83.4743 230.719 83.7107C229.957 84.4221 228.723 83.9272 227.855 83.344C226.988 82.7608 225.899 82.1113 224.979 82.6018C224.636 82.8182 224.347 83.1098 224.133 83.4545C223.473 84.4998 222.726 85.4872 221.899 86.4059C221.189 85.2195 220.762 83.8845 220.651 82.5052C220.54 81.1258 220.748 79.7394 221.26 78.4542C221.772 77.169 222.573 76.0199 223.601 75.0965C224.628 74.1731 225.855 73.5005 227.185 73.1312C228.514 72.7619 229.911 72.706 231.266 72.9676C232.621 73.2293 233.897 73.8016 234.995 74.6398C236.093 75.478 236.983 76.5594 237.595 77.7995C238.208 79.0396 238.526 80.4049 238.525 81.7888H238.53Z" fill="black"/>
<path d="M241.657 76.3411C241.751 75.5289 241.714 74.7069 241.547 73.9066C241.343 73.2249 241.013 72.5879 240.574 72.0288C239.59 70.7163 238.33 69.6374 236.883 68.8691C235.437 68.1009 233.839 67.6621 232.204 67.584C231.142 67.5442 230.085 67.6547 229.023 67.6547C227.071 67.6547 225.12 67.2747 223.173 67.4382C221.225 67.6017 219.173 68.4677 218.327 70.2261C217.789 71.3307 217.785 72.6562 217.146 73.7033C216.41 74.9095 214.974 75.5237 214.151 76.6724C213.7 77.3023 213.456 78.0576 213.454 78.833C213.443 79.0847 213.494 79.3353 213.604 79.562C213.8 79.8346 214.041 80.0708 214.318 80.2601C214.791 80.6958 215.103 81.2797 215.202 81.9161C215.301 82.5526 215.182 83.204 214.864 83.7638C215.527 83.8881 216.138 84.2061 216.621 84.6778C217.103 85.1495 217.436 85.7538 217.578 86.4148C217.591 86.6366 217.671 86.8491 217.807 87.0245C217.933 87.1275 218.086 87.1906 218.247 87.2056C219.529 87.431 220.833 86.7947 221.772 85.9023C222.71 85.0098 223.397 83.8698 224.151 82.8094C224.362 82.4638 224.65 82.1719 224.992 81.9567C225.913 81.4663 226.996 82.1246 227.864 82.7034C228.732 83.2822 229.97 83.7771 230.732 83.0613C230.933 82.8258 231.08 82.5492 231.163 82.2508C231.246 81.9524 231.263 81.6394 231.212 81.3337C231.108 80.724 231.108 80.101 231.212 79.4913C231.38 78.8948 231.974 78.3558 232.569 78.5237C232.88 78.6468 233.147 78.8608 233.336 79.1378C234.235 80.2244 235.069 81.3634 235.834 82.5488C236.662 83.8345 239.138 86.8787 240.345 84.3558C241.446 82.0407 241.521 78.8551 241.657 76.3411Z" fill="#B96B6B"/>
<path opacity="0.1" d="M228.305 120.268C228.305 120.268 237.895 119.627 240.455 121.549C243.014 123.471 253.23 122.83 253.23 122.83" fill="black"/>
<path opacity="0.05" d="M249.719 116.742C249.719 116.742 246.521 123.153 246.521 125.079C246.521 127.006 243.961 129.568 243.961 129.568C243.961 129.568 236.736 133.545 230.168 137.393C226.172 137.95 221.199 138.427 221.582 137.265C221.684 136.992 221.806 136.728 221.948 136.474C228.763 132.312 238.208 120.568 238.208 120.568C238.208 114.798 241.406 104.534 241.406 104.534C241.406 104.534 249.08 100.686 251.635 104.534C254.19 108.383 249.719 116.742 249.719 116.742Z" fill="black"/>
<path opacity="0.1" d="M78.5237 147.913L87.0127 182.451C87.0127 182.451 235.142 264.304 324.301 253.895L350.249 188.128C350.249 188.128 286.301 214.055 218.441 202.134C215.841 201.672 213.269 201.057 210.741 200.292C190.463 194.204 92.0524 164.027 78.5237 147.913Z" fill="black"/>
<path d="M78.5237 148.859L87.0127 183.396C87.0127 183.396 235.138 265.245 324.297 254.84L350.244 189.074C350.244 189.074 286.297 215.001 218.437 203.08C215.836 202.618 213.265 202.002 210.736 201.238C190.463 195.149 92.0524 164.972 78.5237 148.859Z" fill="#BB2C75"/>
<path d="M129.84 66.2285L127.711 68.7625L221.581 148.097L223.71 145.563L129.84 66.2285Z" fill="#535461"/>
<path d="M240.129 103.275C240.129 103.275 236.93 113.552 236.93 119.296C236.93 119.296 223.503 135.97 217.106 136.611C210.71 137.252 206.877 141.1 209.432 142.381C211.987 143.663 215.186 145.589 219.023 142.381C222.86 139.174 242.679 128.274 242.679 128.274C242.679 128.274 245.239 125.707 245.239 123.785C245.239 121.863 248.437 115.447 248.437 115.447C248.437 115.447 252.913 107.11 250.353 103.262C247.794 99.4134 240.129 103.275 240.129 103.275Z" fill="#FFB9B9"/>
<path opacity="0.1" d="M247.803 93.0113C247.803 93.0113 236.292 91.73 238.212 108.4C238.212 108.4 245.886 103.911 252.278 108.4C252.278 108.405 254.834 96.219 247.803 93.0113Z" fill="black"/>
<path d="M247.803 91.73C247.803 91.73 236.292 90.4487 238.212 107.119C238.212 107.119 245.886 102.63 252.278 107.119C252.278 107.119 254.834 94.9376 247.803 91.73Z" fill="#CBCDDA"/>
<path d="M131.595 70.4249L127.819 260.518" stroke="#535461" stroke-width="2" stroke-miterlimit="10"/>
<path opacity="0.15" d="M118.387 246.795C118.387 246.795 104.238 255.309 113.198 274.237" stroke="#BB2C75" stroke-miterlimit="10"/>
<path opacity="0.15" d="M124.991 250.108C124.991 250.108 110.841 258.622 119.802 277.55" stroke="#BB2C75" stroke-miterlimit="10"/>
<path opacity="0.15" d="M132.537 246.795C132.537 246.795 146.687 255.309 137.727 274.237" stroke="#BB2C75" stroke-miterlimit="10"/>
<path opacity="0.15" d="M127.348 251.527C127.348 251.527 141.498 260.041 132.537 278.969" stroke="#BB2C75" stroke-miterlimit="10"/>
<path opacity="0.1" d="M70.8451 26.0696H67.5983C68.2012 26.0696 68.7794 25.8294 69.2057 25.4019C69.632 24.9743 69.8715 24.3944 69.8715 23.7898C69.8715 23.1851 69.632 22.6053 69.2057 22.1777C68.7794 21.7501 68.2012 21.5099 67.5983 21.5099H41.3073C41.0088 21.5099 40.7132 21.5689 40.4374 21.6835C40.1616 21.7981 39.9111 21.966 39.7 22.1777C39.4889 22.3894 39.3215 22.6407 39.2072 22.9173C39.093 23.1939 39.0342 23.4904 39.0342 23.7898C39.0342 24.0892 39.093 24.3856 39.2072 24.6622C39.3215 24.9389 39.4889 25.1902 39.7 25.4019C39.9111 25.6136 40.1616 25.7815 40.4374 25.8961C40.7132 26.0107 41.0088 26.0696 41.3073 26.0696H44.5541C43.9512 26.0696 43.373 26.3098 42.9467 26.7374C42.5204 27.1649 42.2809 27.7448 42.2809 28.3495C42.2809 28.9541 42.5204 29.534 42.9467 29.9616C43.373 30.3891 43.9512 30.6293 44.5541 30.6293H40.0078C39.4049 30.6293 38.8267 30.8695 38.4004 31.2971C37.9741 31.7246 37.7346 32.3045 37.7346 32.9092C37.7346 33.5138 37.9741 34.0937 38.4004 34.5213C38.8267 34.9488 39.4049 35.189 40.0078 35.189H66.2988C66.9016 35.189 67.4798 34.9488 67.9061 34.5213C68.3324 34.0937 68.5719 33.5138 68.5719 32.9092C68.5719 32.3045 68.3324 31.7246 67.9061 31.2971C67.4798 30.8695 66.9016 30.6293 66.2988 30.6293H70.8451C71.4479 30.6293 72.0261 30.3891 72.4524 29.9616C72.8787 29.534 73.1182 28.9541 73.1182 28.3495C73.1182 27.7448 72.8787 27.1649 72.4524 26.7374C72.0261 26.3098 71.4479 26.0696 70.8451 26.0696Z" fill="#BB2C75"/>
<path opacity="0.1" d="M250.574 4.79113H247.327C247.93 4.79113 248.508 4.55093 248.934 4.12338C249.36 3.69583 249.6 3.11594 249.6 2.51129C249.6 1.90664 249.36 1.32675 248.934 0.899196C248.508 0.471643 247.93 0.231445 247.327 0.231445H221.036C220.433 0.231445 219.855 0.471643 219.428 0.899196C219.002 1.32675 218.763 1.90664 218.763 2.51129C218.763 3.11594 219.002 3.69583 219.428 4.12338C219.855 4.55093 220.433 4.79113 221.036 4.79113H224.283C223.984 4.79113 223.688 4.8501 223.413 4.96467C223.137 5.07924 222.886 5.24718 222.675 5.45888C222.464 5.67058 222.297 5.92191 222.182 6.19851C222.068 6.47512 222.009 6.77158 222.009 7.07097C222.009 7.37036 222.068 7.66683 222.182 7.94343C222.297 8.22003 222.464 8.47136 222.675 8.68306C222.886 8.89477 223.137 9.0627 223.413 9.17727C223.688 9.29184 223.984 9.35081 224.283 9.35081H219.741C219.442 9.35081 219.147 9.40978 218.871 9.52436C218.595 9.63893 218.344 9.80686 218.133 10.0186C217.922 10.2303 217.755 10.4816 217.641 10.7582C217.526 11.0348 217.468 11.3313 217.468 11.6307C217.468 11.93 217.526 12.2265 217.641 12.5031C217.755 12.7797 217.922 13.031 218.133 13.2427C218.344 13.4545 218.595 13.6224 218.871 13.737C219.147 13.8515 219.442 13.9105 219.741 13.9105H246.032C246.635 13.9105 247.213 13.6703 247.639 13.2427C248.065 12.8152 248.305 12.2353 248.305 11.6307C248.305 11.026 248.065 10.4461 247.639 10.0186C247.213 9.59101 246.635 9.35081 246.032 9.35081H250.578C251.181 9.35081 251.759 9.11062 252.185 8.68306C252.612 8.25551 252.851 7.67562 252.851 7.07097C252.851 6.46632 252.612 5.88643 252.185 5.45888C251.759 5.03133 251.181 4.79113 250.578 4.79113H250.574Z" fill="#BB2C75"/>
<path opacity="0.1" d="M344.922 39.8017H341.676C341.974 39.8017 342.27 39.7427 342.546 39.6282C342.821 39.5136 343.072 39.3456 343.283 39.1339C343.494 38.9222 343.662 38.6709 343.776 38.3943C343.89 38.1177 343.949 37.8212 343.949 37.5218C343.949 37.2225 343.89 36.926 343.776 36.6494C343.662 36.3728 343.494 36.1215 343.283 35.9098C343.072 35.6981 342.821 35.5301 342.546 35.4156C342.27 35.301 341.974 35.242 341.676 35.242H315.385C315.086 35.242 314.791 35.301 314.515 35.4156C314.239 35.5301 313.988 35.6981 313.777 35.9098C313.566 36.1215 313.399 36.3728 313.285 36.6494C313.17 36.926 313.112 37.2225 313.112 37.5218C313.112 37.8212 313.17 38.1177 313.285 38.3943C313.399 38.6709 313.566 38.9222 313.777 39.1339C313.988 39.3456 314.239 39.5136 314.515 39.6282C314.791 39.7427 315.086 39.8017 315.385 39.8017H318.614C318.011 39.8017 317.433 40.0419 317.006 40.4694C316.58 40.897 316.341 41.4769 316.341 42.0815C316.341 42.6862 316.58 43.2661 317.006 43.6936C317.433 44.1212 318.011 44.3614 318.614 44.3614H314.085C313.482 44.3614 312.904 44.6016 312.478 45.0291C312.052 45.4567 311.812 46.0366 311.812 46.6412C311.812 47.2459 312.052 47.8258 312.478 48.2533C312.904 48.6809 313.482 48.9211 314.085 48.9211H340.376C340.979 48.9211 341.557 48.6809 341.983 48.2533C342.41 47.8258 342.649 47.2459 342.649 46.6412C342.649 46.0366 342.41 45.4567 341.983 45.0291C341.557 44.6016 340.979 44.3614 340.376 44.3614H344.922C345.525 44.3614 346.103 44.1212 346.53 43.6936C346.956 43.2661 347.196 42.6862 347.196 42.0815C347.196 41.4769 346.956 40.897 346.53 40.4694C346.103 40.0419 345.525 39.8017 344.922 39.8017Z" fill="#BB2C75"/>
</g>
<defs>
<linearGradient id="paint0_linear" x1="214.503" y1="257.977" x2="214.503" y2="136.938" gradientUnits="userSpaceOnUse">
<stop stop-color="#808080" stop-opacity="0.25"/>
<stop offset="0.54" stop-color="#808080" stop-opacity="0.12"/>
<stop offset="1" stop-color="#808080" stop-opacity="0.1"/>
</linearGradient>
<linearGradient id="paint1_linear" x1="45604.5" y1="91166.4" x2="45604.5" y2="32319.8" gradientUnits="userSpaceOnUse">
<stop stop-color="#808080" stop-opacity="0.25"/>
<stop offset="0.54" stop-color="#808080" stop-opacity="0.12"/>
<stop offset="1" stop-color="#808080" stop-opacity="0.1"/>
</linearGradient>
<clipPath id="clip0">
<rect width="469" height="353" fill="white" transform="translate(0.853271 0.23584)"/>
</clipPath>
</defs>
</svg>
